<?xml version="1.0" standalone="no"?>
<!DOCTYPE svg PUBLIC "-//W3C//DTD SVG 1.1//EN" "http://www.w3.org/Graphics/SVG/1.1/DTD/svg11.dtd" >
<svg xmlns="http://www.w3.org/2000/svg">
<metadata>
This is a custom SVG font generated by IcoMoon.
<iconset id="v14" name="v14" grid="20"></iconset>
</metadata>
<defs>
<font id="v14" horiz-adv-x="640" >
<font-face units-per-em="640" ascent="608" descent="-32" />
<missing-glyph horiz-adv-x="640" />
<glyph class="hidden" unicode="&#xf000;" d="M0,608L 640 -32L0 -32 z" horiz-adv-x="0" />
<glyph unicode="&#xf267;" d="M 466.56,574.72q 27.52,0 47.36-19.84t 19.84-46.72l0-338.56q0-55.040-44.16-94.080t-106.24-39.040q-59.52,0-101.76,35.84-19.2-32-54.4-50.56t-76.8-18.56q-61.44,0-106.24,39.040t-44.16,94.72q0,42.24 28.16,77.44t 72.32,48.64l0,203.52q0,25.6 16.64,44.16t 41.6,21.76l 300.16,41.6q 0.64,0 3.84,0.64t 3.84,0.64z m-200.32-405.12q0,37.76 28.16,65.92t 71.68,33.92l0,57.6-99.84-14.72 0-142.72z m 200.32,0l0,338.56-300.16-42.24 0-264.32q-11.52,1.92-16,1.92-35.2,0-59.52-19.84t-24.32-46.72q0-28.16 24.96-47.36t 59.52-19.84 58.88,19.84 24.32,47.36l0,204.16 166.4,24.96 0-130.56q-11.52,1.92-16.64,1.92-34.56,0-58.88-19.84t-24.32-47.36 24.32-47.36 58.88-19.2 58.88,19.2 24.32,47.36z" horiz-adv-x="533.76"  />
<glyph unicode="&#xf268;" d="M 481.92,572.8q 7.040,0.64 12.8-4.48t 5.76-12.16l0-402.56q0-34.56-29.44-58.88t-71.040-24.32-71.040,24.32-29.44,58.88 29.44,59.52 71.040,24.96l0,124.16-200.32-21.12 0-253.44q0-34.56-29.44-58.88t-71.040-24.32-71.040,24.32-29.44,58.88 29.44,58.88 71.040,24.32l0,344.32q0,6.4 4.48,11.52t 10.24,5.76z" horiz-adv-x="499.84"  />
<glyph unicode="&#xf269;" d="M 327.040,435.84q-41.6,0-71.040-29.44t-29.44-71.040 29.44-71.040 71.040-29.44 71.040,29.44 29.44,71.040-29.44,71.040-71.040,29.44z m0,32.64q 55.040,0 94.080-39.040t 39.040-94.080-39.040-94.72-94.080-39.040-94.72,39.040-39.040,94.72 39.040,94.080 94.72,39.040z m-327.040-355.2q0,43.52 30.72,73.6l 75.52,76.16q-12.16,34.56-12.16,72.96 0,96.64 68.48,165.12t 165.12,67.84 165.12-67.84 67.84-165.12-67.84-165.12-165.12-68.48q-34.56,0-72.96,12.16l-80-79.36q-31.36-26.24-70.4-26.24-43.52,0-73.6,30.72t-30.72,74.24z m 215.040,56.32q-32.64,21.76-54.4,54.4l-83.2-83.84q-11.52-9.6-11.52-26.24 0-16 11.52-27.52t 26.24-11.52q 14.72,0 27.52,11.52z m 112-0.64q 69.12,0 117.76,49.28t 48.64,117.76-48.64,117.76-117.76,48.64-117.76-48.64-49.28-117.76 49.28-117.76 117.76-49.28z" horiz-adv-x="560"  />
<glyph unicode="&#xf26a;" d="M 327.040,568.96q 96.64,0 165.12-67.84t 67.84-165.12-67.84-165.12-165.12-68.48q-34.56,0-72.96,12.16l-77.44-77.44q-32-28.16-72.96-28.16-43.52,0-73.6,30.72t-30.72,74.24 29.44,72.96q 33.92,34.56 50.56,51.2l 25.6,25.6q-12.16,38.4-12.16,72.96 0,96.64 68.48,165.12t 165.12,67.84z m0-400q 69.12,0 117.76,49.28t 48.64,117.76-48.64,117.76-117.76,48.64-117.76-48.64-49.28-117.76 49.28-117.76 117.76-49.28z m0,300.16q 55.040,0 94.080-39.040t 39.040-94.080-39.040-94.72-94.080-39.040-94.72,39.040-39.040,94.72 39.040,94.080 94.72,39.040z m0-232.96q 41.6,0 71.040,29.44t 29.44,71.040-29.44,71.040-71.040,29.44-71.040-29.44-29.44-71.040 29.44-71.040 71.040-29.44z" horiz-adv-x="560"  />
<glyph unicode="&#xf26b;" d="M 533.76,504.96q 28.16,0 47.36-19.2t 19.2-47.36l0-300.16q0-27.52-19.2-46.72t-47.36-19.84l-467.2,0q-28.16,0-47.36,19.84t-19.2,46.72l0,300.16q0,28.16 19.2,47.36t 47.36,19.2l 467.2,0z m-269.44-290.56l-51.84,45.44-121.6-121.6 419.2,0-121.6,121.6-51.84-45.44q-15.36-12.8-35.84-12.8t-35.84,12.8z m-197.76-53.12l 120.32,120.96-120.32,104.96 0-225.92z m 347.52,120.96l 120.32-120.32 0,224.64z m 120.32,156.16l-467.2,0 0-7.040 219.52-192q 5.76-5.12 14.72-5.12t 14.72,5.12l 219.52,192 0,7.040z" horiz-adv-x="600.32"  />
<glyph unicode="&#xf26c;" d="M 325.12,22.4q-10.24,0-18.56,5.76-16.64,11.52-53.76,37.12t-98.56,72.32-85.76,69.76q-67.84,67.84-67.84,168.96 0,74.24 52.48,126.72t 126.72,52.48q 91.52,0 145.92-75.52 24.96,35.2 63.36,55.040t 82.56,19.84q 74.24,0 126.72-52.48t 51.84-126.72q0-101.12-67.84-168.96-24.32-24.32-85.12-69.76t-99.2-72.32-53.76-37.12q-8.32-5.76-19.2-5.76z m-145.92,466.56q-46.72,0-79.36-32.64t-33.28-80q0-72.96 48.64-121.6 50.56-50.56 209.92-158.72 159.36,108.16 209.92,158.72 48.64,48.64 48.64,121.6 0,47.36-32.64,80t-79.36,32.64q-47.36,0-80-32.64t-32.64-80q0-13.44-10.24-23.040t-23.68-9.6-23.040,9.6-9.6,23.040q0,47.36-33.28,80t-79.36,32.64z" horiz-adv-x="649.6"  />
<glyph unicode="&#xf26d;" d="M 291.84,376.32q0,60.8-42.88,103.040t-103.68,42.24-103.040-42.24-42.24-103.040q0-88.32 58.24-146.56 23.040-23.040 81.92-66.56t 104.96-75.52l 47.36-32q 179.84,121.6 232.96,174.72 58.24,58.24 58.24,146.56 0,60.8-42.24,103.040t-103.040,42.24-103.040-42.24-42.24-103.040z" horiz-adv-x="583.040"  />
<glyph unicode="&#xf26e;" d="M 474.24-10.88q-12.16,0-24.96,7.040l-136.96,77.44-137.6-77.44q-28.16-15.36-53.76,2.56-26.24,18.56-19.84,50.56l 32,155.52q-6.4,5.76-24.96,22.4t-28.8,25.6l-63.36,57.6q-24.32,22.4-13.44,53.12t 42.24,34.56l 156.16,16.64 65.92,144q 13.44,29.44 45.44,29.44 30.72,0 45.44-29.44l 64.64-144 156.8-17.92q 30.72-2.56 40.96-33.28t-13.44-53.12l-117.12-106.24 32-154.24q 3.84-22.4-10.24-40.96t-38.4-18.56z m-272,219.52q-0.64-2.56-5.12-23.040t-10.88-53.76-12.16-59.52l 121.6,69.12q 16.64,8.96 32.64,0l 121.6-69.12-28.16,136.96q-3.84,18.56 10.24,31.36l 103.040,94.72-139.52,15.36q-19.2,2.56-26.24,19.2l-57.6,127.36-57.6-127.36q-8.32-16.64-27.52-19.2l-138.24-15.36 103.040-94.72q 13.44-12.16 9.6-32z" horiz-adv-x="624.64"  />
<glyph unicode="&#xf26f;" d="M 190.080,383.36q 44.16,97.92 72.96,161.92 3.84,9.6 15.36,9.6t 15.36-9.6l 72.96-161.92q 104.96-11.52 175.36-19.2 9.6-1.92 13.44-11.52t-3.84-17.92l-130.56-119.040q 21.12-103.040 35.2-172.8 1.92-9.6-6.4-16.64t-17.92-1.28l-153.6,87.040q-92.16-51.84-153.6-87.040-9.6-5.76-17.92,1.28t-7.040,16.64l 35.84,172.8q-78.72,71.040-130.56,119.040-8.32,7.040-3.84,17.28t 13.44,11.52z" horiz-adv-x="556.16"  />
<glyph unicode="&#xf270;" d="M 200.32,505.6q-41.6,0-71.040-29.44t-29.44-71.040 29.44-71.040 71.040-29.44 71.040,29.44 29.44,71.040-29.44,71.040-71.040,29.44z m0,66.56q 69.12,0 117.76-48.64t 48.64-117.76-48.64-117.76-117.76-48.64-117.76,48.64-48.64,117.76 48.64,117.76 117.76,48.64z m0-432.64q-47.36,0-80.64-14.72t-46.72-34.56q 48-18.56 127.36-18.56t 126.72,18.56q-13.44,19.2-46.72,33.92t-79.36,14.72z m0,66.56q 87.040,0 143.36-40.32t 56.32-93.44q0-26.24-56.96-46.72t-142.72-19.84q-89.6,0-144.64,19.84t-55.040,46.72q0,53.12 55.040,93.44t 144.64,40.32z" horiz-adv-x="400"  />
<glyph unicode="&#xf271;" d="M 200.32,572.16q 69.12,0 117.76-48.64t 48.64-117.76-48.64-117.76-117.76-48.64-117.76,48.64-48.64,117.76 48.64,117.76 117.76,48.64z m-200.32-499.84q0,53.12 55.040,93.44t 144.64,40.32q 87.040,0 143.36-40.32t 56.32-93.44q0-26.24-56.96-46.72t-142.72-19.84q-89.6,0-144.64,19.84t-55.040,46.72z" horiz-adv-x="400"  />
<glyph unicode="&#xf272;" d="M 383.36,239.36q-69.12,0-117.76,48.64t-48.64,117.76 48.64,117.76 117.76,48.64 117.76-48.64 49.28-117.76-49.28-117.76-117.76-48.64z m0,266.24q-41.6,0-71.040-29.44t-29.44-71.040 29.44-71.040 71.040-29.44 71.040,29.44 29.44,71.040-29.44,71.040-71.040,29.44z m 266.24-300.16q-35.2,0-59.52,24.32t-24.32,58.88 24.32,58.88 59.52,24.32 59.52-24.32 24.32-58.88-24.32-58.88-59.52-24.32z m0,133.76q-19.84,0-34.56-14.72t-14.72-35.84q0-19.84 14.72-34.56t 35.2-14.72 35.84,14.72 14.72,34.56-14.72,35.2-35.84,15.36z m0-153.6q 51.2,0 83.84-21.76t 32.64-50.56q0-14.72-33.92-25.6t-83.2-11.52q-27.52,0-53.12,3.84 0-1.92 0.64-4.48t 0.64-4.48q0-26.24-61.44-46.72t-152.96-19.84q-96,0-154.88,19.84t-58.88,46.72q0,1.92 0.64,5.12t 0.64,5.12q-32-5.12-53.76-5.12-51.84,0-84.48,11.52t-32.64,25.6q0,28.8 32,50.56t 85.12,21.76q 63.36,0 96.64-32 63.36,51.84 169.6,51.84t 169.6-51.84q 33.92,32 96.64,32z m-533.12-75.52q 38.4,0 65.92,7.040 3.2,5.12 8.32,11.52-24.32,24.32-73.6,24.32-62.72,0-80.64-31.36 28.16-11.52 80.64-11.52z m 266.24-38.4q 83.84,0 138.24,19.2-16,19.2-52.48,33.92t-85.76,14.72q-51.84,0-88.32-14.72t-51.2-33.92q 53.76-19.2 139.52-19.2z m 266.24,38.4q 53.76,0 80.64,12.16-8.32,12.16-29.44,21.12t-51.84,8.96q-48.64,0-73.6-23.040 3.2-3.84 8.32-12.16 25.6-7.040 65.92-7.040z m-533.12,95.36q-35.2,0-59.52,24.32t-24.32,58.88 24.32,58.88 58.88,24.32 58.88-24.32 24.32-58.88-24.32-58.88-59.52-24.32z m0,133.76q-21.12,0-35.84-15.36t-14.72-35.2 14.72-34.56 35.84-14.72 35.2,14.72 14.72,34.56q0,21.12-14.72,35.84t-34.56,14.72z" horiz-adv-x="766.72"  />
<glyph unicode="&#xf273;" d="M 550.4,405.76q0-69.12-49.28-117.76t-117.76-48.64-117.76,48.64-48.64,117.76 48.64,117.76 117.76,48.64 117.76-48.64 49.28-117.76z m 183.040-117.12q0-34.56-24.32-58.88t-59.52-24.32-59.52,24.32-24.32,58.88 24.32,58.88 59.52,24.32 59.52-24.32 24.32-58.88z m-83.84-103.040q 51.2,0 83.84-21.76t 32.64-50.56q0-14.72-33.92-25.6t-83.2-11.52q-27.52,0-53.12,3.84 0-1.92 0.64-4.48t 0.64-4.48q0-26.24-61.44-46.72t-152.96-19.84q-96,0-154.88,19.84t-58.88,46.72q0,1.92 0.64,5.12t 0.64,5.12q-32-5.12-53.76-5.12-51.84,0-84.48,11.52t-32.64,25.6q0,28.8 32,50.56t 85.12,21.76q 63.36,0 96.64-32 63.36,51.84 169.6,51.84t 169.6-51.84q 33.92,32 96.64,32z m-449.92,103.040q0-34.56-24.32-58.88t-59.52-24.32-59.52,24.32-24.32,58.88 24.32,58.88 59.52,24.32q 34.56,0 58.88-24.32t 24.32-58.88z" horiz-adv-x="766.72"  />
<glyph unicode="&#xf274;" d="M 600.32,239.36l-200.32,0q-13.44,0-23.68,9.6t-10.24,23.040 10.24,23.68 23.68,10.24l 200.32,0q 13.44,0 23.68-10.24t 10.24-23.68-10.24-23.040-23.68-9.6z m-99.84-99.84q-13.44,0-23.68,9.6t-10.24,23.040l0,200.32q0,13.44 10.24,23.68t 23.68,10.24 23.68-10.24 10.24-23.68l0-200.32q0-13.44-10.24-23.040t-23.68-9.6z m-300.16,366.72q-41.6,0-71.040-29.44t-29.44-71.040 29.44-71.040 71.040-29.44 71.040,29.44 29.44,71.040-29.44,71.040-71.040,29.44z m0,66.56q 69.12,0 117.76-48.64t 48.64-117.76-48.64-117.76-117.76-48.64-117.76,48.64-48.64,117.76 48.64,117.76 117.76,48.64z m0-432.64q-47.36,0-80.64-14.72t-46.72-34.56q 48-18.56 127.36-18.56t 126.72,18.56q-13.44,19.2-46.72,33.92t-79.36,14.72z m0,66.56q 87.040,0 143.36-40.32t 56.32-93.44q0-26.24-56.96-46.72t-142.72-19.84q-89.6,0-144.64,19.84t-55.040,46.72q0,53.12 55.040,93.44t 144.64,40.32z" horiz-adv-x="633.6"  />
<glyph unicode="&#xf275;" d="M 366.72,405.76q0-69.12-48.64-117.76t-117.76-48.64-117.76,48.64-48.64,117.76 48.64,117.76 117.76,48.64 117.76-48.64 48.64-117.76z m-166.4-400q-89.6,0-144.64,19.84t-55.040,46.72q0,53.12 55.040,93.44t 144.64,40.32q 87.040,0 143.36-40.32t 56.32-93.44q0-26.24-56.96-46.72t-142.72-19.84z m 400,300.16q 13.44,0 23.68-10.24t 10.24-23.68-10.24-23.040-23.68-9.6l-66.56,0 0-67.2q0-13.44-10.24-23.040t-23.68-9.6-23.68,9.6-10.24,23.040l0,67.2-66.56,0q-13.44,0-23.68,9.6t-10.24,23.040 10.24,23.68 23.68,10.24l 66.56,0 0,66.56q0,13.44 10.24,23.68t 23.68,10.24 23.68-10.24 10.24-23.68l0-66.56 66.56,0z" horiz-adv-x="633.6"  />
<glyph unicode="&#xf276;" d="M 600.32,239.36l-200.32,0q-13.44,0-23.68,9.6t-10.24,23.040 10.24,23.68 23.68,10.24l 200.32,0q 13.44,0 23.68-10.24t 10.24-23.68-10.24-23.040-23.68-9.6z m-400,266.24q-41.6,0-71.040-29.44t-29.44-71.040 29.44-71.040 71.040-29.44 71.040,29.44 29.44,71.040-29.44,71.040-71.040,29.44z m0,66.56q 69.12,0 117.76-48.64t 48.64-117.76-48.64-117.76-117.76-48.64-117.76,48.64-48.64,117.76 48.64,117.76 117.76,48.64z m0-432.64q-47.36,0-80.64-14.72t-46.72-34.56q 48-18.56 127.36-18.56t 126.72,18.56q-13.44,19.2-46.72,33.92t-79.36,14.72z m0,66.56q 87.040,0 143.36-40.32t 56.32-93.44q0-26.24-56.96-46.72t-142.72-19.84q-89.6,0-144.64,19.84t-55.040,46.72q0,53.12 55.040,93.44t 144.64,40.32z" horiz-adv-x="633.6"  />
<glyph unicode="&#xf277;" d="M 600.32,239.36l-200.32,0q-13.44,0-23.68,9.6t-10.24,23.040 10.24,23.68 23.68,10.24l 200.32,0q 13.44,0 23.68-10.24t 10.24-23.68-10.24-23.040-23.68-9.6z m-400,332.8q 69.12,0 117.76-48.64t 48.64-117.76-48.64-117.76-117.76-48.64-117.76,48.64-48.64,117.76 48.64,117.76 117.76,48.64z m0-366.72q 87.040,0 143.36-40.32t 56.32-93.44q0-26.24-56.96-46.72t-142.72-19.84q-89.6,0-144.64,19.84t-55.040,46.72q0,53.12 55.040,93.44t 144.64,40.32z" horiz-adv-x="633.6"  />
<glyph unicode="&#xf278;" d="M 133.76,405.76l 266.24,0 0-233.6-266.24,0 0,233.6z m 232.96-200.32l0,166.4-200.32,0 0-166.4 200.32,0z m 67.2,400q 41.6,0 71.040-29.44t 29.44-71.040l0-433.92q0-41.6-29.44-71.040t-71.040-29.44l-99.84,0 0,66.56-133.76,0 0-66.56-99.84,0q-41.6,0-71.040,29.44t-29.44,71.040l0,433.92q0,41.6 29.44,71.040t 71.040,29.44l 99.84,0 0-67.2 133.76,0 0,67.2 99.84,0z m 32.64-133.76l0,33.92q0,13.44-9.6,23.040t-23.040,9.6l-33.92,0 0-66.56-266.24,0 0,66.56-33.92,0q-13.44,0-23.68-9.6t-10.24-23.040l0-33.92q 13.44,0 23.68-10.24t 10.24-23.68-10.24-23.040-23.68-9.6l0-33.92q 13.44,0 23.68-10.24t 10.24-23.68-10.24-23.040-23.68-9.6l0-33.92q 13.44,0 23.68-10.24t 10.24-23.68-10.24-23.040-23.68-9.6l0-33.92q 13.44,0 23.68-10.24t 10.24-23.68-10.24-23.040-23.68-9.6l0-33.92q0-13.44 10.24-23.68t 23.68-10.24l 33.92,0 0,67.2 266.24,0 0-67.2 33.92,0q 13.44,0 23.040,10.24t 9.6,23.68l0,33.92q-13.44,0-23.040,9.6t-9.6,23.040 9.6,23.68 23.040,10.24l0,33.92q-13.44,0-23.040,9.6t-9.6,23.040 9.6,23.68 23.040,10.24l0,33.92q-13.44,0-23.040,9.6t-9.6,23.040 9.6,23.68 23.040,10.24l0,33.92q-13.44,0-23.040,9.6t-9.6,23.040 9.6,23.68 23.040,10.24z" horiz-adv-x="533.76"  />
<glyph unicode="&#xf279;" d="M 133.76,355.84q0,32.64 32.64,32.64 33.92,0 33.92-32.64 0-33.92-33.92-33.92-32.64,0-32.64,33.92z m 332.8,200.32q 38.4,0 66.56-25.6t 32.64-61.44l 56.96,18.56q 16,5.76 30.080-5.12t 14.080-26.24l0-200.32q0-16-13.44-26.88t-30.72-5.12l-56.96,19.2q-5.12-35.84-32.64-61.44t-66.56-25.6l-66.56,0 0-34.56q0-40.32-29.44-69.76t-70.4-29.44-68.48,27.52-31.36,68.48l0,37.76-99.84,0q-40.96,0-70.4,29.44t-29.44,70.4l0,200.32q0,40.96 29.44,70.4t 70.4,29.44l 366.72,0z m-166.4-467.2q 12.8,0 23.040,10.24t 10.24,23.040l0,67.2-67.2,0 0-67.2q 1.92-13.44 10.88-23.040t 23.040-9.6z m 166.4,133.76q 14.72,0 24.32,9.6t 9.6,24.32l0,200.32q0,13.44-10.24,23.040t-23.68,9.6l-366.72,0q-13.44,0-23.68-9.6t-10.24-23.040l0-200.32q0-13.44 10.24-23.68t 23.68-10.24l 366.72,0z m 133.76,80l0,107.52-66.56-19.84 0-67.2q 3.84,0 66.56-19.84z" horiz-adv-x="666.24"  />
<glyph unicode="&#xf27a;" d="M 666.24,455.040q 14.72,0 24.32-9.6t 9.6-23.040l0-267.52q0-13.44-9.6-23.040t-24.32-9.6q-8.32,0-14.72,3.2l-85.76,42.24 0-12.8q0-41.6-29.44-71.040t-71.040-29.44l-366.72,0q-41.6,0-71.040,29.44t-29.44,71.040l0,267.52q0,41.6 29.44,71.040t 71.040,29.44l 366.72,0q 41.6,0 71.040-29.44t 29.44-71.040l0-12.8 85.76,42.24q 6.4,3.2 14.72,3.2z m-499.84-216.32q 21.12,0 35.84,14.72t 14.72,35.2-14.72,35.2-35.84,14.72-35.2-14.72-14.72-35.2 14.72-35.2 35.2-14.72z" horiz-adv-x="700.16"  />
<glyph unicode="&#xf27b;" d="M 216.96,422.4q-19.84,0-35.2-14.72t-15.36-35.84q0-19.84 14.72-34.56t 35.84-14.72q 19.84,0 34.56,14.72t 14.72,35.2-14.72,35.84-34.56,14.72z m0,32.64q 34.56,0 58.88-24.32t 24.32-59.52-24.32-59.52-58.88-24.32-58.88,24.32-24.32,59.52 24.32,59.52 58.88,24.32z m 99.84-266.24q-31.36,0-60.16,16.64t-56.96,16.64q-25.6,0-53.76-67.2l 379.52,0q-12.16,54.4-29.44,93.44t-29.44,40.32q-21.76,0-61.44-44.8-16-17.92-26.24-26.88t-27.52-18.56-34.56-9.6z m 149.76,133.76q 29.44,0 54.4-49.92t 35.2-100.48l 10.24-49.92-466.56,0q 1.92,5.76 3.84,14.72t 12.16,31.36 19.84,40.32 28.16,32 35.84,14.72q 35.2,0 64.64-16.64t 51.84-16.64q 16,0 34.56,15.36t 33.92,34.56 37.12,34.56 44.16,15.36z m 200.32,166.4l0-400q0-27.52-19.84-46.72t-46.72-19.84l-533.76,0q-28.16,0-47.36,19.84t-19.2,46.72l0,400q0,27.52 19.2,46.72t 47.36,19.84l 533.76,0q 27.52,0 46.72-19.84t 19.84-46.72z m-66.56-400l0,400-533.76,0 0-400 533.76,0z" horiz-adv-x="666.24"  />
<glyph unicode="&#xf27c;" d="M 133.76,372.48q0,83.2 83.2,83.2t 83.2-83.2-83.2-83.2-83.2,83.2z m 332.8-50.56q 26.24,0 49.92-39.040 32.64-59.52 50.56-160.64l-466.56,0 10.24,33.92q 11.52,34.56 35.84,67.2t 53.76,32.64q 34.56,0 80.64-24.96 16-8.96 35.84-8.96 24.32,0 55.040,35.2 37.12,41.6 58.24,54.4 17.92,10.24 35.84,10.24z m-466.56,167.040q0,27.52 19.2,46.72t 47.36,19.84l 533.76,0q 27.52,0 46.72-19.84t 19.84-46.72l0-400q0-28.16-19.84-47.36t-46.72-19.84l-533.76,0q-27.52,0-46.72,19.84t-19.84,47.36l0,400z m 600.32-400l0,400-533.76,0 0-400 533.76,0z" horiz-adv-x="666.24"  />
<glyph unicode="&#xf27d;" d="M 566.4,22.4l-466.56,0q-41.6,0-71.040,29.44t-29.44,71.040l0,266.24q0,41.6 29.44,71.040t 71.040,29.44l 53.12,0 33.92,33.92q 14.72,14.72 37.12,23.68t 43.52,8.96l 133.76,0q 21.12,0 43.52-8.96t 37.12-23.68l 32.64-33.92 53.12,0q 41.6,0 71.040-29.44t 29.44-71.040l0-266.24q0-41.6-29.44-71.040t-71.040-29.44z m-466.56,400q-13.44,0-23.68-10.24t-10.24-23.68l0-266.24q0-13.44 10.24-23.68t 23.68-10.24l 466.56,0q 13.44,0 23.68,10.24t 10.24,23.68l0,266.24q0,13.44-10.24,23.68t-23.68,10.24l-66.56,0q-13.44,0-23.040,9.6l-43.52,43.52q-13.44,13.44-33.92,13.44l-133.76,0q-19.2,0-32.64-13.44l-43.52-43.52q-9.6-9.6-24.32-9.6l-66.56,0z m 233.6-67.2q-34.56,0-59.52-24.32t-24.96-58.88 24.96-58.88 59.52-24.32 58.88,24.32 24.32,58.88-24.32,58.88-58.88,24.32z m0,33.92q 48.64,0 82.56-33.92t 33.92-82.56q0-48-33.92-82.56t-81.92-34.56q-48.64,0-82.56,34.56t-33.92,82.56q0,48.64 33.92,82.56t 82.56,33.92z m 200.32,10.24q 17.92,0 30.72-12.8t 12.8-31.36-12.16-30.72-30.72-12.16-31.36,12.8-12.8,30.72q0,18.56 12.8,31.36t 31.36,12.8z" horiz-adv-x="666.24"  />
<glyph unicode="&#xf27e;" d="M 566.4,488.96q 41.6,0 71.040-29.44t 29.44-71.040l0-266.24q0-41.6-29.44-71.040t-71.040-29.44l-466.56,0q-41.6,0-71.040,29.44t-29.44,71.040l0,266.24q0,41.6 29.44,71.040t 71.040,29.44l 53.12,0 33.92,33.92q 14.72,14.72 37.12,23.68t 43.52,8.96l 133.76,0q 21.12,0 43.52-8.96t 37.12-23.68l 32.64-33.92 53.12,0z m-232.96-333.44q 48,0 81.92,34.56t 33.92,82.56q0,48.64-33.92,82.56t-82.56,33.92-82.56-33.92-33.92-82.56q0-48 33.92-82.56t 82.56-34.56z m 200.32,156.8q 18.56,0 30.72,12.16t 12.16,30.72-12.8,31.36-30.72,12.8q-18.56,0-31.36-12.8t-12.8-31.36q0-17.92 12.8-30.72t 31.36-12.8z" horiz-adv-x="666.24"  />
<glyph unicode="&#xf27f;" d="M 133.76,155.52q 28.16,0 47.36-19.84t 19.2-46.72l0-66.56q0-28.16-19.84-47.36t-46.72-19.84l-67.2,0q-27.52,0-46.72,19.84t-19.84,47.36l0,66.56q0,27.52 19.2,46.72t 47.36,19.84l 67.2,0z m0-133.12l0,66.56-67.2,0 0-66.56 67.2,0z m0,366.72q 28.16,0 47.36-19.84t 19.2-46.72l0-67.2q0-27.52-19.2-46.72t-47.36-19.84l-67.2,0q-28.16,0-47.36,19.84t-19.2,46.72l0,67.2q0,27.52 19.2,46.72t 47.36,19.84l 67.2,0z m0-133.76l0,67.2-67.2,0 0-67.2 67.2,0z m0,367.36q 27.52,0 46.72-19.84t 19.84-47.36l0-66.56q0-27.52-19.2-46.72t-47.36-19.84l-67.2,0q-28.16,0-47.36,19.84t-19.2,46.72l0,66.56q0,28.16 19.84,47.36t 46.72,19.84l 67.2,0z m0-133.76l0,66.56-67.2,0 0-66.56 67.2,0z m 232.96-333.44q 28.16,0 47.36-19.84t 19.84-46.72l0-66.56q0-28.16-19.84-47.36t-47.36-19.84l-66.56,0q-27.52,0-46.72,19.84t-19.84,47.36l0,66.56q0,27.52 19.2,46.72t 47.36,19.84l 66.56,0z m0-133.12l0,66.56-66.56,0 0-66.56 66.56,0z m0,366.72q 28.16,0 47.36-19.84t 19.84-46.72l0-67.2q0-27.52-19.84-46.72t-47.36-19.84l-66.56,0q-28.16,0-47.36,19.84t-19.2,46.72l0,67.2q0,27.52 19.2,46.72t 47.36,19.84l 66.56,0z m0-133.76l0,67.2-66.56,0 0-67.2 66.56,0z m0,367.36q 27.52,0 47.36-19.84t 19.84-47.36l0-66.56q0-27.52-19.84-46.72t-47.36-19.84l-66.56,0q-28.16,0-47.36,19.84t-19.2,46.72l0,66.56q0,28.16 19.84,47.36t 46.72,19.84l 66.56,0z m0-133.76l0,66.56-66.56,0 0-66.56 66.56,0z m 233.6-333.44q 27.52,0 46.72-19.84t 19.84-46.72l0-66.56q0-28.16-19.84-47.36t-46.72-19.84l-66.56,0q-28.16,0-47.36,19.84t-19.84,47.36l0,66.56q0,27.52 19.84,46.72t 47.36,19.84l 66.56,0z m0-133.12l0,66.56-66.56,0 0-66.56 66.56,0z m0,366.72q 27.52,0 46.72-19.84t 19.84-46.72l0-67.2q0-27.52-19.84-46.72t-46.72-19.84l-66.56,0q-28.16,0-47.36,19.84t-19.84,46.72l0,67.2q0,27.52 19.84,46.72t 47.36,19.84l 66.56,0z m0-133.76l0,67.2-66.56,0 0-67.2 66.56,0z m0,367.36q 27.52,0 46.72-19.84t 19.84-47.36l0-66.56q0-27.52-19.84-46.72t-46.72-19.84l-66.56,0q-28.16,0-47.36,19.84t-19.84,46.72l0,66.56q0,28.16 19.84,47.36t 47.36,19.84l 66.56,0z m0-133.76l0,66.56-66.56,0 0-66.56 66.56,0z" horiz-adv-x="666.24"  />
<glyph unicode="&#xf280;" d="M0,55.040q0,83.2 83.2,83.2t 83.2-83.2-83.2-83.2-83.2,83.2z m0,233.6q0,83.2 83.2,83.2t 83.2-83.2-83.2-83.2-83.2,83.2z m0,233.6q0,83.2 83.2,83.2t 83.2-83.2-83.2-83.2-83.2,83.2z m 233.6-467.2q0,83.2 83.2,83.2t 83.2-83.2-83.2-83.2-83.2,83.2z m0,233.6q0,83.2 83.2,83.2t 83.2-83.2-83.2-83.2-83.2,83.2z m0,233.6q0,83.2 83.2,83.2t 83.2-83.2-83.2-83.2-83.2,83.2z m 232.96-467.2q0,83.2 83.84,83.2 83.2,0 83.2-83.2t-83.2-83.2q-83.84,0-83.84,83.2z m0,233.6q0,83.2 83.84,83.2 83.2,0 83.2-83.2t-83.2-83.2q-83.84,0-83.84,83.2z m0,233.6q0,83.2 83.84,83.2 83.2,0 83.2-83.2t-83.2-83.2q-83.84,0-83.84,83.2z" horiz-adv-x="633.6"  />
<glyph unicode="&#xf281;" d="M 233.6,622.72q 27.52,0 46.72-19.84t 19.84-47.36l0-166.4q0-28.16-19.84-47.36t-46.72-19.2l-167.040,0q-28.16,0-47.36,19.2t-19.2,47.36l0,166.4q0,28.16 19.84,47.36t 46.72,19.84l 167.040,0z m0-233.6l0,166.4-167.040,0 0-166.4 167.040,0z m 366.72,233.6q 27.52,0 46.72-19.84t 19.84-47.36l0-166.4q0-28.16-19.84-47.36t-46.72-19.2l-166.4,0q-28.16,0-47.36,19.84t-19.84,46.72l0,166.4q0,28.16 19.84,47.36t 47.36,19.84l 166.4,0z m0-233.6l0,166.4-166.4,0 0-166.4 166.4,0z m-366.72-133.76q 27.52,0 46.72-19.2t 19.84-47.36l0-166.4q0-28.16-19.84-47.36t-46.72-19.84l-167.040,0q-27.52,0-46.72,19.84t-19.84,47.36l0,166.4q0,28.16 19.2,47.36t 47.36,19.2l 167.040,0z m0-232.96l0,166.4-167.040,0 0-166.4 167.040,0z m 366.72,232.96q 27.52,0 46.72-19.2t 19.84-47.36l0-166.4q0-28.16-19.84-47.36t-46.72-19.84l-166.4,0q-27.52,0-47.36,19.84t-19.84,47.36l0,166.4q0,27.52 19.84,46.72t 47.36,19.84l 166.4,0z m0-232.96l0,166.4-166.4,0 0-166.4 166.4,0z" horiz-adv-x="666.24"  />
<glyph unicode="&#xf282;" d="M0,488.96q0,41.6 29.44,71.040t 71.040,29.44l 66.56,0q 41.6,0 71.040-29.44t 29.44-71.040l0-66.56q0-41.6-29.44-71.040t-71.040-29.44l-66.56,0q-41.6,0-71.040,29.44t-29.44,71.040l0,66.56z m 333.44,0q0,41.6 29.44,71.040t 71.040,29.44l 66.56,0q 41.6,0 71.040-29.44t 29.44-71.040l0-66.56q0-41.6-29.44-71.040t-71.040-29.44l-66.56,0q-41.6,0-71.040,29.44t-29.44,71.040l0,66.56z m-333.44-333.44q0,41.6 29.44,71.040t 71.040,29.44l 66.56,0q 41.6,0 71.040-29.44t 29.44-71.040l0-66.56q0-41.6-29.44-71.040t-71.040-29.44l-66.56,0q-41.6,0-71.040,29.44t-29.44,71.040l0,66.56z m 333.44,0q0,41.6 29.44,71.040t 71.040,29.44l 66.56,0q 41.6,0 71.040-29.44t 29.44-71.040l0-66.56q0-41.6-29.44-71.040t-71.040-29.44l-66.56,0q-41.6,0-71.040,29.44t-29.44,71.040l0,66.56z" horiz-adv-x="600.32"  />
<glyph unicode="&#xf283;" d="M 566.4,88.96l-232.96,0q-13.44,0-23.68-10.24t-10.24-23.68 10.24-23.040 23.68-9.6l 232.96,0q 13.44,0 23.68,9.6t 10.24,23.040-10.24,23.68-23.68,10.24z m0,66.56q 41.6,0 71.040-29.44t 29.44-71.040-29.44-71.040-71.040-29.44l-232.96,0q-41.6,0-71.040,29.44t-29.44,71.040 29.44,71.040 71.040,29.44l 232.96,0z m0,167.040l-232.96,0q-13.44,0-23.68-10.24t-10.24-23.68 10.24-23.68 23.68-10.24l 232.96,0q 13.44,0 23.68,10.24t 10.24,23.68-10.24,23.68-23.68,10.24z m0,66.56q 41.6,0 71.040-29.44t 29.44-71.040-29.44-71.040-71.040-29.44l-232.96,0q-41.6,0-71.040,29.44t-29.44,71.040 29.44,71.040 71.040,29.44l 232.96,0z m0,166.4l-232.96,0q-13.44,0-23.68-9.6t-10.24-23.040 10.24-23.68 23.68-10.24l 232.96,0q 13.44,0 23.68,10.24t 10.24,23.68-10.24,23.040-23.68,9.6z m0,67.2q 41.6,0 71.040-29.44t 29.44-71.040-29.44-71.040-71.040-29.44l-232.96,0q-41.6,0-71.040,29.44t-29.44,71.040 29.44,71.040 71.040,29.44l 232.96,0z m-432.64-467.2q 28.16,0 47.36-19.84t 19.2-46.72l0-66.56q0-28.16-19.84-47.36t-46.72-19.84l-67.2,0q-27.52,0-46.72,19.84t-19.84,47.36l0,66.56q0,27.52 19.2,46.72t 47.36,19.84l 67.2,0z m0-133.12l0,66.56-67.2,0 0-66.56 67.2,0z m0,366.72q 28.16,0 47.36-19.84t 19.2-46.72l0-67.2q0-27.52-19.2-46.72t-47.36-19.84l-67.2,0q-28.16,0-47.36,19.84t-19.2,46.72l0,67.2q0,27.52 19.2,46.72t 47.36,19.84l 67.2,0z m0-133.76l0,67.2-67.2,0 0-67.2 67.2,0z m0,367.36q 27.52,0 46.72-19.84t 19.84-47.36l0-66.56q0-27.52-19.2-46.72t-47.36-19.84l-67.2,0q-28.16,0-47.36,19.84t-19.2,46.72l0,66.56q0,28.16 19.84,47.36t 46.72,19.84l 67.2,0z m0-133.76l0,66.56-67.2,0 0-66.56 67.2,0z" horiz-adv-x="666.24"  />
<glyph unicode="&#xf284;" d="M 550.4,122.24q 27.52,0 46.72-19.84t 19.84-47.36q0-27.52-19.84-46.72t-46.72-19.84l-233.6,0q-28.16,0-47.36,19.84t-19.84,46.72 19.84,47.36 47.36,19.84l 233.6,0z m0,232.96q 27.52,0 46.72-19.84t 19.84-46.72-19.84-46.72-46.72-19.84l-233.6,0q-28.16,0-47.36,19.84t-19.84,46.72 19.84,46.72 47.36,19.84l 233.6,0z m0,233.6q 27.52,0 46.72-19.84t 19.84-46.72q0-28.16-19.84-47.36t-46.72-19.84l-233.6,0q-27.52,0-47.36,19.84t-19.84,47.36 19.84,46.72 47.36,19.84l 233.6,0z m-550.4-533.76q0,83.2 83.2,83.2t 83.2-83.2-83.2-83.2-83.2,83.2z m0,233.6q0,83.2 83.2,83.2t 83.2-83.2-83.2-83.2-83.2,83.2z m0,233.6q0,83.2 83.2,83.2t 83.2-83.2-83.2-83.2-83.2,83.2z" horiz-adv-x="616.96"  />
<glyph unicode="&#xf285;" d="M 233.6,38.4q-42.24,0-71.040,28.8l-133.12,133.76q-29.44,29.44-29.44,70.4 0,41.6 29.44,71.040 28.16,28.16 70.4,28.16t 70.4-28.16l 40.32-40.32 102.4,184.32q 12.8,24.32 36.48,37.76t 50.56,14.080q 56.32,0 85.76-48.64t 1.28-100.48l-166.4-300.16q-28.16-51.2-87.040-51.2z m-133.76,266.24q-13.44,0-23.68-10.24t-10.24-23.68q0-12.8 10.24-23.040l 133.12-133.76q 12.16-12.16 28.16-9.6t 24.32,16.64l 166.4,300.16q 7.040,14.72 2.56,27.52t-15.36,18.56q-12.16,6.4-24.96,2.56t-19.84-15.36l-145.92-261.76-102.4,102.4q-9.6,9.6-23.040,9.6z" horiz-adv-x="501.12"  />
<glyph unicode="&#xf286;" d="M 400,497.28q 24.32-12.8 31.36-40.32t-5.76-51.2l-166.4-300.16q-19.2-34.56-58.24-34.56-27.52,0-47.36,19.84l-133.76,133.12q-19.84,19.84-19.84,47.36t 19.84,47.36 47.36,19.84 47.36-19.84l 71.040-70.4 123.52,222.72q 12.8,24.32 40.32,32t 51.2-5.76z" horiz-adv-x="434.56"  />
<glyph unicode="&#xf287;" d="M 466.56,156.16q0-40.96-29.44-70.4t-70.4-29.44-70.4,29.44l-62.72,62.72-63.36-62.72q-28.16-28.16-70.4-28.16t-70.4,28.16q-29.44,29.44-29.44,70.4 0,41.6 29.44,71.040l 62.72,62.72-62.72,62.72q-29.44,29.44-29.44,71.040 0,40.96 29.44,70.4 28.16,28.16 70.4,28.16t 70.4-28.16l 63.36-62.72 62.72,62.72q 28.16,28.16 71.040,28.16t 71.040-28.16q 28.8-28.8 28.8-70.4 0-42.24-28.8-71.040l-63.36-62.72 63.36-62.72q 28.8-28.8 28.8-71.040z m-232.96,86.4l 109.44-109.44q 9.6-9.6 23.68-9.6t 23.68,9.6 9.6,23.040q0,14.72-9.6,24.32l-109.44,109.44 109.44,109.44q 9.6,9.6 9.6,24.32 0,13.44-9.6,23.040t-23.68,9.6-23.68-9.6l-109.44-109.44-110.72,109.44q-9.6,9.6-23.040,9.6t-23.040-9.6q-10.24-10.24-10.24-23.040 0-13.44 10.24-24.32l 109.44-109.44-109.44-109.44q-10.24-10.24-10.24-24.32 0-12.8 10.24-23.040 9.6-9.6 23.040-9.6t 23.040,9.6z" horiz-adv-x="466.56"  />
<glyph unicode="&#xf288;" d="M 381.44,469.12q 19.84-19.84 19.84-47.36t-19.84-47.36l-86.4-86.4 86.4-86.4q 19.84-19.84 19.84-47.36t-19.84-47.36q-19.2-19.2-47.36-19.2t-47.36,19.2l-86.4,86.4-86.4-86.4q-19.2-19.2-47.36-19.2t-47.36,19.2q-19.84,19.84-19.84,47.36t 19.84,47.36l 86.4,86.4-86.4,86.4q-19.84,19.84-19.84,47.36t 19.84,47.36q 19.2,19.84 47.36,19.84t 47.36-19.84l 86.4-86.4 86.4,86.4q 19.2,19.84 47.36,19.84t 47.36-19.84z" horiz-adv-x="401.92"  />
<glyph unicode="&#xf289;" d="M 599.040,21.76l-333.44,0q-35.84,0-74.24,19.2t-58.88,48.64l-87.040,122.24q-8.96,12.16-18.56,26.24t-15.36,21.12-5.12,7.68q-6.4,8.96-6.4,21.12t 5.76,21.12q 3.2,3.2 40.96,56.32l 86.4,121.6q 21.12,29.44 58.88,49.28t 74.24,19.84l 333.44,0q 41.6,0 71.040-29.44t 29.44-71.040l0-333.44q0-41.6-29.44-71.040t-71.040-29.44z m-525.44,266.24q 3.84-5.76 13.44-18.56t 13.44-17.92l 87.040-122.24q 11.52-16 35.2-28.16t 43.52-12.16l 333.44,0q 13.44,0 23.040,10.24t 9.6,23.68l0,333.44q0,13.44-9.6,23.040t-23.040,9.6l-333.44,0q-19.2,0-43.52-12.16t-35.2-28.16l-86.4-121.6q-5.12-6.4-14.080-19.84t-13.44-18.56z m 348.8,0l 88.96-88.32q 8.32-8.32 3.2-18.56t-15.36-10.24q-6.4,0-12.16,5.76l-88.32,88.32-88.32-88.32q-5.76-5.76-12.16-5.76-10.24,0-15.36,10.24t 3.2,18.56l 88.32,88.32-88.32,88.96q-7.040,7.040-3.84,16t 11.52,11.52 16.64-3.84l 88.32-88.32 88.32,88.32q 11.52,11.52 23.040-0.64t 0.64-23.040z" horiz-adv-x="699.52"  />
<glyph unicode="&#xf28a;" d="M 583.040,538.88q 34.56,0 58.88-24.32t 24.32-58.88l0-333.44q0-34.56-24.32-58.88t-58.88-24.32l-333.44,0q-32,0-65.92,17.92t-52.48,43.52l-88.32,122.24q-37.76,53.76-39.040,55.040-8.32,11.52 0,22.4l 5.12,7.040q 5.76,8.32 15.36,21.76t 19.84,26.88l 86.4,121.6q 18.56,25.6 53.12,43.52t 66.56,17.92l 333.44,0z m-76.8-326.4l-76.16,76.16 76.16,76.8q 9.6,9.6 9.6,23.68t-9.6,23.68-23.68,9.6-23.68-9.6l-76.16-76.8-76.8,76.8q-9.6,9.6-23.68,9.6t-23.68-9.6-9.6-23.68 9.6-23.68l 76.8-76.8-76.8-76.16q-9.6-9.6-9.6-23.68t 9.6-23.68q 10.24-10.24 24.32-10.24 12.8,0 23.040,10.24l 76.8,76.16 76.16-76.16q 10.24-10.24 24.32-10.24 12.8,0 23.040,10.24 9.6,9.6 9.6,23.68t-9.6,23.68z" horiz-adv-x="666.24"  />
<glyph unicode="&#xf28b;" d="M 300.16,588.8q 124.16,0 211.84-88.32t 88.32-211.84-88.32-211.84-211.84-88.32-211.84,88.32-88.32,211.84 88.32,211.84 211.84,88.32z m0-533.76q 96.64,0 165.12,68.48t 68.48,165.12-68.48,165.12-165.12,68.48-165.12-68.48-68.48-165.12 68.48-165.12 165.12-68.48z m 23.040,233.6l 88.96-88.32q 8.32-8.32 3.2-18.56t-15.36-10.24q-7.040,0-12.16,5.12l-88.32,88.96-88.32-88.96q-5.12-5.12-12.16-5.12-10.24,0-15.36,10.24t 3.2,18.56l 88.96,88.32-88.96,88.32q-11.52,11.52 0.64,23.040t 23.040,0.64l 88.32-88.96 88.32,88.96q 11.52,11.52 23.040-0.64t 0.64-23.040z" horiz-adv-x="600.32"  />
<glyph unicode="&#xf28c;" d="M 266.24,555.52q 110.72,0 188.8-78.080t 78.72-188.16-78.72-188.16-188.8-78.080-188.16,78.080-78.080,188.16 78.080,188.16 188.16,78.080z m 124.16-343.040l-76.8,76.8 76.8,76.8q 9.6,9.6 9.6,23.040t-9.6,23.040-23.68,9.6-23.68-9.6l-76.8-76.16-76.16,76.16q-9.6,9.6-23.68,9.6t-23.68-9.6-9.6-23.040 9.6-23.040l 76.16-76.8-76.16-76.8q-9.6-9.6-9.6-23.040t 9.6-23.040q 10.24-10.24 23.040-10.24 13.44,0 24.32,10.24l 76.16,76.16 76.8-76.16q 10.24-10.24 23.040-10.24 13.44,0 24.32,10.24 9.6,9.6 9.6,23.040t-9.6,23.040z" horiz-adv-x="533.76"  />
<glyph unicode="&#xf28d;" d="M 300.16-11.52q-41.6,0-71.040,29.44t-29.44,71.040l 1.92,101.76-101.12-1.92q-41.6,0-71.040,29.44t-29.44,71.040 29.44,71.040 71.040,29.44l 101.76,1.92-1.92,97.92q0,41.6 29.44,71.040t 71.040,29.44 71.040-29.44 29.44-71.040l 1.92-98.56 99.2-1.92q 40.96,0 69.76-29.44t 29.44-71.040-29.44-71.040-71.040-29.44l-98.56,1.92-1.92-102.4q0-40.96-29.44-69.76t-71.040-29.44z m-33.92,266.24l0-167.040q0-13.44 10.24-23.040t 23.68-9.6 23.68,10.24 10.24,23.68l0,166.4 167.040,0q 13.44,0 23.040,10.24t 9.6,23.68-10.24,23.68-23.68,10.24l-166.4,0 0,166.4q0,14.72-10.24,24.32t-23.68,9.6-23.68-10.24-10.24-23.68l0-166.4-166.4,0q-14.72,0-24.32-10.24t-9.6-23.68 10.24-23.68 23.68-10.24l 166.4,0z" horiz-adv-x="600.32"  />
<glyph unicode="&#xf28e;" d="M 466.56,355.2q 28.16,0 47.36-19.84t 19.84-46.72-19.84-46.72-47.36-19.84l-133.12,2.56 0-136.32q0-27.52-19.84-46.72t-47.36-19.84-47.36,19.84-19.2,46.72l 2.56,136.32-136.32-2.56q-28.16,0-47.36,19.84t-19.2,46.72 19.2,46.72 47.36,19.84l 136.32,0-2.56,133.76q0,27.52 19.2,46.72t 47.36,19.84 47.36-19.84 19.84-46.72l0-133.76 133.12,0z" horiz-adv-x="533.76"  />
<glyph unicode="&#xf28f;" d="M 499.84,188.8l-400,0q-41.6,0-71.040,29.44t-29.44,71.040 29.44,71.040 71.040,29.44l 400,0q 41.6,0 71.040-29.44t 29.44-71.040-29.44-71.040-71.040-29.44z m-400,133.76q-13.44,0-23.68-10.24t-10.24-23.68 10.24-23.040 23.68-9.6l 400,0q 13.44,0 23.68,9.6t 10.24,23.040-10.24,23.68-23.68,10.24l-400,0z" horiz-adv-x="600.32"  />
<glyph unicode="&#xf290;" d="M 466.56,355.84q 28.16,0 47.36-19.84t 19.84-47.36-19.84-46.72-47.36-19.84l-400,0q-28.16,0-47.36,19.84t-19.2,46.72q0,28.16 19.84,47.36t 46.72,19.84l 400,0z" horiz-adv-x="533.76"  />
<glyph unicode="&#xf291;" d="M 300.16,405.76q-41.6,0-71.040,29.44t-29.44,71.040 29.44,71.040 71.040,29.44 71.040-29.44 29.44-71.040-29.44-71.040-71.040-29.44z m0,133.12q-13.44,0-23.68-9.6t-10.24-23.040 10.24-23.68 23.68-10.24 23.68,10.24 10.24,23.68-10.24,23.040-23.68,9.6z m0-566.4q-41.6,0-71.040,29.44t-29.44,71.040 29.44,71.040 71.040,29.44 71.040-29.44 29.44-71.040-29.44-71.040-71.040-29.44z m0,133.76q-13.44,0-23.68-10.24t-10.24-23.68 10.24-23.040 23.68-9.6 23.68,9.6 10.24,23.040-10.24,23.68-23.68,10.24z m 200.32,83.2l-400,0q-41.6,0-71.040,29.44t-29.44,71.040 29.44,71.040 71.040,29.44l 400,0q 41.6,0 71.040-29.44t 29.44-71.040-29.44-71.040-71.040-29.44z m-400,133.76q-13.44,0-23.68-10.24t-10.24-23.68 10.24-23.68 23.68-10.24l 400,0q 13.44,0 23.68,10.24t 10.24,23.68-10.24,23.68-23.68,10.24l-400,0z" horiz-adv-x="600.32"  />
<glyph unicode="&#xf292;" d="M 192,488.96q0,75.52 74.24,75.52 75.52,0 75.52-75.52t-75.52-75.52q-74.24,0-74.24,75.52z m0-400q0,75.52 74.24,75.52 75.52,0 75.52-75.52t-75.52-75.52q-74.24,0-74.24,75.52z m-192,200.32q0,27.52 19.2,46.72t 47.36,19.84l 400,0q 28.16,0 47.36-19.84t 19.84-46.72-19.84-46.72-47.36-19.84l-400,0q-28.16,0-47.36,19.84t-19.2,46.72z" horiz-adv-x="533.76"  />
<glyph unicode="&#xf293;" d="M 499.84,305.92l-400,0q-41.6,0-71.040,29.44t-29.44,71.040 29.44,71.040 71.040,29.44l 400,0q 41.6,0 71.040-29.44t 29.44-71.040-29.44-71.040-71.040-29.44z m-400,133.76q-13.44,0-23.68-10.24t-10.24-23.68 10.24-23.68 23.68-10.24l 400,0q 13.44,0 23.68,10.24t 10.24,23.68-10.24,23.68-23.68,10.24l-400,0z m 400-367.36l-400,0q-41.6,0-71.040,29.44t-29.44,71.040 29.44,71.040 71.040,29.44l 400,0q 41.6,0 71.040-29.44t 29.44-71.040-29.44-71.040-71.040-29.44z m-400,133.76q-13.44,0-23.68-10.24t-10.24-23.68 10.24-23.040 23.68-9.6l 400,0q 13.44,0 23.68,9.6t 10.24,23.040-10.24,23.68-23.68,10.24l-400,0z" horiz-adv-x="600.32"  />
<glyph unicode="&#xf294;" d="M 466.56,472.32q 28.16,0 47.36-19.84t 19.84-46.72-19.84-46.72-47.36-19.84l-400,0q-28.16,0-47.36,19.2t-19.2,47.36 19.2,47.36 47.36,19.2l 400,0z m0-232.96q 28.16,0 47.36-19.84t 19.84-47.36q0-27.52-19.84-46.72t-47.36-19.84l-400,0q-28.16,0-47.36,19.2t-19.2,47.36 19.84,47.36 46.72,19.84l 400,0z" horiz-adv-x="533.76"  />
<glyph unicode="&#xf295;" d="M 274.56,138.24q 32-3.84 49.92-32.64 12.16-19.84 8.32-44.16t-21.76-39.040q-59.52-50.56-137.6-50.56-102.4,0-140.8,78.72-33.92,69.76 8.32,152.32l 19.2,37.12q-32.64,3.84-50.56,32.64-12.16,19.84-8.32,44.16t 21.76,39.040q 40.96,34.56 98.56,45.44-21.12,33.92-21.12,71.040 0,55.040 39.040,94.72t 94.72,39.040 94.080-39.040 39.040-94.72q0-40.32-21.76-72.96t-58.24-49.28q 25.6-33.92 28.16-78.72t-21.76-95.36z m-40.96,400q-28.16,0-47.36-19.84t-19.84-46.72 19.84-46.72 47.36-19.84q 27.52,0 46.72,19.84t 19.84,46.72-19.84,46.72-46.72,19.84z m-60.8-499.84q 24.96,0 48.64,8.32t 34.56,17.28l 10.24,8.32q-21.12-7.040-40.32-7.040-29.44,0-35.84,21.12t 9.6,52.48l 33.92,66.56q 28.16,58.24 6.4,96t-79.36,37.76q-24.96,0-48.64-8.32t-34.56-16.64l-11.52-8.32q 21.76,7.040 40.96,7.040 29.44,0 35.84-21.76t-9.6-51.84l-33.92-66.56q-28.16-58.24-6.4-96.64t 79.36-37.76z" horiz-adv-x="366.72"  />
<glyph unicode="&#xf296;" d="M 211.84,88.32q 12.16,3.84 19.84-7.68t-2.56-21.12q-3.2-3.2-14.080-10.24t-37.76-16.64-53.76-9.6q-69.76,0-95.36,50.56-22.4,47.36 8.32,107.52l 33.92,66.56q 17.92,35.2 1.92,46.72-3.2,3.2-13.44,3.2-7.040,0-15.36-1.92t-14.080-3.2l-5.12-1.92q-12.16-3.84-19.84,7.040t 2.56,21.12q 3.84,3.84 14.080,10.88t 37.12,16.64 53.76,10.24q 71.040,0 96-50.56 22.4-47.36-8.32-107.52l-33.92-66.56q-17.92-35.84-1.92-47.36 2.56-2.56 13.44-2.56 7.040,0 15.36,1.92t 14.080,3.2z m-111.36,384q0,83.2 83.2,83.2t 83.2-83.2-83.2-83.2-83.2,83.2z" horiz-adv-x="266.88"  />
<glyph unicode="&#xf297;" d="M 709.12,334.72q 24.96-19.2 24.96-51.2 0-27.52-19.84-46.72t-47.36-19.84l-32.64,0 0-200.32q0-28.16-19.84-47.36t-47.36-19.84l-400,0q-27.52,0-46.72,19.84t-19.84,47.36l0,200.32-33.92,0q-28.16,0-47.36,19.84t-19.2,46.72q0,29.44 23.040,50.56 50.56,42.24 130.56,111.36t 135.040,115.84 56.32,48l 21.76,18.56 22.4-18.56q 0.64-0.64 55.68-48t 135.040-115.84 129.92-110.72z m-275.2-317.44l0,166.4-133.76,0 0-166.4 133.76,0z m 133.12,266.24l 99.84,0q-147.84,124.16-300.16,256-152.32-131.84-300.16-256l 99.84,0 0-266.24 99.84,0 0,200.32 200.32,0 0-200.32 99.84,0 0,266.24z" horiz-adv-x="733.44"  />
<glyph unicode="&#xf298;" d="M 333.44,588.8q 205.44-178.56 320-274.56 12.8-10.24 12.8-25.6 0-13.44-9.6-23.68t-23.040-10.24l-67.2,0 0-232.96q0-13.44-9.6-23.68t-23.040-10.24l-99.84,0q-13.44,0-23.68,10.24t-10.24,23.68l0,133.12-133.76,0 0-133.12q0-13.44-9.6-23.68t-23.040-10.24l-99.84,0q-13.44,0-23.68,10.24t-10.24,23.68l0,232.96-66.56,0q-13.44,0-23.68,10.24t-10.24,23.68 12.16,25.6z" horiz-adv-x="666.24"  />
<glyph unicode="&#xf299;" d="M 503.040,525.44q-15.36,0-25.6-10.24l-57.6-57.6-10.24,10.24q-28.8,28.8-72.96,28.8t-72.96-28.8l-139.52-139.52q-30.72-30.72-30.72-73.6 0-42.24 30.72-72.96l 9.6-10.24-56.96-56.96q-10.24-10.24-10.24-25.6t 10.24-26.24q 11.52-11.52 25.6-11.52 15.36,0 26.24,11.52l 56.96,57.6 10.24-10.24q 30.72-30.72 73.6-30.72 42.24,0 72.96,30.72l 139.52,139.52q 29.44,29.44 29.44,72.96t-29.44,72.96l-10.24,10.24 57.6,57.6q 11.52,11.52 11.52,26.24t-11.52,25.6q-10.24,10.24-26.24,10.24z m-400-540.16q-42.24,0-72.96,30.72t-30.72,72.32q0,43.52 30.72,73.6l 16,16q-18.56,37.12-18.56,76.8 0,71.040 49.92,120.96l 139.52,139.52q 48.64,48.64 120.32,48.64 41.6,0 76.8-18.56l 16.64,16.64q 29.44,29.44 72.96,29.44 42.24,0 72.96-30.72t 30.72-72.32q0-44.16-30.72-72.96l-16-16q 19.2-38.4 19.2-77.44 0-69.76-50.56-120.32l-138.24-139.52q-49.92-49.92-120.96-49.92-40.96,0-77.44,18.56l-16-16q-30.72-30.72-72.96-30.72z m 264.96,300.16q-27.52,0.64-47.36,21.12t-21.12,47.36l-60.8-61.44q 27.52-0.64 46.72-20.48t 20.48-46.72z m-31.36,139.52q 12.16,0 21.12-8.96l 10.24-10.24-24.32-24.32q-11.52-11.52-11.52-26.24t 11.52-25.6q 10.24-10.24 25.6-10.24 16,0 26.24,10.24l 24.32,24.32 10.24-10.24q 8.96-8.96 8.96-21.12 0-12.8-8.96-21.76l-139.52-138.24q-8.96-8.96-21.12-8.96-12.8,0-21.76,8.96l-10.24,9.6 24.32,24.32q 11.52,11.52 11.52,26.24t-11.52,25.6q-11.52,11.52-25.6,11.52-15.36,0-26.24-11.52l-24.32-24.32-10.24,10.24q-8.32,8.32-8.32,21.12 0,13.44 8.32,21.76l 139.52,139.52q 8.96,8.96 21.76,8.96z" horiz-adv-x="606.72"  />
<glyph unicode="&#xf29a;" d="M 462.72,515.2q 11.52-10.24 11.52-25.6t-11.52-26.24l-56.96-57.6 9.6-10.24q 30.72-30.72 30.72-72.96t-30.72-72.96l-138.24-139.52q-30.72-30.72-73.6-30.72-42.24,0-72.96,30.72l-10.24,10.24-57.6-57.6q-11.52-11.52-25.6-11.52-15.36,0-26.24,11.52-10.24,11.52-10.24,26.24t 10.24,25.6l 57.6,56.96-10.24,10.24q-29.44,29.44-29.44,73.6 0,43.52 29.44,72.96l 139.52,139.52q 29.44,29.44 72.96,29.44t 72.96-29.44l 10.24-10.24 56.96,57.6q 10.24,10.24 25.6,10.24t 26.24-10.24z m-98.56-214.4q 8.32,8.32 8.32,21.76 0,12.8-8.32,21.12l-10.24,10.24-24.32-24.32q-10.24-10.24-26.24-10.24-15.36,0-25.6,10.24t-10.24,25.6 10.24,26.24l 24.32,24.32-10.24,10.24q-8.96,8.96-21.12,8.96-12.8,0-21.76-8.96l-139.52-139.52q-8.96-8.96-8.96-21.12 0-12.8 8.96-21.76l 10.24-10.24 24.32,24.32q 11.52,11.52 26.24,11.52t 25.6-11.52q 10.24-10.24 10.24-25.6t-10.24-26.24l-24.32-24.32 10.24-9.6q 8.96-8.96 21.12-8.96 12.8,0 21.76,8.96z" horiz-adv-x="473.6"  />
<glyph unicode="&#xf29b;" d="M 248.96,274.56q-7.040,0-11.52,5.12t-4.48,10.88q0,7.040 5.12,12.16l 151.040,151.040q 19.84,19.84 46.72,19.84 28.16,0 48-19.84 19.2-19.2 19.2-47.36t-19.2-47.36q-39.040-39.040-117.76-117.76t-117.76-117.76q-19.84-19.84-47.36-19.84t-47.36,19.84q-19.2,19.2-19.2,47.36t 19.2,47.36l 3.2,3.2q-23.040,30.72-23.040,70.4l-27.52-26.24q-39.040-39.040-39.040-94.72t 39.040-94.72 94.72-39.040 94.72,39.040l 235.52,236.16q 39.040,39.040 39.040,94.080t-39.040,94.080-94.72,39.040q-54.4,0-93.44-39.040l-151.040-151.040q-24.96-24.96-24.96-58.24 0-34.56 24.96-59.52t 58.24-24.96q 34.56,0 59.52,24.96l 71.040,70.4q 19.2,19.2 19.2,47.36 0,27.52-19.84,47.36l-117.76-117.76q-5.12-5.12-12.16-5.12z m 186.24,332.16q 83.2,0 141.44-58.24t 58.24-141.44q0-82.56-58.24-140.8l-235.52-236.16q-58.24-58.24-141.44-58.24t-141.44,58.24-58.24,141.44q0,82.56 58.24,140.8l 236.16,236.16q 58.24,58.24 140.8,58.24z" horiz-adv-x="635.52"  />
<glyph unicode="&#xf29c;" d="M 182.4,207.36q-33.92,0-58.24,24.32t-24.96,58.88q0,35.2 24.32,59.52l 151.040,151.040q 39.040,39.040 94.72,39.040t 94.72-39.040 39.040-94.72-39.040-94.72l-236.16-236.16q-39.040-39.040-93.44-39.040-55.040,0-94.72,39.040t-39.040,94.72 39.040,94.72l 26.24,26.24q0-39.040 24.32-70.4l-3.2-3.2q-19.2-19.2-19.2-47.36t 19.2-47.36 47.36-19.2 47.36,19.2q 39.040,39.040 117.76,117.76t 117.76,117.76q 19.2,19.2 19.2,47.36t-19.2,47.36q-19.84,19.2-47.36,19.2t-46.72-19.2l-151.040-151.040q-5.12-5.12-5.12-12.16t 5.12-12.16 12.16-5.12 12.16,5.12l 117.76,117.76q 19.84-19.84 19.84-47.36 0-26.24-19.84-46.72l-70.4-71.040q-24.32-24.32-59.52-24.32z" horiz-adv-x="502.4"  />
<glyph unicode="&#xf29d;" d="M 190.72,138.88q0,43.52 43.52,43.52t 43.52-43.52-43.52-43.52-43.52,43.52z m 43.52,432.64q 54.4,0 93.44-39.040t 39.040-93.44l0-67.2 33.92,0q 27.52,0 46.72-19.84t 19.84-46.72l0-233.6q0-27.52-19.84-46.72t-46.72-19.84l-333.44,0q-28.16,0-47.36,19.84t-19.2,46.72l0,233.6q0,27.52 19.2,46.72t 47.36,19.84l 33.92,0 0,67.2q0,38.4 18.56,68.48t 47.36,46.72q 30.72,17.92 67.2,17.92z m0-66.56q-28.16,0-47.36-19.84t-19.84-46.72l0-99.84 133.76,0 0,99.84q0,28.16-19.84,47.36t-46.72,19.2z m 166.4-433.92l0,233.6-333.44,0 0-233.6 333.44,0z" horiz-adv-x="466.56"  />
<glyph unicode="&#xf29e;" d="M 400,371.84q 27.52,0 46.72-19.84t 19.84-46.72l0-233.6q0-27.52-19.84-46.72t-46.72-19.84l-333.44,0q-28.16,0-47.36,19.84t-19.2,46.72l0,233.6q0,27.52 19.2,46.72t 47.36,19.84l 33.92,0 0,67.2q0,55.040 39.040,94.080t 94.72,39.040 94.080-39.040 39.040-94.080l0-67.2 33.92,0z m-166.4-275.84q 17.92,0 30.72,12.8t 12.8,30.72-12.8,30.72-30.72,12.8-30.72-12.8-12.8-30.72 12.8-30.72 30.72-12.8z m 66.56,243.2l0,99.84q0,28.16-19.84,47.36t-46.72,19.2q-28.16,0-47.36-19.84t-19.84-46.72l0-99.84 133.76,0z" horiz-adv-x="466.56"  />
<glyph unicode="&#xf29f;" d="M 190.72,138.88q0,43.52 43.52,43.52t 43.52-43.52-43.52-43.52-43.52,43.52z m-190.72,166.4q0,27.52 19.2,46.72t 47.36,19.84l 99.84,0 0-32.64 133.76,0 0,99.84q0,44.16 23.040,75.52t 58.88,46.72q 24.32,10.24 51.84,10.24 54.4,0 93.44-39.040t 39.040-93.44l0-99.84q0-13.44-9.6-23.68t-23.040-10.24-23.68,10.24-10.24,23.68l0,99.84q0,28.16-19.84,47.36t-46.72,19.2q-28.16,0-47.36-19.84t-19.84-46.72l0-67.2 33.92,0q 27.52,0 46.72-19.84t 19.84-46.72l0-233.6q0-27.52-19.84-46.72t-46.72-19.84l-333.44,0q-28.16,0-47.36,19.84t-19.2,46.72l0,233.6z m 400-233.6l0,233.6-333.44,0 0-233.6 333.44,0z" horiz-adv-x="566.4"  />
<glyph unicode="&#xf2a0;" d="M 433.92,572.16q 55.040,0 94.080-39.040t 39.040-94.080l0-99.84q0-13.44-9.6-23.68t-23.040-10.24-23.68,10.24-10.24,23.68l0,99.84q0,28.16-19.84,47.36t-46.72,19.2q-28.16,0-47.36-19.84t-19.84-46.72l0-67.2 33.92,0q 27.52,0 46.72-19.84t 19.84-46.72l0-233.6q0-27.52-19.84-46.72t-46.72-19.84l-333.44,0q-28.16,0-47.36,19.84t-19.2,46.72l0,233.6q0,27.52 19.2,46.72t 47.36,19.84l 99.84,0 0-32.64 133.76,0 0,99.84q0,55.040 39.040,94.080t 94.72,39.040z m-200.32-476.16q 17.92,0 30.72,12.8t 12.8,30.72-12.8,30.72-30.72,12.8-30.72-12.8-12.8-30.72 12.8-30.72 30.72-12.8z" horiz-adv-x="566.4"  />
<glyph unicode="&#xf2a1;" d="M 547.84,419.2q 19.2-19.2 19.2-46.72t-19.2-47.36q-10.24-10.24-23.040-15.36-67.84-32.64-92.16-80-32.64-65.92-32.64-157.44 0-28.8-18.56-47.36t-47.36-18.56q-30.72,0-48,19.2l-107.52,108.16-178.56-127.36 127.36,178.56-108.16,107.52q-12.8,12.16-17.28,31.36t 2.56,40.96q 17.92,41.6 61.44,41.6 93.44,0 157.44,32l 7.040,3.84q 44.16,24.32 75.52,90.24 5.12,12.8 13.44,21.76 19.2,19.2 47.36,18.56t 46.72-19.84z m-175.36-160q 34.56,69.12 125.44,112l-131.2,135.040q-44.16-93.44-112.64-128l-8.32-3.84q-76.8-35.84-179.84-35.84l 266.24-266.24q0,107.52 40.32,187.52z" horiz-adv-x="567.040"  />
<glyph unicode="&#xf2a2;" d="M 366.72,88.32q0-14.72-8.96-24.32t-23.68-9.6q-13.44,0-24.32,10.24l-108.16,108.16-201.6-151.040 151.040,201.6-108.16,108.16q-15.36,15.36-7.040,35.84 8.96,21.12 30.72,21.12 101.12,0 172.8,35.84 57.6,28.8 96.64,109.44 5.76,15.36 23.040,20.48t 32-8.32l 133.12-133.76q 13.44-14.72 8.96-32t-19.84-23.040q-81.92-40.32-110.72-96.64-35.84-70.4-35.84-172.16z" horiz-adv-x="533.76"  />
<glyph unicode="&#xf2a3;" d="M 300.16,422.4q-62.72,0-109.44-33.92-49.92-35.2-105.6-99.84 54.4-63.36 105.6-99.2 47.36-33.92 109.44-33.92t 109.44,33.92q 51.2,35.84 105.6,99.2-56.32,64.64-105.6,99.84-47.36,33.92-109.44,33.92z m0,66.56q 85.12,0 147.84-45.44 38.4-27.52 76.16-65.92t 56.32-63.36l 19.2-24.96q-7.040-10.24-20.48-27.52t-53.12-58.24-78.72-68.48q-63.36-45.44-147.84-45.44-85.76,0-149.12,45.44-38.4,27.52-76.16,65.92t-56.32,63.36l-18.56,24.96q 7.040,10.24 20.48,27.52t 53.12,58.24 78.080,68.48q 63.36,45.44 149.12,45.44z m0-166.4q 13.44,0 23.68-10.24t 10.24-23.68-10.24-23.040-23.68-9.6-23.68,9.6-10.24,23.040 10.24,23.68 23.68,10.24z m0-133.76q-41.6,0-71.040,29.44t-29.44,71.040 29.44,71.040 71.040,29.44 71.040-29.44 29.44-71.040-29.44-71.040-71.040-29.44z m0,167.040q-27.52,0-46.72-19.84t-19.84-47.36q0-27.52 19.2-46.72t 47.36-19.84 47.36,19.84 19.2,46.72q0,28.16-19.84,47.36t-46.72,19.84z" horiz-adv-x="600.32"  />
<glyph unicode="&#xf2a4;" d="M 661.76,307.84q 13.44-18.56 0-37.76-5.12-7.040-21.76-29.44t-56.96-63.36-80.64-69.76q-72.32-51.2-167.040-51.2-96,0-168.32,51.2-40.96,28.8-80.64,69.76t-56.96,63.36-21.76,29.44q-13.44,18.56 0,37.76 3.84,7.040 21.76,29.44t 57.6,63.36 80.64,69.76q 72.96,51.84 168.32,51.84 94.72,0 167.040-51.84 40.96-28.8 80.64-69.76t 57.6-63.36 21.76-29.44z m-327.040-136.32q 48,0 81.92,34.56t 33.92,82.56q0,48.64-33.92,82.56t-81.92,33.92q-48.64,0-82.56-33.92t-33.92-82.56q0-48 33.92-82.56t 82.56-34.56z m 66.56,117.12q0-27.52-19.2-46.72t-47.36-19.84-47.36,19.84-19.84,46.72 19.84,47.36 47.36,19.84q 27.52,0 46.72-19.84t 19.84-47.36z" horiz-adv-x="668.8"  />
<glyph unicode="&#xf2a5;" d="M 233.6,571.52q-69.76,0-118.4-48.64t-48.64-117.76 48.64-117.76l 101.76-99.2 183.040-183.040 233.6,233.6q-236.16,236.16-282.24,284.16-48.64,48.64-117.76,48.64z m0,67.2q 96.64,0 165.76-69.12 69.76-72.32 281.6-284.16 19.2-19.84 19.2-47.36t-19.2-47.36l-233.6-233.6q-19.2-19.2-47.36-19.2t-47.36,19.2l-172.8,172.8q-5.76,3.84-12.16,9.6l-99.84,99.84q-67.84,67.84-67.84,165.12t 67.84,165.12q 69.12,69.12 165.76,69.12z m0-183.040q-21.12,0-35.84-14.72t-14.72-35.84 14.72-35.2 35.84-14.72 35.2,14.72 14.72,35.2-14.72,35.84-35.2,14.72z m0,32.64q 34.56,0 58.88-24.32t 24.32-58.88-24.32-58.88-58.88-24.32-58.88,24.32-24.32,58.88 24.32,58.88 58.88,24.32z" horiz-adv-x="700.16"  />
<glyph unicode="&#xf2a6;" d="M 647.040,385.92q 19.2-19.84 19.2-47.36t-19.2-46.72l-35.84-35.84 3.2-3.2q 19.2-19.84 18.56-47.36t-19.84-46.72l-232.96-233.6q-19.2-19.2-47.36-19.2t-47.36,19.2q-144.64,144.64-218.24,216.32-67.84,67.84-67.84,165.12 0,65.92 34.56,120.96-5.12,105.6 67.2,177.92 67.84,67.84 165.12,67.84 97.92,0 165.76-67.84z m-313.6-413.44l 232.96,233.6-215.040,217.6q-48.64,48.64-117.76,48.64-69.76,0-118.4-48.64t-48.64-117.76 48.64-117.76q 73.6-71.040 218.24-216.32z m 64.64,498.56l 165.76-167.040 35.84,35.84-215.040,217.6q-48.64,48.64-118.4,48.64-69.12,0-117.76-48.64-22.4-22.4-34.56-50.56 55.040,32.64 119.040,32.64 96,0 165.12-69.12z m-165.12-114.56q-21.12,0-35.84-14.72t-14.72-35.84 14.72-35.2 35.84-14.72 35.2,14.72 14.72,35.2-14.72,35.84-35.2,14.72z m0,32.64q 34.56,0 58.88-24.32t 24.32-58.88-24.32-58.88-58.88-24.32-58.88,24.32-24.32,58.88 24.32,58.88 58.88,24.32z" horiz-adv-x="666.24"  />
<glyph unicode="&#xf2a7;" d="M 366.72,606.080q 41.6,0 71.040-29.44t 29.44-71.040l0-467.2q0-32.64-15.36-49.92t-37.12-17.28q-27.52,0-51.2,24.32l-105.6,106.24q-9.6,9.6-23.68,9.6t-23.68-9.6l-105.6-106.24q-25.6-24.96-52.48-24.32t-40.96,24.96q-10.24,18.56-10.24,42.24l0,467.2q0,41.6 29.44,71.040t 71.040,29.44l 266.24,0z m-266.24-67.2q-13.44,0-23.68-9.6t-10.24-23.040l0-330.24 81.92,75.52q 35.2,32.64 85.12,32.64t 85.12-32.64l 81.92-75.52 0,330.24q0,13.44-10.24,23.040t-23.68,9.6l-266.24,0z m 204.16-389.76l 96-96 0,76.8-104.32,96q-25.6,23.040-62.72,23.040t-62.72-23.040l-104.96-96 0-76.8 96,96q 28.8,28.8 71.040,28.8 41.6,0 70.4-28.8z" horiz-adv-x="466.56"  />
<glyph unicode="&#xf2a8;" d="M 409.6,508.16q 16,16 36.48,7.040t 20.48-30.080l0-267.52q0-13.44-9.6-23.040-51.2-51.2-123.52-51.2t-123.52,51.2q-29.44,29.44-70.4,32t-72.96-23.040l0-152.32q0-13.44-9.6-23.68t-23.040-10.24-23.68,10.24-10.24,23.68l0,433.92q0,13.44 9.6,23.040 51.2,51.2 123.52,51.2t 123.52-51.2q 32-32 76.16-32t 76.16,32z m-200.32-47.36q-29.44,29.44-70.4,32t-72.96-23.040l0-76.16q 43.52,21.12 93.44,12.8t 85.12-43.52q 31.36-31.36 75.52-35.84t 80,18.56l0,77.44q-46.72-19.84-99.84-10.24t-90.88,47.36z m 47.36-219.52q 29.44-29.44 70.4-32t 72.96,23.040l0,76.16q-34.56-16-66.56-16-64,0-112,46.72-31.36,31.36-75.52,35.84t-80-18.56l0-76.8q 33.92,13.44 67.2,13.44 72.32,0 123.52-51.2z" horiz-adv-x="466.56"  />
<glyph unicode="&#xf2a9;" d="M 409.6,508.16q 16,16 36.48,7.040t 20.48-30.080l0-267.52q0-13.44-9.6-23.040-51.2-51.2-123.52-51.2t-123.52,51.2q-29.44,29.44-70.4,32t-72.96-23.040l0-152.32q0-13.44-9.6-23.68t-23.040-10.24-23.68,10.24-10.24,23.68l0,433.92q0,13.44 9.6,23.040 51.2,51.2 123.52,51.2t 123.52-51.2q 32-32 76.16-32t 76.16,32z" horiz-adv-x="466.56"  />
<glyph unicode="&#xf2aa;" d="M 519.040,365.44q 24.32-8.96 37.12-32.64t 8.96-49.92l-22.4-199.040q-3.84-24.96-20.48-44.8t-37.12-28.16q-3.2-0.64-16.64-5.76t-18.56-7.040-18.56-5.12-28.8-3.84-36.48-0.64q-53.12,0-111.36,16.64t-83.2,35.84q-0.64,0.64-1.92,1.92t-2.56,2.56-1.92,2.56q-29.44-25.6-65.92-25.6-41.6,0-71.040,29.44t-29.44,71.040l0,200.32q0,41.6 29.44,71.040t 71.040,29.44q 48.64,0 79.36-40.32 28.16,28.16 40.96,53.76t 13.44,69.12q0,34.56 24.32,59.52t 58.88,24.96 58.88-24.96 24.32-59.52q0-60.16-10.24-120.32 108.8-11.52 129.92-19.2z m-419.2-277.12q 13.44,0 23.68,9.6t 10.24,23.040l0,200.32q0,13.44-10.24,23.68t-23.68,10.24-23.68-10.24-10.24-23.68l0-200.32q0-13.44 10.24-23.040t 23.68-9.6z m 377.6,5.12l 22.4,199.040q 1.92,8.32-3.84,10.24-9.6,2.56-69.12,9.6t-76.16,8.96l-44.16-6.4 10.24,47.36q 16,74.24 16,142.72 0,6.4-5.12,11.52t-11.52,5.12-11.52-5.12-5.12-11.52q0-34.56-7.040-62.72t-21.12-49.92-23.040-32.64-26.24-27.52q-23.040-23.040-23.040-44.16l0-166.4q0-19.2 12.16-28.16 15.36-11.52 63.36-24.96t 91.52-13.44q 16.64,0 29.44,0.64t 22.4,2.56 14.72,3.84 14.72,5.76 14.72,5.76q 3.84,1.92 8.96,8.32t 5.76,12.16z" horiz-adv-x="566.4"  />
<glyph unicode="&#xf2ab;" d="M 466.56,556.16q 41.6,0 71.040-29.44t 29.44-71.040l0-200.32q0-41.6-29.44-71.040t-71.040-29.44q-48.64,0-79.36,40.32-27.52-27.52-40.32-53.76t-13.44-69.76q0-34.56-24.32-58.88t-58.88-24.32-59.52,24.32-24.96,58.88q0,60.8 10.24,120.96-111.36,12.16-128.64,18.56-24.32,8.96-37.76,33.28t-9.6,49.92l 22.4,199.040q 3.84,24.32 20.48,44.16t 37.12,28.16q 3.2,0.64 16.64,5.76t 18.56,7.040 18.56,5.12 28.8,3.84 36.48,0.64q 53.12,0 111.36-16.64t 83.84-35.84q 1.92-0.64 3.2-3.2t 2.56-3.2q 29.44,25.6 65.92,25.6z m-200.32-483.2q0,34.56 7.040,62.72t 21.12,49.92 23.040,32.64 26.24,27.52q 23.040,23.040 23.040,44.16l0,166.4q0,7.040-3.84,16t-8.32,12.16q-15.36,11.52-63.36,24.96t-91.52,13.44q-16.64,0-29.44-0.64t-22.4-2.56-14.72-3.84-14.72-5.76-14.72-5.76q-3.84-1.92-8.96-8.32t-5.76-12.16l-21.76-199.040q-1.92-8.32 3.2-10.24 9.6-2.56 69.12-9.6t 76.16-8.96l 44.16,6.4-9.6-47.36q-16-78.72-16-142.72 0-6.4 5.12-11.52t 11.52-5.12 11.52,5.12 5.12,11.52z m 233.6,183.040l0,200.32q0,13.44-10.24,23.040t-23.68,9.6-23.040-9.6-9.6-23.040l0-200.32q0-13.44 9.6-23.68t 23.040-10.24 23.68,10.24 10.24,23.68z" horiz-adv-x="566.4"  />
<glyph unicode="&#xf2ac;" d="M 599.040,105.6l 0.64-167.040q0-13.44-10.24-23.040t-23.68-9.6l-533.12,0q-13.44,0-23.68,9.6t-10.24,23.040q0,167.040 0.64,167.040 0,7.040 0.64,10.24l 67.2,200.32q 8.32,22.4 31.36,22.4l 18.56,0-22.4,23.040q-29.44,29.44-29.44,70.4t 29.44,70.4q 19.84,19.84 48.64,26.24t 55.040-2.56l0,45.44q0,41.6 29.44,71.040t 71.040,29.44 71.040-29.44 29.44-71.040l0-45.44q 26.24,8.96 55.040,2.56t 48.64-26.24q 29.44-29.44 29.44-70.4t-29.44-70.4l-22.4-23.040 18.56,0q 23.040,0 31.36-22.4l 67.2-200.32q 0.64-3.2 0.64-10.24z m-456.32,349.44q-9.6-9.6-9.6-23.68t 9.6-23.68l 156.8-156.16 156.8,156.8q 9.6,9.6 9.6,23.040t-9.6,23.040-23.68,9.6-23.68-9.6l-76.16-76.16 0,192.64q0,13.44-10.24,23.68t-23.68,10.24-23.68-10.24-10.24-23.68l0-192.64-76.16,76.16q-10.24,10.24-24.32,10.24-12.8,0-23.040-10.24z m-19.2-183.040l-55.040-166.4 463.36,0-56.32,166.4-61.44,0-114.56-113.92-114.56,113.92-61.44,0z m 409.6-300.16l0,99.84-467.2,0 0-99.84 467.2,0z" horiz-adv-x="600.32"  />
<glyph unicode="&#xf2ad;" d="M 456.96,442.24q 9.6-9.6 9.6-23.68t-9.6-23.68l-156.8-156.16-156.8,156.16q-9.6,9.6-9.6,23.68t 9.6,23.68 23.040,9.6q 14.72,0 24.32-9.6l 76.16-76.8 0,223.36q0,13.44 10.24,23.68t 23.68,10.24 23.68-10.24 10.24-23.68l0-223.36 76.16,76.8q 8.96,8.96 24.32,8.96 14.72,0 23.040-8.96z m 142.72-287.36l 0.64-166.4q0-13.44-10.24-23.68t-23.68-10.24l-533.12,0q-13.44,0-23.68,10.24t-10.24,23.68q0,166.4 0.64,166.4 0,7.040 0.64,10.24l 67.2,200.32q 8.32,23.040 31.36,23.040l 7.040,0q 5.76-11.52 12.16-17.92l 49.92-48.64-44.8,0-55.040-167.040 462.72,0-55.040,167.040-44.8,0 49.92,48.64q 6.4,6.4 12.16,17.92l 7.040,0q 23.040,0 31.36-23.040l 67.2-200.32q 0.64-3.2 0.64-10.24z" horiz-adv-x="600.32"  />
<glyph unicode="&#xf2ae;" d="M 599.040,106.24l 0.64-167.040q0-13.44-10.24-23.040t-23.68-9.6l-533.12,0q-13.44,0-23.68,9.6t-10.24,23.040l0,167.040q0,3.84 1.92,10.24l 66.56,200.32q 5.12,13.44 19.2,19.84-22.4,29.44-19.84,66.56t 28.8,63.36l 204.16,204.16 204.16-204.16q 26.24-26.24 28.8-63.36t-19.84-66.56q 13.44-6.4 18.56-19.84l 67.2-200.32q 0.64-3.2 0.64-10.24z m-456.32,313.6q-9.6-9.6-9.6-23.68t 9.6-23.68 23.68-9.6 23.68,9.6l 76.16,76.16 0-192.64q0-13.44 10.24-23.040t 23.68-9.6 23.68,9.6 10.24,23.040l0,192.64 76.16-76.16q 9.6-9.6 23.68-9.6t 23.68,9.6 9.6,23.68-9.6,23.68l-156.8,156.8z m-19.2-147.2l-55.040-166.4 462.72,0-55.040,166.4-76.16,0 0-16.64q0-41.6-29.44-71.040t-71.040-29.44-71.040,29.44-29.44,71.040l0,16.64-76.16,0z m-57.6-300.16l 467.2,0 0,99.84-467.2,0 0-99.84z" horiz-adv-x="600.32"  />
<glyph unicode="&#xf2af;" d="M 599.040,146.56l 0.64-166.4q0-13.44-10.24-23.68t-23.68-10.24l-533.12,0q-13.44,0-23.68,10.24t-10.24,23.68q0,166.4 0.64,166.4 0,7.040 0.64,10.24l 67.2,200.32q 8.32,23.040 31.36,23.040l 133.76,0 0-66.56-109.44,0-55.040-167.040 462.72,0-55.040,167.040-109.44,0 0,66.56 133.76,0q 23.040,0 31.36-23.040l 67.2-200.32q 0.64-3.2 0.64-10.24z m-165.76,270.72q-15.36,0-24.32,8.96l-76.16,76.8 0-222.72q0-13.44-10.24-23.68t-23.68-10.24-23.68,10.24-10.24,23.68l0,222.72-76.16-76.8q-8.96-8.96-24.32-8.96-14.72,0-23.040,8.96-9.6,9.6-9.6,23.68t 9.6,23.68l 156.8,157.44 156.8-157.44q 9.6-9.6 9.6-23.68t-9.6-23.68q-8.96-8.96-23.040-8.96z" horiz-adv-x="600.32"  />
<glyph unicode="&#xf2b0;" d="M 508.16,388.48q 69.12,0 117.76-48.64t 49.28-117.76-49.28-117.76-117.76-49.28l-366.72,0q-56.32,0-98.56,39.68t-42.88,94.080q0,42.24 30.72,78.72t 61.44,50.56l0,5.12q0,82.56 62.72,141.44t 145.92,58.88q 65.92,0 120.96-37.76t 75.52-96.64q 2.56,0 5.76,0.64t 5.76,0.64z m0-266.24q 41.6,0 71.040,29.44t 29.44,71.040-28.8,71.040-70.4,29.44q-11.52,0-27.52-5.12l-35.84-9.6-6.4,35.84q-8.96,48-45.44,79.36t-85.76,31.36q-55.040,0-94.080-39.040t-39.040-94.080q0-14.72 2.56-27.52l 8.32-40.32-47.36,0.64q-25.6,0-44.16-19.84t-18.56-47.36q0-28.16 19.2-47.36t 47.36-19.2l 183.040,0 0,126.72-71.040-72.32q-5.12-5.12-12.16-5.12-10.24,0-15.36,10.24t 3.2,18.56l 99.84,99.84q 3.84,3.84 11.52,4.48t 12.16-4.48l 99.84-99.84q 8.32-8.32 3.2-18.56t-15.36-10.24q-7.040,0-12.16,5.12l-71.040,72.32 0-126.72 149.76,0z" horiz-adv-x="675.2"  />
<glyph unicode="&#xf2b1;" d="M 499.84,388.48q 69.12,0 117.76-48.64t 48.64-117.76-48.64-117.76-117.76-49.28l-133.76,0 0,152.96 43.52-42.24q 10.24-10.24 24.32-10.24 12.8,0 23.040,10.24 9.6,9.6 9.6,23.040t-9.6,23.040l-99.84,99.84q-8.96,8.96-23.040,8.96t-24.32-8.96l-99.84-99.84q-9.6-9.6-9.6-23.040t 9.6-23.040q 10.24-10.24 24.32-10.24 12.8,0 23.040,10.24l 43.52,42.24 0-152.96-166.4,0q-55.040,0-94.72,39.040t-39.040,94.72q0,46.72 28.16,81.92t 72.32,46.72l0,5.12q0,83.2 58.88,141.44t 141.44,58.24q 64,0 115.84-37.12t 72.32-97.28q 1.92,0 5.76,0.64t 6.4,0.64z" horiz-adv-x="666.24"  />
<glyph unicode="&#xf2b2;" d="M 600.32,64q0-13.44-9.6-23.040t-24.32-9.6q-16.64,0-27.52,15.36-38.4,59.52-88.32,85.12t-117.12,30.72l0-48q0-27.52-19.84-47.36-19.2-19.2-47.36-18.56t-46.72,18.56l-210.56,206.72q-9.6,9.6-9.6,24.32t 9.6,24.32l 209.92,206.72q 18.56,18.56 46.72,18.56t 47.36-18.56q 19.84-19.84 19.84-47.36l0-56.96q 115.84-23.040 191.36-115.2t 75.52-211.2l0-33.92z m-299.52,166.4q 143.36-3.2 225.92-70.4-19.2,80.64-82.56,136.96t-147.84,65.92l-29.44,1.92 0,117.12-185.6-183.040 185.6-183.040 0,117.12q 24.96-0.64 34.56-0.64z" horiz-adv-x="600.32"  />
<glyph unicode="&#xf2b3;" d="M 233.6,513.92q 12.8,0 23.040-10.24t 10.24-23.68l0-85.12q 113.92-12.8 190.72-97.92t 76.8-200.32l0-33.92q-51.2,77.44-117.12,104.32t-150.4,29.44l0-83.2q0-13.44-10.24-23.68t-23.040-10.24q-14.72,0-24.32,9.6l-209.92,207.36 209.92,207.36q 9.6,9.6 24.32,9.6z" horiz-adv-x="533.76"  />
<glyph unicode="&#xf2b4;" d="M 33.92,30.72q-14.72,0-24.32,10.24t-9.6,23.040l0,33.92q0,119.040 75.52,211.2t 191.36,115.2l0,56.96q0,27.52 19.84,47.36 19.2,19.2 47.36,18.56t 46.72-18.56l 209.92-206.72q 9.6-9.6 9.6-24.32t-9.6-24.32l-210.56-206.72q-18.56-18.56-46.72-18.56t-47.36,18.56q-19.84,19.84-19.84,47.36l0,48q-67.2-5.12-117.12-30.72t-88.32-85.12q-10.24-15.36-27.52-15.36z m 266.24,199.040l 33.92,0.64 0-117.12 185.6,183.040-185.6,183.040 0-117.12q-12.8,0-29.44-1.92-85.12-9.6-147.84-65.92t-82.56-136.96q 82.56,67.2 226.56,70.4z" horiz-adv-x="600.32"  />
<glyph unicode="&#xf2b5;" d="M 266.24,480.64q0,13.44 10.24,23.68t 23.68,10.24 23.040-9.6l 210.56-207.36-210.56-207.36q-9.6-9.6-23.040-9.6t-23.68,10.24-10.24,23.68l0,83.2q-85.12-2.56-149.76-29.44t-116.48-104.32l0,33.92q0,115.2 76.16,200.32t 190.080,97.92l0,85.12z" horiz-adv-x="533.76"  />
<glyph unicode="&#xf2b6;" d="M 241.92,88.96q-41.6,0-71.040,29.44l-170.24,170.24 170.24,171.52q 28.16,28.16 71.040,28.16t 71.040-28.16q 29.44-29.44 29.44-71.040t-29.44-71.040l-28.8-29.44 28.8-28.8q 29.44-29.44 29.44-71.040t-29.44-71.040-70.4-29.44z m-147.2,200.32l 123.52-123.52q 9.6-9.6 23.68-9.6t 23.68,9.6 9.6,23.68-9.6,23.68l-76.16,76.16 76.16,76.8q 9.6,9.6 9.6,23.68t-9.6,23.68-23.68,9.6-23.68-9.6z m 424.96-200.32q-40.96,0-70.4,29.44t-29.44,71.040 29.44,71.040l 29.44,28.8-29.44,29.44q-29.44,29.44-29.44,71.040t 29.44,71.040q 28.16,28.16 71.040,28.16t 71.040-28.16l 170.24-171.52-170.24-170.24q-29.44-29.44-71.040-29.44z m0,333.44q-13.44,0-23.040-9.6t-9.6-23.68 9.6-23.68l 76.16-76.8-76.16-76.16q-9.6-9.6-9.6-23.68t 9.6-23.68 23.68-9.6 23.68,9.6l 123.52,123.52-123.52,124.16q-9.6,9.6-24.32,9.6z" horiz-adv-x="760.96"  />
<glyph unicode="&#xf2b7;" d="M 194.56,121.6q-28.16,0-47.36,19.2l-147.2,147.2 147.2,147.2q 19.84,19.84 47.36,19.84t 46.72-19.84q 19.84-19.84 19.84-47.36t-19.84-47.36l-53.12-53.12 53.12-53.12q 19.84-19.84 19.84-47.36t-19.84-47.36q-19.2-19.2-47.36-19.2z m 255.36,0q-28.16,0-47.36,19.2-19.84,19.84-19.84,47.36t 19.84,47.36l 53.12,53.12-53.12,53.12q-19.84,19.84-19.84,47.36t 19.84,47.36q 19.2,19.84 46.72,19.84t 47.36-19.84l 147.2-147.2-147.2-147.2q-19.2-19.2-47.36-19.2z" horiz-adv-x="643.84"  />
<glyph unicode="&#xf2b8;" d="M 624,362.24q 9.6-9.6 9.6-23.68t-9.6-23.68q-42.24-42.24-90.24-91.52l0-201.6q0-13.44-10.24-23.68t-23.68-10.24l-466.56,0q-13.44,0-23.68,10.24t-10.24,23.68l0,466.56q0,13.44 10.24,23.68t 23.68,10.24l 266.24,0q0,27.52 21.12,46.72t 50.56,19.84 53.12-21.76q 76.8-81.92 200.32-204.8z m-248.32-204.8q 163.84,168.32 176.64,181.12-112.64,114.56-176,182.4-2.56,1.92-5.76,1.92t-5.12-1.92l0-131.84-32.64,0q-30.72,0-55.040-10.24t-41.6-26.24-29.44-39.040-19.84-44.16-12.16-45.44q 72.32,64.64 158.72,65.92l 32.64,0 0-131.84q 1.92-1.92 5.12-1.92 2.56,0 5.12,2.56z m-309.76-102.4l 400,0 0,147.84q-39.040-39.040-65.92-67.84-11.52-12.8-29.44-12.8-16,0-26.88,9.6t-10.88,23.040l0,99.84q-114.56-2.56-200.32-133.12l0,16q0,38.4 5.76,76.16t 20.48,76.16 36.48,67.2 56.96,46.72 80.64,17.92l0,32.64-267.52,0 0-400z" horiz-adv-x="633.6"  />
<glyph unicode="&#xf2b9;" d="M 133.76,154.88q0,38.4 5.76,76.16t 20.48,76.16 36.48,67.2 56.96,46.72 80.64,17.92l0,99.84q0,13.44 10.88,23.040t 26.88,9.6q 17.92,0 29.44-12.16l 199.040-204.8q-134.4-135.040-199.040-203.52-11.52-12.8-29.44-12.8-16,0-26.88,9.6t-10.88,23.040l0,99.84q-114.56-2.56-200.32-133.12l0,16z m-99.84-149.76q-13.44,0-23.68,10.24t-10.24,23.68l0,466.56q0,13.44 10.24,23.68t 23.68,10.24l 266.24,0 0-67.2-233.6,0 0-400 400,0 0,99.84q 41.6,43.52 67.2,69.12l0-201.6q0-13.44-10.24-23.68t-23.68-10.24l-466.56,0z" horiz-adv-x="600.32"  />
<glyph unicode="&#xf2ba;" d="M 600.32,451.84q 14.72-14.72 14.72-35.2t-14.72-35.2l-364.8-364.8q-13.44-13.44-37.76-24.32t-46.72-10.88l-150.4,0 0,149.76q0,22.4 10.88,47.36t 24.32,38.4l 364.8,364.8q 14.72,14.72 35.2,14.72t 35.2-14.72z m-508.16-272.64l 41.6-40.96 275.84,277.12-40.96,40.96z m 58.24-131.2q 8.96,0 21.12,5.76-6.4,6.4-16.64,16.64t-32,32-35.84,35.84l-14.72,14.72q-5.76-13.44-5.76-21.12l0-49.92 33.92-33.92 50.56,0z m 47.36,25.6l 277.12,277.12-40.96,40.96-277.12-275.84z m 300.16,300.16l 43.52,43.52-105.6,105.6-43.52-42.24z" horiz-adv-x="614.4"  />
<glyph unicode="&#xf2bb;" d="M 483.84,606.080q 61.44,0 106.24-44.8t 44.8-106.24q0-17.92-5.76-40.32 16-49.92-19.84-85.76l-149.76-150.4q-24.32-24.32-59.52-24.32l-2.56,0-72.32-72.32q-19.84-19.84-50.56-32-8.32-3.2-231.040-77.44-6.4-1.92-10.24-1.92-16.64,0-27.52,13.44t-5.12,29.44q 74.24,223.36 77.44,231.040 12.16,30.72 32.64,51.2 264.96,264.32 265.6,264.96 45.44,44.16 105.6,44.16z m-243.84-497.92l-101.76,101.76q-1.92-5.12-9.6-28.16t-13.44-40.32l 56.96-56.96q 28.16,8.96 67.84,23.040z m-136.96-1.92q-5.76-16-16.64-49.92l 50.56,16.64z m 256.64,104.32q-9.6,14.72-8.32,32t 14.080,30.72l 123.52,123.52-91.52,91.52-237.44-238.72q-3.84-3.84-6.4-7.040l 117.76-117.76q 0.64,0.64 3.84,2.56t 4.48,3.2z m 202.24,165.76q 11.52,11.52-0.64,23.040t-23.040,0.64l-150.4-149.76q-8.32-8.32-3.2-18.56t 15.36-10.24q 7.040,0 12.16,5.12z m-50.56,43.52q 24.96,24.96 54.4,15.36 2.56,9.6 2.56,19.84 0,34.56-24.96,59.52-26.24,24.96-62.080,23.68t-61.44-26.88z" horiz-adv-x="634.88"  />
<glyph unicode="&#xf2bc;" d="M 289.92,654.72q 120.96-22.4 199.040-116.48t 78.080-216.32q0-115.2-69.76-206.080t-179.84-120.32l0-40.96q0-13.44-10.24-23.040t-23.68-9.6-23.68,9.6-10.24,23.040l0,40.96q-110.72,29.44-179.84,120.32t-69.76,206.080q0,122.24 78.72,216.32t 199.040,116.48l 5.76,0.64z m 27.52-589.44q 80,28.16 130.56,96t 53.12,153.6l-104.96-104.96q-5.12-5.12-12.16-5.12-10.24,0-15.36,9.6t 3.2,18.56l 125.44,125.44q-7.040,48.64-28.8,90.24l-72.96-72.96q-5.12-5.12-12.16-5.12-10.24,0-15.36,10.24t 3.2,18.56l 78.72,78.72q-61.44,87.040-166.4,108.8-104.96-21.76-166.4-108.8l 78.72-78.72q 8.32-8.32 3.2-18.56t-15.36-10.24q-7.040,0-12.16,5.12l-72.96,72.96q-21.76-41.6-28.8-90.24l 125.44-125.44q 8.32-8.96 3.2-18.56t-15.36-9.6q-7.040,0-12.16,5.12l-104.32,104.96q 2.56-85.76 52.48-153.6t 129.92-96l0,389.76q0,13.44 10.24,23.68t 23.68,10.24 23.68-10.24 10.24-23.68l0-389.76z" horiz-adv-x="566.4"  />
<glyph unicode="&#xf2bd;" d="M 618.24,494.080q 15.36-15.36 15.36-35.2t-15.36-35.2l-118.4-118.4 0-300.16q0-13.44-10.24-23.68t-23.68-10.24l-432.64,0q-13.44,0-23.68,10.24t-10.24,23.68l0,432.64q0,13.44 10.24,23.68t 23.68,10.24l 300.16,0 118.4,118.4q 15.36,15.36 35.2,15.36t 35.2-15.36z m-335.36-311.040l 209.92,209.92-72.32,72.32-209.92-209.92z m-85.76,44.16l 2.56-55.040 56.96-2.56z m 236.16-188.8l0,200.32-106.24-102.4q-12.8-12.8-40.32-21.76t-51.84-8.96l-101.76,0 0,101.76q0,26.24 7.040,53.12t 19.84,39.040l 105.6,106.24-200.32,0 0-367.36 367.36,0z m 83.2,377.6l 43.52,43.52-72.96,72.96-43.52-43.52z" horiz-adv-x="633.6"  />
<glyph unicode="&#xf2be;" d="M 466.56,505.6q 41.6,0 71.040-29.44t 29.44-71.040l0-333.44q0-41.6-29.44-71.040t-71.040-29.44l-366.72,0q-41.6,0-71.040,29.44t-29.44,71.040l0,333.44q0,41.6 29.44,71.040t 71.040,29.44l0,66.56q0,13.44 10.24,23.68t 23.68,10.24l 300.16,0q 13.44,0 23.040-10.24t 9.6-23.68l0-66.56z m-300.16,32.64l0-166.4 233.6,0 0,166.4-233.6,0z m-66.56-99.84q-13.44,0-23.68-9.6t-10.24-23.040l0-83.84q0-19.84 14.72-34.56t 35.84-14.72l 332.8,0q 21.12,0 35.84,14.72t 14.72,34.56l0,83.84q0,13.44-10.24,23.040t-23.68,9.6l0-99.84q0-13.44-9.6-23.040t-23.040-9.6l-300.16,0q-13.44,0-23.68,9.6t-10.24,23.040l0,99.84z m 366.72-400q 13.44,0 23.68,10.24t 10.24,23.68l0,184.32q-23.040-17.92-50.56-17.92l-332.8,0q-27.52,0-50.56,17.92l0-184.32q0-13.44 10.24-23.68t 23.68-10.24l 366.72,0z m-115.84,400q 16,0 16-16 0-16.64-16-16.64l-133.76,0q-7.040,0-12.16,5.12t-5.12,12.16q0,16 16.64,16l 133.76,0z m 49.92-300.16q 7.040,0 12.16-5.12t 5.12-12.16q0-16-16.64-16l-233.6,0q-16,0-16,16 0,16.64 16,16.64l 233.6,0z m-49.92,367.36q 16,0 16-16.64t-16-16.64l-133.76,0q-7.040,0-12.16,5.12t-5.12,12.16 5.12,12.16 12.16,5.12l 133.76,0z" horiz-adv-x="566.4"  />
<glyph unicode="&#xf2bf;" d="M 499.84,488.32l-400,0q-13.44,0-23.68-9.6t-10.24-23.040l0-233.6q0-13.44 10.24-23.68t 23.68-10.24l 99.84,0 0-5.76 5.76,5.76 294.4,0q 13.44,0 23.68,10.24t 10.24,23.68l0,233.6q0,13.44-10.24,23.040t-23.68,9.6z m0,67.2q 41.6,0 71.040-29.44t 29.44-71.040l0-233.6q0-41.6-29.44-71.040t-71.040-29.44l-266.24,0-99.84-99.84 0,99.84-33.92,0q-41.6,0-71.040,29.44t-29.44,71.040l0,233.6q0,41.6 29.44,71.040t 71.040,29.44l 400,0z" horiz-adv-x="600.32"  />
<glyph unicode="&#xf2c0;" d="M 533.76,555.52q 41.6,0 71.040-29.44t 29.44-71.040l0-233.6q0-41.6-29.44-71.040t-71.040-29.44l-300.16,0-99.84-99.84 0,99.84-33.92,0q-41.6,0-71.040,29.44t-29.44,71.040l0,233.6q0,41.6 29.44,71.040t 71.040,29.44l 433.92,0z m 32.64-333.44l0,233.6q0,13.44-9.6,23.68t-23.040,10.24l-433.92,0q-13.44,0-23.68-10.24t-10.24-23.68l0-233.6q0-13.44 10.24-23.040t 23.68-9.6l 433.92,0q 13.44,0 23.040,9.6t 9.6,23.040z m-400,50.56q-27.52,0-46.72,19.2t-19.84,47.36 19.84,47.36 46.72,19.2q 28.16,0 47.36-19.84t 19.84-46.72-19.84-46.72-47.36-19.84z m0,99.84q-13.44,0-23.040-10.24t-9.6-23.68 9.6-23.040 23.040-9.6 23.68,9.6 10.24,23.040-10.24,23.68-23.68,10.24z m 150.4-99.84q-28.16,0-47.36,19.84t-19.84,46.72 19.84,46.72 47.36,19.84q 27.52,0 46.72-19.2t 19.84-47.36-19.84-47.36-46.72-19.2z m0,99.84q-13.44,0-23.68-10.24t-10.24-23.68 10.24-23.040 23.68-9.6 23.68,9.6 10.24,23.040-10.24,23.68-23.68,10.24z m 149.76-99.84q-28.16,0-47.36,19.2t-19.2,47.36 19.2,47.36 47.36,19.2 47.36-19.84 19.84-46.72-19.84-46.72-47.36-19.84z m0,99.84q-13.44,0-23.040-10.24t-9.6-23.68 9.6-23.040 23.040-9.6 23.68,9.6 10.24,23.040-10.24,23.68-23.68,10.24z" horiz-adv-x="633.6"  />
<glyph unicode="&#xf2c1;" d="M 700.16,504.96q 41.6,0 71.040-29.44t 29.44-71.040l0-232.96q0-41.6-29.44-71.040t-71.040-29.44l-33.92,0 0-99.84-99.84,99.84-266.24,0q-41.6,0-71.040,29.44t-29.44,71.040l-99.84-99.84 0,99.84q-41.6,0-71.040,29.44t-29.44,71.040l0,232.96q0,41.6 29.44,71.040t 71.040,29.44l 400,0q 41.6,0 71.040-29.44t 29.44-71.040l 99.84,0z m-600.32-266.24l 133.76,0 0,149.76q0,34.56 24.32,59.52t 58.88,24.96l 216.96,0 0,32.64q0,13.44-10.24,23.68t-23.68,10.24l-400,0q-13.44,0-23.68-10.24t-10.24-23.68l0-232.96q0-13.44 10.24-23.68t 23.68-10.24z m 633.6-66.56l0,232.96q0,13.44-10.24,23.68t-23.68,10.24l-383.36,0q-21.12,0-35.84-14.72t-14.72-35.84l0-216.32q0-13.44 10.24-23.68t 23.68-10.24l 400,0q 13.44,0 23.68,10.24t 10.24,23.68z" horiz-adv-x="800"  />
<glyph unicode="&#xf2c2;" d="M 524.16,128.64q 15.36-16.64 5.76-37.12t-30.080-19.84l-104.96,0q-11.52-44.16-47.36-72.32t-81.92-28.16-81.28,28.16-46.72,72.32l-104.96,0q-21.12,0-30.72,21.12t 6.4,37.12q 2.56,2.56 6.4,7.68t 13.44,23.68 17.28,40.32 14.080,59.52 6.4,78.72q0,64.64 37.12,116.48t 96.64,72.32q-0.64,3.84-0.64,11.52 0,27.52 19.2,46.72t 47.36,19.84 47.36-19.84 19.84-46.72q0-3.2-1.92-11.52 59.52-21.12 96.64-72.32t 37.76-116.48q0-41.6 6.4-78.72t 14.080-59.52 17.28-40.32 13.44-23.68 6.4-8.32z m-257.92,343.040q-55.040,0-94.080-39.040t-39.040-94.080q0-39.040-3.2-67.2l 272.64,0q-3.84,34.56-3.84,67.2 0,55.040-39.040,94.080t-93.44,39.040z m0-432.64q 39.040,0 57.6,32.64l-114.56,0q 18.56-32.64 56.96-32.64z m-172.8,99.84l 346.24,0q-19.84,41.6-31.36,99.84l-284.16,0q-11.52-58.24-31.36-99.84z" horiz-adv-x="533.76"  />
<glyph unicode="&#xf2c3;" d="M 328.96,513.28q-31.36,0-51.84-35.2l-197.12-328.32q-21.12-35.2-7.040-60.8t 55.68-25.6l 400,0q 41.6,0 55.040,25.6t-7.040,60.8l-197.12,328.32q-21.12,35.2-51.2,35.2z m0,67.2q 67.84,0 108.16-67.84l 197.76-328.96q 40.32-67.2 7.040-127.36-32.64-59.52-112.64-59.52l-400,0q-79.36,0-113.92,59.52-33.92,59.52 7.040,127.36l 197.76,328.96q 40.32,67.84 108.8,67.84z m 49.92-441.6q-3.2-3.2-8.32-8.32t-23.040-12.16-35.84-7.040q-24.96,1.92-35.2,21.76t-0.64,49.92l 13.44,40.32q 9.6,28.8-8.32,38.4-6.4,2.56-14.72,1.28t-14.72-3.84l-7.040-3.2q 3.2,3.2 8.96,8.32t 23.040,12.16 35.84,7.040q 24.96-1.92 35.2-21.76t 0.64-49.92l-13.44-40.32q-10.24-28.8 7.040-38.4 6.4-2.56 14.72-1.28t 15.36,3.84z m-93.44,224.64q0,44.16 44.16,44.16 43.52,0 43.52-44.16 0-43.52-43.52-43.52-44.16,0-44.16,43.52z" horiz-adv-x="656.64"  />
<glyph unicode="&#xf2c4;" d="M 634.24,183.68q 40.96-67.84 7.040-127.36-32.64-59.52-112.64-59.52l-400,0q-80.64,0-113.92,59.52-33.92,59.52 7.040,127.36l 197.76,328.96q 40.32,67.84 108.8,67.84 67.84,0 108.16-67.84z m-305.92,232.32q-21.76,0-37.12-15.36t-15.36-37.12 15.36-36.48 37.12-14.72 36.48,14.72 14.72,36.48-14.72,37.12-36.48,15.36z m 56.32-282.24q 5.12,5.76 0,11.52t-10.24,2.56q-18.56-7.040-23.040-7.040-17.92,0-8.32,28.8l 12.8,40.96q 10.24,32.64-1.92,56.96t-40.96,25.6q-19.84,0.64-38.4-7.040t-26.24-14.72-9.6-8.96q-5.12-5.76 0-10.88t 10.24-1.92q 16,6.4 24.32,6.4 17.92,0 8.32-28.8l-13.44-40.96q-11.52-34.56 2.56-58.24t 46.080-24.32q 19.2,0 36.48,7.68t 24.32,14.080 8.32,8.96z" horiz-adv-x="656.64"  />
<glyph unicode="&#xf2c5;" d="M 328.96,513.28q-31.36,0-51.84-35.2l-197.12-328.32q-21.12-35.2-7.040-60.8t 55.68-25.6l 400,0q 41.6,0 55.040,25.6t-7.040,60.8l-197.12,328.32q-21.12,35.2-51.2,35.2z m0,67.2q 67.84,0 108.16-67.84l 197.76-328.96q 40.32-67.2 7.040-127.36-32.64-59.52-112.64-59.52l-400,0q-79.36,0-113.92,59.52-33.92,59.52 7.040,127.36l 197.76,328.96q 40.32,67.84 108.8,67.84z m-44.16-416.64q0,44.16 44.16,44.16 43.52,0 43.52-44.16 0-43.52-43.52-43.52-44.16,0-44.16,43.52z m 93.44,200.32q0-8.96-3.84-18.56l-45.44-114.56q-28.16,69.12-46.72,114.56-3.84,9.6-3.84,18.56 0,21.12 14.72,35.84t 35.84,14.72 35.2-14.72 14.72-35.84z" horiz-adv-x="656.64"  />
<glyph unicode="&#xf2c6;" d="M 634.24,183.68q 40.96-67.84 7.040-127.36-32.64-59.52-112.64-59.52l-400,0q-80.64,0-113.92,59.52-33.92,59.52 7.040,127.36l 197.76,328.96q 40.32,67.84 108.8,67.84 67.84,0 108.16-67.84z m-305.92-71.040q 21.76,0 36.48,14.72t 14.72,36.48-14.72,37.12-36.48,15.36-37.12-15.36-15.36-37.12 15.36-36.48 37.12-14.72z m 54.4,247.040q 3.2,8.96 3.2,21.12 0,24.32-16.64,40.96t-40.96,17.28-40.96-17.28-17.28-40.96q0-11.52 3.84-21.76l 46.72-114.56q 3.2-5.76 8.32-5.76t 7.040,5.76q 47.36,114.56 47.36,115.2z" horiz-adv-x="656.64"  />
<glyph unicode="&#xf2c7;" d="M 533.76,588.8q 41.6,0 71.040-29.44t 29.44-71.040l0-400q0-41.6-29.44-71.040t-71.040-29.44l-367.36,0q-41.6,0-71.040,29.44t-29.44,71.040l0,33.92-32.64,0q-13.44,0-23.68,9.6t-10.24,23.040 10.24,23.68 23.68,10.24l 32.64,0 0,66.56-32.64,0q-13.44,0-23.68,10.24t-10.24,23.68 10.24,23.68 23.68,10.24l 32.64,0 0,66.56-32.64,0q-13.44,0-23.68,10.24t-10.24,23.68 10.24,23.040 23.68,9.6l 32.64,0 0,33.92q0,41.6 29.44,71.040t 71.040,29.44l 367.36,0z m-400-99.84l0-33.92 32.64,0 0,67.2q-13.44,0-23.040-10.24t-9.6-23.68z m0-99.84l0-66.56 32.64,0 0,66.56-32.64,0z m0-133.76l0-66.56 32.64,0 0,66.56-32.64,0z m0-166.4q0-13.44 9.6-23.68t 23.040-10.24l0,67.2-32.64,0 0-33.92z m 432.64,0l0,400q0,13.44-9.6,23.68t-23.040,10.24l-333.44,0 0-467.2 333.44,0q 13.44,0 23.040,10.24t 9.6,23.68z m-266.24,249.6q0,67.2 66.56,67.2 67.2,0 67.2-67.2 0-66.56-67.2-66.56-66.56,0-66.56,66.56z m 66.56-94.72q 35.84,0 59.52-14.72t 23.68-33.92q0-9.6-24.32-16.64t-59.52-7.040q-37.76,0-60.16,7.040t-23.040,16.64q0,19.2 23.040,33.92t 60.16,14.72z" horiz-adv-x="633.6"  />
<glyph unicode="&#xf2c8;" d="M 633.6,22.4l-533.76,0q-41.6,0-71.040,29.44t-29.44,71.040l0,332.8q0,41.6 29.44,71.040t 71.040,29.44l 533.76,0q 41.6,0 71.040-29.44t 29.44-71.040l0-332.8q0-41.6-29.44-71.040t-71.040-29.44z m-533.76,466.56q-13.44,0-23.68-10.24t-10.24-23.68l0-332.8q0-13.44 10.24-23.68t 23.68-10.24l 533.76,0q 13.44,0 23.040,10.24t 9.6,23.68l0,332.8q0,13.44-9.6,23.68t-23.040,10.24l-533.76,0z m 200.32-300.16l-133.76,0q-13.44,0-23.040,10.24t-9.6,23.68 9.6,23.040 23.040,9.6l 133.76,0q 13.44,0 23.68-9.6t 10.24-23.040-10.24-23.68-23.68-10.24z m0,133.76l-133.76,0q-13.44,0-23.040,9.6t-9.6,23.040 9.6,23.68 23.040,10.24l 133.76,0q 13.44,0 23.68-10.24t 10.24-23.68-10.24-23.040-23.68-9.6z m 133.76,16q0,67.2 66.56,67.2t 66.56-67.2q0-66.56-66.56-66.56t-66.56,66.56z m 66.56-94.72q 35.84,0 59.52-14.72t 23.68-33.92q0-9.6-24.32-16.64t-59.52-7.040q-37.76,0-60.16,7.040t-23.040,16.64q0,19.2 23.040,33.92t 60.16,14.72z" horiz-adv-x="733.44"  />
<glyph unicode="&#xf2c9;" d="M 597.12,405.76l-91.52-86.4-2.56-2.56q 30.72-34.56 30.72-77.44 0-48-34.56-82.56t-82.56-34.56l-90.24,0-26.24-133.76-33.92,0-26.24,133.76-73.6,0q-44.16,0-75.52,31.36l-85.76,85.76 61.44,61.44q-30.72,13.44-48.64,42.24t-18.56,62.72q0,48 34.56,82.56t 82.56,34.56l 117.12,0 0,16.64q0,19.84 14.72,34.56t 35.2,14.72 35.84-14.72 14.72-34.56l0-16.64 96.64,0q 43.52,0 74.24-29.44z m-179.84-216.96q 19.84,0 34.56,14.72t 14.72,35.84-14.72,35.2-34.56,14.72l-250.24,0q-16.64,0-28.16-11.52l-38.4-38.4 38.4-38.4q 12.16-12.16 28.16-12.16l 250.24,0z m 42.24,178.56l 40.96,38.4-40.96,38.4q-12.16,12.16-28.8,12.16l-313.6,0q-21.12,0-35.84-14.72t-14.72-35.84q0-19.84 14.72-34.56t 35.84-14.72l 313.6,0q 17.92,0 28.8,11.52z" horiz-adv-x="597.12"  />
<glyph unicode="&#xf2ca;" d="M 266.24,538.88q-82.56,0-141.44-57.6-58.24-56.96-58.24-138.24 0-80.64 58.24-137.6l 141.44-140.16 142.72,140.16q 57.6,56.32 57.6,137.6 0,82.56-57.6,138.24-59.52,57.6-142.72,57.6z m0,66.56q 111.36,0 188.8-76.8t 77.44-185.6-77.44-185.6l-188.8-185.6-188.16,185.6q-78.72,76.8-78.72,185.6t 78.72,185.6 188.16,76.8z m0-183.040q-33.92,0-58.24-24.96t-24.96-58.88 24.96-58.88q 24.32-24.32 58.24-24.32 35.2,0 59.52,24.32 24.96,24.96 24.96,58.88t-24.96,58.88-59.52,24.96z m0,33.92q 48,0 82.56-34.56t 34.56-82.56-34.56-82.56-82.56-34.56-82.56,34.56-34.56,82.56 34.56,82.56 82.56,34.56z" horiz-adv-x="533.12"  />
<glyph unicode="&#xf2cb;" d="M 455.040,528.64q 77.44-76.8 77.44-185.6t-77.44-185.6l-188.8-185.6-188.16,185.6q-78.72,76.8-78.72,185.6t 78.72,185.6 188.8,76.8 188.16-76.8z m-188.8-272.64q 35.2,0 59.52,24.32 24.96,24.96 24.96,58.88t-24.96,58.88-59.52,24.96q-33.92,0-58.24-24.96t-24.96-58.88 24.96-58.88q 24.32-24.32 58.24-24.32z" horiz-adv-x="533.12"  />
<glyph unicode="&#xf2cc;" d="M 33.92,5.12q-14.72,0-24.32,10.24t-9.6,23.040l0,333.44q0,13.44 9.6,23.040l 150.4,150.4q 8.96,8.96 21.76,9.6t 22.4-7.040l 143.36-114.56 129.92,128.64q 16,16 36.48,6.4t 20.48-30.72l0-332.8q0-13.44-10.24-24.32l-149.76-149.76q-8.96-8.96-21.76-9.6t-23.040,7.040l-143.36,114.56-128.64-128.64q-9.6-9.6-23.040-9.6z m 32.64,113.92q 97.92,96 99.84,97.92l0,241.92-99.84-99.84 0-239.36z m 137.6,95.36l 129.92-103.040 0,248.96-133.76,105.6 0-248.96q 0.64-0.64 1.92-1.92t 1.92-0.64z m 262.4,5.12l0,239.36q-97.92-96.64-99.84-98.56l0-240.64z" horiz-adv-x="533.76"  />
<glyph unicode="&#xf2cd;" d="M 266.24,34.56q-38.4,0-55.040,49.92l-40.96,120.96-120.96,40.32q-47.36,15.36-49.92,53.76-2.56,37.12 43.52,57.6l 379.52,177.92q 26.24,12.16 46.72,8.32t 31.36-21.12q 16-26.24-1.92-64l-176.64-379.52q-19.84-43.52-56.32-43.52z m-179.2,268.8l 136.32-45.44 45.44-136.96 159.36,341.76z" horiz-adv-x="508.8"  />
<glyph unicode="&#xf2ce;" d="M 209.92,94.72l-45.44,136.96-136.96,45.44q-17.92,5.76-24.32,14.72t-1.28,18.56 21.76,16.64l 379.52,176.64q 25.6,11.52 34.56,1.92t-1.92-34.56l-177.92-379.52q-7.040-16.64-16.64-21.76t-17.92,1.28-14.72,24.32z" horiz-adv-x="442.24"  />
<glyph unicode="&#xf2cf;" d="M 300.16,522.24q-96.64,0-165.12-68.48t-68.48-165.12 68.48-165.12 165.12-68.48 165.12,68.48 68.48,165.12-68.48,165.12-165.12,68.48z m0,66.56q 124.16,0 211.84-88.32t 88.32-211.84-88.32-211.84-211.84-88.32-211.84,88.32-88.32,211.84 88.32,211.84 211.84,88.32z m 123.52-156.16q 8.96,2.56 16-5.12t 5.12-16l-57.6-198.4q-2.56-8.96-11.52-11.52l-198.4-57.6-3.84,0q-8.32,0-13.44,6.4t-3.2,14.72l 57.6,198.4q 2.56,8.96 11.52,11.52z m-226.56-247.040l 160.64,45.44-115.2,115.2z" horiz-adv-x="600.32"  />
<glyph unicode="&#xf2d0;" d="M 466.56,471.68q 13.44,0 23.68-9.6t 10.24-23.040-10.24-23.68-23.68-10.24l0-266.24q0-55.040-39.040-94.72t-94.080-39.040l-167.040,0q-55.040,0-94.080,39.040t-39.040,94.72l0,266.24q-13.44,0-23.68,10.24t-10.24,23.68 10.24,23.040 23.68,9.6l 32.64,0 0,33.92q0,27.52 19.84,46.72t 47.36,19.84l 232.96,0q 28.16,0 47.36-19.84t 19.84-46.72l0-33.92 32.64,0z m-332.8,33.92l0-33.92 232.96,0 0,33.92-232.96,0z m 266.24-366.72l0,266.24-300.16,0 0-266.24q0-28.16 19.84-47.36t 46.72-19.84l 167.040,0q 27.52,0 46.72,19.84t 19.84,47.36z m-249.6,216.32q 6.4,0 11.52-5.12t 5.12-11.52l0-200.32q0-6.4-5.12-11.52t-11.52-5.12-11.52,5.12-5.12,11.52l0,200.32q0,6.4 5.12,11.52t 11.52,5.12z m 66.56,0q 6.4,0 11.52-5.12t 5.12-11.52l0-200.32q0-6.4-5.12-11.52t-11.52-5.12-11.52,5.12-5.12,11.52l0,200.32q0,6.4 5.12,11.52t 11.52,5.12z m 66.56,0q 6.4,0 11.52-5.12t 5.12-11.52l0-200.32q0-6.4-5.12-11.52t-11.52-5.12-11.52,5.12-5.12,11.52l0,200.32q0,6.4 5.12,11.52t 11.52,5.12z m 67.2,0q 6.4,0 11.52-5.12t 5.12-11.52l0-200.32q0-6.4-5.12-11.52t-11.52-5.12-11.52,5.12-5.12,11.52l0,200.32q0,6.4 5.12,11.52t 11.52,5.12z" horiz-adv-x="499.84"  />
<glyph unicode="&#xf2d1;" d="M 523.52,445.44q 10.24-10.24 10.24-23.040l0-333.44q0-41.6-29.44-71.040t-71.040-29.44l-333.44,0q-41.6,0-71.040,29.44t-29.44,71.040l0,400q0,41.6 29.44,71.040t 71.040,29.44l 266.24,0q 14.72,0 24.32-9.6z m-70.4-23.040l-86.4,85.76 0-35.84q0-19.84 14.72-34.56t 35.84-14.72l 35.84,0z m-19.2-367.36q 13.44,0 23.040,10.24t 9.6,23.68l0,300.16-49.92,0q-34.56,0-58.88,24.32t-24.32,58.88l0,50.56-233.6,0q-13.44,0-23.68-10.24t-10.24-23.68l0-400q0-13.44 10.24-23.68t 23.68-10.24l 333.44,0z" horiz-adv-x="533.76"  />
<glyph unicode="&#xf2d2;" d="M 433.92-11.52l-333.44,0q-41.6,0-71.040,29.44t-29.44,71.040l0,400q0,41.6 29.44,71.040t 71.040,29.44l 333.44,0q 41.6,0 71.040-29.44t 29.44-71.040l0-400q0-41.6-29.44-71.040t-71.040-29.44z m-333.44,533.76q-13.44,0-23.68-10.24t-10.24-23.68l0-400q0-13.44 10.24-23.68t 23.68-10.24l 333.44,0q 13.44,0 23.040,10.24t 9.6,23.68l0,400q0,13.44-9.6,23.68t-23.040,10.24l-333.44,0z m 300.16-200.32l-266.24,0q-16.64,0-16.64,16 0,7.040 5.12,12.16t 12.16,5.12l 266.24,0q 7.040,0 12.16-5.12t 5.12-12.16q0-16-16.64-16z m0,99.84l-266.24,0q-7.040,0-12.16,5.12t-5.12,12.16q0,16 16.64,16l 266.24,0q 16.64,0 16.64-16 0-7.040-5.12-12.16t-12.16-5.12z m0-200.32l-266.24,0q-7.040,0-12.16,5.12t-5.12,12.16q0,16 16.64,16l 266.24,0q 16.64,0 16.64-16 0-7.040-5.12-12.16t-12.16-5.12z m0-99.84l-266.24,0q-16.64,0-16.64,16 0,7.040 5.12,12.16t 12.16,5.12l 266.24,0q 7.040,0 12.16-5.12t 5.12-12.16q0-16-16.64-16z" horiz-adv-x="533.76"  />
<glyph unicode="&#xf2d3;" d="M 366.72,288.64q 13.44,0 23.68-10.24t 10.24-23.68-10.24-23.040-23.68-9.6l-66.56,0 0-67.2q0-13.44-10.24-23.040t-23.68-9.6-23.040,9.6-9.6,23.040l0,67.2-67.2,0q-13.44,0-23.040,9.6t-9.6,23.040 9.6,23.68 23.040,10.24l 67.2,0 0,66.56q0,13.44 9.6,23.68t 23.040,10.24 23.68-10.24 10.24-23.68l0-66.56 66.56,0z m 156.8,156.8q 10.24-10.24 10.24-23.040l0-333.44q0-41.6-29.44-71.040t-71.040-29.44l-333.44,0q-41.6,0-71.040,29.44t-29.44,71.040l0,400q0,41.6 29.44,71.040t 71.040,29.44l 266.24,0q 14.72,0 24.32-9.6z m-70.4-23.040l-86.4,85.76 0-35.84q0-19.84 14.72-34.56t 35.84-14.72l 35.84,0z m-19.2-367.36q 13.44,0 23.040,10.24t 9.6,23.68l0,300.16-49.92,0q-34.56,0-58.88,24.32t-24.32,58.88l0,50.56-233.6,0q-13.44,0-23.68-10.24t-10.24-23.68l0-400q0-13.44 10.24-23.68t 23.68-10.24l 333.44,0z" horiz-adv-x="533.76"  />
<glyph unicode="&#xf2d4;" d="M 523.52,445.44q 10.24-10.24 10.24-23.040l0-333.44q0-41.6-29.44-71.040t-71.040-29.44l-333.44,0q-41.6,0-71.040,29.44t-29.44,71.040l0,400q0,41.6 29.44,71.040t 71.040,29.44l 266.24,0q 14.72,0 24.32-9.6z m-70.4-23.040l-86.4,85.76 0-35.84q0-19.84 14.72-34.56t 35.84-14.72l 35.84,0z m-19.2-367.36q 13.44,0 23.040,10.24t 9.6,23.68l0,300.16-49.92,0q-34.56,0-58.88,24.32t-24.32,58.88l0,50.56-233.6,0q-13.44,0-23.68-10.24t-10.24-23.68l0-400q0-13.44 10.24-23.68t 23.68-10.24l 333.44,0z m-67.2,167.040l-200.32,0q-13.44,0-23.040,9.6t-9.6,23.040 9.6,23.68 23.040,10.24l 200.32,0q 13.44,0 23.68-10.24t 10.24-23.68-10.24-23.040-23.68-9.6z" horiz-adv-x="533.76"  />
<glyph unicode="&#xf2d5;" d="M 666.24,555.52q 28.16,0 47.36-19.84t 19.84-46.72l0-400q0-27.52-19.84-46.72t-47.36-19.84l-600.32,0q-28.16,0-47.36,19.84t-19.2,46.72l0,400q0,27.52 19.2,46.72t 47.36,19.84l 600.32,0z m-600.32-66.56l0-400 267.52,0 0,400-267.52,0z m 600.32-400l0,400-300.16,0 0-400 300.16,0z m-32.64,150.4l0-101.12q0-6.4-5.12-11.52t-11.52-5.12l-33.92,0q-6.4,0-11.52,5.12t-5.12,11.52l0,101.12q0,6.4 5.12,11.52t 11.52,5.12l 33.92,0q 6.4,0 11.52-5.12t 5.12-11.52z m-99.84,200.32l0-167.040q0-6.4-5.12-11.52t-11.52-5.12l-99.84,0q-6.4,0-11.52,5.12t-5.12,11.52l0,167.040q0,6.4 5.12,11.52t 11.52,5.12l 99.84,0q 6.4,0 11.52-5.12t 5.12-11.52z m 49.92-83.84q-6.4,0-11.52,5.12t-5.12,11.52 5.12,11.52 11.52,5.12l 33.92,0q 6.4,0 11.52-5.12t 5.12-11.52-5.12-11.52-11.52-5.12l-33.92,0z m0-66.56q-6.4,0-11.52,5.12t-5.12,11.52 5.12,11.52 11.52,5.12l 33.92,0q 6.4,0 11.52-5.12t 5.12-11.52-5.12-11.52-11.52-5.12l-33.92,0z m-166.4-99.84q-6.4,0-11.52,5.12t-5.12,11.52 5.12,11.52 11.52,5.12l 99.84,0q 6.4,0 11.52-5.12t 5.12-11.52-5.12-11.52-11.52-5.12l-99.84,0z m 99.84-33.92q 6.4,0 11.52-5.12t 5.12-11.52-5.12-11.52-11.52-5.12l-99.84,0q-6.4,0-11.52,5.12t-5.12,11.52 5.12,11.52 11.52,5.12l 99.84,0z m 66.56,267.52q-6.4,0-11.52,5.12t-5.12,11.52 5.12,11.52 11.52,5.12l 33.92,0q 6.4,0 11.52-5.12t 5.12-11.52-5.12-11.52-11.52-5.12l-33.92,0z m-283.52,16.64l0-101.12q0-6.4-5.12-11.52t-11.52-5.12l-166.4,0q-6.4,0-11.52,5.12t-5.12,11.52l0,101.12q0,6.4 5.12,11.52t 11.52,5.12l 166.4,0q 6.4,0 11.52-5.12t 5.12-11.52z m-16.64-216.96q 6.4,0 11.52-5.12t 5.12-11.52-5.12-11.52-11.52-5.12l-166.4,0q-6.4,0-11.52,5.12t-5.12,11.52 5.12,11.52 11.52,5.12l 166.4,0z m0,66.56q 6.4,0 11.52-5.12t 5.12-11.52-5.12-11.52-11.52-5.12l-166.4,0q-6.4,0-11.52,5.12t-5.12,11.52 5.12,11.52 11.52,5.12l 166.4,0z m0-133.76q 6.4,0 11.52-5.12t 5.12-11.52-5.12-11.52-11.52-5.12l-166.4,0q-6.4,0-11.52,5.12t-5.12,11.52 5.12,11.52 11.52,5.12l 166.4,0z" horiz-adv-x="733.44"  />
<glyph unicode="&#xf2d6;" d="M 499.84,488.96q 41.6,0 71.040-29.44t 29.44-71.040l0-266.24q0-41.6-29.44-71.040t-71.040-29.44l-400,0q-41.6,0-71.040,29.44t-29.44,71.040l0,332.8q0,41.6 29.44,71.040t 71.040,29.44l 133.76,0q 27.52,0 46.72-19.84t 19.84-46.72l 200.32,0z m-400,0q-13.44,0-23.68-10.24t-10.24-23.68l0-66.56 467.2,0q0,13.44-10.24,23.68t-23.68,10.24l-200.32,0q-28.16,0-47.36,19.84t-19.2,46.72l-133.76,0z m 400-400q 13.44,0 23.68,10.24t 10.24,23.68l0,232.96-467.2,0 0-232.96q0-13.44 10.24-23.68t 23.68-10.24l 400,0z" horiz-adv-x="600.32"  />
<glyph unicode="&#xf2d7;" d="M 499.84,488.96q 41.6,0 71.040-29.44t 29.44-71.040l0-266.24q0-41.6-29.44-71.040t-71.040-29.44l-400,0q-41.6,0-71.040,29.44t-29.44,71.040l0,332.8q0,41.6 29.44,71.040t 71.040,29.44l 133.76,0q 27.52,0 46.72-19.84t 19.84-46.72l 200.32,0z m0-400q 13.44,0 23.68,10.24t 10.24,23.68l0,232.96-133.76,0q-6.4,0-11.52,5.12t-5.12,11.52 5.12,11.52 11.52,5.12l 133.76,0q0,13.44-10.24,23.68t-23.68,10.24l-200.32,0q-28.16,0-47.36,19.84t-19.2,46.72l-133.76,0q-13.44,0-23.68-10.24t-10.24-23.68l0-66.56 133.76,0q 6.4,0 11.52-5.12t 5.12-11.52-5.12-11.52-11.52-5.12l-133.76,0 0-232.96q0-13.44 10.24-23.68t 23.68-10.24l 400,0z m-99.84,200.32q 13.44,0 23.68-10.24t 10.24-23.68-10.24-23.040-23.68-9.6l-66.56,0 0-67.2q0-13.44-10.24-23.040t-23.68-9.6-23.68,9.6-10.24,23.040l0,67.2-66.56,0q-13.44,0-23.68,9.6t-10.24,23.040 10.24,23.68 23.68,10.24l 66.56,0 0,66.56q0,13.44 10.24,23.68t 23.68,10.24 23.68-10.24 10.24-23.68l0-66.56 66.56,0z" horiz-adv-x="600.32"  />
<glyph unicode="&#xf2d8;" d="M 499.84,488.96q 41.6,0 71.040-29.44t 29.44-71.040l0-266.24q0-41.6-29.44-71.040t-71.040-29.44l-400,0q-41.6,0-71.040,29.44t-29.44,71.040l0,332.8q0,41.6 29.44,71.040t 71.040,29.44l 133.76,0q 27.52,0 46.72-19.84t 19.84-46.72l 200.32,0z m-400,0q-13.44,0-23.68-10.24t-10.24-23.68l0-66.56 467.2,0q0,13.44-10.24,23.68t-23.68,10.24l-200.32,0q-28.16,0-47.36,19.84t-19.2,46.72l-133.76,0z m 400-400q 13.44,0 23.68,10.24t 10.24,23.68l0,232.96-467.2,0 0-232.96q0-13.44 10.24-23.68t 23.68-10.24l 400,0z m-99.84,133.76l-200.32,0q-13.44,0-23.68,9.6t-10.24,23.040 10.24,23.68 23.68,10.24l 200.32,0q 13.44,0 23.68-10.24t 10.24-23.68-10.24-23.040-23.68-9.6z" horiz-adv-x="600.32"  />
<glyph unicode="&#xf2d9;" d="M 366.72,305.28q 7.040,0 12.16-5.12t 5.12-12.16-5.12-12.16-12.16-5.12l-99.84,0q-7.040,0-12.16,5.12t-5.12,12.16 5.12,12.16 12.16,5.12l 99.84,0z m 233.6,233.6q 13.44,0 23.68-10.24t 10.24-23.68-10.24-23.68-23.68-10.24l-566.4,0q-13.44,0-23.68,10.24t-10.24,23.68 10.24,23.68 23.68,10.24l 566.4,0z m-66.56-99.84q 13.44,0 23.040-10.24t 9.6-23.68l0-266.24q0-41.6-29.44-71.040t-71.040-29.44l-300.16,0q-41.6,0-71.040,29.44t-29.44,71.040l0,266.24q0,13.44 10.24,23.68t 23.68,10.24l 433.92,0z m-67.2-333.44q 13.44,0 23.68,10.24t 10.24,23.68l0,232.96-366.72,0 0-232.96q0-13.44 9.6-23.68t 23.040-10.24l 300.16,0z" horiz-adv-x="633.6"  />
<glyph unicode="&#xf2da;" d="M 433.92,572.16q 41.6,0 71.040-29.44t 29.44-71.040l0-366.72q0-41.6-29.44-71.040t-71.040-29.44l-333.44,0q-41.6,0-71.040,29.44t-29.44,71.040l0,366.72q0,41.6 29.44,71.040t 71.040,29.44l 333.44,0z m 32.64-466.56l0,242.56q-15.36-8.96-32.64-8.96l-50.56,0q0-48-34.56-82.56t-82.56-34.56-81.92,34.56-33.92,82.56l-50.56,0q-18.56,0-33.92,8.96l0-242.56q0-13.44 10.24-23.68t 23.68-10.24l 333.44,0q 13.44,0 23.040,10.24t 9.6,23.68z m-283.52,233.6q0-34.56 24.32-58.88t 58.88-24.32 59.52,24.32 24.96,58.88l-167.040,0z m 283.52,66.56l0,66.56q0,13.44-9.6,23.68t-23.040,10.24l-333.44,0q-13.44,0-23.68-10.24t-10.24-23.68l0-66.56q0-13.44 10.24-23.68t 23.68-10.24l 333.44,0q 13.44,0 23.040,10.24t 9.6,23.68z" horiz-adv-x="533.76"  />
<glyph unicode="&#xf2db;" d="M 99.84,555.52q 88.32,0 168.32-34.56t 138.24-92.16 92.16-138.24 34.56-168.32q0-41.6-29.44-71.040t-71.040-29.44l-300.16,0q-55.040,0-94.72,39.040t-39.040,94.72l0,300.16q0,41.6 29.44,71.040t 71.040,29.44z m 33.92-467.2q 27.52,0 46.72,19.84t 19.84,47.36q0,27.52-19.2,46.72t-47.36,19.84-47.36-19.84-19.2-46.72q0-28.16 19.84-47.36t 46.72-19.84z m 150.4,0q 21.12,0 35.2,14.72t 14.72,35.84q0,89.6-63.36,152.96t-152.96,63.36q-21.12,0-35.2-14.72t-14.72-35.84 14.72-35.2 35.2-14.72q 48,0 82.56-34.56t 34.56-82.56q0-21.12 14.72-35.84t 35.84-14.72z m 133.12,0q 21.12,0 35.84,14.72t 14.72,35.84q0,94.72-47.36,175.36t-127.36,127.36-175.36,46.72q-21.12,0-35.2-14.72t-14.72-35.2 14.72-35.84 35.2-14.72q 103.040,0 176.64-72.96t 73.6-176.64q0-21.12 14.72-35.84t 35.2-14.72z" horiz-adv-x="533.76"  />
<glyph unicode="&#xf2dc;" d="M 66.56,155.52q 28.16,0 47.36-19.84t 19.84-46.72-19.84-46.72-47.36-19.84-47.36,19.84-19.2,46.72 19.2,46.72 47.36,19.84z m0,400q 126.72,0 234.24-62.72t 170.24-170.24 62.72-234.24q0-27.52-19.84-46.72t-47.36-19.84-47.36,19.84-19.2,46.72q0,137.6-97.92,235.52t-236.16,97.92q-28.16,0-47.36,19.84t-19.2,46.72 19.2,46.72 47.36,19.84z m0-200.32q 110.72,0 188.8-78.080t 78.72-188.16q0-27.52-19.84-46.72t-47.36-19.84-47.36,19.84-19.2,46.72q0,55.040-39.040,94.72t-94.72,39.040q-28.16,0-47.36,19.84t-19.2,46.72 19.2,46.72 47.36,19.84z" horiz-adv-x="533.76"  />
<glyph unicode="&#xf2dd;" d="M 616.96,533.76q 19.84-19.84 33.92-47.36t 17.28-69.76-7.68-87.68-47.36-104.96-95.36-118.4q-151.040-151.040-290.56-151.040-85.76,0-137.6,51.84l-59.52,59.52q-29.44,29.44-29.44,71.040t 29.44,71.040l 53.12,53.12q 29.44,29.44 70.4,29.44t 70.4-29.44l 46.72-45.44 139.52,138.24-46.72,46.72q-29.44,29.44-29.44,71.040t 29.44,71.040l 53.12,53.12q 28.8,28.8 71.040,28.8 41.6,0 70.4-28.8z m-207.36-40.32q-9.6-9.6-9.6-23.68t 9.6-23.68l 35.84-35.84 99.84,99.84-35.84,35.84q-9.6,9.6-23.040,9.6-14.72,0-24.32-9.6z m-333.44-380.8l 37.12-35.84 99.84,99.84-37.12,35.84q-9.6,9.6-23.040,9.6t-23.040-9.6l-53.76-53.12q-9.6-9.6-9.6-23.68t 9.6-23.68z m 393.6,40.32q 51.84,51.84 83.2,101.76t 40.96,85.12 7.040,67.2-10.88,49.92-20.48,30.080l-99.84-99.84 9.6-9.6q 9.6-9.6 9.6-23.68t-9.6-23.68l-186.24-186.24q-9.6-9.6-23.040-9.6-14.72,0-24.32,9.6l-9.6,10.24-99.84-101.12q 32-32 90.24-32 111.36,0 243.2,131.84z" horiz-adv-x="668.16"  />
<glyph unicode="&#xf2de;" d="M 362.24,419.84l-14.72,14.72q-14.72,14.72-14.72,35.2t 14.72,35.2l 53.12,53.76q 14.72,14.72 35.2,14.72t 35.2-14.72l 15.36-15.36z m-224-195.2l 14.72-14.72-123.52-124.16-15.36,14.72q-14.72,14.72-14.72,35.84t 14.72,35.2l 53.12,53.12q 14.72,14.72 35.84,14.72t 35.84-14.72z m 392.96,273.92q 6.4-6.4 14.72-17.92t 16.64-45.44 3.84-72.32-38.4-98.56-96.64-123.52q-136.96-136.96-255.36-136.96-64.64,0-101.76,37.12l-12.16,11.52 124.16,124.16 21.76-21.76q 11.52-11.52 23.040,0l 186.24,186.24q 5.12,5.12 5.12,11.52 0,7.040-5.12,12.16l-21.76,21.76 123.52,124.16z" horiz-adv-x="568.32"  />
<glyph unicode="&#xf2df;" d="M 566.4,88.96l-466.56,0q-13.44,0-23.68-10.24t-10.24-23.68 10.24-23.040 23.68-9.6l 466.56,0q 13.44,0 23.68,9.6t 10.24,23.040-10.24,23.68-23.68,10.24z m0,66.56q 41.6,0 71.040-29.44t 29.44-71.040-29.44-71.040-71.040-29.44l-466.56,0q-41.6,0-71.040,29.44t-29.44,71.040 29.44,71.040 71.040,29.44l 466.56,0z m0,167.040l-466.56,0q-13.44,0-23.68-10.24t-10.24-23.68 10.24-23.68 23.68-10.24l 466.56,0q 13.44,0 23.68,10.24t 10.24,23.68-10.24,23.68-23.68,10.24z m0,66.56q 41.6,0 71.040-29.44t 29.44-71.040-29.44-71.040-71.040-29.44l-466.56,0q-41.6,0-71.040,29.44t-29.44,71.040 29.44,71.040 71.040,29.44l 466.56,0z m0,166.4l-466.56,0q-13.44,0-23.68-9.6t-10.24-23.040 10.24-23.68 23.68-10.24l 466.56,0q 13.44,0 23.68,10.24t 10.24,23.68-10.24,23.040-23.68,9.6z m0,67.2q 41.6,0 71.040-29.44t 29.44-71.040-29.44-71.040-71.040-29.44l-466.56,0q-41.6,0-71.040,29.44t-29.44,71.040 29.44,71.040 71.040,29.44l 466.56,0z" horiz-adv-x="666.24"  />
<glyph unicode="&#xf2e0;" d="M 533.76,122.24q 27.52,0 46.72-19.84t 19.84-47.36q0-27.52-19.2-46.72t-47.36-19.84l-467.2,0q-28.16,0-47.36,19.84t-19.2,46.72q0,28.16 19.84,47.36t 46.72,19.84l 467.2,0z m0,232.96q 28.16,0 47.36-19.84t 19.2-46.72-19.2-46.72-47.36-19.84l-467.2,0q-28.16,0-47.36,19.84t-19.2,46.72 19.2,46.72 47.36,19.84l 467.2,0z m0,233.6q 28.16,0 47.36-19.84t 19.2-46.72q0-28.16-19.84-47.36t-46.72-19.84l-467.2,0q-27.52,0-46.72,19.84t-19.84,47.36q0,27.52 19.2,46.72t 47.36,19.84l 467.2,0z" horiz-adv-x="600.32"  />
<glyph unicode="&#xf2e1;" d="M 358.4,538.88l-99.84,0-28.8-114.56-112.64,32.64-50.56-87.040 85.12-81.92-85.12-81.92 50.56-86.4 112.64,32 28.8-113.92 99.84,0 28.16,113.92 113.92-32 49.92,86.4-85.12,81.92 85.12,81.92-49.92,87.040-113.92-32.64z m0,66.56q 22.4,0 40.32-14.080t 23.68-36.48l 12.16-47.36 47.36,13.44q 9.6,2.56 18.56,2.56 38.4,0 57.6-33.92l 49.92-86.4q 11.52-19.84 8.32-42.24t-19.84-38.4l-35.2-34.56 35.2-33.92q 16-16 19.2-38.4t-8.32-42.24l-49.92-87.040q-19.2-32.64-57.6-32.64-8.96,0-18.56,2.56l-47.36,12.8-11.52-47.36q-5.76-22.4-23.68-36.48t-40.96-14.080l-99.84,0q-23.040,0-40.96,14.080t-23.68,36.48l-12.16,47.36-46.72-13.44q-9.6-2.56-18.56-2.56-38.4,0-57.6,33.92l-50.56,86.4q-11.52,19.84-8.32,42.88t 19.84,39.040l 35.2,33.92-35.2,33.92q-16,16-19.2,39.040t 8.32,42.88l 50.56,86.4q 19.2,33.92 57.6,33.92 8.96,0 18.56-2.56l 46.72-13.44 12.16,47.36q 5.76,22.4 23.68,36.48t 40.96,14.080l 99.84,0z m-50.56-250.24q-28.16,0-47.36-19.2t-19.2-47.36 19.2-47.36 47.36-19.2 47.36,19.84 19.84,46.72-19.84,46.72-47.36,19.84z m0,33.92q 41.6,0 71.040-29.44t 29.44-71.040-29.44-71.040-71.040-29.44-71.040,29.44-29.44,71.040 29.44,71.040 71.040,29.44z" horiz-adv-x="616.32"  />
<glyph unicode="&#xf2e2;" d="M 160,120.32q-3.2,12.8-15.36,19.84t-25.6,3.2l-48.64-14.72q-13.44-3.84-28.16,1.92t-21.12,17.92l-16.64,28.8q-6.4,12.16-3.84,27.52t 12.16,24.96l 35.84,35.2q 9.6,9.6 9.6,23.040t-9.6,23.040l-35.84,35.2q-10.24,9.6-12.16,24.96t 5.12,27.52l 16,29.44q 6.4,12.16 21.12,17.92t 28.16,1.92l 48.64-13.44q 13.44-3.84 25.6,3.2t 15.36,19.84l 12.16,48.64q 3.84,13.44 16,23.040t 25.6,9.6l 32.64,0q 13.44,0 25.6-9.6t 16-23.040l 12.8-48.64q 3.84-13.44 15.36-19.84t 24.32-3.2l 48.64,13.44q 13.44,3.84 28.16-1.92t 21.12-17.92l 16.64-29.44q 6.4-12.16 3.84-27.52t-12.16-24.96l-35.84-35.2q-10.24-9.6-10.24-23.040t 10.24-23.040l 35.84-35.2q 9.6-9.6 12.16-24.96t-3.84-27.52l-16.64-28.8q-6.4-12.16-21.12-17.92t-28.16-1.92l-48.64,14.72q-12.8,3.2-24.32-3.2t-15.36-19.84l-12.8-49.92q-3.84-13.44-16-23.040t-25.6-8.96l-32.64,0q-13.44,0-25.6,8.96t-16,23.040z m 70.4,234.24q-28.16,0-47.36-19.84t-19.84-46.72 19.84-46.72 47.36-19.84q 27.52,0 46.72,19.2t 19.84,47.36-19.84,47.36-46.72,19.2z" horiz-adv-x="459.52"  />
<glyph unicode="&#xf2e3;" d="M 133.76,138.24q0,33.92 32.64,33.92 33.92,0 33.92-33.92 0-32.64-33.92-32.64-32.64,0-32.64,32.64z m 67.2,237.44q0,1.92-0.64,6.4t-0.64,6.4q0,89.6 63.36,152.96 64,64 153.6,64 69.76,0 128-42.24 9.6-9.6 9.6-23.040t-9.6-23.040q 9.6,9.6 23.040,9.6t 23.040-9.6q 42.24-58.24 42.24-128 0-89.6-64-153.6-63.36-63.36-152.96-63.36-2.56,0-6.4,0.64t-6.4,0.64q-88.32-115.2-110.72-141.44-48.64-59.52-127.36-59.52-69.12,0-117.76,48.64t-48.64,117.76q0,75.52 59.52,127.36 69.12,58.24 141.44,110.72z m-134.4-237.44q0-40.96 29.44-70.4t 70.4-29.44q 46.72,0 76.16,35.84 32.64,37.76 76.8,96.64 41.6,55.040 57.6,73.6 23.040-6.4 40.32-6.4 61.44,0 105.6,44.16t 44.16,106.24q0,17.92-6.4,41.6l-93.44-92.16-83.2,16.64-16.64,83.2 95.36,92.8q-24.32,7.040-44.8,7.040-61.44,0-106.24-44.16t-44.16-105.6q0-16.64 6.4-40.32-21.76-17.92-74.24-57.6-48-35.84-96-76.16-35.84-31.36-35.84-76.8z m 480,325.12q-18.56,32-53.12,53.12l-90.24-88.96 8.96-43.52 44.16-9.6z" horiz-adv-x="633.6"  />
<glyph unicode="&#xf2e4;" d="M 514.56,446.72q 19.2-5.76 19.2-57.6 0-69.12-49.28-117.76t-117.76-48.64q-17.92,0-33.92,3.2-19.84-24.96-57.6-74.24t-69.76-87.040q-35.2-41.6-88.96-41.6-48,0-82.56,33.92t-34.56,81.92q0,53.76 40.96,89.6 37.76,32 88.32,69.12t 75.52,58.24q-3.84,19.84-3.84,33.92 0,69.12 48.64,117.76t 117.76,48.64q 24.96,0 49.92-8.32 8.96-2.56 11.52-11.52t-4.48-16.64l-88.96-86.4 12.8-63.36 64-12.8 87.040,85.12q 7.040,7.040 16,5.12z m-397.44-341.12q 13.44,0 23.68,9.6t 10.24,23.040-10.24,23.68-23.68,10.24-23.68-10.24-10.24-23.68 10.24-23.040 23.68-9.6z" horiz-adv-x="533.76"  />
<glyph unicode="&#xf2e5;" d="M 608,522.24q 14.72,0 24.96-12.16t 8.32-26.24l-33.92-233.6q-1.92-12.16-10.88-19.84t-21.76-8.32l-377.6,0 5.76-33.92 338.56,0q 13.44,0 23.68-10.24t 10.24-23.68-10.24-23.040-23.68-9.6l-366.72,0q-12.8,0-21.76,8.32t-10.88,19.2l-62.72,373.12-46.72,0q-13.44,0-23.68,9.6t-10.24,23.040 10.24,23.68 23.68,10.24l 74.24,0q 12.16,0 21.76-8.32t 11.52-19.84l 7.040-38.4 460.16,0z m-38.4-67.2l-128,0 0-66.56 118.4,0z m-161.92,0l-99.84,0 0-66.56 99.84,0 0,66.56z m0-99.84l-99.84,0 0-66.56 99.84,0 0,66.56z m-133.12,99.84l-117.12,0 12.16-67.2q 1.92,0.64 5.12,0.64l 99.84,0 0,66.56z m-99.84-99.84l 11.52-66.56 88.96,0 0,66.56-99.84,0z m 266.24-66.56l 104.96,0 8.96,66.56-113.92,0 0-66.56z m-266.24-249.6q0,49.92 49.92,49.92 50.56,0 50.56-49.92 0-50.56-50.56-50.56-49.92,0-49.92,50.56z m 300.16,0q0,49.92 49.92,49.92 50.56,0 50.56-49.92 0-50.56-50.56-50.56-49.92,0-49.92,50.56z" horiz-adv-x="641.92"  />
<glyph unicode="&#xf2e6;" d="M 533.76,482.56q 29.44-10.24 48-35.84t 18.56-57.6l0-300.16q0-41.6-29.44-71.040t-71.040-29.44l-400,0q-41.6,0-71.040,29.44t-29.44,71.040l0,300.16q0,32 18.56,57.6t 48,35.84l0,6.4q0,41.6 29.44,71.040t 71.040,29.44 71.040-29.44 29.44-71.040l 67.2,0q0,41.6 29.44,71.040t 71.040,29.44 71.040-29.44 29.44-71.040l0-6.4z m-133.76,6.4l0-66.56q0-13.44 10.24-23.68t 23.68-10.24 23.040,10.24 9.6,23.68l0,66.56q0,13.44-9.6,23.68t-23.040,10.24-23.68-10.24-10.24-23.68z m-266.24,0l0-66.56q0-13.44 9.6-23.68t 23.040-10.24 23.68,10.24 10.24,23.68l0,66.56q0,13.44-10.24,23.68t-23.68,10.24-23.040-10.24-9.6-23.68z m 400-400l0,200.32-467.2,0 0-200.32q0-13.44 10.24-23.68t 23.68-10.24l 400,0q 13.44,0 23.68,10.24t 10.24,23.68z m0,233.6l0,66.56q0,13.44-10.24,23.68t-23.68,10.24q0-28.16-19.84-47.36t-46.72-19.84-47.36,19.84-19.84,47.36l-133.12,0q0-28.16-19.84-47.36t-47.36-19.84-46.72,19.84-19.84,47.36q-13.44,0-23.68-10.24t-10.24-23.68l0-66.56 467.2,0z" horiz-adv-x="600.32"  />
<glyph unicode="&#xf2e7;" d="M 533.76,482.56q 29.44-10.24 48-35.84t 18.56-57.6l0-300.16q0-41.6-29.44-71.040t-71.040-29.44l-400,0q-41.6,0-71.040,29.44t-29.44,71.040l0,300.16q0,32 18.56,57.6t 48,35.84l0,6.4q0,41.6 29.44,71.040t 71.040,29.44 71.040-29.44 29.44-71.040l 67.2,0q0,41.6 29.44,71.040t 71.040,29.44 71.040-29.44 29.44-71.040l0-6.4z m-133.76,6.4l0-66.56q0-13.44 10.24-23.68t 23.68-10.24 23.040,10.24 9.6,23.68l0,66.56q0,13.44-9.6,23.68t-23.040,10.24-23.68-10.24-10.24-23.68z m-266.24,0l0-66.56q0-13.44 9.6-23.68t 23.040-10.24 23.68,10.24 10.24,23.68l0,66.56q0,13.44-10.24,23.68t-23.68,10.24-23.040-10.24-9.6-23.68z m 400-400l0,200.32-467.2,0 0-200.32q0-13.44 10.24-23.68t 23.68-10.24l 400,0q 13.44,0 23.68,10.24t 10.24,23.68z" horiz-adv-x="600.32"  />
<glyph unicode="&#xf2e8;" d="M 233.6,155.52q-55.040,0-94.72,39.040t-39.040,94.72l0,200.32q0,55.040 39.040,94.72t 94.72,39.040 94.080-39.040 39.040-94.72l0-200.32q0-55.040-39.040-94.72t-94.080-39.040z m0,400q-28.16,0-47.36-19.84t-19.84-46.72l0-200.32q0-27.52 19.84-46.72t 47.36-19.84q 27.52,0 46.72,19.84t 19.84,46.72l0,200.32q0,27.52-19.84,46.72t-46.72,19.84z m 232.96-266.24q0-87.040-56.96-152.96t-142.72-77.44l0-35.84 99.84,0q 13.44,0 23.68-10.24t 10.24-23.68-10.24-23.68-23.68-10.24l-266.24,0q-13.44,0-23.68,10.24t-10.24,23.68 10.24,23.68 23.68,10.24l 99.84,0 0,35.84q-85.76,12.16-142.72,77.44t-56.96,152.96l0,66.56q0,13.44 10.24,23.68t 23.68,10.24 23.040-10.24 9.6-23.68l0-66.56q0-69.12 49.28-117.76t 117.76-48.64 117.76,48.64 48.64,117.76l0,66.56q0,13.44 10.24,23.68t 23.68,10.24 23.040-10.24 9.6-23.68l0-66.56z" horiz-adv-x="466.56"  />
<glyph unicode="&#xf2e9;" d="M 233.6,155.52q-55.040,0-94.72,39.040t-39.040,94.72l0,200.32q0,55.040 39.040,94.72t 94.72,39.040 94.080-39.040 39.040-94.72l0-200.32q0-55.040-39.040-94.72t-94.080-39.040z m 232.96,133.76q0-87.040-56.96-152.96t-142.72-77.44l0-35.84 99.84,0q 13.44,0 23.68-10.24t 10.24-23.68-10.24-23.68-23.68-10.24l-266.24,0q-13.44,0-23.68,10.24t-10.24,23.68 10.24,23.68 23.68,10.24l 99.84,0 0,35.84q-85.76,12.16-142.72,77.44t-56.96,152.96l0,66.56q0,13.44 10.24,23.68t 23.68,10.24 23.040-10.24 9.6-23.68l0-66.56q0-69.12 49.28-117.76t 117.76-48.64 117.76,48.64 48.64,117.76l0,66.56q0,13.44 10.24,23.68t 23.68,10.24 23.040-10.24 9.6-23.68l0-66.56z" horiz-adv-x="466.56"  />
<glyph unicode="&#xf2ea;" d="M 490.24,531.84q 9.6-9.6 9.6-23.040t-9.6-23.040l-90.24-90.24 0-286.72q0-34.56-18.56-53.76t-43.52-19.2q-22.4,0-44.8,15.36l-88.96,59.52q-23.040,16-63.36,25.6l-83.84-83.84q-9.6-9.6-23.040-9.6-14.72,0-24.32,9.6t-9.6,23.68 9.6,23.68l 51.2,51.2q-27.52,11.52-44.16,36.48t-16.64,55.68l0,66.56q0,41.6 29.44,71.040t 71.040,29.44q 23.040,0 54.4,8.96t 49.92,21.76l 88.96,59.52q 22.4,15.36 44.8,15.36 37.76,0 53.76-33.92l 51.84,51.2q 9.6,9.6 23.68,9.6t 23.68-9.6z m-160.64-88.32l-63.36-41.6 0-70.4 67.2,67.2 0,43.52q0,0.64-0.64,2.56l0,1.92q-1.92-1.92-3.2-2.56z m-263.040-135.040l0-66.56q0-13.44 10.24-23.68t 23.68-10.24q 16.64,0 39.040-3.84l 94.72,94.72 0,80.64q-28.16-16-65.92-26.88t-67.84-10.88q-13.44,0-23.68-10.24t-10.24-23.68z m 110.72-113.92q 32-9.6 56.96-24.96l0,81.92z m 156.16-90.24l0,1.92q 0.64,1.92 0.64,2.56l0,243.2-67.2-66.56 0-136.96 63.36-41.6q 1.92-0.64 3.2-2.56z" horiz-adv-x="499.84"  />
<glyph unicode="&#xf2eb;" d="M 337.92,528q 24.96,0 43.52-18.56t 18.56-53.12l0-333.44q0-34.56-18.56-53.76t-43.52-19.2q-22.4,0-44.8,15.36l-88.96,59.52q-18.56,12.8-49.92,22.4t-53.76,9.6q-41.6,0-71.040,29.44t-29.44,71.040l0,66.56q0,41.6 29.44,71.040t 71.040,29.44q 23.040,0 54.4,8.96t 49.92,21.76l 88.96,59.52q 22.4,15.36 44.8,15.36z m-104.32-344.32l0,209.92q-28.16-16-65.92-26.88t-67.84-10.88q-13.44,0-23.68-10.24t-10.24-23.68l0-66.56q0-13.44 10.24-23.68t 23.68-10.24q 29.44,0 67.84-11.52t 65.92-27.52z m 99.84-61.44l0,333.44q0,0.64-0.64,2.56l0,1.92q-1.92-1.92-3.2-2.56l-63.36-41.6 0-253.44 63.36-41.6q 1.92-0.64 3.2-2.56l0,1.92q 0.64,1.92 0.64,2.56z" horiz-adv-x="400"  />
<glyph unicode="&#xf2ec;" d="M 337.92,528q 24.96,0 43.52-18.56t 18.56-53.12l0-333.44q0-34.56-18.56-53.76t-43.52-19.2q-22.4,0-44.8,15.36l-88.96,59.52q-18.56,12.8-49.92,22.4t-53.76,9.6q-41.6,0-71.040,29.44t-29.44,71.040l0,66.56q0,41.6 29.44,71.040t 71.040,29.44q 23.040,0 54.4,8.96t 49.92,21.76l 88.96,59.52q 22.4,15.36 44.8,15.36z m-237.44-305.92q 29.44,0 67.84-11.52t 65.92-27.52l0,209.92q-28.16-16-65.92-26.88t-67.84-10.88q-13.44,0-23.68-10.24t-10.24-23.68l0-66.56q0-13.44 10.24-23.68t 23.68-10.24z m 233.6-99.84l0,333.44q0,0.64-0.64,2.56l0,1.92q-1.92-1.92-3.2-2.56l-63.36-41.6 0-253.44 63.36-41.6q 1.92-0.64 3.2-2.56l0,1.92q 0.64,1.92 0.64,2.56z m 109.44,256.64q 9.6,9.6 23.68,9.6t 23.68-9.6q 37.76-37.76 37.76-90.24 0-51.84-37.76-89.6-10.24-10.24-24.32-10.24-12.8,0-23.040,10.24-9.6,9.6-9.6,23.040t 9.6,23.040q 17.92,17.92 17.92,43.52t-17.92,43.52q-9.6,9.6-9.6,23.68t 9.6,23.68z" horiz-adv-x="528"  />
</font>
</defs>
</svg>
