<?xml version="1.0" standalone="no"?>
<!DOCTYPE svg PUBLIC "-//W3C//DTD SVG 1.1//EN" "http://www.w3.org/Graphics/SVG/1.1/DTD/svg11.dtd" >
<svg xmlns="http://www.w3.org/2000/svg">
<metadata>
This is a custom SVG font generated by IcoMoon.
<iconset id="v112" name="v112" grid="16"></iconset>
</metadata>
<defs>
<font id="v112" horiz-adv-x="512" >
<font-face units-per-em="512" ascent="480" descent="-32" />
<missing-glyph horiz-adv-x="512" />
<glyph class="hidden" unicode="&#xf000;" d="M0,480L 512 -32L0 -32 z" horiz-adv-x="0" />
<glyph unicode="&#x30;" d="M 271.5,429.5l0-359 l-246.5,0 l0,359 l 246.5,0 zM 206.75,368l-112.75,0 l0-236 l 112.75,0 l0,236 z" horiz-adv-x="296.5"  />
<glyph unicode="&#x31;" d="M 94,70.5l-69,0 l0,359 l 69,0 l0-359 z" horiz-adv-x="119"  />
<glyph unicode="&#x32;" d="M 271.5,132l0-61.5 l-246.5,0 l0,208.75 l 181.75,0 l0,88.75 l-181.75,0 l0,61.5 l 246.5,0 l0-208.75 l-177.5,0 l0-88.75 l 177.5,0 z" horiz-adv-x="296.5"  />
<glyph unicode="&#x33;" d="M 25,368l0,61.5 l 246.5,0 l0-359 l-246.5,0 l0,61.5 l 181.75,0 l0,88.75 l-181.75,0 l0,58.5 l 181.75,0 l0,88.75 l-181.75,0 z" horiz-adv-x="296.5"  />
<glyph unicode="&#x34;" d="M 25,220.75l0,208.75 l 69,0 l0-150.25 l 112.75,0 l0,150.25 l 64.75,0 l0-359 l-64.75,0 l0,150.25 l-181.75,0 z" horiz-adv-x="296.5"  />
<glyph unicode="&#x35;" d="M 25,220.75l0,208.75 l 246.5,0 l0-61.5 l-177.5,0 l0-88.75 l 177.5,0 l0-208.75 l-246.5,0 l0,61.5 l 181.75,0 l0,88.75 l-181.75,0 z" horiz-adv-x="296.5"  />
<glyph unicode="&#x36;" d="M 94,368l0-88.75 l 177.5,0 l0-208.75 l-246.5,0 l0,359 l 246.5,0 l0-61.5 l-177.5,0 zM 94,220.75l0-88.75 l 112.75,0 l0,88.75 l-112.75,0 z" horiz-adv-x="296.5"  />
<glyph unicode="&#x37;" d="M 206.75,368l-181.75,0 l0,61.5 l 246.5,0 l0-359 l-64.75,0 l0,297.5 z" horiz-adv-x="296.5"  />
<glyph unicode="&#x38;" d="M 271.5,429.5l0-359 l-246.5,0 l0,359 l 246.5,0 zM 94,220.75l0-88.75 l 112.75,0 l0,88.75 l-112.75,0 zM 94,368l0-88.75 l 112.75,0 l0,88.75 l-112.75,0 z" horiz-adv-x="296.5"  />
<glyph unicode="&#x39;" d="M 206.75,132l0,88.75 l-181.75,0 l0,208.75 l 246.5,0 l0-359 l-246.5,0 l0,61.5 l 181.75,0 zM 94,368l0-88.75 l 112.75,0 l0,88.75 l-112.75,0 z" horiz-adv-x="296.5"  />
<glyph unicode="&#x21;" d="M 29.184,294.656c 8.874,16.726 17.237,31.316 25.087,43.774s 14.848,22.954 20.992,31.488s 12.63,15.616 19.456,21.248s 12.544,9.984 17.152,13.056s 10.41,5.462 17.408,7.168s 12.544,2.73 16.64,3.072s 10.41,0.683 18.944,1.025l 1.536,0 l 12.032,0 c 2.56,0 5.376-1.024 8.448-3.072s 5.206-4.182 6.4-6.4s 2.73-6.656 4.608-13.312
s 3.414-13.312 4.608-19.968l 5.376-30.976c 1.706-9.558 0.768-21.846 -2.816-36.864s-8.448-26.965 -14.592-35.839c-5.462-8.192 -8.192-13.824 -8.192-16.896c0-6.826 -8.278-18.517 -24.832-35.071s-34.73-31.744 -54.528-45.568s-33.792-20.736 -41.984-20.736c-6.826,0 -15.701,3.498 -26.623,10.496
s-18.432,13.91 -22.528,20.736c-6.486,11.264 -8.192,27.222 -5.12,47.872s 10.582,42.24 22.528,64.768zM 163.84,384.254c0,4.096 -8.705,4.439 -26.113,1.025c-19.456-3.754 -50.006-38.4 -91.648-103.936c-9.558-15.36 -14.934-32.598 -16.128-51.712s 2.304-31.914 10.496-38.4c 6.486-5.462 13.312-8.192 20.48-8.192
s 13.312,1.45 18.432,4.352s 9.984,5.888 14.592,8.96s 7.594,4.608 8.96,4.608c 2.048,0 8.534,5.206 19.456,15.616s 23.125,24.661 36.607,42.751s 22.784,34.986 27.904,50.688c 2.73,8.874 4.096,15.104 4.096,18.688s-1.536,8.106 -4.608,13.568c-2.73,4.778 -5.717,7.936 -8.959,9.472s-8.277,2.304 -15.103,2.304
c-10.922,0 -17.322,1.792 -19.2,5.376s 1.28,8.106 9.472,13.568c 7.51,4.778 11.264,8.533 11.264,11.263z" horiz-adv-x="213.504"  />
<glyph unicode="&#x22;" d="M 117.248,388.352c 2.73,0 12.289,6.826 28.673,20.479s 26.282,20.31 29.696,19.968c 5.462-1.024 8.192-5.546 8.192-13.568s-2.56-15.616 -7.68-22.784c-6.486-8.534 -9.728-13.824 -9.728-15.872c0-1.024 -2.56-5.888 -7.68-14.592l-23.040-39.168c-10.24-17.408 -19.798-34.474 -28.672-51.2l-16.64-29.952
c-4.95-8.704 -8.534-14.762 -10.752-18.176l-5.632-8.96c-1.536-2.56 -2.474-4.352 -2.816-5.376s-0.512-2.39 -0.512-4.096c0-4.438 -1.706-8.363 -5.12-11.777c-6.826-6.826 -4.096-11.434 8.192-13.824c 4.096-0.682 9.216-1.024 15.36-1.024c 18.432,0 26.794-2.73 25.088-8.192
c-2.048-6.826 -16.214-13.994 -42.496-21.504c-12.63-3.754 -21.334-7.168 -26.112-10.24s-9.898-8.704 -15.36-16.896c-10.582-15.702 -18.091-21.504 -22.529-17.408c-2.048,1.706 -2.816,5.802 -2.304,12.288s 0.938,12.886 1.28,19.2s 0.598,11.178 0.768,14.592l 0.512,10.24c 0.17,3.414 0.512,5.888 1.024,7.424l 1.536,4.608
c 0.512,1.536 1.45,2.474 2.816,2.816l 4.096,1.024c 1.366,0.342 3.584,0.683 6.656,1.025c 5.462,0.342 9.814,1.707 13.056,4.097s 5.632,5.035 7.168,7.937s 3.926,7.936 7.168,15.104s 6.57,13.654 9.984,19.456c 5.802,10.582 14.848,28.672 27.136,54.272s 18.432,39.594 18.432,41.984c0,1.706 2.134,5.632 6.4,11.776
s 8.106,12.032 11.52,17.664s 4.608,8.96 3.584,9.984c-1.366,1.366 -11.094-1.962 -29.184-9.984s-29.184-10.667 -33.28-7.937c-5.802,3.754 -7.936,8.448 -6.4,14.080s 6.058,9.642 13.568,12.032c 6.826,2.39 15.104,6.4 24.832,12.032s 16.128,8.448 19.2,8.448z" horiz-adv-x="188.928"  />
<glyph unicode="&#x23;" d="M 49.664,188.672c0,1.706 6.825,9.986 20.479,24.834s 20.48,23.466 20.48,25.856c0,2.73 7.168,11.946 21.504,27.648l 35.328,39.424c 8.874,9.898 17.664,22.101 26.368,36.607s 13.056,24.32 13.056,29.44c0,6.144 -2.986,9.386 -8.96,9.728s-13.398-2.389 -22.272-8.191c-11.264-7.168 -21.162-12.8 -29.696-16.896
c-9.216-5.12 -18.944-12.886 -29.184-23.296s-15.36-18.005 -15.36-22.783c0-5.462 -2.39-10.24 -7.168-14.336c-3.072-2.39 -5.462-3.414 -7.168-3.072s-3.925,2.219 -6.655,5.633c-4.096,5.802 -6.144,10.41 -6.144,13.824s 4.266,11.264 12.8,23.552s 15.36,20.48 20.48,24.576l 20.992,16.384c 6.486,5.462 15.19,11.264 26.112,17.408
s 19.968,10.41 27.136,12.8c 7.51,2.73 17.152,3.157 28.928,1.279s 19.2-5.035 22.272-9.473c 3.754-5.462 5.546-12.288 5.376-20.48s-2.133-15.018 -5.887-20.48c-4.778-5.802 -7.168-10.922 -7.168-15.36c0-3.414 -7.68-14.934 -23.040-34.56s-28.842-35.072 -40.448-46.336
c-7.85-7.85 -19.882-22.272 -36.096-43.264s-24.32-32.854 -24.32-35.584c0-1.024 0.938-2.134 2.816-3.328s 4.182-2.474 6.912-3.84s 5.802-3.67 9.216-6.912s 6.315-7.082 8.705-11.52c 3.414-6.486 6.742-10.411 9.984-11.777s 9.984-2.048 20.224-2.048
c 14.678,0 22.102-2.304 22.272-6.912s-6.912-10.496 -21.248-17.664c-10.24-5.462 -16.982-8.363 -20.224-8.705s-7.765,1.365 -13.567,5.119c-3.072,2.048 -6.23,5.034 -9.472,8.96s-5.376,7.424 -6.4,10.496c-2.048,5.12 -4.182,8.192 -6.4,9.216s-6.4,1.024 -12.544,0
c-7.51-1.366 -15.019-4.608 -22.529-9.728s-15.531-8.534 -24.065-10.24c-13.654-2.048 -20.31,0 -19.968,6.144c 0.342,6.486 11.264,20.992 32.768,43.52c 7.85,8.192 11.776,12.97 11.776,14.336z" horiz-adv-x="223.744"  />
<glyph unicode="&#x24;" d="M 118.272,396.544c 20.822,8.874 39.085,12.119 54.786,9.73s 24.576-9.899 26.624-22.529c 1.366-11.264 0.683-20.65 -2.047-28.16s-9.386-17.408 -19.968-29.696l-19.456-22.528l0-38.912 c0-15.36 -0.682-26.966 -2.048-34.816s-3.926-15.53 -7.68-23.040c-6.144-12.63 -9.216-22.699 -9.216-30.209
c0-8.192 -5.12-15.53 -15.36-22.016s-24.064-11.094 -41.472-13.824c-17.75-3.072 -31.915-3.328 -42.497-0.768s-19.115,8.106 -25.601,16.64l-9.216,11.776l 10.24,16.384c 7.168,11.606 12.458,15.872 15.872,12.8c 2.048-1.706 2.56-5.973 1.536-12.799c-2.048-9.898 2.048-16.554 12.288-19.968s 23.382-2.39 39.424,3.072
c 8.192,2.39 14.592,4.779 19.2,7.169s 8.278,5.718 11.008,9.984s 4.608,7.936 5.632,11.008s 2.474,8.96 4.352,17.664s 3.84,16.298 5.888,22.784c 3.754,12.288 4.181,20.566 1.279,24.832s-8.619,4.181 -17.153-0.257c-6.826-3.754 -14.677-5.034 -23.551-3.84
s-14.848,4.352 -17.92,9.472c-2.048,3.414 -2.73,6.23 -2.048,8.448s 3.242,5.205 7.68,8.959c 7.168,5.802 14.848,8.704 23.040,8.704c 9.216,0 23.040,10.154 41.472,30.464s 27.648,35.414 27.648,45.312c0,3.414 -1.45,5.376 -4.352,5.888s-10.155,0.086 -21.761-1.28c-14.678-1.706 -26.198-4.864 -34.56-9.472
s-18.688-13.398 -30.976-26.368c-13.994-15.018 -23.722-19.456 -29.184-13.312c-1.706,2.39 -2.56,5.974 -2.56,10.752c0,9.558 6.23,19.798 18.688,30.72s 29.781,21.333 51.967,31.231z" horiz-adv-x="205.824"  />
<glyph unicode="&#x25;" d="M 122.368,228.096c0-3.414 -3.074-9.729 -9.218-18.945s-9.216-16.896 -9.216-23.040c0-7.51 -2.902-14.848 -8.704-22.016c-4.438-5.462 -7.424-8.278 -8.96-8.448s-4.694,1.963 -9.472,6.401c-2.73,2.39 -4.693,4.438 -5.887,6.144s-2.133,3.498 -2.815,5.376
s-0.426,4.011 0.768,6.401s 2.56,4.95 4.096,7.68s 4.010,6.485 7.424,11.263l 10.496,15.36l 14.080,22.016c 5.802,9.216 11.434,18.774 16.896,28.672c 23.894,42.326 50.347,80.896 79.361,115.712c 13.312,16.042 21.846,22.869 25.6,20.479c 1.366-1.024 2.56-2.902 3.584-5.632
c 1.366-3.754 -2.816-12.117 -12.544-25.087l-38.4-49.92c-15.872-20.31 -27.904-37.974 -36.096-52.992c-4.096-7.168 -7.766-13.312 -11.008-18.432s-5.461-8.448 -6.655-9.984s-2.048-3.158 -2.56-4.864s-0.768-3.754 -0.768-6.144zM 75.262,380.671c 11.264,14.678 19.969,21.505 26.113,20.481
c 11.946-1.706 12.97-10.069 3.072-25.087c-5.12-7.168 -12.8-16.726 -23.040-28.672c-15.36-17.408 -27.99-34.39 -37.888-50.944s-13.482-27.050 -10.752-31.488c 1.366-1.366 4.352-1.451 8.96-0.257l 17.152,4.352c 6.826,1.706 13.397,3.157 19.711,4.351
s 11.69,0.853 16.128-1.025s 6.656-5.718 6.656-11.52c0-6.826 -5.632-12.458 -16.896-16.896s-26.794-6.998 -46.592-7.68c-12.97-0.342 -20.992,0 -24.064,1.024s-5.632,4.438 -7.68,10.24c-2.73,7.85 -0.256,21.504 7.424,40.96s 17.322,36.522 28.928,51.2z" horiz-adv-x="235.52"  />
<glyph unicode="&#x26;" d="M 172.032,286.976c0-11.264 -1.537-20.649 -4.609-28.159s-6.144-13.483 -9.216-17.921s-4.608-8.534 -4.608-12.288c0-2.73 -0.854-6.144 -2.56-10.24l-7.168-16.384c-3.072-6.826 -5.802-13.482 -8.192-19.968c-3.072-10.24 -8.022-19.626 -14.848-28.16c-5.12-5.802 -10.154-9.386 -15.104-10.752
s-17.664-2.219 -38.144-2.561c-21.162-0.682 -34.048-0.426 -38.656,0.768s-9.642,5.205 -15.104,12.031c-12.63,15.36 -10.923,31.062 5.119,47.104c 7.51,7.85 12.715,10.496 15.617,7.936s 1.792-8.96 -3.328-19.2c-3.754-7.85 -5.546-12.885 -5.376-15.103
s 2.474-4.864 6.912-7.936c 3.754-3.072 9.813-4.778 18.175-5.12s 16.896,0.341 25.6,2.047s 16.81,4.864 24.32,9.472s 12.288,10.154 14.336,16.64c 0.682,3.414 4.010,12.715 9.984,27.905s 10.923,29.184 14.849,41.984s 5.035,21.418 3.329,25.856
c-1.366,2.73 -3.414,3.925 -6.144,3.583s-8.533-2.731 -17.407-7.169c-13.654-7.168 -24.576-13.994 -32.768-20.48c-8.534-6.486 -16.043-9.216 -22.529-8.192s-9.728,4.778 -9.728,11.264s 3.242,14.166 9.728,23.040c 7.85,9.216 11.776,14.678 11.776,16.384c0,2.39 4.778,10.326 14.336,23.808
s 16.043,21.76 19.457,24.832c 4.778,3.754 7.168,7.424 7.168,11.008s 4.95,11.862 14.848,24.832c 7.51,9.898 13.739,15.786 18.689,17.664s 10.326,0.256 16.128-4.864c 4.778-4.438 14.848-5.462 30.208-3.072c 21.162,3.414 40.874,5.291 59.136,5.633s 27.904-1.024 28.928-4.096
c 1.366-4.096 0-6.656 -4.096-7.68c-6.486-2.048 -24.406-6.144 -53.76-12.288s-47.786-9.898 -55.296-11.264c-9.558-1.366 -20.139-6.486 -31.745-15.36s-19.798-18.261 -24.576-28.159c-3.754-7.51 -4.949-11.606 -3.583-12.288s 8.192,0.342 20.48,3.072c 11.946,2.73 21.504,2.73 28.672,0
c 4.778-2.048 7.765-4.608 8.959-7.68s 1.792-9.898 1.792-20.48z" horiz-adv-x="290.816"  />
<glyph unicode="&#x27;" d="M 110.080,339.2c 7.168,10.24 24.319,30.978 51.455,62.21s 42.752,46.848 46.848,46.848s 8.022-2.39 11.776-7.168c 3.072-3.754 3.414-7.509 1.024-11.263c-2.73-4.778 -18.261-21.504 -46.591-50.176c-46.762-48.128 -69.973-75.606 -69.631-82.432c0-1.366 0.682-2.219 2.048-2.561
c 4.778-2.048 12.8-1.194 24.064,2.56c 6.826,2.39 12.202,3.414 16.128,3.072s 9.046-2.048 15.36-5.12s 10.752-6.4 13.312-9.984s 4.694-9.642 6.4-18.176c 5.802-26.624 -3.414-52.054 -27.648-76.288c-10.922-10.582 -27.050-20.907 -48.384-30.977s-39.51-15.787 -54.528-17.153
c-10.24-1.024 -17.494-1.024 -21.76,0s-8.789,3.754 -13.567,8.192c-7.51,7.168 -11.264,12.458 -11.264,15.872c0,4.778 4.694,16.981 14.080,36.607s 15.957,30.976 19.711,34.048c 4.778,4.096 7.168,7.68 7.168,10.752c0,2.048 3.584,8.022 10.752,17.92l 27.904,37.888c 11.434,15.36 19.882,27.136 25.344,35.328zM 158.207,269.57
c-2.048,3.414 -10.411,4.861 -25.089,4.349s-26.454-2.646 -35.328-6.4c-6.144-2.73 -10.496-5.461 -13.056-8.191s-5.546-6.741 -8.96-12.031s-8.022-10.837 -13.824-16.639c-9.558-8.874 -17.152-19.797 -22.784-32.767s-6.57-21.333 -2.816-25.087
c 3.754-4.096 15.274-3.926 34.56,0.512s 33.536,10.070 42.752,16.896c 9.558,7.168 15.531,10.752 17.921,10.752s 6.742,3.926 13.056,11.776s 11.434,16.81 15.36,26.88s 3.328,20.054 -1.792,29.952z" horiz-adv-x="228.352"  />
<glyph unicode="&#x28;" d="M 205.824,418.048c 6.486,6.826 12.29,10.24 17.41,10.24s 8.192-3.414 9.216-10.24c 0.682-4.438 -6.912-17.238 -22.784-38.4l-48.128-61.952c-16.214-20.138 -24.32-31.402 -24.32-33.792c0-2.73 -2.218-5.973 -6.656-9.727c-6.486-5.462 -7.168-9.046 -2.048-10.752c 3.072-1.024 7.338-1.024 12.8,0
c 7.51,1.706 12.544,1.024 15.104-2.048s 2.134-7.85 -1.28-14.336c-1.706-3.754 -4.522-6.229 -8.448-7.423s-10.667-1.792 -20.225-1.792c-11.264,0 -18.774-0.938 -22.528-2.816s-9.216-7.424 -16.384-16.64c-6.144-7.85 -9.984-14.421 -11.52-19.711s-1.706-9.045 -0.512-11.263
s 1.365-5.461 0.511-9.727s-3.67-9.472 -8.448-15.616c-11.946-15.702 -23.552-27.904 -34.816-36.608s-19.114-11.69 -23.552-8.96c-4.096,2.73 -4.95,7.253 -2.56,13.567s 8.704,15.957 18.944,28.927c 10.582,13.654 16.896,24.235 18.944,31.745s 0.342,14.848 -5.12,22.016
c-4.438,5.462 -6.656,11.606 -6.656,18.432s 2.048,12.117 6.144,15.871c 3.414,2.73 8.448,4.437 15.104,5.119s 14.25,2.389 22.784,5.119s 16.896,8.021 25.088,15.871c 11.264,11.264 16.896,18.688 16.896,22.272s 2.218,7.082 6.656,10.496c 4.438,3.754 12.118,14.933 23.040,33.535s 15.701,28.586 14.335,29.952
c-1.706,1.706 -14.592,0.512 -38.656-3.584s-40.362-8.022 -48.896-11.776c-7.168-3.072 -14.25-8.448 -21.248-16.128s-12.63-13.568 -16.896-17.664s-8.618-4.778 -13.056-2.048c-15.018,9.558 -12.8,21.675 6.656,36.353c 6.826,5.12 14.762,11.69 23.808,19.712l 21.76,19.2
c 5.462,4.778 11.179,9.045 17.153,12.799s 11.094,5.29 15.36,4.608s 7.765-3.754 10.495-9.216c 2.048-4.096 4.694-6.486 7.936-7.168s 10.154-0.341 20.736,1.025c 12.97,1.706 22.101,4.010 27.391,6.912s 9.472,4.352 12.544,4.352c 4.778,0 10.752,3.754 17.92,11.264z" horiz-adv-x="237.568"  />
<glyph unicode="&#x29;" d="M 173.568,394.496c 13.312,4.778 21.165,7.342 23.554,7.683c 5.12,0.342 10.070-1.962 14.848-6.912s 7.85-10.667 9.216-17.153c 1.706-9.558 -1.11-23.979 -8.448-43.265s-16.298-35.414 -26.88-48.384c-6.826-8.534 -10.837-15.958 -12.031-22.272
s-1.28-22.784 -0.256-49.408c 0.342-12.63 -0.426-21.078 -2.304-25.344s-8.619-12.032 -20.225-23.296c-18.432-18.774 -33.366-30.891 -44.8-36.353s-26.88-8.363 -46.336-8.705c-16.042,0 -26.282,0.682 -30.72,2.048s-9.387,5.12 -14.849,11.264
c-7.51,8.874 -10.582,15.701 -9.216,20.479c 6.826,20.48 14.933,37.034 24.319,49.664s 23.808,26.112 43.264,40.448c 7.168,5.462 11.946,9.814 14.336,13.056s 2.816,5.973 1.28,8.191s-5.376,4.352 -11.52,6.4c-5.462,2.048 -9.046,4.352 -10.752,6.912s-2.56,6.4 -2.56,11.52c0,8.534 2.56,16.726 7.68,24.576
c 6.826,9.898 22.869,24.576 48.127,44.032s 43.349,31.062 54.271,34.816zM 198.146,365.827c-1.706,3.072 -8.191,4.609 -19.455,4.609c-7.51,0 -14.251-1.878 -20.225-5.632s-15.958-12.288 -29.952-25.6c-22.186-20.48 -33.28-32.598 -33.28-36.352c0-1.366 2.39-3.67 7.168-6.912
s 10.41-6.4 16.896-9.472l 24.064-11.264l 20.48,19.968c 10.24,9.898 19.286,22.869 27.136,38.911s 10.24,26.624 7.168,31.744zM 137.219,234.756c-8.534,8.192 -13.654,12.288 -15.36,12.288s-10.752-5.462 -27.136-16.384c-25.6-17.408 -43.52-33.194 -53.76-47.36s-11.094-24.32 -2.56-30.464c 10.922-8.192 26.282-9.046 46.080-2.56s 36.182,17.75 49.152,33.792
c 9.898,12.288 15.104,21.76 15.616,28.416s-3.498,14.080 -12.032,22.272z" horiz-adv-x="226.816"  />
<glyph unicode="&#x2a;" d="M 159.232,427.264c 10.582,4.778 21.166,6.654 31.747,5.63c 7.85-0.342 12.714-1.622 14.592-3.84s 3.84-9.13 5.888-20.736c 3.072-15.702 7.51-26.624 13.312-32.768c 3.754-4.096 5.717-8.874 5.887-14.336s-1.366-11.35 -4.608-17.664s-6.826-12.373 -10.752-18.175l-13.824-20.992
c-5.29-8.192 -9.472-15.53 -12.544-22.016l-13.056-25.6l-26.624-52.48c-9.046-17.92 -13.91-27.392 -14.592-28.416c-10.922-18.090 -19.37-30.72 -25.344-37.888s-11.691-11.434 -17.153-12.8c-8.192-2.048 -17.834-1.962 -28.928,0.256s-19.371,5.888 -24.833,11.008
c-6.486,5.802 -11.947,9.386 -16.385,10.752c-5.462,2.048 -10.070,7.082 -13.824,15.104s-4.266,13.568 -1.536,16.64c 2.73,2.39 7.765,1.451 15.103-2.815s 15.018-9.216 23.040-14.848s 17.152-8.96 27.392-9.984s 19.626,2.902 28.16,11.776c 6.486,6.826 11.435,14.25 14.849,22.272
s 6.656,13.227 9.728,15.617c 4.438,3.754 6.656,8.618 6.656,14.592s 3.926,15.787 11.776,29.441c 7.85,12.97 10.496,21.418 7.936,25.344s-9.898,3.072 -22.016-2.56s-25.6-8.534 -40.448-8.704s-24.32,2.475 -28.416,7.937c-8.534,11.946 -8.363,28.501 0.511,49.663s 25.6,44.373 50.176,69.631
c 8.874,9.216 18.005,17.834 27.391,25.856s 16.298,13.056 20.736,15.104zM 190.979,368.382c0,16.042 -0.512,25.687 -1.536,28.929s-3.926,4.864 -8.704,4.864c-8.192-0.342 -15.786-2.475 -22.784-6.401s-16.811-11.52 -29.441-22.784c-14.336-12.97 -26.71-27.221 -37.12-42.751
s-15.104-26.88 -14.080-34.048c 0.682-4.438 2.048-7.254 4.096-8.448s 6.144-1.45 12.288-0.768c 11.264,0.682 25.088,4.437 41.472,11.263s 29.354,14.165 38.912,22.015c 8.534,6.826 13.483,12.288 14.849,16.384s 2.048,14.678 2.048,31.744z" horiz-adv-x="235.52"  />
<glyph unicode="&#x2b;" d="M 105.25,70.5c-53.5,0 -80.25,26.5 -80.25,79.5l0,160.5 c0,53 26.583,79.5 79.75,79.5l 49,0 l0-79.5 l-49,0.25l-0.25-160.5l 49.25,0 l0-79.75 l-48.5,0 zM 305,149.5l0,161.5 c0,53 -26.583,79.5 -79.75,79.5l-50.5,0 l0-80 l 50.5,0 l0-160.5 l-50.5,0 l0-79.75 l 50.5,0 c 53.167,0 79.75,26.417 79.75,79.25z" horiz-adv-x="325.25"  />
<glyph unicode="&#x2c;" d="M 50,70.25l0,279.25 l 80,43.5l0-322.75 l-80,0 z" horiz-adv-x="149.5"  />
<glyph unicode="&#x2d;" d="M 225.5,191l-50.75,0 l 0.25,79.75l 50.25,0 l-0.25,40l-49.75-0.25l0,79.5 l 49.75,0 c 53.167,0 79.75-26.5 79.75-79.5l 0.5-40.75c0-53.167 -26.583-79.417 -79.75-78.75zM 304.75,70.25l-129.5,0 l0,80 l 129.5,0 l0-80 zM 25,70.5l0,119.5 c0,54 26.583,80.917 79.75,80.75l 49.75,0 l-0.25-79.75l-48.5,0 l-0.25-40.75l 49,0 l0-79.75 l-129.5,0 zM 44.5,310.5l0,80.25 l 110-0.75
l0-79.5 l-110,0 z" horiz-adv-x="325.25"  />
<glyph unicode="&#x2e;" d="M 174.25,70.5l0,79.75 l 51,0 l0,40.75 l-51.5,0 l 0.25,79.75l 51,0 l-0.25,40l-50.5-0.25l0,79.5 l 50.5,0 c 53.167,0 79.75-26.5 79.75-79.5c-0.167-53.167 -13.75-79.917 -40.75-80.25c 27,0.5 40.583-26.25 40.75-80.25c0-53 -26.667-79.5 -80-79.5l-50.25,0 zM 105,70.25l 50.5,0 l0,79.75 l-50.5,0 l0,21.25 l-80-0.25l 0.25-21.5
c0-52.833 26.583-79.25 79.75-79.25zM 25.25,311l-0.25-20l 80-0.25l0,19.75 l 50.5,0 l0,80 l-50.5,0 c-53.167,0 -79.75-26.5 -79.75-79.5z" horiz-adv-x="325.25"  />
<glyph unicode="&#x2f;" d="M 224.75,70.25l0,319.5 l 80,0.5l0-320 l-80,0 zM 205.5,150.5l-180.25,0 l0,81 l 180.25,159.25l0-240.25 z" horiz-adv-x="325.25"  />
<glyph unicode="&#x3a;" d="M 305.25,192.25l-0.5-41c0-53.167 -26.583-79.75 -79.75-79.75l-49.75,0 l0,79.75 l 49.75-0.25l 0.25,40.25l-50.25-0.25l-0.25,79.5l 50.75,0 c 53.167,0.667 79.75-25.416 79.75-78.25zM 304.75,311.5l-129.5,0 l0,80 l 129.5,0 l0-80 zM 154.5,391.5l0-80 l-49,0 l 0.25-41l 48.5,0 l 0.25-79.5l-129.5-0.25l0,200.75 l 129.5,0 zM 154.5,151.25l0-79.75 l-109-0.5
l-0.25,80.25l 109.25,0 z" horiz-adv-x="325.25"  />
<glyph unicode="&#x3b;" d="M 154.5,391.5l0-80 l-50.25,0 l 0.25-40.75l 50.5,0 l-0.5-79.5l-50,0 l0-40 l 50,0 l0-79.5 l-50,0 c-53,0 -79.5,26.5 -79.5,79.5l0,160.75 c0,53 26.667,79.5 80,79.5l 49.5,0 zM 305.25,192.25l-0.5-41c0-53 -26.583-79.5 -79.75-79.5l-49.75,0 l0,79.5 l 49.75,0 l 0.25,40l-50.25,0 l-0.25,79.5l 50.75,0 c 53.167,0.667 79.75-25.5 79.75-78.5zM 285.5,311.5
l-110.25,0 l0,80.25 l 110.25,0 l0-80.25 z" horiz-adv-x="325.25"  />
<glyph unicode="&#x3c;" d="M 192,390.25l-27.75-79.5l-139.25,0 l 0.25,79.5l 166.75,0 zM 304.5,390.25l-115.25-320l-80,0 l 115.25,320l 80,0 z" horiz-adv-x="325.25"  />
<glyph unicode="&#x3d;" d="M 175.5,70.5l0,79.75 l 50,0 l0,40.75 l-50.75,0 l 0.5,79.75l 50,0 l0,40 l-49.75-0.25l0,79.5 l 49.75,0 c 53.167,0 79.75-26.5 79.75-79.5c-0.333-53 -14-79.75 -41-80.25c 27,0.5 40.667-26.25 41-80.25c0-53 -26.75-79.5 -80.25-79.5l-49.25,0 zM 105.25,70.5c-53.5,0 -80.25,26.5 -80.25,79.5c 0.333,54 13.916,80.75 40.75,80.25
c-26.833,0.5 -40.416,27.25 -40.75,80.25c0,53 26.583,79.5 79.75,79.5l 49.75,0 l0-79.5 l-49.75,0.25l-0.25-40l 50.25,0 l 0.25-79.75l-50.5,0 l0-40.75 l 50,0 l0-79.75 l-49.25,0 z" horiz-adv-x="325.25"  />
<glyph unicode="&#x3e;" d="M 175.5,70.5l0,79.75 l 50.25,0 l-0.25,40.75l-50.5,0 l 0.5,79.75l 50,0 l0,40 l-50-0.25l0,79.5 l 50,0 c 53.167,0 79.75-26.5 79.75-79.5l0-160.5 c0-53 -26.75-79.5 -80.25-79.5l-49.5,0 zM 25,269.75l 0.25,40.75c0,53 26.583,79.5 79.75,79.5l 49.75,0 l0-79.5 l-49.75,0.25l-0.25-40l 50.25,0 l 0.25-79.75l-50.75,0 c-53-0.667 -79.5,25.583 -79.5,78.75zM 45.25,150.25l 109.5,0 
l0-80 l-109.5,0 l0,80 z" horiz-adv-x="325.25"  />
<glyph unicode="&#x3f;" d="M 138.752,100.608c-7.168-9.216 -15.274-16.298 -24.319-21.248s-18.176-7.936 -27.392-8.96l-2.816,0 l-2.816,0 c-10.582,0 -20.736,2.56 -30.464,7.68s-18.518,12.63 -26.368,22.528c-7.51,9.898 -13.227,21.077 -17.153,33.535s-5.888,25.002 -5.888,37.632c0,12.97 1.962,25.514 5.888,37.632
s 9.643,22.955 17.153,32.513c 7.168,9.558 15.702,17.067 25.6,22.529s 20.48,8.192 31.744,8.192c 10.922,0 21.333-2.73 31.231-8.192s 18.432-12.971 25.6-22.529c 7.85-9.558 13.653-20.48 17.407-32.768s 5.632-24.918 5.632-37.888c0-12.63 -1.878-25.088 -5.632-37.376s-9.557-23.382 -17.407-33.28l0,0 z
M 127.489,109.824c 6.826,8.534 11.861,18.090 15.103,28.672s 4.864,21.504 4.864,32.768s-1.622,22.272 -4.864,33.024s-8.277,20.394 -15.103,28.928c-5.802,7.85 -12.629,13.909 -20.479,18.175s-16.213,6.4 -25.087,6.4c-5.12,0 -9.984-2.134 -14.592-6.4s-8.79-9.984 -12.544-17.152
c-4.096-7.85 -7.254-17.152 -9.472-27.904s-3.328-22.442 -3.328-35.072c0-12.288 1.11-23.808 3.328-34.56s 5.376-20.054 9.472-27.904c 3.754-7.51 7.936-13.312 12.544-17.408s 9.472-6.144 14.592-6.144c 8.874,0 17.237,2.218 25.087,6.656s 14.677,10.411 20.479,17.921l0,0 zM 40.449,104.703
c-4.096,8.534 -7.338,18.005 -9.727,28.415s-3.755,20.906 -4.097,31.488l0,3.584 l0,3.072 c0,11.946 1.194,23.722 3.584,35.328s 5.803,22.187 10.241,31.745c-7.51-8.192 -13.227-17.75 -17.153-28.672s-6.23-22.186 -6.912-33.792l0-2.304 l0-2.304 c0-12.288 2.048-24.234 6.144-35.84s 10.070-21.846 17.92-30.72l0,0 
z" horiz-adv-x="176.64"  />
<glyph unicode="&#x40;" d="M 109.568,70.4l-109.568,0 l0,14.848 l 36.864,0 l0,172.544 l-24.576,0 l0,14.848 l 62.464,0 l0-187.392 l 34.816,0 l0-14.848 l0,0 zM 59.904,85.248l0,172.544 l-8.192,0 l0-172.544 l 8.192,0 l0,0 z" horiz-adv-x="120.832"  />
<glyph unicode="&#x41;" d="M 114.176,70.4l-112.128,0.003l 19.712,31.744l 19.712,31.744l 20.224,31.232l 19.712,31.744c 2.39,3.754 4.352,8.021 5.888,12.799s 2.304,9.557 2.304,14.335c0,4.438 -0.768,8.704 -2.304,12.8s-3.84,7.85 -6.912,11.264c-2.048,2.39 -4.182,4.182 -6.4,5.376s-4.522,2.133 -6.912,2.815
c-1.024,0.342 -2.134,0.598 -3.328,0.768s-2.304,0.256 -3.328,0.256l-2.304,0 c-0.854,0 -1.792-0.17 -2.816-0.512c-4.096-0.682 -8.106-2.304 -12.032-4.864s-7.424-5.546 -10.496-8.96c-4.096-4.778 -7.424-10.41 -9.984-16.896s-3.84-13.483 -3.84-20.993l-14.848,0.512l0,1.024 l0,0.512 
c 0.682,15.36 5.717,29.44 15.103,42.24s 22.101,20.394 38.143,22.784c 1.366,0.342 2.646,0.512 3.84,0.512l 3.84,0 c 7.85,0 15.36-1.45 22.528-4.352s 13.482-7.254 18.944-13.056s 9.472-12.544 12.032-20.224s 3.84-15.616 3.84-23.808l0-2.816 l0-2.816 c-0.682-6.826 -2.133-13.482 -4.351-19.968
s-5.205-12.459 -8.959-17.921l 0.512,0.512l-52.736-82.944l 57.344,0 l0-14.848 l0,0 zM 102.912,234.243c 0.682-2.048 1.023-4.097 1.023-6.145l0-6.144 c0-5.802 -0.854-11.605 -2.56-17.407s-4.266-11.093 -7.68-15.871l0,0.512 l-65.024-103.936l 10.752,0 l 14.336,22.528l 14.848,23.040l 14.336,22.528l 14.336,22.528
c 3.414,5.462 6.059,11.264 7.937,17.408s 2.816,12.458 2.816,18.944c0,1.706 -0.086,3.498 -0.256,5.376s-0.426,3.84 -0.768,5.888c-0.682,1.706 -1.28,3.498 -1.792,5.376s-1.28,3.67 -2.304,5.376l0,0 z" horiz-adv-x="132.608"  />
<glyph unicode="&#x42;" d="M 129.024,136.448c0-9.216 -1.878-17.836 -5.633-25.857s-8.704-14.934 -14.848-20.736c-7.168-6.486 -15.104-11.35 -23.808-14.592s-17.494-4.864 -26.368-4.864c-11.264,0 -22.102,2.646 -32.512,7.936s-19.029,13.226 -25.855,23.808l 12.288,7.68c 4.096-6.144 9.386-11.35 15.872-15.616s 13.312-6.912 20.48-7.936l 0.768,0 
l 0.768,0 l 0.256,0 l 0.768,0 c 1.024,0 1.962,0.086 2.816,0.256s 1.622,0.256 2.304,0.256c 3.072,1.024 6.058,2.39 8.96,4.096s 5.376,3.584 7.424,5.632c 0.342,0.342 0.768,0.683 1.28,1.025s 0.938,0.683 1.28,1.025c 4.778,5.12 8.362,11.008 10.752,17.664s 3.584,13.398 3.584,20.224s-1.11,13.312 -3.328,19.456
s-5.546,11.776 -9.984,16.896c-4.096,4.778 -8.79,8.362 -14.080,10.752s-11.008,3.584 -17.152,3.584l0,0.512 l-7.936,0 l-8.448,0 l 53.76,70.144l-64.512,0 l0,14.848 l 94.72,0 l-53.76-70.144c 18.432,0.342 34.73-5.802 48.896-18.432s 21.248-28.502 21.248-47.616l0,0 zM 90.623,94.463c 7.168,4.778 12.715,10.582 16.641,17.408s 6.23,13.994 6.912,21.504l0,1.792 
l0,1.792 c0,7.85 -1.962,15.53 -5.888,23.040s-9.814,13.824 -17.664,18.944c 4.778-6.144 8.277-12.8 10.495-19.968s 3.328-14.506 3.328-22.016l0-3.072 c0-1.024 -0.17-2.048 -0.512-3.072c-0.342-6.486 -1.622-12.886 -3.84-19.2s-5.376-12.032 -9.472-17.152l0,0 z" horiz-adv-x="141.824"  />
<glyph unicode="&#x43;" d="M 168.448,104.704l-26.112,0 l0-64 l-37.376,0 l0,64 l-104.448,0 l 71.168,167.936l 40.96,0 l-64.512-153.088l 56.832,0 l0,121.344 l 37.376,0 l0-121.344 l 26.112,0 l0-14.848 l0,0 zM 128,55.552l0,49.152 l-8.704,0 l0-49.152 l 8.704,0 l0,0 zM 90.112,257.792l-8.704,0 l-58.368-138.24l 8.704,0 l 58.368,138.24l0,0 zM 128,119.552l0,107.008 l-8.704,0 l0-107.008 l 8.704,0 l0,0 z" horiz-adv-x="180.224"  />
<glyph unicode="&#x44;" d="M 125.952,141.056c0-18.774 -6.571-35.242 -19.713-49.408s-29.27-21.248 -48.384-21.248c-11.946,0 -23.125,3.072 -33.535,9.216s-18.517,14.506 -24.319,25.088l 12.288,7.168c 3.754-6.144 8.448-11.434 14.080-15.872s 11.862-7.51 18.688-9.216l 1.024,0 l 1.024,0 l 0.512,0 l 1.024,0 c 4.778,0 9.13,1.28 13.056,3.84
s 7.424,5.546 10.496,8.96c 4.778,5.802 8.448,12.373 11.008,19.711s 3.84,14.933 3.84,22.783l0,2.304 l0,2.304 c-0.342,6.486 -1.707,12.971 -4.097,19.457s-5.803,12.118 -10.241,16.896c-3.414,4.438 -7.168,7.595 -11.264,9.473s-8.192,2.646 -12.288,2.304
c-4.438,0 -8.79-0.854 -13.056-2.56s-8.448-4.096 -12.544-7.168c-1.024-0.682 -2.048-1.45 -3.072-2.304s-1.878-1.622 -2.56-2.304c-1.024-0.682 -2.048-1.45 -3.072-2.304s-2.048-1.622 -3.072-2.304l0,96.768 l 99.84,0 l0-14.848 l-84.992,0 l0-54.272 c 5.462,2.73 11.179,4.778 17.153,6.144s 12.032,2.048 18.176,2.048
c 9.558,0 18.774-1.962 27.648-5.888s 16.384-9.814 22.528-17.664c 4.096-5.462 7.424-12.118 9.984-19.968s 3.84-16.896 3.84-27.136l0,0 zM 111.103,141.057c0,10.582 -1.962,20.566 -5.888,29.953s-10.838,16.469 -20.736,21.247c 5.802-6.826 10.154-14.592 13.056-23.296s 4.352-17.664 4.352-26.88
c0-8.534 -1.28-16.896 -3.84-25.088s-6.23-15.702 -11.008-22.528c 7.85,5.12 13.824,11.862 17.92,20.224s 6.144,17.152 6.144,26.368l0,0 z" horiz-adv-x="135.68"  />
<glyph unicode="&#x45;" d="M 161.28,180.992c 0.342-1.706 0.513-3.5 0.513-5.377l0-5.376 c0-3.072 -0.086-6.144 -0.256-9.216s-0.597-6.144 -1.279-9.216c-2.73-19.456 -9.984-37.546 -21.76-54.272s-27.734-26.283 -47.872-28.673c-1.366-0.342 -2.816-0.512 -4.352-0.512l-4.352,0 
c-9.558,0 -18.688,1.962 -27.392,5.888s-16.47,9.131 -23.296,15.617c-9.558,9.558 -16.811,20.907 -21.761,34.049s-7.595,26.539 -7.937,40.193l0,2.56 l0,2.048 c0,10.922 1.366,21.76 4.096,32.512s 6.826,20.566 12.288,29.44l 83.968,137.728l 45.056,0 l-59.904-98.816c 20.138-1.706 36.352-10.41 48.64-26.112
s 20.31-32.768 24.064-51.2c 0.342-2.048 0.598-4.010 0.768-5.888s 0.426-3.67 0.768-5.376l0,0 zM 145.921,185.087l-1.024,5.889c-0.342,1.878 -0.854,3.84 -1.536,5.888c-4.096,14.678 -11.35,28.16 -21.76,40.448s-23.808,18.262 -40.192,17.92l-1.28,0 l-1.792,0 l-61.44-100.864
c 0.342-2.39 0.768-4.779 1.28-7.169s 1.11-4.779 1.792-7.169c 4.096-14.336 11.434-27.562 22.016-39.68s 23.894-18.006 39.936-17.664l 0.768,0 l 0.768,0 l 62.464,102.4l0,0 zM 146.433,157.952l-42.496-70.144c 11.264,5.462 20.31,13.739 27.136,24.833s 11.434,22.784 13.824,35.072l 1.024,5.12
c 0.342,1.706 0.512,3.413 0.512,5.119l0,0 zM 120.833,353.536l-10.751,0 l-39.936-65.28l-39.936-65.28c-3.414-6.144 -6.315-12.63 -8.705-19.456s-3.926-13.824 -4.608-20.992l 103.936,171.008l0,0 z" horiz-adv-x="176.128"  />
<glyph unicode="&#x46;" d="M 104.96,272.64l-84.48-239.104l-40.448,0 l 78.848,224.256l-55.808,0 l0,14.848 l 101.888,0 l0,0 zM 83.968,257.792l-9.216,0 l-73.728-209.408l 9.216,0 l 73.728,209.408l0,0 z" horiz-adv-x="137.216"  />
<glyph unicode="&#x47;" d="M 146.432,93.952c-7.51-7.168 -16.043-12.715 -25.601-16.641s-19.286-6.23 -29.184-6.912l-2.56,0 l-3.072,0 c-10.922,0 -21.589,2.048 -31.999,6.144s-19.712,9.898 -27.904,17.408c-8.534,8.192 -14.934,17.238 -19.2,27.136s-6.229,19.968 -5.887,30.208c0,16.042 4.694,30.976 14.080,44.8s 22.442,23.978 39.168,30.464
c-8.874,5.462 -15.616,12.459 -20.224,20.993s-6.912,17.408 -6.912,26.624c0,7.168 1.45,14.25 4.352,21.248s 7.254,13.227 13.056,18.689s 12.373,9.558 19.711,12.288s 14.762,3.925 22.272,3.583l 2.304,0 l 2.816,0 c 6.486-0.682 12.886-2.304 19.2-4.864s 12.032-6.23 17.152-11.008
c 4.438-4.438 8.022-9.302 10.752-14.592s 4.608-10.666 5.632-16.128c 0.342-1.366 0.598-2.816 0.768-4.352s 0.256-3.158 0.256-4.864c0-9.216 -2.304-18.090 -6.912-26.624s-11.35-15.531 -20.224-20.993c 17.066-6.486 30.208-16.726 39.424-30.72s 13.824-29.013 13.824-45.055
c0-10.24 -1.962-20.224 -5.888-29.952s-10.326-18.688 -19.2-26.88l0,0 zM 157.184,151.295c0,19.114 -7.168,34.988 -21.504,47.617s-30.89,18.944 -49.664,18.944c-11.264,0 -20.394-4.522 -27.392-13.568s-11.862-19.030 -14.592-29.952c-1.024-4.096 -1.792-8.106 -2.304-12.032s-0.768-7.595 -0.768-11.009
s 0.256-7.168 0.768-11.264s 1.28-8.192 2.304-12.288c 3.072-10.582 8.022-20.31 14.848-29.184s 15.872-13.312 27.136-13.312c 18.432,0 34.902,6.23 49.408,18.688s 21.76,28.245 21.76,47.359l0,0 zM 37.888,103.169c-3.414,6.144 -6.059,12.8 -7.937,19.968s-3.158,14.336 -3.84,21.504l0,3.328 l0,3.84 c0,8.534 1.024,16.811 3.072,24.833s 4.95,15.616 8.704,22.784
c-7.51-6.486 -13.142-13.995 -16.896-22.529s-5.461-17.238 -5.119-26.112c0-8.534 1.792-16.982 5.376-25.344s 9.13-15.786 16.64-22.272l0,0 zM 130.56,274.177c0,11.946 -4.438,21.846 -13.312,29.696s-19.285,11.776 -31.231,11.776c-4.778,0 -8.704-2.39 -11.776-7.168
s-5.462-10.069 -7.168-15.871c-0.682-3.414 -1.28-6.827 -1.792-10.241s-0.768-6.144 -0.768-8.192c0-2.39 0.17-5.206 0.512-8.448s 1.024-6.57 2.048-9.984c 1.706-6.144 4.096-11.606 7.168-16.384s 6.998-7.168 11.776-7.168c 11.946,0 22.357,4.010 31.231,12.032s 13.312,18.006 13.312,29.952l0,0 z
M 54.784,244.481c-1.366,3.414 -2.475,6.998 -3.329,10.753s-1.451,7.68 -1.793,11.776l0,3.84 l0,3.84 l0,3.84 c0,1.194 0.17,2.304 0.512,3.328c0,3.754 0.426,7.424 1.28,11.008s 1.963,7.082 3.329,10.496c-4.438-4.096 -7.766-8.704 -9.984-13.824s-3.157-10.41 -2.815-15.872
c0-5.462 1.024-10.667 3.072-15.617s 5.29-9.472 9.728-13.568l0,0 z" horiz-adv-x="183.808"  />
<glyph unicode="&#x48;" d="M 144.896,110.848l-83.969-137.727l-45.056,0 l 59.904,98.816c-20.138,1.706 -36.352,10.41 -48.64,26.112s-20.31,32.768 -24.064,51.2c-0.342,2.048 -0.598,4.010 -0.768,5.888s-0.426,3.67 -0.768,5.376s-0.512,3.498 -0.512,5.376l0,5.376 c0,3.072 0.086,6.144 0.256,9.216s 0.597,6.144 1.279,9.216
c 2.73,19.456 9.984,37.546 21.76,54.272s 27.734,26.454 47.872,29.184c 1.706,0.342 3.242,0.512 4.608,0.512l 4.096,0 c 9.898,0 19.114-1.962 27.648-5.888s 16.214-9.302 23.040-16.128c 9.558-9.558 16.811-20.907 21.761-34.049s 7.595-26.539 7.937-40.193l0-2.56 l0-2.048 
c0-10.922 -1.366-21.76 -4.096-32.512s-6.826-20.566 -12.288-29.44l0,0 zM 145.919,158.977l-103.935-171.008l 10.752,0 l 39.936,65.536l 39.936,65.024c 3.754,6.144 6.741,12.63 8.959,19.456s 3.669,13.824 4.351,20.992l0,0 zM 145.921,187.137c-0.342,2.39 -0.768,4.778 -1.28,7.167
s-1.11,4.779 -1.792,7.169c-4.096,14.336 -11.434,27.562 -22.016,39.68s-23.894,18.006 -39.936,17.664l-0.768,0 l-0.768,0 l-62.464-102.4l 1.024-5.888c 0.342-1.878 0.854-3.84 1.536-5.888c 4.096-14.678 11.35-28.16 21.76-40.448s 23.808-18.262 40.192-17.92l 1.792,0 l 1.28,0 l 61.44,100.864l0,0 zM 58.881,253.696
c-11.264-5.462 -20.31-13.739 -27.136-24.833s-11.434-22.784 -13.824-35.072l-1.024-5.12c-0.342-1.706 -0.512-3.413 -0.512-5.119l 42.496,70.144l0,0 z" horiz-adv-x="175.104"  />
<glyph unicode="&#x49;" d="M 190.976,211.712c-6.486-23.894 -12.46-40.277 -17.921-49.151c-8.534-23.21 -22.358-45.824 -41.472-67.84s-40.277-38.144 -63.487-48.384c-7.85-2.048 -15.189-3.072 -22.015-3.072c-29.354,0 -44.032,18.432 -44.032,55.296c0,7.168 0.854,17.75 2.56,31.744c 1.706,1.706 3.072,4.778 4.096,9.216
c 0.342,3.414 0.854,6.827 1.536,10.241c 2.73,6.144 10.24,26.112 22.528,59.904c 5.462,7.85 9.046,13.312 10.752,16.384c 3.754,6.486 6.314,12.459 7.68,17.921c 4.096,7.85 10.838,18.517 20.224,31.999s 15.957,23.637 19.711,30.463c 3.414,2.73 7.68,6.997 12.8,12.799
c-1.706,0.342 -6.314-2.218 -13.824-7.68c-1.024-2.048 -3.158-3.84 -6.4-5.376s-5.205-2.816 -5.887-3.84c-2.048-1.366 -4.95-4.95 -8.704-10.752c-2.73-4.438 -6.314-6.656 -10.752-6.656c-2.39,0 -5.12,0.512 -8.192,1.536c 8.534,19.456 16.555,31.744 24.065,36.864
c 18.774,18.432 44.886,28.502 78.336,30.208c 6.486-0.682 11.264-8.362 14.336-23.040c 8.874-13.994 13.994-22.528 15.36-25.6c 4.778-9.898 6.997-19.626 6.655-29.184c 1.706-1.366 2.474-3.84 2.304-7.424s 0.086-5.718 0.768-6.4zM 147.967,323.841
c-2.39,0 -5.546-1.365 -9.472-4.095s-6.742-4.266 -8.448-4.608c-24.918-24.576 -48.64-57.856 -71.168-99.84c-24.576-46.422 -36.864-84.651 -36.864-114.689c0-7.85 0.682-15.36 2.048-22.528c 3.754-2.39 5.632-5.462 5.632-9.216c 4.096-3.072 7.85-5.12 11.264-6.144c 21.162,1.024 40.618,10.070 58.368,27.136
c 4.778,3.414 14.336,14.166 28.672,32.256c 29.354,37.888 44.373,82.262 45.055,133.12c 0.342,29.696 -8.021,52.566 -25.087,68.608z" horiz-adv-x="211.968"  />
<glyph unicode="&#x4a;" d="M 71.168,315.648l-22.016-119.809c-8.192-47.104 -12.63-87.21 -13.312-120.32c 3.414-2.73 5.12-8.021 5.12-15.871c-1.706-3.414 -5.973-5.12 -12.799-5.12c-8.192,4.438 -12.288,11.094 -12.288,19.968c0,2.73 0.426,6.826 1.28,12.288s 1.28,9.558 1.28,12.288c0,3.072 -0.342,5.802 -1.024,8.192l 9.216,65.024
l 17.92,102.4c 7.51,41.302 12.459,75.606 14.849,102.912c 0.682,7.85 3.072,14.848 7.168,20.992c 1.706-0.682 4.437-1.536 8.191-2.56c 1.706-0.342 4.437-2.048 8.191-5.12c-1.024-8.192 -4.95-33.28 -11.776-75.264z" horiz-adv-x="92.672"  />
<glyph unicode="&#x4b;" d="M 199.168,361.728l 0.513-1.54c 0.682-3.414 0.17-6.144 -1.536-8.192c-1.366-5.12 -4.95-12.97 -10.752-23.552c0-4.778 -2.56-9.813 -7.68-15.103s-7.85-9.301 -8.192-12.031c-6.826-8.874 -16.042-23.040 -27.648-42.496c-4.778-0.682 -8.618-3.925 -11.52-9.727
s-5.718-9.386 -8.448-10.752c-0.682-1.706 -6.485-9.898 -17.407-24.576l-48.64-68.608c-1.706-3.754 -8.533-14.165 -20.479-31.231c-8.874-12.63 -13.653-24.064 -14.335-34.304c 8.534-4.778 19.286-7.168 32.256-7.168c 11.946,0 25.258,1.878 39.936,5.632
c 8.534,2.048 26.283,7.85 53.249,17.408c 21.504,7.85 39.594,12.8 54.272,14.848c-3.414-2.048 -11.435-7.168 -24.065-15.36c-5.462-3.414 -10.752-5.291 -15.872-5.633c-9.558-5.802 -18.091-10.752 -25.601-14.848c-10.582-5.462 -19.627-9.046 -27.137-10.752
c-17.75-6.144 -38.742-9.216 -62.976-9.216c-8.874,0 -18.090,0.342 -27.648,1.024c-16.042,4.778 -24.064,11.605 -24.064,20.479c0,9.898 6.144,25.088 18.432,45.568c 3.414,2.048 6.486,6.656 9.216,13.824c 11.606,13.654 25.942,32.939 43.008,57.857l 41.472,59.392l 23.552,31.232c 2.73,1.366 5.461,4.523 8.191,9.473
s 4.949,8.107 6.655,9.473c 2.39,3.414 5.462,8.363 9.216,14.849c 1.366,3.072 5.12,9.898 11.264,20.48c 5.12,8.534 7.68,15.531 7.68,20.993c0,2.39 -0.342,4.779 -1.024,7.169c-3.072,2.39 -6.486,3.584 -10.24,3.584s-8.533-1.366 -14.335-4.096
c-7.85-3.754 -12.629-5.802 -14.335-6.144c-2.39-2.73 -8.192-6.485 -17.408-11.263c-7.51-4.096 -12.63-9.046 -15.36-14.848c-10.582,0 -18.603,3.072 -24.065,9.216c 0.682,5.462 4.096,9.728 10.24,12.8l 3.072,1.536c 3.414,1.706 5.462,3.754 6.144,6.144c 4.778,3.072 12.97,7.082 24.576,12.032
s 19.968,9.472 25.088,13.568c 16.384,0.342 26.966-0.17 31.744-1.536c 9.898-2.73 17.749-9.898 23.551-21.504c-2.39-1.366 -3.243-2.731 -2.561-4.097z" horiz-adv-x="215.552"  />
<glyph unicode="&#x4c;" d="M 202.24,321.792c-2.73-4.096 -7.509-11.778 -14.335-23.042c-5.12-4.438 -12.63-11.776 -22.528-22.016l-30.208-19.456c-11.606-7.85 -20.822-15.36 -27.648-22.528c 12.97-1.024 31.402-3.414 55.296-7.168c 20.138-5.802 32.938-17.749 38.4-35.839c0-31.744 -23.722-59.904 -71.168-84.48
c-4.438-0.342 -10.24-2.39 -17.408-6.144s-12.458-5.973 -15.872-6.655c-6.826-2.048 -14.336-3.072 -22.528-3.072c-13.994,0 -28.672,2.73 -44.032,8.192c-14.336,7.85 -23.552,18.773 -27.648,32.767c 1.706,0.682 3.413,1.024 5.119,1.024c 3.754,0 7.68-1.878 11.776-5.632c 5.12-5.12 8.534-8.022 10.24-8.704
c 10.24-4.438 21.846-6.656 34.816-6.656c 20.48,0 41.642,5.632 63.488,16.896c 19.456,13.312 31.062,21.846 34.816,25.6c 11.946,11.606 18.090,24.235 18.432,37.889c-2.73,5.12 -7.68,8.874 -14.848,11.264c-1.024,0.342 -7.338,1.366 -18.944,3.072c-7.51,3.072 -13.824,4.096 -18.944,3.072l-3.072-4.096c-5.12,3.072 -11.776,4.608 -19.968,4.608
c-9.558-0.342 -15.702,0 -18.432,1.024c-4.096,1.366 -10.24,6.315 -18.432,14.849c 5.12,8.192 14.336,17.238 27.648,27.136l 33.28,23.040c 7.168,4.778 17.75,12.629 31.744,23.551c 11.606,9.558 19.968,19.798 25.088,30.72c 0.682,2.39 1.024,4.267 1.024,5.633c0,3.414 -1.536,5.291 -4.608,5.633c-7.168,3.072 -15.702,4.608 -25.6,4.608
c-11.606,0 -24.576-2.048 -38.912-6.144c-11.264-0.342 -22.016-3.414 -32.256-9.216c-2.39,0.682 -6.998-0.342 -13.824-3.072c-7.168-2.73 -12.458-1.024 -15.872,5.12c-0.342,1.706 -0.512,3.242 -0.512,4.608c0,2.39 2.56,5.974 7.68,10.752c 4.778,1.024 19.456,5.29 44.032,12.8c 17.408,5.462 32.256,8.192 44.544,8.192
c 22.87,0 40.79-6.486 53.76-19.456c 3.072-10.24 1.878-19.798 -3.584-28.672z" horiz-adv-x="227.84"  />
<glyph unicode="&#x4d;" d="M 163.328,272.64c-0.682-2.048 -2.218-5.802 -4.608-11.264c 3.072-1.366 4.608-3.414 4.608-6.144c0-1.706 -0.598-4.181 -1.792-7.423s-1.792-5.546 -1.792-6.912c-14.678-16.042 -26.966-44.544 -36.864-85.504c-2.048-0.682 -3.414-3.584 -4.096-8.704c0-2.048 -0.682-3.754 -2.048-5.12
c-3.754-6.144 -6.656-15.19 -8.704-27.136c-1.366-8.534 -3.243-18.262 -5.633-29.184c0-7.168 -0.682-17.408 -2.048-30.72c-4.096,0.682 -10.24,4.437 -18.432,11.263c0,3.072 3.414,22.698 10.24,58.88l 14.848,51.2c 3.414,8.534 5.12,14.336 5.12,17.408c-5.462-4.096 -14.336-8.874 -26.624-14.336
c-7.51-5.802 -16.384-8.704 -26.624-8.704c-7.85,0 -15.36,1.878 -22.528,5.632c-18.774,13.312 -28.16,35.84 -28.16,67.584c0,16.384 2.048,32.598 6.144,48.64c 2.048,7.85 7.51,20.48 16.384,37.888c 2.73,8.874 8.704,16.554 17.92,23.040c 7.85-0.682 12.458-3.413 13.824-8.191c 1.024-6.486 -3.584-14.848 -13.824-25.088
c-1.366-1.706 -2.048-4.608 -2.048-8.704c-3.754-2.73 -6.656-7.68 -8.704-14.848c-2.39-8.192 -4.438-13.482 -6.144-15.872l-4.608-34.304c-2.048-1.366 -2.39-3.243 -1.024-5.633c 1.706-3.072 2.56-5.632 2.56-7.68l 3.072-20.992c 2.39-12.288 11.435-18.432 27.137-18.432c 9.898,0 21.333,3.926 34.303,11.776l 30.72,20.992
c 6.486,15.36 15.36,39.424 26.624,72.192c 2.73,7.51 7.168,20.992 13.312,40.448c 1.366,1.024 2.902,3.584 4.608,7.68c 1.366,2.73 3.755,4.608 7.169,5.632c 3.754,0 7.338-4.438 10.752-13.312z" horiz-adv-x="173.568"  />
<glyph unicode="&#x4e;" d="M 34.816,108.288l-2.561-0.002c 1.024,3.754 2.218,7.168 3.584,10.24c 2.39,4.778 5.291,4.778 8.705,0c 2.048-6.826 7.68-11.605 16.896-14.335c 13.312,1.366 25.856,6.742 37.632,16.128s 20.054,20.394 24.832,33.024c 0.682,3.754 1.024,7.338 1.024,10.752c0,9.898 -3.242,17.92 -9.728,24.064
c-12.63,11.946 -29.355,17.92 -50.177,17.92c-12.97,0 -25.258-2.39 -36.864-7.168c-2.73,0.342 -6.656,0.171 -11.776-0.511s-8.704-1.024 -10.752-1.024c-8.874,0 -15.53,3.926 -19.968,11.776c 5.802,11.946 15.018,27.818 27.648,47.616c 14.336,21.846 23.894,37.376 28.672,46.592
c-0.682,1.706 -1.024,3.754 -1.024,6.144c0,9.898 4.096,14.848 12.288,14.848c 1.366,0 2.731-0.17 4.097-0.512c 12.288,2.73 29.184,5.29 50.688,7.68c 24.576,2.39 41.642,4.438 51.2,6.144c 8.192-0.342 16.384-0.854 24.576-1.536c 9.898-1.024 17.578-3.242 23.040-6.656l0-11.776 c-2.048,0 -11.946-0.682 -29.696-2.048
c-9.898-0.682 -18.944-0.853 -27.136-0.511l-2.56-2.048c-12.63-0.682 -26.966-2.901 -43.008-6.655c-22.186-5.12 -36.010-8.022 -41.472-8.704c-3.072-6.144 -8.534-15.018 -16.384-26.624s-13.312-20.48 -16.384-26.624l-14.336-20.992c 1.024-0.342 2.39-0.512 4.096-0.512c 3.072,0 8.106,0.854 15.104,2.56
s 12.203,2.816 15.617,3.328s 8.363,0.768 14.849,0.768c 17.408,0 32.938-4.096 46.592-12.288c 3.072-5.12 7.85-8.534 14.336-10.24c 5.462-10.922 10.582-18.944 15.36-24.064c 2.048-6.486 3.072-12.8 3.072-18.944c0-9.558 -3.754-20.48 -11.264-32.768c-2.048-3.072 -9.046-12.63 -20.992-28.672c-1.706,0 -3.242-0.682 -4.608-2.048l-1.536-1.536
c-3.414-3.414 -6.315-5.632 -8.705-6.656c-6.144-6.486 -14.678-9.728 -25.6-9.728c-4.096,0 -11.776,0.854 -23.040,2.56c-1.024,2.048 -4.096,5.974 -9.216,11.776c-3.072,3.414 -4.778,7.168 -5.12,11.264z" horiz-adv-x="193.024"  />
<glyph unicode="&#x4f;" d="M 157.696,88.832c-27.99-19.798 -54.442-29.697 -79.36-29.697c-12.63,0 -23.894,2.73 -33.792,8.192c-5.462,3.072 -10.070,4.096 -13.824,3.072c0,4.096 -2.39,10.41 -7.168,18.944c-4.438,7.51 -5.974,14.166 -4.608,19.968c-1.706,6.486 -2.56,12.971 -2.56,19.457c0,8.534 1.366,18.603 4.096,30.209l 7.168,30.208
c 4.096,11.606 11.776,28.16 23.040,49.664c-0.682,4.438 0.854,7.168 4.608,8.192c 19.798,32.086 32.939,52.395 39.425,60.929c 15.36,20.822 32.598,37.718 51.712,50.688c 1.366,0.342 2.56,0.512 3.584,0.512c 8.192,0 12.288-3.242 12.288-9.728l0-5.12 l-33.28-30.208c-11.946-11.264 -20.65-23.21 -26.112-35.84
c-2.048-0.342 -4.438-3.414 -7.168-9.216c-1.024-2.048 -2.218-3.754 -3.584-5.12c-4.778-4.096 -9.728-11.094 -14.848-20.992c-5.12-11.264 -9.216-18.602 -12.288-22.016c0-1.706 -1.024-4.437 -3.072-8.191s-2.902-6.826 -2.56-9.216c-3.414-3.072 -6.656-8.618 -9.728-16.64s-5.632-13.739 -7.68-17.153
c-0.342-6.144 -1.366-15.53 -3.072-28.16c 0.682,0.342 1.877,1.366 3.583,3.072l 1.536,1.536c 1.024,1.366 8.704,7.68 23.040,18.944c 7.51,5.802 14.848,9.557 22.016,11.263c 13.994,7.168 29.184,10.752 45.568,10.752c 16.042,0 29.184-3.584 39.424-10.752c 13.312-12.288 19.968-24.746 19.968-37.376c0-4.438 -0.854-8.875 -2.56-13.313
c-3.414-14.336 -14.678-26.624 -33.792-36.864zM 153.601,164.607c-6.144,1.706 -12.459,2.561 -18.945,2.561c-16.384,0 -32.938-4.608 -49.664-13.824l-24.064-18.432c-9.216-7.51 -15.36-15.019 -18.432-22.529c-1.366-8.534 1.536-16.726 8.704-24.576c 8.874-4.778 19.968-7.168 33.28-7.168c 9.558,0 17.408,1.194 23.552,3.584
c 8.534,3.072 22.699,10.752 42.497,23.040c 17.066,13.994 24.917,25.6 23.551,34.816c-4.778,10.922 -11.605,18.432 -20.479,22.528z" horiz-adv-x="207.36"  />
<glyph unicode="&#x50;" d="M 140.288,271.104c0-2.048 -0.853-5.119 -2.559-9.215c-15.702-29.354 -28.843-57.685 -39.425-84.991c-2.73-4.096 -5.802-10.070 -9.216-17.92l-8.448-18.688c-1.536-3.242 -6.57-14.933 -15.104-35.071c-5.802-14.336 -8.362-26.454 -7.68-36.352
c 3.414-2.39 5.803-5.462 7.169-9.216c-1.706-4.438 -4.778-6.656 -9.216-6.656c-1.706,0 -4.266,0.342 -7.68,1.024c-7.85,4.438 -11.776,12.118 -11.776,23.040c0,2.048 0.854,9.216 2.56,21.504c 3.754,10.582 10.837,26.368 21.247,47.36s 17.493,36.438 21.247,46.336
c 6.826,16.384 12.288,28.502 16.384,36.352c 7.85,13.994 14.165,27.989 18.943,41.983c 6.144,12.288 9.216,21.162 9.216,26.624l 1.024,0 c 1.366,3.414 3.072,9.046 5.12,16.896c 1.706,6.144 0.682,10.922 -3.072,14.336c-9.216,8.534 -23.722,12.8 -43.52,12.8l-6.144,0 c-3.754-0.342 -7.168-0.512 -10.24-0.512l-15.872,0 
c-5.12,0.682 -12.118-0.171 -20.992-2.561c-9.898-2.39 -16.896-3.584 -20.992-3.584c-7.85,0 -14.506,2.902 -19.968,8.704c-1.366,10.24 3.242,15.36 13.824,15.36l 6.656,0 c 3.414-0.342 5.803-0.512 7.169-0.512c 4.096,0 7.168,0.682 9.216,2.048l 55.808,6.144c 1.366-1.706 4.011-2.474 7.937-2.304
s 6.4-0.256 7.424-1.28c 15.36-3.414 25.43-6.315 30.208-8.705c 14.678-7.168 22.016-19.968 22.016-38.4c0-13.654 -3.754-28.502 -11.264-44.544z" horiz-adv-x="141.312"  />
<glyph unicode="&#x51;" d="M 159.232,240.896l-39.935-30.207c-0.682-3.414 0.512-8.022 3.584-13.824c 4.778-6.826 10.922-17.408 18.432-31.744c 1.024-4.778 1.536-9.898 1.536-15.36c0-22.528 -5.632-40.96 -16.896-55.296c-10.24-12.63 -26.454-23.723 -48.64-33.281c-27.306,0 -45.909,6.144 -55.807,18.432c-12.288,15.36 -18.432,27.136 -18.432,35.328
c0,3.754 0.682,7.509 2.048,11.263c 1.366,8.192 5.632,17.066 12.8,26.624l 19.968,23.040c 5.802,4.096 16.042,12.63 30.72,25.6c 3.414,2.73 8.875,7.68 16.385,14.848c-22.87,24.576 -33.451,46.422 -31.745,65.536c 8.534,29.014 27.136,53.248 55.808,72.704c 18.090,12.288 32.597,18.432 43.519,18.432
c 7.51,0 14.336-2.39 20.48-7.168c 4.438-3.414 5.12-9.216 2.048-17.408c-5.462-7.168 -12.459-9.898 -20.993-8.192c-1.366,3.754 -3.243,5.632 -5.633,5.632c-1.024-0.342 -3.584-1.366 -7.68-3.072c-1.366-1.024 -3.243-1.536 -5.633-1.536c-2.39-1.706 -9.046-5.802 -19.968-12.288
c-7.85-4.438 -13.653-9.728 -17.407-15.872l-2.048,0 c-3.414-4.096 -8.192-10.582 -14.336-19.456c-5.12-7.51 -7.68-14.848 -7.68-22.016c0-4.096 1.024-8.192 3.072-12.288c 7.51-15.018 15.531-25.6 24.065-31.744c 29.696,19.456 49.834,37.376 60.416,53.76c-1.706,5.12 -6.656,11.094 -14.848,17.92c-3.414,3.072 -6.144,5.802 -8.192,8.192
c 4.096,5.802 9.216,8.704 15.36,8.704c 1.706,0 3.413-0.342 5.119-1.024c 11.946-2.39 19.456-11.776 22.528-28.16c 1.024-16.384 -6.314-31.744 -22.016-46.080zM 107.521,184.577c-1.366,2.73 -3.926,6.316 -7.681,10.753c-31.402-24.234 -55.296-47.616 -71.68-70.144c0-3.072 -1.366-7.68 -4.096-13.824l0-4.096 
c 5.462-9.558 14.507-17.579 27.137-24.065c 18.432-1.366 30.89,1.365 37.376,8.191c 9.898,5.12 17.92,12.118 24.064,20.992c 6.826,13.312 10.24,25.77 10.24,37.376c0,8.192 -1.878,15.19 -5.632,20.992c-3.414,2.73 -6.656,7.338 -9.728,13.824z" horiz-adv-x="172.544"  />
<glyph unicode="&#x52;" d="M 176.128,292.608c-9.558-18.090 -23.041-33.11 -40.449-45.057c-2.39-7.168 -9.558-12.97 -21.504-17.408c-13.312-14.678 -31.744-22.016 -55.296-22.016c-4.096,0 -8.022,0.17 -11.776,0.512c-20.48,7.168 -34.474,20.138 -41.984,38.912c-3.072,31.402 11.946,64.682 45.056,99.84c 9.216,7.51 17.578,13.312 25.088,17.408l 34.816,18.432
c 17.75,3.072 29.526,4.608 35.328,4.608c 11.264,0 20.822-2.73 28.672-8.192l 9.216-9.216c 3.414-3.754 5.291-7.338 5.633-10.752c 6.486-8.874 9.728-20.821 9.728-35.839c0-3.414 -0.17-8.278 -0.512-14.592s-0.512-11.178 -0.512-14.592c-1.366-3.072 -2.902-11.094 -4.608-24.064
c-1.366-3.072 -5.291-13.312 -11.777-30.72c-6.144-12.288 -15.018-31.062 -26.624-56.32c-1.706-3.754 -4.778-8.704 -9.216-14.848c-7.85-13.994 -23.893-39.765 -48.127-77.311c-3.754-5.462 -9.557-15.872 -17.407-31.232c-2.048-4.096 -4.778-6.144 -8.192-6.144c-2.39,0 -4.95,1.024 -7.68,3.072
c-1.024,2.73 -1.536,5.29 -1.536,7.68c0,4.778 2.56,10.837 7.68,18.175s 8.192,12.544 9.216,15.616c 4.778,4.778 10.581,12.885 17.407,24.319s 11.776,19.37 14.848,23.808c-0.342,2.39 0.17,4.267 1.536,5.633l 4.608,3.072c 0.342,1.024 0.342,1.878 0,2.56c 14.678,25.942 28.672,52.054 41.984,78.336
c 7.168,14.336 12.63,33.11 16.384,56.32zM 166.911,358.143c-5.462,4.438 -12.63,6.657 -21.504,6.657c-1.024,0 -10.582-1.194 -28.672-3.584c-2.048-0.682 -7.68-3.242 -16.896-7.68c-6.486-3.072 -11.606-6.656 -15.36-10.752c-3.414-1.024 -7.68-3.754 -12.8-8.192s-8.874-7.168 -11.264-8.192
c-11.264-13.654 -19.286-24.576 -24.064-32.768c-7.85-13.312 -11.776-25.77 -11.776-37.376c0-4.096 0.512-8.362 1.536-12.8c 3.414-2.048 8.192-5.462 14.336-10.24c 4.778-1.024 9.557-1.536 14.335-1.536c 12.63,0 25.771,4.266 39.425,12.8l 34.304,25.6c 1.366,0.682 1.707,2.218 1.025,4.608c 4.438,2.048 8.192,5.12 11.264,9.216
c 3.754,5.802 6.485,9.386 8.191,10.752c 3.072,2.73 5.29,6.997 6.656,12.799c 0.342,4.438 0.854,9.216 1.536,14.336c 0.342,2.73 1.536,6.997 3.584,12.799c 9.216,0 15.018-0.854 17.408-2.56c0,2.73 -1.11,5.802 -3.328,9.216s-4.864,9.046 -7.936,16.896z" horiz-adv-x="193.536"  />
<glyph unicode="&#x53;" d="M 197.12,246.016c0-37.206 -8.192-73.386 -24.576-108.543c-21.162-44.714 -48.469-67.072 -81.919-67.072c-23.552,0 -43.69,7.68 -60.416,23.040c-9.898,8.874 -17.066,19.797 -21.504,32.767l0-0.512 c-5.802,16.384 -8.704,39.082 -8.704,68.096c0,39.936 6.314,80.384 18.944,121.344c 18.090,59.050 42.496,88.576 73.216,88.576
c 8.874,0 22.869-5.462 41.983-16.384l 35.328-20.48c 8.192-3.414 15.018-22.528 20.48-57.344c 2.39-15.36 4.182-28.33 5.376-38.912s 1.792-18.774 1.792-24.576zM 168.448,265.473c0,27.648 -4.267,50.688 -12.801,69.12c-11.264,25.258 -28.672,37.888 -52.224,37.888c-19.114,0 -35.84-27.136 -50.176-81.408
c-11.946-46.080 -17.92-83.456 -17.92-112.128c0-21.504 3.242-39.424 9.728-53.76c 8.534-19.798 22.187-29.696 40.961-29.696c 29.354,0 51.37,21.674 66.048,65.024c 10.922,32.768 16.384,67.754 16.384,104.96z" horiz-adv-x="218.112"  />
<glyph unicode="&#x54;" d="M 57.344,361.728c0-6.826 -1.025-12.971 -3.073-18.433l 0.512,0 l-1.536-5.888l-2.56-9.984c-4.778-47.104 -8.448-87.808 -11.008-122.112s-3.84-62.55 -3.84-84.736c0-10.922 0.256-20.65 0.768-29.184s 1.11-15.702 1.792-21.504c0-5.802 -3.414-8.704 -10.24-8.704c-16.042,0 -24.064,10.070 -24.064,30.208
c0,7.51 0.598,19.542 1.792,36.096s 2.986,37.632 5.376,63.232l 4.096,49.92c 1.024,12.8 1.536,22.102 1.536,27.904l0,2.56 c-0.342,0.342 -0.512,1.195 -0.512,2.561c-6.144,5.462 -9.216,11.606 -9.216,18.432c0,10.922 2.218,24.746 6.656,41.472c 2.73,10.24 4.778,18.858 6.144,25.856s 2.219,12.374 2.561,16.128
c 5.12,2.39 10.24,3.584 15.36,3.584c 12.97,0 19.456-5.802 19.456-17.408z" horiz-adv-x="72.192"  />
<glyph unicode="&#x55;" d="M 191.488,83.712c0-9.898 -4.608-14.847 -13.824-14.847l0,4.608 l-0.512-0.512c0-1.706 -9.046-2.56 -27.136-2.56l-31.744,0 c-12.63,0 -29.526-2.218 -50.688-6.656s-37.546-6.656 -49.152-6.656c-17.066,0 -25.6,7.51 -25.6,22.528c0,3.754 4.608,9.045 13.824,15.871c 12.63,8.534 19.456,13.654 20.48,15.36
c 25.258,28.33 47.104,62.293 65.536,101.887c 20.48,43.35 30.72,82.091 30.72,116.225c0,11.264 -4.096,20.48 -12.288,27.648s-18.432,10.752 -30.72,10.752c-8.192,0 -14.166-4.438 -17.92-13.312c-2.73-6.486 -6.485-20.992 -11.263-43.52l-6.144-29.696c-0.342-6.144 -1.366-12.63 -3.072-19.456c-5.12-22.186 -12.97-33.28 -23.552-33.28
c-11.264,0 -16.896,7.338 -16.896,22.016c0,16.384 6.826,43.52 20.48,81.408c 7.85,22.186 13.141,35.498 15.871,39.936c 8.192,13.994 19.286,20.992 33.28,20.992c 23.21,0 44.032-7.168 62.464-21.504c 20.138-15.36 30.208-34.304 30.208-56.832c0-33.11 -14.336-73.387 -43.008-120.833c-10.582-17.75 -21.504-34.56 -32.768-50.432
s-23.21-30.976 -35.84-45.312l 61.952,1.024c 9.558,0 23.552-1.024 41.984-3.072c 23.552-2.73 35.328-6.656 35.328-11.776z" horiz-adv-x="195.584"  />
<glyph unicode="&#x56;" d="M 177.152,163.584c0-32.426 -8.365-59.052 -25.090-79.873c-18.090-22.528 -42.837-33.792 -74.239-33.792c-14.336,0 -32.598,6.486 -54.784,19.456c-22.528,13.312 -33.792,27.136 -33.792,41.472c0,15.702 3.754,23.723 11.264,24.065c 6.486,0.342 14.678-8.874 24.576-27.648c 6.486-12.288 10.752-19.456 12.8-21.504
c 9.898-7.85 22.016-11.776 36.352-11.776c 18.090,0 33.792,10.24 47.104,30.72l0-0.512 c 12.288,18.774 18.432,38.571 18.432,59.393c0,10.922 -2.048,22.016 -6.144,33.28c-5.802,11.606 -12.629,17.579 -20.479,17.921l-48.64-12.288c-7.85,2.73 -11.776,8.021 -11.776,15.871c0,3.754 0.854,7.338 2.56,10.752s 3.84,6.486 6.4,9.216
s 5.546,4.949 8.96,6.655s 6.827,2.56 10.241,2.56c 5.12,0 8.192-0.17 9.216-0.512c 0.682,0 1.194-0.17 1.536-0.512l 2.048,0 c 0.682-0.342 2.218-0.512 4.608-0.512l 1.536,0 c 8.874,7.168 15.872,19.798 20.992,37.888c 4.438,14.336 6.656,29.014 6.656,44.032c0,27.306 -10.582,40.96 -31.744,40.96c-14.678,0 -24.576-4.438 -29.696-13.312
c-3.754-6.826 -5.632-17.92 -5.632-33.28c0-58.368 -9.558-87.552 -28.672-87.552c-6.486,0 -11.606,3.926 -15.36,11.776c-3.414,5.802 -5.12,12.458 -5.12,19.968c0,19.456 6.486,45.568 19.456,78.336c 6.486,16.042 12.8,27.136 18.944,33.28c 8.534,9.558 20.48,14.336 35.84,14.336c 21.846,0 40.107-5.29 54.785-15.872
c 16.042-11.946 24.064-28.501 24.064-49.663c0-28.672 -13.654-59.222 -40.96-91.648c 17.75-9.216 30.55-18.432 38.4-27.648c 10.24-11.946 15.36-26.624 15.36-44.032z" horiz-adv-x="197.632"  />
<glyph unicode="&#x57;" d="M 217.6,173.824c0-10.582 -9.898-15.873 -29.696-15.873l-6.144,0 c-2.39,0 -5.803,0.17 -10.241,0.512c-4.096,0.342 -7.51,0.512 -10.24,0.512l-6.144,0 c-3.754,0 -5.802-0.17 -6.144-0.512c-0.682-3.754 -1.194-8.448 -1.536-14.080s-0.683-11.862 -1.025-18.688
c0-1.024 -0.086-2.816 -0.256-5.376s-0.256-5.376 -0.256-8.448s-0.086-6.144 -0.256-9.216s-0.256-5.632 -0.256-7.68l0-1.024 c0-6.144 1.536-12.97 4.608-20.48c 1.706-4.438 2.56-7.51 2.56-9.216c0-1.024 -0.342-1.536 -1.024-1.536l-4.096-4.096l 9.216,0 c0-5.802 -5.974-8.704 -17.92-8.704c-15.36,0 -23.040,13.824 -23.040,41.472l0,11.776 
c0,3.072 0.17,5.462 0.512,7.168l0-0.512 c0,1.366 0.17,4.438 0.512,9.216s 0.512,7.85 0.512,9.216l0,31.232 c-0.342,0.342 -1.878,0.512 -4.608,0.512c-5.462,0 -11.52-0.512 -18.176-1.536s-14.25-2.39 -22.784-4.096c-11.946-2.73 -22.613-4.864 -31.999-6.4s-17.322-2.646 -23.808-3.328
c-13.654,18.774 -20.48,31.232 -20.48,37.376c0,5.802 5.632,17.408 16.896,34.816c 7.51,11.264 14.251,21.846 20.225,31.744s 11.35,19.285 16.128,28.159c 15.36,28.33 31.232,54.272 47.616,77.824l 6.144,8.704c 0.682,1.366 1.792,3.243 3.328,5.633s 3.498,5.291 5.888,8.705c 7.51,11.606 15.19,17.75 23.040,18.432
c 6.486-0.682 14.678-4.608 24.576-11.776c 10.24-7.168 15.36-14.166 15.36-20.992c0-3.754 -1.194-10.581 -3.584-20.479c-3.414-9.898 -5.12-16.554 -5.12-19.968l-11.264-89.6c-2.73-22.528 -4.266-37.718 -4.608-45.568l 50.176-1.024c 11.606-0.342 17.408-4.608 17.408-12.8zM 128.512,338.687
c0,5.12 -0.171,8.191 -0.513,9.215c-3.754-4.778 -10.41-13.994 -19.968-27.648l-30.208-45.056c-6.826-9.898 -12.8-19.456 -17.92-28.672s-9.558-17.92 -13.312-26.112c-9.216-21.162 -13.824-33.621 -13.824-37.375c0-1.366 2.902-2.048 8.704-2.048c 4.096,0 10.752,0.512 19.968,1.536l-0.512,0 c 8.534,1.024 15.531,1.536 20.993,1.536
c 1.366,0 3.67,0.086 6.912,0.256s 7.765,0.426 13.567,0.768c 3.414,0.342 8.875,0.854 16.385,1.536c 1.024,27.648 3.072,57.002 6.144,88.064c 1.366,12.63 2.304,24.235 2.816,34.817s 0.768,20.31 0.768,29.184z" horiz-adv-x="228.864"  />
<glyph unicode="&#x58;" d="M 190.464,160.512c0-16.042 -2.561-30.379 -7.681-43.009s-12.374-23.467 -21.76-32.513s-20.65-15.958 -33.792-20.736s-27.734-7.168 -43.776-7.168c-15.36,0 -33.45,3.584 -54.272,10.752l0-0.512 c-26.624,8.192 -39.936,19.626 -39.936,34.304c0,9.216 5.632,13.824 16.896,13.824c 4.778,0 15.189-6.144 31.231-18.432
c 13.654-10.582 25.771-15.872 36.353-15.872c 24.576,0 44.714,9.386 60.416,28.16c 14.678,17.75 22.016,39.254 22.016,64.512c0,16.384 -3.754,28.842 -11.264,37.376l0-0.512 c-7.85,9.898 -19.285,14.848 -34.303,14.848c-12.97,0 -25.941-3.242 -38.911-9.728c-5.802-2.73 -18.090-10.41 -36.864-23.040
c-6.486,0 -12.203,3.242 -17.153,9.728s-7.424,12.971 -7.424,19.457c0,4.096 0.256,9.216 0.768,15.36s 1.45,13.142 2.816,20.992c 2.048,13.654 3.072,25.259 3.072,34.817l0,34.816 l-0.512,0 c 0.342,7.85 1.11,14.762 2.304,20.736s 2.645,11.008 4.351,15.104c 1.706,4.778 25.6,9.557 71.68,14.335
c 30.038,3.072 50.006,4.608 59.904,4.608c 13.994,0 22.528-2.73 25.6-8.192c0-2.73 -0.938-5.461 -2.816-8.191s-4.182-5.29 -6.912-7.68s-5.717-4.352 -8.959-5.888s-6.229-2.474 -8.959-2.816c-10.922-1.024 -30.037-3.072 -57.343-6.144c-23.894-3.072 -38.059-6.656 -42.497-10.752
c-6.144-45.056 -9.728-75.776 -10.752-92.16l 8.448,2.816l 13.568,4.352l-0.512,0 c 12.63,4.778 21.504,7.168 26.624,7.168c 27.648,0 51.2-8.704 70.656-26.112l-0.512,0 c 20.138-17.066 30.208-39.936 30.208-68.608zM 23.039,327.935l 2.048-1.024l 1.024,1.024l-3.072,0 z" horiz-adv-x="211.968"  />
<glyph unicode="&#x59;" d="M 186.368,178.432c0-29.354 -7.339-53.928 -22.017-73.726c-16.384-22.87 -38.4-34.304 -66.048-34.304l-1.024,0 c-32.426,0 -57.173,11.094 -74.239,33.28c-15.36,19.798 -23.040,46.422 -23.040,79.872c0,35.84 7.68,79.19 23.040,130.048c 19.798,65.878 43.52,98.816 71.168,98.816c 8.192,0 20.48-3.584 36.864-10.752
c 16.042-6.486 26.453-12.971 31.231-19.457c 7.51-10.582 11.264-24.576 11.264-41.984c0-13.312 -3.242-28.16 -9.728-44.544c-15.702,0 -24.747,4.778 -27.137,14.336c-1.024,4.096 -1.536,11.606 -1.536,22.528c0,18.432 -1.024,30.55 -3.072,36.352c-3.754,10.24 -10.752,15.36 -20.992,15.36c-9.216,0 -18.090-7.68 -26.624-23.040l0,0.512 
c-7.85-14.678 -13.994-26.539 -18.432-35.585s-7.51-15.446 -9.216-19.2c-3.754-8.534 -6.997-17.835 -9.727-27.905s-4.949-21.078 -6.655-33.024c 21.162,20.138 41.984,30.208 62.464,30.208c 24.918,0 45.398-10.24 61.44-30.72c 14.678-18.774 22.016-41.131 22.016-67.073z
M 153.599,186.114c0,18.090 -3.754,32.598 -11.264,43.52c-8.534,13.654 -21.334,20.48 -38.4,20.48c-23.552,0 -41.642-8.704 -54.272-26.112c-10.922-15.018 -16.384-34.816 -16.384-59.392c0-46.762 20.65-70.144 61.952-70.144c 17.408,0 31.914,11.434 43.52,34.304c 9.898,19.798 14.848,38.912 14.848,57.344z" horiz-adv-x="205.312"  />
<glyph unicode="&#x5a;" d="M 171.008,389.888c0-5.802 -2.562-11.946 -7.682-18.431l-9.728-13.568c-2.73-3.926 -4.949-7.254 -6.655-9.984c-75.434-134.826 -113.152-219.306 -113.152-253.44c0-4.096 2.048-9.386 6.144-15.872c-24.576,0 -36.864,5.462 -36.864,16.384c0,20.138 18.432,72.192 55.296,156.16l 53.76,122.368
c-2.73,0.682 -7.509,1.024 -14.335,1.024c-3.754,0 -9.472-0.342 -17.152-1.024s-17.322-1.706 -28.928-3.072c-10.582-1.024 -20.992-3.754 -31.232-8.192l 0.512,0 l-18.432-7.168c-8.192,0 -12.288,5.462 -12.288,16.384c0,12.97 7.51,21.333 22.528,25.087c 1.366,0.682 5.974,1.536 13.824,2.56s 18.944,2.39 33.28,4.096
c 33.11,4.096 62.635,6.144 88.577,6.144c 5.462,0 12.63-5.462 21.504-16.384z" horiz-adv-x="164.864"  />
<glyph unicode="&#x5b;" d="M 221.184,383.232c0-12.97 -6.486-26.967 -19.456-41.986l 0.512,0 c-19.114-22.528 -40.106-42.496 -62.976-59.904l-18.944-14.336c 13.994-8.534 25.941-16.47 35.839-23.808s 17.92-13.909 24.064-19.711c 22.87-21.846 34.304-44.886 34.304-69.12c0-26.624 -11.946-48.298 -35.84-65.024
c-21.846-15.018 -46.251-22.528 -73.217-22.528c-27.306,0 -51.2,7.68 -71.68,23.040c-22.528,16.726 -33.792,38.571 -33.792,65.537c0,20.48 8.022,42.154 24.064,65.024c 9.558,13.312 23.382,29.014 41.472,47.104c-21.504,20.822 -32.256,41.131 -32.256,60.929c0,21.504 7.338,42.154 22.016,61.952c 16.042,21.162 34.474,31.744 55.296,31.744
c 14.678,0 30.038-7.338 46.080-22.016l 17.92-15.872c 4.778-4.096 8.362-6.998 10.752-8.704c 6.144,5.12 10.582,12.118 13.312,20.992l0-1.024 c 0.342,2.39 0.683,4.95 1.025,7.68s 0.683,5.802 1.025,9.216c 13.654,0 20.48-9.728 20.48-29.184zM 180.224,167.678c0,26.624 -27.647,53.588 -82.943,80.895
c-46.762-41.642 -70.314-74.41 -70.656-98.304c-0.342-15.018 7.509-27.477 23.551-37.375c 13.654-8.192 28.672-12.288 45.056-12.288c 21.504,0 40.618,5.462 57.344,16.384c 18.432,12.63 27.648,29.355 27.648,50.177l0,0.512 zM 129.025,318.205l 25.857,24.064c 6.314,6.144 10.325,10.41 12.031,12.8
c-9.898,15.702 -16.896,25.771 -20.992,30.209c-5.802,5.802 -13.482,8.704 -23.040,8.704c-13.994,0 -27.648-9.728 -40.96-29.184l0,0.512 c-10.922-17.066 -16.384-30.378 -16.384-39.936c0-8.534 2.73-17.067 8.192-25.601s 11.264-12.8 17.408-12.8c 1.024,0 13.654,10.582 37.888,31.744l0-0.512 zM 117.761,269.053l 1.024-1.024l0,0.512 z" horiz-adv-x="243.2"  />
<glyph unicode="&#x5c;" d="M 190.976,379.136c-2.048-1.366 -3.925-7.51 -5.631-18.433l-15.872-116.224c-2.39-17.75 -4.182-35.755 -5.376-54.017s-1.792-37.12 -1.792-56.576l0-15.872 c0-3.754 0.17-6.485 0.512-8.191c 0.682-3.754 3.925-14.336 9.727-31.744c-2.73-4.096 -5.632-6.656 -8.704-7.68l-3.584,8.704
c-3.754-1.366 -7.338-3.755 -10.752-7.169c-11.946,5.12 -18.261,23.894 -18.943,56.32c0,7.168 0.512,18.262 1.536,33.28c 1.024,14.678 1.536,25.771 1.536,33.281c-5.12,0 -11.776-1.194 -19.968-3.584s-14.848-3.584 -19.968-3.584c-27.99,0 -50.347,7.168 -67.073,21.504c-17.75,14.678 -26.624,36.011 -26.624,64.001
c0,25.942 9.216,54.614 27.648,86.016c 21.504,36.522 44.202,54.784 68.096,54.784c 5.462,0 23.382-9.558 53.76-28.672c 0.682,10.922 3.925,16.384 9.727,16.384c 3.414,0 6.827-1.194 10.241-3.584c 16.042-3.072 24.064-8.022 24.064-14.848zM 147.969,350.975c-0.342,1.366 -5.292,6.486 -14.849,15.361
c-10.922,10.582 -20.48,15.872 -28.672,15.872c-16.726,0 -33.28-16.726 -49.664-50.176c-15.018-30.72 -22.528-56.32 -22.528-76.8l0-1.024 c0-25.942 18.262-38.912 54.784-38.912c 3.414,0 7.339,0.256 11.777,0.768s 9.387,1.45 14.849,2.816l-0.512,0 c 10.24,2.73 17.238,5.973 20.992,9.727zM 155.648,70.4c-4.778,0 -6.826,0.512 -6.144,1.536
c 0.342-0.682 2.39-1.194 6.144-1.536z" horiz-adv-x="198.144"  />
<glyph unicode="&#x5d;" d="M 197.12,246.528c0-36.522 -8.535-73.215 -25.601-110.079c-21.162-44.032 -48.298-66.048 -81.408-66.048c-17.066,0 -33.621,4.95 -49.663,14.848c-15.36,9.898 -25.942,22.869 -31.744,38.911c-5.802,15.36 -8.704,38.058 -8.704,68.096c0,38.912 6.656,80.214 19.968,123.904c 17.75,58.368 41.643,87.552 71.681,87.552
c 8.192,0 22.186-5.462 41.984-16.384l 37.376-20.992c 6.486-2.39 12.63-20.992 18.432-55.808c 5.12-29.354 7.68-50.688 7.68-64zM 177.151,266.497c0,29.354 -4.95,54.443 -14.848,75.265c-12.97,26.624 -32.597,39.936 -58.879,39.936c-22.87,0 -42.155-29.184 -57.857-87.552c-12.288-46.080 -18.432-84.992 -18.432-116.736
c0-22.87 3.926-42.667 11.776-59.393c 10.24-21.504 25.77-32.256 46.592-32.256c 32.086,0 56.662,23.552 73.728,70.656c 11.946,34.816 17.92,71.51 17.92,110.080z" horiz-adv-x="229.376"  />
<glyph unicode="&#x5e;" d="M 58.368,365.824c0-4.778 -1.194-10.583 -3.583-17.409c-2.73-8.192 -4.266-13.994 -4.608-17.408c-5.802-47.104 -10.24-88.406 -13.312-123.904s-4.608-65.536 -4.608-90.112c0-10.922 0.256-20.992 0.768-30.208s 1.45-17.238 2.816-24.064c0-2.048 -2.39-3.072 -7.168-3.072c-15.702,0 -23.552,9.046 -23.552,27.136
c0,9.898 0.682,23.296 2.048,40.192s 3.414,37.632 6.144,62.208c 5.12,45.738 7.168,75.264 6.144,88.576c-7.168,5.462 -10.752,10.923 -10.752,16.385c0,9.216 2.73,22.528 8.192,39.936c 2.73,9.898 4.949,18.346 6.655,25.344s 2.73,12.715 3.072,17.153c 4.096,1.366 8.534,2.048 13.312,2.048c 12.288,0 18.432-4.266 18.432-12.8z" horiz-adv-x="86.016"  />
<glyph unicode="&#x5f;" d="M 190.976,79.104c0-7.51 -3.070-11.263 -9.214-11.263c 3.414,0 4.95,0.086 4.608,0.256s-1.963,0.341 -4.865,0.511s-6.912,0.426 -12.032,0.768s-10.752,0.512 -16.896,0.512c-6.826,0.342 -12.97,0.512 -18.432,0.512l-14.848,0 c-6.826,0 -14.933-0.598 -24.319-1.792
s-20.053-2.986 -31.999-5.376c-23.552-5.12 -39.766-7.68 -48.64-7.68c-15.36,0 -23.040,6.486 -23.040,19.456c0,2.39 4.438,6.486 13.312,12.288c 5.802,3.414 10.581,6.486 14.335,9.216s 6.485,4.949 8.191,6.655c 13.994,15.702 26.709,32.427 38.143,50.177s 21.93,36.523 31.488,56.321
c 21.846,44.714 32.768,85.333 32.768,121.855c0,13.654 -4.778,24.576 -14.336,32.768s-21.504,12.288 -35.84,12.288c-11.264,0 -19.030-4.864 -23.296-14.592s-8.448-25.856 -12.544-48.384l-6.912-36.608c-1.536-8.362 -2.474-12.885 -2.816-13.567c-4.778-20.48 -11.264-30.72 -19.456-30.72c-8.534,0 -12.8,5.974 -12.8,17.92
c0,5.802 1.878,16.725 5.632,32.767c 1.706,6.826 3.84,14.421 6.4,22.783s 5.546,17.322 8.96,26.88c 7.85,22.186 14.848,37.717 20.992,46.591c 5.462,8.192 14.166,12.288 26.112,12.288c 22.87,0 43.35-6.826 61.44-20.48c 20.48-15.018 30.72-33.45 30.72-55.296c0-32.086 -14.848-72.704 -44.544-121.856
c-11.946-19.798 -24.49-38.486 -37.632-56.064s-27.051-34.389 -41.729-50.431c 26.624,1.024 52.224,1.536 76.8,1.536c 4.096,0 9.814-0.256 17.152-0.768s 16.298-1.45 26.88-2.816c 21.504-2.73 32.256-4.949 32.256-6.655z" horiz-adv-x="205.824"  />
<glyph unicode="&#x60;" d="M 176.64,161.024c0-31.062 -8.705-57.343 -26.113-78.847c-19.114-22.528 -43.69-33.792 -73.728-33.792c-21.162,0 -42.154,8.362 -62.976,25.088c-17.408,14.678 -26.112,25.771 -26.112,33.281c0,12.97 2.73,19.626 8.192,19.968c 2.39,0 4.267-0.682 5.633-2.048
c 1.706-1.706 3.84-4.522 6.4-8.448s 5.546-9.131 8.96-15.617c 6.486-12.63 11.435-20.31 14.849-23.040c 10.24-9.216 24.064-13.824 41.472-13.824c 20.48,0 38.4,11.264 53.76,33.792c 13.654,20.822 20.48,41.984 20.48,63.488c0,12.97 -2.39,25.088 -7.168,36.352c-6.826,14.336 -15.872,21.504 -27.136,21.504l-49.664-11.776
c-5.12,1.366 -7.68,4.95 -7.68,10.752c0,6.144 2.56,11.776 7.68,16.896s 10.752,7.68 16.896,7.68c 1.706,0 3.498-0.086 5.376-0.256s 4.182-0.426 6.912-0.768c 4.438-0.342 7.851-0.342 10.241,0c 10.24,8.192 18.262,21.846 24.064,40.96c 4.778,16.384 7.168,32.426 7.168,48.128c0,31.402 -12.8,47.104 -38.4,47.104
c-16.726,0 -28.331-4.778 -34.817-14.336c-5.12-7.85 -7.68-20.65 -7.68-38.4c0-56.662 -8.362-84.992 -25.088-84.992c-5.12,0 -9.216,3.414 -12.288,10.24c-2.73,6.144 -4.096,11.776 -4.096,16.896c0,19.114 6.656,45.397 19.968,78.847c 6.144,15.36 12.458,26.282 18.944,32.768c 8.874,8.874 20.309,13.312 34.303,13.312
c 20.822,0 38.571-4.95 53.249-14.848c 16.384-11.264 24.576-27.136 24.576-47.616c0-30.72 -15.36-62.634 -46.080-95.744c 19.114-8.874 33.28-17.92 42.496-27.136c 11.606-11.946 17.408-27.136 17.408-45.568z" horiz-adv-x="208.384"  />
<glyph unicode="&#x61;" d="M 217.088,171.776c0-7.51 -8.534-11.267 -25.6-11.267l-7.68,0 c-3.072,0 -7.338,0.17 -12.8,0.512c-10.24,0.342 -18.432,0.342 -24.576,0c-1.024-5.802 -1.792-11.946 -2.304-18.432s-0.938-13.312 -1.28-20.48c-0.342-8.874 -0.512-15.872 -0.512-20.992c0-4.778 -0.17-8.021 -0.512-9.727
c-0.682-6.144 1.024-14.506 5.12-25.088c 4.438-10.922 6.656-15.701 6.656-14.335c0-2.39 -4.608-3.584 -13.824-3.584c-12.63,0 -18.944,12.8 -18.944,38.4c0,3.414 0.086,7.424 0.256,12.032s 0.426,10.154 0.768,16.64s 0.598,12.118 0.768,16.896s 0.256,8.874 0.256,12.288s-0.086,6.571 -0.256,9.473
s-0.426,5.547 -0.768,7.937c-15.702,1.024 -33.451-0.682 -53.249-5.12c-14.336-3.072 -26.112-5.462 -35.328-7.168s-15.702-2.73 -19.456-3.072c-13.312,16.726 -19.968,27.819 -19.968,33.281c0,4.096 5.974,15.19 17.92,33.28c 8.534,12.63 15.958,24.15 22.272,34.56l 16.128,27.392c 11.606,21.504 28.16,47.958 49.664,79.36
c 2.73,3.754 5.376,7.68 7.936,11.776l 7.936,12.288c 7.51,10.582 14.166,16.214 19.968,16.896c 6.144-0.682 13.824-4.266 23.040-10.752c 9.216-6.826 13.824-12.8 13.824-17.92c0-2.73 -1.366-9.216 -4.096-19.456c-1.706-5.462 -2.901-9.984 -3.583-13.568l-1.536-7.936c-11.264-83.626 -16.896-131.754 -16.896-144.384
l 57.856-1.536c 8.534-0.342 12.8-3.072 12.8-8.192zM 133.12,362.237c-4.778-2.73 -14.507-15.017 -29.185-36.863l-21.76-32c-5.29-7.68 -8.618-12.374 -9.984-14.080c-10.922-13.994 -22.016-33.109 -33.28-57.343c-9.898-21.846 -14.848-35.499 -14.848-40.961
c0-4.778 4.778-7.168 14.336-7.168c 4.778,0 11.776,0.512 20.992,1.536c 4.778,0.682 8.874,1.194 12.288,1.536s 6.315,0.512 8.705,0.512s 5.462,0.086 9.216,0.256s 8.021,0.426 12.799,0.768c 9.558,1.024 16.896,1.536 22.016,1.536c 1.024,26.966 3.072,58.71 6.144,95.232c 1.706,21.162 2.73,38.997 3.072,53.503
s 0.171,25.685 -0.511,33.535z" horiz-adv-x="239.104"  />
<glyph unicode="&#x62;" d="M 189.952,158.464c0-31.062 -10.070-56.149 -30.209-75.263c-20.138-18.432 -45.909-27.648 -77.311-27.648c-16.042,0 -34.474,3.584 -55.296,10.752c-26.282,8.192 -39.424,18.602 -39.424,31.232c0,6.144 4.608,9.216 13.824,9.216c 3.754,0 13.653-5.974 29.695-17.92c 15.702-11.606 29.355-17.408 40.961-17.408
c 27.306,0 49.664,10.070 67.072,30.208c 16.384,18.774 24.576,42.155 24.576,70.145c0,18.090 -4.266,32.085 -12.8,41.983c-9.898,11.264 -23.21,16.896 -39.936,16.896c-14.336,0 -28.672-3.584 -43.008-10.752c-3.414-1.706 -8.278-4.437 -14.592-8.191s-14.25-8.874 -23.808-15.36c-3.754,0 -7.85,3.072 -12.288,9.216
c-4.438,6.486 -6.656,11.776 -6.656,15.872s 0.256,9.216 0.768,15.36s 1.45,13.312 2.816,21.504s 2.304,15.36 2.816,21.504s 0.768,11.264 0.768,15.36l0,33.28 c0,6.144 -0.17,6.998 -0.512,2.56c 0.342,15.36 2.39,26.966 6.144,34.816c 1.366,3.072 25.088,6.998 71.168,11.776c 32.086,3.072 52.907,4.608 62.465,4.608c 12.63,0 19.968-1.536 22.016-4.608
c0-3.414 -3.242-7.339 -9.728-11.777c-6.144-4.096 -11.094-6.486 -14.848-7.168c-30.038-2.73 -50.176-4.778 -60.416-6.144c-26.966-3.754 -43.179-8.362 -48.641-13.824c-3.754-27.648 -6.656-50.090 -8.704-67.328s-3.072-29.611 -3.072-37.121c 2.048,0.682 5.546,1.792 10.496,3.328
s 11.35,3.67 19.2,6.4c 11.946,4.438 20.65,6.656 26.112,6.656c 27.306,0 50.858-8.534 70.656-25.6c 19.798-16.726 29.696-38.912 29.696-66.56z" horiz-adv-x="222.72"  />
<glyph unicode="&#x63;" d="M 186.368,176.384c0-27.99 -7.511-52.395 -22.53-73.217c-17.066-22.528 -39.253-33.45 -66.559-32.768c-32.426,0 -57.002,10.922 -73.728,32.768c-15.702,19.798 -23.552,46.080 -23.552,78.848c0,35.158 8.192,79.19 24.576,132.096c 19.798,65.536 43.008,98.304 69.632,98.304c 8.192,0 20.48-3.414 36.864-10.24
s 26.624-13.141 30.72-18.943c 7.51-10.582 11.264-23.894 11.264-39.936c0-10.922 -2.902-24.576 -8.704-40.96c-10.582,0 -17.067,3.072 -19.457,9.216c-1.706,4.096 -2.56,11.946 -2.56,23.552c0,19.114 -1.194,32.085 -3.584,38.911c-4.778,12.97 -13.653,19.456 -26.623,19.456c-11.606,0 -22.528-8.704 -32.768-26.112
c-2.39-4.778 -5.462-10.581 -9.216-17.407l-13.312-24.064c-12.63-21.504 -21.504-52.736 -26.624-93.696c 25.942,26.624 50.347,39.936 73.217,39.936c 24.918,0 45.227-9.898 60.929-29.696c 14.678-18.090 22.016-40.106 22.016-66.048zM 161.79,184.576c0,19.456 -4.607,35.841 -13.823,49.153
c-10.24,14.678 -24.746,22.016 -43.52,22.016c-26.624,0 -46.762-9.386 -60.416-28.16c-12.63-16.726 -18.944-38.571 -18.944-65.537c0-51.542 23.382-77.312 70.144-77.312c 20.138,0 36.693,12.118 49.663,36.352c 11.264,20.48 16.896,41.642 16.896,63.488z" horiz-adv-x="216.576"  />
<glyph unicode="&#x64;" d="M 170.496,394.496c0-4.778 -2.388-10.069 -7.167-15.871c-8.192-9.898 -14.166-18.090 -17.92-24.576c-79.872-136.874 -119.808-224.938 -119.808-264.192c0-4.778 0.682-8.362 2.048-10.752c-16.384,0 -24.576,3.754 -24.576,11.264c0,21.162 19.286,74.24 57.856,159.232l 57.856,127.488c0,4.438 -6.826,6.656 -20.48,6.656
c-4.778,0 -11.264-0.342 -19.456-1.024s-18.090-1.706 -29.696-3.072c-5.12-0.682 -10.496-1.706 -16.128-3.072s-11.69-3.243 -18.176-5.633l-17.92-7.168c-5.462,0 -8.192,3.926 -8.192,11.776c0,10.24 6.998,17.238 20.992,20.992c 2.73,0.682 8.192,1.536 16.384,2.56l 32.768,4.096c 19.798,2.39 37.462,4.096 52.992,5.12
s 28.757,1.536 39.679,1.536c 3.754,0 10.069-5.12 18.943-15.36z" horiz-adv-x="174.080"  />
<glyph unicode="&#x65;" d="M 221.184,387.328c0-12.63 -6.314-25.942 -18.943-39.937c-10.922-12.63 -21.76-23.979 -32.512-34.049s-21.418-19.030 -32-26.88c-15.018-11.264 -22.528-17.578 -22.528-18.944c0-1.024 0.17-1.706 0.512-2.048c 30.038-18.774 51.371-34.134 64.001-46.080
c 22.87-21.846 34.304-44.374 34.304-67.584c0-25.258 -12.118-46.421 -36.352-63.487c-21.846-15.018 -45.91-22.528 -72.192-22.528c-26.624,0 -50.346,7.68 -71.168,23.040c-22.87,16.726 -34.304,38.059 -34.304,64.001c0,20.138 8.022,41.301 24.064,63.487c 4.778,6.826 11.093,14.506 18.943,23.040
s 17.237,18.091 28.159,28.673c-24.234,22.186 -36.352,43.008 -36.352,62.464c0,21.162 7.338,41.301 22.016,60.415c 15.702,20.822 33.622,31.232 53.76,31.232c 12.97,0 27.818-7.338 44.544-22.016c 18.774-16.042 30.208-24.917 34.304-26.623c 9.558,7.168 15.702,15.702 18.432,25.6c 0.342,2.048 0.598,4.096 0.768,6.144
s 0.426,4.266 0.768,6.656c 7.85,0 11.776-8.192 11.776-24.576zM 175.105,358.143c-12.97,19.798 -20.992,31.402 -24.064,34.816c-6.826,6.826 -16.042,10.24 -27.648,10.24c-17.066,0 -32.768-10.582 -47.104-31.744c-11.946-18.090 -17.92-32.768 -17.92-44.032c0-8.534 3.242-17.75 9.728-27.648c 6.486-11.264 13.824-16.896 22.016-16.896
c 3.414,0 17.92,11.264 43.52,33.792c 25.6,22.87 39.424,36.694 41.472,41.472zM 188.417,164.607c 0.682,31.402 -30.208,61.44 -92.672,90.112c-51.882-44.714 -77.994-80.554 -78.336-107.52c0-17.75 8.874-31.915 26.624-42.497c 15.018-8.874 31.914-13.312 50.688-13.312c 23.894,0 44.886,6.144 62.976,18.432
c 20.48,13.654 30.72,31.915 30.72,54.785z" horiz-adv-x="254.464"  />
<glyph unicode="&#x66;" d="M 193.536,387.328c-4.096-2.73 -6.997-10.239 -8.703-22.527l-16.384-119.808c-3.414-27.648 -5.632-52.906 -6.656-75.776s-1.194-43.862 -0.512-62.976c0-3.072 3.242-13.824 9.728-32.256c-1.366-2.048 -2.902-3.414 -4.608-4.096c 0.682,0.342 -1.366,0.512 -6.144,0.512
c-14.678,0 -22.187,18.090 -22.529,54.272c0,7.85 0.512,19.797 1.536,35.839c 1.024,15.702 1.536,27.478 1.536,35.328c0,1.706 -1.706,2.56 -5.12,2.56c-4.778,0 -11.776-1.194 -20.992-3.584s-16.214-3.584 -20.992-3.584c-27.99,0 -50.176,6.656 -66.56,19.968c-18.090,15.018 -27.136,36.010 -27.136,62.976c0,24.918 9.558,53.59 28.672,86.016
c 21.504,35.84 43.862,53.76 67.072,53.76c 5.802,0 26.282-11.094 61.44-33.28c0,13.654 1.706,20.48 5.12,20.48c 2.048,0 4.95-1.024 8.704-3.072c 15.018-2.73 22.528-6.314 22.528-10.752zM 155.649,353.537c0,3.072 -5.632,9.729 -16.896,19.969c-12.97,11.946 -24.234,17.92 -33.792,17.92c-19.456,0 -38.4-18.090 -56.832-54.272
c-16.384-32.426 -24.576-59.562 -24.576-81.408c-0.342-31.062 20.65-46.592 62.976-46.592c 7.85,0 17.578,1.366 29.184,4.096c 13.312,3.754 21.846,8.021 25.6,12.799z" horiz-adv-x="208.896"  />
<glyph unicode="&#x67;" d="M 39,384.5l 3,0 c 6.5,0 10.167-4 11-12c-1.833-8 -5.833-12 -12-12c-8,1.333 -12,5 -12,11l0,3 c 1.333,6.667 4.667,10 10,10zM 68,384.5l 6,0c 5.333-2.667 8-6.667 8-12c-1.833-8 -5.833-12 -12-12
c-8,1.667 -12,5.333 -12,11l0,3 c 1.333,6.667 4.667,10 10,10zM 97.001,384.5l 4,0c 6.667,0 10-4.667 10-14c-2.833-6.667 -6.833-10 -12-10c-8,1.667 -12,5.333 -12,11l0,3 c 1.333,6.667 4.667,10 10,10z
M 128.001,384.5l 1,0c 7.333-1.167 11-4.833 11-11c-0.667-8.667 -5-13 -13-13c-7.333,2.167 -11,5.833 -11,11l0,2 c0,6.667 4,10.334 12,11zM 156.001,384.5l 2,0 c 7.333-1.167 11-4.833 11-11
c-0.667-8.667 -5-13 -13-13c-7.333,2.167 -11,5.833 -11,11l0,2 c 1.167,7.333 4.833,11 11,11zM 189.5,384.5l 3,0c 6.667-1.333 10-4.667 10-10l0-3 c0-7.333 -4.667-11 -14-11c-6.667,2.833 -10,6.833 -10,12
c 1.333,8 5,12 11,12zM 218.5,384.5l 3,0c 6.667-1.333 10-4.667 10-10l0-3 c0-7.333 -4.667-11 -14-11c-6.667,2.667 -10,7 -10,13c 1.5,7.333 5.167,11 11,11zM 10.001,355.5l 3,0c 7.333,0 11-4.333 11-13
c0-5.667 -4.333-9.334 -13-11c-7.333,1.333 -11,5 -11,11l0,3 c 1.333,6.667 4.667,10 10,10zM 39.001,355.5l 3,0 c 6.167,0 9.834-4 11-12c0-6.667 -4.333-10.667 -13-12c-7.333,1.5 -11,5.167 -11,11l0,3 c 1.333,6.667 4.667,10 10,10
zM 68.001,355.5l 3,0 c 7.333,0 11-4.667 11-14c-2.5-6.667 -6.833-10 -13-10c-7.333,1.5 -11,5.167 -11,11l0,3 c 1.333,6.667 4.667,10 10,10zM 97.001,355.5l 3,0c 7.333,0 11-4.667 11-14c-2.5-6.667 -6.833-10 -13-10
c-7.333,2.167 -11,5.833 -11,11l0,3 c 1.333,6.667 4.667,10 10,10zM 128.001,355.5l 1,0c 7.333-1.167 11-4.833 11-11c-0.667-8.667 -5-13 -13-13c-7.333,2.167 -11,5.833 -11,11l0,2 c0,6.667 4,10.334 12,11z
M 156.001,355.498l 2,0 c 7.333-1.167 11-4.833 11-11c-0.667-8.667 -5-13 -13-13c-7.333,2.167 -11,5.833 -11,11l0,2 c 1.167,7.333 4.833,11 11,11zM 189.501,355.498l 3,0c 6.667-1.333 10-4.667 10-10l0-3 
c0-7.333 -4.667-11 -14-11c-6.667,2.833 -10,6.833 -10,12c 1.333,8 5,12 11,12zM 218.501,355.498l 3,0c 6.667-1.333 10-4.667 10-10l0-3 c0-7.333 -4.667-11 -14-11c-6.667,2.667 -10,7 -10,13c 1.5,7.333 5.167,11 11,11z
M 247.501,355.498l 3,0c 6.667-1.333 10-4.667 10-10l0-6 c-2.167-5.333 -6.833-8 -14-8c-6.667,2.833 -10,6.833 -10,12c 1.667,8 5.333,12 11,12zM 10.001,326.498l 3,0 c 6.167,0 9.834-4.333 11-13
c-2.333-7.333 -6.333-11 -12-11c-5.333,0 -9.333,2.667 -12,8l0,6 c 1.333,6.667 4.667,10 10,10zM 39.001,326.498l 3,0 c 6.167,0 9.834-4 11-12c-1.833-8 -5.833-12 -12-12c-8,0.833 -12,4.5 -12,11l0,3 
c 1.333,6.667 4.667,10 10,10zM 68.001,326.498l 3,0 c 7.333,0 11-4.667 11-14c-2.833-6.667 -6.833-10 -12-10c-8,0.833 -12,4.5 -12,11l0,3 c 1.333,6.667 4.667,10 10,10zM 97.001,326.498l 3,0 c 7.333,0 11-4.333 11-13
c0-5.5 -4-9.167 -12-11c-8,1.333 -12,5 -12,11l0,1 c 0.667,8 4,12 10,12zM 126.001,326.498l 4,0 c 5.333,0 8.666-3.667 10-11c-0.833-8.667 -5.167-13 -13-13c-7.333,2.333 -11,6 -11,11l0,1 c 0.667,8 4,12 10,12zM 155.001,326.498l 4,0 
c 5.333,0 8.666-3.667 10-11c-0.833-8.667 -5.167-13 -13-13c-6.333,0 -10,4.667 -11,14c 1.5,6.667 4.833,10 10,10zM 186.501,326.498l 6,0 c 6.667-1.333 10-4.667 10-10l0-3 c0-6.167 -4.333-9.834 -13-11
c-5.667,0 -9.334,4.333 -11,13c0,4.5 2.667,8.167 8,11zM 218.501,326.498l 3,0c 6.667-1.333 10-4.667 10-10l0-3 c0-7.333 -4.333-11 -13-11c-5.667,0 -9.334,4.333 -11,13c 1.333,7.333 5,11 11,11zM 247.502,326.498
l 3,0c 6.667-1.333 10-4.667 10-10l0-3 c0-7.333 -4.333-11 -13-11c-7.333,2.333 -11,6.333 -11,12c 1.333,8 5,12 11,12zM 10.002,297.497l 3,0c 7.333,0 11-4.333 11-13c0-5.667 -4.333-9.334 -13-11
c-7.333,1.333 -11,5 -11,11l0,3 c 1.333,6.667 4.667,10 10,10zM 39.002,297.498l 3,0 c 6.5,0 10.167-4 11-12c-1.833-8 -5.833-12 -12-12c-8,1.333 -12,5 -12,11l0,3 c 1.333,6.667 4.667,10 10,10zM 68.002,297.498l 6,0
c 5.333-2.667 8-6.667 8-12c-1.833-8 -5.833-12 -12-12c-8,1.667 -12,5.333 -12,11l0,3 c 1.333,6.667 4.667,10 10,10zM 189.502,297.497l 3,0c 6.667-1.333 10-4.667 10-10l0-3 c0-6 -4-9.667 -12-11
c-8,1.833 -12,5.833 -12,12c 0.833,8 4.5,12 11,12zM 218.502,297.497l 3,0c 6.667-1.333 10-4.667 10-10l0-3 c0-6 -4-9.667 -12-11c-6.667,0 -10.667,4.333 -12,13c 1.5,7.333 5.167,11 11,11zM 247.502,297.497l 3,0
c 6.667-1.333 10-4.667 10-10l0-3 c0-6.5 -4-10.167 -12-11c-8,1.833 -12,5.833 -12,12c 1.333,8 5,12 11,12zM 10.002,268.496l 3,0c 7.333,0 11-4.333 11-13c0-5.667 -4.333-9.334 -13-11c-7.333,1.333 -11,5 -11,11
l0,3 c 1.333,6.667 4.667,10 10,10zM 39.003,268.497l 3,0 c 6.167,0 9.834-4 11-12c0-6.667 -4.333-10.667 -13-12c-7.333,1.5 -11,5.167 -11,11l0,3 c 1.333,6.667 4.667,10 10,10zM 68.003,268.497l 3,0 c 7.333,0 11-4.667 11-14
c-2.5-6.667 -6.833-10 -13-10c-7.333,1.5 -11,5.167 -11,11l0,3 c 1.333,6.667 4.667,10 10,10zM 189.503,268.497l 3,0c 6.667-1.333 10-4.667 10-10l0-3 c0-7.333 -4.667-11 -14-11c-6.667,2.833 -10,6.833 -10,12
c 1.333,8 5,12 11,12zM 218.503,268.496l 3,0c 6.667-1.333 10-4.667 10-10l0-3 c0-7.333 -4.667-11 -14-11c-6.667,2.667 -10,7 -10,13c 1.5,7.333 5.167,11 11,11zM 247.503,268.496l 3,0c 6.667-1.333 10-4.667 10-10
l0-6 c-2.167-5.333 -6.833-8 -14-8c-6.667,2.833 -10,6.833 -10,12c 1.667,8 5.333,12 11,12zM 10.003,239.496l 3,0 c 6.167,0 9.834-4.333 11-13c-2.333-7.333 -6.333-11 -12-11c-5.333,0 -9.333,2.667 -12,8l0,6 
c 1.333,6.667 4.667,10 10,10zM 39.003,239.496l 3,0 c 6.167,0 9.834-4 11-12c-1.833-8 -5.833-12 -12-12c-8,0.833 -12,4.5 -12,11l0,3 c 1.333,6.667 4.667,10 10,10zM 68.003,239.496l 3,0 c 7.333,0 11-4.667 11-14
c-2.833-6.667 -6.833-10 -12-10c-8,0.833 -12,4.5 -12,11l0,3 c 1.333,6.667 4.667,10 10,10zM 189.503,239.496l 3,0c 6.667-1.333 10-4.667 10-10l0-3 c0-7.333 -4.667-11 -14-11c-6.667,2.833 -10,6.833 -10,12
c 1.333,8 5,12 11,12zM 218.503,239.496l 3,0c 6.667-1.333 10-4.667 10-10l0-3 c0-7.333 -4.667-11 -14-11c-6.667,2.667 -10,7 -10,13c 1.5,7.333 5.167,11 11,11zM 247.503,239.495l 3,0c 6.667-1.333 10-4.667 10-10
l0-6 c-2.167-5.333 -6.833-8 -14-8c-6.667,2.833 -10,6.833 -10,12c 1.667,8 5.333,12 11,12zM 10.003,210.495l 3,0c 7.333,0 11-4.333 11-13c0-5.667 -4.333-9.334 -13-11c-7.333,1.333 -11,5 -11,11l0,3 
c 1.333,6.667 4.667,10 10,10zM 39.004,210.495l 3,0 c 6.5,0 10.167-4 11-12c-1.833-8 -5.833-12 -12-12c-8,1.333 -12,5 -12,11l0,3 c 1.333,6.667 4.667,10 10,10zM 68.004,210.495l 6,0c 5.333-2.667 8-6.667 8-12
c-1.833-8 -5.833-12 -12-12c-8,1.667 -12,5.333 -12,11l0,3 c 1.333,6.667 4.667,10 10,10zM 186.504,210.495l 6,0 c 6.667-1.333 10-4.667 10-10l0-3 c0-6.167 -4.333-9.834 -13-11c-5.667,0 -9.334,4.333 -11,13
c0,4.5 2.667,8.167 8,11zM 218.504,210.495l 3,0c 6.667-1.333 10-4.667 10-10l0-3 c0-7.333 -4.333-11 -13-11c-5.667,0 -9.334,4.333 -11,13c 1.333,7.333 5,11 11,11zM 247.505,210.495l 3,0
c 6.667-1.333 10-4.667 10-10l0-3 c0-7.333 -4.333-11 -13-11c-7.333,2.333 -11,6.333 -11,12c 1.333,8 5,12 11,12zM 10.005,181.495l 3,0c 7.333,0 11-4.333 11-13c0-5.667 -4.333-9.334 -13-11
c-7.333,1.333 -11,5 -11,11l0,3 c 1.333,6.667 4.667,10 10,10zM 39.005,181.495l 3,0 c 6.167,0 9.834-4 11-12c0-6.667 -4.333-10.667 -13-12c-7.333,1.5 -11,5.167 -11,11l0,3 c 1.333,6.667 4.667,10 10,10zM 68.005,181.495l 3,0 
c 7.333,0 11-4.667 11-14c-2.5-6.667 -6.833-10 -13-10c-7.333,1.5 -11,5.167 -11,11l0,3 c 1.333,6.667 4.667,10 10,10zM 189.505,181.495l 3,0c 6.667-1.333 10-4.667 10-10l0-3 c0-6 -4-9.667 -12-11c-8,1.833 -12,5.833 -12,12
c 0.833,8 4.5,12 11,12zM 218.505,181.495l 3,0c 6.667-1.333 10-4.667 10-10l0-3 c0-6 -4-9.667 -12-11c-6.667,0 -10.667,4.333 -12,13c 1.5,7.333 5.167,11 11,11zM 247.505,181.495l 3,0c 6.667-1.333 10-4.667 10-10l0-3 
c0-6.5 -4-10.167 -12-11c-8,1.833 -12,5.833 -12,12c 1.333,8 5,12 11,12zM 10.005,152.495l 3,0 c 6.167,0 9.834-4.333 11-13c-2.333-7.333 -6.333-11 -12-11c-5.333,0 -9.333,2.667 -12,8l0,6 c 1.333,6.667 4.667,10 10,10z
M 39.005,152.495l 3,0 c 6.167,0 9.834-4 11-12c-1.833-8 -5.833-12 -12-12c-8,0.833 -12,4.5 -12,11l0,3 c 1.333,6.667 4.667,10 10,10zM 68.005,152.495l 3,0 c 7.333,0 11-4.667 11-14c-2.833-6.667 -6.833-10 -12-10
c-8,0.833 -12,4.5 -12,11l0,3 c 1.333,6.667 4.667,10 10,10zM 97.005,152.495l 3,0 c 7.333,0 11-4.333 11-13c0-5.5 -4-9.167 -12-11c-8,1.333 -12,5 -12,11l0,1 c 0.667,8 4,12 10,12zM 128.005,152.495l 1,0
c 7.333-1.167 11-4.833 11-11c-0.667-8.667 -5-13 -13-13c-7.333,2.167 -11,5.833 -11,11l0,2 c0,6.667 4,10.334 12,11zM 156.005,152.494l 2,0 c 7.333-1.167 11-4.833 11-11c-0.667-8.667 -5-13 -13-13
c-7.333,2.167 -11,5.833 -11,11l0,2 c 1.167,7.333 4.833,11 11,11zM 189.505,152.494l 3,0c 6.667-1.333 10-4.667 10-10l0-3 c0-7.333 -4.667-11 -14-11c-6.667,2.833 -10,6.833 -10,12c 1.333,8 5,12 11,12zM 218.505,152.494
l 3,0c 6.667-1.333 10-4.667 10-10l0-3 c0-7.333 -4.667-11 -14-11c-6.667,2.667 -10,7 -10,13c 1.5,7.333 5.167,11 11,11zM 247.505,152.494l 3,0c 6.667-1.333 10-4.667 10-10l0-6 
c-2.167-5.333 -6.833-8 -14-8c-6.667,2.833 -10,6.833 -10,12c 1.667,8 5.333,12 11,12zM 10.005,123.493l 3,0c 7.333,0 11-4.333 11-13c0-5.667 -4.333-9.334 -13-11c-7.333,1.333 -11,5 -11,11l0,3 
c 1.333,6.667 4.667,10 10,10zM 39.005,123.494l 3,0 c 6.5,0 10.167-4 11-12c-1.833-8 -5.833-12 -12-12c-8,1.333 -12,5 -12,11l0,3 c 1.333,6.667 4.667,10 10,10zM 68.005,123.494l 6,0c 5.333-2.667 8-6.667 8-12
c-1.833-8 -5.833-12 -12-12c-8,1.667 -12,5.333 -12,11l0,3 c 1.333,6.667 4.667,10 10,10zM 97.005,123.493l 4,0c 6.667,0 10-4.667 10-14c-2.833-6.667 -6.833-10 -12-10c-8,1.667 -12,5.333 -12,11l0,3 
c 1.333,6.667 4.667,10 10,10zM 126.006,123.493l 4,0 c 5.333,0 8.666-3.667 10-11c-0.833-8.667 -5.167-13 -13-13c-7.333,2.333 -11,6 -11,11l0,1 c 0.667,8 4,12 10,12zM 155.006,123.493l 4,0 c 5.333,0 8.666-3.667 10-11
c-0.833-8.667 -5.167-13 -13-13c-6.333,0 -10,4.667 -11,14c 1.5,6.667 4.833,10 10,10zM 186.506,123.493l 6,0 c 6.667-1.333 10-4.667 10-10l0-3 c0-6.167 -4.333-9.834 -13-11c-5.667,0 -9.334,4.333 -11,13
c0,4.5 2.667,8.167 8,11zM 218.506,123.493l 3,0c 6.667-1.333 10-4.667 10-10l0-3 c0-7.333 -4.333-11 -13-11c-5.667,0 -9.334,4.333 -11,13c 1.333,7.333 5,11 11,11zM 247.506,123.493l 3,0
c 6.667-1.333 10-4.667 10-10l0-3 c0-7.333 -4.333-11 -13-11c-7.333,2.333 -11,6.333 -11,12c 1.333,8 5,12 11,12zM 39.006,94.493l 3,0 c 6.167,0 9.834-4 11-12c0-6.667 -4.333-10.667 -13-12c-7.333,1.5 -11,5.167 -11,11l0,3 
c 1.333,6.667 4.667,10 10,10zM 68.006,94.493l 3,0 c 7.333,0 11-4.667 11-14c-2.5-6.667 -6.833-10 -13-10c-7.333,1.5 -11,5.167 -11,11l0,3 c 1.333,6.667 4.667,10 10,10zM 97.007,94.493l 3,0c 7.333,0 11-4.667 11-14
c-2.5-6.667 -6.833-10 -13-10c-7.333,2.167 -11,5.833 -11,11l0,3 c 1.333,6.667 4.667,10 10,10zM 126.007,94.493l 3,0 c 7.333-1.167 11-4.833 11-11c-0.833-8.667 -5.167-13 -13-13c-7.333,2.167 -11,5.833 -11,11l0,1 
c 0.667,8 4,12 10,12zM 155.006,94.493l 4,0c 5.333,0 8.666-3.667 10-11c-1-8.667 -5-13 -12-13c-8,1.667 -12,5.333 -12,11l0,2 c 1.333,7.333 4.667,11 10,11zM 189.507,94.492l 3,0
c 6.667-1.333 10-4.667 10-10l0-3 c0-6 -4-9.667 -12-11c-8,1.833 -12,5.833 -12,12c 0.833,8 4.5,12 11,12zM 218.507,94.492l 3,0c 6.667-1.333 10-4.667 10-10l0-3 c0-6 -4-9.667 -12-11c-6.667,0 -10.667,4.333 -12,13
c 1.5,7.333 5.167,11 11,11z" horiz-adv-x="320.25"  />
<glyph unicode="&#x68;" d="M 40.5,384.5l 2,0 c 5.667,0 9.334-4 11-12c0-5.667 -4-9.667 -12-12c-8,1.833 -12,5.833 -12,12l0,1 c 1.167,7.333 4.833,11 11,11zM 69.499,384.5l 2,0 c 5.667,0 9.334-4 11-12c-1.833-8 -5.833-12 -12-12
c-8,1.833 -12,5.833 -12,12l0,1 c 1.167,7.333 4.833,11 11,11zM 98.499,384.5l 2,0 c 6.5,0 10.167-4.667 11-14c-2.833-6.667 -6.833-10 -12-10c-8,1.833 -12,5.833 -12,12c 1.333,8 5,12 11,12zM 127.499,384.5l 2,0 c 7.333,0 11-4.667 11-14
c-2.833-6.667 -6.833-10 -12-10c-8,1.833 -12,5.833 -12,12c 1.667,8 5.333,12 11,12zM 11.499,355.5l 2,0 c 6,0 9.667-4.333 11-13c-2.333-7.333 -6.667-11 -13-11c-6.167,0 -9.834,4.333 -11,13
c 1.167,7.333 4.833,11 11,11zM 40.498,355.5l 2,0 c 5.667,0 9.334-4 11-12c0-6.667 -4.333-10.667 -13-12c-6.167,0 -9.834,4.333 -11,13c 1.167,7.333 4.833,11 11,11zM 69.498,355.5l 2,0 c 5.667,0 9.334-4 11-12
c0-6.667 -4.333-10.667 -13-12c-7.333,2.333 -11,6.333 -11,12l0,1 c 1.167,7.333 4.833,11 11,11zM 98.498,355.5l 2,0 c 6.5,0 10.167-4.667 11-14c-2.5-6.667 -6.833-10 -13-10c-7.333,2.333 -11,6.333 -11,12c 1.667,8 5.333,12 11,12z
M 127.498,355.5l 2,0 c 6.5,0 10.167-4.667 11-14c-2.5-6.667 -6.833-10 -13-10c-7.333,2.333 -11,6.333 -11,12c 1.667,8 5.333,12 11,12zM 11.497,326.5c 8.667-0.833 13-5.167 13-13c0-5.667 -4.333-9.334 -13-11
c-6.167,0 -9.834,4.333 -11,13c 1.167,7.333 4.833,11 11,11zM 40.497,326.5c 8.667-1 13-5 13-12c0-6.667 -4.333-10.667 -13-12c-6.167,0 -9.834,4.333 -11,13c 1.167,7.333 4.833,11 11,11zM 69.497,326.5l 2,0 
c 5.667,0 9.334-4 11-12c0-6.667 -4.333-10.667 -13-12c-6.167,0 -9.834,4.333 -11,13c0,5.5 3.667,9.167 11,11zM 98.497,326.5l 2,0 c 6.5,0 10.167-4.667 11-14c-2.5-6.667 -6.833-10 -13-10c-7.333,2.333 -11,6.333 -11,12
c 1.667,8 5.333,12 11,12zM 127.497,326.5l 2,0 c 6.5,0 10.167-4.667 11-14c-2.5-6.667 -6.833-10 -13-10c-7.333,2.333 -11,6.333 -11,12c 1.667,8 5.333,12 11,12zM 11.497,297.5l 2,0 c 6,0 9.667-4.333 11-13
c-2.333-7.333 -6.667-11 -13-11c-6.167,0 -9.834,4.333 -11,13c 1.167,7.333 4.833,11 11,11zM 40.496,297.5c 8.667-1 13-5 13-12c0-6.667 -4.333-10.667 -13-12c-6.167,0 -9.834,4.333 -11,13c 1.167,7.333 4.833,11 11,11
zM 69.496,297.5l 2,0 c 5.667,0 9.334-4 11-12c0-6.667 -4.333-10.667 -13-12c-6.167,0 -9.834,4.333 -11,13c0,5.5 3.667,9.167 11,11zM 98.496,297.5l 2,0 c 6.5,0 10.167-4.667 11-14c-2.5-6.667 -6.833-10 -13-10
c-7.333,2.333 -11,6.333 -11,12c 1.667,8 5.333,12 11,12zM 127.496,297.5l 2,0 c 6.5,0 10.167-4.667 11-14c-2.5-6.667 -6.833-10 -13-10c-7.333,2.333 -11,6.333 -11,12c 1.667,8 5.333,12 11,12zM 69.496,268.5l 2,0 
c 5.667,0 9.334-4 11-12c0-6.667 -4.333-10.667 -13-12c-7.333,2.333 -11,6.333 -11,12l0,1 c 1.167,7.333 4.833,11 11,11zM 98.496,268.5l 2,0 c 6.5,0 10.167-4.667 11-14c-2.5-6.667 -6.833-10 -13-10c-7.333,2.333 -11,6.333 -11,12
c 1.667,8 5.333,12 11,12zM 127.495,268.5l 2,0 c 6.5,0 10.167-4.667 11-14c-2.5-6.667 -6.833-10 -13-10c-7.333,2.333 -11,6.333 -11,12c 1.667,8 5.333,12 11,12zM 69.495,239.5l 2,0 c 5.667,0 9.334-4 11-12
c0-6.667 -4.333-10.667 -13-12c-6.167,0 -9.834,4.333 -11,13c0,5.5 3.667,9.167 11,11zM 98.495,239.5l 2,0 c 6.5,0 10.167-4.667 11-14c-2.5-6.667 -6.833-10 -13-10c-7.333,2.333 -11,6.333 -11,12c 1.667,8 5.333,12 11,12zM 127.495,239.5
l 2,0 c 6.5,0 10.167-4.667 11-14c-2.5-6.667 -6.833-10 -13-10c-7.333,2.333 -11,6.333 -11,12c 1.667,8 5.333,12 11,12zM 69.495,210.5l 2,0 c 5.667,0 9.334-4 11-12c-1.833-8 -5.833-12 -12-12c-8,1.833 -12,5.833 -12,12l0,1 
c 1.167,7.333 4.833,11 11,11zM 98.494,210.5l 2,0 c 6.5,0 10.167-4.667 11-14c-2.833-6.667 -6.833-10 -12-10c-8,1.833 -12,5.833 -12,12c 1.333,8 5,12 11,12zM 127.494,210.5l 2,0 c 7.333,0 11-4.667 11-14c-2.833-6.667 -6.833-10 -12-10
c-8,1.833 -12,5.833 -12,12c 1.667,8 5.333,12 11,12zM 69.494,181.5l 2,0 c 5.667,0 9.334-4 11-12c0-6.667 -4.333-10.667 -13-12c-6.167,0 -9.834,4.333 -11,13c0,5.5 3.667,9.167 11,11zM 98.494,181.5l 2,0 c 6.5,0 10.167-4.667 11-14
c-2.5-6.667 -6.833-10 -13-10c-7.333,2.333 -11,6.333 -11,12c 1.667,8 5.333,12 11,12zM 127.494,181.5l 2,0 c 6.5,0 10.167-4.667 11-14c-2.5-6.667 -6.833-10 -13-10c-7.333,2.333 -11,6.333 -11,12c 1.667,8 5.333,12 11,12z
M 11.493,152.5c 8.667-0.833 13-5.167 13-13c0-5.667 -4.333-9.334 -13-11c-6.167,0 -9.834,4.333 -11,13c 1.167,7.333 4.833,11 11,11zM 40.493,152.5c 8.667-1 13-5 13-12c0-6.667 -4.333-10.667 -13-12
c-6.167,0 -9.834,4.333 -11,13c 1.167,7.333 4.833,11 11,11zM 69.493,152.5l 2,0 c 5.667,0 9.334-4 11-12c0-6.667 -4.333-10.667 -13-12c-6.167,0 -9.834,4.333 -11,13c0,5.5 3.667,9.167 11,11zM 98.493,152.5l 2,0 
c 6.5,0 10.167-4.667 11-14c-2.5-6.667 -6.833-10 -13-10c-7.333,2.333 -11,6.333 -11,12c 1.667,8 5.333,12 11,12zM 127.493,152.5l 2,0 c 6.5,0 10.167-4.667 11-14c-2.5-6.667 -6.833-10 -13-10c-7.333,2.333 -11,6.333 -11,12
c 1.667,8 5.333,12 11,12zM 156.493,152.5l 2,0 c 5.5,0 9.167-3.667 11-11c-0.833-8.667 -5.167-13 -13-13c-5.667,0 -9.334,4.333 -11,13c 2.167,7.333 5.833,11 11,11zM 187.493,152.5c 7.333-1.167 11-4.833 11-11
c-0.833-8.667 -5.167-13 -13-13c-6.167,0 -9.834,4.667 -11,14c 2.333,6.667 6.667,10 13,10zM 11.493,123.5l 2,0 c 6,0 9.667-4.333 11-13c-2.333-7.333 -6.667-11 -13-11c-6.167,0 -9.834,4.333 -11,13
c 1.167,7.333 4.833,11 11,11zM 40.493,123.5l 2,0 c 5.667,0 9.334-4 11-12c0-5.667 -4-9.667 -12-12c-8,1.833 -12,5.833 -12,12l0,1 c 1.167,7.333 4.833,11 11,11zM 69.492,123.5l 2,0 c 5.667,0 9.334-4 11-12
c-1.833-8 -5.833-12 -12-12c-8,1.833 -12,5.833 -12,12l0,1 c 1.167,7.333 4.833,11 11,11zM 98.492,123.5l 2,0 c 6.5,0 10.167-4.667 11-14c-2.833-6.667 -6.833-10 -12-10c-8,1.833 -12,5.833 -12,12c 1.333,8 5,12 11,12zM 127.492,123.5
l 2,0 c 7.333,0 11-4.667 11-14c-2.833-6.667 -6.833-10 -12-10c-8,1.833 -12,5.833 -12,12c 1.667,8 5.333,12 11,12zM 156.492,123.5l 2,0c 7.333-1.167 11-4.833 11-11l0-1 c-1.667-8 -5.667-12 -12-12
c-6.5,0 -10.5,4.333 -12,13c 2.167,7.333 5.833,11 11,11zM 185.491,123.5l 2,0c 7.333-1.167 11-4.833 11-11l0-1 c-1.667-8 -5.667-12 -12-12c-8,2 -12,6.333 -12,13c 2.167,7.333 5.833,11 11,11zM 11.491,94.501l 2,0 
c 6,0 9.667-4.333 11-13c-2.333-7.333 -6.667-11 -13-11c-6.167,0 -9.834,4.333 -11,13c 1.167,7.333 4.833,11 11,11zM 40.491,94.501l 2,0 c 5.667,0 9.334-4 11-12c0-6.667 -4.333-10.667 -13-12
c-6.167,0 -9.834,4.333 -11,13c 1.167,7.333 4.833,11 11,11zM 69.49,94.501l 2,0 c 5.667,0 9.334-4 11-12c0-6.667 -4.333-10.667 -13-12c-7.333,2.333 -11,6.333 -11,12l0,1 c 1.167,7.333 4.833,11 11,11zM 98.49,94.501
l 2,0 c 6.5,0 10.167-4.667 11-14c-2.5-6.667 -6.833-10 -13-10c-7.333,2.333 -11,6.333 -11,12c 1.667,8 5.333,12 11,12zM 127.49,94.501l 2,0 c 6.5,0 10.167-4.667 11-14c-2.5-6.667 -6.833-10 -13-10c-7.333,2.333 -11,6.333 -11,12
c 1.667,8 5.333,12 11,12zM 156.489,94.501l 2,0c 7.333-1.167 11-4.833 11-11l0-1 c0-6.667 -4.333-10.667 -13-12c-5.667,0 -9.334,4.333 -11,13c 2.167,7.333 5.833,11 11,11zM 185.489,94.501l 2,0
c 7.333-1.167 11-4.833 11-11c-0.833-8.667 -5.167-13 -13-13c-5.667,0 -9.334,4.333 -11,13c 2.167,7.333 5.833,11 11,11z" horiz-adv-x="250.5"  />
</font>
</defs>
</svg>
