<?xml version="1.0" standalone="no"?>
<!DOCTYPE svg PUBLIC "-//W3C//DTD SVG 1.1//EN" "http://www.w3.org/Graphics/SVG/1.1/DTD/svg11.dtd" >
<svg xmlns="http://www.w3.org/2000/svg">
<metadata>
This is a custom SVG font generated by IcoMoon.
<iconset id="v96" name="v96" grid="16"></iconset>
</metadata>
<defs>
<font id="v96" horiz-adv-x="512" >
<font-face units-per-em="512" ascent="480" descent="-32" />
<missing-glyph horiz-adv-x="512" />
<glyph class="hidden" unicode="&#xf000;" d="M0,480L 512 -32L0 -32 z" horiz-adv-x="0" />
<glyph unicode="&#x30;" d="M 325.12,76.032l 147.456-108.032l-19.968,182.272l 167.936,73.728l-167.936,73.728l 19.968,182.272l-147.968-108.032l-147.456,108.032l 19.968-182.272l-167.424-73.728l 167.424-73.728l-19.968-182.272zM 261.12,188.16l-64,65.536l 88.064,13.824l 39.936,83.968l 39.424-83.968l 88.576-13.824l-64-65.536l 14.848-92.672l-78.848,44.032l-79.36-44.032z" horiz-adv-x="649.728"  />
<glyph unicode="&#x31;" d="M 325.12,76.032l 147.456-108.032l-19.968,182.272l 167.936,73.728l-167.936,73.728l 19.968,182.272l-147.968-108.032l-147.456,108.032l 19.968-182.272l-167.424-73.728l 167.424-73.728l-19.968-182.272zM 238.592,112.896l 7.167,40.96c 0.342,1.366 0.512,3.414 0.512,6.144c0,8.874 -2.048,18.176 -6.144,27.904s-9.558,18.006 -16.384,24.832l-19.968,19.968c-4.778,4.778 -7.168,9.386 -7.168,13.824
c0,10.922 9.728,17.749 29.184,20.479l 4.096,0.512c 13.654,2.048 26.71,6.742 39.168,14.080s 20.736,15.274 24.832,23.808l 16.384,33.792c 4.438,8.534 9.387,12.8 14.849,12.8c 5.12,0 9.898-4.266 14.336-12.8l 16.384-33.792c 4.096-8.192 12.374-16.042 24.832-23.552s 25.514-12.288 39.168-14.336l 4.096-0.512c 19.456-2.73 29.184-9.557 29.184-20.479
c0-4.438 -2.39-9.046 -7.168-13.824l-19.968-19.968c-6.826-6.826 -12.288-15.104 -16.384-24.832s-6.144-19.2 -6.144-28.416c0-2.39 0.17-4.267 0.512-5.633l 7.168-40.96c 2.048-11.264 -2.218-16.896 -12.8-16.896c-5.802,0 -12.629,2.048 -20.479,6.144l-14.336,7.68c-10.922,5.802 -23.722,8.704 -38.4,8.704
s-27.478-2.902 -38.4-8.704l-14.848-7.68c-4.778-2.73 -8.704-4.437 -11.776-5.119s-5.206-1.024 -6.4-1.024l-2.304,0 c-10.24,0 -14.506,5.632 -12.8,16.896z" horiz-adv-x="649.728"  />
<glyph unicode="&#x32;" d="M 208.384-14.592l 26.624,19.966c 19.114,13.994 41.813,20.992 68.095,20.992c 26.624,0 49.322-6.998 68.096-20.992l 27.136-19.968c 15.018-11.606 28.33-17.408 39.936-17.408c 14.336,0 21.504,8.874 21.504,26.624c-0.342,2.73 -0.512,4.778 -0.512,6.144l-7.68,72.704c-0.342,2.73 -0.512,4.778 -0.512,6.144
c0,17.75 7.594,36.267 22.784,55.553s 34.048,34.048 56.576,44.288l 12.8,5.632c 23.894,10.582 35.84,23.552 35.84,38.912s-11.946,28.33 -35.84,38.912l-12.8,5.632c-22.186,10.24 -40.96,25.002 -56.32,44.288s-23.040,37.803 -23.040,55.553c 0.342,2.73 0.512,4.778 0.512,6.144l 7.68,72.704c 0.342,3.072 0.512,5.29 0.512,6.656
c0,17.408 -7.338,26.112 -22.016,26.112c-11.606,0 -24.918-5.802 -39.936-17.408l-26.624-19.968c-8.874-7.168 -19.114-12.458 -30.72-15.872s-24.064-5.12 -37.376-5.12c-26.966,0 -49.664,6.998 -68.096,20.992l-26.624,19.968c-15.702,11.606 -29.184,17.408 -40.448,17.408c-13.994,0 -20.992-8.534 -20.992-25.6c0-3.072 0.17-5.462 0.512-7.168l 7.68-72.704
c 1.706-18.090 -5.206-37.632 -20.736-58.624s-34.901-36.778 -58.111-47.36l-13.312-5.632c-23.552-10.922 -35.328-23.893 -35.328-38.911s 11.776-27.989 35.328-38.911l 13.312-5.632c 22.186-10.24 40.874-25.088 56.064-44.544s 22.784-38.23 22.784-56.32l0-5.12 l-7.68-72.704
c-0.342-1.366 -0.512-2.731 -0.512-4.097l0-3.072 c0-8.534 2.134-14.934 6.4-19.2s 9.984-6.4 17.152-6.4c 5.12,0 10.838,1.536 17.152,4.608s 13.226,7.338 20.736,12.8zM 239.104,188.158l-64,65.536l 88.576,13.824l 39.424,83.968l 39.424-83.968l 88.576-13.824l-64-65.536l 15.36-92.672l-79.36,44.032l-78.848-44.032z" horiz-adv-x="606.208"  />
<glyph unicode="&#x33;" d="M 208.384-14.592l 26.624,19.966c 19.114,13.994 41.813,20.992 68.095,20.992c 26.624,0 49.322-6.998 68.096-20.992l 27.136-19.968c 15.018-11.606 28.33-17.408 39.936-17.408c 14.336,0 21.504,8.874 21.504,26.624c-0.342,2.73 -0.512,4.778 -0.512,6.144l-7.68,72.704c-0.342,2.73 -0.512,4.778 -0.512,6.144
c0,17.75 7.594,36.267 22.784,55.553s 34.048,34.048 56.576,44.288l 12.8,5.632c 23.894,10.582 35.84,23.552 35.84,38.912s-11.946,28.33 -35.84,38.912l-12.8,5.632c-22.186,10.24 -40.96,25.002 -56.32,44.288s-23.040,37.803 -23.040,55.553c 0.342,2.73 0.512,4.778 0.512,6.144l 7.68,72.704c 0.342,3.072 0.512,5.29 0.512,6.656
c0,17.408 -7.338,26.112 -22.016,26.112c-11.606,0 -24.918-5.802 -39.936-17.408l-26.624-19.968c-8.874-7.168 -19.114-12.458 -30.72-15.872s-24.064-5.12 -37.376-5.12c-26.966,0 -49.664,6.998 -68.096,20.992l-26.624,19.968c-15.702,11.606 -29.184,17.408 -40.448,17.408c-13.994,0 -20.992-8.534 -20.992-25.6c0-3.072 0.17-5.462 0.512-7.168l 7.68-72.704
c 1.706-18.090 -5.206-37.632 -20.736-58.624s-34.901-36.778 -58.111-47.36l-13.312-5.632c-23.552-10.922 -35.328-23.893 -35.328-38.911s 11.776-27.989 35.328-38.911l 13.312-5.632c 22.186-10.24 40.874-25.088 56.064-44.544s 22.784-38.23 22.784-56.32l0-5.12 l-7.68-72.704
c-0.342-1.366 -0.512-2.731 -0.512-4.097l0-3.072 c0-8.534 2.134-14.934 6.4-19.2s 9.984-6.4 17.152-6.4c 5.12,0 10.838,1.536 17.152,4.608s 13.226,7.338 20.736,12.8zM 217.088,113.406l 6.655,40.447c 0.342,1.366 0.512,3.755 0.512,7.169c0,19.798 -7.338,37.035 -22.016,51.713l-19.968,19.968
c-4.778,4.778 -7.168,9.386 -7.168,13.824c0,10.922 9.728,17.749 29.184,20.479l 4.096,0.512c 13.994,2.048 27.050,6.742 39.168,14.080s 20.224,15.274 24.32,23.808l 16.384,33.792c 4.438,8.534 9.387,12.8 14.849,12.8s 10.411-4.266 14.849-12.8l 16.384-33.792c 4.096-8.192 12.288-16.042 24.576-23.552s 25.258-12.288 38.912-14.336l 4.096-0.512
c 19.456-3.072 29.184-9.898 29.184-20.48c0-4.778 -2.218-9.386 -6.656-13.824l-20.48-19.968c-14.678-14.678 -22.016-32.086 -22.016-52.224c0-3.072 0.17-5.29 0.512-6.656l 6.656-40.448c 2.048-11.606 -2.218-17.408 -12.8-17.408c-5.462,0 -12.118,2.048 -19.968,6.144l-14.848,8.192c-9.898,5.462 -22.698,8.192 -38.4,8.192
c-15.018,0 -27.818-2.73 -38.4-8.192l-14.848-8.192c-4.438-2.73 -8.278-4.437 -11.52-5.119s-6.058-1.024 -8.448-1.024c-10.24,0 -14.506,5.802 -12.8,17.408z" horiz-adv-x="606.208"  />
<glyph unicode="&#x34;" d="M 325.12,76.032l 147.456-108.032l-19.968,182.272l 167.936,73.728l-167.936,73.728l 19.968,182.272l-147.968-108.032l-147.456,108.032l 19.968-182.272l-167.424-73.728l 167.424-73.728l-19.968-182.272zM 277.504,144.128c0,12.97 4.607,24.064 13.823,33.28s 20.48,13.824 33.792,13.824c 12.97,0 24.064-4.608 33.28-13.824s 13.824-20.31 13.824-33.28s-4.608-24.064 -13.824-33.28s-20.31-13.824 -33.28-13.824
s-24.149,4.522 -33.535,13.568s-14.080,20.224 -14.080,33.536zM 197.631,224c0,12.97 4.607,24.064 13.823,33.28s 20.48,13.824 33.792,13.824c 12.97,0 24.064-4.608 33.28-13.824s 13.824-20.31 13.824-33.28s-4.608-24.064 -13.824-33.28s-20.31-13.824 -33.28-13.824s-24.149,4.522 -33.535,13.568s-14.080,20.224 -14.080,33.536zM 357.375,224
c0,12.97 4.609,24.064 13.825,33.28s 20.31,13.824 33.28,13.824s 24.149-4.522 33.535-13.568s 14.080-20.224 14.080-33.536c0-12.97 -4.608-24.064 -13.824-33.28s-20.48-13.824 -33.792-13.824c-12.97,0 -24.064,4.608 -33.28,13.824s-13.824,20.31 -13.824,33.28zM 277.503,303.872c0,12.97 4.607,24.064 13.823,33.28s 20.48,13.824 33.792,13.824
c 12.97,0 24.064-4.608 33.28-13.824s 13.824-20.31 13.824-33.28s-4.608-24.064 -13.824-33.28s-20.31-13.824 -33.28-13.824s-24.149,4.522 -33.535,13.568s-14.080,20.224 -14.080,33.536z" horiz-adv-x="649.728"  />
<glyph unicode="&#x35;" d="M 208.384-14.592l 26.624,19.966c 19.114,13.994 41.813,20.992 68.095,20.992c 26.624,0 49.322-6.998 68.096-20.992l 27.136-19.968c 15.018-11.606 28.33-17.408 39.936-17.408c 14.336,0 21.504,8.874 21.504,26.624c-0.342,2.73 -0.512,4.778 -0.512,6.144l-7.68,72.704c-0.342,2.73 -0.512,4.778 -0.512,6.144
c0,17.75 7.594,36.267 22.784,55.553s 34.048,34.048 56.576,44.288l 12.8,5.632c 23.894,10.582 35.84,23.552 35.84,38.912s-11.946,28.33 -35.84,38.912l-12.8,5.632c-22.186,10.24 -40.96,25.002 -56.32,44.288s-23.040,37.803 -23.040,55.553c 0.342,2.73 0.512,4.778 0.512,6.144l 7.68,72.704c 0.342,3.072 0.512,5.29 0.512,6.656
c0,17.408 -7.338,26.112 -22.016,26.112c-11.606,0 -24.918-5.802 -39.936-17.408l-26.624-19.968c-8.874-7.168 -19.114-12.458 -30.72-15.872s-24.064-5.12 -37.376-5.12c-26.966,0 -49.664,6.998 -68.096,20.992l-26.624,19.968c-15.702,11.606 -29.184,17.408 -40.448,17.408c-13.994,0 -20.992-8.534 -20.992-25.6c0-3.072 0.17-5.462 0.512-7.168l 7.68-72.704
c 1.706-18.090 -5.206-37.632 -20.736-58.624s-34.901-36.778 -58.111-47.36l-13.312-5.632c-23.552-10.922 -35.328-23.893 -35.328-38.911s 11.776-27.989 35.328-38.911l 13.312-5.632c 22.186-10.24 40.874-25.088 56.064-44.544s 22.784-38.23 22.784-56.32l0-5.12 l-7.68-72.704
c-0.342-1.366 -0.512-2.731 -0.512-4.097l0-3.072 c0-8.534 2.134-14.934 6.4-19.2s 9.984-6.4 17.152-6.4c 5.12,0 10.838,1.536 17.152,4.608s 13.226,7.338 20.736,12.8zM 256,144.126c0,12.97 4.608,24.064 13.824,33.28s 20.31,13.824 33.28,13.824s 24.064-4.608 33.28-13.824s 13.824-20.31 13.824-33.28s-4.608-24.064 -13.824-33.28
s-20.31-13.824 -33.28-13.824s-24.064,4.608 -33.28,13.824s-13.824,20.31 -13.824,33.28zM 176.128,223.998c0,12.97 4.609,24.064 13.825,33.28s 20.31,13.824 33.28,13.824s 24.149-4.522 33.535-13.568s 14.080-20.224 14.080-33.536c0-12.97 -4.608-24.064 -13.824-33.28s-20.48-13.824 -33.792-13.824c-12.97,0 -24.064,4.608 -33.28,13.824s-13.824,20.31 -13.824,33.28z
M 335.873,223.998c0,12.97 4.608,24.064 13.824,33.28s 20.31,13.824 33.28,13.824s 24.064-4.608 33.28-13.824s 13.824-20.31 13.824-33.28s-4.608-24.064 -13.824-33.28s-20.31-13.824 -33.28-13.824s-24.064,4.608 -33.28,13.824s-13.824,20.31 -13.824,33.28zM 256.001,303.87c0,12.97 4.608,24.064 13.824,33.28s 20.31,13.824 33.28,13.824s 24.064-4.608 33.28-13.824s 13.824-20.31 13.824-33.28s-4.608-24.064 -13.824-33.28
s-20.31-13.824 -33.28-13.824s-24.064,4.608 -33.28,13.824s-13.824,20.31 -13.824,33.28z" horiz-adv-x="606.208"  />
<glyph unicode="&#x36;" d="M 325.12,76.032l 147.456-108.032l-19.968,182.272l 167.936,73.728l-167.936,73.728l 19.968,182.272l-147.968-108.032l-147.456,108.032l 19.968-182.272l-167.424-73.728l 167.424-73.728l-19.968-182.272zM 299.52,116.48l-33.792,14.848l 33.792,14.848l-4.096,36.352l 29.696-21.504l 29.184,21.504l-3.584-36.352l 33.28-14.848l-33.28-14.848l 3.584-36.352l-29.184,22.016l-29.696-22.016zM 217.6,198.4l-36.352-4.096l 21.504,29.696l-21.504,29.696l 36.352-4.096l 14.848,33.28l 14.848-33.28l 36.352,4.096l-21.504-29.696
l 21.504-29.696l-36.352,4.096l-14.848-33.28zM 402.432,198.4l-36.352-4.096l 22.016,29.696l-22.016,29.696l 36.352-4.096l 14.848,33.28l 14.848-33.28l 36.352,4.096l-21.504-29.696l 21.504-29.696l-36.352,4.096l-14.848-33.28zM 299.52,301.824l-33.792,14.848l 33.792,14.848l-4.096,36.352l 29.184-22.016l 29.696,22.016l-3.584-36.352l 33.28-14.848l-33.28-14.848l 3.584-36.352l-29.184,21.504l-29.696-21.504z" horiz-adv-x="649.728"  />
<glyph unicode="&#x37;" d="M 208.384-14.592l 26.624,19.966c 19.114,13.994 41.813,20.992 68.095,20.992c 26.624,0 49.322-6.998 68.096-20.992l 27.136-19.968c 15.018-11.606 28.33-17.408 39.936-17.408c 14.336,0 21.504,8.874 21.504,26.624c-0.342,2.73 -0.512,4.778 -0.512,6.144l-7.68,72.704c-0.342,2.73 -0.512,4.778 -0.512,6.144
c0,17.75 7.594,36.267 22.784,55.553s 34.048,34.048 56.576,44.288l 12.8,5.632c 23.894,10.582 35.84,23.552 35.84,38.912s-11.946,28.33 -35.84,38.912l-12.8,5.632c-22.186,10.24 -40.96,25.002 -56.32,44.288s-23.040,37.803 -23.040,55.553c 0.342,2.73 0.512,4.778 0.512,6.144l 7.68,72.704c 0.342,3.072 0.512,5.29 0.512,6.656
c0,17.408 -7.338,26.112 -22.016,26.112c-11.606,0 -24.918-5.802 -39.936-17.408l-26.624-19.968c-8.874-7.168 -19.114-12.458 -30.72-15.872s-24.064-5.12 -37.376-5.12c-26.966,0 -49.664,6.998 -68.096,20.992l-26.624,19.968c-15.702,11.606 -29.184,17.408 -40.448,17.408c-13.994,0 -20.992-8.534 -20.992-25.6c0-3.072 0.17-5.462 0.512-7.168l 7.68-72.704
c 1.706-18.090 -5.206-37.632 -20.736-58.624s-34.901-36.778 -58.111-47.36l-13.312-5.632c-23.552-10.922 -35.328-23.893 -35.328-38.911s 11.776-27.989 35.328-38.911l 13.312-5.632c 22.186-10.24 40.874-25.088 56.064-44.544s 22.784-38.23 22.784-56.32l0-5.12 l-7.68-72.704
c-0.342-1.366 -0.512-2.731 -0.512-4.097l0-3.072 c0-8.534 2.134-14.934 6.4-19.2s 9.984-6.4 17.152-6.4c 5.12,0 10.838,1.536 17.152,4.608s 13.226,7.338 20.736,12.8zM 271.872,86.782l 1.537,14.848c 0.682,3.754 -0.512,7.594 -3.584,11.52s-7.168,7.083 -12.288,9.473l-2.56,1.024
c-4.438,2.048 -6.656,4.608 -6.656,7.68s 2.218,5.632 6.656,7.68l 2.56,1.536c 4.778,2.048 8.704,5.206 11.776,9.472s 4.438,8.106 4.096,11.52l-1.536,14.336c0,4.438 1.536,6.656 4.608,6.656c 2.39,0 4.95-1.194 7.68-3.584l 5.632-3.584c 1.366-1.366 3.328-2.39 5.888-3.072s 5.034-1.024 7.424-1.024c 6.144,0 10.752,1.366 13.824,4.096l 5.12,3.584
c 2.73,2.39 5.461,3.584 8.191,3.584c 3.072,0 4.438-2.218 4.096-6.656l-1.536-14.336c-0.682-3.754 0.598-7.68 3.84-11.776s 7.253-7.168 12.031-9.216l 2.56-1.536c 4.778-2.048 7.168-4.608 7.168-7.68s-2.39-5.632 -7.168-7.68l-2.56-1.024c-4.778-2.39 -8.789-5.547 -12.031-9.473
s-4.522-7.766 -3.84-11.52l 1.536-14.848c 0.682-4.438 -0.683-6.656 -4.097-6.656c-1.706,0 -4.437,1.194 -8.191,3.584l-5.12,4.096c-3.754,2.73 -8.362,4.096 -13.824,4.096c-5.12,0 -9.558-1.366 -13.312-4.096l-5.632-4.096c-0.682-0.682 -1.962-1.45 -3.84-2.304
s-2.987-1.28 -3.329-1.28c-3.754,0 -5.461,2.218 -5.119,6.656zM 202.753,175.87l-1.024,2.56c-4.438,10.582 -11.435,15.872 -20.993,15.872l-14.848-1.536c-4.438-0.682 -6.656,0.683 -6.656,4.097c0,1.706 1.194,4.437 3.584,8.191l 4.096,5.12c 1.024,1.024 1.962,2.73 2.816,5.12
s 1.28,5.291 1.28,8.705c0,5.802 -1.366,10.24 -4.096,13.312l-4.096,5.632c-2.39,2.73 -3.584,5.29 -3.584,7.68c0,3.072 2.218,4.608 6.656,4.608l 14.848-1.536c 3.754-0.682 7.68,0.598 11.776,3.84s 7.168,7.253 9.216,12.031l 1.024,2.56c 2.39,4.438 5.12,6.656 8.192,6.656s 5.632-2.218 7.68-6.656l 1.024-2.56
c 2.048-4.778 5.206-8.704 9.472-11.776s 8.106-4.438 11.52-4.096l 14.848,1.536c 4.438,0 6.656-1.536 6.656-4.608c0-1.366 -1.194-3.926 -3.584-7.68l-4.096-5.632c-2.73-3.754 -4.096-8.192 -4.096-13.312c0-5.462 1.366-10.070 4.096-13.824l 4.096-5.12c 2.048-3.072 3.072-5.632 3.072-7.68c 0.682-3.754 -1.366-5.29 -6.144-4.608
l-14.848,1.536c-3.754,0 -7.68-1.45 -11.776-4.352s-7.168-6.742 -9.216-11.52l-1.024-2.56c-2.73-4.778 -5.461-7.168 -8.191-7.168c-3.072,0 -5.632,2.39 -7.68,7.168zM 388.097,175.87l-1.535,2.561c-4.438,10.582 -11.435,15.872 -20.993,15.872l-14.336-1.536c-4.438-0.342 -6.656,1.024 -6.656,4.096
c0,2.73 1.194,5.461 3.584,8.191l 4.096,5.12c 1.024,1.024 1.962,2.73 2.816,5.12s 1.28,5.291 1.28,8.705c0,5.802 -1.366,10.24 -4.096,13.312l-4.096,5.632c-2.39,2.73 -3.584,5.461 -3.584,8.191s 2.218,4.096 6.656,4.096l 14.336-1.536c 3.754-0.682 7.68,0.598 11.776,3.84s 7.168,7.253 9.216,12.031l 1.536,2.56
c 2.048,4.438 4.608,6.656 7.68,6.656s 5.632-2.218 7.68-6.656l 1.024-2.56c 2.39-5.12 5.632-9.216 9.728-12.288s 8.022-4.266 11.776-3.584l 14.336,1.536c 4.438,0 6.656-1.536 6.656-4.608c0-1.366 -1.194-3.926 -3.584-7.68l-4.096-5.632c-2.73-3.754 -4.096-8.192 -4.096-13.312c0-5.462 1.366-10.070 4.096-13.824l 4.096-5.12l 3.584-7.68
c0-3.414 -2.218-4.95 -6.656-4.608l-14.336,1.536c-9.216,0 -16.384-5.29 -21.504-15.872l-1.024-2.56c-2.048-4.778 -4.608-7.168 -7.68-7.168s-5.632,2.39 -7.68,7.168zM 271.873,272.127l 1.535,14.337c 0.682,3.754 -0.598,7.68 -3.84,11.776s-7.253,7.168 -12.031,9.216l-2.56,1.536c-4.438,2.048 -6.656,4.608 -6.656,7.68
s 2.218,5.632 6.656,7.68l 2.56,1.024c 5.12,2.39 9.216,5.632 12.288,9.728s 4.266,8.022 3.584,11.776l-1.536,14.336c0,4.438 1.536,6.656 4.608,6.656c 1.366,0 3.926-1.194 7.68-3.584l 5.632-4.096c 1.366-1.366 3.328-2.39 5.888-3.072s 5.034-1.024 7.424-1.024c 6.144,0 10.752,1.366 13.824,4.096l 5.12,4.096c 2.73,2.39 5.461,3.584 8.191,3.584
c 3.414,0 4.779-2.218 4.097-6.656l-1.536-14.336c-0.682-4.096 0.512-8.106 3.584-12.032s 7.168-7.083 12.288-9.473l 2.56-1.024c 4.778-2.048 7.168-4.608 7.168-7.68s-2.39-5.632 -7.168-7.68l-2.56-1.536c-4.778-2.048 -8.704-5.206 -11.776-9.472s-4.438-8.106 -4.096-11.52l 1.536-14.336c 0.342-4.438 -1.024-6.656 -4.096-6.656
c-2.73,0 -5.461,1.194 -8.191,3.584l-5.12,3.584c-3.754,2.73 -8.362,4.096 -13.824,4.096c-5.12,0 -9.558-1.366 -13.312-4.096l-5.632-3.584c-2.39-2.39 -4.779-3.584 -7.169-3.584c-4.096-0.682 -5.802,1.536 -5.12,6.656z" horiz-adv-x="606.208"  />
<glyph unicode="&#x38;" d="M 281.6,55.552l 158.208-87.552l-30.208,185.344l 128,131.072l-177.152,27.136l-78.848,168.448l-79.36-168.448l-176.64-27.136l 128-131.072l-30.208-185.344zM 334.848,86.784l-14.85,7.679c-10.582,5.802 -23.382,8.704 -38.4,8.704c-14.678,0 -27.478-2.902 -38.4-8.704l-14.848-7.68c-2.048-1.366 -4.352-2.475 -6.912-3.329s-4.694-1.536 -6.4-2.048
s-3.157-0.768 -4.351-0.768l-2.304,0 c-10.582,0 -14.848,5.632 -12.8,16.896l 6.656,40.96c 0.342,1.366 0.512,3.755 0.512,7.169c0,19.798 -7.338,37.035 -22.016,51.713l-19.968,19.968c-4.778,4.438 -7.168,9.046 -7.168,13.824c0,10.922 9.728,17.749 29.184,20.479l 4.096,0.512c 13.994,2.048 27.050,6.742 39.168,14.080
s 20.224,15.274 24.32,23.808l 16.384,33.792c 4.438,8.534 9.387,12.8 14.849,12.8s 10.411-4.266 14.849-12.8l 16.384-33.792c 3.754-8.192 11.776-16.042 24.064-23.552s 25.43-12.288 39.424-14.336l 4.096-0.512c 19.456-2.73 29.184-9.557 29.184-20.479c0-4.438 -2.39-9.046 -7.168-13.824l-19.968-19.968
c-14.678-14.678 -22.016-32.086 -22.016-52.224c0-3.072 0.17-5.29 0.512-6.656l 6.656-40.96c 2.048-11.264 -2.048-16.896 -12.288-16.896c-2.39,0 -5.12,0.256 -8.192,0.768s-7.168,2.304 -12.288,5.376zM 254.974,135.935l 7.17,3.584c 5.802,3.072 12.288,4.608 19.456,4.608c 7.51,0 13.824-1.536 18.944-4.608l 7.68-3.584c 4.096-2.048 7.51-3.072 10.24-3.072c 5.12,0 7.168,2.902 6.144,8.704
l-3.584,20.48c-1.366,10.582 2.389,20.31 11.263,29.184l 9.728,9.728c 2.39,2.39 3.584,4.779 3.584,7.169c0,5.12 -4.778,8.534 -14.336,10.24l-2.048,0 c-6.826,1.024 -13.397,3.328 -19.711,6.912s-10.496,7.594 -12.544,12.032l-8.192,16.896c-2.39,4.438 -4.779,6.656 -7.169,6.656
s-4.779-2.218 -7.169-6.656l-8.192-16.896c-5.12-10.24 -15.872-16.554 -32.256-18.944l-2.048,0 c-9.558-1.706 -14.336-5.12 -14.336-10.24c0-2.39 1.194-4.779 3.584-7.169l 9.728-9.728c 8.874-8.874 12.629-18.602 11.263-29.184l-3.584-20.48c-1.024-6.826 2.048-9.728 9.216-8.704z" horiz-adv-x="563.2"  />
<glyph unicode="&#x39;" d="M 325.12,76.032l 147.456-108.032l-19.968,182.272l 167.936,73.728l-167.936,73.728l 19.968,182.272l-147.968-108.032l-147.456,108.032l 19.968-182.272l-167.424-73.728l 167.424-73.728l-19.968-182.272zM 254.464,96.512c-6.144,1.024 -8.705,6.314 -7.681,15.871l 4.096,36.352c 1.024,9.558 -2.218,19.371 -9.728,29.441s-17.408,17.835 -29.696,23.297l-6.656,3.072c-11.606,5.12 -17.408,11.606 -17.408,19.456
c0,7.51 5.802,13.995 17.408,19.457l 6.656,3.072c 11.606,5.462 21.334,13.398 29.184,23.808s 11.264,20.053 10.24,28.927l-4.096,36.352c-1.024,10.922 2.56,16.384 10.752,16.384c 6.144,0 12.8-2.902 19.968-8.704l 13.312-10.24c 9.216-6.826 20.65-10.24 34.304-10.24s 24.918,3.414 33.792,10.24l 13.312,10.24c 7.168,5.802 13.994,8.704 20.48,8.704
c 7.85,0 11.264-5.462 10.24-16.384l-4.096-36.352c0-9.558 3.67-19.456 11.008-29.696s 16.81-17.92 28.416-23.040l 6.656-3.072c 11.946-5.802 17.92-12.288 17.92-19.456c0-7.85 -5.974-14.336 -17.92-19.456l-6.656-3.072c-11.606-5.12 -21.078-12.8 -28.416-23.040s-11.008-20.138 -11.008-29.696l 4.096-36.352c 1.024-10.922 -2.56-16.384 -10.752-16.384
c-6.144,0 -12.8,2.902 -19.968,8.704l-13.312,10.24c-9.558,6.826 -20.822,10.24 -33.792,10.24s-24.405-3.414 -34.303-10.24l-13.312-10.24c-7.51-5.462 -13.654-8.363 -18.432-8.705zM 301.055,164.095l 6.657,5.118c 4.778,3.414 10.581,5.12 17.407,5.12s 12.458-1.706 16.896-5.12l 6.656-5.12
c 3.754-2.73 7.168-4.096 10.24-4.096c 3.754,0 5.461,2.73 5.119,8.192l-2.048,17.92c-0.682,4.778 0.854,9.728 4.608,14.848s 8.704,9.046 14.848,11.776l 3.584,1.536c 5.802,2.39 8.704,5.632 8.704,9.728s-2.902,7.338 -8.704,9.728l-3.584,1.536c-5.802,2.39 -10.666,6.144 -14.592,11.264s-5.547,10.070 -4.865,14.848l 2.048,18.432
c 0.342,5.462 -1.536,8.192 -5.632,8.192c-2.73,0 -5.973-1.366 -9.727-4.096l-6.656-5.12c-4.778-3.754 -10.41-5.632 -16.896-5.632c-6.144,0 -11.946,1.878 -17.408,5.632l-6.656,5.12c-3.754,2.73 -7.168,4.096 -10.24,4.096c-3.754,0 -5.461-2.73 -5.119-8.192l 2.048-18.432
c 0.682-4.778 -0.854-9.642 -4.608-14.592s-8.704-8.79 -14.848-11.52l-3.584-1.536c-5.802-2.73 -8.704-5.973 -8.704-9.727s 2.902-6.997 8.704-9.727l 3.584-1.536c 5.802-2.39 10.666-6.144 14.592-11.264s 5.547-10.24 4.865-15.36l-2.048-17.92c-0.342-4.438 1.024-7.168 4.096-8.192
c 2.73-0.682 6.485,0.683 11.263,4.097z" horiz-adv-x="649.728"  />
<glyph unicode="&#x41;" d="M 175.616-19.712l 29.186,15.875c 21.504,11.264 47.104,16.896 76.8,16.896c 30.038,0 55.638-5.632 76.8-16.896l 29.184-15.872c 15.36-8.192 28.842-12.288 40.448-12.288c 17.75,0 26.624,8.874 26.624,26.624c0,3.414 -0.17,5.974 -0.512,7.68l-13.824,81.92c-0.682,5.462 -1.024,10.070 -1.024,13.824c0,16.726 4.182,34.902 12.544,54.528
s 19.029,35.925 31.999,48.895l 39.936,39.936c 9.216,9.216 13.824,18.432 13.824,27.648c0,9.898 -5.034,18.517 -15.104,25.855s-24.491,12.373 -43.265,15.103l-8.192,1.024c-26.966,4.096 -52.907,13.482 -77.825,28.16s-41.472,30.55 -49.664,47.616l-32.768,68.096c-7.85,16.726 -17.578,25.088 -29.184,25.088
c-10.922,0 -20.65-8.362 -29.184-25.088l-32.768-68.096c-8.192-17.066 -24.662-32.938 -49.408-47.616s-50.944-24.064 -78.592-28.16l-8.192-1.024c-18.090-2.73 -32.256-7.85 -42.496-15.36s-15.36-16.043 -15.36-25.601c0-9.216 4.608-18.432 13.824-27.648l 39.936-39.936c 12.97-12.63 23.637-28.843 31.999-48.641
s 12.544-38.4 12.544-55.808c0-3.072 -0.342-7.338 -1.024-12.8l-13.824-81.92c-0.342-2.048 -0.512-4.778 -0.512-8.192c0-17.408 9.046-26.112 27.136-26.112c 11.264,0 24.576,4.096 39.936,12.288z" horiz-adv-x="563.2"  />
<glyph unicode="&#x42;" d="M 281.6,392.448l 158.208,87.552l-30.208-185.344l 128-131.072l-177.152-27.136l-78.848-168.448l-78.848,168.448l-177.152,27.136l 128,131.072l-30.208,185.344zM 217.6,259.328l-64-65.536l 88.576-13.312l 39.424-84.48l 39.424,84.48l 88.576,13.312l-64,65.536l 14.848,92.672l-78.848-43.52l-78.848,43.52z" horiz-adv-x="563.2"  />
<glyph unicode="&#x43;" d="M 175.616,467.712l 29.185-15.874c 9.898-5.462 21.845-9.728 35.839-12.8s 27.648-4.608 40.96-4.608c 14.678,0 28.416,1.366 41.216,4.096s 24.662,7.168 35.584,13.312l 29.184,15.872c 15.36,8.192 28.842,12.288 40.448,12.288c 17.75,0 26.624-8.874 26.624-26.624c0-3.414 -0.17-5.974 -0.512-7.68l-13.824-81.92
c-0.682-5.462 -1.024-9.899 -1.024-13.313c0-17.066 4.096-35.413 12.288-55.039s 18.944-35.925 32.256-48.895l 39.936-39.936c 9.216-9.216 13.824-18.432 13.824-27.648c0-9.898 -5.034-18.517 -15.104-25.855s-24.32-12.373 -42.752-15.103l-8.192-1.024c-27.306-4.096 -53.418-13.482 -78.336-28.16s-41.472-30.55 -49.664-47.616
l-32.768-68.096c-3.754-8.192 -8.106-14.422 -13.056-18.688s-10.326-6.4 -16.128-6.4c-11.264,0 -20.992,8.362 -29.184,25.088l-32.768,68.096c-8.192,17.066 -24.662,32.938 -49.408,47.616s-50.944,24.064 -78.592,28.16l-8.192,1.024c-18.090,2.73 -32.256,7.85 -42.496,15.36s-15.36,16.043 -15.36,25.601c0,9.216 4.608,18.432 13.824,27.648l 39.936,39.936
c 12.97,12.63 23.637,28.843 31.999,48.641s 12.544,38.4 12.544,55.808c0,3.072 -0.342,7.338 -1.024,12.8l-13.824,81.92c-0.342,2.048 -0.512,4.95 -0.512,8.704c0,17.066 8.534,25.6 25.6,25.6c 6.144,0 12.458-0.938 18.944-2.816s 13.995-5.035 22.529-9.473zM 195.585,334.59l 6.657-40.96
c 0.342-1.366 0.512-3.584 0.512-6.656c0-19.798 -7.338-37.035 -22.016-51.713l-19.968-19.968c-4.778-4.438 -7.168-9.046 -7.168-13.824c0-10.922 9.728-17.749 29.184-20.479l 4.096-0.512c 13.994-2.048 27.050-6.742 39.168-14.080s 20.224-15.274 24.32-23.808l 16.384-33.792c 4.096-8.534 9.046-12.8 14.848-12.8
s 10.752,4.266 14.848,12.8l 16.384,33.792c 3.754,8.192 11.776,16.042 24.064,23.552s 25.43,12.288 39.424,14.336l 4.096,0.512c 19.456,2.73 29.184,9.557 29.184,20.479c0,4.438 -2.39,9.046 -7.168,13.824l-19.968,19.968c-6.486,6.486 -11.776,14.678 -15.872,24.576s-6.144,18.944 -6.144,27.136c0,3.072 0.17,5.29 0.512,6.656l 6.656,40.96c 2.048,11.606 -2.218,17.408 -12.8,17.408
c-5.462,0 -12.118-2.048 -19.968-6.144l-14.848-7.68c-4.778-2.73 -10.496-4.864 -17.152-6.4s-13.738-2.304 -21.248-2.304c-15.36,0 -28.16,2.902 -38.4,8.704l-14.848,7.68c-2.048,1.366 -4.352,2.475 -6.912,3.329s-4.778,1.536 -6.656,2.048s-4.011,0.768 -6.401,0.768c-10.582,0 -14.848-5.802 -12.8-17.408z" horiz-adv-x="563.2"  />
<glyph unicode="&#x44;" d="M 175.616,467.712l 29.185-15.874c 9.898-5.462 21.845-9.728 35.839-12.8s 27.648-4.608 40.96-4.608c 14.678,0 28.416,1.366 41.216,4.096s 24.662,7.168 35.584,13.312l 29.184,15.872c 15.36,8.192 28.842,12.288 40.448,12.288c 17.75,0 26.624-8.874 26.624-26.624c0-3.414 -0.17-5.974 -0.512-7.68l-13.824-81.92
c-0.682-5.462 -1.024-9.899 -1.024-13.313c0-17.066 4.096-35.413 12.288-55.039s 18.944-35.925 32.256-48.895l 39.936-39.936c 9.216-9.216 13.824-18.432 13.824-27.648c0-9.898 -5.034-18.517 -15.104-25.855s-24.32-12.373 -42.752-15.103l-8.192-1.024c-27.306-4.096 -53.418-13.482 -78.336-28.16s-41.472-30.55 -49.664-47.616
l-32.768-68.096c-3.754-8.192 -8.106-14.422 -13.056-18.688s-10.326-6.4 -16.128-6.4c-11.264,0 -20.992,8.362 -29.184,25.088l-32.768,68.096c-8.192,17.066 -24.662,32.938 -49.408,47.616s-50.944,24.064 -78.592,28.16l-8.192,1.024c-18.090,2.73 -32.256,7.85 -42.496,15.36s-15.36,16.043 -15.36,25.601c0,9.216 4.608,18.432 13.824,27.648l 39.936,39.936
c 12.97,12.63 23.637,28.843 31.999,48.641s 12.544,38.4 12.544,55.808c0,3.072 -0.342,7.338 -1.024,12.8l-13.824,81.92c-0.342,2.048 -0.512,4.95 -0.512,8.704c0,17.066 8.534,25.6 25.6,25.6c 6.144,0 12.458-0.938 18.944-2.816s 13.995-5.035 22.529-9.473zM 217.601,259.838l-64-65.536l 88.576-13.824l 39.424-83.968
l 39.424,83.968l 88.576,13.824l-64,65.536l 15.36,92.672l-79.36-44.032l-79.36,44.032z" horiz-adv-x="563.2"  />
<glyph unicode="&#x45;" d="M 281.6,392.448l 158.208,87.552l-30.208-185.344l 128-131.072l-176.64-27.136l-79.36-168.448l-78.848,168.448l-177.152,27.136l 128,131.072l-30.208,185.344zM 195.584,334.592l 6.656-40.959c 0.342-1.366 0.512-3.755 0.512-7.169c0-19.798 -7.338-37.035 -22.016-51.713l-19.968-19.968c-4.778-4.438 -7.168-9.046 -7.168-13.824
c0-10.922 9.728-17.749 29.184-20.479l 4.096-0.512c 13.994-2.048 27.050-6.742 39.168-14.080s 20.224-15.274 24.32-23.808l 16.384-33.792c 4.096-8.534 9.046-12.8 14.848-12.8s 10.752,4.266 14.848,12.8l 16.384,33.792c 4.096,8.192 12.288,16.042 24.576,23.552s 25.258,12.288 38.912,14.336l 4.096,0.512c 19.456,3.072 29.184,9.898 29.184,20.48c0,4.778 -2.218,9.386 -6.656,13.824
l-20.48,19.968c-14.678,14.678 -22.016,32.086 -22.016,52.224c0,3.072 0.17,5.29 0.512,6.656l 6.656,40.96c 2.048,11.264 -2.218,16.896 -12.8,16.896c-5.462,0 -12.118-2.048 -19.968-6.144l-14.848-7.68c-10.582-5.802 -23.382-8.704 -38.4-8.704c-14.678,0 -27.478,2.902 -38.4,8.704l-14.848,7.68c-5.462,3.072 -9.472,4.864 -12.032,5.376
s-4.438,0.768 -5.632,0.768l-2.304,0 c-10.582,0 -14.848-5.632 -12.8-16.896z" horiz-adv-x="563.2"  />
<glyph unicode="&#x46;" d="M 281.6,392.448l 158.208,87.552l-30.208-185.344l 128-131.072l-176.64-27.136l-79.36-168.448l-78.848,168.448l-177.152,27.136l 128,131.072l-30.208,185.344zM 185.856,277.248l-96.256-98.816l 132.608-19.968l 59.392-126.464l 59.392,126.464l 132.608,19.968l-96.256,98.816l 23.040,138.752l-118.784-65.536l-118.784,65.536zM 281.6,308.48l 79.36,43.52l-15.36-92.672l 64-65.536l-88.576-13.312l-39.424-84.48l-39.424,84.48l-88.576,13.312l 64,65.536
l-14.848,92.672zM 249.856,241.92l-32.256-32.768l 44.032-7.168l 19.968-41.984l 19.968,41.984l 44.032,7.168l-31.744,32.768l 7.168,46.080l-39.424-22.016l-39.424,22.016z" horiz-adv-x="563.2"  />
<glyph unicode="&#x47;" d="M 175.616,467.712l 29.185-15.874c 9.898-5.462 21.845-9.728 35.839-12.8s 27.648-4.608 40.96-4.608c 14.678,0 28.416,1.366 41.216,4.096s 24.662,7.168 35.584,13.312l 29.184,15.872c 15.36,8.192 28.842,12.288 40.448,12.288c 17.75,0 26.624-8.874 26.624-26.624c0-3.414 -0.17-5.974 -0.512-7.68l-13.824-81.92
c-0.682-5.462 -1.024-9.899 -1.024-13.313c0-17.066 4.096-35.413 12.288-55.039s 18.944-35.925 32.256-48.895l 39.936-39.936c 9.216-9.216 13.824-18.432 13.824-27.648c0-9.898 -5.034-18.517 -15.104-25.855s-24.32-12.373 -42.752-15.103l-8.192-1.024c-27.306-4.096 -53.418-13.482 -78.336-28.16s-41.472-30.55 -49.664-47.616
l-32.768-68.096c-3.754-8.192 -8.106-14.422 -13.056-18.688s-10.326-6.4 -16.128-6.4c-11.264,0 -20.992,8.362 -29.184,25.088l-32.768,68.096c-8.192,17.066 -24.662,32.938 -49.408,47.616s-50.944,24.064 -78.592,28.16l-8.192,1.024c-18.090,2.73 -32.256,7.85 -42.496,15.36s-15.36,16.043 -15.36,25.601c0,9.216 4.608,18.432 13.824,27.648l 39.936,39.936
c 12.97,12.63 23.637,28.843 31.999,48.641s 12.544,38.4 12.544,55.808c0,3.072 -0.342,7.338 -1.024,12.8l-13.824,81.92c-0.342,2.048 -0.512,4.95 -0.512,8.704c0,17.066 8.534,25.6 25.6,25.6c 6.144,0 12.458-0.938 18.944-2.816s 13.995-5.035 22.529-9.473zM 152.065,390.398l 10.751-61.441
c 0.342-2.048 0.512-5.29 0.512-9.728c0-12.97 -3.072-26.88 -9.216-41.728s-14.166-27.050 -24.064-36.608l-30.208-30.208c-6.826-6.826 -10.24-13.653 -10.24-20.479c0-16.042 14.506-26.282 43.52-30.72l 6.144-1.024c 20.48-3.072 40.022-10.070 58.624-20.992s 30.976-22.869 37.12-35.839l 24.576-50.688
c 6.144-12.63 13.482-18.944 22.016-18.944s 15.872,6.314 22.016,18.944l 24.576,50.688c 6.144,12.63 18.518,24.491 37.12,35.585s 38.144,18.176 58.624,21.248l 6.144,1.024c 13.994,2.048 24.746,5.802 32.256,11.264s 11.264,11.947 11.264,19.457c0,6.826 -3.414,13.653 -10.24,20.479l-30.208,30.208c-9.898,9.558 -17.92,21.76 -24.064,36.608
s-9.216,28.928 -9.216,42.24c0,4.096 0.17,7.168 0.512,9.216l 10.752,61.44c 0.342,1.366 0.512,3.414 0.512,6.144c0,12.97 -6.656,19.456 -19.968,19.456c-8.192,0 -18.262-3.072 -30.208-9.216l-22.528-11.776c-16.042-8.874 -35.157-13.312 -57.343-13.312s-41.301,4.438 -57.343,13.312l-22.528,11.776c-5.802,3.072 -11.264,5.376 -16.384,6.912
s-9.898,2.304 -14.336,2.304c-12.97,0 -19.456-6.656 -19.456-19.968c0-2.39 0.17-4.267 0.512-5.633zM 367.615,334.589l-6.655-40.959c-0.342-1.366 -0.512-3.584 -0.512-6.656c0-19.798 7.338-37.035 22.016-51.713l 19.968-19.968c 4.778-4.438 7.168-9.046 7.168-13.824
c0-10.922 -9.728-17.749 -29.184-20.479l-4.096-0.512c-13.994-2.048 -27.050-6.742 -39.168-14.080s-20.224-15.274 -24.32-23.808l-16.384-33.792c-4.096-8.534 -9.046-12.8 -14.848-12.8s-10.752,4.266 -14.848,12.8l-16.384,33.792c-3.754,8.192 -11.776,16.042 -24.064,23.552s-25.43,12.288 -39.424,14.336l-4.096,0.512
c-19.456,2.73 -29.184,9.557 -29.184,20.479c0,4.438 2.39,9.046 7.168,13.824l 19.968,19.968c 6.486,6.486 11.776,14.678 15.872,24.576s 6.144,18.944 6.144,27.136c0,3.072 -0.17,5.29 -0.512,6.656l-6.656,40.96c-2.048,11.606 2.39,17.408 13.312,17.408c 2.39,0 5.291-0.426 8.705-1.28s 6.998-2.475 10.752-4.865l 14.848-7.68
c 10.24-5.802 23.040-8.704 38.4-8.704c 6.826,0 13.653,0.682 20.479,2.048s 12.8,3.584 17.92,6.656l 14.848,7.68c 7.85,4.096 14.677,6.144 20.479,6.144c 10.24,0 14.336-5.802 12.288-17.408zM 238.592,279.294l 3.582-20.479c 1.366-10.582 -2.389-20.31 -11.263-29.184l-9.728-10.24c-2.39-2.048 -3.584-4.266 -3.584-6.656
c0-5.12 4.778-8.534 14.336-10.24l 2.048-0.512c 7.168-0.682 13.738-2.816 19.712-6.4s 10.155-7.766 12.545-12.544l 8.192-16.896c 2.048-4.096 4.438-6.144 7.168-6.144s 5.12,2.048 7.168,6.144l 8.192,16.896c 2.048,4.438 6.144,8.534 12.288,12.288s 12.8,5.973 19.968,6.655l 2.048,0.512c 9.558,1.706 14.336,5.12 14.336,10.24c0,2.39 -1.194,4.608 -3.584,6.656
l-9.728,10.24c-8.874,8.874 -12.629,18.602 -11.263,29.184l 3.584,20.48c 1.024,5.802 -1.194,8.704 -6.656,8.704c-2.73,0 -5.973-1.024 -9.727-3.072l-7.68-4.096c-4.438-2.73 -10.752-4.096 -18.944-4.096c-4.438,0 -7.936,0.256 -10.496,0.768s-5.376,1.622 -8.448,3.328l-7.68,4.096c-2.73,1.706 -5.12,2.56 -7.168,2.56
c-7.168,1.706 -10.24-1.024 -9.216-8.192z" horiz-adv-x="563.2"  />
<glyph unicode="&#x48;" d="M 281.6,392.448l 158.208,87.552l-30.208-185.344l 128-131.072l-176.64-27.136l-79.36-168.448l-78.848,168.448l-177.152,27.136l 128,131.072l-30.208,185.344zM 163.328,251.136c0-32.426 11.606-60.244 34.816-83.454s 51.029-34.816 83.455-34.816s 60.245,11.606 83.455,34.816s 34.816,51.029 34.816,83.455s-11.606,60.245 -34.816,83.455
s-51.029,34.816 -83.455,34.816s-60.245-11.434 -83.455-34.304s-34.816-50.859 -34.816-83.969zM 370.176,251.137c0-24.234 -8.534-45.056 -25.6-62.464s-38.058-26.112 -62.976-26.112c-24.234,0 -45.056,8.704 -62.464,26.112s-26.112,38.23 -26.112,62.464s 8.704,45.056 26.112,62.464s 38.23,26.112 62.464,26.112c 24.576,0 45.482-8.618 62.72-25.856
s 25.856-38.144 25.856-62.72zM 222.72,251.137c0-16.042 5.632-29.866 16.896-41.472s 25.258-17.408 41.984-17.408c 16.042,0 29.866,5.802 41.472,17.408s 17.408,25.43 17.408,41.472c0,16.384 -5.632,30.378 -16.896,41.984s-25.258,17.408 -41.984,17.408c-16.042,0 -29.866-5.802 -41.472-17.408s-17.408-25.6 -17.408-41.984zM 311.296,251.137
c0-7.85 -2.902-14.678 -8.704-20.481s-12.8-8.704 -20.992-8.704s-15.19,2.73 -20.992,8.192s-8.704,12.459 -8.704,20.993c0,8.192 2.902,15.19 8.704,20.992s 12.8,8.704 20.992,8.704s 15.19-2.902 20.992-8.704s 8.704-12.8 8.704-20.992z" horiz-adv-x="563.2"  />
<glyph unicode="&#x49;" d="M 175.616,467.712l 29.185-15.874c 9.898-5.462 21.845-9.728 35.839-12.8s 27.648-4.608 40.96-4.608c 14.678,0 28.416,1.366 41.216,4.096s 24.662,7.168 35.584,13.312l 29.184,15.872c 15.36,8.192 28.842,12.288 40.448,12.288c 17.75,0 26.624-8.874 26.624-26.624c0-3.414 -0.17-5.974 -0.512-7.68l-13.824-81.92
c-0.682-5.462 -1.024-9.899 -1.024-13.313c0-17.066 4.096-35.413 12.288-55.039s 18.944-35.925 32.256-48.895l 39.936-39.936c 9.216-9.216 13.824-18.432 13.824-27.648c0-9.898 -5.034-18.517 -15.104-25.855s-24.32-12.373 -42.752-15.103l-8.192-1.024c-27.306-4.096 -53.418-13.482 -78.336-28.16s-41.472-30.55 -49.664-47.616
l-32.768-68.096c-3.754-8.192 -8.106-14.422 -13.056-18.688s-10.326-6.4 -16.128-6.4c-11.264,0 -20.992,8.362 -29.184,25.088l-32.768,68.096c-8.192,17.066 -24.662,32.938 -49.408,47.616s-50.944,24.064 -78.592,28.16l-8.192,1.024c-18.090,2.73 -32.256,7.85 -42.496,15.36s-15.36,16.043 -15.36,25.601c0,9.216 4.608,18.432 13.824,27.648l 39.936,39.936
c 12.97,12.63 23.637,28.843 31.999,48.641s 12.544,38.4 12.544,55.808c0,3.072 -0.342,7.338 -1.024,12.8l-13.824,81.92c-0.342,2.048 -0.512,4.95 -0.512,8.704c0,17.066 8.534,25.6 25.6,25.6c 6.144,0 12.458-0.938 18.944-2.816s 13.995-5.035 22.529-9.473zM 163.329,251.646
c0-32.426 11.606-60.246 34.816-83.457s 51.029-34.816 83.455-34.816s 60.245,11.434 83.455,34.304s 34.816,50.859 34.816,83.969c0,32.426 -11.606,60.245 -34.816,83.455s-51.029,34.816 -83.455,34.816s-60.245-11.606 -83.455-34.816s-34.816-51.029 -34.816-83.455zM 370.177,251.645
c0-24.576 -8.618-45.482 -25.856-62.72s-38.144-25.856 -62.72-25.856s-45.482,8.618 -62.72,25.856s-25.856,38.144 -25.856,62.72c0,24.234 8.534,45.056 25.6,62.464s 38.058,26.112 62.976,26.112c 24.234,0 45.056-8.704 62.464-26.112s 26.112-38.23 26.112-62.464zM 222.721,251.645c0-16.384 5.632-30.378 16.896-41.984
s 25.258-17.408 41.984-17.408c 16.042,0 29.866,5.802 41.472,17.408s 17.408,25.6 17.408,41.984s-5.718,30.294 -17.152,41.728s-25.344,17.152 -41.728,17.152s-30.294-5.718 -41.728-17.152s-17.152-25.344 -17.152-41.728zM 311.297,251.645c0-8.192 -2.902-15.19 -8.704-20.992s-12.8-8.704 -20.992-8.704s-15.19,2.902 -20.992,8.704
s-8.704,12.8 -8.704,20.992s 2.902,15.19 8.704,20.992s 12.8,8.704 20.992,8.704s 15.19-2.902 20.992-8.704s 8.704-12.8 8.704-20.992z" horiz-adv-x="563.2"  />
<glyph unicode="&#x4a;" d="M 280.576,392.96l-38.4-82.432l-88.576-13.824l 64-65.536l-14.848-92.672l 77.824,43.52l-18.944,39.936l-44.032,6.656l 32.256,32.768l-7.68,46.080l 39.424-21.504l 39.424,21.504l-7.168-46.080l 31.744-32.768l-44.032-6.656l-18.944-39.936l 78.336-43.52l-15.36,92.672l 64,65.536l-88.576,13.824l-38.4,82.432l 157.184,87.040l-30.208-185.344l 128-131.072l-176.64-27.136l-79.36-168.448l-78.848,168.448l-177.152,27.136l 128,131.072l-30.208,185.344z" horiz-adv-x="563.2"  />
<glyph unicode="&#x4b;" d="M 175.616,467.712l 29.185-15.873c 21.504-11.264 47.104-16.896 76.8-16.896c 30.038,0 55.638,5.632 76.8,16.896l 29.184,15.872c 15.36,8.192 28.842,12.288 40.448,12.288c 17.75,0 26.624-8.874 26.624-26.624c0-3.414 -0.17-5.974 -0.512-7.68l-13.824-81.92c-0.682-6.144 -1.024-10.752 -1.024-13.824c0-16.726 4.182-34.987 12.544-54.785
s 18.858-36.011 31.488-48.641l 40.448-39.936c 9.216-9.216 13.824-18.432 13.824-27.648c0-9.898 -5.034-18.517 -15.104-25.855s-24.491-12.373 -43.265-15.103l-8.192-1.024c-26.966-4.096 -52.907-13.482 -77.825-28.16s-41.472-30.55 -49.664-47.616l-32.768-68.096c-3.754-8.192 -8.106-14.422 -13.056-18.688
s-10.326-6.4 -16.128-6.4c-11.264,0 -20.992,8.362 -29.184,25.088l-32.768,68.096c-8.192,17.066 -24.662,32.938 -49.408,47.616s-50.944,24.064 -78.592,28.16l-8.192,1.024c-18.090,2.73 -32.256,7.85 -42.496,15.36s-15.36,16.043 -15.36,25.601c0,9.216 4.608,18.432 13.824,27.648l 39.936,39.936c 12.97,12.63 23.637,28.843 31.999,48.641
s 12.544,38.4 12.544,55.808c0,3.072 -0.342,7.338 -1.024,12.8l-13.824,81.92c-0.342,2.048 -0.512,4.95 -0.512,8.704c0,17.066 8.534,25.6 25.6,25.6c 6.144,0 12.458-0.938 18.944-2.816s 13.995-5.035 22.529-9.473zM 263.681,405.759l-19.457-40.96c-3.754-7.51 -10.41-14.678 -19.968-21.504l-2.048-1.536l 5.12,0 
c 3.754-0.682 7.68-2.218 11.776-4.608l 11.776-6.144c 8.874-4.778 19.114-7.168 30.72-7.168c 11.946,0 22.186,2.39 30.72,7.168l 11.776,6.144c 4.096,2.39 8.022,3.926 11.776,4.608l 5.12,0 l-2.048,1.536c-9.558,6.826 -16.214,13.994 -19.968,21.504l-19.968,40.96c-4.778,10.24 -10.581,15.36 -17.407,15.36s-12.8-5.12 -17.92-15.36z
M 203.777,331.007c-11.946-5.802 -23.894-9.558 -35.84-11.264l-5.12-1.024c-23.21-3.072 -34.816-11.094 -34.816-24.064c0-5.802 2.73-11.434 8.192-16.896l 24.064-24.064c 7.168-7.168 12.8-15.36 16.896-24.576l 2.56-5.12l 5.12,8.704l 15.872,15.872c 11.946,12.63 17.92,26.624 17.92,41.984c0,2.39 -0.17,4.096 -0.512,5.12l-5.632,32.768l 1.024,7.68zM 350.72,328.447
l-5.631-32.768c-0.342-1.366 -0.512-3.414 -0.512-6.144c0-15.36 5.974-29.014 17.92-40.96l 15.872-15.872l 5.12-8.704l 2.048,5.12c 4.778,9.558 10.581,17.75 17.407,24.576l 24.064,24.064c 5.462,5.462 8.192,11.094 8.192,16.896c0,5.462 -3.158,10.496 -9.472,15.104s-14.762,7.594 -25.344,8.96l-5.12,1.024
c-5.802,0.682 -11.69,1.962 -17.664,3.84s-12.032,4.352 -18.176,7.424l-9.728,5.12zM 184.321,210.175c 1.024-3.072 1.706-6.145 2.047-9.217s 0.512-6.486 0.512-10.24c0-3.414 -0.17-5.803 -0.512-7.169l-8.192-49.152c-2.048-13.654 3.242-20.48 15.872-20.48c 7.51,0 15.531,2.39 24.065,7.168
l 17.408,9.728c 5.462,3.072 10.923,5.376 16.385,6.912s 11.264,2.304 17.408,2.304l 5.632,0.512l-5.12,6.656l-13.312,27.648c-3.072,6.826 -9.472,13.056 -19.2,18.688s-20.224,9.472 -31.488,11.52l-3.584,0.512c-3.414,0.342 -5.803,0.683 -7.169,1.025c-3.072,1.366 -5.12,2.219 -6.144,2.561l-5.632,4.608zM 374.272,209.15
c-4.438-2.048 -8.874-3.243 -13.312-3.585l-3.584-0.512c-11.264-1.706 -21.76-5.461 -31.488-11.263s-16.298-12.117 -19.712-18.943l-12.8-27.648l-5.12-6.656l 5.632-0.512c 5.802,0 11.434-0.768 16.896-2.304s 11.094-3.84 16.896-6.912l 17.408-9.728c 4.438-2.39 8.704-4.182 12.8-5.376
s 8.022-1.792 11.776-1.792c 12.288,0 17.408,6.826 15.36,20.48l-8.192,49.152c-0.342,1.706 -0.512,4.437 -0.512,8.191c0,4.778 0.854,10.922 2.56,18.432l 1.024,3.584z" horiz-adv-x="563.2"  />
<glyph unicode="&#x4c;" d="M 281.6,392.448l 158.208,87.552l-30.208-185.344l 128-131.072l-176.64-27.136l-79.36-168.448l-78.848,168.448l-177.152,27.136l 128,131.072l-30.208,185.344zM 235.52,364.288l-16.896-9.216l 62.976-34.816l 62.976,34.816l-16.896,9.216c-7.51,2.73 -15.104,4.949 -22.784,6.655s-15.446,2.56 -23.296,2.56c-7.51,0 -15.36-0.854 -23.552-2.56s-15.702-3.925 -22.528-6.655z
M 345.6,271.104l 49.152-50.176l 2.56,10.24c 1.366,8.192 2.134,13.738 2.304,16.64s 0.256,5.376 0.256,7.424c0,16.384 -2.986,31.574 -8.96,45.568s-14.592,26.624 -25.856,37.888l-7.168,6.144zM 198.144,338.688c-11.264-11.264 -19.882-23.894 -25.856-37.888s-8.96-29.184 -8.96-45.568c0-4.438 0.17-8.022 0.512-10.752s 1.024-7.168 2.048-13.312l 2.56-10.24l 49.152,50.176
l-12.288,73.728zM 321.024,192.256l-25.087-54.272l 9.728,1.536c 15.36,3.072 29.27,8.874 41.728,17.408s 23.125,19.286 31.999,32.256l 7.168,12.8zM 183.809,189.184c 8.534-12.63 19.286-23.296 32.257-32s 26.965-14.592 41.983-17.664l 9.216-1.536l-25.088,54.272l-65.536,9.728z" horiz-adv-x="563.2"  />
<glyph unicode="&#x4d;" d="M 175.616,467.712l 29.185-15.874c 9.898-5.462 21.845-9.728 35.839-12.8s 27.648-4.608 40.96-4.608c 14.678,0 28.416,1.366 41.216,4.096s 24.662,7.168 35.584,13.312l 29.184,15.872c 15.36,8.192 28.842,12.288 40.448,12.288c 17.75,0 26.624-8.874 26.624-26.624c0-3.414 -0.17-5.974 -0.512-7.68l-13.824-81.92
c-0.682-5.462 -1.024-9.899 -1.024-13.313c0-17.066 4.096-35.413 12.288-55.039s 18.944-35.925 32.256-48.895l 39.936-39.936c 9.216-9.216 13.824-18.432 13.824-27.648c0-9.898 -5.034-18.517 -15.104-25.855s-24.32-12.373 -42.752-15.103l-8.192-1.024c-27.306-4.096 -53.418-13.482 -78.336-28.16s-41.472-30.55 -49.664-47.616
l-32.768-68.096c-3.754-8.192 -8.106-14.422 -13.056-18.688s-10.326-6.4 -16.128-6.4c-11.264,0 -20.992,8.362 -29.184,25.088l-32.768,68.096c-8.192,17.066 -24.662,32.938 -49.408,47.616s-50.944,24.064 -78.592,28.16l-8.192,1.024c-18.090,2.73 -32.256,7.85 -42.496,15.36s-15.36,16.043 -15.36,25.601c0,9.216 4.608,18.432 13.824,27.648l 39.936,39.936
c 12.97,12.63 23.637,28.843 31.999,48.641s 12.544,38.4 12.544,55.808c0,3.072 -0.342,7.338 -1.024,12.8l-13.824,81.92c-0.342,2.048 -0.512,4.95 -0.512,8.704c0,17.066 8.534,25.6 25.6,25.6c 6.144,0 12.458-0.938 18.944-2.816s 13.995-5.035 22.529-9.473zM 219.649,365.822l-5.121-3.072l 13.824-5.12l 14.848-7.68
c 10.24-5.802 23.040-8.704 38.4-8.704c 6.826,0 13.653,0.682 20.479,2.048s 12.8,3.584 17.92,6.656l 14.848,7.68l 13.312,5.12l-4.608,3.072c-19.114,10.582 -39.765,15.872 -61.951,15.872s-42.837-5.29 -61.951-15.872zM 189.44,343.294c-11.946-12.288 -21.248-26.112 -27.904-41.472s-9.984-32.086 -9.984-50.176c0-5.462 0.17-9.728 0.512-12.8
s 1.024-7.51 2.048-13.312l 1.536-6.144l 5.12,7.68l 19.968,19.968c 14.678,14.678 22.016,32.086 22.016,52.224c0,3.072 -0.17,5.29 -0.512,6.656l-6.656,40.96zM 360.96,305.918c-0.342-1.366 -0.512-3.753 -0.512-7.167c0-19.798 7.338-37.035 22.016-51.713l 19.968-19.968l 5.12-7.68l 1.536,6.144c 1.024,5.802 1.706,10.069 2.048,12.799s 0.512,7.168 0.512,13.312
c0,17.408 -3.328,34.048 -9.984,49.92s-16.128,29.782 -28.416,41.728l-5.632,5.12zM 167.424,189.695c 19.114-35.84 48.47-57.686 88.064-65.536l 10.24-1.536l-15.36,31.744c-3.754,8.192 -11.776,16.042 -24.064,23.552s-25.43,12.288 -39.424,14.336l-4.096,0.512c-7.51,1.024 -13.142,2.73 -16.896,5.12l-4.096,3.072zM 397.313,197.887
c-3.754-2.39 -9.386-4.095 -16.896-5.119l-4.096-0.512c-13.994-2.048 -27.050-6.742 -39.168-14.080s-20.224-15.274 -24.32-23.808l-15.36-31.744l 10.24,1.536c 19.114,3.754 36.266,11.349 51.456,22.783s 27.392,25.685 36.608,42.751l 5.632,11.264z" horiz-adv-x="563.2"  />
<glyph unicode="&#x4e;" d="M 208.384-14.592l 26.624,19.966c 19.114,13.994 41.813,20.992 68.095,20.992c 26.624,0 49.322-6.998 68.096-20.992l 27.136-19.968c 15.018-11.606 28.33-17.408 39.936-17.408c 14.336,0 21.504,8.874 21.504,26.624c-0.342,2.73 -0.512,4.778 -0.512,6.144l-7.68,72.704c-0.342,2.73 -0.512,4.778 -0.512,6.144
c0,17.75 7.594,36.267 22.784,55.553s 34.048,34.048 56.576,44.288l 12.8,5.632c 23.894,10.582 35.84,23.552 35.84,38.912s-11.946,28.33 -35.84,38.912l-12.8,5.632c-22.186,10.24 -40.96,25.002 -56.32,44.288s-23.040,37.803 -23.040,55.553c 0.342,2.73 0.512,4.778 0.512,6.144l 7.68,72.704c 0.342,3.072 0.512,5.29 0.512,6.656
c0,17.408 -7.168,26.112 -21.504,26.112c-11.606,0 -24.918-5.802 -39.936-17.408l-27.136-19.968c-8.874-7.168 -19.114-12.458 -30.72-15.872s-24.064-5.12 -37.376-5.12c-26.966,0 -49.664,6.998 -68.096,20.992l-26.624,19.968c-15.702,11.606 -29.184,17.408 -40.448,17.408c-13.994,0 -20.992-8.534 -20.992-25.6c0-3.072 0.17-5.462 0.512-7.168l 7.68-72.704
c 1.706-18.090 -5.206-37.632 -20.736-58.624s-34.901-36.778 -58.111-47.36l-13.312-5.632c-23.552-10.922 -35.328-23.893 -35.328-38.911s 11.776-27.989 35.328-38.911l 13.312-5.632c 22.186-10.24 40.874-25.088 56.064-44.544s 22.784-38.23 22.784-56.32l0-5.12 l-7.68-72.704
c-0.342-1.366 -0.512-2.731 -0.512-4.097l0-3.072 c0-17.066 6.998-25.6 20.992-25.6c 11.264,0 24.746,5.802 40.448,17.408z" horiz-adv-x="606.208"  />
<glyph unicode="&#x4f;" d="M 372.224,224l 93.696,128l-157.696-17.408l-64,145.408l-64-145.408l-158.208,17.408l 93.696-128l-93.696-128l 158.208,16.896l 64-144.896l 64,144.896l 157.696-16.896zM 275.968,168.704l-31.744-72.704l-32.256,72.704l-78.848-8.704l 47.104,64l-47.104,64l 78.848-8.704l 32.256,72.704l 31.744-72.704l 78.848,8.704l-46.592-64l 46.592-64z" horiz-adv-x="487.936"  />
<glyph unicode="&#x50;" d="M 483.328,135.936l-18.945,25.087c-12.97,17.75 -19.456,38.742 -19.456,62.976s 6.486,45.226 19.456,62.976l 18.944,25.088c 10.582,13.994 15.872,26.282 15.872,36.864c0,13.654 -8.362,20.48 -25.088,20.48c-2.39-0.342 -4.267-0.512 -5.633-0.512l-67.072-7.168c-17.408-1.706 -35.67,4.523 -54.784,18.689
s-33.621,32.342 -43.519,54.528l-5.632,11.776c-9.898,22.186 -21.845,33.28 -35.839,33.28s-26.112-11.094 -36.352-33.28l-5.12-11.776c-9.558-21.162 -23.211-38.741 -40.961-52.735s-35.158-20.992 -52.224-20.992c-2.39,0.342 -4.096,0.512 -5.12,0.512l-67.584,7.168c-2.73,0.342 -4.778,0.512 -6.144,0.512
c-16.384,0 -24.576-6.656 -24.576-19.968c0-10.24 5.462-22.698 16.384-37.376l 18.432-25.088c 6.486-8.534 11.435-18.262 14.849-29.184s 5.12-22.186 5.12-33.792c0-24.576 -6.656-45.568 -19.968-62.976l-18.432-25.088c-10.922-14.678 -16.384-27.136 -16.384-37.376c0-13.312 8.362-19.968 25.088-19.968c 2.39,0.342 4.267,0.512 5.633,0.512l 67.584,7.168
c 17.408,1.706 35.67-4.523 54.784-18.689s 33.621-32.342 43.519-54.528l 5.12-11.776c 10.24-22.186 22.358-33.28 36.352-33.28c 6.486,0 12.886,2.816 19.2,8.448s 11.861,13.91 16.639,24.832l 5.632,11.776c 9.558,21.162 23.211,38.741 40.961,52.735s 35.158,20.992 52.224,20.992
c 2.39-0.342 4.096-0.512 5.12-0.512l 67.072-7.168c 2.73-0.342 4.778-0.512 6.144-0.512c 16.384,0 24.576,7.338 24.576,22.016c0,5.12 -1.28,10.41 -3.84,15.872s-6.57,11.947 -12.032,19.457zM 365.055,151.807l-33.792,3.584c-8.874,0.682 -17.92-2.475 -27.136-9.473s-16.554-16.128 -22.016-27.392l-2.56-6.144
c-4.438-10.922 -10.411-16.384 -17.921-16.384c-6.826,0 -12.8,5.462 -17.92,16.384l-3.072,6.144c-4.778,10.922 -11.946,19.968 -21.504,27.136s-18.774,10.41 -27.648,9.728l-33.792-3.584c-9.898-1.024 -14.848,2.218 -14.848,9.728c0,5.12 2.56,11.264 7.68,18.432l 9.728,12.288c 6.486,8.534 9.728,19.115 9.728,31.745s-3.242,23.211 -9.728,31.745
l-9.728,12.288c-5.12,7.168 -7.68,13.312 -7.68,18.432c0,7.51 4.95,10.752 14.848,9.728l 33.792-3.584c 8.874-0.682 18.090,2.475 27.648,9.473s 16.726,16.128 21.504,27.392l 3.072,6.144c 5.12,10.922 11.094,16.384 17.92,16.384c 7.168,0 13.142-5.462 17.92-16.384l 2.56-6.144c 5.12-10.922 12.458-19.968 22.016-27.136s 18.603-10.41 27.137-9.728l 33.792,3.584
c 10.24,1.024 15.36-2.218 15.36-9.728c0-5.462 -2.73-11.606 -8.192-18.432l-9.216-12.288c-6.486-8.534 -9.728-19.115 -9.728-31.745s 3.242-23.211 9.728-31.745l 9.216-12.288c 6.826-8.874 9.386-16.042 7.68-21.504c-1.024-5.462 -5.974-7.68 -14.848-6.656z" horiz-adv-x="523.264"  />
<glyph unicode="&#x51;" d="M 483.328,135.936l-18.945,25.087c-12.97,17.75 -19.456,38.742 -19.456,62.976s 6.486,45.226 19.456,62.976l 18.944,25.088c 10.582,13.994 15.872,26.282 15.872,36.864c0,13.654 -8.362,20.48 -25.088,20.48c-2.39-0.342 -4.267-0.512 -5.633-0.512l-67.072-7.168c-17.408-1.706 -35.67,4.523 -54.784,18.689
s-33.621,32.342 -43.519,54.528l-5.632,11.776c-9.898,22.186 -21.845,33.28 -35.839,33.28s-26.112-11.094 -36.352-33.28l-5.12-11.776c-9.558-21.162 -23.211-38.741 -40.961-52.735s-35.158-20.992 -52.224-20.992c-2.39,0.342 -4.096,0.512 -5.12,0.512l-67.584,7.168c-2.73,0.342 -4.778,0.512 -6.144,0.512
c-16.384,0 -24.576-6.656 -24.576-19.968c0-10.24 5.462-22.698 16.384-37.376l 18.432-25.088c 6.486-8.534 11.435-18.262 14.849-29.184s 5.12-22.186 5.12-33.792c0-24.576 -6.656-45.568 -19.968-62.976l-18.432-25.088c-10.922-14.678 -16.384-27.136 -16.384-37.376c0-13.312 8.362-19.968 25.088-19.968c 2.39,0.342 4.267,0.512 5.633,0.512l 67.584,7.168
c 17.408,1.706 35.67-4.523 54.784-18.689s 33.621-32.342 43.519-54.528l 5.12-11.776c 10.24-22.186 22.358-33.28 36.352-33.28c 6.486,0 12.886,2.816 19.2,8.448s 11.861,13.91 16.639,24.832l 5.632,11.776c 9.558,21.162 23.211,38.741 40.961,52.735s 35.158,20.992 52.224,20.992
c 2.39-0.342 4.096-0.512 5.12-0.512l 67.072-7.168c 2.73-0.342 4.778-0.512 6.144-0.512c 16.384,0 24.576,7.338 24.576,22.016c0,5.12 -1.28,10.41 -3.84,15.872s-6.57,11.947 -12.032,19.457zM 295.935,164.607l-34.304-77.824l-34.304,77.824l-84.48-9.216l 50.176,68.608l-50.176,68.608l 84.48-9.216l 34.304,77.824l 34.304-77.824l 84.48,9.216l-50.176-68.608l 50.176-68.608z
" horiz-adv-x="523.264"  />
<glyph unicode="&#x52;" d="M 372.224,224l 93.696,128l-157.696-16.896l-64,144.896l-64-144.896l-158.208,16.896l 93.696-128l-93.696-128l 158.208,16.896l 64-144.896l 64,144.896l 157.696-16.896zM 340.48,156.416l-31.232,3.073c-7.85,1.024 -16.213-1.792 -25.087-8.448s-15.701-15.104 -20.479-25.344l-2.56-5.632c-4.778-10.24 -10.41-15.36 -16.896-15.36s-12.118,5.12 -16.896,15.36
l-2.56,5.632c-4.438,9.898 -11.264,18.261 -20.48,25.087s-17.75,9.728 -25.6,8.704l-31.232-3.072c-9.558-1.024 -14.336,2.048 -14.336,9.216c0,4.778 2.56,10.581 7.68,17.407l 8.704,11.264c 6.144,8.192 9.216,18.090 9.216,29.696s-3.072,21.504 -9.216,29.696l-8.704,11.264c-5.12,6.826 -7.68,12.629 -7.68,17.407c0,7.168 4.778,10.24 14.336,9.216l 31.232-3.072
c 8.192-1.024 16.726,1.706 25.6,8.192s 15.701,15.019 20.479,25.601l 2.56,5.632c 4.778,10.24 10.41,15.36 16.896,15.36s 12.118-5.12 16.896-15.36l 2.56-5.632c 4.778-10.24 11.605-18.688 20.479-25.344s 17.237-9.472 25.087-8.448l 31.232,3.072c 9.898,1.024 14.848-2.218 14.848-9.728c0-4.438 -2.56-10.070 -7.68-16.896l-8.704-11.264
c-6.144-8.192 -9.216-18.090 -9.216-29.696s 3.072-21.504 9.216-29.696l 8.704-11.264c 5.802-7.85 8.192-14.506 7.168-19.968c-1.706-5.462 -6.485-7.68 -14.335-6.656z" horiz-adv-x="487.936"  />
<glyph unicode="&#x53;" d="M 372.224,224l 93.696,128l-157.696-16.896l-64,144.896l-64-144.896l-158.208,16.896l 93.696-128l-93.696-128l 158.208,16.896l 64-144.896l 64,144.896l 157.696-16.896zM 291.84,141.056l-47.616-109.056l-48.128,109.056l-118.272-13.312l 70.144,96.256l-70.144,95.744l 118.272-12.8l 48.128,109.056l 47.616-109.056l 118.784,12.8l-70.656-95.744l 70.656-95.744zM 308.224,224l 46.592,64l-78.848-8.704l-31.744,72.704l-32.256-72.704
l-78.848,8.704l 47.104-64l-47.104-64l 78.848,8.704l 32.256-72.704l 31.744,72.704l 78.848-8.704zM 260.096,196.352l-15.872-36.352l-16.384,36.352l-39.424-4.096l 23.552,31.744l-23.552,31.744l 39.424-4.096l 16.384,36.352l 15.872-36.352l 39.424,4.096l-23.552-31.744l 23.552-31.744z" horiz-adv-x="487.936"  />
<glyph unicode="&#x54;" d="M 468.48,368.896l-67.073-7.17c-17.408-1.706 -35.67,4.523 -54.784,18.689s-33.621,32.342 -43.519,54.528l-5.632,11.776c-9.898,22.186 -21.845,33.28 -35.839,33.28s-26.112-11.094 -36.352-33.28l-5.12-11.776c-9.558-21.162 -23.211-38.741 -40.961-52.735s-35.158-20.992 -52.224-20.992
c-2.39,0.342 -4.096,0.512 -5.12,0.512l-67.584,7.168c-2.73,0.342 -4.778,0.512 -6.144,0.512c-16.384,0 -24.576-6.656 -24.576-19.968c0-10.24 5.462-22.698 16.384-37.376l 18.432-25.088c 6.486-8.534 11.435-18.262 14.849-29.184s 5.12-22.186 5.12-33.792c0-24.576 -6.656-45.568 -19.968-62.976l-18.432-25.088c-10.922-14.678 -16.384-27.136 -16.384-37.376
c0-13.312 8.362-19.968 25.088-19.968c 2.39,0.342 4.267,0.512 5.633,0.512l 67.584,7.168c 17.408,1.706 35.67-4.523 54.784-18.689s 33.621-32.342 43.519-54.528l 5.12-11.776c 10.24-22.186 22.358-33.28 36.352-33.28c 6.486,0 12.886,2.816 19.2,8.448s 11.861,13.91 16.639,24.832l 5.632,11.776
c 9.558,21.162 23.211,38.741 40.961,52.735s 35.158,20.992 52.224,20.992c 2.39-0.342 4.096-0.512 5.12-0.512l 67.072-7.168c 2.73-0.342 4.778-0.512 6.144-0.512c 16.384,0 24.576,7.338 24.576,22.016c0,5.12 -1.28,10.41 -3.84,15.872s-6.57,11.947 -12.032,19.457l-18.944,25.088c-12.97,17.75 -19.456,38.742 -19.456,62.976
s 6.486,45.226 19.456,62.976l 18.944,25.088c 5.462,7.51 9.472,14.507 12.032,20.993s 3.84,12.459 3.84,17.921c0,12.288 -8.192,18.432 -24.576,18.432c-2.73-0.342 -4.778-0.512 -6.144-0.512zM 428.031,290.046l-14.336-18.431c-4.438-6.144 -7.936-13.482 -10.496-22.016s-3.84-17.067 -3.84-25.601
c0-9.558 1.024-18.091 3.072-25.601s 5.802-14.848 11.264-22.016l 14.336-18.432c 7.85-10.582 11.776-19.115 11.776-25.601c 1.024-12.97 -6.656-18.602 -23.040-16.896l-50.176,5.12c-12.97,1.366 -26.624-3.242 -40.96-13.824s-25.258-24.235 -32.768-40.961l-4.096-9.216c-7.168-16.384 -16.214-24.576 -27.136-24.576c-10.24,0 -19.286,8.192 -27.136,24.576
l-4.096,9.216c-6.826,15.702 -16.896,28.843 -30.208,39.425s-26.282,15.872 -38.912,15.872c-2.048-0.342 -3.584-0.512 -4.608-0.512l-50.688-5.12c-15.018-1.706 -22.528,3.243 -22.528,14.849c0,8.192 3.926,17.408 11.776,27.648l 14.336,18.432c 9.898,13.654 14.848,29.526 14.848,47.616s-4.95,33.962 -14.848,47.616l-14.336,18.432c-7.85,10.24 -11.776,19.456 -11.776,27.648
c0,11.606 7.51,16.555 22.528,14.849l 50.688-5.12c 12.63-1.366 26.198,3.242 40.704,13.824s 25.514,24.235 33.024,40.961l 4.096,9.216c 7.85,16.384 16.896,24.576 27.136,24.576c 10.922,0 19.968-8.192 27.136-24.576l 4.096-9.216c 6.826-15.702 16.81-28.843 29.952-39.425s 26.198-15.872 39.168-15.872c 2.048,0.342 3.584,0.512 4.608,0.512l 50.176,5.12
c 15.36,1.706 23.040-2.731 23.040-13.313c0-8.534 -3.926-18.262 -11.776-29.184zM 372.223,179.967l-9.218,12.288c-6.486,8.534 -9.728,19.115 -9.728,31.745s 3.242,23.211 9.728,31.745l 9.216,12.288c 5.462,6.826 8.192,12.97 8.192,18.432c0,7.51 -5.12,10.752 -15.36,9.728l-33.792-3.584
c-8.874-0.682 -17.92,2.475 -27.136,9.473s-16.554,16.128 -22.016,27.392l-2.56,6.144c-4.778,10.922 -10.752,16.384 -17.92,16.384c-6.826,0 -12.8-5.462 -17.92-16.384l-3.072-6.144c-4.778-10.922 -11.946-19.968 -21.504-27.136s-18.774-10.41 -27.648-9.728l-33.792,3.584c-9.898,1.024 -14.848-2.218 -14.848-9.728c0-5.12 2.56-11.264 7.68-18.432
l 9.728-12.288c 6.486-8.534 9.728-19.115 9.728-31.745s-3.242-23.211 -9.728-31.745l-9.728-12.288c-5.12-7.168 -7.68-13.312 -7.68-18.432c0-7.51 4.95-10.752 14.848-9.728l 33.792,3.584c 8.874,0.682 18.090-2.475 27.648-9.473s 16.726-16.128 21.504-27.392l 3.072-6.144c 5.12-10.922 11.094-16.384 17.92-16.384
c 7.51,0 13.483,5.462 17.921,16.384l 2.56,6.144c 5.12,10.922 12.458,19.968 22.016,27.136s 18.603,10.41 27.137,9.728l 33.792-3.584c 8.874-1.024 13.824,1.194 14.848,6.656l 0.512,4.608c-0.682,4.778 -3.413,10.41 -8.191,16.896zM 313.341,187.647l-16.895,2.049c-4.096,0.342 -8.618-1.28 -13.568-4.864
s-8.619-8.106 -11.009-13.568l-1.536-3.072c-2.048-5.462 -4.95-8.192 -8.704-8.192s-6.826,2.73 -9.216,8.192l-1.536,3.072c-2.39,5.462 -5.974,10.070 -10.752,13.824s-9.216,5.29 -13.312,4.608l-16.896-2.048c-5.12-0.682 -7.68,1.024 -7.68,5.12c0,2.39 1.366,5.462 4.096,9.216l 4.608,6.144c 1.366,1.706 2.56,4.181 3.584,7.423
s 1.536,6.058 1.536,8.448c0,6.144 -1.706,11.434 -5.12,15.872l-4.608,6.144c-2.73,3.754 -4.096,6.997 -4.096,9.727c0,3.754 2.56,5.29 7.68,4.608l 16.896-2.048c 4.096-0.342 8.534,1.28 13.312,4.864s 8.362,8.106 10.752,13.568l 1.536,3.072c 2.73,5.462 5.802,8.192 9.216,8.192c 3.754,0 6.656-2.73 8.704-8.192l 1.536-3.072
c 2.73-5.802 6.4-10.496 11.008-14.080s 9.13-5.034 13.568-4.352l 16.896,2.048c 5.12,0.682 7.68-1.024 7.68-5.12c0-2.39 -1.366-5.462 -4.096-9.216l-4.608-6.144c-3.414-5.12 -5.12-10.41 -5.12-15.872c0-6.144 1.706-11.434 5.12-15.872l 4.608-6.144c 3.072-4.778 4.438-8.362 4.096-10.752
c-1.024-2.73 -3.584-3.925 -7.68-3.583z" horiz-adv-x="523.264"  />
<glyph unicode="&#x55;" d="M 372.224,224l 93.696,128l-157.696-16.896l-64,144.896l-64-144.896l-158.208,16.896l 93.696-128l-93.696-128l 158.208,16.896l 64-144.896l 64,144.896l 157.696-16.896zM 244.224,121.6c-28.672,0 -52.906,9.898 -72.704,29.696s-29.696,44.032 -29.696,72.704c0,28.33 9.984,52.48 29.952,72.448s 44.118,29.952 72.448,29.952s 52.48-9.984 72.448-29.952
s 29.952-44.118 29.952-72.448s-9.984-52.48 -29.952-72.448s-44.118-29.952 -72.448-29.952zM 244.224,300.8c-21.162,0 -39.253-7.51 -54.271-22.528s-22.528-33.109 -22.528-54.271s 7.51-39.253 22.528-54.271s 33.109-22.528 54.271-22.528s 39.253,7.51 54.271,22.528s 22.528,33.109 22.528,54.271
s-7.51,39.253 -22.528,54.271s-33.109,22.528 -54.271,22.528zM 244.224,172.8c-14.336,0 -26.454,4.95 -36.352,14.848s-14.848,22.016 -14.848,36.352s 4.95,26.454 14.848,36.352s 22.016,14.848 36.352,14.848s 26.454-4.95 36.352-14.848s 14.848-22.016 14.848-36.352s-4.95-26.454 -14.848-36.352s-22.016-14.848 -36.352-14.848zM 244.224,249.6
c-7.168,0 -13.226-2.474 -18.176-7.424s-7.424-11.008 -7.424-18.176s 2.474-13.226 7.424-18.176s 11.008-7.424 18.176-7.424s 13.226,2.474 18.176,7.424s 7.424,11.008 7.424,18.176c0,6.826 -2.56,12.8 -7.68,17.92s-11.094,7.68 -17.92,7.68z" horiz-adv-x="487.936"  />
<glyph unicode="&#x56;" d="M 499.2,101.632c-1.024,9.898 -6.315,21.332 -15.873,34.303l-18.944,24.576c-5.802,8.192 -10.496,18.006 -14.080,29.44s-5.376,22.784 -5.376,34.048c0,24.234 6.486,45.397 19.456,63.487l 18.944,24.576c 5.462,7.51 9.472,14.507 12.032,20.993s 3.84,12.459 3.84,17.921c0,12.288 -8.192,18.432 -24.576,18.432
c-2.73-0.342 -4.778-0.512 -6.144-0.512l-67.072-7.168c-17.408-1.706 -35.67,4.523 -54.784,18.689s-33.621,32.342 -43.519,54.528l-5.632,11.776c-9.898,22.186 -21.845,33.28 -35.839,33.28s-26.112-11.094 -36.352-33.28l-5.12-11.776c-9.558-21.162 -23.211-38.741 -40.961-52.735
s-35.158-20.992 -52.224-20.992c-2.39,0.342 -4.096,0.512 -5.12,0.512l-67.584,7.168c-2.73,0.342 -4.778,0.512 -6.144,0.512c-16.384,0 -24.576-6.656 -24.576-19.968c0-10.24 5.462-22.698 16.384-37.376l 18.432-24.576c 13.312-18.090 19.968-39.253 19.968-63.487c0-24.918 -6.656-46.080 -19.968-63.488l-18.432-24.576c-10.922-14.678 -16.384-27.136 -16.384-37.376
c0-13.312 8.362-19.968 25.088-19.968c 2.39,0.342 4.267,0.512 5.633,0.512l 67.584,7.168c 17.408,1.706 35.67-4.523 54.784-18.689s 33.621-32.342 43.519-54.528l 5.12-11.776c 10.24-22.186 22.358-33.28 36.352-33.28c 6.486,0 12.886,2.816 19.2,8.448s 11.861,13.91 16.639,24.832l 5.632,11.776
c 9.558,21.162 23.211,38.741 40.961,52.735s 35.158,20.992 52.224,20.992c 2.39-0.342 4.096-0.512 5.12-0.512l 67.072-7.168c 2.73-0.342 4.778-0.512 6.144-0.512c 16.384,0 24.576,6.656 24.576,19.968l0,3.072 zM 261.631,114.431c-30.378,0 -56.234,10.666 -77.568,32s-32,47.19 -32,77.568
s 10.666,56.234 32,77.568s 47.19,32 77.568,32s 56.234-10.666 77.568-32s 32-47.19 32-77.568s-10.666-56.234 -32-77.568s-47.19-32 -77.568-32zM 261.631,306.431c-22.87,0 -42.326-8.022 -58.368-24.064s-24.064-35.498 -24.064-58.368
s 8.022-42.326 24.064-58.368s 35.498-24.064 58.368-24.064s 42.326,8.022 58.368,24.064s 24.064,35.498 24.064,58.368s-8.022,42.326 -24.064,58.368s-35.498,24.064 -58.368,24.064zM 261.631,169.215c-15.36,0 -28.33,5.29 -38.912,15.872s-15.872,23.552 -15.872,38.912s 5.29,28.33 15.872,38.912s 23.552,15.872 38.912,15.872s 28.33-5.29 38.912-15.872s 15.872-23.552 15.872-38.912
s-5.29-28.33 -15.872-38.912s-23.552-15.872 -38.912-15.872zM 261.631,251.647c-7.85,0 -14.421-2.646 -19.711-7.936s-7.936-11.861 -7.936-19.711s 2.646-14.421 7.936-19.711s 11.861-7.936 19.711-7.936c 7.51,0 13.91,2.646 19.2,7.936s 7.936,11.861 7.936,19.711
s-2.646,14.421 -7.936,19.711s-11.69,7.936 -19.2,7.936z" horiz-adv-x="523.264"  />
<glyph unicode="&#x57;" d="M 372.224,224l 93.696,128l-157.696-16.896l-64,144.896l-64-144.896l-158.208,16.896l 93.696-128l-93.696-128l 158.208,16.896l 64-144.896l 64,144.896l 157.696-16.896zM 299.52,191.744l 8.704-78.848l-64,47.104l-64-47.104l 8.192,78.848l-72.192,32.256l 72.192,32.256l-8.192,78.848l 64-47.104l 64,47.104l-8.704-78.848l 72.704-32.256zM 275.968,224l 23.552,31.744l-39.424-4.096l-15.872,36.352l-16.384-36.352l-39.424,4.096l 23.552-31.744
l-23.552-31.744l 39.424,4.096l 16.384-36.352l 15.872,36.352l 39.424-4.096z" horiz-adv-x="487.936"  />
<glyph unicode="&#x58;" d="M 483.328,135.936l-18.945,25.087c-12.97,17.75 -19.456,38.742 -19.456,62.976s 6.486,45.226 19.456,62.976l 18.944,25.088c 10.582,13.994 15.872,26.282 15.872,36.864c0,13.654 -8.362,20.48 -25.088,20.48c-2.39-0.342 -4.267-0.512 -5.633-0.512l-67.072-7.168c-17.408-1.706 -35.67,4.523 -54.784,18.689
s-33.621,32.342 -43.519,54.528l-5.632,11.776c-9.898,22.186 -21.845,33.28 -35.839,33.28s-26.112-11.094 -36.352-33.28l-5.12-11.776c-9.558-21.162 -23.211-38.741 -40.961-52.735s-35.158-20.992 -52.224-20.992c-2.39,0.342 -4.096,0.512 -5.12,0.512l-67.584,7.168c-2.73,0.342 -4.778,0.512 -6.144,0.512
c-16.384,0 -24.576-6.656 -24.576-19.968c0-10.24 5.462-22.698 16.384-37.376l 18.432-25.088c 6.486-8.534 11.435-18.262 14.849-29.184s 5.12-22.186 5.12-33.792c0-24.576 -6.656-45.568 -19.968-62.976l-18.432-25.088c-10.922-14.678 -16.384-27.136 -16.384-37.376c0-13.312 8.362-19.968 25.088-19.968c 2.39,0.342 4.267,0.512 5.633,0.512l 67.584,7.168
c 17.408,1.706 35.67-4.523 54.784-18.689s 33.621-32.342 43.519-54.528l 5.12-11.776c 10.24-22.186 22.358-33.28 36.352-33.28c 6.486,0 12.886,2.816 19.2,8.448s 11.861,13.91 16.639,24.832l 5.632,11.776c 9.558,21.162 23.211,38.741 40.961,52.735s 35.158,20.992 52.224,20.992
c 2.39-0.342 4.096-0.512 5.12-0.512l 67.072-7.168c 2.73-0.342 4.778-0.512 6.144-0.512c 16.384,0 24.576,7.338 24.576,22.016c0,5.12 -1.28,10.41 -3.84,15.872s-6.57,11.947 -12.032,19.457zM 395.263,202.495l-7.168-3.583c-9.898-4.096 -18.602-10.24 -26.112-18.432l-5.632-6.656l-0.512,5.12c-0.682,2.39 -2.56,5.632 -5.632,9.728
l-7.68,10.24c-5.12,6.826 -7.68,15.189 -7.68,25.087c0,9.558 2.56,17.92 7.68,25.088l 7.68,10.24c 3.072,4.096 4.95,7.338 5.632,9.728l 0.512,5.12l 5.632-6.656c 7.51-8.192 16.214-14.336 26.112-18.432l 7.168-3.584c 13.312-5.802 19.968-12.97 19.968-21.504s-6.656-15.702 -19.968-21.504zM 350.207,164.608c-4.096-7.168 -6.143-15.361 -6.143-24.577l 4.608-40.448
c 1.024-12.288 -3.072-18.432 -12.288-18.432c-6.144,0 -13.482,3.242 -22.016,9.728l-14.848,11.264c-10.582,7.85 -23.211,11.776 -37.889,11.776c-14.336,0 -26.966-3.926 -37.888-11.776l-14.848-11.264c-8.534-6.486 -15.872-9.728 -22.016-9.728c-9.216,0 -13.312,6.144 -12.288,18.432l 4.608,40.448c0,4.778 -0.426,8.96 -1.28,12.544
s-2.475,7.594 -4.865,12.032l-1.536,2.56l 7.168-1.024l 27.136,2.56c 6.826,0.682 14.080-1.792 21.76-7.424s 13.398-12.886 17.152-21.76l 2.56-4.608c 4.096-8.874 8.874-13.312 14.336-13.312s 10.24,4.438 14.336,13.312l 2.048,4.608c 4.096,9.216 9.898,16.554 17.408,22.016s 14.848,7.851 22.016,7.169l 27.136-2.56l 7.168,1.024zM 344.577,281.855l-27.137-2.56
c-6.826-0.682 -14.080,1.792 -21.76,7.424s-13.568,12.886 -17.664,21.76l-2.048,4.608c-4.096,8.874 -8.874,13.312 -14.336,13.312s-10.24-4.438 -14.336-13.312l-2.56-4.608c-3.754-8.874 -9.472-16.128 -17.152-21.76s-14.934-8.106 -21.76-7.424l-27.136,2.56l-7.168-1.024l 1.536,2.56c 4.096,7.168 6.144,15.36 6.144,24.576l-4.608,40.448c-1.024,12.288 3.072,18.432 12.288,18.432
c 6.144,0 13.482-3.242 22.016-9.728l 14.848-11.264c 10.24-7.85 22.87-11.776 37.888-11.776c 15.36,0 27.99,3.926 37.888,11.776l 14.848,11.264c 8.534,6.486 15.872,9.728 22.016,9.728c 9.216,0 13.312-6.144 12.288-18.432l-4.608-40.448c0-4.778 0.426-8.96 1.28-12.544s 2.475-7.594 4.865-12.032l 1.536-2.56zM 180.224,198.911l-7.169-10.241
c-2.73-3.072 -4.608-6.314 -5.632-9.728l-0.512-5.12l-5.632,6.656c-8.534,8.534 -17.238,14.678 -26.112,18.432l-7.168,3.584c-13.312,5.802 -19.968,12.97 -19.968,21.504c0,8.192 6.656,15.36 19.968,21.504l 7.168,3.584c 5.12,2.048 9.642,4.522 13.568,7.424s 8.107,6.571 12.545,11.009l 5.632,6.656l 0.512-5.12c 1.024-3.414 2.902-6.656 5.632-9.728l 7.168-10.24
c 5.462-7.168 8.192-15.53 8.192-25.088s-2.73-17.92 -8.192-25.088z" horiz-adv-x="523.264"  />
<glyph unicode="&#x59;" d="M 372.224,224l 93.696,128l-157.696-16.896l-64,144.896l-64-144.896l-158.208,16.896l 93.696-128l-93.696-128l 158.208,16.896l 64-144.896l 64,144.896l 157.696-16.896zM 333.824,175.36l-1.024-2.56l-37.376,51.2l 37.376,51.2l 1.024-2.56c 8.534-15.018 12.8-31.232 12.8-48.64s-4.266-33.622 -12.8-48.64zM 269.824,268.544l-25.6,57.856c 17.408,0 33.536-4.010 48.384-12.032
s 26.88-19.030 36.096-33.024l 4.096-6.144zM 328.704,166.656c-9.216-13.994 -21.162-25.002 -35.839-33.024s-30.891-12.032 -48.641-12.032l 25.6,57.856l 62.976-6.656zM 159.233,166.656l-3.585,6.144l 62.976,6.656l 25.6-57.856c-17.066,0 -33.109,4.010 -48.127,12.032s-27.306,19.030 -36.864,33.024zM 218.624,268.544l-62.977,6.656l 3.584,6.144
c 9.558,13.994 21.675,25.002 36.353,33.024s 30.891,12.032 48.641,12.032zM 155.647,172.8l-1.536,2.56c-8.192,14.336 -12.288,30.55 -12.288,48.64s 4.096,34.304 12.288,48.64l 1.536,2.56l 37.376-51.2z" horiz-adv-x="487.936"  />
<glyph unicode="&#x5a;" d="M 483.328,135.936l-18.945,25.087c-12.97,17.75 -19.456,38.742 -19.456,62.976s 6.486,45.226 19.456,62.976l 18.944,25.088c 10.582,13.994 15.872,26.282 15.872,36.864c0,13.654 -8.362,20.48 -25.088,20.48c-2.39-0.342 -4.267-0.512 -5.633-0.512l-67.072-7.168c-17.408-1.706 -35.67,4.523 -54.784,18.689
s-33.621,32.342 -43.519,54.528l-5.632,11.776c-9.898,22.186 -21.845,33.28 -35.839,33.28s-26.112-11.094 -36.352-33.28l-5.12-11.776c-9.558-21.162 -23.211-38.741 -40.961-52.735s-35.158-20.992 -52.224-20.992c-2.39,0.342 -4.096,0.512 -5.12,0.512l-67.584,7.168c-2.73,0.342 -4.778,0.512 -6.144,0.512
c-16.384,0 -24.576-6.656 -24.576-19.968c0-10.24 5.462-22.698 16.384-37.376l 18.432-25.088c 6.486-8.534 11.435-18.262 14.849-29.184s 5.12-22.186 5.12-33.792c0-24.576 -6.656-45.568 -19.968-62.976l-18.432-25.088c-10.922-14.678 -16.384-27.136 -16.384-37.376c0-13.312 8.362-19.968 25.088-19.968c 2.39,0.342 4.267,0.512 5.633,0.512l 67.584,7.168
c 17.408,1.706 35.67-4.523 54.784-18.689s 33.621-32.342 43.519-54.528l 5.12-11.776c 10.24-22.186 22.358-33.28 36.352-33.28c 6.486,0 12.886,2.816 19.2,8.448s 11.861,13.91 16.639,24.832l 5.632,11.776c 9.558,21.162 23.211,38.741 40.961,52.735s 35.158,20.992 52.224,20.992
c 2.39-0.342 4.096-0.512 5.12-0.512l 67.072-7.168c 2.73-0.342 4.778-0.512 6.144-0.512c 16.384,0 24.576,7.338 24.576,22.016c0,5.12 -1.28,10.41 -3.84,15.872s-6.57,11.947 -12.032,19.457zM 261.631,114.431c-30.378,0 -56.32,10.582 -77.824,31.744s-32.256,47.104 -32.256,77.824c0,30.038 10.752,55.808 32.256,77.312s 47.446,32.256 77.824,32.256
s 56.234-10.666 77.568-32s 32-47.19 32-77.568s-10.666-56.234 -32-77.568s-47.19-32 -77.568-32zM 350.207,188.671l-7.68,10.24c-5.12,6.826 -7.68,15.189 -7.68,25.087c0,9.558 2.56,17.92 7.68,25.088l 7.68,10.24c 4.438,5.462 6.656,10.411 6.656,14.849c0,6.144 -4.096,8.704 -12.288,7.68l-27.136-2.56
c-6.826-0.682 -14.080,1.792 -21.76,7.424s-13.568,12.886 -17.664,21.76l-2.048,4.608c-4.096,8.874 -8.874,13.312 -14.336,13.312s-10.24-4.438 -14.336-13.312l-2.56-4.608c-3.754-8.874 -9.472-16.128 -17.152-21.76s-14.934-8.106 -21.76-7.424l-27.136,2.56c-8.192,1.024 -12.288-1.536 -12.288-7.68
c0-4.438 2.218-9.387 6.656-14.849l 7.168-10.24c 5.462-6.826 8.192-15.189 8.192-25.087c0-10.24 -2.73-18.602 -8.192-25.088l-7.168-10.24c-4.438-5.462 -6.656-10.411 -6.656-14.849c0-6.144 4.096-8.704 12.288-7.68l 27.136,2.56c 6.826,0.682 14.080-1.792 21.76-7.424s 13.398-12.886 17.152-21.76l 2.56-4.608
c 4.096-8.874 8.874-13.312 14.336-13.312s 10.24,4.438 14.336,13.312l 2.048,4.608c 4.096,9.216 9.898,16.554 17.408,22.016s 14.848,7.851 22.016,7.169l 27.136-2.56c 6.826-1.024 10.752,0.854 11.776,5.632c 1.024,4.096 -1.024,9.728 -6.144,16.896z" horiz-adv-x="523.264"  />
<glyph unicode="&#x61;" d="M 281.6,55.552l 158.208-87.552l-30.208,185.344l 128,131.072l-177.152,27.136l-78.848,168.448l-79.36-168.448l-176.64-27.136l 128-131.072l-30.208-185.344z" horiz-adv-x="563.2"  />
<glyph unicode="&#x62;" d="M 281.6,55.552l 158.208-87.552l-30.208,185.344l 128,131.072l-177.152,27.136l-78.848,168.448l-79.36-168.448l-176.64-27.136l 128-131.072l-30.208-185.344zM 217.6,188.672l-64,65.536l 88.576,13.312l 39.424,84.48l 39.424-84.48l 88.576-13.312l-64-65.536l 14.848-92.672l-78.848,43.52l-79.36-43.52z" horiz-adv-x="563.2"  />
<glyph unicode="&#x63;" d="M 175.616-19.712l 29.186,15.874c 22.186,11.606 47.786,17.408 76.8,17.408c 29.696,0 55.296-5.802 76.8-17.408l 29.184-15.872c 15.36-8.192 28.842-12.288 40.448-12.288c 17.75,0 26.624,8.874 26.624,26.624c0,3.414 -0.17,5.974 -0.512,7.68l-13.824,81.92c-0.682,5.462 -1.024,10.070 -1.024,13.824c0,16.726 4.182,34.902 12.544,54.528
s 19.029,35.925 31.999,48.895l 39.936,39.936c 9.216,9.216 13.824,18.432 13.824,27.648c0,9.898 -5.034,18.517 -15.104,25.855s-24.491,12.373 -43.265,15.103l-8.192,1.024c-26.966,4.096 -52.907,13.482 -77.825,28.16s-41.472,30.55 -49.664,47.616l-32.768,68.096c-7.85,16.726 -17.578,25.088 -29.184,25.088
c-10.922,0 -20.65-8.362 -29.184-25.088l-32.768-68.096c-8.192-17.066 -24.662-32.938 -49.408-47.616s-50.944-24.064 -78.592-28.16l-8.192-1.024c-18.090-2.73 -32.256-7.85 -42.496-15.36s-15.36-16.043 -15.36-25.601c0-9.216 4.608-18.432 13.824-27.648l 39.936-39.936c 12.97-12.63 23.637-28.843 31.999-48.641
s 12.544-38.4 12.544-55.808c0-3.072 -0.342-7.338 -1.024-12.8l-13.824-81.92c-0.342-2.048 -0.512-4.95 -0.512-8.704c0-17.066 8.534-25.6 25.6-25.6c 6.144,0 12.458,0.938 18.944,2.816s 13.995,5.035 22.529,9.473zM 195.586,112.898l 6.654,40.959c 0.342,1.366 0.512,3.755 0.512,7.169
c0,19.798 -7.338,37.035 -22.016,51.713l-19.968,19.968c-4.778,4.438 -7.168,9.046 -7.168,13.824c0,10.922 9.728,17.749 29.184,20.479l 4.096,0.512c 13.994,2.048 27.050,6.742 39.168,14.080s 20.224,15.274 24.32,23.808l 16.384,33.792c 4.438,8.534 9.387,12.8 14.849,12.8s 10.411-4.266 14.849-12.8l 16.384-33.792
c 3.754-8.192 11.776-16.042 24.064-23.552s 25.43-12.288 39.424-14.336l 4.096-0.512c 19.456-2.73 29.184-9.557 29.184-20.479c0-4.438 -2.39-9.046 -7.168-13.824l-19.968-19.968c-14.678-14.678 -22.016-32.086 -22.016-52.224c0-3.072 0.17-5.29 0.512-6.656l 6.656-40.96c 2.048-11.264 -2.218-16.896 -12.8-16.896
c-5.462,0 -12.118,2.048 -19.968,6.144l-14.848,7.68c-10.582,5.802 -23.382,8.704 -38.4,8.704c-14.678,0 -27.478-2.902 -38.4-8.704l-14.848-7.68c-2.048-1.366 -4.352-2.475 -6.912-3.329s-4.694-1.536 -6.4-2.048s-3.157-0.768 -4.351-0.768l-2.304,0 c-10.582,0 -14.848,5.632 -12.8,16.896z" horiz-adv-x="563.2"  />
<glyph unicode="&#x64;" d="M 175.616-19.712l 29.186,15.874c 22.186,11.606 47.786,17.408 76.8,17.408c 29.696,0 55.296-5.802 76.8-17.408l 29.184-15.872c 15.36-8.192 28.842-12.288 40.448-12.288c 17.75,0 26.624,8.874 26.624,26.624c0,3.414 -0.17,5.974 -0.512,7.68l-13.824,81.92c-0.682,5.462 -1.024,10.070 -1.024,13.824c0,16.726 4.182,34.902 12.544,54.528
s 19.029,35.925 31.999,48.895l 39.936,39.936c 9.216,9.216 13.824,18.432 13.824,27.648c0,9.898 -5.034,18.517 -15.104,25.855s-24.491,12.373 -43.265,15.103l-8.192,1.024c-26.966,4.096 -52.907,13.482 -77.825,28.16s-41.472,30.55 -49.664,47.616l-32.768,68.096c-7.85,16.726 -17.578,25.088 -29.184,25.088
c-10.922,0 -20.65-8.362 -29.184-25.088l-32.768-68.096c-8.192-17.066 -24.662-32.938 -49.408-47.616s-50.944-24.064 -78.592-28.16l-8.192-1.024c-18.090-2.73 -32.256-7.85 -42.496-15.36s-15.36-16.043 -15.36-25.601c0-9.216 4.608-18.432 13.824-27.648l 39.936-39.936c 12.97-12.63 23.637-28.843 31.999-48.641
s 12.544-38.4 12.544-55.808c0-3.072 -0.342-7.338 -1.024-12.8l-13.824-81.92c-0.342-2.048 -0.512-4.95 -0.512-8.704c0-17.066 8.534-25.6 25.6-25.6c 6.144,0 12.458,0.938 18.944,2.816s 13.995,5.035 22.529,9.473zM 217.602,188.162l-64,65.536l 88.576,13.824l 39.424,83.968l 39.424-83.968l 88.576-13.824l-64-65.536l 14.848-92.672
l-78.848,44.032l-79.36-44.032z" horiz-adv-x="563.2"  />
<glyph unicode="&#x65;" d="M 281.6,55.552l 158.208-87.552l-30.208,185.344l 128,131.072l-177.152,27.136l-78.848,168.448l-79.36-168.448l-176.64-27.136l 128-131.072l-30.208-185.344zM 195.584,113.408l 6.655,40.959c 0.342,1.366 0.512,3.755 0.512,7.169c0,19.798 -7.338,37.035 -22.016,51.713l-19.968,19.968c-4.778,4.438 -7.168,9.046 -7.168,13.824
c0,10.922 9.728,17.749 29.184,20.479l 4.096,0.512c 13.994,2.048 27.050,6.742 39.168,14.080s 20.224,15.274 24.32,23.808l 16.384,33.792c 4.438,8.534 9.387,12.8 14.849,12.8s 10.411-4.266 14.849-12.8l 16.384-33.792c 3.754-8.192 11.776-16.042 24.064-23.552s 25.43-12.288 39.424-14.336l 4.096-0.512c 19.456-2.73 29.184-9.557 29.184-20.479
c0-4.438 -2.39-9.046 -7.168-13.824l-19.968-19.968c-14.678-14.678 -22.016-32.086 -22.016-52.224c0-3.072 0.17-5.29 0.512-6.656l 6.656-40.96c 2.048-11.264 -2.218-16.896 -12.8-16.896c-5.462,0 -12.118,2.048 -19.968,6.144l-14.848,7.68c-9.898,5.462 -22.698,8.192 -38.4,8.192c-15.018,0 -27.818-2.73 -38.4-8.192l-14.848-7.68
c-5.462-3.072 -9.472-4.864 -12.032-5.376s-4.438-0.768 -5.632-0.768l-2.304,0 c-10.582,0 -14.848,5.632 -12.8,16.896z" horiz-adv-x="563.2"  />
<glyph unicode="&#x66;" d="M 281.6,55.552l 158.208-87.552l-30.208,185.344l 128,131.072l-177.152,27.136l-78.848,168.448l-79.36-168.448l-176.64-27.136l 128-131.072l-30.208-185.344zM 185.344,170.752l-95.744,98.816l 132.608,19.968l 59.392,126.464l 59.392-126.464l 132.608-19.968l-96.256-98.816l 23.040-138.752l-118.784,65.536l-118.784-65.536zM 281.6,139.52l 78.848-43.52l-14.848,92.672l 64,65.536l-88.576,13.312l-39.424,84.48l-39.424-84.48l-88.576-13.312l 64-65.536
l-15.36-92.672zM 249.344,206.080l-31.744,32.768l 44.032,7.168l 19.968,41.984l 19.968-41.984l 44.032-7.168l-32.256-32.768l 7.68-46.080l-39.424,22.016l-39.424-22.016z" horiz-adv-x="563.2"  />
<glyph unicode="&#x67;" d="M 175.616-19.712l 29.186,15.874c 22.186,11.606 47.786,17.408 76.8,17.408c 29.696,0 55.296-5.802 76.8-17.408l 29.184-15.872c 15.36-8.192 28.842-12.288 40.448-12.288c 17.75,0 26.624,8.874 26.624,26.624c0,3.414 -0.17,5.974 -0.512,7.68l-13.824,81.92c-0.682,5.462 -1.024,10.070 -1.024,13.824c0,16.726 4.182,34.902 12.544,54.528
s 19.029,35.925 31.999,48.895l 39.936,39.936c 9.216,9.216 13.824,18.432 13.824,27.648c0,9.898 -5.034,18.517 -15.104,25.855s-24.491,12.373 -43.265,15.103l-8.192,1.024c-26.966,4.096 -52.907,13.482 -77.825,28.16s-41.472,30.55 -49.664,47.616l-32.768,68.096c-7.85,16.726 -17.578,25.088 -29.184,25.088
c-10.922,0 -20.65-8.362 -29.184-25.088l-32.768-68.096c-8.192-17.066 -24.662-32.938 -49.408-47.616s-50.944-24.064 -78.592-28.16l-8.192-1.024c-18.090-2.73 -32.256-7.85 -42.496-15.36s-15.36-16.043 -15.36-25.601c0-9.216 4.608-18.432 13.824-27.648l 39.936-39.936c 12.97-12.63 23.637-28.843 31.999-48.641
s 12.544-38.4 12.544-55.808c0-3.072 -0.342-7.338 -1.024-12.8l-13.824-81.92c-0.342-2.048 -0.512-4.95 -0.512-8.704c0-17.066 8.534-25.6 25.6-25.6c 6.144,0 12.458,0.938 18.944,2.816s 13.995,5.035 22.529,9.473zM 152.066,57.602l 10.752,61.439c 0.342,2.048 0.512,5.29 0.512,9.728
c0,12.63 -3.158,26.454 -9.472,41.472s-14.25,27.306 -23.808,36.864l-30.208,30.208c-6.826,6.826 -10.24,13.653 -10.24,20.479c0,16.042 14.506,26.282 43.52,30.72l 6.144,1.024c 20.48,3.072 40.022,10.070 58.624,20.992s 30.976,22.869 37.12,35.839l 24.576,50.688c 6.486,12.63 13.824,18.944 22.016,18.944s 15.53-6.314 22.016-18.944l 24.576-50.688
c 6.144-12.97 18.346-24.917 36.608-35.839s 37.974-17.92 59.136-20.992l 6.144-1.024c 13.994-2.048 24.746-5.802 32.256-11.264s 11.264-11.947 11.264-19.457c0-6.826 -3.414-13.653 -10.24-20.479l-30.208-30.208c-9.558-9.558 -17.494-21.846 -23.808-36.864s-9.472-29.013 -9.472-41.983
c0-4.096 0.17-7.168 0.512-9.216l 10.752-61.44c 0.342-1.366 0.512-3.414 0.512-6.144c0-12.97 -6.656-19.456 -19.968-19.456c-8.534,0 -18.774,3.072 -30.72,9.216l-22.016,11.776c-15.702,8.534 -34.816,12.8 -57.344,12.8s-41.642-4.266 -57.344-12.8l-22.528-11.776c-5.802-3.072 -11.264-5.376 -16.384-6.912s-9.898-2.304 -14.336-2.304
c-12.97,0 -19.456,6.656 -19.456,19.968c0,2.39 0.17,4.267 0.512,5.633zM 367.618,112.898l-6.654,40.958c-0.342,1.366 -0.512,3.755 -0.512,7.169c0,19.798 7.338,37.035 22.016,51.713l 19.968,19.968c 4.778,4.438 7.168,9.046 7.168,13.824c0,10.922 -9.728,17.749 -29.184,20.479l-4.096,0.512
c-13.994,2.048 -27.050,6.742 -39.168,14.080s-20.224,15.274 -24.32,23.808l-16.384,33.792c-4.438,8.534 -9.387,12.8 -14.849,12.8s-10.411-4.266 -14.849-12.8l-16.384-33.792c-3.754-8.192 -11.776-16.042 -24.064-23.552s-25.43-12.288 -39.424-14.336l-4.096-0.512c-19.456-2.73 -29.184-9.557 -29.184-20.479
c0-4.438 2.39-9.046 7.168-13.824l 19.968-19.968c 14.678-14.678 22.016-32.086 22.016-52.224c0-3.072 -0.17-5.29 -0.512-6.656l-6.656-40.96c-2.048-11.264 2.39-16.896 13.312-16.896c 2.048,0 3.754,0.17 5.12,0.512c 5.802,1.366 10.581,3.243 14.335,5.633l 14.848,7.68c 10.922,5.802 23.722,8.704 38.4,8.704
c 15.018,0 27.818-2.902 38.4-8.704l 14.848-7.68c 7.85-4.096 14.677-6.144 20.479-6.144c 10.24,0 14.336,5.632 12.288,16.896zM 238.596,168.704l 3.071,20.479c 1.706,10.582 -1.878,20.31 -10.752,29.184l-9.728,10.24c-2.39,2.048 -3.584,4.266 -3.584,6.656c0,5.12 4.778,8.534 14.336,10.24l 2.048,0.512c 7.51,1.024 14.166,3.242 19.968,6.656
s 9.898,7.339 12.288,11.777l 8.192,17.408c 2.048,4.096 4.438,6.144 7.168,6.144s 5.12-2.048 7.168-6.144l 8.192-17.408c 2.048-4.096 6.23-7.936 12.544-11.52s 12.885-5.888 19.711-6.912l 2.048-0.512c 9.558-1.706 14.336-5.12 14.336-10.24c0-2.39 -1.194-4.608 -3.584-6.656l-9.728-10.24c-8.874-8.874 -12.629-18.602 -11.263-29.184l 3.584-20.48
c 1.024-5.802 -1.194-8.704 -6.656-8.704c-2.73,0 -5.973,1.024 -9.727,3.072l-7.68,4.096c-5.462,2.73 -11.776,4.096 -18.944,4.096c-6.826,0 -13.312-1.366 -19.456-4.096l-7.168-4.096c-2.73-1.706 -5.12-2.56 -7.168-2.56c-7.168-1.706 -10.24,1.024 -9.216,8.192z" horiz-adv-x="563.2"  />
<glyph unicode="&#x68;" d="M 281.6,55.552l 158.208-87.552l-30.208,185.344l 128,131.072l-177.152,27.136l-78.848,168.448l-79.36-168.448l-176.64-27.136l 128-131.072l-30.208-185.344zM 163.328,196.864c0,32.426 11.606,60.244 34.816,83.454s 51.029,34.816 83.455,34.816s 60.245-11.606 83.455-34.816s 34.816-51.029 34.816-83.455s-11.606-60.245 -34.816-83.455
s-51.029-34.816 -83.455-34.816s-60.245,11.434 -83.455,34.304s-34.816,50.859 -34.816,83.969zM 370.176,196.863c0,24.234 -8.534,45.056 -25.6,62.464s-38.058,26.112 -62.976,26.112c-24.234,0 -45.056-8.704 -62.464-26.112s-26.112-38.23 -26.112-62.464c0-24.576 8.618-45.482 25.856-62.72s 38.144-25.856 62.72-25.856
s 45.482,8.618 62.72,25.856s 25.856,38.144 25.856,62.72zM 222.72,196.863c0,16.384 5.718,30.294 17.152,41.728s 25.344,17.152 41.728,17.152s 30.294-5.718 41.728-17.152s 17.152-25.344 17.152-41.728s-5.632-30.378 -16.896-41.984s-25.258-17.408 -41.984-17.408c-16.042,0 -29.866,5.802 -41.472,17.408s-17.408,25.6 -17.408,41.984z
M 311.296,196.863c0,7.85 -2.902,14.678 -8.704,20.481s-12.8,8.704 -20.992,8.704s-15.19-2.73 -20.992-8.192s-8.704-12.459 -8.704-20.993c0-8.192 2.902-15.19 8.704-20.992s 12.8-8.704 20.992-8.704s 15.19,2.902 20.992,8.704s 8.704,12.8 8.704,20.992z" horiz-adv-x="563.2"  />
<glyph unicode="&#x69;" d="M 175.616-19.712l 29.186,15.874c 22.186,11.606 47.786,17.408 76.8,17.408c 29.696,0 55.296-5.802 76.8-17.408l 29.184-15.872c 15.36-8.192 28.842-12.288 40.448-12.288c 17.75,0 26.624,8.874 26.624,26.624c0,3.414 -0.17,5.974 -0.512,7.68l-13.824,81.92c-0.682,5.462 -1.024,10.070 -1.024,13.824c0,16.726 4.182,34.902 12.544,54.528
s 19.029,35.925 31.999,48.895l 39.936,39.936c 9.216,9.216 13.824,18.432 13.824,27.648c0,9.898 -5.034,18.517 -15.104,25.855s-24.491,12.373 -43.265,15.103l-8.192,1.024c-26.966,4.096 -52.907,13.482 -77.825,28.16s-41.472,30.55 -49.664,47.616l-32.768,68.096c-7.85,16.726 -17.578,25.088 -29.184,25.088
c-10.922,0 -20.65-8.362 -29.184-25.088l-32.768-68.096c-8.192-17.066 -24.662-32.938 -49.408-47.616s-50.944-24.064 -78.592-28.16l-8.192-1.024c-18.090-2.73 -32.256-7.85 -42.496-15.36s-15.36-16.043 -15.36-25.601c0-9.216 4.608-18.432 13.824-27.648l 39.936-39.936c 12.97-12.63 23.637-28.843 31.999-48.641
s 12.544-38.4 12.544-55.808c0-3.072 -0.342-7.338 -1.024-12.8l-13.824-81.92c-0.342-2.048 -0.512-4.95 -0.512-8.704c0-17.066 8.534-25.6 25.6-25.6c 6.144,0 12.458,0.938 18.944,2.816s 13.995,5.035 22.529,9.473zM 163.33,196.354c0,32.426 11.606,60.246 34.816,83.457s 51.029,34.816 83.455,34.816
s 60.245-11.434 83.455-34.304s 34.816-50.859 34.816-83.969c0-32.426 -11.606-60.245 -34.816-83.455s-51.029-34.816 -83.455-34.816s-60.245,11.606 -83.455,34.816s-34.816,51.029 -34.816,83.455zM 370.178,196.355c0,24.234 -8.704,45.056 -26.112,62.464s-38.23,26.112 -62.464,26.112
c-24.576,0 -45.482-8.618 -62.72-25.856s-25.856-38.144 -25.856-62.72c0-24.234 8.534-45.056 25.6-62.464s 38.058-26.112 62.976-26.112c 24.234,0 45.056,8.704 62.464,26.112s 26.112,38.23 26.112,62.464zM 222.722,196.355c0,16.384 5.632,30.378 16.896,41.984s 25.258,17.408 41.984,17.408c 16.042,0 29.866-5.802 41.472-17.408s 17.408-25.6 17.408-41.984
s-5.718-30.294 -17.152-41.728s-25.344-17.152 -41.728-17.152s-30.294,5.718 -41.728,17.152s-17.152,25.344 -17.152,41.728zM 311.298,196.355c0,8.192 -2.902,15.188 -8.704,20.991s-12.8,8.704 -20.992,8.704s-15.19-2.902 -20.992-8.704s-8.704-12.8 -8.704-20.992c0-7.85 2.902-14.677 8.704-20.479
s 12.8-8.704 20.992-8.704s 15.19,2.73 20.992,8.192s 8.704,12.459 8.704,20.993z" horiz-adv-x="563.2"  />
<glyph unicode="&#x6a;" d="M 280.576,55.040l-38.4,82.432l-88.576,13.824l 64,65.536l-15.36,92.672l 78.336-43.52l-18.944-39.936l-44.032-6.656l 31.744-32.768l-7.168-46.080l 39.424,21.504l 39.424-21.504l-7.68,46.080l 32.256,32.768l-44.032,6.656l-18.944,39.936l 77.824,43.52l-14.848-92.672l 64-65.536l-88.576-13.824l-38.4-82.432l 157.184-87.040l-30.208,185.344l 128,131.072l-177.152,27.136l-78.848,168.448l-79.36-168.448l-176.64-27.136l 128-131.072l-30.208-185.344z" horiz-adv-x="563.2"  />
<glyph unicode="&#x6b;" d="M 175.616-19.712l 29.185,15.875c 22.186,11.606 47.786,17.408 76.8,17.408c 29.696,0 55.296-5.802 76.8-17.408l 29.184-15.872c 15.36-8.192 28.842-12.288 40.448-12.288c 17.75,0 26.624,8.874 26.624,26.624c0,3.414 -0.17,5.974 -0.512,7.68l-13.824,81.92c-0.682,5.462 -1.024,10.070 -1.024,13.824c0,16.726 4.182,34.902 12.544,54.528
s 19.029,35.925 31.999,48.895l 39.936,39.936c 9.216,9.216 13.824,18.432 13.824,27.648c0,9.898 -5.034,18.517 -15.104,25.855s-24.32,12.373 -42.752,15.103l-8.704,1.024c-26.966,4.096 -52.907,13.482 -77.825,28.16s-41.472,30.55 -49.664,47.616l-32.768,68.096c-7.85,16.726 -17.578,25.088 -29.184,25.088c-10.922,0 -20.65-8.362 -29.184-25.088
l-32.768-68.096c-8.192-17.066 -24.662-32.938 -49.408-47.616s-50.773-24.064 -78.079-28.16l-8.704-1.024c-18.090-2.73 -32.256-7.85 -42.496-15.36s-15.36-16.043 -15.36-25.601c0-9.216 4.608-18.432 13.824-27.648l 39.936-39.936c 12.97-12.63 23.637-28.843 31.999-48.641s 12.544-38.23 12.544-55.296l0-6.656 
c-0.682-3.072 -1.024-5.29 -1.024-6.656l-13.824-81.92c-0.342-2.048 -0.512-4.95 -0.512-8.704c0-17.066 8.534-25.6 25.6-25.6c 12.63,0 26.454,4.096 41.472,12.288zM 264.193,42.243l-19.97,40.96c-3.754,7.51 -10.41,14.678 -19.968,21.504l-2.048,1.536l 5.12,0 c 1.706,0.342 3.498,0.854 5.376,1.536
s 4.011,1.706 6.401,3.072l 11.776,6.144c 8.534,4.438 18.774,6.656 30.72,6.656c 12.63,0 22.87-2.218 30.72-6.656l 11.776-6.144c 1.024-0.682 2.73-1.45 5.12-2.304l 6.656-2.304l 5.12,0 l-2.048-1.536c-9.558-6.826 -16.214-13.994 -19.968-21.504l-19.968-40.96c-4.778-10.24 -10.581-15.36 -17.407-15.36
s-12.629,5.12 -17.407,15.36zM 203.775,116.995c-11.946,6.144 -23.894,9.898 -35.84,11.264l-5.12,1.024c-23.21,3.072 -34.816,11.094 -34.816,24.064c0,5.802 2.73,11.434 8.192,16.896l 24.064,24.064c 7.168,7.168 12.8,15.36 16.896,24.576l 2.56,5.12l 5.12-8.704l 15.872-15.872c 11.946-12.63 17.92-26.624 17.92-41.984c0-2.39 -0.17-4.096 -0.512-5.12l-5.632-32.768l 1.024-7.68z
M 350.719,119.555l-5.631,32.768c-0.342,1.024 -0.512,2.902 -0.512,5.632c0,6.486 1.706,13.654 5.12,21.504s 7.68,14.506 12.8,19.968l 15.872,15.872l 5.12,8.704l 2.048-5.12c 4.778-9.558 10.581-17.75 17.407-24.576l 24.064-24.064c 5.462-5.462 8.192-11.094 8.192-16.896c0-5.462 -3.158-10.496 -9.472-15.104
s-14.762-7.594 -25.344-8.96l-5.12-1.024c-5.802-0.682 -11.69-1.962 -17.664-3.84s-12.032-4.352 -18.176-7.424l-9.728-5.12zM 184.319,237.827c 1.024,3.072 1.705,6.143 2.047,9.215s 0.512,6.486 0.512,10.24c0,3.414 -0.17,5.803 -0.512,7.169l-8.192,49.152c-2.048,13.654 3.242,20.48 15.872,20.48
c 7.51,0 15.531-2.39 24.065-7.168l 17.408-9.728c 5.462-3.072 10.923-5.376 16.385-6.912s 11.264-2.304 17.408-2.304l 5.632-0.512l-5.12-7.168l-13.312-27.136c-3.072-6.826 -9.472-13.056 -19.2-18.688s-20.224-9.472 -31.488-11.52l-3.584-0.512c-1.706-0.342 -3.328-0.598 -4.864-0.768s-4.352-1.109 -8.448-2.815
l-5.632-4.608zM 374.27,238.85c-4.438,2.048 -8.874,3.243 -13.312,3.585l-3.584,0.512c-11.264,1.706 -21.76,5.461 -31.488,11.263s-16.298,12.117 -19.712,18.943l-12.8,27.136l-5.12,7.168l 5.632,0.512c 5.802,0 11.434,0.768 16.896,2.304s 11.094,3.84 16.896,6.912l 17.408,9.728c 4.438,2.39 8.704,4.182 12.8,5.376
s 8.022,1.792 11.776,1.792c 12.288,0 17.408-6.826 15.36-20.48l-8.192-49.152c-0.342-1.706 -0.512-4.437 -0.512-8.191c0-4.778 0.854-10.922 2.56-18.432l 1.024-3.584z" horiz-adv-x="563.2"  />
<glyph unicode="&#x6c;" d="M 281.6,55.552l 158.208-87.552l-30.208,185.344l 128,131.072l-177.152,27.136l-78.848,168.448l-79.36-168.448l-176.64-27.136l 128-131.072l-30.208-185.344zM 235.52,83.712l-16.896,9.216l 62.976,34.816l 62.976-34.816l-16.896-9.216c-7.51-2.73 -15.104-4.949 -22.784-6.655s-15.446-2.56 -23.296-2.56c-7.51,0 -15.36,0.854 -23.552,2.56s-15.702,3.925 -22.528,6.655z
M 345.6,176.896l 49.152,50.176l 2.56-10.24c 0.682-3.072 1.28-6.4 1.792-9.984s 0.768-8.278 0.768-14.080c0-16.384 -2.986-31.574 -8.96-45.568s-14.592-26.624 -25.856-37.888l-7.68-6.144zM 198.144,109.312c-11.264,11.264 -19.882,23.895 -25.856,37.889s-8.96,29.184 -8.96,45.568c0,4.778 0.17,8.533 0.512,11.263s 1.024,6.997 2.048,12.799l 2.56,10.24
l 49.152-50.176l-12.288-73.728zM 321.024,255.745l-25.087,54.272l 9.216-1.536c 15.702-3.072 29.782-8.79 42.24-17.152s 23.125-19.2 31.999-32.512l 7.168-12.8zM 183.809,258.817c 8.192,12.288 18.774,22.87 31.745,31.744s 26.965,14.848 41.983,17.92l 9.728,1.536l-25.088-54.272l-65.536-9.728z" horiz-adv-x="563.2"  />
<glyph unicode="&#x6d;" d="M 175.616-19.712l 29.186,15.874c 22.186,11.606 47.786,17.408 76.8,17.408c 29.696,0 55.296-5.802 76.8-17.408l 29.184-15.872c 15.36-8.192 28.842-12.288 40.448-12.288c 17.75,0 26.624,8.874 26.624,26.624c0,3.414 -0.17,5.974 -0.512,7.68l-13.824,81.92c-0.682,5.462 -1.024,10.070 -1.024,13.824c0,16.726 4.182,34.902 12.544,54.528
s 19.029,35.925 31.999,48.895l 39.936,39.936c 9.216,9.216 13.824,18.432 13.824,27.648c0,9.898 -5.034,18.517 -15.104,25.855s-24.491,12.373 -43.265,15.103l-8.192,1.024c-26.966,4.096 -52.907,13.482 -77.825,28.16s-41.472,30.55 -49.664,47.616l-32.768,68.096c-7.85,16.726 -17.578,25.088 -29.184,25.088
c-10.922,0 -20.65-8.362 -29.184-25.088l-32.768-68.096c-8.192-17.066 -24.662-32.938 -49.408-47.616s-50.944-24.064 -78.592-28.16l-8.192-1.024c-18.090-2.73 -32.256-7.85 -42.496-15.36s-15.36-16.043 -15.36-25.601c0-9.216 4.608-18.432 13.824-27.648l 39.936-39.936c 12.97-12.63 23.637-28.843 31.999-48.641
s 12.544-38.4 12.544-55.808c0-3.072 -0.342-7.338 -1.024-12.8l-13.824-81.92c-0.342-2.048 -0.512-4.95 -0.512-8.704c0-17.066 8.534-25.6 25.6-25.6c 6.144,0 12.458,0.938 18.944,2.816s 13.995,5.035 22.529,9.473zM 219.65,82.178l-5.121,3.072l 13.824,5.12l 14.848,7.68c 10.922,5.802 23.722,8.704 38.4,8.704
c 15.018,0 27.818-2.902 38.4-8.704l 14.848-7.68l 13.312-5.12l-4.608-3.072c-19.114-10.582 -39.765-15.872 -61.951-15.872s-42.837,5.29 -61.951,15.872zM 189.441,104.706c-11.946,11.946 -21.248,25.77 -27.904,41.471s-9.984,32.427 -9.984,50.177c0,5.462 0.17,9.728 0.512,12.8s 1.024,7.51 2.048,13.312l 1.536,6.144
l 5.12-7.68l 19.968-19.968c 14.678-14.678 22.016-32.086 22.016-52.224c0-3.072 -0.17-5.29 -0.512-6.656l-6.656-40.96zM 360.961,142.082c-0.342,1.366 -0.512,3.753 -0.512,7.167c0,19.798 7.338,37.035 22.016,51.713l 19.968,19.968l 5.12,7.68l 1.536-6.144c 1.024-5.802 1.706-10.069 2.048-12.799s 0.512-7.168 0.512-13.312
c0-17.408 -3.328-33.962 -9.984-49.664s-16.128-29.696 -28.416-41.984l-5.632-5.12zM 167.425,258.304c 9.216,17.066 21.418,31.318 36.608,42.753s 32.342,19.029 51.456,22.783l 10.24,1.536l-15.36-31.744c-3.754-8.192 -11.776-16.042 -24.064-23.552s-25.43-12.288 -39.424-14.336l-4.096-0.512c-7.51-1.024 -13.142-2.73 -16.896-5.12l-4.096-3.072z
M 397.313,250.113c-3.414,2.39 -9.046,4.095 -16.896,5.119l-4.096,0.512c-13.994,2.048 -27.050,6.742 -39.168,14.080s-20.224,15.274 -24.32,23.808l-15.36,31.744l 10.24-1.536c 19.114-3.754 36.266-11.349 51.456-22.783s 27.392-25.685 36.608-42.751l 5.632-11.264z" horiz-adv-x="563.2"  />
<glyph unicode="&#x6e;" d="M 325.12,76.032l 147.456-108.032l-19.968,182.272l 167.936,73.728l-167.936,73.728l 19.968,182.272l-147.968-108.032l-147.456,108.032l 19.968-182.272l-167.424-73.728l 167.424-73.728l-19.968-182.272z" horiz-adv-x="649.728"  />
<glyph unicode="&#x6f;" d="M 325.12,76.032l 147.456-108.032l-19.968,182.272l 167.936,73.728l-167.936,73.728l 19.968,182.272l-147.968-108.032l-147.456,108.032l 19.968-182.272l-167.424-73.728l 167.424-73.728l-19.968-182.272zM 261.12,187.136l-83.968,36.864l 83.968,36.864l-10.24,91.136l 74.24-54.272l 73.728,54.272l-10.24-91.136l 83.968-36.864l-83.968-36.864l 10.24-91.136l-73.728,54.272l-74.24-54.272z" horiz-adv-x="649.728"  />
<glyph unicode="&#x70;" d="M 208.384-14.592l 26.624,19.966c 19.114,13.994 41.813,20.992 68.095,20.992c 26.624,0 49.322-6.998 68.096-20.992l 27.136-19.968c 15.018-11.606 28.33-17.408 39.936-17.408c 14.336,0 21.504,8.874 21.504,26.624c-0.342,2.73 -0.512,4.778 -0.512,6.144l-7.68,72.704c-0.342,2.73 -0.512,4.778 -0.512,6.144
c0,17.75 7.594,36.267 22.784,55.553s 34.048,34.048 56.576,44.288l 12.8,5.632c 23.894,10.582 35.84,23.552 35.84,38.912s-11.946,28.33 -35.84,38.912l-12.8,5.632c-22.186,10.24 -40.96,25.002 -56.32,44.288s-23.040,37.803 -23.040,55.553c 0.342,2.73 0.512,4.778 0.512,6.144l 7.68,72.704c 0.342,3.072 0.512,5.29 0.512,6.656
c0,17.408 -7.338,26.112 -22.016,26.112c-11.606,0 -24.918-5.802 -39.936-17.408l-26.624-19.968c-8.874-7.168 -19.114-12.458 -30.72-15.872s-24.064-5.12 -37.376-5.12c-26.966,0 -49.664,6.998 -68.096,20.992l-26.624,19.968c-15.702,11.606 -29.184,17.408 -40.448,17.408c-13.994,0 -20.992-8.534 -20.992-25.6c0-3.072 0.17-5.462 0.512-7.168l 7.68-72.704
c 1.706-18.090 -5.206-37.632 -20.736-58.624s-34.901-36.778 -58.111-47.36l-13.312-5.632c-23.552-10.922 -35.328-23.893 -35.328-38.911s 11.776-27.989 35.328-38.911l 13.312-5.632c 22.186-10.24 40.874-25.088 56.064-44.544s 22.784-38.23 22.784-56.32l0-5.12 l-7.68-72.704
c-0.342-1.366 -0.512-2.731 -0.512-4.097l0-3.072 c0-8.534 2.134-14.934 6.4-19.2s 9.984-6.4 17.152-6.4c 5.12,0 10.838,1.536 17.152,4.608s 13.226,7.338 20.736,12.8zM 225.28,112.382l 3.585,36.351c 1.024,9.216 -2.218,18.944 -9.728,29.184s-17.408,18.090 -29.696,23.552l-6.144,3.072c-11.946,5.12 -17.92,11.606 -17.92,19.456
c0,7.168 5.974,13.654 17.92,19.456l 6.144,3.072c 11.946,5.462 21.76,13.227 29.44,23.297s 11.008,19.883 9.984,29.441l-3.584,36.352c-1.024,10.922 2.56,16.384 10.752,16.384c 5.802,0 12.288-2.902 19.456-8.704l 13.824-10.24c 8.874-6.826 20.138-10.24 33.792-10.24c 13.994,0 25.429,3.414 34.303,10.24l 13.312,10.24c 7.168,5.802 13.824,8.704 19.968,8.704
c 7.85,0 11.264-5.462 10.24-16.384l-3.584-36.352c-1.024-9.558 2.218-19.371 9.728-29.441s 17.408-17.835 29.696-23.297l 6.656-3.072c 11.946-5.802 17.92-12.288 17.92-19.456c0-7.85 -5.974-14.336 -17.92-19.456l-6.656-3.072c-11.606-5.462 -21.334-13.398 -29.184-23.808s-11.264-20.053 -10.24-28.927l 3.584-36.352
c 1.024-10.922 -2.56-16.384 -10.752-16.384c-5.802,0 -12.288,2.902 -19.456,8.704l-13.312,10.24c-9.558,6.826 -20.992,10.24 -34.304,10.24c-12.97,0 -24.234-3.414 -33.792-10.24l-13.824-10.24c-9.216-7.168 -16.896-9.898 -23.040-8.192c-5.802,1.024 -8.192,6.314 -7.168,15.872z" horiz-adv-x="606.208"  />
<glyph unicode="&#x71;" d="M 208.384-14.592l 26.624,19.966c 19.114,13.994 41.813,20.992 68.095,20.992c 26.624,0 49.322-6.998 68.096-20.992l 27.136-19.968c 15.018-11.606 28.33-17.408 39.936-17.408c 14.336,0 21.504,8.874 21.504,26.624c-0.342,2.73 -0.512,4.778 -0.512,6.144l-7.68,72.704c-0.342,2.73 -0.512,4.778 -0.512,6.144
c0,17.75 7.594,36.267 22.784,55.553s 34.048,34.048 56.576,44.288l 12.8,5.632c 23.894,10.582 35.84,23.552 35.84,38.912s-11.946,28.33 -35.84,38.912l-12.8,5.632c-22.186,10.24 -40.96,25.002 -56.32,44.288s-23.040,37.803 -23.040,55.553c 0.342,2.73 0.512,4.778 0.512,6.144l 7.68,72.704c 0.342,3.072 0.512,5.29 0.512,6.656
c0,17.408 -7.338,26.112 -22.016,26.112c-11.606,0 -24.918-5.802 -39.936-17.408l-26.624-19.968c-8.874-7.168 -19.114-12.458 -30.72-15.872s-24.064-5.12 -37.376-5.12c-26.966,0 -49.664,6.998 -68.096,20.992l-26.624,19.968c-15.702,11.606 -29.184,17.408 -40.448,17.408c-13.994,0 -20.992-8.534 -20.992-25.6c0-3.072 0.17-5.462 0.512-7.168l 7.68-72.704
c 1.706-18.090 -5.206-37.632 -20.736-58.624s-34.901-36.778 -58.111-47.36l-13.312-5.632c-23.552-10.922 -35.328-23.893 -35.328-38.911s 11.776-27.989 35.328-38.911l 13.312-5.632c 22.186-10.24 40.874-25.088 56.064-44.544s 22.784-38.23 22.784-56.32l0-5.12 l-7.68-72.704
c-0.342-1.366 -0.512-2.731 -0.512-4.097l0-3.072 c0-8.534 2.134-14.934 6.4-19.2s 9.984-6.4 17.152-6.4c 5.12,0 10.838,1.536 17.152,4.608s 13.226,7.338 20.736,12.8zM 239.104,187.134l-83.456,36.864l 83.456,36.864l-9.728,91.136l 73.728-54.272l 73.728,54.272l-9.728-91.136l 83.968-36.864l-83.968-36.864l 9.728-91.136l-73.728,54.272l-73.728-54.272
z" horiz-adv-x="606.208"  />
<glyph unicode="&#x72;" d="M 325.12,76.032l 147.456-108.032l-19.968,182.272l 167.936,73.728l-167.936,73.728l 19.968,182.272l-147.968-108.032l-147.456,108.032l 19.968-182.272l-167.424-73.728l 167.424-73.728l-19.968-182.272zM 246.784,112.384l 4.095,36.351c 1.024,9.558 -2.218,19.371 -9.728,29.441s-17.408,17.835 -29.696,23.297l-6.656,3.072c-11.606,5.12 -17.408,11.606 -17.408,19.456
c0,7.51 5.802,13.995 17.408,19.457l 6.656,3.072c 11.606,5.462 21.334,13.398 29.184,23.808s 11.264,20.053 10.24,28.927l-4.096,36.352c-1.024,10.922 2.56,16.384 10.752,16.384c 6.144,0 12.8-2.902 19.968-8.704l 13.312-10.24c 9.216-6.826 20.65-10.24 34.304-10.24s 24.918,3.414 33.792,10.24l 13.312,10.24c 7.168,5.802 13.994,8.704 20.48,8.704
c 7.85,0 11.264-5.462 10.24-16.384l-4.096-36.352c0-9.558 3.67-19.456 11.008-29.696s 16.81-17.92 28.416-23.040l 6.656-3.072c 11.946-5.802 17.92-12.288 17.92-19.456c0-7.85 -5.974-14.336 -17.92-19.456l-6.656-3.072c-11.606-5.12 -21.078-12.8 -28.416-23.040s-11.008-20.138 -11.008-29.696l 4.096-36.352c 1.024-10.922 -2.56-16.384 -10.752-16.384
c-6.144,0 -12.8,2.902 -19.968,8.704l-13.312,10.24c-9.558,6.826 -20.822,10.24 -33.792,10.24s-24.405-3.414 -34.303-10.24l-13.312-10.24c-9.216-7.168 -16.896-9.898 -23.040-8.192c-6.144,1.024 -8.704,6.314 -7.68,15.872z" horiz-adv-x="649.728"  />
<glyph unicode="&#x73;" d="M 325.12,76.032l 147.456-108.032l-19.968,182.272l 167.936,73.728l-167.936,73.728l 19.968,182.272l-147.968-108.032l-147.456,108.032l 19.968-182.272l-167.424-73.728l 167.424-73.728l-19.968-182.272zM 228.864,168.704l-125.44,55.296l 125.44,55.296l-14.848,136.704l 110.592-80.896l 111.104,80.896l-14.848-136.704l 125.44-55.296l-125.44-55.296l 14.848-136.704l-110.592,80.896l-111.104-80.896zM 325.12,150.272l 73.728-54.272l-10.24,91.136l 83.968,36.864l-83.968,36.864
l 10.24,91.136l-73.728-54.272l-74.24,54.272l 10.24-91.136l-83.968-36.864l 83.968-36.864l-10.24-91.136zM 292.864,205.568l-41.984,18.432l 41.984,18.432l-5.12,45.568l 37.376-27.136l 36.864,27.136l-5.12-45.568l 41.984-18.432l-41.984-18.432l 5.12-45.568l-36.864,27.136l-37.376-27.136z" horiz-adv-x="649.728"  />
<glyph unicode="&#x74;" d="M 459.264,0.768l-7.68,72.702c-0.342,2.73 -0.512,4.778 -0.512,6.144c0,17.75 7.594,36.267 22.784,55.553s 34.048,34.048 56.576,44.288l 12.8,5.632c 23.894,10.582 35.84,23.552 35.84,38.912s-11.946,28.33 -35.84,38.912l-12.8,5.632c-22.186,10.24 -40.96,25.002 -56.32,44.288s-23.040,37.803 -23.040,55.553
c 0.342,2.73 0.512,4.778 0.512,6.144l 7.68,72.704c 0.342,3.072 0.512,5.29 0.512,6.656c0,17.408 -7.338,26.112 -22.016,26.112c-11.606,0 -24.918-5.802 -39.936-17.408l-26.624-19.968c-8.874-7.168 -19.114-12.458 -30.72-15.872s-24.064-5.12 -37.376-5.12c-26.966,0 -49.664,6.998 -68.096,20.992l-26.624,19.968c-15.702,11.606 -29.184,17.408 -40.448,17.408
c-13.994,0 -20.992-8.534 -20.992-25.6c0-3.072 0.17-5.462 0.512-7.168l 7.68-72.704c 1.706-18.090 -5.206-37.632 -20.736-58.624s-34.901-36.778 -58.111-47.36l-13.312-5.632c-23.552-10.922 -35.328-23.893 -35.328-38.911s 11.776-27.989 35.328-38.911l 13.312-5.632c 22.186-10.24 40.874-25.088 56.064-44.544
s 22.784-38.23 22.784-56.32l0-5.12 l-7.68-72.704c-0.342-1.366 -0.512-2.731 -0.512-4.097l0-3.072 c0-8.534 2.134-14.934 6.4-19.2s 9.984-6.4 17.152-6.4c 5.12,0 10.838,1.536 17.152,4.608s 13.226,7.338 20.736,12.8l 26.624,19.968c 19.114,13.994 41.813,20.992 68.095,20.992c 26.624,0 49.322-6.998 68.096-20.992
l 27.136-19.968c 7.85-5.802 15.36-10.154 22.528-13.056s 13.482-4.352 18.944-4.352c 13.312,0 19.968,8.874 19.968,26.624c-0.342,2.73 -0.512,4.778 -0.512,6.144zM 374.272,44.798l-19.966,15.358c-14.336,10.582 -31.402,15.872 -51.2,15.872c-19.456,0 -36.522-5.29 -51.2-15.872l-19.968-15.36c-10.582-7.51 -19.798-11.776 -27.648-12.8
c-12.288,0 -18.432,6.486 -18.432,19.456c 0.342,2.048 0.512,3.754 0.512,5.12l 5.632,54.784c 1.706,13.994 -3.328,28.672 -15.104,44.032s-26.538,26.966 -44.288,34.816l-9.728,4.608c-17.75,7.85 -26.624,17.578 -26.624,29.184c0,11.264 8.874,20.992 26.624,29.184l 9.728,4.608c 16.726,7.51 30.806,18.347 42.24,32.513s 17.152,28.075 17.152,41.729l0,4.608 l-5.632,54.784
c-2.048,16.384 3.242,24.576 15.872,24.576c 8.192,0 18.090-4.266 29.696-12.8l 19.968-15.36c 13.994-10.582 31.061-15.872 51.199-15.872c 20.48,0 37.546,5.29 51.2,15.872l 19.968,15.36c 11.606,8.534 21.504,12.8 29.696,12.8c 10.922,0 16.384-6.656 16.384-19.968l0-4.608 l-6.144-54.784c-1.366-13.654 3.84-28.246 15.616-43.776s 26.368-27.221 43.776-35.071
l 9.728-4.608c 17.75-8.192 26.624-17.92 26.624-29.184s-8.874-20.992 -26.624-29.184l-9.728-4.608c-17.75-7.85 -32.427-19.456 -44.033-34.816s-16.726-30.038 -15.36-44.032l 6.144-54.784c 1.706-16.384 -3.243-24.576 -14.849-24.576c-6.144,0 -12.118,1.366 -17.92,4.096c-3.072,1.366 -7.51,4.267 -13.312,8.705zM 255.49,104.7
l 13.823,10.241c 9.558,6.826 20.822,10.24 33.792,10.24c 13.312,0 24.746-3.414 34.304-10.24l 13.312-10.24c 7.168-5.802 13.824-8.704 19.968-8.704c 7.85,0 11.264,5.462 10.24,16.384l-3.584,36.352c-1.024,9.558 2.218,19.371 9.728,29.441s 17.408,17.835 29.696,23.297l 6.656,3.072c 11.946,5.12 17.92,11.606 17.92,19.456c0,7.168 -5.974,13.654 -17.92,19.456l-6.656,3.072
c-11.606,5.462 -21.334,13.398 -29.184,23.808s-11.264,20.053 -10.24,28.927l 3.584,36.352c 1.024,10.922 -2.56,16.384 -10.752,16.384c-5.802,0 -12.288-2.902 -19.456-8.704l-13.312-10.24c-8.874-6.826 -20.309-10.24 -34.303-10.24c-13.654,0 -24.918,3.414 -33.792,10.24l-13.824,10.24c-7.168,5.802 -13.824,8.704 -19.968,8.704
c-7.85,0 -11.264-5.462 -10.24-16.384l 3.584-36.352c 1.024-9.216 -2.218-18.944 -9.728-29.184s-17.408-18.090 -29.696-23.552l-6.144-3.072c-11.946-5.802 -17.92-12.288 -17.92-19.456c0-7.85 5.974-14.336 17.92-19.456l 6.144-3.072c 11.946-5.462 21.76-13.227 29.44-23.297s 11.008-19.883 9.984-29.441l-3.584-36.352
c-1.024-9.558 1.366-14.848 7.168-15.872l 4.608-0.512c 5.462,0.682 11.606,3.584 18.432,8.704zM 264.193,168.189l 2.047,18.433c 0.342,4.438 -1.45,9.302 -5.376,14.592s-8.79,9.13 -14.592,11.52l-3.072,1.536c-5.802,2.73 -8.704,5.973 -8.704,9.727s 2.902,6.997 8.704,9.727l 3.072,1.536
c 6.144,2.73 11.178,6.57 15.104,11.52s 5.547,9.814 4.865,14.592l-2.048,18.432c-0.342,5.462 1.536,8.192 5.632,8.192c 2.048,0 5.29-1.366 9.728-4.096l 6.656-5.12c 4.778-3.754 10.41-5.632 16.896-5.632s 12.118,1.878 16.896,5.632l 7.168,5.12c 3.754,2.73 6.997,4.096 9.727,4.096
c 3.754,0 5.461-2.73 5.119-8.192l-2.048-18.432c0-4.438 1.962-9.302 5.888-14.592s 8.619-9.13 14.081-11.52l 3.072-1.536c 6.144-2.73 9.216-5.973 9.216-9.727s-3.072-6.997 -9.216-9.727l-3.072-1.536c-5.802-2.39 -10.581-6.059 -14.335-11.009s-5.632-9.984 -5.632-15.104l 2.048-18.432
c 0.342-5.462 -1.536-8.192 -5.632-8.192c-2.39,0 -5.462,1.366 -9.216,4.096l-7.168,5.12c-4.438,3.414 -10.070,5.12 -16.896,5.12s-12.458-1.706 -16.896-5.12l-6.656-5.12c-4.778-3.072 -8.704-4.438 -11.776-4.096c-2.73,1.024 -3.925,3.754 -3.583,8.192z" horiz-adv-x="606.208"  />
<glyph unicode="&#x75;" d="M 325.12,76.032l 147.456-108.032l-19.968,182.272l 167.936,73.728l-167.936,73.728l 19.968,182.272l-147.968-108.032l-147.456,108.032l 19.968-182.272l-167.424-73.728l 167.424-73.728l-19.968-182.272zM 206.848,224c0,32.426 11.433,60.246 34.303,83.456s 50.859,34.816 83.969,34.816c 32.426,0 60.16-11.52 83.2-34.56s 34.56-50.944 34.56-83.712
c0-32.426 -11.434-60.245 -34.304-83.455s-50.688-34.816 -83.456-34.816c-32.426,0 -60.245,11.606 -83.455,34.816s-34.816,51.029 -34.816,83.455zM 413.695,224.001c0,24.234 -8.704,45.056 -26.112,62.464s-38.23,26.112 -62.464,26.112c-24.576,0 -45.568-8.704 -62.976-26.112s-26.112-38.23 -26.112-62.464s 8.704-45.056 26.112-62.464s 38.4-26.112 62.976-26.112
c 24.234,0 45.056,8.534 62.464,25.6s 26.112,38.058 26.112,62.976zM 265.727,224.001c0,16.042 5.802,29.866 17.408,41.472s 25.6,17.408 41.984,17.408c 16.042,0 29.866-5.632 41.472-16.896s 17.408-25.258 17.408-41.984c0-16.042 -5.802-29.866 -17.408-41.472s-25.43-17.408 -41.472-17.408c-16.384,0 -30.378,5.632 -41.984,16.896s-17.408,25.258 -17.408,41.984z
M 354.303,224.001c0,8.192 -2.902,15.19 -8.704,20.992s-12.629,8.704 -20.479,8.704c-8.192,0 -15.19-2.902 -20.992-8.704s-8.704-12.8 -8.704-20.992s 2.902-15.19 8.704-20.992s 12.8-8.704 20.992-8.704c 7.85,0 14.677,2.902 20.479,8.704s 8.704,12.8 8.704,20.992z" horiz-adv-x="649.728"  />
</font>
</defs>
</svg>
