<?xml version="1.0" standalone="no"?>
<!DOCTYPE svg PUBLIC "-//W3C//DTD SVG 1.1//EN" "http://www.w3.org/Graphics/SVG/1.1/DTD/svg11.dtd" >
<svg xmlns="http://www.w3.org/2000/svg">
<metadata>
This is a custom SVG font generated by IcoMoon.
<iconset id="v66" name="v66" grid="16"></iconset>
</metadata>
<defs>
<font id="v66" horiz-adv-x="512" >
<font-face units-per-em="512" ascent="480" descent="-32" />
<missing-glyph horiz-adv-x="512" />
<glyph class="hidden" unicode="&#xf000;" d="M0,480L 512 -32L0 -32 z" horiz-adv-x="0" />
<glyph unicode="&#x41;" d="M 537.6,224c0,70.656 -25.002,130.986 -75.008,180.992s-110.336,75.008 -180.992,75.008s-130.986-25.002 -180.992-75.008s-75.008-110.336 -75.008-180.992s 25.002-130.986 75.008-180.992s 110.336-75.008 180.992-75.008s 130.986,25.002 180.992,75.008s 75.008,110.336 75.008,180.992zM 138.752,224
c0,39.594 13.91,73.301 41.728,101.119s 61.525,41.728 101.119,41.728s 73.301-13.91 101.119-41.728s 41.728-61.525 41.728-101.119s-13.91-73.301 -41.728-101.119s-61.525-41.728 -101.119-41.728s-73.301,13.91 -101.119,41.728s-41.728,61.525 -41.728,101.119z" horiz-adv-x="563.2"  />
<glyph unicode="&#x42;" d="M 537.6,224c0,70.656 -25.002,130.986 -75.008,180.992s-110.336,75.008 -180.992,75.008s-130.986-25.002 -180.992-75.008s-75.008-110.336 -75.008-180.992s 25.002-130.986 75.008-180.992s 110.336-75.008 180.992-75.008s 130.986,25.002 180.992,75.008s 75.008,110.336 75.008,180.992zM 91.136,224
c0,52.566 18.602,97.451 55.808,134.657s 82.091,55.808 134.657,55.808s 97.451-18.602 134.657-55.808s 55.808-82.091 55.808-134.657s-18.602-97.451 -55.808-134.657s-82.091-55.808 -134.657-55.808s-97.451,18.602 -134.657,55.808s-55.808,82.091 -55.808,134.657zM 409.6,224
c0,35.498 -12.458,65.706 -37.376,90.624s-55.126,37.376 -90.624,37.376s-65.706-12.458 -90.624-37.376s-37.376-55.126 -37.376-90.624s 12.458-65.706 37.376-90.624s 55.126-37.376 90.624-37.376s 65.706,12.458 90.624,37.376s 37.376,55.126 37.376,90.624z" horiz-adv-x="563.2"  />
<glyph unicode="&#x43;" d="M 462.848,405.248c-24.576,24.234 -52.566,42.751 -83.969,55.551s-63.829,19.2 -97.279,19.2c-33.792,0 -66.218-6.23 -97.28-18.688s-58.88-31.061 -83.456-55.807s-43.264-52.821 -56.064-84.223s-19.2-63.829 -19.2-97.279c0-33.792 6.23-66.218 18.688-97.28
s 31.146-59.051 56.064-83.969s 52.822-43.606 83.712-56.064s 63.402-18.688 97.536-18.688c 33.45,0 65.792,6.23 97.024,18.688s 59.306,31.146 84.224,56.064s 43.606,52.822 56.064,83.712s 18.688,63.402 18.688,97.536c0,33.45 -6.23,65.792 -18.688,97.024
s-31.146,59.306 -56.064,84.224zM 379.903,36.095l-85.504,175.104l 175.104-85.504zM 93.695,125.695l 175.104,85.504l-85.504-175.104zM 294.399,236.799l 85.504,175.104l 89.6-89.6zM 93.695,322.303l 89.6,89.6l 85.504-175.104z" horiz-adv-x="563.2"  />
<glyph unicode="&#x44;" d="M 462.848,405.248c-24.576,24.234 -52.566,42.751 -83.969,55.551s-63.829,19.2 -97.279,19.2c-33.792,0 -66.218-6.23 -97.28-18.688s-58.88-31.061 -83.456-55.807s-43.264-52.821 -56.064-84.223s-19.2-63.829 -19.2-97.279c0-33.792 6.23-66.218 18.688-97.28
s 31.146-59.051 56.064-83.969s 52.822-43.606 83.712-56.064s 63.402-18.688 97.536-18.688c 33.45,0 65.792,6.23 97.024,18.688s 59.306,31.146 84.224,56.064s 43.606,52.822 56.064,83.712s 18.688,63.402 18.688,97.536c0,33.45 -6.23,65.792 -18.688,97.024
s-31.146,59.306 -56.064,84.224zM 326.655,63.743c-15.702,15.702 -23.552,34.816 -23.552,57.344s 7.85,41.814 23.552,57.856c 7.85,7.51 16.896,13.312 27.136,17.408s 20.48,6.144 30.72,6.144c 22.528,0 41.728-8.106 57.6-24.32s 23.808-35.584 23.808-58.112c0-22.186 -7.85-41.13 -23.552-56.832s-34.816-23.552 -57.344-23.552
c-22.186,0 -41.642,8.022 -58.368,24.064zM 120.831,63.231c-15.702,15.702 -23.553,34.816 -23.553,57.344c0,22.186 7.936,41.386 23.808,57.6s 35.072,24.32 57.6,24.32c 22.87,0 42.155-7.85 57.857-23.552c 7.51-7.51 13.312-16.384 17.408-26.624s 6.144-20.65 6.144-31.232
c0-22.528 -8.106-41.728 -24.32-57.6s-35.584-23.808 -58.112-23.808c-22.186,0 -41.13,7.85 -56.832,23.552zM 326.655,269.055c-7.51,7.51 -13.311,16.384 -17.407,26.624s-6.144,20.65 -6.144,31.232c0,22.528 8.106,41.728 24.32,57.6s 35.584,23.808 58.112,23.808c 22.186,0 41.13-7.85 56.832-23.552
s 23.552-34.816 23.552-57.344c0-22.186 -7.936-41.386 -23.808-57.6s-35.072-24.32 -57.6-24.32c-22.87,0 -42.155,7.85 -57.857,23.552zM 121.343,269.055c-16.042,16.726 -24.064,36.353 -24.064,58.881c0,22.186 7.85,41.13 23.552,56.832s 34.816,23.552 57.344,23.552c 22.186,0 41.386-7.936 57.6-23.808
s 24.32-35.072 24.32-57.6c0-22.87 -7.85-42.155 -23.552-57.857c-7.51-7.51 -16.384-13.312 -26.624-17.408s-20.65-6.144 -31.232-6.144c-22.528,0 -41.642,7.85 -57.344,23.552z" horiz-adv-x="563.2"  />
<glyph unicode="&#x45;" d="M 277.504,471.296c-70.998,0 -131.499-25.002 -181.505-75.008s-75.008-110.507 -75.008-181.505c0-70.656 25.002-130.986 75.008-180.992s 110.507-75.008 181.505-75.008c 70.656,0 130.986,25.002 180.992,75.008s 75.008,110.336 75.008,180.992c0,70.998 -25.002,131.499 -75.008,181.505
s-110.336,75.008 -180.992,75.008zM 403.456,273.664c-12.97-12.97 -26.623-23.124 -40.959-30.463s-27.306-11.008 -38.912-11.008c-10.582,0 -18.688,2.902 -24.32,8.704s-8.448,13.994 -8.448,24.576c0,25.6 13.654,52.054 40.96,79.36c 12.97,12.97 26.453,23.125 40.447,30.463
s 26.965,11.008 38.911,11.008c 10.24,0 18.432-3.072 24.576-9.216s 9.216-14.506 9.216-25.088c0-11.606 -3.584-24.235 -10.752-37.889s-17.408-27.136 -30.72-40.448zM 435.713,52.481c-5.802-5.802 -13.994-8.705 -24.576-8.705c-25.258,0 -51.712,13.824 -79.36,41.472s-41.472,54.272 -41.472,79.872c0,9.558 2.902,17.579 8.704,24.065
c 6.486,5.802 14.507,8.704 24.065,8.704c 11.946,0 24.917-3.584 38.911-10.752s 27.818-17.408 41.472-30.72c 27.648-27.648 41.472-54.272 41.472-79.872c-0.342-2.39 -0.512-4.096 -0.512-5.12c-1.024-7.51 -3.926-13.824 -8.704-18.944zM 222.721,85.248c-12.97-12.97 -26.454-23.126 -40.449-30.464
s-26.965-11.008 -38.911-11.008c-10.24,0 -18.346,2.986 -24.32,8.96s-8.96,14.080 -8.96,24.32c0,24.918 13.91,51.286 41.728,79.104s 54.357,41.728 79.615,41.728c 9.898,0 17.834-2.986 23.808-8.96s 8.96-14.422 8.96-25.344c0-11.606 -3.67-24.32 -11.008-38.144
s-17.493-27.222 -30.463-40.192zM 254.976,240.895c-5.802-5.802 -13.823-8.705 -24.063-8.705c-11.606,0 -24.576,3.67 -38.912,11.008s-27.99,17.493 -40.96,30.463c-27.306,27.99 -40.96,54.443 -40.96,79.361c0,10.24 2.986,18.346 8.96,24.32s 14.080,8.96 24.32,8.96
c 11.946,0 24.917-3.67 38.911-11.008s 27.477-17.493 40.447-30.463c 27.648-27.648 41.472-53.76 41.472-78.336c0-10.922 -3.072-19.456 -9.216-25.6z" horiz-adv-x="563.2"  />
<glyph unicode="&#x46;" d="M 462.848,405.248c-24.576,24.234 -52.566,42.751 -83.969,55.551s-63.829,19.2 -97.279,19.2c-33.792,0 -66.218-6.23 -97.28-18.688s-58.88-31.061 -83.456-55.807s-43.264-52.821 -56.064-84.223s-19.2-63.829 -19.2-97.279c0-33.792 6.23-66.218 18.688-97.28
s 31.146-59.051 56.064-83.969s 52.822-43.606 83.712-56.064s 63.402-18.688 97.536-18.688c 33.45,0 65.792,6.23 97.024,18.688s 59.306,31.146 84.224,56.064s 43.606,52.822 56.064,83.712s 18.688,63.402 18.688,97.536c0,33.45 -6.23,65.792 -18.688,97.024
s-31.146,59.306 -56.064,84.224zM 373.759,35.071l-92.16,91.648l 97.28,97.28l 91.648-92.16zM 189.439,35.071l-96.768,96.768l 91.648,92.16l 97.28-97.28zM 378.879,223.999l-97.28,97.28l 92.16,91.648l 96.768-96.768zM 184.319,223.999l-91.648,92.16l 96.768,96.768l 92.16-91.648z" horiz-adv-x="563.2"  />
<glyph unicode="&#x47;" d="M 462.848,405.248c-24.576,24.234 -52.566,42.751 -83.969,55.551s-63.829,19.2 -97.279,19.2c-33.792,0 -66.218-6.23 -97.28-18.688s-58.88-31.061 -83.456-55.807s-43.264-52.821 -56.064-84.223s-19.2-63.829 -19.2-97.279c0-33.792 6.23-66.218 18.688-97.28
s 31.146-59.051 56.064-83.969s 52.822-43.606 83.712-56.064s 63.402-18.688 97.536-18.688c 33.45,0 65.792,6.23 97.024,18.688s 59.306,31.146 84.224,56.064s 43.606,52.822 56.064,83.712s 18.688,63.402 18.688,97.536c0,33.45 -6.23,65.792 -18.688,97.024
s-31.146,59.306 -56.064,84.224zM 414.207,52.991c-2.73-2.73 -7.338-4.096 -13.824-4.096c-12.288,0 -25.43,4.438 -39.424,13.312l-79.36,50.176l-79.36-50.176c-14.678-8.874 -27.99-13.312 -39.936-13.312c-6.144,0 -10.582,1.366 -13.312,4.096l-38.4,38.4c-2.73,2.73 -4.096,7.338 -4.096,13.824
c0,12.288 4.438,25.43 13.312,39.424l 50.176,79.36l-50.176,79.36c-8.874,14.678 -13.312,27.99 -13.312,39.936c0,5.462 1.366,9.899 4.096,13.313l 38.4,38.4c 2.73,2.73 7.338,4.096 13.824,4.096c 12.288,0 25.43-4.438 39.424-13.312l 79.36-50.176l 79.36,50.176c 14.678,8.874 27.99,13.312 39.936,13.312c 6.144,0 10.582-1.366 13.312-4.096l 38.4-38.4
c 2.73-2.73 4.096-7.338 4.096-13.824c0-12.288 -4.438-25.43 -13.312-39.424l-50.176-79.36l 50.176-79.36c 8.874-14.678 13.312-27.99 13.312-39.936c0-6.486 -1.366-10.923 -4.096-13.313z" horiz-adv-x="563.2"  />
<glyph unicode="&#x48;" d="M 462.848,405.248c-24.576,24.234 -52.566,42.751 -83.969,55.551s-63.829,19.2 -97.279,19.2c-33.792,0 -66.218-6.23 -97.28-18.688s-58.88-31.061 -83.456-55.807s-43.264-52.821 -56.064-84.223s-19.2-63.829 -19.2-97.279c0-33.792 6.23-66.218 18.688-97.28
s 31.146-59.051 56.064-83.969s 52.822-43.606 83.712-56.064s 63.402-18.688 97.536-18.688c 33.45,0 65.792,6.23 97.024,18.688s 59.306,31.146 84.224,56.064s 43.606,52.822 56.064,83.712s 18.688,63.402 18.688,97.536c0,33.45 -6.23,65.792 -18.688,97.024
s-31.146,59.306 -56.064,84.224zM 281.599,156.415l-101.376-140.8l 19.456,126.464l-126.464-19.456l 140.8,101.376l-140.8,101.376l 126.464-19.456l-19.456,126.464l 101.376-140.8l 101.376,140.8l-19.456-126.464l 126.464,19.456l-140.8-101.376l 140.8-101.376l-126.464,19.456l 19.456-126.464z" horiz-adv-x="563.2"  />
<glyph unicode="&#x49;" d="M 462.336,405.248c-24.234,24.234 -52.138,42.75 -83.711,55.55s-63.915,19.2 -97.025,19.2c-33.792,0 -66.218-6.23 -97.28-18.688s-58.88-31.061 -83.456-55.807s-43.264-52.821 -56.064-84.223s-19.2-63.829 -19.2-97.279c0-33.792 6.23-66.134 18.688-97.024
s 31.146-58.794 56.064-83.712s 52.822-43.606 83.712-56.064s 63.402-18.688 97.536-18.688c 33.45,0 65.792,6.23 97.024,18.688s 59.136,30.976 83.712,55.552s 43.178,52.48 55.808,83.712s 18.944,63.744 18.944,97.536c0,33.45 -6.23,65.792 -18.688,97.024s-31.146,59.306 -56.064,84.224z
M 374.273,59.134c-10.24,10.24 -15.359,22.357 -15.359,36.351s 5.206,26.026 15.616,36.096s 22.442,15.104 36.096,15.104c 13.994,0 25.941-4.95 35.839-14.848s 14.848-21.845 14.848-35.839s-5.034-26.112 -15.104-36.352s-22.272-15.36 -36.608-15.36c-13.654,0 -25.43,4.95 -35.328,14.848zM 281.089,151.806
l-57.344-91.648l-1.024,105.472l-105.472,1.024l 91.648,57.856l-91.648,57.344l 105.472,1.024l 1.024,105.472l 57.856-91.648l 56.832,91.136l 1.536-104.96l 104.96-1.536l-90.624-57.344l 90.624-56.832l-104.96-1.024l-1.536-105.472zM 116.737,59.646c-10.24,10.24 -15.361,22.528 -15.361,36.864c0,13.654 5.12,25.43 15.36,35.328s 22.186,14.848 35.84,14.848c 14.336,0 26.454-4.95 36.352-14.848s 14.848-22.016 14.848-36.352
c0-14.678 -4.95-26.88 -14.848-36.608s-21.845-14.592 -35.839-14.592s-26.112,5.12 -36.352,15.36zM 374.273,317.182c-10.24,10.24 -15.36,22.359 -15.36,36.353s 5.034,25.941 15.104,35.839s 22.102,14.848 36.096,14.848s 25.941-5.12 35.839-15.36c 10.24-9.898 15.36-22.016 15.36-36.352
c0-13.654 -4.95-25.515 -14.848-35.585s-21.845-15.104 -35.839-15.104s-26.112,5.12 -36.352,15.36zM 116.225,317.183c-9.898,9.898 -14.848,21.846 -14.848,35.84s 5.12,26.026 15.36,36.096s 22.528,15.104 36.864,15.104c 13.654,0 25.43-4.95 35.328-14.848s 14.848-22.016 14.848-36.352s-5.034-26.454 -15.104-36.352
s-22.102-14.848 -36.096-14.848s-26.112,5.12 -36.352,15.36z" horiz-adv-x="563.2"  />
<glyph unicode="&#x4a;" d="M 537.6,224c0,70.656 -25.002,130.986 -75.008,180.992s-110.336,75.008 -180.992,75.008s-130.986-25.002 -180.992-75.008s-75.008-110.336 -75.008-180.992s 25.002-130.986 75.008-180.992s 110.336-75.008 180.992-75.008s 130.986,25.002 180.992,75.008s 75.008,110.336 75.008,180.992zM 246.272,138.496
l-91.136-112.128l 40.448,112.128l-111.616-40.96l 112.128,91.136l-143.36-14.848l 107.52,50.176l-107.52,50.176l 143.36-14.848l-112.128,91.136l 112.128-40.448l-40.96,111.616l 91.136-112.128l-14.848,143.36l 50.176-107.52l 50.176,107.52l-14.848-143.36l 91.136,112.128l-40.448-112.128l 111.616,40.96l-112.128-91.136l 143.36,14.848l-107.52-50.176l 107.52-50.176l-143.36,14.848l 112.128-91.136l-112.128,40.448l 40.96-111.616l-91.136,112.128l 14.848-143.36l-50.176,107.52
l-50.176-107.52zM 348.672,224c0,18.774 -6.486,34.646 -19.456,47.616s-28.842,19.456 -47.616,19.456s-34.646-6.486 -47.616-19.456s-19.456-28.842 -19.456-47.616s 6.486-34.646 19.456-47.616s 28.842-19.456 47.616-19.456s 34.646,6.486 47.616,19.456s 19.456,28.842 19.456,47.616z" horiz-adv-x="563.2"  />
<glyph unicode="&#x4b;" d="M 537.6,224c0,70.656 -25.002,130.986 -75.008,180.992s-110.336,75.008 -180.992,75.008s-130.986-25.002 -180.992-75.008s-75.008-110.336 -75.008-180.992s 25.002-130.986 75.008-180.992s 110.336-75.008 180.992-75.008s 130.986,25.002 180.992,75.008s 75.008,110.336 75.008,180.992zM 226.304,54.528
c0,16.384 5.632,30.208 16.896,41.472s 24.918,16.896 40.96,16.896c 16.384,0 30.208-5.632 41.472-16.896s 16.896-25.088 16.896-41.472s-5.632-30.208 -16.896-41.472s-25.088-16.896 -41.472-16.896c-16.042,0 -29.696,5.632 -40.96,16.896s-16.896,25.088 -16.896,41.472zM 337.408,113.408c-7.85,7.85 -11.775,17.066 -11.775,27.648l 1.024,4.096l-42.496,14.848l-47.616-16.384l 1.024-2.56c0-10.582 -3.84-19.712 -11.52-27.392
s-16.81-11.52 -27.392-11.52c-10.922,0 -20.138,3.754 -27.648,11.264s-11.264,16.726 -11.264,27.648c0,10.582 3.84,19.712 11.52,27.392s 16.64,11.52 26.88,11.52c 5.12,0 10.070-1.024 14.848-3.072l 3.584-2.56l 12.8,49.664l-12.8,49.664l-3.584-2.56c-2.048-1.024 -4.864-1.706 -8.448-2.048s-5.546-0.512 -5.888-0.512c-10.922,0 -20.138,3.67 -27.648,11.008
s-11.264,16.469 -11.264,27.391s 3.754,20.138 11.264,27.648s 16.726,11.264 27.648,11.264s 20.138-3.84 27.648-11.52s 11.264-16.81 11.264-27.392l-0.512-2.56l 47.104-15.872l 42.496,14.336l-1.024,4.096c0,10.582 3.84,19.712 11.52,27.392s 16.81,11.52 27.392,11.52c 10.922,0 20.224-3.84 27.904-11.52s 11.52-16.81 11.52-27.392
c0-10.922 -3.84-20.053 -11.52-27.391s-16.982-11.008 -27.904-11.008l-13.312,2.56l-11.776-47.104l 11.776-47.104l 13.312,3.072c 10.582,0 19.798-3.926 27.648-11.776s 11.776-16.896 11.776-27.136c0-10.582 -3.84-19.712 -11.52-27.392s-16.982-11.52 -27.904-11.52c-10.582,0 -19.627,3.754 -27.137,11.264zM 53.761,224
c0,16.384 5.632,30.208 16.896,41.472s 25.088,16.896 41.472,16.896s 30.208-5.632 41.472-16.896s 16.896-25.088 16.896-41.472s-5.632-30.208 -16.896-41.472s-25.088-16.896 -41.472-16.896s-30.208,5.632 -41.472,16.896s-16.896,25.088 -16.896,41.472zM 392.705,224c0,16.384 5.632,30.208 16.896,41.472s 25.088,16.896 41.472,16.896s 30.208-5.632 41.472-16.896s 16.896-25.088 16.896-41.472s-5.632-30.208 -16.896-41.472s-25.088-16.896 -41.472-16.896s-30.208,5.632 -41.472,16.896s-16.896,25.088 -16.896,41.472z
M 226.305,393.472c0,16.384 5.632,30.208 16.896,41.472s 24.918,16.896 40.96,16.896c 16.384,0 30.208-5.632 41.472-16.896s 16.896-25.088 16.896-41.472s-5.632-30.208 -16.896-41.472s-25.088-16.896 -41.472-16.896c-16.042,0 -29.696,5.632 -40.96,16.896s-16.896,25.088 -16.896,41.472z" horiz-adv-x="563.2"  />
<glyph unicode="&#x4c;" d="M 462.848,405.248c-24.576,24.234 -52.566,42.751 -83.969,55.551s-63.829,19.2 -97.279,19.2c-33.792,0 -66.218-6.23 -97.28-18.688s-58.88-31.061 -83.456-55.807s-43.264-52.821 -56.064-84.223s-19.2-63.829 -19.2-97.279c0-33.792 6.23-66.218 18.688-97.28
s 31.146-59.051 56.064-83.969s 52.822-43.606 83.712-56.064s 63.402-18.688 97.536-18.688c 33.45,0 65.792,6.23 97.024,18.688s 59.306,31.146 84.224,56.064s 43.606,52.822 56.064,83.712s 18.688,63.402 18.688,97.536c0,33.45 -6.23,65.792 -18.688,97.024
s-31.146,59.306 -56.064,84.224zM 385.023,46.847c-4.438-4.438 -9.045-6.657 -13.823-6.657c-7.51,0 -12.8,4.096 -15.872,12.288l-64.512,148.48c-1.366,2.73 -2.048,5.632 -2.048,8.704c0,4.778 2.56,7.168 7.68,7.168c 2.73,0 5.461-0.682 8.191-2.048l 148.48-64.512
c 8.192-3.754 12.288-9.045 12.288-15.871c0-4.778 -2.218-9.386 -6.656-13.824zM 178.176,46.846l-74.239,73.728c-4.096,4.778 -6.144,9.386 -6.144,13.824c0,6.826 3.926,12.117 11.776,15.871l 148.992,64.512c 3.072,1.366 5.974,2.048 8.704,2.048c 4.778,0 7.168-2.56 7.168-7.68c0-2.73 -0.682-5.461 -2.048-8.191
l-64.512-148.48c-1.366-3.072 -3.499-5.888 -6.401-8.448s-6.059-3.84 -9.473-3.84c-4.778,0 -9.386,2.218 -13.824,6.656zM 453.121,297.726l-148.48-64.511c-2.73-1.366 -5.632-2.048 -8.704-2.048c-4.778,0 -7.168,2.39 -7.168,7.168c0,2.73 0.682,5.632 2.048,8.704l 64.512,148.48
c 3.072,8.192 8.362,12.288 15.872,12.288c 4.778,0 9.386-2.218 13.824-6.656l 73.728-73.728c 4.438-4.438 6.656-9.046 6.656-13.824c0-3.414 -1.28-6.571 -3.84-9.473s-5.376-5.035 -8.448-6.401zM 258.561,233.215l-148.992,64.513c-7.85,3.754 -11.776,9.045 -11.776,15.871
c0,4.438 2.048,9.046 6.144,13.824l 74.24,73.728c 4.438,4.438 9.046,6.656 13.824,6.656c 6.826,0 12.117-4.096 15.871-12.288l 64.512-148.48c 1.366-3.072 2.048-5.974 2.048-8.704c0-2.39 -0.682-4.096 -2.048-5.12c-1.024-1.366 -2.902-2.048 -5.632-2.048s-5.461,0.682 -8.191,2.048z" horiz-adv-x="563.2"  />
<glyph unicode="&#x52;" d="M 462.848,405.248c-24.576,24.234 -52.566,42.751 -83.969,55.551s-63.829,19.2 -97.279,19.2c-33.792,0 -66.218-6.23 -97.28-18.688s-58.88-31.061 -83.456-55.807s-43.264-52.821 -56.064-84.223s-19.2-63.829 -19.2-97.279c0-33.792 6.23-66.218 18.688-97.28
s 31.146-59.051 56.064-83.969s 52.822-43.606 83.712-56.064s 63.402-18.688 97.536-18.688c 33.45,0 65.792,6.23 97.024,18.688s 59.306,31.146 84.224,56.064s 43.606,52.822 56.064,83.712s 18.688,63.402 18.688,97.536c0,33.45 -6.23,65.792 -18.688,97.024
s-31.146,59.306 -56.064,84.224zM 356.351,87.295l-65.536,2.56l 36.352,50.176l-24.576,62.976l 62.976-24.576l 50.176,36.352l 2.56-65.536l 55.808-40.448l-61.44-15.872l-15.872-61.44zM 206.847,87.295l-40.448-55.808l-15.872,61.44l-61.44,15.872l 55.296,40.96l 3.072,65.024l 50.176-36.352l 62.976,24.576l-24.576-62.976l 36.352-50.176zM 365.567,269.567l-62.976-24.576l 24.576,62.976l-36.352,50.176l 65.024,3.072l 40.96,55.296
l 15.872-61.44l 61.44-15.872l-55.808-40.448l-2.56-65.536zM 197.631,269.567l-50.176-36.352l-2.56,65.536l-55.808,40.448l 61.44,15.872l 15.872,61.44l 40.448-55.808l 65.536-2.56l-36.352-50.176l 24.576-62.976z" horiz-adv-x="563.2"  />
<glyph unicode="&#x53;" d="M 462.848,405.248c-24.576,24.234 -52.566,42.751 -83.969,55.551s-63.829,19.2 -97.279,19.2c-33.792,0 -66.218-6.23 -97.28-18.688s-58.88-31.061 -83.456-55.807s-43.264-52.821 -56.064-84.223s-19.2-63.829 -19.2-97.279c0-33.792 6.23-66.218 18.688-97.28
s 31.146-59.051 56.064-83.969s 52.822-43.606 83.712-56.064s 63.402-18.688 97.536-18.688c 33.45,0 65.792,6.23 97.024,18.688s 59.306,31.146 84.224,56.064s 43.606,52.822 56.064,83.712s 18.688,63.402 18.688,97.536c0,33.45 -6.23,65.792 -18.688,97.024
s-31.146,59.306 -56.064,84.224zM 349.183,19.199l-43.52,43.52l 137.216,137.216l 43.52-43.52zM 214.015,19.199l-137.216,137.216l 43.52,43.52l 137.216-137.216zM 442.879,248.063l-137.216,137.216l 43.52,43.52l 137.216-137.216zM 225.279,167.679c-15.36,15.36 -23.040,34.134 -23.040,56.32c0,21.504 7.68,40.278 23.040,56.32c 16.042,15.36 34.816,23.040 56.32,23.040
c 22.186,0 40.96-7.85 56.32-23.552s 23.040-34.304 23.040-55.808c0-22.186 -7.68-40.96 -23.040-56.32s-34.134-23.040 -56.32-23.040c-21.504,0 -40.278,7.68 -56.32,23.040zM 120.319,248.063l-43.52,43.52l 137.216,137.216l 43.52-43.52z" horiz-adv-x="563.2"  />
<glyph unicode="&#x54;" d="M 463.36,405.76c-24.234,24.234 -52.137,42.749 -83.711,55.549s-63.915,19.2 -97.025,19.2c-33.792,0 -66.218-6.23 -97.28-18.688s-58.88-31.061 -83.456-55.807s-43.264-52.821 -56.064-84.223s-19.2-63.829 -19.2-97.279c0-33.792 6.23-66.134 18.688-97.024
s 31.146-58.794 56.064-83.712s 52.822-43.606 83.712-56.064s 63.402-18.688 97.536-18.688c 33.45,0 65.792,6.23 97.024,18.688s 59.136,30.976 83.712,55.552s 43.264,52.65 56.064,84.224s 19.2,63.915 19.2,97.025c0,33.792 -6.314,66.218 -18.944,97.28s-31.403,59.051 -56.321,83.969z
M 350.209,20.221l-43.521,43.521l 55.808,55.808l-38.4,38.4l-11.264-6.656c-8.874-3.754 -19.114-5.632 -30.72-5.632c-16.042,0 -30.549,4.266 -43.519,12.8l-2.56,3.072l-37.888-37.888l 59.904-59.904l-43.008-43.52l-137.216,136.704l 43.52,43.52l 51.712-51.712l 39.424,39.424l-3.584,6.656c-3.754,9.558 -5.632,19.456 -5.632,29.696c0,4.778 0.512,9.813 1.536,15.103
s 2.39,10.325 4.096,15.103l 6.656,11.776l-38.4,38.4l-55.808-55.808l-43.52,43.52l 137.216,136.704l 43.008-43.52l-55.296-55.808l 38.4-38.4l 11.264,6.656c 10.24,3.754 20.31,5.632 30.208,5.632c 10.582,0 20.48-2.048 29.696-6.144l 6.656-3.072l 39.424,39.424l-51.712,51.712l 43.52,43.52l 136.704-136.704l-43.52-43.52l-59.904,59.904l-37.376-37.376l 2.56-3.072c 8.874-13.654 13.312-28.16 13.312-43.52
c0-10.24 -2.048-20.31 -6.144-30.208l-6.144-11.776l 38.4-38.4l 55.296,55.808l 43.52-43.52zM 320.001,261.886c-10.582,10.582 -23.040,15.872 -37.376,15.872s-26.71-5.206 -37.12-15.616s-15.616-22.954 -15.616-37.632c0-14.336 5.12-26.71 15.36-37.12s 22.698-15.616 37.376-15.616s 27.136,5.206 37.376,15.616s 15.36,22.784 15.36,37.12
c0,14.678 -5.12,27.136 -15.36,37.376z" horiz-adv-x="563.2"  />
<glyph unicode="&#x55;" d="M 462.336,404.736c-24.234,24.234 -52.138,42.75 -83.711,55.55s-63.915,19.2 -97.025,19.2c-33.792,0 -66.218-6.23 -97.28-18.688s-58.88-31.061 -83.456-55.807s-43.264-52.821 -56.064-84.223s-19.2-63.829 -19.2-97.279c0-33.792 6.23-66.134 18.688-97.024
s 31.146-58.794 56.064-83.712s 52.822-43.606 83.712-56.064s 63.402-18.688 97.536-18.688c 33.45,0 65.792,6.23 97.024,18.688s 59.136,30.976 83.712,55.552s 43.178,52.48 55.808,83.712s 18.944,63.744 18.944,97.536c0,33.45 -6.23,65.792 -18.688,97.024s-31.146,59.306 -56.064,84.224z
M 374.785,74.494c-7.85,7.85 -11.776,17.407 -11.776,28.671c0,10.922 3.754,20.138 11.264,27.648s 16.896,11.264 28.16,11.264c 10.922,0 20.309-3.926 28.159-11.776s 11.776-17.066 11.776-27.648c0-10.922 -3.926-20.309 -11.776-28.159s-17.237-11.776 -28.159-11.776c-10.582,0 -19.798,3.926 -27.648,11.776z
M 347.137,128.254l-66.048,66.048l-65.536-65.536l-29.696,29.696l 65.536,65.536l-65.536,65.536l 29.696,29.696l 65.536-65.536l 66.048,65.536l 29.696-29.696l-66.048-65.536l 66.048-66.048zM 132.097,74.494c-7.51,7.51 -11.265,16.896 -11.265,28.16c0,10.922 3.754,20.224 11.264,27.904s 16.896,11.52 28.16,11.52s 20.65-3.754 28.16-11.264s 11.264-16.726 11.264-27.648
c0-10.582 -3.926-19.968 -11.776-28.16s-17.237-12.288 -28.159-12.288c-10.582,0 -19.798,3.926 -27.648,11.776zM 374.272,316.67c-7.51,7.51 -11.263,16.895 -11.263,28.159c0,10.922 3.84,20.224 11.52,27.904s 16.982,11.52 27.904,11.52c 11.264,0 20.736-3.84 28.416-11.52s 11.52-16.81 11.52-27.392
c0-10.922 -4.096-20.309 -12.288-28.159s-17.75-11.776 -28.672-11.776c-10.582,0 -19.627,3.754 -27.137,11.264zM 132.097,317.181c-7.51,7.51 -11.265,16.896 -11.265,28.16c0,10.922 3.754,20.138 11.264,27.648s 16.726,11.264 27.648,11.264c 11.264,0 20.736-3.84 28.416-11.52s 11.52-17.152 11.52-28.416
c0-10.922 -3.754-20.138 -11.264-27.648s-16.896-11.264 -28.16-11.264c-10.922,0 -20.309,3.926 -28.159,11.776z" horiz-adv-x="563.2"  />
<glyph unicode="&#x56;" d="M 462.848,405.248c-24.576,24.234 -52.566,42.751 -83.969,55.551s-63.829,19.2 -97.279,19.2c-33.792,0 -66.218-6.23 -97.28-18.688s-58.88-31.061 -83.456-55.807s-43.264-52.821 -56.064-84.223s-19.2-63.829 -19.2-97.279c0-33.792 6.23-66.218 18.688-97.28
s 31.146-59.051 56.064-83.969s 52.822-43.606 83.712-56.064s 63.402-18.688 97.536-18.688c 33.45,0 65.792,6.23 97.024,18.688s 59.306,31.146 84.224,56.064s 43.606,52.822 56.064,83.712s 18.688,63.402 18.688,97.536c0,33.45 -6.23,65.792 -18.688,97.024
s-31.146,59.306 -56.064,84.224zM 351.231,88.831l 16.385,16.385l-54.784,55.296l-4.608-2.56c-4.096-1.706 -8.362-3.072 -12.8-4.096s-9.046-1.536 -13.824-1.536c-3.754,0 -8.106,0.512 -13.056,1.536s-9.643,2.39 -14.081,4.096l-4.096,2.56l-54.784-55.296l 16.384-16.384l-105.984-40.448l 40.448,105.984l 16.384-16.384l 55.296,54.784l-2.56,4.096
c-3.414,8.192 -5.12,17.238 -5.12,27.136c0,9.216 1.706,18.262 5.12,27.136l 2.56,4.096l-55.296,54.784l-16.384-16.384l-40.448,105.984l 105.984-40.448l-16.384-16.384l 54.784-55.296l 4.096,2.56c 8.874,3.414 17.92,5.12 27.136,5.12c 9.898,0 18.944-1.706 27.136-5.12l 4.096-2.56l 54.784,55.296l-16.384,16.384l 105.984,40.448l-40.448-105.984l-16.384,16.384l-55.296-54.784l 2.56-4.096
c 3.754-9.558 5.632-18.603 5.632-27.137c0-4.096 -0.512-8.534 -1.536-13.312s-2.39-9.216 -4.096-13.312l-2.56-4.608l 55.296-54.784l 16.384,16.384l 40.448-105.984z" horiz-adv-x="563.2"  />
<glyph unicode="&#x57;" d="M 281.6,480.512c-70.656,0 -131.072-25.088 -181.248-75.264s-75.264-110.592 -75.264-181.248s 25.088-131.072 75.264-181.248s 110.592-75.264 181.248-75.264s 131.072,25.088 181.248,75.264s 75.264,110.592 75.264,181.248s-25.088,131.072 -75.264,181.248s-110.592,75.264 -181.248,75.264zM 466.432,203.008c0-4.778 -1.792-9.984 -5.376-15.616s-7.594-9.472 -12.032-11.52l-47.104-23.040
c-4.438-2.39 -10.070-3.584 -16.896-3.584s-12.458,1.194 -16.896,3.584l-47.616,23.040c-4.778,2.39 -8.874,6.144 -12.288,11.264s-5.12,10.41 -5.12,15.872l0,41.984 c0,5.462 1.706,10.752 5.12,15.872s 7.51,8.874 12.288,11.264l 47.616,23.040c 5.462,2.39 11.094,3.584 16.896,3.584s 11.434-1.194 16.896-3.584l 47.104-23.040
c 4.778-2.39 8.874-6.23 12.288-11.52s 5.12-10.496 5.12-15.616l0-41.984 zM 363.008,65.28c0-5.12 -1.622-10.326 -4.864-15.616s-7.253-9.13 -12.031-11.52l-47.616-23.040c-4.778-2.048 -10.41-3.072 -16.896-3.072s-12.118,1.024 -16.896,3.072l-47.616,23.040c-4.778,2.39 -8.789,6.23 -12.031,11.52
s-4.864,10.496 -4.864,15.616l0,41.984 c0,5.12 1.622,10.326 4.864,15.616s 7.253,9.13 12.031,11.52l 47.616,23.040c 5.462,2.39 11.094,3.584 16.896,3.584s 11.434-1.194 16.896-3.584l 47.616-23.040c 4.778-2.39 8.789-6.23 12.031-11.52s 4.864-10.496 4.864-15.616l0-41.984 zM 363.008,340.736c0-5.12 -1.622-10.326 -4.864-15.616
s-7.253-9.13 -12.031-11.52l-47.616-23.040c-4.438-2.39 -10.070-3.584 -16.896-3.584s-12.458,1.194 -16.896,3.584l-47.616,23.040c-4.778,2.39 -8.789,6.23 -12.031,11.52s-4.864,10.496 -4.864,15.616l0,41.984 c0,5.12 1.622,10.326 4.864,15.616s 7.253,9.13 12.031,11.52l 47.616,23.040
c 4.778,2.048 10.41,3.072 16.896,3.072s 12.118-1.024 16.896-3.072l 47.616-23.040c 4.778-2.39 8.789-6.23 12.031-11.52s 4.864-10.496 4.864-15.616l0-41.984 zM 260.096,203.008c0-5.462 -1.706-10.752 -5.12-15.872s-7.51-8.874 -12.288-11.264l-47.616-23.040c-4.438-2.39 -10.070-3.584 -16.896-3.584s-12.458,1.194 -16.896,3.584l-47.104,23.040
c-4.778,2.39 -8.874,6.23 -12.288,11.52s-5.12,10.496 -5.12,15.616l0,41.984 c0,4.778 1.792,9.984 5.376,15.616s 7.594,9.472 12.032,11.52l 47.104,23.040c 5.462,2.39 11.094,3.584 16.896,3.584s 11.434-1.194 16.896-3.584l 47.616-23.040c 4.778-2.39 8.874-6.144 12.288-11.264s 5.12-10.41 5.12-15.872l0-41.984 z" horiz-adv-x="563.2"  />
<glyph unicode="&#x58;" d="M 536.576,224c0-70.656 -25.002-130.986 -75.008-180.992s-110.336-75.008 -180.992-75.008s-130.986,25.002 -180.992,75.008s-75.008,110.336 -75.008,180.992s 25.002,130.986 75.008,180.992s 110.336,75.008 180.992,75.008s 130.986-25.002 180.992-75.008s 75.008-110.336 75.008-180.992zM 489.472,224
l-174.080,73.216l 69.632,138.24l-141.312-139.264l-67.584,139.264l 32.768-212.992l-137.216,1.536l 174.080-73.728l-69.632-137.728l 141.312,139.264l 67.584-139.264l-32.256,212.992zM 332.288,224c0-14.336 -5.034-26.538 -15.104-36.608s-22.272-15.104 -36.608-15.104s-26.538,5.034 -36.608,15.104s-15.104,22.272 -15.104,36.608s 5.034,26.538 15.104,36.608
s 22.272,15.104 36.608,15.104s 26.538-5.034 36.608-15.104s 15.104-22.272 15.104-36.608z" horiz-adv-x="563.2"  />
<glyph unicode="&#x59;" d="M 462.848,405.248c-24.576,24.234 -52.566,42.751 -83.969,55.551s-63.829,19.2 -97.279,19.2c-33.792,0 -66.218-6.23 -97.28-18.688s-58.88-31.061 -83.456-55.807s-43.264-52.821 -56.064-84.223s-19.2-63.829 -19.2-97.279c0-33.792 6.23-66.218 18.688-97.28
s 31.146-59.051 56.064-83.969s 52.822-43.606 83.712-56.064s 63.402-18.688 97.536-18.688c 33.45,0 65.792,6.23 97.024,18.688s 59.306,31.146 84.224,56.064s 43.606,52.822 56.064,83.712s 18.688,63.402 18.688,97.536c0,33.45 -6.23,65.792 -18.688,97.024
s-31.146,59.306 -56.064,84.224zM 407.039,45.311l-82.432,82.944l-22.528-43.008c-4.096-8.192 -9.558-12.288 -16.384-12.288c-6.144,0 -11.776,4.096 -16.896,12.288l-26.112,46.592l-86.528-86.528l-53.248,53.248l 86.528,86.528l-46.592,26.112c-8.192,4.778 -12.288,10.41 -12.288,16.896c0,6.144 4.096,11.606 12.288,16.384l 43.008,22.528l-82.944,82.432l 53.248,53.248l 82.432-82.944l 22.528,43.008
c 4.778,8.192 10.24,12.288 16.384,12.288c 6.486,0 12.118-4.096 16.896-12.288l 26.112-46.592l 86.528,86.528l 53.248-53.248l-86.528-86.528l 46.592-26.112c 8.192-5.12 12.288-10.752 12.288-16.896c0-6.826 -4.096-12.288 -12.288-16.384l-43.008-22.528l 82.944-82.432z" horiz-adv-x="563.2"  />
<glyph unicode="&#x65;" d="M 462.848,405.248c-24.576,24.234 -52.566,42.751 -83.969,55.551s-63.829,19.2 -97.279,19.2c-33.792,0 -66.218-6.23 -97.28-18.688s-58.88-31.061 -83.456-55.807s-43.264-52.821 -56.064-84.223s-19.2-63.829 -19.2-97.279c0-33.792 6.23-66.218 18.688-97.28
s 31.146-59.051 56.064-83.969s 52.822-43.606 83.712-56.064s 63.402-18.688 97.536-18.688c 33.45,0 65.792,6.23 97.024,18.688s 59.306,31.146 84.224,56.064s 43.606,52.822 56.064,83.712s 18.688,63.402 18.688,97.536c0,33.45 -6.23,65.792 -18.688,97.024
s-31.146,59.306 -56.064,84.224zM 412.159,176.383c-26.966,0 -49.836,4.865 -68.609,14.593s-28.16,21.59 -28.16,35.584s 9.386,25.941 28.16,35.839s 41.643,14.848 68.609,14.848c 26.624,0 49.322-4.95 68.096-14.848s 28.16-21.845 28.16-35.839c0-8.534 -3.754-16.555 -11.264-24.065
c-18.090-17.408 -46.421-26.112 -84.991-26.112zM 278.527-2.817c-13.654,0 -25.428,9.386 -35.327,28.16s-14.848,41.472 -14.848,68.096c0,26.966 4.864,49.835 14.592,68.609s 21.59,28.16 35.584,28.16s 25.941-9.386 35.839-28.16s 14.848-41.643 14.848-68.609c0-20.138 -2.73-38.144 -8.192-54.016
s-12.971-27.562 -22.529-35.072c-6.486-4.778 -13.142-7.168 -19.968-7.168zM 151.040,170.751c-26.624,0 -49.323,4.95 -68.097,14.849s-28.16,21.845 -28.16,35.839c0,13.654 9.386,25.43 28.16,35.328s 41.472,14.848 68.096,14.848c 26.966,0 49.835-4.864 68.609-14.592s 28.16-21.59 28.16-35.584
c0-9.216 -4.096-17.578 -12.288-25.088s-19.712-13.654 -34.56-18.432s-31.488-7.168 -49.92-7.168zM 284.159,257.792c-13.654,0 -25.429,9.472 -35.327,28.416s-14.848,41.728 -14.848,68.352c0,26.966 4.864,49.75 14.592,68.352s 21.59,27.904 35.584,27.904s 25.941-9.386 35.839-28.16s 14.848-41.472 14.848-68.096
c0-18.432 -2.39-35.072 -7.168-49.92s-10.922-26.368 -18.432-34.56s-15.872-12.288 -25.088-12.288z" horiz-adv-x="563.2"  />
<glyph unicode="&#x66;" d="M 537.6,224c0,70.656 -25.002,130.986 -75.008,180.992s-110.336,75.008 -180.992,75.008s-130.986-25.002 -180.992-75.008s-75.008-110.336 -75.008-180.992s 25.002-130.986 75.008-180.992s 110.336-75.008 180.992-75.008s 130.986,25.002 180.992,75.008s 75.008,110.336 75.008,180.992zM 212.992,25.344l0,130.048 
l 137.216,0 l0-130.048 l-137.216,0 zM 82.944,155.392l0,137.216 l 130.048,0 l0-137.216 l-130.048,0 zM 350.208,155.392l0,137.216 l 130.048,0 l0-137.216 l-130.048,0 zM 212.992,292.608l0,130.048 l 137.216,0 l0-130.048 l-137.216,0 z" horiz-adv-x="563.2"  />
<glyph unicode="&#x67;" d="M 537.6,224c0,70.656 -25.002,130.986 -75.008,180.992s-110.336,75.008 -180.992,75.008s-130.986-25.002 -180.992-75.008s-75.008-110.336 -75.008-180.992s 25.002-130.986 75.008-180.992s 110.336-75.008 180.992-75.008s 130.986,25.002 180.992,75.008s 75.008,110.336 75.008,180.992zM 254.464,9.472
c-5.802,0 -11.776,4.266 -17.92,12.8s-10.582,18.944 -13.312,31.232l-20.48,91.648l-91.648,20.48c-12.288,2.73 -22.698,7.168 -31.232,13.312s-12.8,12.118 -12.8,17.92l0,54.272 c0,5.802 4.266,11.776 12.8,17.92s 18.944,10.582 31.232,13.312l 91.648,20.48l 20.48,91.648c 2.73,12.288 7.168,22.698 13.312,31.232s 12.118,12.8 17.92,12.8l 54.272,0 c 5.802,0 11.776-4.266 17.92-12.8
s 10.582-18.944 13.312-31.232l 20.48-91.648l 91.648-20.48c 12.288-2.73 22.698-7.168 31.232-13.312s 12.8-12.118 12.8-17.92l0-54.272 c0-5.802 -4.266-11.776 -12.8-17.92s-18.944-10.582 -31.232-13.312l-91.648-20.48l-20.48-91.648c-2.73-12.288 -7.168-22.698 -13.312-31.232s-12.118-12.8 -17.92-12.8l-54.272,0 z" horiz-adv-x="563.2"  />
<glyph unicode="&#x68;" d="M 537.6,224c0,70.656 -25.002,130.986 -75.008,180.992s-110.336,75.008 -180.992,75.008s-130.986-25.002 -180.992-75.008s-75.008-110.336 -75.008-180.992s 25.002-130.986 75.008-180.992s 110.336-75.008 180.992-75.008s 130.986,25.002 180.992,75.008s 75.008,110.336 75.008,180.992zM 233.984,176.384
l-171.52-28.16l 103.424,75.776l-103.424,75.776l 171.52-28.16l-28.16,171.52l 75.776-103.424l 75.776,103.424l-28.16-171.52l 171.52,28.16l-103.424-75.776l 103.424-75.776l-171.52,28.16l 28.16-171.52l-75.776,103.424l-75.776-103.424z" horiz-adv-x="563.2"  />
<glyph unicode="&#x69;" d="M 537.6,224c0,70.656 -25.002,130.986 -75.008,180.992s-110.336,75.008 -180.992,75.008s-130.986-25.002 -180.992-75.008s-75.008-110.336 -75.008-180.992s 25.002-130.986 75.008-180.992s 110.336-75.008 180.992-75.008s 130.986,25.002 180.992,75.008s 75.008,110.336 75.008,180.992zM 230.4,41.728
c0,14.336 4.95,26.453 14.848,36.351s 22.016,14.848 36.352,14.848s 26.454-4.95 36.352-14.848s 14.848-22.016 14.848-36.352c0-13.994 -4.95-25.941 -14.848-35.839s-22.016-14.848 -36.352-14.848c-13.994,0 -26.026,4.864 -36.096,14.592s-15.104,21.76 -15.104,36.096zM 229.888,172.799l-104.96-24.064l 73.728,75.264l-73.728,75.264l 105.472-24.064l-24.064,105.472l 75.264-73.728
l 75.264,73.728l-24.064-105.472l 104.96,24.064l-73.728-75.264l 73.728-75.264l-104.96,23.552l 24.064-104.448l-75.264,73.728l-75.264-73.728zM 48.64,223.999c0,13.994 4.863,26.026 14.591,36.096s 21.76,15.104 36.096,15.104s 26.454-4.95 36.352-14.848s 14.848-22.016 14.848-36.352s-4.95-26.454 -14.848-36.352s-22.016-14.848 -36.352-14.848
c-13.994,0 -25.941,4.95 -35.839,14.848s-14.848,22.016 -14.848,36.352zM 412.671,223.999c0,14.336 4.95,26.454 14.849,36.352s 22.016,14.848 36.352,14.848c 13.994,0 25.941-4.95 35.839-14.848s 14.848-22.016 14.848-36.352c0-13.994 -4.864-26.026 -14.592-36.096s-21.76-15.104 -36.096-15.104s-26.454,4.95 -36.352,14.848
s-14.848,22.016 -14.848,36.352zM 230.4,406.271c0,13.994 4.95,25.942 14.848,35.84s 22.016,14.848 36.352,14.848c 13.994,0 26.026-4.864 36.096-14.592s 15.104-21.76 15.104-36.096s-4.95-26.454 -14.848-36.352s-22.016-14.848 -36.352-14.848s-26.454,4.95 -36.352,14.848s-14.848,22.016 -14.848,36.352z" horiz-adv-x="563.2"  />
<glyph unicode="&#x6a;" d="M 537.6,224c0,70.656 -25.002,130.986 -75.008,180.992s-110.336,75.008 -180.992,75.008s-130.986-25.002 -180.992-75.008s-75.008-110.336 -75.008-180.992s 25.002-130.986 75.008-180.992s 110.336-75.008 180.992-75.008s 130.986,25.002 180.992,75.008s 75.008,110.336 75.008,180.992zM 246.272,138.496
l-91.136-112.128l 40.448,112.128l-111.616-40.96l 112.128,91.136l-143.36-14.848l 107.52,50.176l-107.52,50.176l 143.36-14.848l-112.128,91.136l 112.128-40.448l-40.96,111.616l 91.136-112.128l-14.848,143.36l 50.176-107.52l 50.176,107.52l-14.848-143.36l 91.136,112.128l-40.448-112.128l 111.616,40.96l-112.128-91.136l 143.36,14.848l-107.52-50.176l 107.52-50.176l-143.36,14.848l 112.128-91.136l-112.128,40.448l 40.96-111.616l-91.136,112.128l 14.848-143.36l-50.176,107.52
l-50.176-107.52z" horiz-adv-x="563.2"  />
<glyph unicode="&#x6b;" d="M 537.6,224c0,70.656 -25.002,130.986 -75.008,180.992s-110.336,75.008 -180.992,75.008s-130.986-25.002 -180.992-75.008s-75.008-110.336 -75.008-180.992s 25.002-130.986 75.008-180.992s 110.336-75.008 180.992-75.008s 130.986,25.002 180.992,75.008s 75.008,110.336 75.008,180.992zM 226.304,75.008
c0,16.384 5.632,30.208 16.896,41.472s 24.918,16.896 40.96,16.896c 16.384,0 30.208-5.632 41.472-16.896s 16.896-25.088 16.896-41.472s-5.632-30.208 -16.896-41.472s-25.088-16.896 -41.472-16.896c-16.042,0 -29.696,5.632 -40.96,16.896s-16.896,25.088 -16.896,41.472zM 229.376,224l-23.040,91.136l 77.824-26.624l 78.336,26.624l-23.040-91.136l 23.040-90.624l-78.336,26.624l-77.824-26.624zM 74.24,224c0,16.384 5.632,30.208 16.896,41.472s 25.088,16.896 41.472,16.896s 30.208-5.632 41.472-16.896
s 16.896-25.088 16.896-41.472s-5.632-30.208 -16.896-41.472s-25.088-16.896 -41.472-16.896s-30.208,5.632 -41.472,16.896s-16.896,25.088 -16.896,41.472zM 372.224,224c0,16.384 5.632,30.208 16.896,41.472s 25.088,16.896 41.472,16.896s 30.208-5.632 41.472-16.896s 16.896-25.088 16.896-41.472s-5.632-30.208 -16.896-41.472s-25.088-16.896 -41.472-16.896s-30.208,5.632 -41.472,16.896s-16.896,25.088 -16.896,41.472zM 226.304,372.992c0,16.384 5.632,30.208 16.896,41.472s 24.918,16.896 40.96,16.896
c 16.384,0 30.208-5.632 41.472-16.896s 16.896-25.088 16.896-41.472s-5.632-30.208 -16.896-41.472s-25.088-16.896 -41.472-16.896c-16.042,0 -29.696,5.632 -40.96,16.896s-16.896,25.088 -16.896,41.472z" horiz-adv-x="563.2"  />
<glyph unicode="&#x6c;" d="M 537.6,224c0,70.656 -25.002,130.986 -75.008,180.992s-110.336,75.008 -180.992,75.008s-130.986-25.002 -180.992-75.008s-75.008-110.336 -75.008-180.992s 25.002-130.986 75.008-180.992s 110.336-75.008 180.992-75.008s 130.986,25.002 180.992,75.008s 75.008,110.336 75.008,180.992zM 229.376,25.344
c-12.63,0 -18.943,5.462 -18.943,16.384c0,1.706 0.682,4.608 2.048,8.704l 59.392,150.528c 2.73,6.826 5.973,10.24 9.727,10.24s 6.997-3.414 9.727-10.24l 59.392-150.528c 1.366-2.73 2.048-5.632 2.048-8.704c0-10.922 -6.314-16.384 -18.944-16.384l-104.448,0 zM 82.945,171.776l0,104.448 c0,12.63 5.462,18.944 16.384,18.944
c 1.706,0 4.608-0.682 8.704-2.048l 150.528-59.392c 6.826-2.39 10.24-5.632 10.24-9.728s-3.414-7.338 -10.24-9.728l-150.528-59.392c-3.072-1.366 -6.314-2.048 -9.728-2.048c-10.24,0 -15.36,6.314 -15.36,18.944zM 455.169,154.88l-150.529,59.393c-6.826,2.73 -10.24,5.973 -10.24,9.727s 3.414,6.997 10.24,9.727
l 150.528,59.392c 2.73,1.366 5.632,2.048 8.704,2.048c 10.922,0 16.384-6.314 16.384-18.944l0-104.448 c0-5.802 -1.366-10.41 -4.096-13.824s-6.485-5.12 -11.263-5.12c-3.414,0 -6.656,0.682 -9.728,2.048zM 271.873,247.041l-59.393,150.528c-1.366,2.73 -2.048,5.632 -2.048,8.704c0,10.922 6.314,16.384 18.944,16.384l 104.448,0 
c 12.63,0 18.944-5.462 18.944-16.384c0-1.706 -0.682-4.608 -2.048-8.704l-59.392-150.528c-2.73-6.826 -5.973-10.24 -9.727-10.24s-6.997,3.414 -9.727,10.24z" horiz-adv-x="563.2"  />
<glyph unicode="&#x72;" d="M 537.6,224c0,70.656 -25.002,130.986 -75.008,180.992s-110.336,75.008 -180.992,75.008s-130.986-25.002 -180.992-75.008s-75.008-110.336 -75.008-180.992s 25.002-130.986 75.008-180.992s 110.336-75.008 180.992-75.008s 130.986,25.002 180.992,75.008s 75.008,110.336 75.008,180.992zM 237.568,74.496l-44.544,48.128
l 61.44,9.728l 27.136,61.952l 27.136-61.952l 61.44-9.728l-44.544-48.128l 10.752-68.096l-54.784,32.256l-54.784-32.256zM 132.096,179.968l-68.096-10.752l 32.256,54.784l-32.256,54.784l 68.096-10.24l 48.128,44.032l 9.728-61.44l 61.952-27.136l-61.952-27.136l-9.728-61.44zM 373.248,196.864l-61.952,27.136l 61.952,27.136l 9.728,61.44l 48.128-44.032l 68.096,10.24l-32.256-54.784l 32.256-54.784l-68.096,10.752l-48.128-44.544zM 254.464,315.648l-61.44,9.728l 44.544,48.128l-10.752,68.096
l 54.784-32.256l 54.784,32.256l-10.752-68.096l 44.544-48.128l-61.44-9.728l-27.136-61.952z" horiz-adv-x="563.2"  />
<glyph unicode="&#x73;" d="M 537.6,224c0,70.656 -25.002,130.986 -75.008,180.992s-110.336,75.008 -180.992,75.008s-130.986-25.002 -180.992-75.008s-75.008-110.336 -75.008-180.992s 25.002-130.986 75.008-180.992s 110.336-75.008 180.992-75.008s 130.986,25.002 180.992,75.008s 75.008,110.336 75.008,180.992zM 184.832,31.488l0,61.44 
l 193.536,0 l0-61.44 l-193.536,0 zM 89.088,127.232l0,193.536 l 61.44,0 l0-193.536 l-61.44,0 zM 412.672,127.232l0,193.536 l 61.44,0 l0-193.536 l-61.44,0 zM 202.24,224c0,21.846 7.766,40.534 23.296,56.064s 34.218,23.296 56.064,23.296s 40.534-7.766 56.064-23.296s 23.296-34.218 23.296-56.064s-7.766-40.534 -23.296-56.064s-34.218-23.296 -56.064-23.296
s-40.534,7.766 -56.064,23.296s-23.296,34.218 -23.296,56.064zM 184.832,355.072l0,61.44 l 193.536,0 l0-61.44 l-193.536,0 z" horiz-adv-x="563.2"  />
<glyph unicode="&#x74;" d="M 537.6,224c0,70.656 -25.002,130.986 -75.008,180.992s-110.336,75.008 -180.992,75.008s-130.986-25.002 -180.992-75.008s-75.008-110.336 -75.008-180.992s 25.002-130.986 75.008-180.992s 110.336-75.008 180.992-75.008s 130.986,25.002 180.992,75.008s 75.008,110.336 75.008,180.992zM 184.832,31.488
l-0.002,61.44l 78.848,0 l0,54.272 l-12.8,3.584c-11.946,5.12 -22.101,12.714 -30.463,22.784s-13.909,21.59 -16.639,34.56l0,4.096 l-53.248,0 l0-84.992 l-61.44,0 l0,193.536 l 61.44,0 l0-73.216 l 55.808,0 l 2.048,7.168c 8.534,19.798 22.699,33.963 42.497,42.497l 12.8,3.584l0,54.272 l-78.848,0 l0,61.44 l 193.536,0 l0-61.44 l-78.848,0 l0-54.272 l 12.8-3.584
c 20.138-8.534 34.133-22.699 41.983-42.497l 2.56-7.168l 55.808,0 l0,73.216 l 61.44,0 l0-193.536 l-61.44,0 l0,84.992 l-53.248,0 l0-4.096 c-2.73-12.97 -8.277-24.49 -16.639-34.56s-18.517-17.664 -30.463-22.784l-12.8-3.584l0-54.272 l 78.848,0 l0-61.44 l-193.536,0 zM 334.334,224c0,14.678 -5.12,27.136 -15.36,37.376s-22.698,15.36 -37.376,15.36
s-27.136-5.12 -37.376-15.36s-15.36-22.698 -15.36-37.376s 5.12-27.136 15.36-37.376s 22.698-15.36 37.376-15.36s 27.136,5.12 37.376,15.36s 15.36,22.698 15.36,37.376z" horiz-adv-x="563.2"  />
<glyph unicode="&#x75;" d="M 537.6,224c0,70.656 -25.002,130.986 -75.008,180.992s-110.336,75.008 -180.992,75.008s-130.986-25.002 -180.992-75.008s-75.008-110.336 -75.008-180.992s 25.002-130.986 75.008-180.992s 110.336-75.008 180.992-75.008s 130.986,25.002 180.992,75.008s 75.008,110.336 75.008,180.992zM 242.176,52.48
c0,10.922 3.754,20.31 11.264,28.16s 16.896,11.776 28.16,11.776c 10.922,0 20.224-3.84 27.904-11.52s 11.52-17.152 11.52-28.416s-3.754-20.65 -11.264-28.16s-16.896-11.264 -28.16-11.264s-20.65,3.754 -28.16,11.264s-11.264,16.896 -11.264,28.16zM 260.608,109.825l0,93.184 l-92.672,0 l0,41.984 l 92.672,0 l0,92.672 l 41.984,0 l0-92.672 l 93.184,0 l0-41.984 l-93.184,0 l0-93.184 l-41.984,0 zM 70.656,224.001
c0,11.264 3.755,20.65 11.265,28.16s 16.896,11.264 28.16,11.264c 10.922,0 20.309-3.754 28.159-11.264s 11.776-16.896 11.776-28.16c0-10.922 -3.84-20.224 -11.52-27.904s-17.152-11.52 -28.416-11.52s-20.65,3.754 -28.16,11.264s-11.264,16.896 -11.264,28.16zM 413.185,224.001c0,10.922 3.839,20.224 11.519,27.904
s 17.152,11.52 28.416,11.52s 20.65-3.754 28.16-11.264s 11.264-16.896 11.264-28.16s-3.754-20.65 -11.264-28.16s-16.896-11.264 -28.16-11.264c-10.922,0 -20.309,3.754 -28.159,11.264s-11.776,16.896 -11.776,28.16zM 242.176,395.521c0,11.264 3.754,20.65 11.264,28.159s 16.896,11.264 28.16,11.264s 20.65-3.754 28.16-11.264s 11.264-16.896 11.264-28.16
c0-10.922 -3.754-20.309 -11.264-28.159s-16.896-11.776 -28.16-11.776c-10.922,0 -20.224,3.84 -27.904,11.52s-11.52,17.152 -11.52,28.416z" horiz-adv-x="563.2"  />
<glyph unicode="&#x76;" d="M 537.6,224c0,70.656 -25.002,130.986 -75.008,180.992s-110.336,75.008 -180.992,75.008s-130.986-25.002 -180.992-75.008s-75.008-110.336 -75.008-180.992s 25.002-130.986 75.008-180.992s 110.336-75.008 180.992-75.008s 130.986,25.002 180.992,75.008s 75.008,110.336 75.008,180.992zM 235.52,79.104l 23.040,0 l0,77.824 
l-4.608,1.536c-17.75,7.168 -30.55,19.798 -38.4,37.888l-1.024,4.608l-77.824,0 l0-23.040 l-103.424,46.080l 103.424,46.080l0-23.040 l 77.824,0 l 1.024,4.608c 7.85,17.75 20.65,30.55 38.4,38.4l 4.608,1.024l0,77.824 l-23.040,0 l 46.080,103.424l 46.080-103.424l-23.040,0 l0-77.824 l 4.608-1.024c 17.75-7.85 30.55-20.65 38.4-38.4l 1.024-4.608l 77.824,0 l0,23.040 l 103.424-46.080l-103.424-46.080l0,23.040 l-77.824,0 l-1.024-4.608
c-7.85-18.090 -20.65-30.72 -38.4-37.888l-4.608-1.536l0-77.824 l 23.040,0 l-46.080-103.424z" horiz-adv-x="563.2"  />
<glyph unicode="&#x77;" d="M 537.6,224c0,70.656 -25.002,130.986 -75.008,180.992s-110.336,75.008 -180.992,75.008s-130.986-25.002 -180.992-75.008s-75.008-110.336 -75.008-180.992s 25.002-130.986 75.008-180.992s 110.336-75.008 180.992-75.008s 130.986,25.002 180.992,75.008s 75.008,110.336 75.008,180.992zM 260.608,39.168
c-5.12,0 -10.326,1.622 -15.616,4.864s-9.13,7.253 -11.52,12.031l-23.040,47.616c-2.39,5.462 -3.584,11.094 -3.584,16.896s 1.194,11.434 3.584,16.896l 23.040,47.616c 2.39,4.778 6.23,8.789 11.52,12.031s 10.496,4.864 15.616,4.864l 41.984,0 c 5.12,0 10.326-1.622 15.616-4.864s 9.13-7.253 11.52-12.031l 23.040-47.616
c 2.39-4.438 3.584-10.070 3.584-16.896s-1.194-12.458 -3.584-16.896l-23.040-47.616c-2.39-4.778 -6.23-8.789 -11.52-12.031s-10.496-4.864 -15.616-4.864l-41.984,0 zM 122.88,142.592c-5.12,0 -10.326,1.622 -15.616,4.864s-9.13,7.253 -11.52,12.031l-23.040,47.616c-2.39,5.462 -3.584,11.094 -3.584,16.896
s 1.194,11.434 3.584,16.896l 23.040,47.616c 2.39,4.778 6.23,8.789 11.52,12.031s 10.496,4.864 15.616,4.864l 41.984,0 c 5.12,0 10.326-1.622 15.616-4.864s 9.13-7.253 11.52-12.031l 23.040-47.616c 2.39-4.438 3.584-10.070 3.584-16.896s-1.194-12.458 -3.584-16.896l-23.040-47.616
c-2.39-4.778 -6.23-8.789 -11.52-12.031s-10.496-4.864 -15.616-4.864l-41.984,0 zM 398.336,142.592c-5.12,0 -10.326,1.622 -15.616,4.864s-9.13,7.253 -11.52,12.031l-23.040,47.616c-2.39,5.462 -3.584,11.094 -3.584,16.896s 1.194,11.434 3.584,16.896l 23.040,47.616c 2.39,4.778 6.23,8.789 11.52,12.031
s 10.496,4.864 15.616,4.864l 41.984,0 c 5.12,0 10.326-1.622 15.616-4.864s 9.13-7.253 11.52-12.031l 23.040-47.616c 2.39-4.438 3.584-10.070 3.584-16.896s-1.194-12.458 -3.584-16.896l-23.040-47.616c-2.39-4.778 -6.23-8.789 -11.52-12.031s-10.496-4.864 -15.616-4.864l-41.984,0 zM 260.608,246.016
c-5.12,0 -10.326,1.622 -15.616,4.864s-9.13,7.253 -11.52,12.031l-23.040,47.616c-2.39,5.462 -3.584,11.094 -3.584,16.896s 1.194,11.434 3.584,16.896l 23.040,47.616c 2.39,4.778 6.23,8.789 11.52,12.031s 10.496,4.864 15.616,4.864l 41.984,0 c 5.12,0 10.326-1.622 15.616-4.864s 9.13-7.253 11.52-12.031l 23.040-47.616
c 2.39-4.438 3.584-10.070 3.584-16.896s-1.194-12.458 -3.584-16.896l-23.040-47.616c-2.39-4.778 -6.23-8.789 -11.52-12.031s-10.496-4.864 -15.616-4.864l-41.984,0 z" horiz-adv-x="563.2"  />
<glyph unicode="&#x78;" d="M 537.6,224c0,70.656 -25.002,130.986 -75.008,180.992s-110.336,75.008 -180.992,75.008s-130.986-25.002 -180.992-75.008s-75.008-110.336 -75.008-180.992s 25.002-130.986 75.008-180.992s 110.336-75.008 180.992-75.008s 130.986,25.002 180.992,75.008s 75.008,110.336 75.008,180.992zM 209.408,225.536
l-136.704-1.536l 174.080,73.216l-69.632,138.24l 141.312-139.264l 67.584,139.264l-32.768-212.992l 137.216,1.536l-174.080-73.728l 69.632-137.728l-141.312,139.264l-67.584-139.264zM 333.312,224c0,14.336 -5.034,26.538 -15.104,36.608s-22.272,15.104 -36.608,15.104s-26.538-5.034 -36.608-15.104s-15.104-22.272 -15.104-36.608s 5.034-26.538 15.104-36.608
s 22.272-15.104 36.608-15.104s 26.538,5.034 36.608,15.104s 15.104,22.272 15.104,36.608z" horiz-adv-x="563.2"  />
<glyph unicode="&#x79;" d="M 537.6,224c0,70.656 -25.002,130.986 -75.008,180.992s-110.336,75.008 -180.992,75.008s-130.986-25.002 -180.992-75.008s-75.008-110.336 -75.008-180.992s 25.002-130.986 75.008-180.992s 110.336-75.008 180.992-75.008s 130.986,25.002 180.992,75.008s 75.008,110.336 75.008,180.992zM 244.224,8.96l0,116.736 
l-46.080-14.336c-3.072-1.024 -6.144-1.536 -9.216-1.536c-10.24,0 -15.36,5.462 -15.36,16.384c0,3.754 0.342,6.656 1.024,8.704l 14.336,51.712l-122.368,0 l0,74.752 l 122.368,0 l-14.336,51.712c-0.682,2.048 -1.024,4.95 -1.024,8.704c0,10.922 5.29,16.384 15.872,16.384c 2.73,0 5.632-0.512 8.704-1.536l 46.080-14.336l0,116.736 l 74.752,0 l0-116.736 l 46.080,14.336c 3.072,1.024 6.144,1.536 9.216,1.536c 10.24,0 15.36-5.462 15.36-16.384
c0-3.754 -0.342-6.656 -1.024-8.704l-14.336-51.712l 122.368,0 l0-74.752 l-122.368,0 l 14.336-51.712c 0.682-2.048 1.024-4.95 1.024-8.704c0-10.922 -5.29-16.384 -15.872-16.384c-2.73,0 -5.632,0.512 -8.704,1.536l-46.080,14.336l0-116.736 l-74.752,0 z" horiz-adv-x="563.2"  />
<glyph unicode="&#x4d;" d="M 462.336,405.248c-24.234,24.234 -52.138,42.75 -83.711,55.55s-63.915,19.2 -97.025,19.2c-33.792,0 -66.218-6.23 -97.28-18.688s-58.88-31.061 -83.456-55.807s-43.264-52.821 -56.064-84.223s-19.2-63.829 -19.2-97.279c0-33.792 6.23-66.134 18.688-97.024
s 31.146-58.794 56.064-83.712s 52.822-43.606 83.712-56.064s 63.402-18.688 97.536-18.688c 33.45,0 65.792,6.23 97.024,18.688s 59.136,30.976 83.712,55.552s 43.178,52.48 55.808,83.712s 18.944,63.744 18.944,97.536c0,33.45 -6.23,65.792 -18.688,97.024s-31.146,59.306 -56.064,84.224z
M 439.297,61.694c-5.802-6.144 -13.141-9.216 -22.015-9.216c-8.534,0 -15.872,3.072 -22.016,9.216l-98.304,98.816c-5.802,5.802 -8.704,12.97 -8.704,21.504c0,7.85 2.902,15.018 8.704,21.504l 4.608,5.12c 6.144,6.144 13.482,9.216 22.016,9.216c 8.874,0 16.213-3.072 22.015-9.216l 98.304-98.304c 6.144-6.144 9.216-13.482 9.216-22.016s-3.072-15.872 -9.216-22.016
zM 167.425,61.694c-6.144-6.144 -13.482-9.216 -22.016-9.216s-15.872,3.072 -22.016,9.216l-4.608,4.608c-6.144,6.144 -9.216,13.482 -9.216,22.016s 3.072,15.872 9.216,22.016l 98.816,98.304c 6.144,6.144 13.312,9.216 21.504,9.216c 8.534,0 15.872-3.072 22.016-9.216l 4.608-4.608c 6.144-6.144 9.216-13.482 9.216-22.016s-3.072-15.702 -9.216-21.504zM 345.601,239.87c-5.462-5.802 -12.8-8.704 -22.016-8.704
c-8.534,0 -15.872,3.072 -22.016,9.216l-4.096,4.096c-6.144,6.144 -9.216,13.654 -9.216,22.528c0,8.534 2.902,15.702 8.704,21.504l 98.304,98.304c 6.144,6.144 13.654,9.216 22.528,9.216c 8.534,0 15.872-3.072 22.016-9.216l 4.096-4.096c 6.144-6.144 9.216-13.654 9.216-22.528c0-8.534 -3.072-15.872 -9.216-22.016zM 260.609,239.87c-5.462-5.802 -12.63-8.704 -21.504-8.704
c-8.534,0 -15.702,2.902 -21.504,8.704l-98.816,98.304c-6.144,6.144 -9.216,13.482 -9.216,22.016s 3.072,15.872 9.216,22.016l 4.608,4.608c 6.144,6.144 13.482,9.216 22.016,9.216s 15.872-3.072 22.016-9.216l 98.304-98.304c 6.144-6.144 9.216-13.482 9.216-22.016s-3.072-15.872 -9.216-22.016z" horiz-adv-x="563.2"  />
<glyph unicode="&#x4e;" d="M 462.848,405.248c-24.576,24.234 -52.566,42.751 -83.969,55.551s-63.829,19.2 -97.279,19.2c-33.792,0 -66.218-6.23 -97.28-18.688s-58.88-31.061 -83.456-55.807s-43.264-52.821 -56.064-84.223s-19.2-63.829 -19.2-97.279c0-33.792 6.23-66.218 18.688-97.28
s 31.146-59.051 56.064-83.969s 52.822-43.606 83.712-56.064s 63.402-18.688 97.536-18.688c 33.45,0 65.792,6.23 97.024,18.688s 59.306,31.146 84.224,56.064s 43.606,52.822 56.064,83.712s 18.688,63.402 18.688,97.536c0,33.45 -6.23,65.792 -18.688,97.024
s-31.146,59.306 -56.064,84.224zM 431.615,34.559l-111.616,88.064l-30.208,93.184l 93.184-30.208l 88.064-111.616zM 131.583,34.559l-39.424,39.424l 88.064,111.616l 93.184,30.208l-30.208-93.184zM 289.791,232.191l 30.208,93.184l 111.616,88.064l 39.424-39.424l-88.064-111.616zM 180.223,262.399l-88.064,111.616l 39.424,39.424l 111.616-88.064l 30.208-93.184z" horiz-adv-x="563.2"  />
<glyph unicode="&#x4f;" d="M 281.088,480.512c-70.998,0 -131.498-25.002 -181.504-75.007s-75.008-110.507 -75.008-181.505c0-70.314 25.088-130.56 75.264-180.736s 110.592-75.264 181.248-75.264s 131.072,24.918 181.248,74.752s 75.264,110.25 75.264,181.248c0,70.656 -25.088,131.072 -75.264,181.248s-110.592,75.264 -181.248,75.264zM 424.961,42.241l-107.52,84.48l-16.384,52.736
c-6.144-2.39 -12.8-3.584 -19.968-3.584c-7.51,0 -13.824,1.194 -18.944,3.584l-17.408-52.736l-107.52-84.48l-37.888,37.888l 84.48,107.008l 52.736,17.408c-1.366,2.73 -2.39,5.802 -3.072,9.216s-1.024,6.827 -1.024,10.241c0,7.85 1.194,14.165 3.584,18.943l-52.224,17.92l-84.48,107.52l 37.888,37.376l 107.008-84.48l 16.896-52.736
c 5.802,2.73 12.458,4.096 19.968,4.096s 13.824-1.194 18.944-3.584l 17.92,52.224l 107.008,84.48l 37.888-37.376l-84.48-107.52l-52.736-16.896c 2.73-5.462 4.096-12.118 4.096-19.968c0-7.51 -1.194-13.654 -3.584-18.432l 52.224-18.432l 84.48-107.008z" horiz-adv-x="563.2"  />
<glyph unicode="&#x50;" d="M 459.776,404.224c-24.576,24.234 -52.566,42.75 -83.969,55.55s-63.829,19.2 -97.279,19.2c-33.792,0 -66.218-6.23 -97.28-18.688s-58.88-31.061 -83.456-55.807s-43.264-52.821 -56.064-84.223s-19.2-63.829 -19.2-97.279c0-33.792 6.23-66.134 18.688-97.024
s 31.146-58.794 56.064-83.712s 52.822-43.606 83.712-56.064s 63.402-18.688 97.536-18.688c 33.45,0 65.792,6.23 97.024,18.688s 59.222,30.976 83.968,55.552s 43.434,52.48 56.064,83.712s 18.944,63.744 18.944,97.536c0,33.45 -6.23,65.792 -18.688,97.024s-31.146,59.306 -56.064,84.224z
M 436.223,60.158c-5.462-5.802 -12.63-8.704 -21.504-8.704c-8.534,0 -15.872,3.072 -22.016,9.216l-98.816,98.304c-5.802,6.486 -8.704,13.824 -8.704,22.016c0,7.85 2.902,15.018 8.704,21.504l 5.12,4.608c 6.144,6.144 13.654,9.216 22.528,9.216c 8.192,0 15.19-2.902 20.992-8.704l 98.816-98.304c 6.144-6.144 9.216-13.654 9.216-22.528
c0-8.534 -3.072-15.872 -9.216-22.016zM 278.527,19.198c-15.702,0 -29.1,5.546 -40.193,16.64s-16.64,24.491 -16.64,40.193s 5.546,29.099 16.64,40.193s 24.491,16.64 40.193,16.64s 29.099-5.546 40.193-16.64s 16.64-24.491 16.64-40.193s-5.462-29.355 -16.384-40.961
c-11.264-10.582 -24.746-15.872 -40.448-15.872zM 425.983,166.142c-15.702,0 -29.1,5.546 -40.193,16.64s-16.64,24.491 -16.64,40.193s 5.546,29.099 16.64,40.193s 24.491,16.64 40.193,16.64s 29.099-5.546 40.193-16.64s 16.64-24.491 16.64-40.193s-5.376-29.099 -16.128-40.193
s-24.32-16.64 -40.704-16.64zM 164.35,60.67c-6.144-6.144 -13.482-9.216 -22.016-9.216s-15.872,3.072 -22.016,9.216l-4.096,4.096c-6.144,6.144 -9.216,13.482 -9.216,22.016c0,8.874 3.072,16.384 9.216,22.528l 98.304,98.304c 6.486,5.802 13.654,8.704 21.504,8.704c 8.534,0 15.872-3.072 22.016-9.216l 4.608-4.096c 6.144-6.144 9.216-13.654 9.216-22.528
c0-7.85 -2.902-15.018 -8.704-21.504zM 342.526,238.846c-5.802-6.144 -12.97-9.216 -21.504-9.216s-15.872,3.072 -22.016,9.216l-4.608,4.608c-6.144,6.144 -9.216,13.654 -9.216,22.528c0,7.85 2.902,15.018 8.704,21.504l 98.816,98.304c 6.144,6.144 13.482,9.216 22.016,9.216s 15.872-3.072 22.016-9.216l 4.608-4.608c 6.144-6.144 9.216-13.482 9.216-22.016s-3.072-15.872 -9.216-22.016z
M 258.046,238.846c-6.144-6.144 -13.482-9.216 -22.016-9.216c-8.192,0 -15.36,3.072 -21.504,9.216l-98.304,98.304c-6.144,6.144 -9.216,13.654 -9.216,22.528c0,7.85 2.902,15.018 8.704,21.504l 4.608,4.608c 6.144,6.144 13.482,9.216 22.016,9.216s 15.872-3.072 22.016-9.216l 98.816-98.304c 3.072-3.072 5.29-6.4 6.656-9.984s 2.048-7.594 2.048-12.032c0-8.534 -3.072-15.872 -9.216-22.016z
M 131.070,166.142c-15.36,0 -28.673,5.632 -39.937,16.896s-16.896,24.576 -16.896,39.936c0,15.702 5.546,29.099 16.64,40.193s 24.491,16.64 40.193,16.64s 29.099-5.546 40.193-16.64s 16.64-24.491 16.64-40.193c0-16.042 -5.632-29.354 -16.896-39.936c-11.264-11.264 -24.576-16.896 -39.936-16.896zM 278.525,313.598
c-15.702,0 -29.1,5.546 -40.194,16.64s-16.64,24.491 -16.64,40.193s 5.546,29.099 16.64,40.193s 24.491,16.64 40.193,16.64s 29.099-5.546 40.193-16.64s 16.64-24.491 16.64-40.193c0-7.51 -1.45-14.763 -4.352-21.761s-6.912-13.056 -12.032-18.176
c-11.946-11.264 -25.429-16.896 -40.447-16.896z" horiz-adv-x="563.2"  />
<glyph unicode="&#x51;" d="M 462.848,405.248c-24.576,24.234 -52.566,42.751 -83.969,55.551s-63.829,19.2 -97.279,19.2c-33.792,0 -66.218-6.23 -97.28-18.688s-58.88-31.061 -83.456-55.807s-43.264-52.821 -56.064-84.223s-19.2-63.829 -19.2-97.279c0-33.792 6.23-66.218 18.688-97.28
s 31.146-59.051 56.064-83.969s 52.822-43.606 83.712-56.064s 63.402-18.688 97.536-18.688c 33.45,0 65.792,6.23 97.024,18.688s 59.306,31.146 84.224,56.064s 43.606,52.822 56.064,83.712s 18.688,63.402 18.688,97.536c0,33.45 -6.23,65.792 -18.688,97.024
s-31.146,59.306 -56.064,84.224zM 414.207,52.991c-2.73-2.73 -7.338-4.096 -13.824-4.096c-12.288,0 -25.43,4.438 -39.424,13.312l-79.36,50.176l-79.36-50.176c-14.678-8.874 -27.99-13.312 -39.936-13.312c-6.144,0 -10.582,1.366 -13.312,4.096l-38.4,38.4c-2.73,2.73 -4.096,7.338 -4.096,13.824
c0,12.288 4.438,25.43 13.312,39.424l 50.176,79.36l-50.176,79.36c-8.874,14.678 -13.312,27.99 -13.312,39.936c0,5.462 1.366,9.899 4.096,13.313l 38.4,38.4c 2.73,2.73 7.338,4.096 13.824,4.096c 12.288,0 25.43-4.438 39.424-13.312l 79.36-50.176l 79.36,50.176c 14.678,8.874 27.99,13.312 39.936,13.312c 6.144,0 10.582-1.366 13.312-4.096l 38.4-38.4
c 2.73-2.73 4.096-7.338 4.096-13.824c0-12.288 -4.438-25.43 -13.312-39.424l-50.176-79.36l 50.176-79.36c 8.874-14.678 13.312-27.99 13.312-39.936c0-6.486 -1.366-10.923 -4.096-13.313zM 343.039,285.439c-17.408,16.726 -37.889,25.087 -61.441,25.087s-44.032-8.362 -61.44-25.088
c-16.726-17.408 -25.088-37.888 -25.088-61.44s 8.362-44.032 25.088-61.44c 8.192-8.192 17.578-14.422 28.16-18.688s 21.675-6.4 33.281-6.4c 24.234,0 44.714,8.362 61.44,25.088c 8.192,8.192 14.422,17.578 18.688,28.16s 6.4,21.675 6.4,33.281c0,24.234 -8.362,44.714 -25.088,61.44z" horiz-adv-x="563.2"  />
<glyph unicode="&#x5a;" d="M 537.6,224c0,70.656 -25.002,130.986 -75.008,180.992s-110.336,75.008 -180.992,75.008s-130.986-25.002 -180.992-75.008s-75.008-110.336 -75.008-180.992s 25.002-130.986 75.008-180.992s 110.336-75.008 180.992-75.008s 130.986,25.002 180.992,75.008s 75.008,110.336 75.008,180.992zM 251.904,6.4l0,125.952 
l-19.968,0 l-83.456-83.456l-41.984,41.984l 70.656,70.656l0,32.768 l-113.152,0 l0,59.392 l 113.152,0 l0,32.768 l-70.656,70.656l 41.984,41.984l 83.456-83.456l 19.968,0 l0,125.952 l 59.392,0 l0-125.952 l 19.968,0 l 83.456,83.456l 41.984-41.984l-70.656-70.656l0-32.768 l 113.152,0 l0-59.392 l-113.152,0 l0-32.768 l 70.656-70.656l-41.984-41.984l-83.456,83.456l-19.968,0 l0-125.952 l-59.392,0 z" horiz-adv-x="563.2"  />
<glyph unicode="&#x61;" d="M 25.6,224c0-70.656 25.002-130.986 75.008-180.992s 110.336-75.008 180.992-75.008s 130.986,25.002 180.992,75.008s 75.008,110.336 75.008,180.992s-25.002,130.986 -75.008,180.992s-110.336,75.008 -180.992,75.008s-130.986-25.002 -180.992-75.008s-75.008-110.336 -75.008-180.992z" horiz-adv-x="563.2"  />
<glyph unicode="&#x62;" d="M 537.6,224c0,70.656 -25.002,130.986 -75.008,180.992s-110.336,75.008 -180.992,75.008s-130.986-25.002 -180.992-75.008s-75.008-110.336 -75.008-180.992s 25.002-130.986 75.008-180.992s 110.336-75.008 180.992-75.008s 130.986,25.002 180.992,75.008s 75.008,110.336 75.008,180.992zM 91.136,224
c0,52.566 18.602,97.451 55.808,134.657s 82.091,55.808 134.657,55.808s 97.451-18.602 134.657-55.808s 55.808-82.091 55.808-134.657s-18.602-97.451 -55.808-134.657s-82.091-55.808 -134.657-55.808s-97.451,18.602 -134.657,55.808s-55.808,82.091 -55.808,134.657zM 409.6,224
c0,35.498 -12.458,65.706 -37.376,90.624s-55.126,37.376 -90.624,37.376s-65.706-12.458 -90.624-37.376s-37.376-55.126 -37.376-90.624s 12.458-65.706 37.376-90.624s 55.126-37.376 90.624-37.376s 65.706,12.458 90.624,37.376s 37.376,55.126 37.376,90.624zM 186.368,224c0,26.624 9.216,49.152 27.648,67.584s 40.96,27.648 67.584,27.648s 49.152-9.216 67.584-27.648
s 27.648-40.96 27.648-67.584s-9.216-49.152 -27.648-67.584s-40.96-27.648 -67.584-27.648s-49.152,9.216 -67.584,27.648s-27.648,40.96 -27.648,67.584z" horiz-adv-x="563.2"  />
<glyph unicode="&#x63;" d="M 537.6,224c0,70.656 -25.002,130.986 -75.008,180.992s-110.336,75.008 -180.992,75.008s-130.986-25.002 -180.992-75.008s-75.008-110.336 -75.008-180.992s 25.002-130.986 75.008-180.992s 110.336-75.008 180.992-75.008s 130.986,25.002 180.992,75.008s 75.008,110.336 75.008,180.992zM 218.112,21.76
l 63.488,183.808l 63.488-183.808l-126.976,0 zM 79.36,287.488l 183.808-63.488l-183.808-63.488l0,126.976 zM 300.032,224l 183.808,63.488l0-126.976 zM 218.112,426.24l 126.976,0 l-63.488-183.808z" horiz-adv-x="563.2"  />
<glyph unicode="&#x64;" d="M 537.6,224c0,70.656 -25.002,130.986 -75.008,180.992s-110.336,75.008 -180.992,75.008s-130.986-25.002 -180.992-75.008s-75.008-110.336 -75.008-180.992s 25.002-130.986 75.008-180.992s 110.336-75.008 180.992-75.008s 130.986,25.002 180.992,75.008s 75.008,110.336 75.008,180.992zM 200.192,78.592
c0,22.528 7.936,41.728 23.808,57.6s 35.072,23.808 57.6,23.808s 41.728-7.936 57.6-23.808s 23.808-35.072 23.808-57.6s-7.85-41.814 -23.552-57.856s-34.987-24.064 -57.857-24.064c-22.186,0 -41.301,8.022 -57.343,24.064s-24.064,35.328 -24.064,57.856zM 54.272,224c0,22.186 8.022,41.301 24.064,57.343s 35.328,24.064 57.856,24.064
c 22.186,0 41.301-7.85 57.343-23.552s 24.064-34.987 24.064-57.857c0-22.186 -8.022-41.301 -24.064-57.343s-35.157-24.064 -57.343-24.064c-22.528,0 -41.814,7.85 -57.856,23.552s-24.064,34.987 -24.064,57.857zM 345.6,224c0,22.186 8.022,41.301 24.064,57.343s 35.157,24.064 57.343,24.064
c 22.528,0 41.814-7.85 57.856-23.552s 24.064-34.987 24.064-57.857c0-22.186 -8.022-41.301 -24.064-57.343s-35.328-24.064 -57.856-24.064c-22.186,0 -41.301,7.85 -57.343,23.552s-24.064,34.987 -24.064,57.857zM 200.192,369.408c0,22.528 7.85,41.814 23.552,57.856s 34.987,24.064 57.857,24.064
c 22.186,0 41.301-8.022 57.343-24.064s 24.064-35.328 24.064-57.856c0-22.186 -7.85-41.301 -23.552-57.343s-34.987-24.064 -57.857-24.064c-22.186,0 -41.301,8.022 -57.343,24.064s-24.064,35.157 -24.064,57.343z" horiz-adv-x="563.2"  />
<glyph unicode="&#x6d;" d="M 537.6,224c0,70.656 -25.002,130.986 -75.008,180.992s-110.336,75.008 -180.992,75.008s-130.986-25.002 -180.992-75.008s-75.008-110.336 -75.008-180.992s 25.002-130.986 75.008-180.992s 110.336-75.008 180.992-75.008s 130.986,25.002 180.992,75.008s 75.008,110.336 75.008,180.992zM 278.016-2.816
c-8.534,0 -15.787,2.986 -21.761,8.96s-8.96,13.398 -8.96,22.272l0,139.264 c0,8.534 2.986,15.787 8.96,21.761s 13.227,8.96 21.761,8.96l 6.656,0 c 8.874,0 16.298-2.986 22.272-8.96s 8.96-13.227 8.96-21.761l0-139.264 c0-8.874 -2.986-16.298 -8.96-22.272
s-13.398-8.96 -22.272-8.96l-6.656,0 zM 86.016,189.696c-8.874,0 -16.298,2.986 -22.272,8.96s-8.96,13.398 -8.96,22.272l0,6.144 c0,8.874 2.986,16.298 8.96,22.272s 13.398,8.96 22.272,8.96l 139.264,0 c 8.534,0 15.787-2.986 21.761-8.96s 8.96-13.398 8.96-22.272l0-6.144 
c0-8.874 -2.986-16.298 -8.96-22.272s-13.227-8.96 -21.761-8.96l-139.264,0 zM 337.92,189.696c-8.534,0 -15.787,2.986 -21.761,8.96s-8.96,13.398 -8.96,22.272l0,6.144 c0,8.874 2.986,16.298 8.96,22.272s 13.227,8.96 21.761,8.96l 139.264,0 c 8.874,0 16.298-2.986 22.272-8.96
s 8.96-13.398 8.96-22.272l0-6.144 c0-8.874 -2.986-16.298 -8.96-22.272s-13.398-8.96 -22.272-8.96l-139.264,0 zM 278.016,249.6c-8.534,0 -15.787,2.986 -21.761,8.96s-8.96,13.227 -8.96,21.761l0,139.264 c0,8.874 2.986,16.298 8.96,22.272s 13.227,8.96 21.761,8.96l 6.656,0 
c 8.874,0 16.298-2.986 22.272-8.96s 8.96-13.398 8.96-22.272l0-139.264 c0-8.534 -2.986-15.787 -8.96-21.761s-13.398-8.96 -22.272-8.96l-6.656,0 z" horiz-adv-x="563.2"  />
<glyph unicode="&#x6e;" d="M 537.6,224c0,70.656 -25.002,130.986 -75.008,180.992s-110.336,75.008 -180.992,75.008s-130.986-25.002 -180.992-75.008s-75.008-110.336 -75.008-180.992s 25.002-130.986 75.008-180.992s 110.336-75.008 180.992-75.008s 130.986,25.002 180.992,75.008s 75.008,110.336 75.008,180.992zM 253.952-16.128
l-16.896,141.312l 44.544,87.552l 44.544-87.552l-16.896-141.312l-55.296,0 zM 41.472,196.352l0,55.296 l 141.312,16.896l 87.552-44.544l-87.552-44.544zM 292.864,224l 87.552,44.544l 141.312-16.896l0-55.296 l-141.312-16.896zM 237.056,322.816l 16.896,141.312l 55.296,0 l 16.896-141.312l-44.544-87.552z" horiz-adv-x="563.2"  />
<glyph unicode="&#x6f;" d="M 462.848,405.248c-24.576,24.234 -52.566,42.751 -83.969,55.551s-63.829,19.2 -97.279,19.2c-33.792,0 -66.218-6.23 -97.28-18.688s-58.88-31.061 -83.456-55.807s-43.264-52.821 -56.064-84.223s-19.2-63.829 -19.2-97.279c0-33.792 6.23-66.218 18.688-97.28
s 31.146-59.051 56.064-83.969s 52.822-43.606 83.712-56.064s 63.402-18.688 97.536-18.688c 33.45,0 65.792,6.23 97.024,18.688s 59.306,31.146 84.224,56.064s 43.606,52.822 56.064,83.712s 18.688,63.402 18.688,97.536c0,33.45 -6.23,65.792 -18.688,97.024
s-31.146,59.306 -56.064,84.224zM 254.975-6.401l-16.384,135.68l 25.6,49.152c-6.826,2.73 -12.458,6.485 -16.896,11.263c-4.778,4.438 -8.362,9.728 -10.752,15.872l-49.664-24.576l-135.68,16.384l0,53.248 l 135.68,15.872l 49.152-25.088c 2.73,6.826 6.485,12.458 11.263,16.896c 4.438,4.778 9.728,8.362 15.872,10.752l-24.576,49.664
l 16.384,135.68l 53.248,0 l 15.872-135.68l-25.088-49.152c 6.826-2.73 12.458-6.485 16.896-11.263c 4.778-4.438 8.362-9.728 10.752-15.872l 49.664,24.064l 135.68-15.872l0-53.248 l-135.68-16.384l-49.152,25.6c-2.73-6.826 -6.485-12.458 -11.263-16.896c-4.438-4.778 -9.728-8.362 -15.872-10.752l 24.064-49.664l-15.872-135.68l-53.248,0 z" horiz-adv-x="563.2"  />
<glyph unicode="&#x70;" d="M 537.6,224c0,70.656 -25.002,130.986 -75.008,180.992s-110.336,75.008 -180.992,75.008s-130.986-25.002 -180.992-75.008s-75.008-110.336 -75.008-180.992s 25.002-130.986 75.008-180.992s 110.336-75.008 180.992-75.008s 130.986,25.002 180.992,75.008s 75.008,110.336 75.008,180.992zM 278.016-2.816
c-8.534,0 -15.787,2.986 -21.761,8.96s-8.96,13.398 -8.96,22.272l0,139.264 c0,8.534 2.986,15.787 8.96,21.761s 13.227,8.96 21.761,8.96l 6.656,0 c 8.874,0 16.298-2.986 22.272-8.96s 8.96-13.227 8.96-21.761l0-139.264 c0-8.874 -2.986-16.298 -8.96-22.272
s-13.398-8.96 -22.272-8.96l-6.656,0 zM 137.216,79.616c-10.922,10.922 -16.383,24.235 -16.383,39.937c0,15.36 5.462,28.842 16.384,40.448c 11.606,10.922 24.918,16.384 39.936,16.384c 15.36,0 28.842-5.462 40.448-16.384c 5.462-5.462 9.558-11.691 12.288-18.689s 4.096-14.251 4.096-21.761
c0-16.042 -5.546-29.525 -16.64-40.447s-24.491-16.384 -40.193-16.384s-29.014,5.632 -39.936,16.896zM 345.601,79.617c-10.922,10.922 -16.384,24.235 -16.384,39.937c0,15.36 5.462,28.842 16.384,40.448c 11.606,10.922 25.088,16.384 40.448,16.384c 15.702,0 29.014-5.462 39.936-16.384
c 5.462-5.462 9.558-11.691 12.288-18.689s 4.096-14.251 4.096-21.761c0-16.042 -5.546-29.525 -16.64-40.447s-24.32-16.384 -39.68-16.384c-15.702,0 -29.184,5.632 -40.448,16.896zM 86.017,189.697c-8.874,0 -16.298,2.986 -22.272,8.96s-8.96,13.398 -8.96,22.272l0,6.144 
c0,8.874 2.986,16.298 8.96,22.272s 13.398,8.96 22.272,8.96l 139.264,0 c 8.534,0 15.787-2.986 21.761-8.96s 8.96-13.398 8.96-22.272l0-6.144 c0-8.874 -2.986-16.298 -8.96-22.272s-13.227-8.96 -21.761-8.96l-139.264,0 zM 337.921,189.697c-8.534,0 -15.787,2.986 -21.761,8.96
s-8.96,13.398 -8.96,22.272l0,6.144 c0,8.874 2.986,16.298 8.96,22.272s 13.227,8.96 21.761,8.96l 139.264,0 c 8.874,0 16.298-2.986 22.272-8.96s 8.96-13.398 8.96-22.272l0-6.144 c0-8.874 -2.986-16.298 -8.96-22.272s-13.398-8.96 -22.272-8.96l-139.264,0 zM 278.017,249.601
c-8.534,0 -15.787,2.986 -21.761,8.96s-8.96,13.227 -8.96,21.761l0,139.264 c0,8.874 2.986,16.298 8.96,22.272s 13.227,8.96 21.761,8.96l 6.656,0 c 8.874,0 16.298-2.986 22.272-8.96s 8.96-13.398 8.96-22.272l0-139.264 c0-8.534 -2.986-15.787 -8.96-21.761
s-13.398-8.96 -22.272-8.96l-6.656,0 zM 137.217,288.001c-10.922,10.922 -16.384,24.234 -16.384,39.935c0,15.36 5.462,28.842 16.384,40.448c 11.606,10.922 24.918,16.384 39.936,16.384c 15.36,0 28.672-5.462 39.936-16.384s 16.896-24.405 16.896-40.447s-5.632-29.44 -16.896-40.192s-24.576-16.128 -39.936-16.128
c-15.702,0 -29.014,5.462 -39.936,16.384zM 345.601,288.001c-10.922,10.922 -16.384,24.234 -16.384,39.935c0,15.36 5.462,28.842 16.384,40.448c 11.606,10.922 25.088,16.384 40.448,16.384c 15.702,0 29.014-5.462 39.936-16.384s 16.384-24.405 16.384-40.447s-5.632-29.44 -16.896-40.192s-24.406-16.128 -39.424-16.128
c-15.36,0 -28.842,5.462 -40.448,16.384z" horiz-adv-x="563.2"  />
<glyph unicode="&#x71;" d="M 537.6,224c0,70.656 -25.002,130.986 -75.008,180.992s-110.336,75.008 -180.992,75.008s-130.986-25.002 -180.992-75.008s-75.008-110.336 -75.008-180.992s 25.002-130.986 75.008-180.992s 110.336-75.008 180.992-75.008s 130.986,25.002 180.992,75.008s 75.008,110.336 75.008,180.992zM 254.464,9.472
c-5.802,0 -11.776,4.266 -17.92,12.8s-10.582,18.944 -13.312,31.232l-20.48,91.648l-91.648,20.48c-12.288,2.73 -22.698,7.168 -31.232,13.312s-12.8,12.118 -12.8,17.92l0,54.272 c0,5.802 4.266,11.776 12.8,17.92s 18.944,10.582 31.232,13.312l 91.648,20.48l 20.48,91.648c 2.73,12.288 7.168,22.698 13.312,31.232s 12.118,12.8 17.92,12.8l 54.272,0 c 5.802,0 11.776-4.266 17.92-12.8
s 10.582-18.944 13.312-31.232l 20.48-91.648l 91.648-20.48c 12.288-2.73 22.698-7.168 31.232-13.312s 12.8-12.118 12.8-17.92l0-54.272 c0-5.802 -4.266-11.776 -12.8-17.92s-18.944-10.582 -31.232-13.312l-91.648-20.48l-20.48-91.648c-2.73-12.288 -7.168-22.698 -13.312-31.232s-12.118-12.8 -17.92-12.8l-54.272,0 zM 368.128,224
c0,23.894 -8.448,44.288 -25.344,61.184s-37.29,25.344 -61.184,25.344s-44.288-8.448 -61.184-25.344s-25.344-37.29 -25.344-61.184s 8.448-44.288 25.344-61.184s 37.29-25.344 61.184-25.344s 44.288,8.448 61.184,25.344s 25.344,37.29 25.344,61.184z" horiz-adv-x="563.2"  />
<glyph unicode="&#x7a;" d="M 537.6,224c0,70.656 -25.002,130.986 -75.008,180.992s-110.336,75.008 -180.992,75.008s-130.986-25.002 -180.992-75.008s-75.008-110.336 -75.008-180.992s 25.002-130.986 75.008-180.992s 110.336-75.008 180.992-75.008s 130.986,25.002 180.992,75.008s 75.008,110.336 75.008,180.992zM 251.904,6.4l0,146.432 
l-103.424-103.936l-41.984,41.984l 103.936,103.424l-146.432,0 l0,59.392 l 146.432,0 l-103.936,103.424l 41.984,41.984l 103.424-103.936l0,146.432 l 59.392,0 l0-146.432 l 103.424,103.936l 41.984-41.984l-103.936-103.424l 146.432,0 l0-59.392 l-146.432,0 l 103.936-103.424l-41.984-41.984l-103.424,103.936l0-146.432 l-59.392,0 z" horiz-adv-x="563.2"  />
<glyph unicode="&#x20;" horiz-adv-x="256" />
</font>
</defs>
</svg>
