<?xml version="1.0" standalone="no"?>
<!DOCTYPE svg PUBLIC "-//W3C//DTD SVG 1.1//EN" "http://www.w3.org/Graphics/SVG/1.1/DTD/svg11.dtd" >
<svg xmlns="http://www.w3.org/2000/svg">
<metadata>
This is a custom SVG font generated by IcoMoon.
<iconset id="v39" name="v39" grid="16"></iconset>
</metadata>
<defs>
<font id="v39" horiz-adv-x="512" >
<font-face units-per-em="512" ascent="480" descent="-32" />
<missing-glyph horiz-adv-x="512" />
<glyph class="hidden" unicode="&#xf000;" d="M0,480L 512 -32L0 -32 z" horiz-adv-x="0" />
<glyph unicode="&#xf029;" d="M 448,96l-160,0 l0-64 l 64,0 q 13,0 22.5-9.5t 9.5-22.75t-9.5-22.5t-22.5-9.25l-192,0 q-13.5,0 -22.75,9.25t-9.25,22.5t 9.5,22.75t 22.5,9.5l 64,0 l0,64 l-160,0 q-26.5,0 -45.25,18.75t-18.75,45.25l0,192 q0,13 9.5,22.5t 22.5,9.5l 240,0 l 23,42q 3.5,9.5 14,15.75t 22,6.25l 120,0 q 12,0 22.5-6.25t 14-15.75l 24.5-42l0-224 
q0-26.5 -18.75-45.25t-45.25-18.75zM 221,243l-67.5,72.5q-4,4.5 -9.5,4.5t-9.5-4.5l-67.5-72.5q-4-4.5 -2.5-11.75t 5.5-7.25l 26,0 l0-48 q0-6.5 4.75-11.25t 11.25-4.75l 64,0 q 6.5,0 11.25,4.75t 4.75,11.25l0,48 l 26,0 q 4,0 5.5,7.25t-2.5,11.75zM 442,256l-26,0 l0,48 q0,6.5 -4.75,11.25t-11.25,4.75l-64,0 q-6.5,0 -11.25-4.75
t-4.75-11.25l0-48 l-26,0 q-4,0 -5.5-7.25t 2.5-11.75l 67.5-72.5q 4-4.5 9.5-4.5t 9.5,4.5l 67.5,72.5q 4,4.5 2.5,11.75t-5.5,7.25zM 23,458q 3.5,9.5 14,15.75t 22,6.25l 120,0 q 12,0 22.5-6.25t 14.5-15.75l 24-42l-240,0 z"  />
<glyph unicode="&#xf02a;" d="M 416-32l-320,0 q-26.5,0 -45.25,18.75t-18.75,45.25l0,384 q0,26.5 18.75,45.25t 45.25,18.75l 320,0 q 26.5,0 45.25-18.75t 18.75-45.25l0-384 q0-26.5 -18.75-45.25t-45.25-18.75zM 416,112q0,16 -9.5,28.5t-24.5,17q 34,43.5 34,98.5q0,43.5 -21.5,80.25t-58.25,58.25t-80.25,21.5t-80.25-21.5t-58.25-58.25t-21.5-80.25
q0-55 34-98.5q-15-4.5 -24.5-17t-9.5-28.5l0-32 q0-20 14-34t 34-14l 224,0 q 20,0 34,14t 14,34l0,32 zM 256,192q-26.5,0 -45.25,18.75t-18.75,45.25t 18.75,45.25t 45.25,18.75t 45.25-18.75t 18.75-45.25t-18.75-45.25t-45.25-18.75z"  />
<glyph unicode="&#xf02b;" d="M 502.25,202.25q-9.75-9.75 -23.5-9.75t-23.25,9.5l-7.5,7.5l0-209.5 q0-13 -9.25-22.5t-22.75-9.5l-320,0 q-13.5,0 -22.75,9.5t-9.25,22.5l0,209.5 l-7.5-7.5q-9.5-9.5 -23.25-9.5t-23.5,9.75t-9.75,23.5t 9.5,23.25l 222,222q 8,8 19.25,9.25t 20.75-4.75q 4,0 9-4.5l 222-222q 9.5-9.5 9.5-23.25t-9.75-23.5z
M 384,273.5l-128,128l-128-128l0-241.5 l 256,0 l0,241.5 z"  />
<glyph unicode="&#xf02c;" d="M 448,96l-352,0 q-26.5,0 -45.25,18.75t-18.75,45.25l0,128 q0,26.5 18.75,45.25t 45.25,18.75l 352,0 q 26.5,0 45.25-18.75t 18.75-45.25l0-128 q0-26.5 -18.75-45.25t-45.25-18.75zM 160,272q0,6.5 -4.75,11.25t-11.25,4.75l-64,0 q-6.5,0 -11.25-4.75t-4.75-11.25l0-96 q0-6.5 4.75-11.25t 11.25-4.75t 11.25,4.75
t 4.75,11.25l0,16 l 32,0 l0-16 q0-6.5 4.75-11.25t 11.25-4.75t 11.25,4.75t 4.75,11.25l0,16 l-16,0 q-6.5,0 -11.25,4.75t-4.75,11.25t 4.75,11.25t 11.25,4.75l 16,0 l0,48 zM 288,272q0,6.5 -4.75,11.25t-11.25,4.75l-64,0 q-6.5,0 -11.25-4.75t-4.75-11.25l0-96 q0-6.5 4.75-11.25t 11.25-4.75t 11.25,4.75t 4.75,11.25l0,16 l 32,0 l0-16 
q0-6.5 4.75-11.25t 11.25-4.75t 11.25,4.75t 4.75,11.25l0,96 zM 480,272q0,6.5 -4.75,11.25t-11.25,4.75l-128,0 q-6.5,0 -11.25-4.75t-4.75-11.25l0-96 q0-6.5 4.75-11.25t 11.25-4.75t 11.25,4.75t 4.75,11.25l0,80 l 32,0 l0-80 q0-6.5 4.75-11.25t 11.25-4.75t 11.25,4.75t 4.75,11.25l0,80 l 32,0 l0-80 q0-6.5 4.75-11.25
t 11.25-4.75t 11.25,4.75t 4.75,11.25l0,96 zM 224,256l 32,0 l0-32 l-32,0 l0,32 zM 96,256l 32,0 l0-32 l-32,0 l0,32 zM 416,464q0,6.5 4.75,11.25t 11.25,4.75t 11.25-4.75t 4.75-11.25l0-80 l-32,0 l0,80 zM 352,464q0,6.5 4.75,11.25t 11.25,4.75t 11.25-4.75t 4.75-11.25l0-80 l-32,0 l0,80 zM 288,464q0,6.5 4.75,11.25t 11.25,4.75t 11.25-4.75
t 4.75-11.25l0-80 l-32,0 l0,80 zM 224,464q0,6.5 4.75,11.25t 11.25,4.75t 11.25-4.75t 4.75-11.25l0-80 l-32,0 l0,80 zM 160,464q0,6.5 4.75,11.25t 11.25,4.75t 11.25-4.75t 4.75-11.25l0-80 l-32,0 l0,80 zM 96,464q0,6.5 4.75,11.25t 11.25,4.75t 11.25-4.75t 4.75-11.25l0-80 l-32,0 l0,80 zM 128-16q0-6.5 -4.75-11.25t-11.25-4.75
t-11.25,4.75t-4.75,11.25l0,80 l 32,0 l0-80 zM 192-16q0-6.5 -4.75-11.25t-11.25-4.75t-11.25,4.75t-4.75,11.25l0,80 l 32,0 l0-80 zM 256-16q0-6.5 -4.75-11.25t-11.25-4.75t-11.25,4.75t-4.75,11.25l0,80 l 32,0 l0-80 zM 320-16q0-6.5 -4.75-11.25t-11.25-4.75t-11.25,4.75t-4.75,11.25l0,80 l 32,0 l0-80 zM 384-16
q0-6.5 -4.75-11.25t-11.25-4.75t-11.25,4.75t-4.75,11.25l0,80 l 32,0 l0-80 zM 448-16q0-6.5 -4.75-11.25t-11.25-4.75t-11.25,4.75t-4.75,11.25l0,80 l 32,0 l0-80 z"  />
<glyph unicode="&#xf02d;" d="M 256-32q-38,19 -69.25,38t-55.75,40.25t-43.25,39t-32.5,43t-23.25,43t-15.5,48.5t-9.5,49.5t-5,55.75t-1.75,58t-0.25,65q 122,32 256,32q 133.5,0 256-32q0-44 -0.25-65.25t-1.75-58t-5-55.75t-9.5-49.5t-15.5-48.25t-23.25-43t-32.5-43t-43.25-39t-55.75-40.25t-69.25-38zM 64,393
q0-44.5 0.5-65.75t 4-56.25t 10.75-53.5t 20.75-45t 34-44.75t 51-39.25t 71-40.5q 40.5,19.5 71,40.5t 51,39.25t 34,44.75t 20.75,45t 10.75,53.5t 4,56.25t 0.5,65.75q-91.5,23 -192,23t-192-23z"  />
<glyph unicode="&#xf02e;" d="M 256-32q-42,21 -76,44.5t-59.5,45t-44.75,51t-32,51.25t-21.25,57.25t-13,58.25t-6.75,65.25t-2.5,66.5t-0.25,73q0-13 37.5-22.5t 90.5-9.5t 90.5,9.5t 37.5,22.5q0-13 37.5-22.5t 90.5-9.5t 90.5,9.5t 37.5,22.5q0-49 -0.25-73t-2.5-66.5t-6.75-65.25t-13-58.25t-21.25-57.25t-32-51.25t-44.75-51
t-59.5-45t-76-44.5zM 256,416l0,0 q0-13 -28.25-22.5t-67.75-9.5q-27,0 -53.5,4.5t-42.5,12q0-39.5 1-63.5t 4.75-57.25t 11.25-54.75t 21.5-48.5t 34.25-47t 50.25-41.5t 69-40l0,368 l0,0 zM 256,480l0,0 l0,0 z"  />
<glyph unicode="&#xf02f;" d="M 512,0.25q0-13.25 -9.5-22.75t-22.5-9.5l-448,0 q-13.5,0 -22.75,9.25t-9.25,22.75t 9.25,22.75t 22.75,9.25l0,160 q0,13.5 9.25,22.75t 22.75,9.25l 64,0 q 13,0 22.5-9.25t 9.5-22.75l0-160 l 32,0 l0,416 q0,13.5 9.25,22.75t 22.75,9.25l 64,0 q 13.5,0 22.75-9.25t 9.25-22.75l0-416 l 32,0 l0,288 q0,13.5 9.5,22.75t 22.5,9.25l 64,0 
q 13.5,0 22.75-9.25t 9.25-22.75l0-288 q 13.5,0 22.75-9.25t 9.25-22.5z"  />
<glyph unicode="&#xf030;" d="M 507-3l-23.5-24q-5-4.5 -12-4.5t-12,4.5l-75.5,76q-30-17 -64-17q-53,0 -90.5,37.5t-37.5,90.5t 37.5,90.5t 90.5,37.5t 90.5-37.5t 37.5-90.5q0-34 -17-63.5l 76-76q 5-5 5-11.75t-5-11.75zM 320.25,256q-39.75,0 -68-28t-28.25-67.75t 28.25-68t 68-28.25t 67.75,28.25t 28,68
t-28,67.75t-67.75,28zM 352,317l0,3 q0,13.5 9.5,22.75t 22.5,9.25l 64,0 q 13.5,0 23-9.25t 9.5-22.75l0-160 l-0.5,0 q0,57.5 -36.25,101.75t-91.75,55.25zM 192,256l0,128 q0,13.5 9.5,22.75t 22.5,9.25l 64,0 q 13.5,0 22.75-9.25t 9.25-22.75l0-64 q-38.5,0 -72-17.25t-56-46.75zM 192,64.5q 22.5-30 56-47.25t 72-17.25
l 32,0 q0-13 -9.25-22.5t-22.75-9.5l-288,0 q-13,0 -22.5,9.5t-9.5,22.75t 9.25,22.5t 22.75,9.25l0,416.5 q0,13 9.5,22.5t 22.5,9.5l 64,0 q 13.5,0 22.75-9.5t 9.25-22.5l0-288 l0-0.5 l0-128 l 32,0 l0,32.5 z"  />
<glyph unicode="&#xf031;" d="M 416,64q-21,0 -41,9.5q-52.5-41.5 -119-41.5q-19.5,0 -39,4q-37.5-36 -89-36q-53,0 -90.5,37.5t-37.5,90.5q0,35 17.5,64.75t 47.5,46.25q 3.5,49 29.75,89.5t 69,64t 92.25,23.5q 72,0 126-47.5t 64-117.5q 29-10 47.5-34.75t 18.5-56.25q0-40 -28-68t-68-28zM 256,384q-58.5,0 -102.75-37.5
t-54.75-94q 15,3.5 29.5,3.5q 53,0 90.5-37.5t 37.5-90.5q0-33.5 -16.5-63q 8.5-1 16.5-1q 50.5,0 91.5,29q-27.5,28 -27.5,67t 27,66.75t 66,28.75q-11.5,55.5 -55.5,92t-101.5,36.5zM 272,256q-20,0 -34,14t-14,34t 14,34t 34,14t 34-14t 14-34t-14-34t-34-14z"  />
<glyph unicode="&#xf032;" d="M 503,139.5l-162.5-162.5q-9-9 -22.25-9t-22.25,9l-287,287q-9,9 -9,39.5l0,144 q0,13.5 9.5,22.75t 22.5,9.25l 144,0 q 31,0 40-9l 287-286.5q 9-9.5 9-22.5t-9-22zM 128,416q-26.5,0 -45.25-18.75t-18.75-45.25t 18.75-45.25t 45.25-18.75t 45.25,18.75t 18.75,45.25t-18.75,45.25t-45.25,18.75z"  />
<glyph unicode="&#xf033;" d="M 480-32l-256,0 q-13.5,0 -22.75,9.5t-9.25,22.5l0,256 q0,13.5 9.25,22.75t 22.75,9.25l 256,0 q 13.5,0 22.75-9.25t 9.25-22.75l0-256 q0-13.5 -9.25-22.75t-22.75-9.25zM 448,208q0,6.5 -4.75,11.25t-11.25,4.75l-160,0 q-6.5,0 -11.25-4.75t-4.75-11.25l0-160 q0-6.5 4.75-11.25t 11.25-4.75l 160,0 q 6.5,0 11.25,4.75
t 4.75,11.25l0,160 zM 480,320l-256,0 q-13.5,0 -22.75,9.5t-9.25,22.5l0,96 q0,13 9.25,22.5t 22.75,9.5l 256,0 q 13.5,0 22.75-9.5t 9.25-22.5l0-96 q0-13.5 -9.25-22.75t-22.75-9.25zM 128-32l-96,0 q-13,0 -22.5,9.5t-9.5,22.5l0,448 q0,13 9.5,22.5t 22.5,9.5l 96,0 q 13.5,0 22.75-9.5t 9.25-22.5l0-448 q0-13.5 -9.25-22.75t-22.75-9.25z
"  />
<glyph unicode="&#xf034;" d="M 512,352q-1.5-52 -38.75-90t-89.25-38q-14.5,0 -30,4q 4-15.5 16.75-25.75t 29.25-10.25l 48-48l 41-42.5q 23-23 23-55.25t-23-55t-55.25-22.75t-55.25,22.5l-42.5,41l-48,48q0,20 -14,34t-34,14l-3.5,3.5l0,0.5 l-123.5-159.5q-5-4.5 -43.25-4.5t-42.75,4.5l-22.5,22q-4.5,5 -4.5,43.25t 4.5,43.25
l 210,162.5l-108,108.5l-58.5,0 l-48,96l 32,32l 96-48l0-58 l 111-111.5l 33,25.5q0,0.5 0.5,0.5l 0.5,0 q-17,30 -17,63.5q0,52 37.75,89.5t 90.25,38.5l0,0 l0-19 l-41-39q-23-23 -23-55.25t 23-55.25t 55.5-23t 55.5,23l 38.5,40.5l 19.5,0 l0,0 zM 64,64q-13.5,0 -22.75-9.25t-9.25-22.5t 9.25-22.75t 22.75-9.5t 22.75,9.5
t 9.25,22.75t-9.25,22.5t-22.75,9.25z"  />
<glyph unicode="&#xf035;" d="M 484.5,416l-38,0 l-61-297.5q-2.5-9.5 -10.75-16t-17.25-6.5l-273.5,0 q-9.5,0 -17.75,6.5t-10.75,16l-49,188.5q-5,18 1.5,31.5t 20,13.5l 354.5,61.5l 9,44.5q 2.5,9 10.75,15.5t 17.25,6.5l 65,0 q 13.5,0 22.75-9.25t 9.25-22.5t-9.5-22.75t-22.5-9.5zM 148.5,64q 20,0 34-14t 14-34t-14-34t-34-14t-34,14t-14,34t 14,34
t 34,14zM 308.5,64q 20,0 34-14t 14-34t-14-34t-34-14t-34,14t-14,34t 14,34t 34,14z"  />
<glyph unicode="&#xf036;" d="M 448,96l0,64 q0,7 -4.75,11.5t-11.25,4.5l-47,0 q-4.5,8.5 -10,16.5l 23,40q 3,5.5 1.5,12t-7.5,10l-82,48q-6,3 -12.25,1.25t-9.75-7.25l-23-41q-1,0 -4,0.25t-4.75,0.25t-5-0.25t-4.25-0.25l-23,41q-3.5,5.5 -9.75,7.25t-12.25-1.25l-82-48q-6-3.5 -7.5-10t 1.5-12l 23-40q-5.5-8 -9.5-16.5l-47.5,0 
q-6.5,0 -11.25-4.5t-4.75-11.5l0-64 q-26.5,0 -45.25,18.75t-18.75,45.25l0,192 q0,13.5 9.25,22.75t 22.75,9.25l 240,0 l 23,42.5q 3.5,9 14,15.25t 22,6.25l 120,0 q 12,0 22.5-6.25t 14-15.25l 24.5-42.5l0-224 q0-26.5 -18.75-45.25t-45.25-18.75zM 23,458.5q 3.5,9 14,15.25t 22,6.25l 120,0 q 12,0 22.5-6.25t 14.5-15.25l 24-42.5l-240,0 
zM 112,144l 54,0 q 6,17.5 19,32l-23,41.5q-3.5,5.5 -1.75,11.75t 7.25,9.75l 26,15.5q 5.5,3 11.5,1.25t 9-7.25l 24-42q 10,1.5 18,1.5q 8.5,0 18-1.5l 24,42q 3,5.5 9,7.25t 11.5-1.25l 26.5-15.5q 5-3.5 6.75-9.75t-1.25-11.75l-23.5-41.5q 13-14.5 19-32l 54,0 q 6.5,0 11.25-4.5t 4.75-11.5l0-32 q0-6.5 -4.75-11.25t-11.25-4.75
l-54,0 q-6-17 -19-31.5l 23.5-41.5q 3-6 1.25-12t-6.75-9.5l-26.5-15.5q-5.5-3 -11.5-1.5t-9,7.5l-24,42q-9.5-2 -17.75-2t-18.25,2l-24-42q-3-6 -9-7.5t-11.5,1.5l-26,15.5q-5.5,3.5 -7.25,9.5t 1.75,12l 23,41.5q-13,14.5 -19,31.5l-54,0 q-6.5,0 -11.25,4.75t-4.75,11.25l0,32 q0,7 4.75,11.5t 11.25,4.5zM 256.25,80
q 13.25,0 22.5,9.5t 9.25,22.75t-9.25,22.5t-22.5,9.25t-22.75-9.25t-9.5-22.5t 9.5-22.75t 22.75-9.5z"  />
<glyph unicode="&#xf037;" d="M 448,160q 26.5,0 45.25-18.75t 18.75-45.25l0-64 q0-26.5 -18.75-45.25t-45.25-18.75l-384,0 q-26.5,0 -45.25,18.75t-18.75,45.25l0,64 q0,26.5 18.75,45.25t 45.25,18.75l 160,0 l0,64 l-160,0 q-26.5,0 -45.25,18.75t-18.75,45.25l0,64 q0,26.5 18.75,45.25t 45.25,18.75l 160,0 l0,32 q0,13.5 9.25,22.75t 22.5,9.25t 22.75-9.25
t 9.5-22.75l0-32 l 160,0 q 26.5,0 45.25-18.75t 18.75-45.25l0-64 q0-26.5 -18.75-45.25t-45.25-18.75l-160,0 l0-64 l 160,0 zM 95.75,96q-13.25,0 -22.5-9.5t-9.25-22.75t 9.25-22.5t 22.5-9.25t 22.75,9.25t 9.5,22.5t-9.5,22.75t-22.75,9.5zM 95.75,352q-13.25,0 -22.5-9.5t-9.25-22.75t 9.25-22.5t 22.5-9.25t 22.75,9.25
t 9.5,22.5t-9.5,22.75t-22.75,9.5zM 416,288q 13,0 22.5,9.25t 9.5,22.5t-9.5,22.75t-22.5,9.5l-192,0 q-13.5,0 -22.75-9.5t-9.25-22.75t 9.25-22.5t 22.75-9.25l 192,0 zM 224,96q-13.5,0 -22.75-9.5t-9.25-22.75t 9.25-22.5t 22.75-9.25l 192,0 q 13,0 22.5,9.25t 9.5,22.5t-9.5,22.75t-22.5,9.5l-192,0 z"  />
<glyph unicode="&#xf038;" d="M 448-32l-384,0 q-26.5,0 -45.25,18.75t-18.75,45.25t 18.75,45.25t 45.25,18.75l 384,0 q 26.5,0 45.25-18.75t 18.75-45.25t-18.75-45.25t-45.25-18.75zM 95.75,64q-13.25,0 -22.5-9.5t-9.25-22.75t 9.25-22.5t 22.5-9.25t 22.75,9.25t 9.5,22.5t-9.5,22.75t-22.75,9.5zM 416,64l-192,0 q-13.5,0 -22.75-9.5t-9.25-22.75
t 9.25-22.5t 22.75-9.25l 192,0 q 13,0 22.5,9.25t 9.5,22.5t-9.5,22.75t-22.5,9.5zM 400,256l-20,0 q-4.5-17.5 -14.5-34l 9.5-9.5q 9-9 9-21.75t-9-21.75t-21.75-9t-21.75,9l-9.5,10q-16.5-10 -34-14.5l0-20.5 q0-13.5 -9.25-22.75t-22.5-9.25t-22.75,9.25t-9.5,22.75l0,20.5 q-17.5,4.5 -34,14.5l-10-10
q-9-9 -21.75-9t-21.75,9t-9,21.75t 9,21.75l 10,10q-10,16 -14.5,33.5l-20,0 q-13.5,0 -22.75,9.25t-9.25,22.5t 9.25,22.75t 22.75,9.5l 20,0 q 4.5,17.5 14.5,34l-10,10q-9,9 -9,21.75t 9,21.75t 21.75,9t 21.75-9l 10-10.5q 16.5,10 34,14.5l0,20.5 q0,13 9.25,22.5t 22.5,9.5t 22.75-9.5t 9.5-22.5l0-20.5 q 17.5-4.5 33.5-14l 10,10
q 9,9 21.75,9t 21.75-9t 9-21.75t-9-21.75l-10-9.5q 10.5-17 15-34.5l 20,0 q 13.5,0 22.75-9.5t 9.25-22.75t-9.5-22.5t-22.5-9.25zM 256,352q-26.5,0 -45.25-18.75t-18.75-45.25t 18.75-45.25t 45.25-18.75t 45.25,18.75t 18.75,45.25t-18.75,45.25t-45.25,18.75z"  />
<glyph unicode="&#xf039;" d="M 162,255q 27.5-15.5 78-38.25t 93.25-44t 70.25-41.25q 79.5-58.5 108.5-99.5l-64-64q-32,64 -69,108q-93-76.5 -197-19q-38.5,21 -67.5,45.75t-48.25,47t-32.25,56t-19.75,57.25t-10,67.25t-3.75,69.75t-0.5,80q 23-25.5 54.5-40.5t 64-20.25t 67.75-8t 69.5-8t 65.75-16t 60-36.25
t 49-64.5q 17.5-34.5 17.5-78.5q0-28.5 -9.5-54q-40,24 -105.25,56t-120.5,60t-84.75,50q-27,20 -54,55.5q-7.5,9.5 -9,6q-1-3.5 -1-29.5q0-15.5 25.5-39.5t 72.5-57.5z"  />
<glyph unicode="&#xf03a;" d="M 448-32l-384,0 q-26.5,0 -45.25,18.75t-18.75,45.25t 18.75,45.25t 45.25,18.75l 160,0 l0,19 q-42,8 -69,34t-27,59l0,0 q0,13 9.25,22.5t 22.5,9.5t 22.75-9.5t 9.5-22.5t 8.75-24t 23.25-17.5l0,92.5 q-42,8 -69,34t-27,59t 27,59t 69,34l0,3 q0,13 9.25,22.5t 22.5,9.5t 22.75-9.5t 9.5-22.5l0-3 q 42-8 69-34t 27-59l0,0 
l0,0 q0-13.5 -9.5-22.75t-22.75-9.25t-22.5,9.5t-9.25,22.5t-8.75,24t-23.25,17.5l0-92.5 q 42-8 69-34t 27-59t-27-59t-69-34l0-19 l 160,0 q 26.5,0 45.25-18.75t 18.75-45.25t-18.75-45.25t-45.25-18.75zM 224,393.5q-14.5-6.5 -23.25-17.5t-8.75-24t 8.75-24t 23.25-17.5l0,83 zM 95.75,64
q-13.25,0 -22.5-9.5t-9.25-22.75t 9.25-22.5t 22.5-9.25t 22.75,9.25t 9.5,22.5t-9.5,22.75t-22.75,9.5zM 320,208q0,13 -8.75,24t-23.25,17.5l0-83 q 14.5,6.5 23.25,17.5t 8.75,24zM 416,64l-192,0 q-13.5,0 -22.75-9.5t-9.25-22.75t 9.25-22.5t 22.75-9.25l 192,0 q 13,0 22.5,9.25t 9.5,22.5t-9.5,22.75t-22.5,9.5z"  />
<glyph unicode="&#xf03b;" d="M 352-32q-43.5,0 -80.5,17.25t-58.25,46.75t-21.25,64.25t 21.25,64.25t 58.25,46.5t 80.5,17q 18,0 36.5-3.5q 10.5,17 25.25,34t 24.75,25l 9.5,8.5l0-89.5 q 29.5-18 46.75-44.75t 17.25-57.75q0-34.5 -21.5-64t-58.25-46.75t-80.25-17.25zM 336,256q-66.5,0 -107-26t-57.5-69.5q-22,2 -44,9
q-10.5-18.5 -26.5-37t-26.5-27.5l-10.5-9l0,104.5 q-30,22.5 -47,53.5t-17,66q0,43.5 25.75,80.25t 70,58.25t 96.5,21.5t 96.5-21.5t 69.75-58.25t 25.5-80.25q0-34 -16-64.5q-15,0.5 -32,0.5z"  />
<glyph unicode="&#xf03c;" d="M 502.5-22q-9.5-9.5 -22.5-10t-22,8.5l-321,321.5q-9,9 -8.5,22t 10,22.5t 22.5,10t 22-8.5l 321-321.5q 9-9 8.5-22t-10-22.5zM 472.5,352.5l-40,23l-39.5-23l 8.5,46.5l-33,32.5l 45,6l 19,43l 19.5-43l 45-6l-33-32.5zM 73.5,361l-64.5,65q-9,9 -8.5,22t 10,22.5t 22.5,10t 22-8.5l 64.5-65q 9-9 8.5-22
t-10-22.5t-22.5-10t-22,8.5zM 61,245.5l 19.5,43l 19-43l 45-6l-33-32.5l 8.5-47l-39.5,23l-40-23l 8.5,47l-32.5,32.5zM 189,53l 19.5,43l 19-43l 45-5.5l-33-33l 8.5-46.5l-39.5,23l-39.5-23l 8.5,46.5l-33,33z"  />
<glyph unicode="&#xf03d;" d="M 416-32l0,32 l-320,0 l0-32 l-96,0 l0,480 l 96,0 l0-32 l 320,0 l0,32 l 96,0 l0-480 l-96,0 zM 64,416l-32,0 l0-32 l 32,0 l0,32 zM 64,352l-32,0 l0-32 l 32,0 l0,32 zM 64,288l-32,0 l0-32 l 32,0 l0,32 zM 64,224l-32,0 l0-32 l 32,0 l0,32 zM 64,160l-32,0 l0-32 l 32,0 l0,32 zM 64,96l-32,0 l0-32 l 32,0 l0,32 zM 64,32l-32,0 l0-32 l 32,0 l0,32 zM 416,384l-320,0 l0-352 l 320,0 l0,352 z
M 480,416l-32,0 l0-32 l 32,0 l0,32 zM 480,352l-32,0 l0-32 l 32,0 l0,32 zM 480,288l-32,0 l0-32 l 32,0 l0,32 zM 480,224l-32,0 l0-32 l 32,0 l0,32 zM 480,160l-32,0 l0-32 l 32,0 l0,32 zM 480,96l-32,0 l0-32 l 32,0 l0,32 zM 480,32l-32,0 l0-32 l 32,0 l0,32 zM 192,128l0,160 l 128-80z"  />
<glyph unicode="&#xf03e;" d="M 480-32l-448,0 q-13,0 -22.5,9.5t-9.5,22.5l0,160 q0,13.5 9.5,22.75t 22.5,9.25l 448,0 q 13,0 22.5-9.25t 9.5-22.75l0-160 q0-13 -9.5-22.5t-22.5-9.5zM 480,144q0,6.5 -4.75,11.25t-11.25,4.75l-416,0 q-6.5,0 -11.25-4.75t-4.75-11.25l0-128 q0-6.5 4.75-11.25t 11.25-4.75l 416,0 q 6.5,0 11.25,4.75t 4.75,11.25l0,128 zM 384,32
q-13.5,0 -22.75,9.5t-9.25,22.75t 9.25,22.5t 22.75,9.25t 22.75-9.25t 9.25-22.5t-9.25-22.75t-22.75-9.5zM 288.25,32q-13.25,0 -22.75,9.5t-9.5,22.75t 9.5,22.5t 22.75,9.25t 22.5-9.25t 9.25-22.5t-9.25-22.75t-22.5-9.5zM 192,32q-13.5,0 -22.75,9.5t-9.25,22.75t 9.25,22.5t 22.75,9.25t 22.75-9.25t 9.25-22.5
t-9.25-22.75t-22.75-9.5zM 96,32q-13.5,0 -22.75,9.5t-9.25,22.75t 9.25,22.5t 22.75,9.25t 22.75-9.25t 9.25-22.5t-9.25-22.75t-22.75-9.5zM 480,256l-448,0 q-13,0 -22.5,9.5t-9.5,22.5l0,160 q0,13.5 9.5,22.75t 22.5,9.25l 448,0 q 13,0 22.5-9.25t 9.5-22.75l0-160 q0-13 -9.5-22.5t-22.5-9.5zM 480,432q0,6.5 -4.75,11.25
t-11.25,4.75l-416,0 q-6.5,0 -11.25-4.75t-4.75-11.25l0-128 q0-6.5 4.75-11.25t 11.25-4.75l 416,0 q 6.5,0 11.25,4.75t 4.75,11.25l0,128 zM 80,320q-6.5,0 -11.25,4.75t-4.75,11.25l0,64 q0,6.5 4.75,11.25t 11.25,4.75t 11.25-4.75t 4.75-11.25l0-64 q0-6.5 -4.75-11.25t-11.25-4.75z"  />
<glyph unicode="&#xf03f;" d="M 448-33l-352,0 q-26.5,0 -45.25,18.75t-18.75,45.25l0,320 q0,26.5 18.75,45.25t 45.25,18.75l 352,0 q 26.5,0 45.25-18.75t 18.75-45.25l0-320 q0-26.5 -18.75-45.25t-45.25-18.75zM 480,95l0,32 l0,96 l0,32 l0,64 q0,13 -9.25,22.5t-22.75,9.5l-352,0 q-13.5,0 -22.75-9.5t-9.25-22.5l0-64 l0-32 l0-96 l0-32 l0-32 q0-13 9.25-22.5
t 22.75-9.5l 352,0 q 13.5,0 22.75,9.5t 9.25,22.5l0,32 zM 432,63l-32,0 q-6.5,0 -11.25,4.75t-4.75,11.25l0,16 l 64,0 l0-16 q0-6.5 -4.75-11.25t-11.25-4.75zM 384,223l 64,0 l0-96 l-64,0 l0,96 zM 384,303q0,6.5 4.75,11.25t 11.25,4.75l 32,0 q 6.5,0 11.25-4.75t 4.75-11.25l0-48 l-64,0 l0,48 zM 288,127l0,96 l 64,0 l0-96 l-64,0 zM 288,303
q0,6.5 4.75,11.25t 11.25,4.75l 32,0 q 7,0 11.5-4.75t 4.5-11.25l0-48 l-64,0 l0,48 zM 192,127l0,96 l 64,0 l0-96 l-64,0 zM 192,303q0,6.5 4.5,11.25t 11.5,4.75l 32,0 q 6.5,0 11.25-4.75t 4.75-11.25l0-48 l-64,0 l0,48 zM 96,127l0,96 l 64,0 l0-96 l-64,0 zM 96,303q0,6.5 4.75,11.25t 11.25,4.75l 32,0 q 6.5,0 11.25-4.75t 4.75-11.25l0-48 l-64,0 l0,48 z
M 160,79q0-6.5 -4.75-11.25t-11.25-4.75l-32,0 q-6.5,0 -11.25,4.75t-4.75,11.25l0,16 l 64,0 l0-16 zM 256,95l0-16 q0-6.5 -4.75-11.25t-11.25-4.75l-32,0 q-7,0 -11.5,4.75t-4.5,11.25l0,16 l 64,0 zM 352,95l0-16 q0-6.5 -4.5-11.25t-11.5-4.75l-32,0 q-6.5,0 -11.25,4.75t-4.75,11.25l0,16 l 64,0 z"  />
<glyph unicode="&#xf040;" d="M 480,32l-448,0 q-13,0 -22.5,9.5t-9.5,22.5l0,320 q0,13 9.5,22.5t 22.5,9.5l 448,0 q 13,0 22.5-9.5t 9.5-22.5l0-320 q0-13.5 -9.5-22.75t-22.5-9.25zM 176,173l0,8.5 q 48,19 48,106.5q0,31.5 -22.25,47.75t-57.75,16.25t-57.75-16.25t-22.25-47.75q0-85 48-106l0-9 q-35-6 -57.25-22.5t-22.75-37.5q0-6 10.75-9.75
t 31.5-5.25t 34.25-1.75t 35.5-0.25t 35.5,0.25t 34.25,1.75t 31.5,5.25t 10.75,9.75q-0.5,21 -23,37.5t-57,22.5zM 464,352l-128,0 q-6.5,0 -11.25-4.75t-4.75-11.25t 4.75-11.25t 11.25-4.75l 128,0 q 6.5,0 11.25,4.75t 4.75,11.25t-4.75,11.25t-11.25,4.75zM 320,240q0-6.5 4.75-11.25t 11.25-4.75l 64,0 q 6.5,0 11.25,4.75t 4.75,11.25
t-4.75,11.25t-11.25,4.75l-64,0 q-6.5,0 -11.25-4.75t-4.75-11.25zM 464,160l-128,0 q-6.5,0 -11.25-4.75t-4.75-11.25t 4.75-11.25t 11.25-4.75l 128,0 q 6.5,0 11.25,4.75t 4.75,11.25t-4.75,11.25t-11.25,4.75z"  />
<glyph unicode="&#xf041;" d="M 448-32l-384,0 q-26.5,0 -45.25,18.75t-18.75,45.25l0,332 l0,52 q0,26.5 18.75,45.25t 45.25,18.75l 384,0 q 26.5,0 45.25-18.75t 18.75-45.25l0-135.5 l0-248.5 q0-26.5 -18.75-45.25t-45.25-18.75zM 480,392q0,23 -16.5,39.5t-39.5,16.5l-336,0 q-23,0 -39.5-16.5t-16.5-39.5l0-79 l 0.25-0.25l 0.75-0.75q-1-4.5 -1-8q0-20 14-34
t 34-14q 48,0 48,49q-0.5,20 -14.5,33.5q-1.5,8 -1.5,13.5q0,10.5 15.25,21.25t 32.75,10.75q 18,0 33-10.25t 15-21.75q0-6.5 -1-13.5q-15-14 -15-34.5q0-20 14-34t 34-14q 15,0 27,8.25t 17.5,21.75q 19-5 34.5-24.5t 24.5-44.5q-10.5-6.5 -17-17.25t-6.5-23.75q0-20 14-34t 34-14t 34,14t 14,34
q0,13 -6.25,23.75t-17.25,17.25q 12.5,30 37,50.5t 50.5,20.5l0,104 z"  />
<glyph unicode="&#xf042;" d="M 448.5,224q0,52 -25.75,96.25t-70,70t-96.25,25.75q-48.5,0 -90-22.5t-68-61l 30-30q 0.5-15 -9-14.5l-101,1q-6,0 -11.75,5.75t-5.75,11.25l-0.5,101q-0.5,9.5 14,9l 38-37.5q 35.5,47 89,74.25t 115,27.25q 52,0 99.5-20.25t 81.75-54.5t 54.5-81.75t 20.25-99.5l-64,0 zM 192.5,112
q0-6.5 -4.75-11.25t-11.25-4.75t-11.25,4.75t-4.75,11.25l0,176 q0,26.5 18.75,45.25t 45.25,18.75l 64,0 q 26.5,0 45.25-18.75t 18.75-45.25l0-176 q0-6.5 -4.75-11.25t-11.25-4.75t-11.25,4.75t-4.75,11.25l0,72 q0,3.5 -2.5,5.75t-5.5,2.25l-112,0 q-3.5,0 -5.75-2.25t-2.25-5.75l0-72 zM 200.5,224l 112,0 q 3,0 5.5,2.25t 2.5,5.75
l0,56 q0,13.5 -9.5,22.75t-22.5,9.25l-64,0 q-13.5,0 -22.75-9.25t-9.25-22.75l0-56 q0-3.5 2.25-5.75t 5.75-2.25zM 256.5,32q 48.5,0 90,22.5t 68,61l-30,30q-0.5,15 9,14.5l 101-1q 6,0 11.75-5.75t 5.75-11.25l 0.5-100.5q 0.5-10 -14-9.5l-38,37.5q-35.5-47 -89-74.25t-115-27.25q-52,0 -99.5,20.25
t-81.75,54.5t-54.5,81.75t-20.25,99.5l 64,0 q0-52 25.75-96.25t 70-70t 96.25-25.75z"  />
<glyph unicode="&#xf043;" d="M 448-32l-384,0 q-26.5,0 -45.25,18.75t-18.75,45.25l0,384 q0,26.5 18.75,45.25t 45.25,18.75l 384,0 q 26.5,0 45.25-18.75t 18.75-45.25l0-384 q0-26.5 -18.75-45.25t-45.25-18.75zM 448,384q0,13 -9.5,22.5t-22.5,9.5l-224,0 q-8,0 -16-4t-12-8l-4-4l 71.5-72q-32-17.5 -61.25-42t-53.5-54.25t-38.5-65.25
t-14.25-70.5q0-3.5 -0.25-10.25t-0.25-12t 0.5-9.75q0-13.5 9.25-22.75t 22.5-9.25t 22.75,9.25t 9.5,22.75q 9.5,42.5 42.5,74t 79.5,48.25t 103,20.75l 79-79q 0.5,0 4.25,4t 7.75,12t 4,16l0,224 z"  />
<glyph unicode="&#xf044;" d="M 480,352l0-352 q0-13 -9.25-22.5t-22.5-9.5t-22.75,9.5t-9.5,22.5l0,32 l-32,0 l0-32 q0-13 -9.25-22.5t-22.75-9.5l-320,0 q-13.5,0 -22.75,9.5t-9.25,22.5l0,288 q0,52 25.75,96.25t 70,70t 96.25,25.75t 96.25-25.75t 70-70t 25.75-96.25l0-192 l 32,0 l0,352 q0,13.5 9.5,22.75t 22.5,9.25l 32,0 q 13.5,0 22.75-9.25
t 9.25-22.75l0-64 q0-13 -9.25-22.5t-22.75-9.5zM 320,288q0,53 -37.5,90.5t-90.5,37.5t-90.5-37.5t-37.5-90.5l0-240 q0-6.5 4.75-11.25t 11.25-4.75l 224,0 q 6.5,0 11.25,4.75t 4.75,11.25l0,240 zM 256,96l-128,0 q-13,0 -22.5,9.5t-9.5,22.75t 9.5,22.5t 22.5,9.25l 128,0 q 13.5,0 22.75-9.25t 9.25-22.5t-9.25-22.75t-22.75-9.5
z"  />
<glyph unicode="&#xf045;" d="M 333.5,224l 138,138q 40.5-63.5 40.5-138t-40.5-138zM 59.5,388q 36,43 87.25,67.5t 109.25,24.5t 109.25-24.5t 87.25-67.5l-196.5-196.5zM 40.5,86q-40.5,63.5 -40.5,138t 40.5,138l 138-138zM 201,201.5l 35.5-36q 3-2.5 7.75-4t 8.25-1.5l 3.5,0 q 13-0.5 19.5,5.5l 35.5,36l 141.5-141.5q-36-43 -87.25-67.5t-109.25-24.5
t-109.25,24.5t-87.25,67.5z"  />
<glyph unicode="&#xf046;" d="M 416-32l-288,0 q-26.5,0 -45.25,18.75t-18.75,45.25l0,384 q0,26.5 18.75,45.25t 45.25,18.75l 288,0 q 26.5,0 45.25-18.75t 18.75-45.25l0-384 q0-26.5 -18.75-45.25t-45.25-18.75zM 416,256q0,13 -9.5,22.5t-22.5,9.5l-64,0 l0,112 q0,6.5 -4.75,11.25t-11.25,4.75l-64,0 q-6.5,0 -11.25-4.75t-4.75-11.25l0-112 l-64,0 
q-13.5,0 -22.75-9.5t-9.25-22.5l0-192 q0-13.5 9.25-22.75t 22.75-9.25l 96,0 l0-16 q0-6.5 4.75-11.25t 11.25-4.75t 11.25,4.75t 4.75,11.25l0,16 l 96,0 q 13.5,0 22.75,9.25t 9.25,22.75l0,192 zM 368,64l-80,0 l0,160 l 96,0 l0-144 q0-6.5 -4.75-11.25t-11.25-4.75zM 256,64l-80,0 q-6.5,0 -11.25,4.75t-4.75,11.25l0,144 l 96,0 
l0-160 z"  />
<glyph unicode="&#xf047;" d="M 256-32q-69.5,0 -128.5,8.5t-93.25,23.25t-34.25,32.25l0,331.5 q 36.5-19.5 105-31.5t 151-12t 151,12t 105,31.5l0-331.5 q0-17.5 -34.25-32.25t-93.25-23.25t-128.5-8.5zM 448,287q-30-14 -81-22.5t-111-8.5t-111,8.5t-81,22.5l0-207 q0-20 56.25-34t 135.75-14t 135.75,14t 56.25,34l0,207 zM 288,64l-64,0 
q-10.5,0 -19,6.25t-11.5,16.25q 4.5,9.5 14.5,9.5l 64,0 q 6.5,0 11.25,4.75t 4.75,11.25t-4.75,11.25t-11.25,4.75l-64,0 q-6.5,0 -11.25,4.75t-4.75,11.25l0,48 q0,13 9.5,22.5t 22.5,9.5l 64,0 q 10.5,0 19-6.25t 11.5-16.25q-4.5-9.5 -14.5-9.5l-64,0 q-6.5,0 -11.25-4.75t-4.75-11.25t 4.75-11.25t 11.25-4.75l 64,0 q 6.5,0 11.25-4.75
t 4.75-11.25l0-48 q0-13.5 -9.25-22.75t-22.75-9.25zM 256,352q-69.5,0 -128.5,8.5t-93.25,23.25t-34.25,32.25t 34.25,32.25t 93.25,23.25t 128.5,8.5t 128.5-8.5t 93.25-23.25t 34.25-32.25t-34.25-32.25t-93.25-23.25t-128.5-8.5z"  />
<glyph unicode="&#xf048;" d="M 362-32l-212,0 l-150,150l0,212 l 150,150l 212,0 l 150-150l0-212 zM 288,400q0,6.5 -4.75,11.25t-11.25,4.75l-32,0 q-6.5,0 -11.25-4.75t-4.75-11.25l0-224 q0-6.5 4.75-11.25t 11.25-4.75l 32,0 q 6.5,0 11.25,4.75t 4.75,11.25l0,224 zM 288,80q0,6.5 -4.75,11.25t-11.25,4.75l-32,0 q-6.5,0 -11.25-4.75t-4.75-11.25l0-32 
q0-6.5 4.75-11.25t 11.25-4.75l 32,0 q 6.5,0 11.25,4.75t 4.75,11.25l0,32 z"  />
<glyph unicode="&#xf049;" d="M 508.5,113l-175,174.5l 175,175q 3.5-7.5 3.5-15l0-320 q0-7.5 -3.5-14.5zM 31.5,479.5l 0.5,0 l 448,0 l 0.5,0 l-224.5-224.5zM 3.5,113q-3.5,7 -3.5,14.5l0,320 q0,7.5 3.5,15l 175-175zM 236.5,229.5q 3-3 7.75-4.5t 8.25-1.5l 3.5,0 q 13-0.5 19.5,6l 35.5,35.5l 169.5-169.5l-0.5,0 l0-1 t 0.25-2t-0.25-3t-1.25-3.75t-2.25-4.25t-4-5l-121.5-104
q-4-3.5 -14.25-4.25t-21,1.75t-19.25,9.25t-8.5,16.25l0,36 l-96,0 q-13,0 -22.5,9.5t-9.5,22.5l0,32 l-128,0 l-0.5,0 l 169.5,169.5zM 224,63.5l 96,0 l0-40.5 q 13-12.5 21.5-4l 74.5,64.5q 5,5 5,12t-5,12l-74.5,64.5q-8.5,8.5 -21.5-4l0-40.5 l-96,0 q-13.5,0 -22.75-9.25t-9.25-22.5t 9.5-22.75t 22.5-9.5z"  />
<glyph unicode="&#xf04a;" d="M 256-32q-69.5,0 -128.5,34.25t-93.25,93.25t-34.25,128.5t 34.25,128.5t 93.25,93.25t 128.5,34.25t 128.5-34.25t 93.25-93.25t 34.25-128.5t-34.25-128.5t-93.25-93.25t-128.5-34.25zM 256,64q 13.5,0 22.75,9.25t 9.25,22.5t-9.5,22.75t-22.5,9.5t-22.5-9.5t-9.5-22.75t 9.25-22.5t 22.75-9.25zM 256,384
q-26.5,0 -45.25-18.75t-18.75-45.25l 32-128q0-13.5 9.5-22.75t 22.5-9.25t 22.5,9.25t 9.5,22.75l 32,128q0,26.5 -18.75,45.25t-45.25,18.75z"  />
<glyph unicode="&#xf04b;" d="M 448-32l-384,0 q-26.5,0 -45.25,18.75t-18.75,45.25l0,384 q0,26.5 18.75,45.25t 45.25,18.75l 384,0 q 26.5,0 45.25-18.75t 18.75-45.25l0-384 q0-26.5 -18.75-45.25t-45.25-18.75zM 64,64q0-13.5 9.5-22.75t 22.5-9.25l 320,0 q 13,0 22.5,9.25t 9.5,22.75l0,96 l-80,0 q-8.5,0 -13,7.5l-67,67l0-122.5 l0-0.5 q0-6.5 -4.5-11t-11-4.5
l-0.5,0 q-11,0 -15,11l-82.5,109.5l-49.5-49q-4.5-7.5 -13-7.5l-48,0 l0-96 zM 416,416l-320,0 q-13,0 -22.5-9.5t-9.5-22.5l0-192 l 42.5,0 l 56,56q 1,2.5 2,3.5q 4.5,4.5 11.5,4.5t 11.5-4.5q 2.5-2.5 3.5-6.5l 65-86.5l0,113.5 l0,0.5 q0,6.5 4.5,11t 11,4.5l 0.5,0 q 8.5,0 13-7.5l 88.5-88.5l 74.5,0 l0,192 q0,13 -9.5,22.5t-22.5,9.5z"  />
<glyph unicode="&#xf04c;" d="M 480-32l-448,0 q-13,0 -22.5,9.25t-9.5,22.75t 9.5,22.75t 22.5,9.25l 1,0 l 447,0 q 13,0 22.5-9.25t 9.5-22.5t-9.5-22.75t-22.5-9.5zM 464,64l-432,0 l 88,165q 2.5,4.5 8,6.25t 10.5-0.25l0,0.5 q-2,1.5 -1.5,1.5q 1,0 4.5-3q 4-3 5.5-7.5l 17.5-17.5l 92.5,131.5q 1,4.5 3.5,7q 4.5,4.5 11.5,4.5q 6.5,0 11.5-4.5q0-0.5 0.5-1.25l 0.5-0.75l 44.5-36l 120,159.5
q 4,11 15,11l 0.5,0 q 6.5,0 11-4.5t 4.5-11l0-0.5 l0-384 q0-6.5 -4.75-11.25t-11.25-4.75z"  />
<glyph unicode="&#xf04d;" d="M 448,0l-384,0 q-26.5,0 -45.25,18.75t-18.75,45.25l0,256 q0,13 9.25,22.5t 22.75,9.5l 240,0 q0,3.5 5.75,14t 11.25,19.5l 6,8.5q 3.5,9.5 14,15.75t 22,6.25l 120,0 q 12,0 22.5-6.25t 14-15.75q 24.5-32 24.5-42l0-288 q0-26.5 -18.75-45.25t-45.25-18.75zM 320,224q0,26.5 -18.75,45.25t-45.25,18.75t-45.25-18.75
t-18.75-45.25q0-19.5 11.25-35.75t 29.25-23.25l-40.5-101l 128,0 l-40.5,101q 18,7 29.25,23.25t 11.25,35.75zM 23,426q 3.5,9.5 14,15.75t 22,6.25l 120,0 q 12,0 22.5-6.25t 14.5-15.75l 24-42l-240,0 z"  />
<glyph unicode="&#xf04e;" d="M 496,48l-96,0 q-6.5,0 -11.25,4.75t-4.75,11.25t 4.75,11.25t 11.25,4.75l 96,0 q 6.5,0 11.25-4.75t 4.75-11.25t-4.75-11.25t-11.25-4.75zM 368,112l-16,0 l0-16 q0-6 -3.75-10.25t-9.25-5.25q-1-0.5 -3-0.5l-16,0 l0-48 q0-6.5 -4.75-11.25t-11.25-4.75l-32,0 q-6.5,0 -11.25,4.75t-4.75,11.25l0,48 l-16,0 q-2,0 -3,0.5
q-5.5,1 -9.25,5.25t-3.75,10.25l0,16 l-16,0 q-6.5,0 -11.25,4.75t-4.75,11.25l0,32 q0,6.5 4.75,11.25t 11.25,4.75l 32,0 q 6.5,0 11.25-4.75t 4.75-11.25l0-32 l0-16 l 64,0 l0,96 l-80,0 q-2,0 -3,0.5q-5.5,1 -9.25,5.25t-3.75,10.25l0,16 l-16,0 q-6.5,0 -11.25,4.75t-4.75,11.25l0,64 q0,6.5 4.75,11.25t 11.25,4.75l 16,0 l0,16 q0,6 3.75,10.25
t 9.25,5.25q 1,0.5 3,0.5l 16,0 l0,48 q0,6.5 4.75,11.25t 11.25,4.75l 32,0 q 6.5,0 11.25-4.75t 4.75-11.25l0-48 l 16,0 q 2,0 3-0.5q 5.5-1 9.25-5.25t 3.75-10.25l0-16 l 16,0 q 6.5,0 11.25-4.75t 4.75-11.25l0-32 q0-6.5 -4.75-11.25t-11.25-4.75l-32,0 q-6.5,0 -11.25,4.75t-4.75,11.25l0,32 l0,16 l-64,0 l0-96 l 80,0 q 2,0 3-0.5
q 5.5-1 9.25-5.25t 3.75-10.25l0-16 l 16,0 q 6.5,0 11.25-4.75t 4.75-11.25l0-64 q0-6.5 -4.75-11.25t-11.25-4.75zM 144,176l-16,0 l0-16 q0-6 -3.75-10.25t-9.25-5.25q-1-0.5 -3-0.5l-16,0 l0-16 q0-6 -3.75-10.25t-9.25-5.25q-1-0.5 -3-0.5l-16,0 l0-16 q0-5.5 -3.75-10t-9.25-5.5q-1-0.5 -3-0.5l-32,0 
q-6.5,0 -11.25,4.75t-4.75,11.25t 4.75,11.25t 11.25,4.75l 16,0 l0,16 q0,6 3.75,10.25t 9.25,5.25q 1,0.5 3,0.5l 16,0 l0,16 q0,6 3.75,10.25t 9.25,5.25q 1,0.5 3,0.5l 16,0 l0,32 l-16,0 q-2,0 -3,0.5q-5.5,1 -9.25,5.25t-3.75,10.25l0,16 l-16,0 q-2,0 -3,0.5q-5.5,1 -9.25,5.25t-3.75,10.25l0,16 l-16,0 q-6.5,0 -11.25,4.75t-4.75,11.25t 4.75,11.25
t 11.25,4.75l 32,0 q 2,0 3-0.5q 5.5-1 9.25-5.25t 3.75-10.25l0-16 l 16,0 q 2,0 3-0.5q 5.5-1 9.25-5.25t 3.75-10.25l0-16 l 16,0 q 2,0 3-0.5q 5.5-1 9.25-5.25t 3.75-10.25l0-16 l 16,0 q 6.5,0 11.25-4.75t 4.75-11.25t-4.75-11.25t-11.25-4.75z"  />
<glyph unicode="&#xf04f;" d="M 256-32q-52,0 -96.25,25.75t-70,70t-25.75,96.25q0,58 32,106l0,54 q0,43.5 21.5,80.25t 58.25,58.25t 80.25,21.5t 80.25-21.5t 58.25-58.25t 21.5-80.25l0-54 q 32-48 32-106q0-52 -25.75-96.25t-70-70t-96.25-25.75zM 256,416q-38,0 -65.5-26t-30-63.5q 44.5,25.5 95.5,25.5t 95.5-25.5
q-2.5,37.5 -30,63.5t-65.5,26zM 256,288q-53,0 -90.5-37.5t-37.5-90.5t 37.5-90.5t 90.5-37.5t 90.5,37.5t 37.5,90.5t-37.5,90.5t-90.5,37.5zM 256,96q-26.5,0 -45.25,18.75t-18.75,45.25q0,32 26,51l 38,76.5l 38-76.5q 26-19 26-51q0-26.5 -18.75-45.25t-45.25-18.75z"  />
<glyph unicode="&#xf050;" d="M 502,106q-9.5-9.5 -22.5-10t-22,8.5l-60.5,60.5l-19-19q-17.5-17.5 -42.25-17.5t-42.25,17.5l-34.5,34.5l-54-53.5l 6.5-6.5q 12.5-12 12.5-29.25t-12.5-29.75l-81-81.5q-12.5-12 -29.75-12t-29.25,12l-59.5,59q-12,12.5 -12,29.75t 12,29.75l 81.5,81q 12.5,12.5 29.75,12.5t 29.25-12.5l 7-6.5l 53.5,53.5l-36,36
q-17.5,17.5 -17.5,42t 17.5,42l 19.5,19.5l-60,59.5q-8.5,9 -8.25,22t 9.75,22.5t 22.5,10t 22-8.5l 60-59.5l 19,19q 17.5,17.5 42.25,17.5t 42.25-17.5l 116.5-116.5q 17.5-17.5 17.5-42.25t-17.5-41.75l-19.5-19.5l 60.5-60.5q 9-9 8.5-22t-10-22.5zM 150,118q-9.5,9.5 -22.5,9.75t-22-8.25l-32.5-33q-9-9 -8.5-22t 10-22.5
t 22.5-9.75t 21.5,8.25l 33,33q 9,9 8.5,22t-10,22.5zM 406,296l-79,79q-9.5,9.5 -23.25,9.5t-23.75-9.5l-0.5-1q 8.5-8.5 8.25-21.5t-9.75-22.5t-22.5-10t-21.5,8.5l-0.5-0.5q-10-9.5 -10-23.25t 10-23.75l 17-17l 15,15.5q 9,9 22,8.5t 22.5-10t 10-22.5t-8.5-22l-15-15.5l 16-16q 9.5-9.5 23.25-9.5t 23.25,9.5
l 1,1q-8,9 -7.5,21.5t 9.75,21.5t 21.75,9.75t 21.5-7.25l 0.5,0.5q 9.5,10 9.5,23.5t-9.5,23.5z"  />
<glyph unicode="&#xf051;" d="M 320.25-32q-52.25,0 -96.5,25.75t-69.75,69.75t-25.5,96.5q0,41 17.5,79.5l-33.5,0 l0,80 l-31,0 l-17,17.5l0,30.5 l-30.5,0 l-1.5,1.5l0,30.5 l-28.5,0 q-4,8 -3,16.5l-1,0 l0,64 l 64,0 l0-1 q 14,1.5 23.5-7.5l 142-142.5q 42.5,22.5 90.5,22.5q 52.5,0 96.5-25.5t 69.75-69.75t 25.75-96.5t-25.75-96.25t-69.75-69.75t-96.25-25.75zM 49,463.5l-16.5-16.5
l 159.5-159.5l 16.5,16.5zM 352,192q-26.5,0 -45.25-18.75t-18.75-45.25t 18.75-45.25t 45.25-18.75t 45.25,18.75t 18.75,45.25t-18.75,45.25t-45.25,18.75z"  />
<glyph unicode="&#xf052;" d="M 512,128q0-43.5 -21.5-80.25t-58.25-58.25t-80.25-21.5q-38.5,0 -72,17.25t-56,46.75q-45.5,0 -87,17.75t-71.5,47.75t-47.75,71.5t-17.75,87t 17.75,87t 47.75,71.5t 71.5,47.75t 87,17.75t 87-17.75t 71.5-47.75t 47.75-71.5t 17.75-87q 29.5-22.5 46.75-56t 17.25-72zM 256,256
q-7.5,3.5 -11.75,15.75t-11.75,15.75q-1,3 -2,4.5q0,2.5 -3.25,14t-3.25,14q 5.5,1.5 16,0t 16,0q-3,6 -4,16.75t-4,17.25q 1,1.5 3,4.75t 3,4.75q 9.5,1 17.25,2.25t 16.75,2.25l0,16 l 32,0 q-32,24 -71.5,30q 1.5-5 3.75-14.75t 3.25-14.25q-4-1.5 -9-3.5q 0.5,0 1.5-0.75t 1.5-0.75q-2.5-0.5 -12.75,2t-12.75,2q 1,4 0.5,16.25t 2,15.75
l-1.25,0 l-1.25,0 q-55.5,0 -99-34.5q 16-26.5 19-29.5q-4,2 -8-5.5t-6-15.75t-2-10.75q-9-4 -22.5-2.75t-22.5-2.25q-1.5-10 -9.5-29.5t-9.5-29.5q 3-2.5 8.5-2.5t 11,1.5t 9.25-2t 3.25-13q-1-1 -2-8.75t-2-8.25l-24.5,0 q 10-47.5 44.75-81.5t 82.75-43q-3,15.5 -3,29.5q0,59.5 38.5,104.25t 96.5,53.75
q-21,30.5 -23,34q-3-1 -8,0t-8,0q-1.5-1 -3-7.5t-2.5-7.5q 3-19.5 4.5-27.5q-1.5-2 -15.5-10.75t-15.5-10.75zM 372.5,315q-2,3 -4.5,5l-32,0 q0-1.5 0.25-8t-0.25-8q 5-3.5 16-8t 16-8l-0.5-0.25l-0.5-0.25q 6.5-1 14-2.5q-2.5,16 -8.5,30zM 352.25,224q-39.75,0 -68-28t-28.25-68t 28.25-68t 68-28
t 67.75,28t 28,68t-28,68t-67.75,28z"  />
<glyph unicode="&#xf053;" d="M 512,64q0-13.5 -9.25-22.75t-22.75-9.25l-32,0 l0-32 q0-13.5 -9.25-22.75t-22.75-9.25l-64,0 q-14,0 -23.5,10.5q-36-10.5 -72.5-10.5q-69.5,0 -128.5,34.25t-93.25,93.25t-34.25,128.5t 34.25,128.5t 93.25,93.25t 128.5,34.25t 128.5-34.25t 93.25-93.25t 34.25-128.5q0-37 -10.5-72.5q 10.5-9.5 10.5-23.5l0-64 z
M 445,256q-9.5,8 -27.25,23.5t-26.25,22.5l-18.5,0 q-1.5-8.5 -2-11.5q 15-10.5 35.5-24.5q-12-12 -24-24.5q-11.5,18.5 -33.5,54.5q-9.5-2.5 -20.5-5.5q-2-1 -5.25-3t-4.25-2.5q 1.5-6.5 3.5-18.5t 2.5-13.5q-7.5-9 -11.5-13.5q-6,3 -24.75,11.5t-28.75,13q0,0.5 -2,6l0,17 q 13,3.5 41,11l-20.5,43.5q 1.5,2 4,6t 3.5,5.5q 10.5,0.5 32.25,2.5
t 32.75,3l0,24.5 q 1,0.5 3.5,1t 3.5,1q 1-6.5 2-17q 0.5,0 22,1q-16.5,14 -34,23.5q-7-0.5 -19.5-2l-2,2q 1.5,5 2.5,9q-24,10 -50.5,13q 1.5-6 4.5-18.5t 4.5-19q-2-0.5 -6-1.75t-5-1.75l 4-2q-16.5-2 -17-2q 1.5,9 4.75,26.25t 3.75,19.25q-10,1 -16,1q-1,0 -10.5-0.5q 1-0.5 1.5-0.5l0-19 l-13,0 q-2,0.5 -11,2q 1,3.5 5,15.5
q-66.5-9.5 -112.5-59l 7,0 l 12-10.5l 12-10.5l0-11 q-12.5-5 -36-14.75t-28-11.75q0-2.5 -4.25-29t-6.25-40.5q 9.5-10 29.5-32q-1-0.5 -3.75-2.25t-4.25-2.75l-26,0 q 12-68 65.25-112.75t 123.25-44.75q 10,0 22.5,1.5q-11,3.5 -17.5,13q-1.5,0.5 -5,0.5t-5.5,0.5q-7,10.5 -21.25,32t-21.25,32q 11.5,22.5 33.5,64
q 1,1.5 3.5,4q 7,6 21.25,18.5t 21.25,19q 6.5-0.5 9.25-0.75t 10.75,0.75t 11.75,1.5t 12.25,2t 12.5,2.5q 4.5,1 8,1q 16.5,2 24.5,0.5q 0.5,0 0.5-0.25l0-0.25 l 39,0 q 10.5,0 19-6.25t 11.5-16.25q 1.5,12.5 1.5,22.5q0,15 -3,32zM 448,128l-32,0 l0,32 q0,13 -9.5,22.5t-22.75,9.5t-22.5-9.25t-9.25-22.75l0-32 l-32,0 q-13,0 -22.5-9.5t-9.5-22.75t 9.5-22.5
t 22.5-9.25l 32,0 l0-32 q0-13.5 9.5-22.75t 22.5-9.25t 22.5,9.25t 9.5,22.75l0,32 l 32,0 q 13.5,0 22.75,9.25t 9.25,22.5t-9.25,22.75t-22.75,9.5z"  />
<glyph unicode="&#xf054;" d="M 512,96q0-53 -37.5-90.5t-90.5-37.5q-27.5,0 -52.5,11.5q-37-11.5 -75.5-11.5q-69.5,0 -128.5,34.25t-93.25,93.25t-34.25,128.5t 34.25,128.5t 93.25,93.25t 128.5,34.25t 128.5-34.25t 93.25-93.25t 34.25-128.5q0-38.5 -11.5-75.5q 11.5-25 11.5-52.5zM 445,256q-9.5,8 -27.25,23.5t-26.25,22.5l-18.5,0 q-0.5-2 -1-5.75
t-1-5.75q 7-4.5 19.75-13.5t 15.75-11q-16.5-16.5 -24-24.5q-6,9 -17,27.25t-16.5,27.25q-9.5-2.5 -20.5-5.5q-2-1 -5.25-3t-4.25-2.5q 1.5-6.5 3.5-18.5t 2.5-13.5q-7.5-9 -11.5-13.5q-6,3 -24.75,11.5t-28.75,13q0,0.5 -2,6l0,17 q 13,3.5 41,11q-0.5,1 -20.5,43.5q 3.5,5 7.5,11.5q 10.5,0.5 32.25,2.5t 32.75,3l0,24.5 q 1,0 3.5,0.75
t 3.5,1.25q 1.5-11.5 2-17q 0.5,0 22,1q-16.5,14 -34,23.5q-8.5-1 -19.5-2l-2,2q 1.5,5 2.5,9q-24,10 -50.5,13q 1.5-6 4.5-18.5t 4.5-19q-2-0.5 -6-1.75t-5-1.75l 4-2l-17-2q 1.5,9 4.75,26.25t 3.75,19.25q-10,1 -16,1q-1,0 -10.5-0.5q 0.5,0 1-0.5l 0.5,0 l0-19 l-13,0 q-2.5,0.5 -11,2q 0.5,2.5 2.25,7.75t 2.75,7.75
q-66.5-9.5 -112.5-59l 7,0 l 12-10.5l 12-10.5l0-11 q-11-4.5 -32.5-13.5t-31.5-13q-1.5-11.5 -5-34.75t-5.5-34.75q 15-16 29.5-32q-7-4.5 -8-5l-26,0 q 12-68 65.25-112.75t 123.25-44.75q 8.5,0 17,0.5q-4.5,7.5 -7,14q-2.5,0 -7.75,0.25t-7.75,0.75q-7,10 -21.25,31.5t-21.25,32.5q 9.5,18.5 33.5,64q 1,1.5 3.5,4
q 7,6 21.25,18.75t 21.25,18.75q 11-2 44.5,3.75t 44.5,3.75q 0.5,0 0.5-0.5l 0.5-0.5q 4.5,0.5 6.5,0.5q 33.5,0 63-17q 1,9 1,17q0,15 -3,32zM 384,192q-31,0 -55.5-18t-34.5-46l-32.5,0 q-5.5-6 -5.5-14.5t 5.5-14.5l 26.5-35q 3-3 7.5-4.5l0,0 q 6-2.5 13-1.25t 11.5,5.75l 26.5,35q 5.5,6 5.5,14.5t-5.5,14.5l-17.5,0 q 8,14.5 22.75,23.25
t 32.25,8.75q 26.5,0 45.25-18.75t 18.75-45.25t-18.75-45.25t-45.25-18.75q-4.5,0 -10.5,1l-26-25.5q 17.5-7.5 36.5-7.5q 40,0 68,28.25t 28,68t-28,67.75t-68,28z"  />
<glyph unicode="&#xf055;" d="M 416-32l-320,0 q-26.5,0 -45.25,18.75t-18.75,45.25l0,384 q0,26.5 18.75,45.25t 45.25,18.75l 320,0 q 26.5,0 45.25-18.75t 18.75-45.25l0-384 q0-26.5 -18.75-45.25t-45.25-18.75zM 160,64q0-13.5 9.5-22.75t 22.5-9.25l 32,0 q 13,0 22.5,9.25t 9.5,22.75l0,32 q0,13 -9.5,22.5t-22.5,9.5l-32,0 q-13,0 -22.5-9.5t-9.5-22.5l0-32 z
M 112,96q 6.5,0 11.25,4.75t 4.75,11.25t-4.75,11.25t-11.25,4.75l-16,0 q-13.5,0 -22.75-9.5t-9.25-22.5l0-32 q0-13.5 9.25-22.75t 22.75-9.25l 16,0 q 6.5,0 11.25,4.75t 4.75,11.25t-4.75,11.25t-11.25,4.75l-16,0 l0,32 l 16,0 zM 288,416l-96,0 q-13,0 -22.5-9.5t-9.5-22.5l0-192 q0-13.5 9.5-22.75t 22.75-9.25t 22.5,9.25t 9.25,22.75
l0,32 l 64,0 q 46,0 71,27t 25,69t-25,69t-71,27zM 448,96q0,13 -9.5,22.5t-22.5,9.5l-32,0 q-8.5,0 -16-4.5q-7.5,4.5 -16,4.5l-32,0 q-13,0 -22.5-9.5t-9.5-22.5l0-48 q0-6.5 4.75-11.25t 11.25-4.75t 11.25,4.75t 4.75,11.25l0,48 l 32,0 l0-48 q0-6.5 4.75-11.25t 11.25-4.75t 11.25,4.75t 4.75,11.25l0,48 l 32,0 l0-48 q0-6.5 4.75-11.25
t 11.25-4.75t 11.25,4.75t 4.75,11.25l0,48 zM 288,288l-64,0 l0,64 l 64,0 q 13.5,0 22.75-9.5t 9.25-22.75t-9.25-22.5t-22.75-9.25zM 224,64l-32,0 l0,32 l 32,0 l0-32 z"  />
<glyph unicode="&#xf056;" d="M 496-32q-12.5,0 -26,0.5q-207,5.5 -318.75,88t-118.25,230q-33,85.5 -33,177.5q0,6.5 4.75,11.25t 11.25,4.75t 11.25-4.75t 4.75-11.25l0-1.5 l0-1.5 q-4.5-7.5 -2-16q 1-7.5 4-20q 2-21 5.5-42q 1,0 2.5-0.5t 2-0.5q 39-161 84-206q 30-30.5 55-53t 56.25-45.75t 63.75-39t 65-22.25l 32,0 q-5.5,3 -14.75,8.25
t-37.5,23.5t-55.75,39t-64.25,53.5t-67.75,67.75q-39.5,44.5 -75.5,153.5q 22.5-17 43.5-41.5q 46-54 123-128.75t 149.75-133t 95.25-58.25q 6.5,0 11.25-4.75t 4.75-11.25t-4.75-11.25t-11.25-4.75z"  />
<glyph unicode="&#xf057;" d="M 447.5-32l-155.5,0 l 4,2q 5.5,3.5 7.25,9.75t-1.75,12.25l-22.5,40q 5.5,8 9.5,16.5l 47,0 q 7,0 11.5,4.5t 4.5,11.5l0,95.5 q0,7 -4.5,11.5t-11.5,4.5l-47,0 q-4,8.5 -9.5,17l 22.5,39.5q 3.5,6 1.75,12.25t-7.25,9.75l-82.5,48q-5.5,3 -12,1.25t-9.5-7.25l-23.5-41q-1,0 -4,0.25t-4.75,0.25t-5-0.25t-3.75-0.25l-23.5,41q-3,5.5 -9.5,7.25
t-12-1.25l-74-43.5l0,188.5 q0,13.5 9.25,22.75t 22.75,9.25l 223.5,0 l0-176 q0-6.5 4.75-11.25t 11.25-4.75l 176,0 l0-0.5 l0-287 q0-13.5 -9.25-22.75t-22.75-9.25zM 319.5,480q 13,0 22.5-9l 128-128.5q 9.5-9.5 9.5-23l-160,0 l0,160.5 zM 89,176l-23.5,41.5q-3,5.5 -1.5,11.75t 7,9.75l 26.5,15.5q 5,3 11.25,1.25t 9.25-7.25l 24-42
q 9.5,1.5 17.75,1.5t 18.25-1.5l 23.5,42q 3.5,5.5 9.5,7.25t 11.5-1.25l 26-15.5q 5.5-3.5 7-9.75t-1.5-11.75l-23.5-41.5q 13-14.5 19.5-31.5l 53.5,0 q 7,0 11.5-4.75t 4.5-11.25l0-32 q0-7 -4.5-11.5t-11.5-4.5l-53.5,0 q-6.5-17.5 -19.5-32l 23.5-41.5q 3-5.5 1.5-11.75t-7-9.25l-26-16q-5.5-3 -11.5-1.25t-9.5,7.25l-23.5,42
q-10-1.5 -18.25-1.5t-17.75,1.5l-24-42q-3-5.5 -9-7.25t-11.5,1.25l-26.5,16q-5.5,3 -7,9.25t 1.5,11.75l 23.5,41.5q-13,14.5 -19,32l-54,0 q-6.5,0 -11.25,4.5t-4.75,11.5l0,32 q0,6.5 4.75,11.25t 11.25,4.75l 54,0 q 6,17 19,31.5zM 159.75,80.5q 13.25,0 22.75,9.25t 9.5,22.5t-9.5,22.75t-22.75,9.5t-22.5-9.5t-9.25-22.75
t 9.25-22.5t 22.5-9.25z"  />
<glyph unicode="&#xf058;" d="M 400.5,288l 48-51.5l-67.5-21l 16-68.5l-63.5,14.5l 51-162.5q0-16.5 -14-26l-26,26l-31-31q-11,2.5 -18,11.25t-7,19.75l-32.5,103l-32-103q0-11 -7-19.75t-18-11.25l-31,31l-26-26q-14,9.5 -14,26l 51,162.5l-63.5-14.5l 16,68.5l-67.5,21l 48,51.5l-48,51.5l 67.5,20.5l-16,68.5l 68.5-16
l 20.5,67.5l 51.5-48l 51.5,48l 21-67.5l 68.5,16l-16-68.5l 67.5-20.5zM 256.25,384q-39.75,0 -68-28.25t-28.25-68t 28.25-68t 68-28.25t 68,28.25t 28.25,68t-28.25,68t-68,28.25z"  />
<glyph unicode="&#xf059;" d="M 338.5,183l 45.5-183l-64-32l-43,193.5q-11.5-1.5 -21-1.5t-21,1.5l-43-193.5l-64,32l 45.5,183q-35.5,21.5 -56.5,57.75t-21,79.25q0,43.5 21.5,80.25t 58.25,58.25t 80.25,21.5t 80.25-21.5t 58.25-58.25t 21.5-80.25q0-43 -21-79.25t-56.5-57.75z"  />
<glyph unicode="&#xf05a;" d="M 256-32q-69.5,0 -128.5,34.25t-93.25,93.25t-34.25,128.5t 34.25,128.5t 93.25,93.25t 128.5,34.25t 128.5-34.25t 93.25-93.25t 34.25-128.5t-34.25-128.5t-93.25-93.25t-128.5-34.25zM 256,416q-52,0 -96.25-25.75t-70-70t-25.75-96.25t 25.75-96.25t 70-70t 96.25-25.75t 96.25,25.75t 70,70
t 25.75,96.25t-25.75,96.25t-70,70t-96.25,25.75zM 256.25,160q-13.25,0 -22.75,9.5t-9.5,22.5l-32,128q0,26.5 18.75,45.25t 45.25,18.75t 45.25-18.75t 18.75-45.25l-32-128q0-13 -9.25-22.5t-22.5-9.5zM 256,128q 13.5,0 22.75-9.25t 9.25-22.5t-9.5-22.75t-22.75-9.5t-22.5,9.5t-9.25,22.75t 9.25,22.5
t 22.75,9.25z"  />
<glyph unicode="&#xf05b;" d="M 507.5,81q 4.5-5 4.5-43.25t-4.5-43.25l-22-22q-5-4.5 -43.25-4.5t-43.25,4.5l-207.5,267.5l0,0.5 t-0.5,0.5q-29.5-17 -63-17q-52.5,0 -89.5,36.5t-38.5,88.5l0,3 l 19,0 l 41.5-41.5q 22.5-22.5 54.25-22.5t 54.25,22.5t 22.5,54.5t-22.5,54.5l-41,41l0,19.5 l 3,0 q 52-1.5 88.25-38.75t 36.25-89.25q0-34 -16.5-63.5l 0.5-0.5zM 447.75,0
q 13.25,0 22.5,9.5t 9.25,22.75t-9.25,22.5t-22.5,9.25t-22.75-9.25t-9.5-22.5t 9.5-22.75t 22.75-9.5z"  />
<glyph unicode="&#xf05c;" d="M 496,416l-177.5-219.5l-30.5-196.5q0-13.5 -9.25-22.75t-22.5-9.25t-22.75,9.25t-9.5,22.75l-30.5,196.5l-177.5,219.5l-11.5,16q-4.5,7.5 -4.5,16q0,13 9.5,22.5t 22.5,9.5l 448,0 q 13.5,0 22.75-9.5t 9.25-22.5q0-8.5 -4.5-16z"  />
<glyph unicode="&#xf05d;" d="M 496,352l-190-234l-18-118q0-13.5 -9.25-22.75t-22.75-9.25t-22.75,9.25t-9.25,22.75l-18,118l-190,234l-11.5,16q-4.5,7.5 -4.5,16q0,13 9.5,22.5t 22.5,9.5l 128,0 q0-59.5 8-81.5q-40-23.5 -40-83.5q0-6.5 5.75-11.5t 17.75-7.75t 23-4.5t 28.5-2.25t 27-0.75t 26-0.25t 26,0.25t 27,0.75t 28.5,2.25t 23,4.5
t 17.75,7.75t 5.75,11.5q0,60 -40,83.5q 8,22 8,81.5l 128,0 q 13.5,0 22.75-9.5t 9.25-22.5q0-8.5 -4.5-16zM 288,343.5l0-26.5 q 28-5.5 45.75-18.5t 18.25-29q0-13.5 -96-13.5t-96,13.5q 0.5,16 18.25,29t 45.75,18.5l0,27.5 q-32,20.5 -32,83q0,26 18,39.25t 46,13.25t 46-13.25t 18-39.25q0-65.5 -32-84z"  />
<glyph unicode="&#xf05e;" d="M 496,352l-190-234l-18-118q0-13.5 -9.25-22.75t-22.75-9.25t-22.75,9.25t-9.25,22.75l-18,118l-190,234l-11.5,16q-4.5,7.5 -4.5,16q0,13 9.5,22.5t 22.5,9.5l 96,0 l0-128 q0-26.5 18.75-45.25t 45.25-18.75l 128,0 q 26.5,0 45.25,18.75t 18.75,45.25l0,128 l 96,0 q 13.5,0 22.75-9.5t 9.25-22.5q0-8.5 -4.5-16zM 255.5,368
l 93.5,93.5q 3-6.5 3-13.5l0-160 q0-7 -3-13.5zM 190,480l 0.75,0 l 1.25,0 l 128,0 l 1.25,0 l 0.75,0 l-66-66.5zM 320,256l-128,0 l-1.25,0 l-0.75,0 l 66,66.5l 66-66.5l-0.75,0 l-1.25,0 zM 230,387.5q-3-3 -4.5-7.75t-1.5-8.25l0-3.5 q-0.5-13 6-19.5l 3.5-3.5l-70.5-70.5q-3,6.5 -3,13.5l0,160 q0,7 3,13.5l 70.5-70.5z"  />
<glyph unicode="&#xf05f;" d="M 502-22q-9.5-9.5 -22.5-10t-22,8.5l-96.5,97q-9,9 -8.5,22t 10,22.5t 22.5,10t 22-8.5l 96.5-97q 9-9 8.5-22t-10-22.5zM 288,352l0-114 l-96.5,97l 16.5,16.5l-44.5,6l-12.5,26.5l 105,0 q 13.5,0 22.75-9.25t 9.25-22.75zM 128,384l 9,0 l-12-26.5l-29-4q 0.5,13 9.75,21.75t 22.25,8.75zM 128,192
q-13,0 -22.5,9.5t-9.5,22.5l0,111.5 l 17-16.5l-8.5-47l 36.5,21.5l 101-101.5l-114,0 zM 320,384q0,13.5 -9.25,23t-22.75,9.5l-192,0 q-13,0 -22.5-9.5t-9.5-23l0-192 q0-13 9.5-22.5t 22.5-9.5l 178,0 l 64-64l-306,0 q-13,0 -22.5,9.5t-9.5,22.5l0,320.5 q0,13 9.5,22.5t 22.5,9.5l 320,0 q 13.5,0 22.75-9.5t 9.25-22.5l0-306.5 l-64,64l0,178 z"  />
<glyph unicode="&#xf060;" d="M 384,96q 11.5,23 25.25,48t 20,36.5t 10.75,22.75t 4.5,19.25q0,26 -9.75,44.5t-23.75,18.5q-98.5,0 -180,12q-128,18.5 -191,83q-10.5,12 -14,17t-10,16.75t-9.75,27t-6.25,38.75q 6-16.5 12.25-29.25t 11-20t 11.75-13.75t 10.25-9t 10.75-6.5t 9.5-5.5q 70.5-44 382.5-44q 24.5,0 44.25-20.25t 19.75-46.25
q0-15 -4.5-30.5t-15-32.5t-20-30.25t-27.5-32.75t-28.75-30.75t-32.25-32.75zM 144,64q 20,0 34-14t 14-34t-14-34t-34-14t-34,14t-14,34t 14,34t 34,14zM 336,64q 20,0 34-14t 14-34t-14-34t-34-14t-34,14t-14,34t 14,34t 34,14z"  />
<glyph unicode="&#xf061;" d="M 448,0l-32,0 l0,80 q0,16 -9.5,28.5t-24.5,17q0,15 -15.75,24.75t-30.25,9.75l-16,0 l0,16 q0,20 -14,34t-34,14t-34-14t-14-34l0-51 q-14-5 -23-17.25t-9-27.75l0-80 l-128,0 q-13,0 -22.5,9.25t-9.5,22.75l0,288 q0,13 9.25,22.5t 22.75,9.5l 32,0 l0,64 l 64,64l0-128 l 192,0 l0,128 l 64-64l0-64 l 32,0 
q 13.5,0 22.75-9.5t 9.25-22.5l0-288 q0-13.5 -9.25-22.75t-22.75-9.25zM 192,480l 128,0 l0-64 l-128,0 l0,64 zM 240,96q 6.5,0 11.25-4.75t 4.75-11.25l0,96 q0,6.5 4.75,11.25t 11.25,4.75t 11.25-4.75t 4.75-11.25l0-64 q0,6.5 4.75,11.25t 11.25,4.75t 11.25-4.75t 4.75-11.25q0,6.5 4.75,11.25t 11.25,4.75t 11.25-4.75
t 4.75-11.25l0-32 q0,6.5 4.75,11.25t 11.25,4.75t 11.25-4.75t 4.75-11.25l0-48 q0-26.5 -15.5-45.25t-38-18.75l-53,0 q-22,0 -37.75,18.75t-15.75,45.25l0,48 q0,6.5 4.75,11.25t 11.25,4.75z"  />
<glyph unicode="&#xf062;" d="M 498,448l-40,0 q-3.5,0 -5.75-2.25t-2.25-5.75l0-48 q0-3 2.25-5.5t 5.75-2.5l 40,0 q 6.5,0 11.25-4.5t 4.75-11.25t-4.75-11.5t-11.25-4.75l-40,0 q-3.5,0 -5.75-2.25t-2.25-5.75l0-104 q0-6.5 -4.75-11.25t-11.25-4.75t-11.25,4.75t-4.75,11.25l0,224 q0,7 4.5,11.5t 11.5,4.5l 64,0 q 6.5,0 11.25-4.5t 4.75-11.25t-4.75-11.5
t-11.25-4.75zM 370,224q-6.5,0 -11.25,4.75t-4.75,11.25l0,174.5 l-50-70.5q-4.5-8 -14-8t-14,8l-50,70.5l0-174.5 q0-6.5 -4.75-11.25t-11.25-4.75t-11.25,4.75t-4.75,11.25l0,224 q0,6.5 4.75,11.25t 11.25,4.75q 9,0 14-8l 66-93l 66,93q 5,8 14,8q 6.5,0 11.25-4.75t 4.75-11.25l0-224 
q0-6.5 -4.75-11.25t-11.25-4.75zM 239,187.5l 29.5-41l 204,44.5q 13,3.5 24.75-3t 15.25-19t-3.25-23.75t-19.75-14.75l-181-39.5l 74-102q 8.5-8.5 -4-21l-308,0.5q-5,5 -5,12t 5,12l 39.5,55.5l-66.5-14.5q-13-3.5 -24.75,3t-15.25,19t 3.25,23.75t 19.75,14.75l 138,30l 45.5,63.5q 5,5 14.5,5t 14.5-5z
M 194,96.25q0-13.25 9.5-22.75t 22.75-9.5t 22.5,9.5t 9.25,22.75t-9.25,22.5t-22.5,9.25t-22.75-9.25t-9.5-22.5zM 146,416q-6.5,0 -11.25,4.75t-4.75,11.25q0,6 -1.75,9.5t-6.5,4.75t-8.25,1.75t-11,0l-4.5,0 l-32,0 q-13,0 -22.5-9.25t-9.5-22.5t 9.5-22.75t 22.5-9.5l 32,0 q 26.5,0 45.25-18.75t 18.75-45.25l0-32 
q0-26.5 -18.75-45.25t-45.25-18.75l-32,0 q-29,0 -46.5,11.5t-17.5,36.5q0,7 4.75,11.5t 11.25,4.5t 11.25-4.5t 4.75-11.5q0-5.5 1.75-9t 6.5-5t 8.25-1.75t 11.5-0.25l 4,0 l 32,0 q 13,0 22.5,9.5t 9.5,22.5l0,32 q0,13.5 -9.5,22.75t-22.5,9.25l-32,0 q-26.5,0 -45.25,18.75t-18.75,45.25t 18.75,45.25t 45.25,18.75l 32,0 q 29,0 46.5-11.5t 17.5-36.5
q0-6.5 -4.75-11.25t-11.25-4.75z"  />
<glyph unicode="&#xf063;" d="M 448-32l-384,0 q-26.5,0 -45.25,18.75t-18.75,45.25l0,384 q0,26.5 18.75,45.25t 45.25,18.75l 384,0 q 26.5,0 45.25-18.75t 18.75-45.25l0-384 q0-26.5 -18.75-45.25t-45.25-18.75zM 448,320q0,26.5 -18.75,45.25t-45.25,18.75t-45.25-18.75t-18.75-45.25t 18.75-45.25t 45.25-18.75q-34,0 -58-23.25t-33-63.75
q-35,55 -101,55q 39.5,0 67.75,28t 28.25,67.75t-28.25,68t-68,28.25t-67.75-28.25t-28-68t 28-67.75t 68-28q-58,0 -93-44t-35-116q 32-18 58-25t 70-7t 70,7t 58,25q0,22 -4,43.5q 26.5-11.5 68-11.5q 33,0 52.5,5.75t 43.5,20.75q0,60.5 -26.25,97t-69.75,36.5q 26.5,0 45.25,18.75
t 18.75,45.25z"  />
<glyph unicode="&#xf064;" d="M 444.5,400.5q 33.5-35 52.25-80.5t 18.75-96q0-73 -39-135q 15-20 39-22q-16.5-19 -41-19q-22,0 -38.5,20t-16.5,44q0,10 2.5,32.25t 3,32.75q-16.5,36.5 -52.75,64.25t-79.25,39.75q-17.5-7.5 -39-24.5t-38.5-33t-38.75-31.5t-40.25-21q-49.5-14.5 -88.25-9.5t-44.25,27q-3.5,15.5 11.75,33.5t 44.25,34
q-1,1 -2.25,3.25t-1.75,2.75q 26.5-6 59.5-6q 26.5,0 48.5,8.75t 34.5,23.75q 12.5,1 20.75,10t 8.25,21.5q0,13 -9.25,22.5t-22.5,9.5t-22.75-9.5t-9.5-22.5q0-11 7.5-20q-25.5-12 -55.5-12q-19,0 -29.5,0.5t-23.25,2.75t-21.75,6.75q-5,20.5 -5.5,38q-0.5,24.5 7,43.5t 25,36.5q 32,31.5 84.5,47.75t 107.5,16.25q 64.5,0 121-30.5
q 27,30.5 66.5,30.5q 41,0 68.5-33q-22.5-2 -41-14.5t-30-32zM 93,129q 25-44 69.5-70.5t 97-26.5q 73.5,0 128.5,49.5q 3.5-34 29-59q-69.5-54.5 -157.5-54.5q-79.5,0 -144,44.5t-93.5,116q 13.5-0.5 29.5-0.5q 24,0 41.5,1z"  />
<glyph unicode="&#xf065;" d="M 480,272q0-15 2.5-28.5t 6.5-22.75t 8.5-16t 8.25-9.75t 6.25-3q-37,0 -69.25,9.5t-54.75,26q-18.5-3.5 -36.25-3.5t-35.75,3.5l-1-2t-0.5-1.5l 2.75,0 l 2.75,0 q 43.5,0 80.25-15t 58.25-40.75t 21.5-56.25t-21.5-56.25t-58.25-40.75t-80.25-15q-18,0 -36.5,3q-22.5-16.5 -54.75-25.75t-68.75-9.25
q 4.5,0 11.5,8t 13.5,27t 7,42q-32,30 -32,67q0,7 2,16l-1,0 l-1,0 q-17.5,0 -36,3.5q-22.5-16.5 -54.75-26t-69.25-9.5q 2.5,0 6.25,3t 8.25,9.75t 8.5,16t 6.5,22.75t 2.5,28.5q0,0.5 0.25,1.5t 0.25,1.5q-32.5,34.5 -32.5,77q0,34.5 21.5,64t 58.25,46.75t 80.25,17.25q 18,0 36-3.5q 12.5,43 56,71.25t 100,28.25q 43.5,0 80.25-17.25
t 58.25-46.75t 21.5-64q0-42.5 -32.5-77q0-0.5 0.25-1.5t 0.25-1.5z"  />
<glyph unicode="&#xf066;" d="M 437,288l-70.5,0 q-17,29 -46.25,46.5t-64.25,17.5q-53,0 -90.5-37.5t-37.5-90.5t 37.5-90.5t 90.5-37.5q 35,0 64.25,17.5t 46.25,46.5l 70.5,0 l-0.5-0.5l 50.5-45q-8-16.5 -17-30.5l-66,17.5q-11-13 -24.5-24.5l 19.5-65.5q-12.5-8.5 -31-17.5l-46.5,49.5q-16.5-5.5 -33.5-8.5l-17.5-66.5q-12.5-0.5 -14.5-0.5q-8,0 -21,1l-13.5,66
q-15,3 -30,8.5l-45-50.5q-17,8 -30.5,17l 17.5,66q-13,11 -24.5,24.5l-65.5-19.5q-8.5,13 -17.5,31l 49.5,46.5q-5.5,16.5 -8.5,33.5l-66.5,17.5q-0.5,12.5 -0.5,14.5q0,8 1,21l 66,13.5q 3,15 8.5,30l-50.5,45q 8,17 17,30.5l 66-17.5q 11,13 24.5,24.5l-19.5,65.5q 13,8.5 31,17.5l 46.5-49.5q 16.5,5.5 33.5,8.5l 17.5,66.5q 13,0.5 14.5,0.5
q 8,0 21-1l 13.5-66q 15-3 30-8.5l 45,50.5q 17-8 30.5-17l-17.5-66q 13-11 24.5-24.5l 65.5,19.5q 8.5-12.5 17.5-31l-49.5-46.5l0-1 t 0.5-0.5z"  />
<glyph unicode="&#xf067;" d="M 96-32l 0.5,0.5q-44,2 -69,27q-25,24.5 -27,68.5l-0.5,0 l0,160 l 0.5,0 q0,36 23.25,81t 64.75,86.5t 86.5,64.75t 81,23.25l0,0.5 l 160,0 l0-0.5 q 44-2 68.5-27q 25-25 27-69l 0.5,0.5l0-416 l-416,0 zM 480,0l-112,112l-144-112l 256,0 zM 337.5,123.5l-177.5,68.5l-27-188q 47.5,9.5 101.25,40.5t 103.25,79zM 32,48q 1-2.5 4.25-9.75
t 6.25-13.5t 5.5-8.75q 14.5-14.5 26.5-16.75t 38.5,1.75q-79,161.5 -81,166l0-119 zM 274.25,434.25q-23.75,23.75 -74,7t-97.5-64t-64-97.5t 7-74t 74-7t 97.5,64t 64,97.5t-7,74zM 356.5,142.5q 47.5,49.5 78.5,103.25t 40.5,101.25l-187.5-27zM 463,432q-2.5,2.5 -8.5,5.5t-13.5,6.25t-9.5,4.25l-118.5,0 l 165-80
q 4,26 1.75,38t-16.75,26z"  />
<glyph unicode="&#xf068;" d="M 503,203l-99-130q-9-8.5 -21.75-8.5t-21.75,8.75t-9,21.5t 9,21.75l 82.5,108l-82.5,108q-9,9 -9,21.5t 9,21.5t 21.75,9t 21.75-9l 99-129.5q 9-9 9-21.5t-9-21.5zM 256,0q-0.5-1.5 -1.5-5.75t-1.5-5.75l-1.75-5.25t-2.5-5.25t-3.75-4t-5.25-3.5t-6.75-1.75t-9-0.75q-12,0 -23,12.5
t-8,24l 63,444q 8.5,32 48,32q 11,0 14.75-11.75t 0.25-24.75zM 151.5,73.25q-9-8.75 -21.75-8.75t-21.75,8.5l-99,130q-9,9 -9,21.5t 9,21.5l 99,129.5q 9,9 21.75,9t 21.75-9t 9-21.5t-9-21.5l-82.5-108l 82.5-108q 9-9 9-21.75t-9-21.5z"  />
<glyph unicode="&#xf069;" d="M 448,32l-192-64l-192,64l-32,448l 448,0 zM 96,416l 17.5-192l 206.5,0 l0-96 l-64-16l-64,16l0,64 l-75.5,0 l 11.5-128l 128-32l 128,32l 20.5,224l-212.5,0 l0,64 l 218,0 l 6,64l-320,0 z"  />
<glyph unicode="&#xf06a;" d="M 448,32l-192-64l-192,64l-32,448l 448,0 zM 96,416l 6-64l 218,0 l0-64 l-212.5,0 l 6-64l 206.5,0 l0-96 l-64-16l-64,16l0,64 l-75.5,0 l 11.5-128l 128-32l 128,32l 32,352l-320,0 z"  />
<glyph unicode="&#xf06b;" d="M 403.5,240q-54.5,0 -93,38.5t-38.5,93q0,32 18,60.75t 46,47.75q-2-5 -6.25-15.5t-6.5-16t-6-14.75t-5.5-15t-3.75-12.75t-3-12.25t-1-9.75q0-47.5 32.25-79.75t 79.75-32.25q 4.5,0 9.75,1t 12.25,3t 12.75,3.75t 15,5.5t 14.75,6t 16,6.5t 15.5,6.25q-19-28 -47.75-46t-60.75-18zM 368,160
q 30.5,0 57.25,3.5t 70.75,12.5q-27.5-31 -66.5-47.5t-83.5-16.5q-55,0 -101.5,27t-73.5,73.5t-27,101q0,45 16.5,84t 47.5,66.5q-9-44 -12.5-70.75t-3.5-57.25q0-47 24-87.5t 64.5-64.5t 87.5-24zM 288,32q 91.5,0 160,16q-35-39 -85-59.5t-107-20.5q-69.5,0 -128.5,34.25t-93.25,93.25t-34.25,128.5
q0,57 20.5,107t 59.5,85q-16-68.5 -16-160q0-45.5 17.75-87t 47.75-71.5t 71.5-47.75t 87-17.75z"  />
<glyph unicode="&#xf06c;" d="M 256,0q-55.5,0 -100,13.25t-80.5,42.25t-55.75,79.75t-19.75,120.75l0,128 q0,26.5 18.75,45.25t 45.25,18.75l 384,0 q 26.5,0 45.25-18.75t 18.75-45.25l0-128 q0-70 -19.75-120.75t-55.75-79.75t-80.5-42.25t-100-13.25zM 256,160q-21.5,0 -37.75,5.5t-30,19t-21,39.5t-7.25,64l0,64 l-96,0 l0-96 
q 0.5-42 10.75-75t 27.25-54.75t 41.5-36t 52.25-20.25t 60.25-6q 38,0 69.25,8.5t 57.75,26.75t 43.25,50t 21.75,74.75l-96,0 q-18.5-64 -96-64zM 384,384l-32-96l 96-32l 32,96z"  />
<glyph unicode="&#xf06d;" d="M 256-32q-69.5,0 -128.5,34.25t-93.25,93.25t-34.25,128.5t 34.25,128.5t 93.25,93.25t 128.5,34.25t 128.5-34.25t 93.25-93.25t 34.25-128.5t-34.25-128.5t-93.25-93.25t-128.5-34.25zM 256,416q-52,0 -96.25-25.75t-70-70t-25.75-96.25t 25.75-96.25t 70-70t 96.25-25.75q 58,0 106,32l 54,0 l0,54 
q 32,48 32,106q0,52 -25.75,96.25t-70,70t-96.25,25.75z"  />
<glyph unicode="&#xf06e;" d="M 416,59.5l0,260.5 l-160,80l-160-80l0-260.5 l-64,36.5l0,256 l 224,128l 224.5-128l0-256 zM 224,50.5l 32-18.5l 32,18.5l0,267 l 64.5-37.5l0-256 l-96.5-56l-96,56l0,256 l 64,37.5l0-267 z"  />
<glyph unicode="&#xf06f;" d="M 443,250l-21-21.5q-4.5-4.5 -10.75-4.5t-10.75,4.5l-16.5,16.5l0-181 q0-40 -28.25-68t-67.75-28l-64,0 q-40,0 -68,28t-28,68l 64,0 q0-13.5 9.25-22.75t 22.75-9.25l 64,0 q 13,0 22.5,9.25t 9.5,22.75l0,181 l-16.5-16.5q-4.5-4.5 -10.75-4.5t-10.75,4.5l-21.5,21.5q-4.5,4.5 -4.5,10.75t 4.5,10.75l 76,76q 4.5,4.5 15.5,4.5
q 10.5,0 15.5-5l 76-75.5q 4-4.5 4-10.75t-4.5-10.75zM 288,416l-64,0 q-13.5,0 -22.75-9.5t-9.25-22.5l0-181 l 16,16.5q 4.5,4.5 10.75,4.5t 10.75-4.5l 21.5-21.5q 4.5-4.5 4.5-10.75t-4.5-10.75l-75.5-76q-4.5-4.5 -15.5-4.5t-16,5l-75.5,75.5q-4.5,4.5 -4.5,10.75t 4.5,10.75l 21.5,21.5q 4.5,4.5 10.75,4.5t 10.75-4.5l 16.5-16.5l0,181 q0,40 28,68
t 68,28l 64,0 q 39.5,0 67.75-28t 28.25-68l-64,0 q0,13 -9.5,22.5t-22.5,9.5z"  />
<glyph unicode="&#xf070;" d="M 464,384l-16,0 q-23,0 -44-11.75t-37.75-31.75t-28.75-40.5t-22.5-44l 85,0 q 6.5,0 11.25-4.75t 4.75-11.25l0-64 q0-6.5 -4.75-11.25t-11.25-4.75l-119,0 q-4.5-9.5 -10.75-25t-10.5-26.5t-11.25-25.75t-13.5-25.5t-16-23.5t-19.75-21.75t-24.5-17.75t-30.25-14.25t-36.5-8.75t-44-3.25l-16,0 q-6.5,0 -11.25,4.75
t-4.75,11.25l0,64 q0,6.5 4.75,11.25t 11.25,4.75l 16,0 q 25,0 49.5,15.75t 43,40.25t 31.75,51.75t 19.75,52.25q 4,16.5 9.75,34.5t 16.75,44t 24.25,49.25t 32.75,47.5t 41.75,41.5t 52,28.25t 62.75,11l 16,0 q 6.5,0 11.25-4.75t 4.75-11.25l0-64 q0-6.5 -4.75-11.25t-11.25-4.75z"  />
<glyph unicode="&#xf071;" d="M 416,96l-144,0 q-6.5,0 -11.25-4.75t-4.75-11.25t 4.75-11.25t 11.25-4.75l 96,0 q 6.5,0 11.25-4.75t 4.75-11.25l0-16 q0-26.5 -18.75-45.25t-45.25-18.75l-96,0 q-26.5,0 -45.25,18.75t-18.75,45.25l0,112 q0,26.5 10.75,37.25t 37.25,10.75l 128,0 q 26.5,0 53.25,26.75t 26.75,53.25l0,80 l 32,0 q 26.5,0 45.25-18.75t 18.75-45.25
l0-96 q0-36.5 -29.75-66.25t-66.25-29.75zM 288,8q0-3.5 2.25-5.75t 5.75-2.25l 16,0 q 3.5,0 5.75,2.25t 2.25,5.75l0,16 q0,3.5 -2.25,5.75t-5.75,2.25l-16,0 q-3.5,0 -5.75-2.25t-2.25-5.75l0-16 zM 320,224l-128,0 q-26.5,0 -45.25-18.75t-18.75-45.25l0-64 l-64,0 q-26.5,0 -45.25,18.75t-18.75,45.25l0,96 
q0,36.5 29.75,66.25t 66.25,29.75l 144,0 q 6.5,0 11.25,4.75t 4.75,11.25t-4.75,11.25t-11.25,4.75l-96,0 q-6.5,0 -11.25,4.75t-4.75,11.25l0,16 q0,26.5 18.75,45.25t 45.25,18.75l 128,0 q 26.5,0 45.25-18.75t 18.75-45.25l0-128 q0-26.5 -18.75-45.25t-45.25-18.75zM 224,440q0,3.5 -2.25,5.75t-5.75,2.25l-16,0 q-3.5,0 -5.75-2.25
t-2.25-5.75l0-16 q0-3.5 2.25-5.75t 5.75-2.25l 16,0 q 3.5,0 5.75,2.25t 2.25,5.75l0,16 z"  />
<glyph unicode="&#xf072;" d="M 512,224q0-13.5 -9.5-22.75t-22.5-9.25l-192,0 l0-192 q0-13.5 -9.25-22.75t-22.75-9.25l0,0 q-69.5,0 -128.5,34.25t-93.25,93.25t-34.25,128.5t 34.25,128.5t 93.25,93.25t 128.5,34.25l0,0 q 69.5,0 128.5-34.25t 93.25-93.25t 34.25-128.5zM 64,224q0-71 45.75-124.25t 114.25-64.75l0,378 
q-68.5-11.5 -114.25-64.75t-45.75-124.25zM 288,413l0-157 l 157,0 q-10,60.5 -53.5,103.75t-103.5,53.25z"  />
<glyph unicode="&#xf073;" d="M 464,384q-20,0 -34,14t-14,34t 14,34t 34,14t 34-14t 14-34t-14-34t-34-14zM 421.5,250.5l-37.5,37.5q 10,10.5 8.5,30.25t-12,30.25t-30.25,12t-30.25-8.5l-96.5-96l-37.5,37.5l 93.5,93.5q 29,29 69.75,29t 69.75-29q 28-28 28.75-67.75t-26.25-68.75zM 131.5,348.5q-10.5-10.5 -12-30.25t 8.5-30.25
l 96-96l-38-37.5l-93,93q-29,29 -29,69.75t 29,69.75q 28,28 67.75,28.75t 68.75-26.25l-37.5-37.5q-10.5,10 -30.25,8.5t-30.25-12zM 48,384q-20,0 -34,14t-14,34t 14,34t 34,14t 34-14t 14-34t-14-34t-34-14zM 48,64q 20,0 34-14t 14-34t-14-34t-34-14t-34,14t-14,34t 14,34t 34,14
zM 90,197l 37.5-37.5q-10-10.5 -8.5-30.25t 12-30.25t 30.25-12t 30.25,8.5l 96,96l 37.5-38l-93-93q-29-29 -69.75-29t-69.75,29q-28,28 -28.75,67.75t 26.25,68.75zM 381,99q 10.5,10.5 12,30.25t-8.5,30.25l-96,96.5l 37.5,37.5l 93.5-93.5q 29-29 29-69.75t-29-69.75q-28-28 -67.75-28.75
t-68.75,26.25l 37.5,37.5q 10.5-10 30.25-8.5t 30.25,12zM 464,64q 20,0 34-14t 14-34t-14-34t-34-14t-34,14t-14,34t 14,34t 34,14z"  />
<glyph unicode="&#xf074;" d="M 384,384q0-7 0.5-12.25t 2.25-10.5t 3-8.5t 5-8.5t 5.25-7.5t 7.25-9.25t 8.25-9.5q 11-14 14.25-22.75t 0.75-20.25q-3.5-17 -8-30l-38.5-101l-41.5,94q-4.5,11 -18.5,58.75t-14,51.25q0,7 5,10.5q 11,9 21,9.5l0,16 l-144,0 l0-16 q 4.5-0.5 7-3t 4.75-5.75t 3.75-4.75q 7-6 16.5-29l 16-53.5
l-32-128l-66,174.5q-10,25.5 -10,31t 5.5,9.5q 12,9 22.5,9l0,16 l-103.5,0 q 35.5,45 87.75,70.5t 111.75,25.5q 47.5,0 91-16.75t 78-47.25q-19.5,0 -30.25-8t-10.75-24zM 33,349.5q 12.5-14.5 30-61.5l 97-256l 32,0 l 64,192l 80-192l 32,0 l 75.5,195q 3,8.5 12,26.75t 15.25,35t 7.75,30.25q 1.5,20 1.5,29q 32-58 32-124
q0-69.5 -34.25-128.5t-93.25-93.25t-128.5-34.25q-52,0 -99.5,20.25t-81.75,54.5t-54.5,81.75t-20.25,99.5q0,67 33,125.5z"  />
<glyph unicode="&#xf075;" d="M 256-32q-61,0.5 -112.5,29.75t-81.5,79.5t-30,109.25q0,63.5 34.5,115.75t 91.5,80.75q 19.5,10 34.75,22.5t 23.5,23.75t 12.75,22t 4.25,18.25t-3.75,10.5q 24-21.5 31-29.5q 16-20 38.75-36t 64.75-37q 52.5-26.5 84.25-79.5t 31.75-114.5q0-59 -30-108.75t-81.5-78.5t-112.5-28.25zM 272,0q 26,0 53,10.5t 27,21.5
q0,12 -2,14t-14,2q-9,0 -29.5-8t-34.5-8q-10.5,0 -25.25,8t-22.75,8q-4.5,0 -6.75-0.25t-4.75-1.75t-3.5-4.75t-1-9.25q0-9 19.75-20.5t 44.25-11.5zM 352,96q0,10.5 -12,21.25t-36,10.75q-23,0 -35.25-9.5t-12.25-22.5q0-12 2-14t 14-2q 6.5,0 9.5,2.5t 3.75,5.5t 5.25,5.5t 13,2.5q 10.5,0 17.5-8
t 14.5-8q 5,0 7,0.25t 4.5,1.75t 3.5,4.75t 1,9.25zM 419.5,224q-22,0 -40.5-4.5t-28.75-10.25t-22.5-11t-23.25-6.75l-0.25,0.25l-0.25,0.25q-8.5,0 -22.25,5t-27.5,11t-36.25,11t-46,5q-28,0 -51.75-22.75t-23.75-49.25t 16.5-41.25t 44.5-14.75q 20.5,0 43.25,10t 39.25,22t 34.25,22t 29.75,10q 11,1.5 21.5-4.75
t 19.25-15.75t 17.25-19.5t 18.25-17t 19.25-7q 17.5,0 33,26.75t 15.5,54.25q0,17.5 -7.25,32.25t-21.25,14.75z"  />
<glyph unicode="&#xf076;" d="M 402.5,36q 8.5-16.5 12-31.75t 0.25-25.75t-14.75-10.5q-30.5,41 -59.5,90q-14,10 -42.5,25.25t-51,27.75t-51.5,37t-51.5,55q0-6 -4-11.25t-8-12.5t-4-19.25l0-4 q0-8 -0.25-11.5t-1.5-8.25t-4.75-6.5t-9.5-1.75q-12.5,0 -30.25,25t-17.75,39q0,27 9.5,60.75t 21.5,35.25q-16,29 -21,39
q-12,19.5 -32.5,50t-31,47.5t-10.5,23.5q0,13 9.25,22.5t 22.75,9.5t 22.75-9.5t 9.25-22.5q0-3.5 2.5-16q 23,16 61.5,16q 24,0 66.25-34.5t 61.75-61.5q0-0.5 0.5-1l 0.5-0.5q 27.5-4.5 56.5-18.25t 49.75-34.75t 20.75-41.5l0-0.5 q-7.5-0.5 -29.75,0.25t-33.75,0.75q 10-18 15.5-32.5q 6.5-18 11-43q 4-2 5-5
q 9-22 28.75-44t 41.5-39t 42.5-33t 34-31.5t 13.25-28.5l-17,5t-44.25,14t-48.25,17z"  />
<glyph unicode="&#xf077;" d="M 352-32q 11,7.5 18,18.25t 9.75,24.25t 3.5,23t 0.75,24.5q0,19 -10.25,38.75t-26,35t-31,26.25t-28.75,18q-27,13.5 -45.5,34.25t-18.5,45.75q-8.5,0 -20.25-14.75t-11.75-33.25q0-9 9.75-19.5t 21.25-19t 21-20.5t 9.5-24q0-24.5 -11.5-42.75t-34-18.25t-35.25,19t-12.75,45q-9-4.5 -15.5-11.75t-9.75-14
t-4.75-17.75t-1.75-17.5t-0.25-19q0-57 32-80q-32.5,6 -56.25,18t-37.5,26.25t-21.5,34.5t-10.25,38.75t-2.5,42.5q0,45 46.75,115.75t 97.25,108.25q 2.5,2.5 14,11.25t 21.25,18t 20.75,23.25t 17.5,33.5t 6.5,42q 6.5,0 16.75-6t 21-15.75t 18.5-25.5t 7.75-32.75q0-16 -5-30.5t-11-23.5t-11-20.25t-5-21.75
q0-20 14-34t 34-14q 17.5,0 30.75,8.5t 17.25,23.5q 44-32 70-75.5t 26-84.5q0-23 -4-45t-13.5-43.25t-23.75-36.75t-36.5-25.25t-50.25-9.75z"  />
<glyph unicode="&#xf078;" d="M 495.5-32l-67,67q-34.5-31.5 -78.75-49.25t-93.25-17.75q-79.5,0 -144.25,44.75t-93.25,116.25l 59.5,24q 21.5-54 69.75-87.5t 108.25-33.5q 72.5,0 127,48.5l-63,63.5q-0.5,7 4.25,11.75t 11.75,4.25l 154.5,0 q 7,0 13.75-6.75t 7.25-13.75l 0.5-160q 0.5-12 -17-11.5zM 256.5,416q-72.5,0 -127-48l 63-63.5
q 0.5-7 -4.25-11.75t-11.75-4.75l-154.5,0 q-7,0.5 -13.75,7.25t-7.25,13.75l-0.5,160q-0.5,12 17,11.5l 67-67q 34.5,31.5 78.75,49t 93.25,17.5q 79.5,0 144.25-44.5t 93.25-116.5l-59.5-23.5q-21.5,54 -69.75,87.25t-108.25,33.25z"  />
<glyph unicode="&#xf079;" d="M 448-32l-352,0 q-26.5,0 -45.25,18.75t-18.75,45.25l0,32 q-13,0 -22.5,9.25t-9.5,22.75l0,128 q0,13 9.5,22.5t 22.5,9.5l0,160 q0,26.5 18.75,45.25t 45.25,18.75l 352,0 q 26.5,0 45.25-18.75t 18.75-45.25l0-384 q0-26.5 -18.75-45.25t-45.25-18.75zM 48,224q-6.5,0 -11.25-4.75t-4.75-11.25l0-96 q0-6.5 4.75-11.25t 11.25-4.75
l 288,0 q 6.5,0 11.25,4.75t 4.75,11.25l0,96 q0,6.5 -4.75,11.25t-11.25,4.75l-288,0 zM 480,400q0,6.5 -4.75,11.25t-11.25,4.75l-384,0 q-6.5,0 -11.25-4.75t-4.75-11.25l0-144 l 288,0 q 13.5,0 22.75-9.25t 9.25-22.75l0-128 q0-13 -9.25-22.5t-22.75-9.5l-288,0 l0-16 q0-6.5 4.75-11.25t 11.25-4.75l 384,0 q 6.5,0 11.25,4.75
t 4.75,11.25l0,352 zM 416,320q-13.5,0 -22.75,9.25t-9.25,22.75t 9.25,22.75t 22.5,9.25t 22.75-9.25t 9.5-22.75t-9.25-22.75t-22.75-9.25zM 320,320q-13.5,0 -22.75,9.25t-9.25,22.75t 9.25,22.75t 22.75,9.25t 22.75-9.25t 9.25-22.75t-9.25-22.75t-22.75-9.25zM 224,320l-96,0 q-13,0 -22.5,9.25t-9.5,22.75
t 9.5,22.75t 22.5,9.25l 96,0 q 13.5,0 22.75-9.25t 9.25-22.75t-9.25-22.75t-22.75-9.25zM 288.25,128q-13.25,0 -22.75,9.25t-9.5,22.5t 9.5,22.75t 22.75,9.5t 22.5-9.5t 9.25-22.75t-9.25-22.5t-22.5-9.25zM 192.25,128q-13.25,0 -22.75,9.25t-9.5,22.5t 9.5,22.75t 22.75,9.5t 22.5-9.5t 9.25-22.75t-9.25-22.5t-22.5-9.25z
M 96.25,128q-13.25,0 -22.75,9.25t-9.5,22.5t 9.5,22.75t 22.75,9.5t 22.5-9.5t 9.25-22.75t-9.25-22.5t-22.5-9.25z"  />
<glyph unicode="&#xf07a;" d="M 480,288l-64,0 l-320,0 l-64,0 q-13,0 -22.5,9.5t-9.5,22.5l0,128 q0,13.5 9.5,22.75t 22.5,9.25l 448,0 q 13,0 22.5-9.25t 9.5-22.75l0-128 q0-13 -9.5-22.5t-22.5-9.5zM 96.25,416q-13.25,0 -22.75-9.25t-9.5-22.5t 9.5-22.75t 22.75-9.5t 22.5,9.5t 9.25,22.75t-9.25,22.5t-22.5,9.25zM 416,416l-192,0 q-13,0 -22.5-9.25t-9.5-22.5
t 9.5-22.75t 22.5-9.5l 192,0 q 13.5,0 22.75,9.5t 9.25,22.75t-9.25,22.5t-22.75,9.25zM 224.5,256l 9-9l-36-35.5q-2.5-3 -4-7.75t-1.5-8.25l0-3.5 q-0.5-13 5.5-19.5l 36-35.5l-137.5-137.5l0,0.5 l0,256 l 128.5,0 zM 398.5-28.5q-7-3.5 -14.5-3.5l-256,0 q-7.5,0 -14.5,3.5l 142.5,143zM 287.5,256l 128.5,0 l0-256 l0-0.5 l-192.5,192.5z"  />
<glyph unicode="&#xf07b;" d="M 448,96l-160,0 l0-64 l 64,0 q 13,0 22.5-9.5t 9.5-22.75t-9.5-22.5t-22.5-9.25l-192,0 q-13.5,0 -22.75,9.25t-9.25,22.5t 9.25,22.75t 22.75,9.5l 64,0 l0,64 l-160,0 q-26.5,0 -45.25,18.75t-18.75,45.25l0,192 q0,13 9.5,22.5t 22.5,9.5l 240,0 q0,4 5.75,14.5t 11.25,19l 6,8.5q 3.5,9.5 14,15.75t 22,6.25l 120,0 q 12,0 22.5-6.25t 14-15.75
l 24.5-42l0-224 q0-26.5 -18.75-45.25t-45.25-18.75zM 288,189l0,26.5 q 32,18.5 32,84q0,26 -18,39.25t-46,13.25t-46-13.25t-18-39.25q0-62.5 32-83l0-27.5 q-28-5.5 -45.75-18.5t-18.25-29q0-13.5 96-13.5t 96,13.5q-0.5,16 -18.25,29t-45.75,18.5zM 23,458q 3.5,9.5 14,15.75t 22,6.25l 120,0 q 12,0 22.5-6.25
t 14.5-15.75l 24-42l-240,0 z"  />
<glyph unicode="&#xf07c;" d="M 448,96l-160,0 l0-64 l 64,0 q 13,0 22.5-9.5t 9.5-22.75t-9.5-22.5t-22.5-9.25l-192,0 q-13,0 -22.5,9.25t-9.5,22.5t 9.25,22.75t 22.75,9.5l 64,0 l0,64 l-160,0 q-26.5,0 -45.25,18.75t-18.75,45.25l0,192 q0,13 9.5,22.5t 22.5,9.5l 240,0 l 23,42.5q 3.5,9 14,15.25t 22,6.25l 120,0 q 12,0 22.5-6.25t 14-15.25q 24.5-29 24.5-42.5l0-224 
q0-26.5 -18.75-45.25t-45.25-18.75zM 256,352q-43.5,0 -80.25-21.5t-58.25-58.25t-21.5-80.25q0-16.5 3-32l 33,0 q-4,16 -4,32q0,48 32,84.5l0-4.5 l 65.5-88.5q 2.5-10.5 11-17t 19.5-6.5q 12,0 20.75,7.5t 10.75,19l 32.5,53.5l0,0 l0,16 l-16,0 l0,0 l-46.5-28.5l-81.5,60.5l-4.5,0 q 36.5,32 84.5,32q 53,0 90.5-37.5t 37.5-90.5
q0-15.5 -4-32l 33,0 q 3,16 3,32q0,43.5 -21.5,80.25t-58.25,58.25t-80.25,21.5zM 23,458q 3.5,9.5 14,15.75t 22,6.25l 120,0 q 12,0 22.5-6.25t 14.5-15.75l 24-42l-240,0 z"  />
<glyph unicode="&#xf07d;" d="M 480-32l-32,0 q-13.5,0 -22.75,9.5t-9.25,22.5l0,448 q0,13 9.25,22.5t 22.75,9.5l 32,0 q 13,0 22.5-9.5t 9.5-22.5l0-448 q0-13 -9.5-22.5t-22.5-9.5zM 352-32l-32,0 q-13.5,0 -22.75,9.5t-9.25,22.5l0,320 q0,13 9.25,22.5t 22.75,9.5l 32,0 q 13,0 22.5-9.5t 9.5-22.5l0-320 q0-13 -9.5-22.5t-22.5-9.5zM 224-32l-32,0 q-13.5,0 -22.75,9.5
t-9.25,22.5l0,192 q0,13.5 9.25,22.75t 22.75,9.25l 32,0 q 13,0 22.5-9.25t 9.5-22.75l0-192 q0-13 -9.5-22.5t-22.5-9.5zM 96,96q 13,0 22.5-9.5t 9.5-22.75t-9.5-22.5t-22.5-9.25l-32,0 l0-32 q0-13 -9.5-22.5t-22.75-9.5t-22.5,9.5t-9.25,22.5l0,448 q0,13 9.25,22.5t 22.75,9.5l 64,0 q 13,0 22.5-9.5t 9.5-22.75t-9.5-22.5
t-22.5-9.25l-32,0 l0-64 l 32,0 q 13,0 22.5-9.5t 9.5-22.75t-9.5-22.5t-22.5-9.25l-32,0 l0-64 l 32,0 q 13,0 22.5-9.25t 9.5-22.5t-9.5-22.75t-22.5-9.5l-32,0 l0-64 l 32,0 z"  />
<glyph unicode="&#xf07e;" d="M 448,0l-352,0 q-26.5,0 -45.25,18.75t-18.75,45.25l0,64 q-13,0 -22.5,9.5t-9.5,22.5l0,128 q0,13.5 9.5,22.75t 22.5,9.25l0,64 q0,26.5 18.75,45.25t 45.25,18.75l 352,0 q 26.5,0 45.25-18.75t 18.75-45.25l0-320 q0-26.5 -18.75-45.25t-45.25-18.75zM 480,352q0,13.5 -9.25,22.75t-22.75,9.25l-352,0 q-13,0 -22.5-9.25t-9.5-22.75
l0-32 l 32,0 l0,16 q0,6.5 4.75,11.25t 11.25,4.75l 32,0 q 6.5,0 11.25-4.75t 4.75-11.25l0-16 l 32,0 l0,16 q0,6.5 4.75,11.25t 11.25,4.75l 32,0 q 6.5,0 11.25-4.75t 4.75-11.25l0-16 l 32,0 l0,16 q0,6.5 4.75,11.25t 11.25,4.75l 32,0 q 6.5,0 11.25-4.75t 4.75-11.25l0-16 l 32,0 l0,16 q0,6.5 4.75,11.25t 11.25,4.75l 32,0 q 6.5,0 11.25-4.75t 4.75-11.25l0-16 l 32,0 l0,32 
zM 480,272q0,6.5 -4.75,11.25t-11.25,4.75l-416,0 q-6.5,0 -11.25-4.75t-4.75-11.25l0-96 q0-6.5 4.75-11.25t 11.25-4.75l 416,0 q 6.5,0 11.25,4.75t 4.75,11.25l0,96 zM 480,128l-32,0 l0-16 q0-6.5 -4.75-11.25t-11.25-4.75l-32,0 q-6.5,0 -11.25,4.75t-4.75,11.25l0,16 l-32,0 l0-16 q0-6.5 -4.75-11.25t-11.25-4.75l-32,0 
q-6.5,0 -11.25,4.75t-4.75,11.25l0,16 l-32,0 l0-16 q0-6.5 -4.75-11.25t-11.25-4.75l-32,0 q-6.5,0 -11.25,4.75t-4.75,11.25l0,16 l-32,0 l0-16 q0-6.5 -4.75-11.25t-11.25-4.75l-32,0 q-6.5,0 -11.25,4.75t-4.75,11.25l0,16 l-32,0 l0-32 q0-13.5 9.5-22.75t 22.5-9.25l 352,0 q 13.5,0 22.75,9.25t 9.25,22.75l0,32 zM 416.25,192
q-13.25,0 -22.75,9.5t-9.5,22.75t 9.5,22.5t 22.75,9.25t 22.5-9.25t 9.25-22.5t-9.25-22.75t-22.5-9.5zM 320.25,192q-13.25,0 -22.75,9.5t-9.5,22.75t 9.5,22.5t 22.75,9.25t 22.5-9.25t 9.25-22.5t-9.25-22.75t-22.5-9.5zM 224.25,192q-13.25,0 -22.75,9.5t-9.5,22.75t 9.5,22.5t 22.75,9.25t 22.5-9.25t 9.25-22.5t-9.25-22.75
t-22.5-9.5zM 128.25,192q-13.25,0 -22.75,9.5t-9.5,22.75t 9.5,22.5t 22.75,9.25t 22.5-9.25t 9.25-22.5t-9.25-22.75t-22.5-9.5z"  />
<glyph unicode="&#xf07f;" d="M 256-32q-52,0 -99.5,20.25t-81.75,54.5t-54.5,81.75t-20.25,99.5t 20.25,99.5t 54.5,81.75t 81.75,54.5t 99.5,20.25t 99.5-20.25t 81.75-54.5t 54.5-81.75t 20.25-99.5t-20.25-99.5t-54.5-81.75t-81.75-54.5t-99.5-20.25zM 256,416q-52,0 -96.25-25.75t-70-70t-25.75-96.25q0-42 17-79
t 47-64l0,239 q0,13.5 9.5,22.75t 22.75,9.25t 22.5-9.25t 9.25-22.75l0-277 q 31.5-11 64-11q 52,0 96.25,25.75t 70,70t 25.75,96.25t-25.75,96.25t-70,70t-96.25,25.75zM 352,192l0,0 l-96-64l0,0 l0,0 q-13,0 -22.5,9.5t-9.5,22.5l0,128 q0,13.5 9.5,22.75t 22.5,9.25l 96-64l0,0 q 0.5,0 6.25-3t 7.5-4.25
t 6.25-4.25t 6.5-5.75t 3.75-6.75t 1.75-8q0-3 -0.75-6t-2-5.25t-3.75-4.75l-4-4t-5.25-3.5t-5-2.75t-5.75-3z"  />
<glyph unicode="&#xf080;" d="M 427.5,96l-107.5,0 l-128-128l0,128 l-107.5,0 q-28.5,0 -56.5,28.5t-28,57.5l0,212 q0,29 28,57.5t 56.5,28.5l 343,0 q 28.5,0 56.5-28.5t 28-57.5l0-212 q0-29 -28-57.5t-56.5-28.5zM 190.5,401.5q 3,6 0.25,10.25t-9.75,4.25l-34,0 q-7,0 -14-4.25t-10-10.25l-57.5-115q-1.5-3 -1.5-6.5t 1.5-6.5l 57.5-99q 3-6 10-10.25
t 14-4.25l 34,0 q 7,0 9.75,4.25t-0.25,10.25l-58.5,106zM 288,400q0,6.5 -4.75,11.25t-11.25,4.75l-32,0 q-6.5,0 -11.25-4.75t-4.75-11.25l0-128 q0-6.5 4.75-11.25t 11.25-4.75l 32,0 q 6.5,0 11.25,4.75t 4.75,11.25l0,128 zM 288,208q0,6.5 -4.75,11.25t-11.25,4.75l-32,0 q-6.5,0 -11.25-4.75t-4.75-11.25l0-32 
q0-6.5 4.75-11.25t 11.25-4.75l 32,0 q 6.5,0 11.25,4.75t 4.75,11.25l0,32 zM 448,208q0,6.5 -4.75,11.25t-11.25,4.75l-96,0 q-6.5,0 -11.25-4.75t-4.75-11.25l0-32 q0-6.5 4.75-11.25t 11.25-4.75l 96,0 q 6.5,0 11.25,4.75t 4.75,11.25l0,32 z"  />
<glyph unicode="&#xf081;" d="M 512,224q0-55.5 -13-93.5t-43-64.25t-79-38.25t-121-12t-121,12t-79,38.25t-43,64.25t-13,93.5q0,74.5 39,115.5q-7,51 -7,76.5q0,6.5 4.75,11.25t 11.25,4.75q 6,0 42-16.5t 49-26q 49,10.5 117,10.5q 59,0 104.5-8q 15.5,10 48.75,25t 38.75,15q 6.5,0 11.25-4.75t 4.75-11.25
q0-17.5 -5-63.5q 53-41.5 53-128.5zM 256,304q-10,0 -29,0.5q-23,1 -44-0.25t-39.25-3.75t-33-11t-25-22t-16-36.5t-5.75-55q0-61 48.75-94.5t 143.25-33.5t 143.25,33.5t 48.75,94.5q0,32 -5.75,55t-16,36.5t-25,22t-33,11t-39.25,3.75t-44,0.25q-19-0.5 -29-0.5zM 352,144q-13.5,0 -22.75,14
t-9.25,34t 9.5,34t 22.5,14t 22.5-14t 9.5-34t-9.25-34t-22.75-14zM 272,80l-32,0 q-6.5,0 -11.25,4.75t-4.75,11.25t 4.75,11.25t 11.25,4.75l 32,0 q 6.5,0 11.25-4.75t 4.75-11.25t-4.75-11.25t-11.25-4.75zM 160.25,144q-13.25,0 -22.75,14t-9.5,34t 9.5,34t 22.75,14t 22.5-14t 9.25-34t-9.25-34t-22.5-14z"  />
<glyph unicode="&#xf082;" d="M 480,160l-32,0 l0-128 l 16,0 q 25,0 36.5-17.5t 11.5-46.5l-192,0 q0,29 11.5,46.5t 36.5,17.5l 16,0 l0,128 l-256,0 l0-128 l 16,0 q 25,0 36.5-17.5t 11.5-46.5l-192,0 q0,29 11.5,46.5t 36.5,17.5l 16,0 l0,128 l-32,0 q-13,0 -22.5,9.25t-9.5,22.75l0,256 q0,13 9.25,22.5t 22.75,9.5l 96,0 l0-64 l-16,0 q-6.5,0 -11.25-4.75t-4.75-11.25l0-32 q0-6.5 4.75-11.25
t 11.25-4.75l 64,0 q 6.5,0 11.25,4.75t 4.75,11.25l0,32 q0,6.5 -4.75,11.25t-11.25,4.75l-16,0 l0,64 l 192,0 l0-64 l-16,0 q-6.5,0 -11.25-4.75t-4.75-11.25l0-32 q0-6.5 4.75-11.25t 11.25-4.75l 64,0 q 6.5,0 11.25,4.75t 4.75,11.25l0,32 q0,6.5 -4.75,11.25t-11.25,4.75l-16,0 l0,64 l 96,0 q 13,0 22.5-9.5t 9.5-22.5l0-256 q0-13.5 -9.5-22.75
t-22.5-9.25z"  />
<glyph unicode="&#xf083;" d="M 471,96q-12,0 -24.75,9t-21.25,23.5q 4.5-0.5 7-0.5q 20,0 34,9.5t 14,22.5q0,12.5 -12.5,21.5t-31,10.5q-20.5-14 -69.75-23t-110.75-9q-79.5,0 -135.75,14.25t-56.25,33.75q0,15 33,27q 7-18 57-30.5t 118-12.5q 56.5,0 101.5,9t 64,23q 6-4.5 8.5-9q 13,9 25,9q 17,0 29-18.75t 12-45.25
t-12-45.25t-29-18.75zM 288,320.5q0-16.5 5-29.5t 11-20.5t 11-19.75t 5-26.75q-2.5,1.5 -6.75,4t-15.5,11.75t-19.5,19.5t-15.25,26.75t-7,34.5q0,16.5 15.75,34.75t 37.25,31t 42.5,21.25t 32.5,8q-9,0 -31.75-15.5t-43.5-39t-20.75-40.5zM 192,304q0-17.5 8-37.5t 16-31.5l 8-11.5q-24,0 -44,25.5t-20,55
q0,13 10,26.25t 24,24t 28,20.25t 24,18.75t 10,16.25q0,14 -1.5,24.5t-8.25,24t-19.25,21.5q 31-3.5 46-22.25t 15-47.75q0-16 -10-28.5t-24-20.5t-28-15.5t-24-17.75t-10-23.25zM 256,64q 73.5,0 110.5,16q 17.5-7.5 17.5-16q0-13 -37.5-22.5t-90.5-9.5t-90.5,9.5t-37.5,22.5q0,8.5 17.5,16q 37-16 110.5-16z
M 96,128q0,8.5 21.5,16q 46.5-16 138.5-16t 138.5,16q 21.5-7.5 21.5-16q0-13 -47-22.5t-113.25-9.5t-113,9.5t-46.75,22.5zM 64,64q0-17.5 25.75-32.25t 70-23.25t 96.25-8.5t 96.25,8.5t 70,23.25t 25.75,32.25q0,5.5 -3,11q 67-18 67-43q0-17.5 -34.25-32.25t-93.25-23.25t-128.5-8.5t-128.5,8.5
t-93.25,23.25t-34.25,32.25q0,25 67,43q-3-5.5 -3-11z"  />
<glyph unicode="&#xf084;" d="M 193.5,256l 64,32l 64-32l0-64 l-64-32l-64,32l0,64 zM 469.5,254.5l-95-62.5q-10,0 -15.5,6.5t-5.5,16l0,65.5 l-96,56l-95.5-56l0-112 l 221.5-129.5l-96-63.5q-12.5-7 -30.25-7t-30.25,7l-181,119.5q-14,8 -12.5,19.5l0,220 q-1.5,11.5 12.5,19l 181,120q 12.5,7 30.25,7t 30.25-7l 181.5-120
q 12.5-7 12-17l 0.5,0 l0-62 q 2-11.5 -12-19.5z"  />
<glyph unicode="&#xf085;" d="M 256-32q-52,0 -99.5,20.25t-81.75,54.5t-54.5,81.75t-20.25,99.5t 20.25,99.5t 54.5,81.75t 81.75,54.5t 99.5,20.25t 99.5-20.25t 81.75-54.5t 54.5-81.75t 20.25-99.5t-20.25-99.5t-54.5-81.75t-81.75-54.5t-99.5-20.25zM 101,288l-69,0 q0-30 18.5-58t 45.5-35.5l0-67.5 q-14-1.5 -23-5.75t-9-9.25
q0-6.5 14-11.25t 34-4.75t 34,4.75t 14,11.25q0,5 -9,9.25t-23,5.75l0,67.5 q 18.5,5 34.5,22q-47,27 -61.5,71.5zM 128,320q0-33 27-58.75t 69-33.75l0-136 q-14.5-4 -23.25-11.5t-8.75-16q0-13 18.75-22.5t 45.25-9.5t 45.25,9.5t 18.75,22.5q0,8.5 -8.75,16t-23.25,11.5l0,136 q 42,8 69,33.75t 27,58.75
l-256,0 zM 411,288q-14.5-44.5 -61.5-71.5q 16-17 34.5-22l0-67.5 q-14-1.5 -23-5.75t-9-9.25q0-6.5 14-11.25t 34-4.75t 34,4.75t 14,11.25q0,5 -9,9.25t-23,5.75l0,67.5 q 27,7.5 45.5,35.5t 18.5,58l-69,0 l0,0 z"  />
<glyph unicode="&#xf086;" d="M 498,368l-159.5,0 l 164-33.5q 6-1.5 9.25-7.25t 1.75-12t-7.25-9.5t-11.75-1.25l-110.5,22l 121.5-56.5q 6-3.5 7.75-10t-1.75-12.25t-10-7.5t-12.5,1.75l-136,64l 161-258q0-13.5 -9.5-22.75t-22.5-9.25l-448,0 q-13.5,0 -22.75,9.25t-9.25,22.75l 135.5,218.5l-88.5-54.5q-11.5-6.5 -23.75-3t-18.75,15
t-3.25,24.25t 14.75,19.25l 193.5,118.5l 23,37q 9.5,9.5 22.75,9.5t 22.25-9.5l 14.5-23l 204,0 q 6.5,0 11.25-4.75t 4.75-11.5t-4.75-11.25t-11.25-4.5zM 258,384l-208-336l 416,0 z"  />
<glyph unicode="&#xf087;" d="M 480,32l-192,0 q-13,0 -22.5,9.25t-9.5,22.75l0,320 q0,13 9.5,22.5t 22.5,9.5l 192,0 q 13,0 22.5-9.5t 9.5-22.5l0-320 q0-13.5 -9.25-22.75t-22.75-9.25zM 448,352l-128,0 l0-256 l 128,0 l0,256 zM 192,32l-160,0 q-13,0 -22.5,9.25t-9.5,22.75t 9.5,22.75t 22.5,9.25l 32,0 l0,256 l-32,0 q-13,0 -22.5,9.25t-9.5,22.5t 9.5,22.75t 22.5,9.5l 64,0 
q 13.5,0 22.75-9.5t 9.25-22.5l0-288 l 32,0 l0,32 q0,13.5 9.5,22.75t 22.75,9.25t 22.5-9.5t 9.25-22.5l0-64 q0-13.5 -9.25-22.75t-22.75-9.25z"  />
<glyph unicode="&#xf088;" d="M 448-32l-352,0 q-13.5,0 -22.75,9.25t-9.25,22.75l0,447.5 q0,13.5 9.25,22.75t 22.75,9.25l 192,0 l0-176 q0-6.5 4.5-11.25t 11.5-4.75l 175.5,0 l0-0.5 l0-287 q0-13.5 -9.25-22.75t-22.25-9.25zM 380.5,160l-89.5,87q-8.5,9 -21,9t-21.5-9l-42.5-42.5t-44-44.5q-5.5-5 0.75-18.5t 17.25-13.5l 44,0 l0-79.5 q0-7 4.5-11.5t 11.5-4.5
l 64,0 q 6.5,0 11.25,4.5t 4.75,11.5l0,79.5 l 42,0 q 12.5,0 19,12.75t-0.5,19.25zM 320,480q 12.5,0 22-9l 128-128.5q 9.5-9.5 9.5-23l-159.5,0 l0,160.5 z"  />
<glyph unicode="&#xf089;" d="M 447.5-32l-351.5,0 q-13.5,0 -22.75,9.25t-9.25,22.75l0,447.5 q0,13.5 9.25,22.75t 22.75,9.25l 192,0 l0-176 q0-6.5 4.5-11.25t 11.5-4.75l 175.5,0 l0-0.5 l0-287 q0-13.5 -9.25-22.75t-22.75-9.25zM 362,160l-42,0 l0,80 q0,7 -4.75,11.5t-11.25,4.5l-64,0 q-6.5,0 -11.25-4.5t-4.75-11.5l0-80 l-43.5,0 q-11.5,0 -17.5-13.25t-1-18.75l 44.5-44.5
t 42.5-42q 8.5-9 21-9t 21,9l 89.5,86.5q 7,7 0.5,19.5t-19,12.5zM 320,480q 13,0 22-9l 128-128.5q 9.5-9.5 9.5-23l-159.5,0 l0,160.5 z"  />
<glyph unicode="&#xf08a;" d="M 480-32l-256,0 l0,0.5 q-13,0 -22.5,9.25t-9.5,22.75l0,61 q 42.5,18.5 69.25,55t 26.75,76q0,34.5 -21.5,64t-58.25,46.75t-80.25,17.25q-13,0 -22.5,9.25t-9.5,22.75l0,95.5 q0,13 9.5,22.5t 22.5,9.5l 192,0 l0-176 q0-6.5 4.75-11.25t 11.25-4.75l 175.5,0 q 0.5-0.5 0.5-1l0-287 q0-13.5 -9.25-22.75t-22.75-9.25zM 352,480.5
q 13-0.5 22-9.5l 128.5-128.5q 9.5-9.5 9-22.5l-159.5,0 l0,160.5 zM 256,192.5q0-33.5 -27-59.25t-69-33.75l0-19 q0-7 -4.75-11.5t-11.25-4.5l-32,0 q-6.5,0 -11.25,4.5t-4.75,11.5l0,48 q0,13 9.5,22.5t 22.5,9.5q 26.5,0 45.25,9.25t 18.75,22.5t-18.75,22.75t-45.25,9.5t-45.25-9.5t-18.75-22.5q0-7 -4.75-11.5t-11.25-4.5l-32,0 
q-6.5,0 -11.25,4.5t-4.75,11.5l0,32 q0,7.5 8.75,18t 24.25,21t 40.75,17.75t 54.25,7.25q 53,0 90.5-28.25t 37.5-67.75zM 112,32.5l 32,0 q 6.5,0 11.25-4.75t 4.75-11.25l0-32 q0-7 -4.75-11.5t-11.25-4.5l-32,0 q-6.5,0 -11.25,4.5t-4.75,11.5l0,32 q0,6.5 4.75,11.25t 11.25,4.75z"  />
<glyph unicode="&#xf08b;" d="M 448-32l-32,0 q-13,0 -22.5,9.5t-9.5,22.75t 9.5,22.5t 22.5,9.25l 16,0 q 6.5,0 11.25,4.75t 4.75,11.25l0,16 q0,13.5 9.25,22.75t 22.5,9.25t 22.75-9.25t 9.5-22.75l0-32 q0-26.5 -18.75-45.25t-45.25-18.75zM 480,352q-13.5,0 -22.75,9.5t-9.25,22.5l0,16 q0,6.5 -4.75,11.25t-11.25,4.75l-16,0 q-13,0 -22.5,9.25t-9.5,22.75t 9.5,22.75
t 22.5,9.25l 32,0 q 26.5,0 45.25-18.75t 18.75-45.25l0-32 q0-13.5 -9.25-22.75t-22.75-9.25zM 416,256q0-40 -28-68t-68-28l-32,0 l0-32 q0-13.5 -9.25-22.75t-22.5-9.25t-22.75,9.5t-9.5,22.5l0,192 q0,13.5 9.5,22.75t 22.5,9.25l 64,0 q 40,0 68-28t 28-68zM 320,288l-32,0 l0-64 l 32,0 q 13,0 22.5,9.5t 9.5,22.75
t-9.25,22.5t-22.75,9.25zM 128.25,96q-13.25,0 -22.75,9.5t-9.5,22.5l0,192 q0,13.5 9.5,22.75t 22.5,9.25t 22.5-9.25t 9.5-22.75l0-192 q0-13.5 -9.25-22.75t-22.5-9.25zM 96,416l-16,0 q-6.5,0 -11.25-4.75t-4.75-11.25l0-16 q0-13.5 -9.25-22.75t-22.5-9.25t-22.75,9.5t-9.5,22.5l0,32 q0,26.5 18.75,45.25t 45.25,18.75l 32,0 
q 13,0 22.5-9.25t 9.5-22.5t-9.25-22.75t-22.75-9.5zM 32.25,96q 13.25,0 22.5-9.25t 9.25-22.75l0-16 q0-6.5 4.75-11.25t 11.25-4.75l 16,0 q 13,0 22.5-9.25t 9.5-22.5t-9.5-22.75t-22.5-9.5l-32,0 q-26.5,0 -45.25,18.75t-18.75,45.25l0,32 q0,13.5 9.5,22.75t 22.75,9.25z"  />
<glyph unicode="&#xf08c;" d="M 448,96l-384,0 q-26.5,0 -45.25,18.75t-18.75,45.25l0,256 q0,26.5 18.75,45.25t 45.25,18.75l 384,0 q 26.5,0 45.25-18.75t 18.75-45.25l0-256 q0-26.5 -18.75-45.25t-45.25-18.75zM 448,384q0,13 -9.5,22.5t-22.5,9.5l-320,0 q-13.5,0 -22.75-9.5t-9.25-22.5l0-64 q0-13 9.25-22.5t 22.75-9.5l 320,0 q 13.5,0 22.75,9.5t 9.25,22.5
l0,64 zM 416,224l-320,0 q-13.5,0 -22.75-9.25t-9.25-22.75t 9.25-22.75t 22.75-9.25l 320,0 q 13.5,0 22.75,9.5t 9.25,22.75t-9.25,22.5t-22.75,9.25zM 128,32l 96,0 q 13,0 22.5-9.25t 9.5-22.5t-9.5-22.75t-22.5-9.5l-96,0 q-13.5,0 -22.75,9.5t-9.25,22.75t 9.25,22.5t 22.75,9.25zM 320,32l 128,0 q 13,0 22.5-9.25t 9.5-22.5
t-9.5-22.75t-22.5-9.5l-128,0 q-13.5,0 -22.75,9.5t-9.25,22.75t 9.25,22.5t 22.75,9.25z"  />
<glyph unicode="&#xf08d;" d="M 448-32q-19.5,12.5 -25.75,34.25t-6.25,56.25l0,34.5 q0,14.5 9.5,24.75t 22.5,10.25l 32,0 q 13.5,0 22.75-10.25t 9.25-24.75l0-34.5 q0-26.5 -19-50.25t-45-40.25zM 400-32l-304,0 q-33.5,0 -63.75,28.75t-31.75,67.25q0,24.5 11.25,55.5t 25,55t 34.75,59.25t 31,54.25l 185.5,0 q 26.5,0 45.25,18.75t 18.75,45.25l0,32 q0,19.5 17.25,42.75
t 40,38.25t 38.75,15q 23,0 42.75-31.5t 21.25-64.5q0-27 -13.25-60.5t-32-65.25t-37.5-62.75t-32-61.75t-13.25-53.75q 2.5-53 16-112zM 320,384l0-32 q0-13 -9.25-22.5t-22.75-9.5l-256,0 q-13,0 -22.5,9.5t-9.5,22.5l0,32 q0,25.5 17,48t 42.75,35.25t 52.25,12.75l 272,0 q-6.5,0 -17.25-7.75t-21.25-20.25
t-18-31t-7.5-37z"  />
<glyph unicode="&#xf08e;" d="M 427.5,96l-43.5,0 l-128-128l0,128 l-171.5,0 q-28.5,0 -56.5,28.5t-28,57.5l0,212 q0,29 28,57.5t 56.5,28.5l 343,0 q 28.5,0 56.5-28.5t 28-57.5l0-212 q0-29 -28-57.5t-56.5-28.5zM 256,416q-46,0 -82-30l-30,30q-6.5,0 -11.25-4.75t-4.75-11.25l0-64 q0-6.5 4.75-11.25t 11.25-4.75l 64,0 q 6.5,0 11.25,4.75t 4.75,11.25
l-27,27q 26,21 59,21q 40,0 68-28.25t 28-68t-28.25-67.75t-67.75-28q-27.5,0 -50.5,14.5t-35,38.5l-29-14q 16-32 46.75-51.5t 67.75-19.5q 53,0 90.5,37.5t 37.5,90.5t-37.5,90.5t-90.5,37.5z"  />
<glyph unicode="&#xf08f;" d="M 480,32l-448,0 q-13,0 -22.5,9.5t-9.5,22.5l0,320 q0,13.5 9.5,22.75t 22.5,9.25l 448,0 q 13,0 22.5-9.25t 9.5-22.75l0-320 q0-13 -9.5-22.5t-22.5-9.5zM 80,96l 128,0 q 6.5,0 11.25,4.75t 4.75,11.25t-4.75,11.25t-11.25,4.75l-128,0 q-6.5,0 -11.25-4.75t-4.75-11.25t 4.75-11.25t 11.25-4.75zM 240,256l-160,0 
q-6.5,0 -11.25-4.75t-4.75-11.25t 4.75-11.25t 11.25-4.75l 160,0 q 6.5,0 11.25,4.75t 4.75,11.25t-4.75,11.25t-11.25,4.75zM 240,192l-160,0 q-6.5,0 -11.25-4.75t-4.75-11.25t 4.75-11.25t 11.25-4.75l 160,0 q 6.5,0 11.25,4.75t 4.75,11.25t-4.75,11.25t-11.25,4.75zM 448,336q0,6.5 -4.75,11.25t-11.25,4.75l-96,0 
q-6.5,0 -11.25-4.75t-4.75-11.25l0-96 q0-6.5 4.75-11.25t 11.25-4.75l 96,0 q 6.5,0 11.25,4.75t 4.75,11.25l0,96 z"  />
<glyph unicode="&#xf090;" d="M 447.5-32l-383.5,0 q-13.5,0 -22.75,9.25t-9.25,22.75l0,447.5 q0,13.5 9.25,22.75t 22.75,9.25l 224,0 l0-127.5 l-176,0 q-6.5,0 -11.25-4.5t-4.75-11.5l0-32 q0-6.5 4.75-11.25t 11.25-4.75l 367.5-0.5l0-0.5 l0-287 q0-13.5 -9.25-22.75t-22.75-9.25zM 431.5,208q0,7 -4.5,11.5t-11,4.5l-304,0 q-6.5,0 -11.25-4.5t-4.75-11.5l0-32 
q0-6.5 4.75-11.25t 11.25-4.75l 304,0 q 6.5,0 11,4.75t 4.5,11.25l0,32 zM 431.5,80.5q0,6.5 -4.5,11.25t-11,4.75l-304,0 q-6.5,0 -11.25-4.75t-4.75-11.25l0-32 q0-7 4.75-11.5t 11.25-4.5l 304,0 q 6.5,0 11,4.5t 4.5,11.5l0,32 zM 320,480q 13,0 22-9l 128-128.5q 9.5-9.5 9.5-23l-159.5,0 l0,160.5 z"  />
<glyph unicode="&#xf091;" d="M 508.5,113l-29.5,29.5q 1,9.5 1,17.5q0,55 -33.75,98t-85.75,56.5l 148,148q 3.5-7 3.5-14.5l0-320 q0-7.5 -3.5-15zM 320,320q-53,0 -96-32.5l-192.5,192.5l 0.5,0 l 448,0 l 0.5,0 l-160-160l-0.5,0 zM 3.5,113q-3.5,7.5 -3.5,15l0,320 q0,7.5 3.5,14.5l 175-174.5zM 160,160q0-33.5 13.5-64l-141.5,0 l-0.5,0 l 162.5,162q-34-43.5 -34-98z
M 320,288q 53,0 90.5-37.5t 37.5-90.5q0-37.5 -20.5-69l 80.5-80q 4-4 4-9.75t-4-9.75l-19.5-19.5q-4-4 -9.75-4t-9.75,4l-80,80q-32-20 -69-20q-53,0 -90.5,37.5t-37.5,90.5t 37.5,90.5t 90.5,37.5zM 320,96q 26.5,0 45.25,18.75t 18.75,45.25t-18.75,45.25t-45.25,18.75t-45.25-18.75t-18.75-45.25
t 18.75-45.25t 45.25-18.75z"  />
<glyph unicode="&#xf092;" d="M 480-32l-448,0 q-13,0 -22.5,9.25t-9.5,22.75l0,320 q0,13 9.5,22.5t 22.5,9.5l 96,0 q0,13 9.5,22.5t 22.5,9.5l 32,0 l0,64 q0,13 9.5,22.5t 22.5,9.5l 64,0 q 13.5,0 22.75-9.5t 9.25-22.5l0-64 l 32,0 q 13.5,0 22.75-9.5t 9.25-22.5l 96,0 q 13.5,0 22.75-9.5t 9.25-22.5l0-320 q0-13.5 -9.25-22.75t-22.75-9.25zM 144,288q-35.5,0 -57.75-16.25
t-22.25-47.75q0-84 48-105.5l0-9.5 q-34.5-6 -57-22.5t-23-37.5q0-6 10.75-9.75t 31.5-5.25t 34.25-1.75t 35.5-0.25t 35.5,0.25t 34.25,1.75t 31.5,5.25t 10.75,9.75q-0.5,21 -22.75,37.5t-57.25,22.5l0,9 q 48,19.5 48,106l0,1 l0,0.5 l-77.5,62.5l-1.25,0 l-1.25,0 zM 348,352l-60,0 l0,80 q0,6.5 -4.75,11.25t-11.25,4.75l-32,0 
q-6.5,0 -11.25-4.75t-4.75-11.25l0-80 l-60.5,0 q-4-5 -4-11.5t 4-11.5l 92.5-73l 92,73q 4,5 4,11.5t-4,11.5zM 464,256l-128,0 q-6.5,0 -11.25-4.75t-4.75-11.25t 4.75-11.25t 11.25-4.75l 128,0 q 6.5,0 11.25,4.75t 4.75,11.25t-4.75,11.25t-11.25,4.75zM 320,144q0-6.5 4.75-11.25t 11.25-4.75l 64,0 q 6.5,0 11.25,4.75
t 4.75,11.25t-4.75,11.25t-11.25,4.75l-64,0 q-6.5,0 -11.25-4.75t-4.75-11.25zM 464,64l-128,0 q-6.5,0 -11.25-4.75t-4.75-11.25t 4.75-11.25t 11.25-4.75l 128,0 q 6.5,0 11.25,4.75t 4.75,11.25t-4.75,11.25t-11.25,4.75z"  />
<glyph unicode="&#xf093;" d="M 478,54l-51.5-51.5q-34.5-34.5 -83.5-34.5t-83.75,34.5t-34.75,83.5t 34.5,83.5l 19,19l-85.5,86l-41.5-41.5q-9-9 -22-8.5t-22.5,10t-10,22.5t 8.5,22l 41.5,41l-50.5,50.5l-41-41.5q-9-9 -22-8.5t-22.5,10t-10,22.5t 8.5,22l 41,41l-9.5,9.5q-8.5,9 -8.25,22t 9.75,22.5t 22.75,10t 21.75-8.5l 239-238.5
q 34.5,25.5 78,22.25t 74.5-34.25q 34.5-34.5 34.5-83.5t-34.5-83.5zM 432.5,175.5q-16.5,16.5 -39.75,16.5t-39.75-16.5l-48-48q-16.5-16.5 -16.5-39.75t 16.5-39.75t 40-16.5t 40,16.5l 47.5,47.5q 16.5,16.5 16.5,40t-16.5,40z"  />
<glyph unicode="&#xf094;" d="M 512,64q0-26.5 -18.75-45.25t-45.25-18.75l-384,0 q-26.5,0 -45.25,18.75t-18.75,45.25l0,256 q0,13 9.25,22.5t 22.75,9.5l 240,0 q0,6 5.75,16.5t 11.25,18l 6,8q 3.5,9 14,15.25t 22,6.25l 120,0 q 12,0 22.5-6.25t 14-15.25q 24.5-29 24.5-42.5l0-288 zM 23,426.5q 3.5,9 14,15.25t 22,6.25l 120,0 q 12,0 22.5-6.25t 14.5-15.25
l 24-42.5l-240,0 z"  />
<glyph unicode="&#xf095;" d="M 448,0l-384,0 q-26.5,0 -45.25,18.75t-18.75,45.25l0,256 q0,13 9.25,22.5t 22.75,9.5l 240,0 l 23,42.5q 3.5,9 14,15.25t 22,6.25l 120,0 q 12,0 22.5-6.25t 14-15.25l 24.5-42.5l0-288 q0-26.5 -18.75-45.25t-45.25-18.75zM 448,320q0,13 -9.5,22.5t-22.5,9.5l-64,0 q-13.5,0 -22.75-9.5t-9.25-22.75t-14-22.5t-34-9.25l-192,0 
q-6.5,0 -11.25-4.75t-4.75-11.25l0-192 q0-6.5 4.75-11.25t 11.25-4.75l 352,0 q 6.5,0 11.25,4.75t 4.75,11.25l0,240 zM 23,426q 3.5,9.5 14,15.75t 22,6.25l 120,0 q 12,0 22.5-6.25t 14.5-15.75l 24-42l-240,0 z"  />
<glyph unicode="&#xf096;" d="M 416-32l-320,0 q-26.5,0 -45.25,18.75t-18.75,45.25l0,384 q0,26.5 18.75,45.25t 45.25,18.75l 320,0 q 26.5,0 45.25-18.75t 18.75-45.25l0-384 q0-26.5 -18.75-45.25t-45.25-18.75zM 416,112q0,16 -9.5,28.5t-24.5,17q 34,43.5 34,98.5q0,43.5 -21.5,80.25t-58.25,58.25t-80.25,21.5t-80.25-21.5t-58.25-58.25t-21.5-80.25
q0-55 34-98.5q-15-4.5 -24.5-17t-9.5-28.5l0-32 q0-20 14-34t 34-14l 224,0 q 20,0 34,14t 14,34l0,32 zM 346.5,165.5l-68,68q-9.5-9.5 -22.75-9.5t-22.5,9.25t-9.25,22.5t 9.25,22.75t 22.75,9.5l0,96 q 53,0 90.5-37.5t 37.5-90.5t-37.5-90.5z"  />
<glyph unicode="&#xf097;" d="M 480-32l-448,0 q-13.5,0 -22.75,9.25t-9.25,22.75l0,320 q0,13 9.25,22.5t 22.75,9.5l 160,0 l0-32 q0-32.5 17.75-48.25t 46.25-15.75q 28,0 46,16.5t 18,47.5l0,32 l 160,0 q 13,0 22.5-9.5t 9.5-22.5l0-320 q0-13.5 -9.25-22.75t-22.75-9.25zM 176,77l0,9 q 48,19.5 48,106q0,31.5 -22.25,47.75t-57.5,16.25t-57.75-16.25
t-22.5-47.75q0-84 48-105l0-10 q-34.5-6 -57-22.5t-23-37.5q0-6 10.75-9.75t 31.5-5.25t 34.25-1.75t 35.5-0.25t 35.5,0.25t 34.25,1.75t 31.5,5.25t 10.75,9.75q-0.5,21 -22.75,37.5t-57.25,22.5zM 432,192l-128,0 q-6.5,0 -11.25-4.75t-4.75-11.25t 4.75-11.25t 11.25-4.75l 128,0 q 6.5,0 11.25,4.75t 4.75,11.25
t-4.75,11.25t-11.25,4.75zM 288,112q0-6.5 4.75-11.25t 11.25-4.75l 64,0 q 6.5,0 11.25,4.75t 4.75,11.25t-4.75,11.25t-11.25,4.75l-64,0 q-6.5,0 -11.25-4.75t-4.75-11.25zM 432,64l-128,0 q-6.5,0 -11.25-4.75t-4.75-11.25t 4.75-11.25t 11.25-4.75l 128,0 q 6.5,0 11.25,4.75t 4.75,11.25t-4.75,11.25t-11.25,4.75zM 288,416
l0-96 q0-13.5 -9.5-22.75t-22.75-9.25t-22.5,9.25t-9.25,22.75l0,96 q-13.5,0 -22.75,9.25t-9.25,22.5t 9.25,22.75t 22.75,9.5l 64,0 q 13,0 22.5-9.5t 9.5-22.75t-9.25-22.5t-22.75-9.25z"  />
<glyph unicode="&#xf098;" d="M 480-32l-352,0 q-13.5,0 -22.75,9.25t-9.25,22.75l0,0.5 l 176,0 q 20,0 34,14t 14,34l0,160 q0,19.5 -14,33.75t-34,14.25l-176,0 l0,191.5 q0,13 9.25,22.5t 22.75,9.5l 192,0 l0-176 q0-6.5 4.75-11.25t 11.25-4.75l 175.5,0 l 0.5-0.5l0-287.5 q0-13.5 -9.25-22.75t-22.75-9.25zM 352,480.5q 13,0 22-9.5l 128.5-128.5q 9.5-9 9-22.5l-159.5,0 
l0,160.5 zM 224,192.5l0-128 q0-13.5 -9.5-22.75t-22.5-9.25l-160,0 q-13.5,0 -22.75,9.25t-9.25,22.75l0,128 q0,13 9.25,22.5t 22.75,9.5l 160,0 q 13.5,0 22.75-9.5t 9.25-22.5zM 189.5,134l-82.5,56.5q-3,2.5 -7,1.5t-4-3.5l0-28 l-48,0 q-6.5,0 -11.25-4.75t-4.75-11.25l0-32 q0-7 4.75-11.5t 11.25-4.5l 48,0 l0-28.5 q0-2.5 4-3.25t 7,1.25
l 82.5,56.5q 2.5,2.5 2.5,5.75t-2.5,5.75z"  />
<glyph unicode="&#xf099;" d="M 112,384l 48,0 l 256,0 l 32,0 q 13,0 22.5-9.25t 9.5-22.75l0-320 q0-24.5 -33.25-44.25t-62.75-19.75l-288,0 q-26.5,0 -45.25,18.75t-18.75,45.25l0,64 l0,224 l0,96 q0,26.5 18.75,45.25t 45.25,18.75l 256,0 l 0.5,0 l 95.5,0 q 13,0 22.5-9.5t 9.5-22.75t-9.5-22.5t-22.5-9.25l-96,0 l-195.5,0 l-0.5,0 l-44,0 q-6.5,0 -11.25-4.75t-4.75-11.25t 4.75-11.25
t 11.25-4.75zM 224,16q0-6.5 4.75-11.25t 11.25-4.75l 32,0 q 6.5,0 11.25,4.75t 4.75,11.25l0,32 q0,6.5 -4.75,11.25t-11.25,4.75l-32,0 q-6.5,0 -11.25-4.75t-4.75-11.25l0-32 zM 128,224q0-6.5 4.75-11.25t 11.25-4.75l 32,0 q 6.5,0 11.25,4.75t 4.75,11.25q0,13.5 18.75,22.75t 45.25,9.25t 45.25-9.5t 18.75-22.5
q0-13.5 -18.75-22.75t-45.25-9.25q-13,0 -22.5-9.5t-9.5-22.5l0-48 q0-6.5 4.75-11.25t 11.25-4.75l 32,0 q 6.5,0 11.25,4.75t 4.75,11.25l0,19 q 42,8 69,34t 27,59q0,40 -37.5,68t-90.5,28q-25.5,0 -49.75-6.75t-41-16.75t-27-21t-10.25-19.5l0-32 z"  />
<glyph unicode="&#xf09a;" d="M 511,401.5l-59.5-100l0-301.5 q0-13.5 -9.25-22.75t-22.75-9.25l-320,0 q-13.5,0 -22.75,9.5t-9.25,22.5l0,301.5 l-59.5,100q-7,11 -3.5,23.5t 15,19t 24.25,3t 19.25-14.5l 47.5-80l 298,0 l 47.5,80q 6.5,11 19.25,14.5t 24.25-3t 15-19t-3.5-23.5zM 355.5,191.5l-6,0 q-5.5,15 -17,29l 3,5q 6.5,11 3,23.5t-15,18.75t-24.25,3
t-19.25-14.25l-3-5q-9.5,2 -17.5,2t-17.5-2l-3,5q-6.5,11 -19.25,14.25t-24.25-3t-15-18.75t 3-23.5l 3.5-5q-12-14 -17.5-29l-6,0 q-13.5,0 -22.75-9.25t-9.25-22t 9.25-22t 22.75-9.25l 6,0 q 5.5-15.5 17.5-29l-3.5-5q-6.5-11 -3-23.5t 15-19t 24.25-3t 19.25,14.5l 3,4.5q 9.5-1.5 17.5-1.5t 17.5,1.5l 3-4.5
q 6.5-11 19.25-14.5t 24.25,3t 15,19t-3,23.5l-3,5q 11.5,13.5 17,29l 6,0 q 13.5,0 22.75,9.25t 9.25,22t-9.25,22t-22.75,9.25zM 259.5,128q-13,0 -22.5,9.5t-9.5,22.5t 9.5,22.5t 22.5,9.5t 22.5-9.5t 9.5-22.5t-9.5-22.5t-22.5-9.5zM 99.5,448.5q0,13.5 9.25,22.75t 22.75,9.25l 256,0 q 13.5,0 22.75-9.5t 9.25-22.5l0-64 l-320,0 l0,64 z"  />
<glyph unicode="&#xf09b;" d="M 511,401.5l-59.5-100l0-301.5 q0-13.5 -9.25-22.75t-22.75-9.25l-320,0 q-13.5,0 -22.75,9.5t-9.25,22.5l0,301.5 l-59.5,100q-7,11 -3.5,23.5t 15,19t 24.25,3t 19.25-14.5l 47.5-80l 298,0 l 47.5,80q 6.5,11 19.25,14.5t 24.25-3t 15-19t-3.5-23.5zM 370.5,288.5q-34-8.5 -51-39q-13.5,7 -28,7q-17.5,0 -32.25-9
t-23.25-24l-3.25,0.5t-5.25,0.5q-40,0 -68-28.25t-28-68t 28-68t 68-28.25t 68,28.25t 28,67.75q0,2 -0.25,5t-0.25,3.5q 14.5,8.5 23.5,23.25t 9,32.25q0,19.5 -11,36q 5.5,13 17,21.5t 26,9q-4.5,17.5 -17,30zM 99.5,448.5q0,13 9.25,22.5t 22.75,9.5l 256,0 q 13.5,0 22.75-9.5t 9.25-22.5l0-64 l-320,0 l0,64 z"  />
<glyph unicode="&#xf09c;" d="M 256,32q-69.5,0 -128.5,25.75t-93.25,70t-34.25,96.25t 34.25,96.25t 93.25,70t 128.5,25.75t 128.5-25.75t 93.25-70t 34.25-96.25t-34.25-96.25t-93.25-70t-128.5-25.75zM 144,288l-40,0 q-3.5,0 -5.75-2.25t-2.25-5.75l-32-112q0-3.5 2.25-5.75t 5.75-2.25l 16,0 q 3.5,0 5.75,2.25t 2.25,5.75
l 7,24l 25,0 q 12,0 21.5,1.5t 20,6t 16.5,14.75t 6,25.75q0,20 -14,34t-34,14zM 272,288l-7,0 l 7,24q0,3.5 -2.25,5.75t-5.75,2.25l-16,0 q-3.5,0 -5.75-2.25t-2.25-5.75l-32-112q0-3.5 2.25-5.75t 5.75-2.25l 16,0 q 3.5,0 5.75,2.25t 2.25,5.75l 16,56q 23-1 29-16.5l-13-39.5q0-3.5 2.25-5.75t 5.75-2.25l 16,0 
q 3.5,0 5.75,2.25t 2.25,5.75l 16,48q0,3 -2.5,5.5q-4,15 -16.75,24.75t-28.75,9.75zM 400,288l-40,0 q-3.5,0 -5.75-2.25t-2.25-5.75l-32-112q0-3.5 2.25-5.75t 5.75-2.25l 16,0 q 3.5,0 5.75,2.25t 2.25,5.75l 7,24l 25,0 q 12,0 21.5,1.5t 20,6t 16.5,14.75t 6,25.75q0,20 -14,34t-34,14zM 400,224l-32,0 l 9,32l 23,0 
q 6.5,0 11.25-4.75t 4.75-11.25t-4.75-11.25t-11.25-4.75zM 144,224l-32,0 l 9,32l 23,0 q 6.5,0 11.25-4.75t 4.75-11.25t-4.75-11.25t-11.25-4.75z"  />
<glyph unicode="&#xf09d;" d="M 256-32q-52,0 -99.5,20.25t-81.75,54.5t-54.5,81.75t-20.25,99.5t 20.25,99.5t 54.5,81.75t 81.75,54.5t 99.5,20.25t 99.5-20.25t 81.75-54.5t 54.5-81.75t 20.25-99.5t-20.25-99.5t-54.5-81.75t-81.75-54.5t-99.5-20.25zM 160,272q0,6.5 -4.75,11.25t-11.25,4.75t-11.25-4.75t-4.75-11.25l0-48 l-32,0 l0,48 
q0,6.5 -4.75,11.25t-11.25,4.75t-11.25-4.75t-4.75-11.25l0-64 q0-6 3.75-10.25t 9.25-5.25q 1-0.5 3-0.5l 48,0 l0-48 q0-6.5 4.75-11.25t 11.25-4.75t 11.25,4.75t 4.75,11.25l0,128 zM 320,256q0,13 -9.5,22.5t-22.5,9.5l-64,0 q-13,0 -22.5-9.5t-9.5-22.5l0-96 q0-13.5 9.5-22.75t 22.5-9.25l 64,0 q 13,0 22.5,9.25t 9.5,22.75
l0,96 zM 432,288q-6.5,0 -11.25-4.75t-4.75-11.25l0-48 l-32,0 l0,48 q0,6.5 -4.75,11.25t-11.25,4.75t-11.25-4.75t-4.75-11.25l0-64 q0-6 3.75-10.25t 9.25-5.25q 1-0.5 3-0.5l 48,0 l0-48 q0-6.5 4.75-11.25t 11.25-4.75t 11.25,4.75t 4.75,11.25l0,128 q0,6.5 -4.75,11.25t-11.25,4.75zM 224,256l 64,0 l0-96 l-64,0 l0,96 z"  />
<glyph unicode="&#xf09e;" d="M 480-32l-448,0 q-13.5,0 -22.75,9.25t-9.25,22.75l0,448 q0,13.5 9.25,22.75t 22.75,9.25l 448,0 q 13.5,0 22.75-9.5t 9.25-22.5l0-448 q0-13.5 -9.25-22.75t-22.75-9.25zM 32,64zM 480,416q0,13.5 -9.25,22.75t-22.75,9.25l-384,0 q-13.5,0 -22.75-9.25t-9.25-22.75l0-128 l 18.5,42.5q 2.5,9 11,15.25t 18,6.25l 64,0 
q 9,0 17.5-6.25t 11.5-15.25l 5-10.5l 254.5,0 q 6.5,0 11.25-4.75t 4.75-11.25t-4.75-11.25t-11.25-4.75l-336,0 l-64,0 l0-224 l 18.5,42.5q 2.5,9 11,15.25t 18,6.25l 64,0 q 9,0 17.5-6.25t 11.5-15.25l 5-10.5l 302.5,0 l0,320 l0,0 zM 194.5,170.5q 2.5,9 11,15.25t 18,6.25l 64,0 q 9,0 17.5-6.25t 11.5-15.25l 5-10.5l 110.5,0 q 6.5,0 11.25-4.75
t 4.75-11.25t-4.75-11.25t-11.25-4.75l-192,0 l-64,0 zM 338.5,234.5q 2.5,9 11,15.25t 18,6.25l 64,0 q 9,0 17.5-6.25t 11.5-15.25l 19.5-42.5l-160,0 zM 288,224l-208,0 q-6.5,0 -11.25,4.75t-4.75,11.25t 4.75,11.25t 11.25,4.75l 208,0 q 6.5,0 11.25-4.75t 4.75-11.25t-4.75-11.25t-11.25-4.75zM 80,192l 64,0 q 6.5,0 11.25-4.75
t 4.75-11.25t-4.75-11.25t-11.25-4.75l-64,0 q-6.5,0 -11.25,4.75t-4.75,11.25t 4.75,11.25t 11.25,4.75zM 432,352l-192,0 l-64,0 l 18.5,42.5q 2.5,9 11,15.25t 18,6.25l 64,0 q 9,0 17.5-6.25t 11.5-15.25l 5-10.5l 110.5,0 q 6.5,0 11.25-4.75t 4.75-11.25t-4.75-11.25t-11.25-4.75zM 144,384l-64,0 q-6.5,0 -11.25,4.75t-4.75,11.25
t 4.75,11.25t 11.25,4.75l 64,0 q 6.5,0 11.25-4.75t 4.75-11.25t-4.75-11.25t-11.25-4.75z"  />
<glyph unicode="&#xf09f;" d="M 64-32l0,448 l 448,0 l0-448 l-448,0 zM 480,384l-384,0 l0-320 l 384,0 l0,320 zM 192,352q 26.5,0 45.25-18.75t 18.75-45.25t-18.75-45.25t-45.25-18.75t-45,18.75t-19,45.25l0,0.5 q 0.5,26.5 19,45t 45,18.5zM 215.5,183.5l 87-87.5l-174.5,0 l0,46.5 l 41,41q 9,9 23.25,9t 23.25-9zM 345,247.5q 9,9 23.25,9t 23.25-9l 56.5-56.5l0-95 
l-100.5,0 l-76.5,76.5zM 32,32l-32,0 l0,448 l 448,0 l0-32 l-416,0 l0-416 z"  />
<glyph unicode="&#xf0a0;" d="M 448,96q-17.5,0 -32,8.75t-23,23.25l-9,0 l0-128 q0-13.5 -9.5-22.75t-22.5-9.25l-128,0 l0,9 q 14.5,8.5 23.25,23t 8.75,32q0,26.5 -18.75,45.25t-45.25,18.75t-45.25-18.75t-18.75-45.25q0-17.5 8.75-32t 23.25-23l0-9 l-128,0 q-13,0 -22.5,9.25t-9.5,22.75l0,128 l 9,0 q 8.5-14.5 23-23.25t 32-8.75
q 26.5,0 45.25,18.75t 18.75,45.25t-18.75,45.25t-45.25,18.75q-17.5,0 -32-8.75t-23-23.25l-9,0 l0,128 q0,13 9.5,22.5t 22.5,9.5l 128,0 l0,9 q-14.5,8.5 -23.25,23t-8.75,32q0,26.5 18.75,45.25t 45.25,18.75t 45.25-18.75t 18.75-45.25q0-17.5 -8.75-32t-23.25-23l0-9 l 128,0 q 13,0 22.5-9.5t 9.5-22.5l0-128 l 9,0 q 8.5,14.5 23,23.25
t 32,8.75q 26.5,0 45.25-18.75t 18.75-45.25t-18.75-45.25t-45.25-18.75z"  />
<glyph unicode="&#xf0a1;" d="M 480-32l-448,0 q-13.5,0 -22.75,9.5t-9.25,22.5l0,320 q0,13.5 9.5,22.75t 22.5,9.25l 448,0 q 13.5,0 22.75-9.25t 9.25-22.75l0-320 q0-13.5 -9.25-22.75t-22.75-9.25zM 96,272q0,7 -4.75,11.5t-11.25,4.5l-32,0 q-6.5,0 -11.25-4.5t-4.75-11.5l0-32 q0-6.5 4.75-11.25t 11.25-4.75l 32,0 q 6.5,0 11.25,4.75t 4.75,11.25l0,32 z
M 96,176q0,6.5 -4.75,11.25t-11.25,4.75l-32,0 q-6.5,0 -11.25-4.75t-4.75-11.25l0-32 q0-6.5 4.75-11.25t 11.25-4.75l 32,0 q 6.5,0 11.25,4.75t 4.75,11.25l0,32 zM 192,176q0,6.5 -4.75,11.25t-11.25,4.75l-32,0 q-6.5,0 -11.25-4.75t-4.75-11.25l0-32 q0-6.5 4.75-11.25t 11.25-4.75l 32,0 q 6.5,0 11.25,4.75t 4.75,11.25l0,32 z
M 192,80q0,6.5 -4.75,11.25t-11.25,4.75l-32,0 q-6.5,0 -11.25-4.75t-4.75-11.25l0-32 q0-6.5 4.75-11.25t 11.25-4.75l 32,0 q 6.5,0 11.25,4.75t 4.75,11.25l0,32 zM 288,272q0,7 -4.75,11.5t-11.25,4.5l-32,0 q-6.5,0 -11.25-4.5t-4.75-11.5l0-32 q0-6.5 4.75-11.25t 11.25-4.75l 32,0 q 6.5,0 11.25,4.75t 4.75,11.25l0,32 zM 288,176
q0,6.5 -4.75,11.25t-11.25,4.75l-32,0 q-6.5,0 -11.25-4.75t-4.75-11.25l0-32 q0-6.5 4.75-11.25t 11.25-4.75l 32,0 q 6.5,0 11.25,4.75t 4.75,11.25l0,32 zM 384,272q0,7 -4.75,11.5t-11.25,4.5l-32,0 q-6.5,0 -11.25-4.5t-4.75-11.5l0-32 q0-6.5 4.75-11.25t 11.25-4.75l 32,0 q 6.5,0 11.25,4.75t 4.75,11.25l0,32 zM 384,176
q0,6.5 -4.75,11.25t-11.25,4.75l-32,0 q-6.5,0 -11.25-4.75t-4.75-11.25l0-32 q0-6.5 4.75-11.25t 11.25-4.75l 32,0 q 6.5,0 11.25,4.75t 4.75,11.25l0,32 zM 384,80q0,6.5 -4.75,11.25t-11.25,4.75l-32,0 q-6.5,0 -11.25-4.75t-4.75-11.25l0-32 q0-6.5 4.75-11.25t 11.25-4.75l 32,0 q 6.5,0 11.25,4.75t 4.75,11.25l0,32 zM 480,272
q0,7 -4.75,11.5t-11.25,4.5l-32,0 q-6.5,0 -11.25-4.5t-4.75-11.5l0-32 q0-6.5 4.75-11.25t 11.25-4.75l 32,0 q 6.5,0 11.25,4.75t 4.75,11.25l0,32 zM 480,80q0,6.5 -4.75,11.25t-11.25,4.75l-32,0 q-6.5,0 -11.25-4.75t-4.75-11.25l0-32 q0-6.5 4.75-11.25t 11.25-4.75l 32,0 q 6.5,0 11.25,4.75t 4.75,11.25l0,32 zM 448.25,384
q-13.25,0 -22.75,9.5t-9.5,22.5l0,32 q0,13.5 9.5,22.75t 22.75,9.25t 22.5-9.25t 9.25-22.75l0-32 q0-13 -9.25-22.5t-22.5-9.5zM 352.25,384q-13.25,0 -22.75,9.5t-9.5,22.5l0,32 q0,13.5 9.5,22.75t 22.75,9.25t 22.5-9.25t 9.25-22.75l0-32 q0-13 -9.25-22.5t-22.5-9.5zM 255.75,384q-13.25,0 -22.5,9.5t-9.25,22.5l0,32 
q0,13.5 9.25,22.75t 22.5,9.25t 22.75-9.25t 9.5-22.75l0-32 q0-13 -9.5-22.5t-22.75-9.5zM 159.75,384q-13.25,0 -22.5,9.5t-9.25,22.5l0,32 q0,13.5 9.25,22.75t 22.5,9.25t 22.75-9.25t 9.5-22.75l0-32 q0-13 -9.5-22.5t-22.75-9.5zM 63.75,384q-13.25,0 -22.5,9.5t-9.25,22.5l0,32 q0,13.5 9.25,22.75t 22.5,9.25t 22.75-9.25
t 9.5-22.75l0-32 q0-13 -9.5-22.5t-22.75-9.5z"  />
<glyph unicode="&#xf0a2;" d="M 480-32l-448,0 q-13,0 -22.5,9.25t-9.5,22.75l0,256 l 64,0 l 32,0 l0-32 l-32,0 q0-13.5 9.25-22.75t 22.75-9.25l 64,0 q 13.5,0 22.75,9.25t 9.25,22.75l-32,0 l0,32 l 32,0 l 128,0 l 32,0 l0-32 l-32,0 q0-13.5 9.5-22.75t 22.5-9.25l 64,0 q 13.5,0 22.75,9.25t 9.25,22.75l-32,0 l0,32 l 32,0 l 64,0 l0-256 q0-13.5 -9.25-22.75t-22.75-9.25zM 416,320
l-64,0 q-13,0 -22.5-9.5t-9.5-22.5l-128,0 q0,13 -9.5,22.5t-22.5,9.5l-64,0 q-13.5,0 -22.75-9.5t-9.25-22.5l-64,0 l0,64 q0,13 9.5,22.5t 22.5,9.5l 96,0 l0,32 q0,26.5 18.75,45.25t 45.25,18.75l 128,0 q 26.5,0 45.25-18.75t 18.75-45.25l0-32 l 96,0 q 13,0 22.5-9.5t 9.5-22.5l0-64 l-64,0 q0,13 -9.25,22.5t-22.75,9.5zM 288,416l-64,0 
q-13,0 -22.5-9.25t-9.5-22.75l 128,0 q0,13 -9.25,22.5t-22.75,9.5z"  />
<glyph unicode="&#xf0a3;" d="M 256-32q-52,0 -99.5,20.25t-81.75,54.5t-54.5,81.75t-20.25,99.5t 20.25,99.5t 54.5,81.75t 81.75,54.5t 99.5,20.25t 99.5-20.25t 81.75-54.5t 54.5-81.75t 20.25-99.5t-20.25-99.5t-54.5-81.75t-81.75-54.5t-99.5-20.25zM 256.25,32q 13.25,0 22.5,9.25t 9.25,22.5t-9.25,22.75t-22.5,9.5t-22.75-9.5
t-9.5-22.75t 9.5-22.5t 22.75-9.25zM 256,416q-53,0 -90.5-37.5t-37.5-90.5q0-13.5 9.25-22.75t 22.5-9.25t 22.75,9.25t 9.5,22.75q0,26.5 18.75,45.25t 45.25,18.75t 45.25-18.75t 18.75-45.25t-18.75-45.25t-45.25-18.75q-13,0 -22.5-19.75t-9.5-44.25q0-13.5 9.25-22.75t 22.75-9.25t 22.75,9.25t 9.25,22.75l0,4 
q 42,11 69,45.5t 27,78.5q0,53 -37.5,90.5t-90.5,37.5z"  />
<glyph unicode="&#xf0a4;" d="M 384,32l-256,0 q-53,0 -90.5,37.5t-37.5,90.5l0,128 q0,53 37.5,90.5t 90.5,37.5l 256,0 q 53,0 90.5-37.5t 37.5-90.5l0-128 q0-53 -37.5-90.5t-90.5-37.5zM 448,208q0,6.5 -4.75,11.25t-11.25,4.75l-64,0 q-6.5,0 -11.25-4.75t-4.75-11.25t 4.75-11.25t 11.25-4.75l 48,0 l0-32 l-32,0 q-26.5,0 -45.25,18.75t-18.75,45.25
t 18.75,45.25t 45.25,18.75l 48,0 q 6.5,0 11.25,4.75t 4.75,11.25t-4.75,11.25t-11.25,4.75l-48,0 q-43,0 -72-33.5q-8.5,15.5 -23.25,24.5t-32.75,9l-48,0 q-6.5,0 -11.25-4.75t-4.75-11.25l0-144 l-32,0 q-26.5,0 -45.25,18.75t-18.75,45.25q0,29 11.5,46.5t 36.5,17.5q 6.5,0 11.25,4.75t 4.75,11.25t-4.75,11.25t-11.25,4.75
q-38,0 -59-27.25t-21-68.75q0-40 28-68t 68-28l 48,0 q 6.5,0 11.25,4.75t 4.75,11.25l0,48 l 32,0 q 19,0 34.5,10.5q 7.5-32.5 33.5-53.5t 60-21l 48,0 q 6.5,0 11.25,4.75t 4.75,11.25l0,64 zM 256,224l-32,0 l0,64 l 32,0 q 13,0 22.5-9.5t 9.5-22.75t-9.25-22.5t-22.75-9.25z"  />
<glyph unicode="&#xf0a5;" d="M 448-32l-320,0 q-26.5,0 -45.25,18.75t-18.75,45.25l0,256 q-26.5,0 -45.25,18.75t-18.75,45.25l0,64 q0,26.5 18.75,45.25t 45.25,18.75l 384,0 q 26.5,0 45.25-18.75t 18.75-45.25l0-64 l0-320 q0-26.5 -18.75-45.25t-45.25-18.75zM 442,432l-148,0 q-4,0 -5.5-7.25t 2.5-11.75l 67.5-88.5q 4-4.5 9.5-4.5t 9.5,4.5l 67.5,88.5
q 4,4.5 2.5,11.75t-5.5,7.25zM 448,288l-320,0 l0-64 l 320,0 l0,64 zM 448,192l-320,0 l0-64 l 320,0 l0,64 zM 448,96l-320,0 l0-48 q0-6.5 4.75-11.25t 11.25-4.75l 288,0 q 6.5,0 11.25,4.75t 4.75,11.25l0,48 z"  />
<glyph unicode="&#xf0a6;" d="M 496,224l-80,0 l0-128 l 32,0 q 13,0 22.5-9.5t 9.5-22.5l0-64 q0-13.5 -9.5-22.75t-22.5-9.25l-96,0 q-13.5,0 -22.75,9.25t-9.25,22.75l0,64 q0,13 9.25,22.5t 22.75,9.5l 32,0 l0,128 l-224,0 l0-128 l 32,0 q 13,0 22.5-9.5t 9.5-22.5l0-64 q0-13.5 -9.5-22.75t-22.5-9.25l-96,0 q-13.5,0 -22.75,9.25t-9.25,22.75l0,64 q0,13 9.25,22.5
t 22.75,9.5l 32,0 l0,128 l-112,0 q-6.5,0 -11.25,4.75t-4.75,11.25t 4.75,11.25t 11.25,4.75l 240,0 l0,96 l-32,0 q-13.5,0 -22.75,9.25t-9.25,22.75l0,64 q0,13 9.25,22.5t 22.75,9.5l 96,0 q 13,0 22.5-9.5t 9.5-22.5l0-64 q0-13.5 -9.5-22.75t-22.5-9.25l-32,0 l0-96 l 208,0 q 6.5,0 11.25-4.75t 4.75-11.25t-4.75-11.25t-11.25-4.75z"  />
<glyph unicode="&#xf0a7;" d="M 481.5,256q 13,0 22.5-9.5t 9.5-22.75t-9.25-22.5t-22.75-9.25l-33.5,0 q-2.5-26.5 -9.5-53l 50.5-13q 18.5-5 23-22.5q 3-7 0-16q-1-5 -4.5-9.5q-25-78 -26-78q-12,0 -22,9.5t-10,22.5l0,38.5 l-34,9q-26.5-51.5 -68-81.5t-90-30t-90,30t-68,81.5l-34-9l0-38.5 q0-13 -10-22.5t-22-9.5
q-1,0 -26,78q-3.5,4.5 -4.5,9.5q-3,9 0,16q 5,17.5 23,22.5l 50.5,13q-7,26.5 -9.5,53l-33.5,0 q-13,0 -22.5,9.25t-9.5,22.5t 9.5,22.75t 22.5,9.5l 33.5,0 q 2.5,26.5 9.5,53l-50.5,13q-18.5,4.5 -23,22.5q-3,7 0,16q 1,5 4.5,9.5q 25,78 26,78q 12,0 22-9.5t 10-22.5l0-39 l 34-8.5q 26.5,51.5 68,81.5t 90,30t 90-30t 68-81.5
l 34,8.5l0,39 q0,13 10,22.5t 22,9.5q 0.5,0 26-78q 3.5-4.5 4.5-9.5q 3-9 0-16q-5-18 -23-22.5l-50.5-13q 7-27 9.5-53l 33.5,0 zM 321.75,32q 13.25,0 22.5,9.25t 9.25,22.5t-9.25,22.75t-22.5,9.5t-22.75-9.5t-9.5-22.75t 9.5-22.5t 22.75-9.25zM 193.75,32q 13.25,0 22.5,9.25t 9.25,22.5t-9.25,22.75t-22.5,9.5
t-22.75-9.5t-9.5-22.75t 9.5-22.5t 22.75-9.25zM 161.75,160q 13.25,0 22.5,9.25t 9.25,22.5t-9.25,22.75t-22.5,9.5t-22.75-9.5t-9.5-22.75t 9.5-22.5t 22.75-9.25zM 257.5,416q-31,0 -61-22.5t-48.5-56.25t-18.5-65.25q 5-2.5 10.5-4.75t 10.25-3.75t 12.25-2.75t 11.75-2t 13.5-1.25t 13-1t 14.25-0.5l 13.5,0 l 15,0 l 14,0 
q 32.5,0 48.75,0.5t 39.5,4.25t 39.75,11.25q0,31.5 -18.25,65.25t-48.5,56.25t-61.25,22.5zM 353.75,224q-13.25,0 -22.75-9.5t-9.5-22.75t 9.5-22.5t 22.75-9.25t 22.5,9.25t 9.25,22.5t-9.25,22.75t-22.5,9.5z"  />
<glyph unicode="&#xf0a8;" d="M 480,192l-35,0 q-7-43.5 -32.5-79l 26-26q 9.5-9 9.5-22.5t-9.5-23t-23-9.5t-23,9.5l-25.5,26q-36-25.5 -79-32.5l0-35 q0-13.5 -9.5-22.75t-22.75-9.25t-22.5,9.25t-9.25,22.75l0,35 q-43.5,7 -79,32.5l-26.5-26q-9-9.5 -22.5-9.5t-23,9.5t-9.5,23t 9.5,22.5l 26,26.5q-25,35.5 -32,78.5l-35,0 
q-13.5,0 -22.75,9.25t-9.25,22.5t 9.25,22.75t 22.75,9.5l 35,0 q 7,43 32.5,79l-26.5,26q-9.5,9.5 -9.5,23t 9.5,23t 23,9.5t 22.5-9.5l 26.5-26.5q 36,25.5 79,32.5l0,35 q0,13 9.25,22.5t 22.5,9.5t 22.75-9.5t 9.5-22.5l0-35 q 43-7 78.5-32l 26,26q 9.5,9.5 23,9.5t 23-9.5t 9.5-23t-9.5-22.5l-26-26.5q 25.5-35.5 32.5-79l 35,0 
q 13,0 22.5-9.5t 9.5-22.75t-9.5-22.5t-22.5-9.25zM 128,288q0-12 1.5-26.5t 4.5-31t 9.75-27.5t 16.25-11q 11.5,0 21.5,1.25t 20.25,4.5t 16.25,10t 6,16.25zM 208,128q-6.5,0 -11.25-4.75t-4.75-11.25t 4.75-11.25t 11.25-4.75l 96,0 q 6.5,0 11.25,4.75t 4.75,11.25t-4.75,11.25t-11.25,4.75l-96,0 zM 288,224q0-9.5 6-16.25
t 16.25-10t 20.25-4.5t 21.5-1.25q 9.5,0 16.25,11t 9.75,27.5t 4.5,31t 1.5,26.5z"  />
<glyph unicode="&#xf0a9;" d="M 512-32l-21.5,0 l-94,94l-23-23q-7-7 -16.75-7t-16.75,7l-205,205q-7,7 -7,17t 7,17l 23,22.5l-81.5,81.5l-23-23q-7-7 -16.75-7t-16.75,7l-13,13q-7,7 -7,17t 7,17l 67,67q 7,7 17,7t 17-7l 13-13q 7-7 7-16.75t-7-16.75l-23-23l 81.5-81l 22.5,22.5
q 7,7 17,7t 17-7l 205-205q 7-7 7-16.75t-7-16.75l-23-23l 94-94l0-21.5 z"  />
</font>
</defs>
</svg>
