<?xml version="1.0" standalone="no"?>
<!DOCTYPE svg PUBLIC "-//W3C//DTD SVG 1.1//EN" "http://www.w3.org/Graphics/SVG/1.1/DTD/svg11.dtd" >
<svg xmlns="http://www.w3.org/2000/svg">
<metadata>
This is a custom SVG font generated by IcoMoon.
<iconset id="v18" name="v18" grid="20"></iconset>
</metadata>
<defs>
<font id="v18" horiz-adv-x="640" >
<font-face units-per-em="640" ascent="608" descent="-32" />
<missing-glyph horiz-adv-x="640" />
<glyph class="hidden" unicode="&#xf000;" d="M0,608L 640 -32L0 -32 z" horiz-adv-x="0" />
<glyph unicode="&#xf4bc;" d="M 6.855,304.64q-14.72,55.68 0,110.72t 55.68,96q 30.72,30.72 70.4,46.72t 81.92,16q 41.6,0 81.28-16t 70.4-46.72q 33.28-33.28 49.28-76.16t 13.44-87.68-23.040-84.48q 17.92-5.12 31.36-18.56l 111.36-111.36q 22.4-22.4 22.4-54.4t-22.4-54.4q-22.4-22.4-54.4-22.4t-54.4,22.4l-110.72,110.72q-13.44,12.8-19.2,32-44.8-23.040-95.36-23.040-42.24,0-81.92,16t-70.4,46.72q-40.96,40.96-55.68,96.64z m 65.28,55.040q0-59.52 41.6-101.12t 101.76-41.6q 58.88,0 101.12,41.6t 41.6,101.12-41.6,101.12q-42.24,41.6-101.12,41.6t-101.76-41.6q-41.6-41.6-41.6-101.12z" horiz-adv-x="570.88"  />
<glyph unicode="&#xf4bd;" d="M0,82.612l0,412.056q0,5.119 1.279,12.157l 294.326-294.966q 24.954-24.954 60.785-24.954 35.191,0 60.145,24.954l 294.966,294.966q 0.64-6.398 0.64-12.157l0-412.056q0-23.034-16.636-39.67t-39.67-16.636l-599.528,0q-23.034,0-39.67,16.636t-16.636,39.67z m 40.31,465.802q 8.318,2.559 15.996,2.559l 599.528,0q 7.678,0 15.356-2.559l-296.245-296.245q-7.678-7.678-19.195-7.678t-19.195,7.678z" horiz-adv-x="712.32"  />
<glyph unicode="&#xf4be;" d="M-0.16,403.84q0,65.92 46.72,112.64t 113.28,46.72q 44.16,0 81.28-22.4t 58.24-58.88q 21.12,37.12 58.24,58.88t 81.28,22.4q 65.92,0 113.28-46.72t 46.72-112.64q0-61.44-40.32-106.24l-219.52-258.56q-16-19.2-39.68-19.2t-39.68,19.2l-219.52,258.56q-40.32,44.8-40.32,106.24z" horiz-adv-x="599.68"  />
<glyph unicode="&#xf4bf;" d="M-0.16,403.84q0,65.92 46.72,112.64t 113.28,46.72q 51.84,0 93.44-30.080l-8.96-159.36q0-7.68 5.76-13.44t 13.44-5.76l 6.4,0q 7.68,0 11.52-5.12t 1.28-12.8l-36.48-110.080q-1.92-7.68-0.64-8.32t 5.76,5.12l 124.16,170.24q 4.48,5.76 2.56,10.24t-9.6,4.48l-49.28,0q-7.68,0-11.52,5.12t0,12.16l 51.84,116.48q 37.12,21.12 79.36,21.12 65.92,0 113.28-46.72t 46.72-112.64q0-60.8-40.32-106.24l-219.52-258.56q-16-19.2-39.68-19.2t-40.32,19.2l-218.88,258.56q-40.96,45.44-40.96,106.24z" horiz-adv-x="599.68"  />
<glyph unicode="&#xf4c0;" d="M 0.591,359.040q 7.68,23.68 65.28,23.68l 144,0 44.16,132.48 0,0.64q 12.16,35.84 27.52,48t 32,0 27.52-48l0-0.64 43.52-132.48 144,0q 37.76,0 54.4-10.88t 9.6-29.44-37.76-40.32l-3.2-2.56-113.28-80.64 43.52-132.48 0.64-1.28q 17.28-54.4-2.56-69.76t-66.56,18.56l-1.92,1.28-1.28,0.64-113.28,81.28-114.56-81.92-1.28-1.28q-46.72-33.28-67.2-18.56t-2.56,69.76l0,0.64 0,0.64 43.52,131.84-113.28,80.64-1.28,1.28-1.28,1.28q-46.72,33.28-39.040,56.96z" horiz-adv-x="595.84"  />
<glyph unicode="&#xf4c1;" d="M 1.741,343.68q-7.68,19.84 10.24,32t 58.24,11.52l 154.88,0 47.36,142.72 0,0.64q 9.6,28.8 21.76,43.52t 25.6,14.72q 12.8,0 24.96-14.72t 21.76-43.52l 0.64-0.64 46.72-142.72 154.88,0q 40.32,0 58.24-11.52t 10.24-32-40.96-43.52l-3.2-2.56-121.6-87.040 46.72-141.44 0.64-1.92q 12.16-38.4 7.040-58.24t-25.6-19.84q-23.68,0-55.68,24.32l-1.92,1.28-1.92,0.64-120.96,87.040-122.88-87.68-1.92-1.28q-33.28-24.96-56.32-24.96-20.48,0-25.6,20.48t 7.040,58.88l 0.64,1.92 46.72,141.44-121.6,87.040-1.28,1.28-1.92,0.64q-32.64,23.68-40.96,43.52z m 105.6-16.64l 129.92-92.8-13.44-41.6-36.48-110.72 131.2,94.080 131.2-94.080-36.48,110.72-13.44,41.6 129.92,92.8-160.64,0-13.44,40.96-37.12,112-51.2-153.6-160.64,0z" horiz-adv-x="638.080"  />
<glyph unicode="&#xf4c2;" d="M 1.614,352.64q-7.68,19.2 10.24,30.72t 56.32,11.52l 148.48,0 44.8,136.32 0,0.64q 8.96,27.52 21.12,42.24t 24.32,13.44l0-465.92-118.4-86.4-1.92-1.28q-31.36-22.4-52.48-23.040t-25.6,19.2 6.4,56.96l0,0.64 0,0.64 44.8,136.32-116.48,83.2-1.28,1.28-1.92,0.64q-31.36,22.4-39.040,41.6z" horiz-adv-x="307.2"  />
<glyph unicode="&#xf4c3;" d="M 1.748,343.68q-7.68,19.84 10.24,32t 58.24,11.52l 154.88,0 46.72,142.72 0,0.64q 9.6,28.8 21.76,43.52t 25.6,14.72l0-107.52-51.2-153.6-160.64,0 129.92-92.8-13.44-41.6-36.48-110.72 131.2,94.080 0-73.6-122.88-87.68-1.92-1.28q-33.28-24.96-56.32-24.96-20.48,0-25.6,20.48t 7.040,58.88l 0.64,1.92 46.72,141.44-120.96,87.040-1.28,1.28-1.92,0.64q-32.64,23.68-40.32,43.52z" horiz-adv-x="318.72"  />
<glyph unicode="&#xf4c4;" d="M0-11.256q0,5.755 0.639,14.707t 7.034,29.414 17.265,31.972q 10.87,10.87 43.482,24.299t 73.535,27.496 60.107,24.299q 24.299,12.149 37.087,35.809t 13.428,48.597q0,17.265-20.462,40.285-21.101,24.299-33.89,65.222t-12.788,95.276q0,40.285 11.51,72.257t 31.332,50.515 45.4,28.774 54.352,9.592 54.352-9.592 45.4-28.774 31.972-50.515 11.51-72.257q0-53.713-12.788-95.276t-33.89-65.222q-21.101-23.659-21.101-40.285 0-24.938 13.428-48.597t 37.727-35.809q 19.183-9.592 60.107-24.299t 72.896-27.496 42.842-24.299q 11.51-11.51 17.265-30.054t 7.034-32.611l 0.639-13.428-654.783,0z" horiz-adv-x="655.36"  />
<glyph unicode="&#xf4c5;" d="M-0.172-11.52q0,5.76 0.64,14.080t 6.4,28.8 17.28,30.72q 10.88,10.88 40.96,23.040t 69.76,26.88 57.6,23.68q 23.040,11.52 35.84,33.92t 12.8,47.36q0,17.28-19.84,39.040-11.52,13.44-19.84,37.76-27.52,11.52-27.52,46.72 0,26.24 8.96,37.76-2.56,17.28-5.76,51.84-0.64,5.12-1.28,13.44t 1.28,28.16 9.6,33.92q 12.16,21.12 30.080,28.8t 30.080,3.2q 0.64,3.2 2.56,8.32t 8.96,13.44 16,13.44q 5.12,2.56 16,3.84t 27.52,0 33.28-5.12 34.56-13.44 31.36-24.32 22.4-37.76 8.96-53.76q0-6.4 0-12.8-2.56-28.8-5.76-51.84 8.96-11.52 8.96-37.76 0-35.2-27.52-46.72-8.32-23.68-19.84-37.76-19.84-22.4-19.84-39.040 0-24.32 12.8-47.36t 35.84-33.92q 18.56-9.6 57.6-23.68t 69.76-26.88 41.6-23.040q 10.88-10.88 16.64-29.44t 6.4-31.36l 0.64-12.8-625.28,0z" horiz-adv-x="625.28"  />
<glyph unicode="&#xf4c6;" d="M-0.037-11.52q0,5.76 0.64,14.72t 7.040,28.8 17.28,31.36q 10.88,10.88 41.6,23.68t 71.040,27.52 58.24,23.68q 20.48,10.88 33.28,30.080t 15.36,41.6l-51.84,0q-1.28,5.76-3.2,15.36t-6.4,37.76-7.68,55.040-4.48,61.44 0.64,62.080 9.6,51.84 21.12,36.48q 12.16,12.16 26.88,16.64t 21.76,0q 0.64,0 0.64,0 0,0.64 1.28,5.12 8.32,21.76 26.24,30.72 11.52,5.76 39.68,5.12 1.28,0 4.48,0t 4.48,0l 0.64,0q 16-1.28 35.84-7.040 17.28-5.12 32-12.8t 30.080-22.4 25.6-33.92 16-48 3.84-64.64q-1.92-42.88-5.76-78.080t-7.040-55.040-6.4-33.28-5.12-17.92l-1.92-4.48-51.84,0q 2.56-22.4 14.72-41.6t 33.28-30.080q 18.56-9.6 58.24-23.68t 71.040-27.52 42.24-23.68q 10.88-11.52 17.28-30.080t 7.040-32l 0.64-12.8-636.8,0z" horiz-adv-x="636.8"  />
<glyph unicode="&#xf4c7;" d="M0,96.028q 12.798,5.119 38.394,14.078t 44.794,16.637 31.996,14.078q 23.677,12.158 36.475,35.835t 12.798,48.633q0,17.277-19.837,40.314-12.158,13.438-21.117,39.034-28.796,11.518-28.796,48.633 0,27.516 8.959,39.034-3.199,24.956-5.759,52.472-2.559,35.195 17.277,69.11t 53.752,53.752 70.39,20.477q 27.516,0 54.392-12.158t 46.074-31.996 31.356-46.074 8.959-53.112q-3.199-35.835-5.759-52.472 8.959-12.158 8.959-39.034 0-37.115-28.796-48.633-9.599-26.236-20.477-39.034-20.477-23.677-20.477-40.314 0-25.596 12.798-48.633t 37.115-35.835q 19.197-9.599 59.512-24.317t 72.31-27.516 42.234-24.317q 11.518-11.518 17.277-30.076t 7.039-32.636l 0.64-13.438-561.839,0 0,106.865z m 451.135,191.332q0,22.397 7.679,31.996-3.199,21.117-4.479,42.874-1.92,28.796 14.078,56.952t 44.154,45.434 57.592,17.917 57.592-17.917 44.154-45.434 14.078-56.952q-1.28-22.397-4.479-42.874 7.679-9.599 7.679-31.996 0-30.076-23.677-39.674-7.039-21.117-16.637-31.996-5.759-6.399-8.319-10.239t-5.759-10.239-3.199-12.798q0-20.477 10.879-39.674t 30.076-29.436q 11.518-5.759 27.516-12.158t 37.755-14.078 31.996-12.158l0-86.388-162.537,0q0,2.559 0,7.039t-1.92,16.637-4.479,23.037-8.959,24.317-14.718,21.117q-15.358,15.358-33.915,28.156t-51.193,23.677q 17.277,21.757 17.277,49.913 0,6.399-3.199,12.798t-5.759,10.239-7.679,10.239q-8.959,9.599-17.277,31.356-23.677,10.239-23.677,39.674z" horiz-adv-x="768.64"  />
<glyph unicode="&#xf4c8;" d="M-0.16,44.8l0,487.040q0,23.040 16.64,39.68t 39.68,16.64l 74.88,0 0-112.64 337.28,0 0,112.64 74.88,0q 23.040,0 39.68-16.64t 16.64-39.68l0-487.040q0-23.040-16.64-39.68t-39.68-16.64l-74.88,0 0,112.64-337.28,0 0-112.64-74.88,0q-23.040,0-39.68,16.64t-16.64,39.68z m 47.36,28.16l0-37.76 37.76,0 0,37.76-37.76,0z m0,56.32l 37.76,0 0,37.76-37.76,0 0-37.76z m0,93.44l 37.76,0 0,37.76-37.76,0 0-37.76z m0,94.080l 37.76,0 0,37.76-37.76,0 0-37.76z m0,93.44l 37.76,0 0,37.76-37.76,0 0-37.76z m0,94.080l 37.76,0 0,37.76-37.76,0 0-37.76z m 84.48-309.76l 337.28,0 0,187.52-337.28,0 0-187.52z m 383.36-121.6l0-37.76 37.76,0 0,37.76-37.76,0z m0,56.32l 37.76,0 0,37.76-37.76,0 0-37.76z m0,93.44l 37.76,0 0,37.76-37.76,0 0-37.76z m0,94.080l 37.76,0 0,37.76-37.76,0 0-37.76z m0,93.44l 37.76,0 0,37.76-37.76,0 0-37.76z m0,94.080l 37.76,0 0,37.76-37.76,0 0-37.76z" horiz-adv-x="599.68"  />
<glyph unicode="&#xf4c9;" d="M0,169.682l0,238.555q0,39.652 27.501,67.793t 66.514,28.141l 351.117,0q 37.734,0 65.235-26.861t 28.78-65.235l 133.028,85.061q 15.989,10.872 28.141,3.837t 11.512-27.501l0-369.664q0-21.105-11.512-28.141t-28.141,3.837l-133.028,85.061q-1.279-38.374-28.78-65.235t-65.235-26.861l-351.117,0q-39.013,0-66.514,28.141t-27.501,67.793z m 406.758,225.764q0-11.512 8.314-19.827t 19.827-8.314 19.827,8.314 8.314,19.827-8.314,19.827-19.827,8.314-19.827-8.314-8.314-19.827z" horiz-adv-x="712.32"  />
<glyph unicode="&#xf4ca;" d="M-0.16,288.64q0,60.8 23.68,116.48t 64,96 96,64 116.48,23.68 116.48-23.68 96-64 64-96 23.68-116.48-23.68-116.48-64-96-96-64-116.48-23.68-116.48,23.68-96,64-64,96-23.68,116.48z m 112.64,0q0-50.56 24.96-94.080t 68.48-68.48 94.080-24.96 94.080,24.96 68.48,68.48 24.96,94.080q0,51.2-24.96,94.080t-68.48,68.48-94.080,24.96-94.080-24.96-68.48-68.48-24.96-94.080z m 113.28-96q 63.36,3.84 106.88,50.56t 43.52,110.080q0,17.28-3.2,33.92 23.040-16.64 35.84-42.88t 13.44-55.040q0-50.56-35.84-85.76t-85.76-35.84q-41.6,0-74.24,25.6z" horiz-adv-x="599.68"  />
<glyph unicode="&#xf4cb;" d="M0,125.546l0,324.908q0,41.573 30.060,70.994t 71.633,29.421l 471.372,0q 41.573,0 71.633-29.421t 30.060-70.994l0-324.908q0-40.933-30.060-70.354t-71.633-29.421l-471.372,0q-41.573,0-71.633,29.421t-30.060,70.354z m 72.913,324.908q0-11.512 8.315-19.827t 19.827-8.315q 11.512,0 19.827,8.315t 8.315,19.827-8.315,19.827-19.827,8.315-19.827-8.315-8.315-19.827z m 114.485-156.698q0-40.294 19.827-74.831t 54.365-54.365 74.831-19.827 74.831,19.827 54.365,54.365 19.827,74.831-19.827,74.831-54.365,54.365-74.831,19.827-74.831-19.827-54.365-54.365-19.827-74.831z m 56.284,0q0-39.014 27.502-66.516t 65.877-27.502 65.877,27.502 27.502,66.516q0,39.014-27.502,65.877t-66.516,27.502-66.516-27.502-27.502-65.877z" horiz-adv-x="674.56"  />
<glyph unicode="&#xf4cc;" d="M 43.51,104.361q0-19.196 13.437-32.633t 32.633-13.437l 507.405,0q 19.196,0 32.633,13.437t 13.437,32.633-13.437,32.633-32.633,13.437l-507.405,0q-18.556,0-32.633-13.437t-13.437-32.633z m0,184.278q0-19.196 13.437-32.633t 32.633-13.437l 507.405,0q 19.196,0 32.633,13.437t 13.437,32.633-13.437,32.633-32.633,13.437l-507.405,0q-18.556,0-32.633-13.437t-13.437-32.633z m0,184.278q0-19.196 13.437-32.633t 32.633-13.437l 507.405,0q 19.196,0 32.633,13.437t 13.437,32.633-13.437,32.633-32.633,13.437l-507.405,0q-18.556,0-32.633-13.437t-13.437-32.633z" horiz-adv-x="686.72"  />
<glyph unicode="&#xf4cd;" d="M-0.16,22.4l0,183.040q0,13.44 9.6,23.68t 23.68,9.6l 182.4,0q 13.44,0 23.68-9.6t 9.6-23.68l0-183.040q0-13.44-9.6-23.68t-23.68-9.6l-182.4,0q-13.44,0-23.68,9.6t-9.6,23.68z m0,348.8l0,183.040q0,13.44 9.6,23.68t 23.68,9.6l 182.4,0q 13.44,0 23.68-9.6t 9.6-23.68l0-183.040q0-13.44-9.6-23.68t-23.68-9.6l-182.4,0q-13.44,0-23.68,9.6t-9.6,23.68z m 350.080-348.8l0,183.040q0,13.44 9.6,23.68t 23.040,9.6l 183.040,0q 13.44,0 23.040-9.6t 9.6-23.68l0-183.040q0-13.44-9.6-23.68t-23.68-9.6l-183.040,0q-13.44,0-23.040,9.6t-9.6,23.68z m0,348.8l0,183.040q0,13.44 9.6,23.040t 23.040,9.6l 183.040,0q 13.44,0 23.68-9.6t 9.6-23.040l0-183.040q0-13.44-9.6-23.68t-23.040-9.6l-183.040,0q-13.44,0-23.040,9.6t-9.6,23.68z" horiz-adv-x="599.68"  />
<glyph unicode="&#xf4ce;" d="M-0.16,22.4l0,183.040q0,13.44 9.6,23.68t 23.040,9.6l 183.040,0q 13.44,0 23.040-9.6t 9.6-23.68l0-183.040q0-13.44-9.6-23.68t-23.040-9.6l-183.040,0q-13.44,0-23.68,9.6t-9.6,23.68z m0,348.8l0,183.040q0,13.44 9.6,23.040t 23.68,9.6l 183.040,0q 13.44,0 23.040-9.6t 9.6-23.040l0-183.040q0-13.44-9.6-23.68t-23.040-9.6l-183.040,0q-13.44,0-23.040,9.6t-9.6,23.68z m 56.32-325.76l 136.32,0 0,136.96-136.32,0 0-136.96z m0,348.8l 136.32,0 0,136.96-136.32,0 0-136.96z m 293.76-371.84l0,183.040q0,13.44 9.6,23.68t 23.040,9.6l 183.040,0q 13.44,0 23.040-9.6t 9.6-23.68l0-183.040q0-13.44-9.6-23.68t-23.68-9.6l-183.040,0q-13.44,0-23.040,9.6t-9.6,23.68z m0,348.8l0,183.040q0,13.44 9.6,23.040t 23.040,9.6l 183.040,0q 13.44,0 23.68-9.6t 9.6-23.040l0-183.040q0-13.44-9.6-23.68t-23.040-9.6l-183.040,0q-13.44,0-23.040,9.6t-9.6,23.68z m 56.32-325.76l 136.96,0 0,136.96-136.96,0 0-136.96z m0,348.8l 136.96,0 0,136.96-136.96,0 0-136.96z" horiz-adv-x="599.68"  />
<glyph unicode="&#xf4cf;" d="M-0.16,104.32q0-19.2 13.44-32.64t 32.64-13.44l 20.48,0q 19.2,0 32.64,13.44t 13.44,32.64-13.44,32.64-32.64,13.44l-20.48,0q-19.2,0-32.64-13.44t-13.44-32.64z m0,184.32q0-19.2 13.44-32.64t 32.64-13.44l 20.48,0q 19.2,0 32.64,13.44t 13.44,32.64-13.44,32.64-32.64,13.44l-20.48,0q-19.2,0-32.64-13.44t-13.44-32.64z m0,184.32q0-19.2 13.44-32.64t 32.64-13.44l 20.48,0q 19.2,0 32.64,13.44t 13.44,32.64-13.44,32.64-32.64,13.44l-20.48,0q-19.2,0-32.64-13.44t-13.44-32.64z m 149.76-368.64q0-19.2 13.44-32.64t 32.64-13.44l 357.76,0q 19.2,0 32.64,13.44t 13.44,32.64-13.44,32.64-32.64,13.44l-357.76,0q-19.2,0-32.64-13.44t-13.44-32.64z m0,184.32q0-19.2 13.44-32.64t 32.64-13.44l 357.76,0q 19.2,0 32.64,13.44t 13.44,32.64-13.44,32.64-32.64,13.44l-357.76,0q-19.2,0-32.64-13.44t-13.44-32.64z m0,184.32q0-19.2 13.44-32.64t 32.64-13.44l 357.76,0q 19.2,0 32.64,13.44t 13.44,32.64-13.44,32.64-32.64,13.44l-357.76,0q-19.2,0-32.64-13.44t-13.44-32.64z" horiz-adv-x="599.68"  />
<glyph unicode="&#xf4d0;" d="M-0.131,281.6q0-22.4 15.36-37.76l 156.8-153.6q 15.36-15.36 39.040-15.36 22.4,0 38.4,15.36l 323.2,316.8q 16,15.36 16,37.76t-16,37.76q-16,15.36-38.4,15.36t-38.4-15.36l-284.16-279.040-118.4,116.48q-16,15.36-38.4,15.36t-38.4-15.36q-15.36-15.36-15.36-37.76z" horiz-adv-x="588.8"  />
<glyph unicode="&#xf4d1;" d="M-0.16,288.64q0,60.8 23.68,116.48t 64,96 96,64 116.48,23.68 116.48-23.68 96-64 64-96 23.68-116.48-23.68-116.48-64-96-96-64-116.48-23.68-116.48,23.68-96,64-64,96-23.68,116.48z m 113.28-19.84q0-14.080 9.6-24.32l 97.92-97.92q 8.96-10.24 24.32-10.24 14.080,0 24.32,10.24l 201.6,201.6q 10.24,10.24 10.24,24.32t-10.24,23.68-24.32,9.6-24.32-9.6l-177.28-177.28-74.24,73.6q-9.6,10.24-23.68,10.24t-24.32-10.24q-9.6-9.6-9.6-23.68z" horiz-adv-x="599.68"  />
<glyph unicode="&#xf4d2;" d="M-0.168,122.24q0,23.040 16.64,39.040l 124.8,124.8-124.8,125.44q-16.64,16-16.64,39.040t 16.64,39.040 39.040,16 39.040-16l 125.44-125.44 124.8,125.44q 16,16 39.040,16t 39.040-16 16-39.040-16-39.040l-124.8-125.44 124.8-124.8q 16-16.64 16-39.040t-16-39.040q-16-16-39.040-16t-39.040,16l-124.8,124.8-125.44-124.8q-16-16-39.040-16t-39.040,16q-16.64,16-16.64,39.040z" horiz-adv-x="439.040"  />
<glyph unicode="&#xf4d3;" d="M-0.16,288.64q0,60.8 23.68,116.48t 64,96 96,64 116.48,23.68 116.48-23.68 96-64 64-96 23.68-116.48-23.68-116.48-64-96-96-64-116.48-23.68-116.48,23.68-96,64-64,96-23.68,116.48z m 167.040-99.2q0-14.080 10.24-23.68 9.6-10.24 23.68-10.24t 24.32,10.24l 75.52,75.52 76.16-75.52q 9.6-10.24 23.68-10.24 13.44,0 23.68,10.24 9.6,9.6 9.6,23.68t-9.6,23.68l-76.16,75.52 76.16,76.16q 9.6,9.6 9.6,23.68t-9.6,23.68-23.68,9.6-23.68-9.6l-76.16-76.16-75.52,76.16q-10.24,9.6-23.68,9.6t-23.68-9.6q-10.24-9.6-10.24-23.68t 10.24-23.68l 75.52-76.16-75.52-75.52q-10.24-9.6-10.24-23.68z" horiz-adv-x="599.68"  />
<glyph unicode="&#xf4d4;" d="M-0.29,250.88l0,76.16q0,12.8 8.96,22.4t 22.4,8.96l 179.84,0 0,179.84q0,12.8 8.96,22.4t 22.4,9.6l 76.16,0q 12.8,0 22.4-9.6t 8.96-22.4l0-179.84 179.84,0q 12.8,0 22.4-8.96t 9.6-22.4l0-76.16q0-12.8-9.6-22.4t-22.4-8.96l-179.84,0 0-180.48q0-12.8-8.96-22.4t-22.4-8.96l-76.16,0q-12.8,0-22.4,8.96t-8.96,22.4l0,180.48-179.84,0q-12.8,0-22.4,8.96t-8.96,22.4z" horiz-adv-x="561.92"  />
<glyph unicode="&#xf4d5;" d="M-0.16,288.64q0,60.8 23.68,116.48t 64,96 95.36,64 116.48,23.68q 60.8,0 116.48-23.68t 96-64 64-96 23.68-116.48-23.68-116.48-64-96-96-64-116.48-23.68q-61.44,0-116.48,23.68t-95.36,64-64,96-23.68,116.48z m 213.12,112.64l 19.84-65.28q 29.44,18.56 58.88,18.56 32,0 32-14.080 0-2.56-1.28-5.12t-3.84-4.48-4.48-3.2-6.4-3.84-5.76-3.2l-25.6-13.44q-13.44-7.68-17.92-16t-3.84-23.68l0-24.32 74.88,0 0,10.24q0,4.48 0,6.4t 1.28,3.84 4.48,3.2q0,0 6.4,3.2t 11.52,5.76 11.52,6.4 11.52,8.32q 12.8,10.88 19.2,23.68t 6.4,35.84q0,31.36-26.88,53.12t-67.84,21.76q-54.4,0-94.72-23.68z m 30.72-213.12q0-20.48 12.8-31.36t 35.2-10.88q 21.76,0 34.56,10.88t 12.8,31.36-12.8,31.36-34.56,11.52q-22.4,0-35.2-11.52t-12.8-31.36z" horiz-adv-x="599.68"  />
<glyph unicode="&#xf4d6;" d="M-0.16,288.64q0,61.44 23.68,116.48t 64,95.36 95.36,64 116.48,23.68q 60.8,0 116.48-23.68t 96-64 64-95.36 23.68-116.48q0-60.8-23.68-116.48t-64-96-96-64-116.48-23.68q-61.44,0-116.48,23.68t-95.36,64-64,96-23.68,116.48z m 74.88,0q0-45.44 17.92-87.040t 48-71.68 71.68-48 87.040-17.92 87.040,17.92 71.68,48 48,71.68 17.92,87.040q0,61.44-30.080,112.64t-81.92,81.92-112.64,30.080-112.64-30.080-81.92-81.92-30.080-112.64z m 138.24,113.28l 19.84-65.28q 28.8,18.56 59.52,18.56 31.36,0 31.36-14.72 0-2.56-1.28-4.48t-2.56-3.84-3.84-3.2-4.48-2.56-5.12-2.56l-5.12-2.56-25.6-13.44q-13.44-7.68-17.92-16t-3.84-23.68l0-23.68 74.88,0 0,10.24q0,4.48 0,6.4t 1.28,3.84 3.84,3.2q 0.64,0 6.4,3.2t 10.88,5.12 12.16,6.4 12.16,8.32q 12.16,10.88 18.56,23.68t 6.4,35.2q0,31.36-26.88,53.12t-67.84,21.76q-53.12,0-94.72-23.68z m 30.72-213.76q0-20.48 12.8-31.36t 35.2-10.88q 21.76,0 34.56,10.88t 12.8,31.36-12.8,31.36-34.56,11.52q-22.4,0-35.2-11.52t-12.8-31.36z" horiz-adv-x="599.68"  />
<glyph unicode="&#xf4d7;" d="M-0.16,288.64q0,61.44 23.68,116.48t 64,95.36 95.36,64 116.48,23.68q 60.8,0 116.48-23.68t 96-64 64-95.36 23.68-116.48q0-60.8-23.68-116.48t-64-96-96-64-116.48-23.68q-61.44,0-116.48,23.68t-95.36,64-64,96-23.68,116.48z m 254.72,108.8q0-18.56 12.16-29.44t 32.64-10.88q 20.48,0 32.64,10.88t 12.16,29.44-12.16,29.44-32.64,10.88q-20.48,0-32.64-10.88t-12.16-28.8z m 2.56-257.28l 84.48,0 0,191.36-84.48,0 0-191.36z" horiz-adv-x="599.68"  />
<glyph unicode="&#xf4d8;" d="M-0.16,288.64q0,61.44 23.68,116.48t 64,95.36 95.36,64 116.48,23.68q 60.8,0 116.48-23.68t 96-64 64-95.36 23.68-116.48q0-60.8-23.68-116.48t-64-96-96-64-116.48-23.68q-61.44,0-116.48,23.68t-95.36,64-64,96-23.68,116.48z m 74.88,0q0-45.44 17.92-87.040t 48-71.68 71.68-48 87.040-17.92 87.040,17.92 71.68,48 48,71.68 17.92,87.040-17.92,87.040-48,71.68-71.68,48-87.040,17.92-87.040-17.92-71.68-48-48-71.68-17.92-87.040z m 179.84,108.8q0,17.92 12.16,28.8t 32.64,10.88q 20.48,0 32.64-10.88t 12.16-29.44-12.16-29.44-32.64-10.88q-20.48,0-32.64,10.88t-12.16,29.44z m 2.56-257.28l0,191.36 84.48,0 0-191.36-84.48,0z" horiz-adv-x="599.68"  />
<glyph unicode="&#xf4d9;" d="M-0.161,282.24q-1.92,9.6 13.44,23.68l 243.84,224.64q 14.72,13.44 36.48,13.44t 36.48-13.44l 243.2-224.64q 14.72-13.44 13.44-23.68t-19.2-9.6l-58.24,0 0-195.2q0-20.48-14.72-35.2t-35.2-14.72l-331.52,0q-20.48,0-35.2,14.72t-14.72,35.2l0,195.2-58.88,0q-17.28,0-19.2,9.6z" horiz-adv-x="586.24"  />
<glyph unicode="&#xf4da;" d="M 5.054,126.080q-10.88,42.24 0,84.48t 42.88,73.6l 83.84,83.84q 31.36,31.36 73.6,42.88t 84.48,0 73.6-42.88q 12.8-12.8 12.8-32t-12.8-32-32-12.8-32,12.8q-21.76,21.76-52.48,21.76t-51.84-21.76l-83.84-83.84q-21.12-21.76-21.12-52.48t 21.12-52.48q 21.76-21.12 51.84-21.12t 51.84,21.12l 17.28,17.28q 49.92-24.32 104.96-22.4l-58.24-58.24q-31.36-31.36-73.6-42.88t-84.48,0-73.6,42.88-42.88,73.6z m 186.24,114.56q0,18.56 13.44,32 12.8,12.8 32,12.8t 32-12.8q 21.12-21.76 51.84-21.76t 52.48,21.76l 83.84,83.84q 21.76,21.76 21.76,52.48t-21.76,51.84q-21.12,21.76-51.84,21.76t-52.48-21.76l-17.28-16.64q-49.28,23.68-104.32,22.4l 58.24,58.24q 31.36,31.36 73.6,42.24t 84.48,0 73.6-42.24q 31.36-31.36 42.88-73.6t0-84.48-42.88-73.6l-83.84-83.84q-31.36-31.36-73.6-42.88t-84.48,0-72.96,42.88q-13.44,12.8-13.44,32z" horiz-adv-x="567.68"  />
<glyph unicode="&#xf4db;" d="M-0.189,95.36q0-44.16 30.72-75.52 31.36-31.36 74.88-31.36t 74.88,31.36l 308.48,309.76q 41.6,41.6 41.6,101.76 0,59.52-41.6,101.12t-100.48,41.6-100.48-41.6l-234.24-235.52 35.2-35.84 234.24,236.16q 27.52,27.52 65.92,27.52t 65.92-27.52q 26.88-26.88 26.88-65.28t-26.88-65.92l-308.48-309.76q-16.64-16.64-39.68-16.64t-39.68,16.64q-16,16-16,39.68t 16,39.68l 256.64,258.56q 5.76,5.76 13.44,5.76t 13.44-5.76q 5.12-5.12 5.12-13.44 0-7.68-5.12-12.8l-192.64-194.56 35.2-35.84 192.64,194.56q 20.48,20.48 20.48,48.64 0,29.44-20.48,49.28-19.84,20.48-48,20.48t-48-20.48l-257.28-258.56q-30.72-31.36-30.72-75.52z" horiz-adv-x="530.56"  />
<glyph unicode="&#xf4dc;" d="M-0.309,45.44l0,251.52q0,8.96 6.4,15.36t 15.36,6.4l 28.8,0 0,94.72q0,34.56 12.8,66.56t 35.84,56.32q 23.040,24.96 54.4,38.4t 66.56,13.44q 35.2,0 66.56-13.44t 54.4-38.4q 23.040-24.32 35.84-56.32t 12.8-66.56l0-94.72 29.44,0q 8.96,0 15.36-6.4t 6.4-15.36l0-251.52q0-4.48-1.28-7.68t-5.12-5.76-6.4-3.84-8.96-4.48q-12.16-5.12-33.92-11.52t-70.4-15.36-94.080-8.32q-96.64,0-198.4,35.84-10.88,3.84-16,8.32t-5.76,12.8z m 131.84,273.28l 177.28,0 0,94.72q0,40.32-26.88,68.48-25.6,26.24-62.080,26.88-36.48,0-62.080-26.88-26.24-28.16-26.24-68.48l0-94.72z" horiz-adv-x="440.32"  />
<glyph unicode="&#xf4dd;" d="M-0.145,45.44l0,251.52q0,8.96 6.4,15.36t 16,6.4l 28.8,0 0,95.36q0,35.2 12.8,66.56t 35.84,56.32q 23.040,24.32 54.4,38.4t 66.56,13.44 66.56-13.44 54.4-38.4q 23.040-24.32 35.84-56.32t 12.8-66.56l0-95.36 28.8,0q 9.6,0 16-6.4t 6.4-15.36l0-251.52q0-8.32-5.12-12.16t-17.28-8.96q-6.4-2.56-22.4-7.68t-42.24-11.52-62.72-11.52-71.68-4.48q-99.2,0-198.4,35.84-10.88,3.2-16.64,8.32t-5.76,12.8z m 131.84,272.64l 177.92,0 0,95.36q0,40.32-26.88,69.12-26.24,26.88-62.080,26.88t-62.080-26.88q-26.24-28.16-26.24-69.12l0-95.36z m 17.92-213.76q0-7.040 5.12-12.8 5.76-5.76 12.8-5.76 7.68,0 12.8,5.76l 40.32,39.68 40.32-39.68q 5.12-5.76 12.8-5.76 7.040,0 12.8,5.76 5.12,5.12 5.12,12.8t-5.12,12.16l-40.32,40.32 40.32,39.68q 5.12,5.12 5.12,12.8t-5.12,12.8-12.8,5.12-12.8-5.12l-40.32-40.32-40.32,40.32q-5.12,5.12-12.8,5.12t-12.8-5.12-5.12-12.8 5.12-12.8l 40.32-39.68-40.32-40.32q-5.12-5.12-5.12-12.8z" horiz-adv-x="440.96"  />
<glyph unicode="&#xf4de;" d="M 20.464,293.756l0,119.585q0,34.532 12.79,66.507t 35.172,56.275q 23.021,24.94 53.717,38.369t 65.228,13.429 65.228-13.429 53.078-38.369 35.172-55.636 12.79-66.507l0-94.645 289.050,0q 8.953,0 15.348-6.395t 6.395-15.348l0-251.32q0-5.756-3.197-9.592t-6.395-5.756-12.15-5.756q-7.034-2.558-22.382-7.674t-42.207-11.511-62.67-11.511-71.623-4.476q-99.121,0-198.243,35.812-10.872,3.837-16.627,8.314t-5.756,12.79l0,251.32q0,8.953 6.395,15.348t 15.348,6.395l 28.777,0 0,94.645q0,39.649-26.219,68.426-25.58,26.859-60.752,26.859-36.451,0-60.752-26.859-26.219-28.138-26.219-68.426l0-29.417-38.369-46.044 38.369,0 0-44.125-37.73-28.138z" horiz-adv-x="683.52"  />
<glyph unicode="&#xf4df;" d="M-0.145,45.44l0,251.52q0,8.96 6.4,15.36t 16,6.4l 287.36,0 0,95.36q0,40.32-26.88,69.12-26.24,26.88-62.080,26.88t-62.080-26.88q-26.24-28.16-26.24-69.12l0-24.32-80.64,0 0,24.32q0,35.2 12.8,66.56t 35.84,56.32q 23.040,24.32 54.4,38.4t 66.56,13.44 66.56-13.44 54.4-38.4q 23.040-24.32 35.84-56.32t 12.8-66.56l0-95.36 28.8,0q 9.6,0 16-6.4t 6.4-15.36l0-251.52q0-8.32-5.12-12.16t-17.28-8.96q-6.4-2.56-22.4-7.68t-42.24-11.52-62.72-11.52-71.68-4.48q-99.2,0-198.4,35.84-10.88,3.2-16.64,8.32t-5.76,12.8z m 119.68,109.44q0-7.68 5.12-12.8l 54.4-53.12q 5.12-5.12 12.8-5.12 8.32,0 12.8,5.12l 112,109.44q 5.76,5.76 5.76,13.44t-5.76,13.44q-5.12,5.12-12.8,5.12t-12.8-5.12l-99.2-96.64-40.96,39.68q-5.76,5.76-13.44,5.76t-13.44-5.76q-5.12-5.12-5.12-12.8z" horiz-adv-x="440.96"  />
<glyph unicode="&#xf4e0;" d="M-0.16,288.64q0,19.2 9.6,42.88t 27.52,49.28 44.8,49.92 58.88,43.52 73.6,30.72 84.48,11.52 84.48-11.52 73.6-30.72 58.88-43.52 44.8-49.92 27.52-49.28 9.6-42.88q0-18.56-9.6-42.88t-27.52-49.28-44.8-49.92-58.88-43.52-73.6-30.72-84.48-11.52-84.48,11.52-73.6,30.72-58.88,43.52-44.8,49.92-27.52,49.28-9.6,42.88z m 149.76,0q0-40.32 19.84-74.88t 54.4-54.4 74.88-19.84 74.88,19.84 54.4,54.4 19.84,74.88-19.84,74.88-54.4,54.4-74.88,19.84-74.88-19.84-54.4-54.4-19.84-74.88z m 87.040,0q0-26.24 18.56-44.16t 44.16-18.56 44.16,18.56 18.56,44.16q0,26.24-18.56,44.8t-44.16,18.56-44.16-18.56-18.56-44.8z" horiz-adv-x="599.68"  />
<glyph unicode="&#xf4e1;" d="M-0.16,118.4l0,46.080q0,21.12 15.36,36.48t 36.48,14.72 36.48-14.72 14.72-36.48l0-46.080q0-11.52 7.68-19.2t 19.2-7.68l 340.48,0q 10.88,0 19.2,7.68t 7.68,19.2l0,46.080q0,21.12 14.72,36.48t 36.48,14.72 36.48-14.72 15.36-36.48l0-46.080q0-53.76-37.76-91.52t-91.52-38.4l-340.48,0q-53.76,0-91.52,38.4t-37.76,91.52z m 99.2,229.76q0,21.12 15.36,36.48 14.72,14.72 36.48,14.72t 36.48-14.72l 67.2-67.2 0,220.16q0,21.12 14.72,36.48t 36.48,14.72 36.48-14.72 15.36-36.48l0-220.16 70.4,70.4q 14.72,14.72 36.48,14.72t 36.48-14.72q 15.36-14.72 15.36-36.48t-15.36-36.48l-158.080-158.080q-15.36-15.36-36.48-15.36-20.48,0-36.48,15.36l-154.88,154.88q-15.36,15.36-15.36,36.48z" horiz-adv-x="599.68"  />
<glyph unicode="&#xf4e2;" d="M-0.16,118.4l0,46.080q0,21.12 15.36,36.48t 36.48,14.72 36.48-14.72 14.72-36.48l0-46.080q0-11.52 7.68-19.2t 19.2-7.68l 339.84,0q 10.88,0 19.2,7.68t 7.68,19.2l0,46.080q0,21.12 14.72,36.48t 36.48,14.72 36.48-14.72 15.36-36.48l0-46.080q0-53.76-37.76-91.52t-91.52-38.4l-339.84,0q-53.76,0-91.52,37.76t-38.4,92.16z m 99.2,260.48q0,21.12 14.72,36.48l 158.080,158.080q 14.72,14.72 36.48,14.72 21.12,0 36.48-14.72l 155.52-154.88q 14.72-15.36 14.72-36.48t-14.72-36.48q-15.36-14.72-36.48-14.72t-36.48,14.72l-67.2,67.2 0-220.8q0-21.12-14.72-36.48t-36.48-15.36q-21.12,0-36.48,15.36t-15.36,36.48l0,220.8-70.4-70.4q-14.72-14.72-36.48-14.72t-36.48,14.72-14.72,36.48z" horiz-adv-x="599.68"  />
<glyph unicode="&#xf4e3;" d="M0,240.022q 1.919,35.183 15.353,65.889t 39.661,56.294 60.771,39.021q 40.941,17.272 98.514,9.596 25.588,50.536 72.286,81.242t 104.911,30.705q 52.456,0 97.235-26.228t 69.727-70.367 25.588-95.315l0-18.551 4.478,0q 51.816,20.47 101.712-2.559t 71.646-72.286q 20.47-51.816-2.559-101.712t-72.286-71.646l-10.875-2.559t-10.235-2.559-8.316-1.919-8.956-1.279-8.316-0.64l-463.142,0q-53.735,0-98.514,31.345t-65.249,85.72q-14.713,33.265-12.794,67.808z m 286.586,66.529q-3.838-6.397 2.559-12.794l 83.8-140.094q 4.478-5.117 9.596-5.117 1.919,0 4.478,1.279t 3.838,2.559l 1.279,1.279 89.558,140.094q 3.838,7.676 0,13.434t-14.074,5.757l-32.625,0 0,65.249-98.514,0 0-65.249-37.742,0q-7.676,0-11.515-6.397z" horiz-adv-x="771.2"  />
<glyph unicode="&#xf4e4;" d="M0,225.284q-1.28,28.798 6.399,55.036t 22.399,49.917 37.117,41.597 49.277,28.798q 49.277,18.559 99.834,8.319 23.679,51.837 71.036,83.195t 106.233,31.358q 39.677,0 75.515-15.359t 62.076-41.597 41.597-62.076 15.359-75.515q0-5.759-1.28-17.279 0.64,0 2.56,0.64t 1.92,0.64q 51.197,19.839 101.754-2.56t 70.396-73.596q 12.799-35.837 7.679-69.116t-27.518-62.076-56.316-41.597q-22.399-8.319-46.077-8.959l-190.708,0 0,107.513 43.517,0q 12.159,0 15.999,7.039t-2.56,16.639l-109.433,175.988q-4.48,6.399-10.239,6.399-2.56,0-5.759-1.28t-3.84-3.2l-1.28-1.28-109.433-175.988q-6.399-9.599-1.92-16.639t 15.999-7.039l 42.877,0 0-107.513-143.351,0q-54.396,0-100.474,31.358t-65.916,83.835q-10.879,26.878-12.159,55.676z" horiz-adv-x="771.2"  />
<glyph unicode="&#xf4e5;" d="M-0.287,307.2q0,4.48 1.92,8.96t 3.84,6.4l 1.92,1.92 241.28,175.36q 12.8,10.24 22.4,3.2t 9.6-25.6l0-71.040 17.28-1.28q 61.44-5.12 115.84-34.56t 92.8-74.88 60.16-105.6 21.12-125.44q-39.040,68.48-103.040,112t-142.080,49.92q-31.36,2.56-62.080-0.64l0-87.68q0-19.2-9.6-25.6t-22.4,3.2l-241.28,175.36q-8.32,7.040-8.32,16.64z" horiz-adv-x="588.8"  />
<glyph unicode="&#xf4e6;" d="M-0.056-11.52l 38.4,179.84 401.92,401.92q 13.44,13.44 32.64,13.44t 32-12.8l 78.080-78.080q 13.44-13.44 13.44-32t-13.44-32l-401.92-401.92z m 43.52,43.52l 124.16,28.8 14.72,15.36-95.36,95.36-15.36-15.36z" horiz-adv-x="595.2"  />
<glyph unicode="&#xf4e7;" d="M-0.16,122.24l0,313.6q0,44.8 32,76.16t 76.16,32l 82.56,0q 17.92,0 30.72-12.8t 12.8-30.080q0-17.92-12.8-30.72t-30.72-12.8l-82.56,0q-9.6,0-16-6.4t-6.4-16l0-313.6q0-8.96 6.4-16t 16-6.4l 376.32,0q 9.6,0 16,6.4t 6.4,16l0,38.4q0,17.28 12.8,30.080t 30.080,12.8q 17.92,0 30.080-12.8t 12.8-30.080l0-38.4q0-44.8-31.36-76.16t-76.16-31.36l-376.32,0q-44.8,0-76.16,31.36t-32,76.16z m 156.16,57.6q 28.8,51.84 77.44,84.48t 107.52,37.76q 26.88,1.28 46.72-1.28l0-65.92q0-14.080 7.040-19.2t 17.28,2.56l 181.12,132.48q 6.4,5.12 6.4,12.8 0,3.2-1.28,6.4t-3.2,4.48l-1.28,1.28-181.12,131.84q-9.6,7.68-17.28,3.2t-7.040-19.2l0-54.4q-3.84,0-12.8-0.64-46.080-3.84-87.040-26.24t-70.4-56.32-45.44-80-16-94.72z" horiz-adv-x="599.68"  />
<glyph unicode="&#xf4e8;" d="M-0.16,123.52l0,327.040q0,22.4 16.64,38.4t 39.68,16l 37.76,0 0,8.96q0,23.040 16.64,39.040t 39.68,16l 299.52,0q 23.040,0 39.68-16t 16.64-39.040l0-12.8q0,0.64 0.64,1.92t 0.64,1.92l 36.48,0q 23.040,0 39.68-16t 16.64-38.4l0-327.040q0-22.4-16.64-38.4t-39.68-16l-37.76,0 0-6.4q0-23.040-16.64-39.040t-39.68-16l-299.52,0q-23.040,0-39.68,16t-16.64,39.040l0,6.4-37.76,0q-23.68,0-39.68,16t-16.64,38.4z m 131.2-60.8q0-7.040 5.12-12.16t 12.8-5.12l 299.52,0q 7.68,0 13.44,5.12t 5.76,12.16l0,216.96q-13.44,7.68-28.8,7.68l-280.96,0q-14.72,0-27.52-7.68l0-216.96z m0,391.68q 9.6-3.84 18.56-3.84l 299.52,0q 7.68,0 18.56,3.2l0,60.16q0,7.040-5.76,12.16t-13.44,5.12l-299.52,0q-7.68,0-12.8-5.12t-5.12-12.16l0-60.16z" horiz-adv-x="599.68"  />
<glyph unicode="&#xf4e9;" d="M 1.023,236.16q 3.84,5.76 13.44,5.76l 40.32,0 0,220.16q0,20.48 14.080,34.56t 34.56,14.080l 307.2,0-65.92-97.92-192,0 0-170.24 40.32,0q 10.24,0 13.44-5.76t-1.92-14.080l-91.52-149.76q-3.84-5.12-8.96-5.12-1.92,0-4.48,1.28t-3.2,2.56l-0.64,1.28-91.52,149.76q-5.12,8.32-1.92,14.080z m 180.48-168.96l 65.92,97.92 192,0 0,170.88-40.32,0q-10.24,0-13.44,5.76t 1.92,13.44l 91.52,149.76q 3.2,5.12 8.96,5.12 1.92,0 4.48-1.28t 3.84-2.56l 0.64-1.28 91.52-149.76q 5.12-7.68 1.92-13.44t-13.44-5.76l-40.32,0 0-220.16q0-20.48-14.080-34.56t-34.56-14.080l-306.56,0z" horiz-adv-x="591.36"  />
<glyph unicode="&#xf4ea;" d="M0,323.177q0,42.852 17.268,83.146t 47.969,72.913 72.273,56.923 92.739,37.736 106.171,13.431 106.171-13.431 92.739-37.736 72.273-56.923 47.969-72.913 17.268-83.146q0-53.725-26.863-102.333t-71.633-83.786-107.45-56.284-131.114-21.106q-67.156,0-129.196,19.827l-76.75-54.365q-42.852-26.863-60.76-15.99t-7.675,63.958l 15.99,79.948q-37.736,35.177-58.202,78.029t-20.467,90.82z" horiz-adv-x="674.56"  />
<glyph unicode="&#xf4eb;" d="M0,371.812q0,69.097 43.505,127.317t 118.36,92.769 163.146,33.908q 66.538,0 126.678-19.834t 103.645-54.382 69.097-81.252 25.592-98.527q0-41.586-16.634-79.973t-46.065-70.376-69.736-55.021-89.57-36.468-103.005-12.796q-65.898,0-124.118,19.194l-74.215-51.823q-41.586-26.231-58.86-15.355t-7.037,62.059l 14.715,77.414q-36.468,33.908-56.941,75.494t-19.834,87.651z m 415.86-299.42q 75.494,14.715 137.554,52.463t 101.086,92.769 47.984,119q 56.941-23.032 90.849-65.258t 33.908-94.049q0-31.35-14.076-61.42t-39.027-53.102l 10.876-54.382q 6.398-35.828-5.758-43.505t-40.947,10.876l-51.823,37.108q-40.307-13.436-87.011-13.436-55.661,0-104.285,19.834t-79.333,53.742z" horiz-adv-x="828.16"  />
<glyph unicode="&#xf4ec;" d="M-0.251,346.24q 0.64,13.44 9.6,26.24 9.6,14.72 24.96,22.4t 31.36,6.4q 1.92,0 5.12-0.64 26.24-2.56 48,4.48 58.88,19.2 152.96,112.64 34.56,34.56 81.28,46.72t 92.8,0 80.64-46.72 46.72-81.28 0-92.8-46.72-80.64q-26.24-26.24-46.080-49.28t-32.64-40.32-21.12-33.28-12.16-26.24-5.12-21.12-1.28-16.64 0.64-13.44q 0.64-3.84 0.64-5.76 1.28-15.36-6.4-31.36t-22.4-25.6q-12.8-8.32-26.24-8.96t-29.44,3.84q0,0-6.4,1.28t-12.8,3.2-18.56,6.4-23.68,10.24-28.16,15.36-32.64,21.12-35.84,28.16-39.040,35.84q-17.28,17.28-32.64,35.2t-26.24,32.64-20.48,29.44-15.36,26.88-10.88,23.040-7.68,19.84-4.48,14.72-2.56,10.88-1.28,5.12q-4.48,16-3.84,29.44z m 62.72-41.6q 3.2-19.2 14.72-42.88t 33.28-52.48 49.28-56.32q 56.32-56.32 108.8-83.2t 70.4-8.32q 13.44,14.080 1.28,48.64t-44.8,76.8q-5.12-7.040-8.96-10.88-21.12-21.12-51.84-21.12t-51.84,21.12q-21.12,21.12-21.12,51.84t 21.12,51.84q 3.84,3.2 10.88,8.32-42.24,32.64-76.8,45.44t-48.64-1.28q-9.6-8.96-6.4-27.52z" horiz-adv-x="578.56"  />
<glyph unicode="&#xf4ed;" d="M-0.16,288.64q0,61.44 23.68,116.48t 64,95.36 95.36,64 116.48,23.68q 60.8,0 116.48-23.68t 96-64 64-95.36 23.68-116.48q0-60.8-23.68-116.48t-64-96-96-64-116.48-23.68q-61.44,0-116.48,23.68t-95.36,64-64,96-23.68,116.48z m 247.68,126.080l 17.28-156.16q 1.28-12.8 10.88-22.4t 23.040-10.88q 15.36-1.28 27.52,8.32t 13.44,25.6l 17.28,156.16 0,10.88q-2.56,22.4-19.84,37.12t-39.68,12.16-37.12-19.84-12.16-39.68z m 7.68-263.040q0-19.2 13.44-33.28t 33.28-13.44 33.28,13.44 13.44,33.28-13.44,33.28q-12.8,12.8-33.28,12.8t-33.28-12.8q-13.44-13.44-13.44-33.28z" horiz-adv-x="599.68"  />
<glyph unicode="&#xf4ee;" d="M-0.16,288.64q0,61.44 23.68,116.48t 64,95.36 95.36,64 116.48,23.68q 60.8,0 116.48-23.68t 96-64 64-95.36 23.68-116.48q0-60.8-23.68-116.48t-64-96-96-64-116.48-23.68q-61.44,0-116.48,23.68t-95.36,64-64,96-23.68,116.48z m 74.88,0q0-61.44 30.080-112.64t 81.92-81.92 112.64-30.080q 61.44,0 112.64,30.080t 81.92,81.92 30.080,112.64q0,60.8-30.080,112.64t-81.92,81.92-112.64,30.080q-45.44,0-87.040-17.92t-71.68-48-48-71.68-17.92-87.040z m 172.8,126.080q-1.92,22.4 12.16,39.68t 37.12,19.84q 22.4,1.92 39.68-12.16t 19.84-37.12q 0.64-5.76 0-10.88l-17.28-156.16q-1.28-15.36-13.44-24.96t-27.52-8.32q-13.44,1.28-23.040,10.88t-10.88,22.4z m 7.68-263.040q0,19.84 14.080,33.28 12.8,12.8 32.64,12.8t 32.64-12.8q 14.080-12.8 14.080-33.28t-14.080-33.28q-12.8-14.080-33.28-14.080-19.84,0-32.64,14.080-14.080,12.8-14.080,33.28z" horiz-adv-x="599.68"  />
<glyph unicode="&#xf4ef;" d="M-0.13,367.36q0,44.8 17.28,85.76 16,39.040 47.36,70.4 30.080,30.080 70.4,46.72 40.32,17.28 85.76,17.28 46.080,0 86.4-17.28 39.68-16.64 70.4-46.72 31.36-31.36 47.36-70.4 17.28-40.96 17.28-85.76t-17.28-85.76q-11.52-25.6-23.040-41.6l-145.92-222.080q-14.080-21.76-34.56-21.76t-34.56,21.76l-145.92,222.080q-14.080,19.84-23.040,41.6-17.28,40.96-17.28,85.76z m 138.88,0q0-34.56 23.68-58.24 24.32-24.32 58.24-24.32 34.56,0 58.24,24.32 24.32,23.68 24.32,58.24 0,33.92-24.32,58.24-23.68,24.32-58.24,24.32-33.92,0-58.24-24.32-23.68-24.32-23.68-58.24z" horiz-adv-x="442.24"  />
<glyph unicode="&#xf4f0;" d="M-0.245,502.4q0,23.68 37.76,42.88t 103.040,31.36 142.080,11.52q 77.44,0 142.72-11.52t 103.040-31.36 37.76-42.88q-6.4-51.84-24.96-145.28t-35.2-176.64-18.56-88.32q-3.84-23.040-25.6-42.88t-51.84-32.64-64-19.84-64-7.040-64,7.040-64,19.84-51.2,32.64-25.6,42.88q-2.56,13.44-21.12,102.4t-35.84,177.92-21.76,129.92z m 80.64-143.36l 24.32-117.12 55.68,48z m 3.2,124.16q0-20.48 58.24-34.56t 140.8-14.080q 82.56,0 140.8,14.080t 58.24,34.56q0,20.48-58.24,35.2t-140.8,14.080-140.8-14.080-58.24-35.2z m 35.2-312.32l 13.44-65.28 31.36,26.88z m 5.12,199.040l 64.64-55.68 45.44,39.68q-60.8,3.84-110.080,16z m 3.2-157.44l 64.64-55.68 61.44,52.48-65.28,55.68z m 31.36-133.76q 45.44-19.2 94.72-24.32l-62.080,52.48z m 57.6,211.2l 65.28-55.68 61.44,52.48-64,56.96z m 3.84-157.44l 65.28-56.32 60.8,53.12-65.28,55.68z m 89.6,77.44l 64.64-55.68 58.88,51.2-62.72,56.96z m 8.96-154.24q 45.44,5.12 85.76,23.040l-30.080,26.24z m 5.12,298.24l 46.72-42.24 67.84,58.24q-50.56-12.8-114.56-16z m 74.88-67.2l 59.52-53.76 26.24,127.36z m 4.48-156.8l 28.8-24.96 12.8,61.44z" horiz-adv-x="565.76"  />
<glyph unicode="&#xf4f1;" d="M-0.169,44.8l0,487.040q0,23.040 16.64,39.68t 39.68,16.64l 227.2,0q 1.92,0 3.84,0 24.32-1.92 39.040-16.64l 163.2-156.8q 7.040-7.68 10.24-15.36 1.28-3.2 1.28-3.84t 1.28-3.2 1.28-3.84q 1.28-7.040 1.28-12.8l0-329.6q0-23.040-16.64-39.68t-39.68-16.64l-393.6,0q-23.040,0-39.68,16.64t-16.64,39.68z m 55.68,0l 393.6,0 0,297.6-85.12,0q-46.72,0-79.36,32.64t-32.64,79.36l0,77.44-196.48,0 0-487.040z m 252.8,410.24q0-23.040 16.64-39.68t 39.68-16.64l 75.52,0-131.2,124.16 0-68.48z" horiz-adv-x="505.6"  />
<glyph unicode="&#xf4f2;" d="M-0.16,105.6l0,365.44q0,24.96 17.92,42.88t 42.88,17.92l 357.76,0q 24.96,0 42.88-17.92t 17.92-42.88l0-40.96 60.16,0q 24.96,0 42.88-17.92t 17.92-42.88l0-264.32q0-24.96-17.92-42.88t-42.88-17.92l-478.72,0q-24.96,0-42.88,17.92t-17.92,42.88z m 55.68,27.52q0-12.8 8.96-21.76t 21.76-9.6l 331.52,0q 3.84,0 4.48,3.84l0,337.92q0,13.44-9.6,23.040t-23.040,9.6l-302.080,0q-13.44,0-23.040-8.96t-9.6-22.4l0-311.040z m 47.36,44.8q0,11.52 8.32,19.84t 19.84,8.32l 85.12,0q 11.52,0 19.84-8.32t 8.32-19.84-8.32-19.84-19.84-8.32l-85.12,0q-11.52,0-19.84,8.32t-8.32,19.84z m0,110.72q0,11.52 8.32,19.84t 19.84,8.32l 216.32,0q 11.52,0 19.84-8.32t 8.32-19.84q0-11.52-8.32-19.84t-19.84-8.32l-216.32,0q-11.52,0-19.84,8.32t-8.32,19.84z m0,110.72q0,11.52 8.32,19.84t 19.84,8.32l 216.32,0q 11.52,0 19.84-8.32t 8.32-19.84q0-11.52-8.32-19.84t-19.84-8.32l-216.32,0q-11.52,0-19.84,8.32t-8.32,19.84z m 376.32-266.24q0-12.8 8.96-21.76t 21.12-9.6l 3.2,0q 12.8,0.64 21.76,9.6t 8.96,22.4l0,236.16q0,4.48-3.84,4.48l-60.16,0 0-241.92z" horiz-adv-x="599.68"  />
<glyph unicode="&#xf4f3;" d="M-0.16,99.84l0,327.68q0,22.4 16.64,38.4t 39.68,16l 18.56,0q 1.92,21.12 17.92,35.84t 38.4,14.72l 124.8,0q 22.4,0 38.4-14.72t 17.92-35.84l 231.040,0q 23.68,0 39.68-16t 16.64-38.4l0-327.68q0-22.4-16.64-39.040t-39.68-16l-486.4,0q-23.040,0-39.68,16t-16.64,39.040z" horiz-adv-x="599.68"  />
<glyph unicode="&#xf4f4;" d="M0,101.185l0,325.007q0,22.392 15.994,38.387t 38.387,15.994l 18.554,0q 1.279,21.113 17.274,35.188t 37.107,14.715l 121.558,0q 21.113,0 37.107-14.715t 17.274-35.188l 224.562,0q 22.392,0 38.387-15.994t 15.994-38.387l0-54.381 42.225,0q 22.392,0 35.188-15.994t 8.957-38.387l-63.338-216.885q-3.839-22.392-23.032-38.387t-42.225-15.994l-485.592,0q-22.392,0-38.387,15.994t-15.994,38.387z m 54.381,108.762l 31.349,108.122q 4.479,22.392 23.672,38.387t 42.225,15.994l 376.189,0 0,54.381-472.796,0 0-216.885z m 25.591-108.762l 460.001,0q 3.199,0 7.037,3.199t 4.479,6.398l0,2.559 0.64,2.559 58.86,201.53-460.001,0q-2.559,0-7.037-3.199t-4.479-6.398l0-2.559-0.64-2.559z" horiz-adv-x="670.080"  />
<glyph unicode="&#xf4f5;" d="M-0.16,99.84l0,327.68q0,22.4 16.64,38.4t 39.68,16l 19.2,0q 1.28,21.12 17.92,35.84t 38.4,14.72l 125.44,0q 22.4,0 38.4-14.72t 17.28-35.84l 231.68,0q 23.040,0 39.68-16t 16.64-38.4l0-327.68q0-22.4-16.64-39.040t-39.68-16l-487.040,0q-23.040,0-39.68,16t-16.64,39.040z m 56.32,0l 487.040,0 0,327.68-487.040,0 0-327.68z" horiz-adv-x="599.68"  />
<glyph unicode="&#xf4f6;" d="M0,101.276l0,324.848q0,22.381 15.987,38.368t 39.007,15.987l 18.545,0q 1.279,21.102 17.265,35.171t 37.089,14.708l 121.498,0q 21.102,0 37.089-14.708t 17.265-35.171l 224.452,0q 22.381,0 38.368-15.987t 15.987-38.368l0-54.355 42.205,0q 22.381,0 35.171-15.987t 8.313-38.368l-63.307-216.779q-3.837-22.381-23.021-38.368t-42.205-15.987l-485.354,0q-23.021,0-39.007,15.987t-15.987,38.368z m 79.933,0l 459.775,0q 2.558,0 7.034,3.197t 4.476,6.395l 1.279,5.116 58.831,201.432-459.775,0q-2.558,0-7.034-3.197t-4.476-6.395l-1.279-5.116z" horiz-adv-x="669.44"  />
<glyph unicode="&#xf4f7;" d="M-0.16,289.92q0,24.32 4.48,52.48 32-1.92 60.16,12.8t 44.8,42.88q 16,29.44 14.72,61.44t-19.2,58.24q 40.96,35.84 96,55.040 14.72-26.24 40.96-42.24t 57.6-16 57.6,16 40.96,42.24q 54.4-19.2 96-55.040-13.44-25.6-13.44-54.4t 14.72-55.040q 15.36-26.24 41.6-40.96t 55.68-14.72q 7.040-31.36 7.040-62.72 0-20.48-4.48-48-28.8-0.64-53.76-15.36t-40.32-40.96q-16-28.16-15.36-58.88t 17.28-56.96q-42.24-39.040-92.8-59.52-14.72,26.88-40.96,42.88t-57.6,16q-33.28,0-60.8-17.92t-40.96-47.36q-52.48,16.64-97.92,52.48 17.92,26.24 19.2,58.24t-15.36,60.8q-16.64,29.44-46.72,44.8t-62.72,10.88q-5.76,26.24-5.76,58.24z m 187.52,0q0-46.72 32.64-79.36t 79.36-32.64 79.36,32.64 32.64,79.36-32.64,79.36-79.36,32.64-79.36-32.64-32.64-79.36z" horiz-adv-x="599.68"  />
<glyph unicode="&#xf4f8;" d="M-0.16,44.8l0,487.040q0,23.040 16.64,39.68t 39.68,16.64l 487.040,0q 23.040,0 39.68-16.64t 16.64-39.68l0-487.040q0-23.040-16.64-39.68t-39.68-16.64l-487.040,0q-23.040,0-39.68,16.64t-16.64,39.68z m 56.32,0l 487.040,0 0,337.28-487.040,0 0-337.28z m 38.4,37.76l0,112.64 112.64,0 0-112.64-112.64,0z m0,149.76l0,112.64 112.64,0 0-112.64-112.64,0z m 149.76-149.76l0,112.64 112.64,0 0-112.64-112.64,0z m0,149.76l0,112.64 112.64,0 0-112.64-112.64,0z m 149.76-149.76l0,112.64 112.64,0 0-112.64-112.64,0z m0,149.76l0,112.64 112.64,0 0-112.64-112.64,0z" horiz-adv-x="599.68"  />
<glyph unicode="&#xf4f9;" d="M-0.16,294.4q0,21.12 15.36,36.48t 36.48,14.72l 220.16,0-71.040,71.040q-14.72,14.72-14.72,36.48t 14.72,36.48q 15.36,14.72 36.48,14.72t 36.48-14.72l 158.080-158.72q 15.36-14.72 15.36-36.48t-15.36-36.48l-154.88-155.52q-14.72-14.72-36.48-14.72t-36.48,14.72-14.72,36.48 14.72,36.48l 67.2,67.2-220.16,0q-21.12,0-36.48,15.36t-15.36,36.48z m 372.48-254.080q0,21.12 15.36,36.48t 36.48,15.36l 46.080,0q 11.52,0 19.2,7.68t 7.68,19.2l0,340.48q0,10.88-7.68,18.56t-19.2,7.68l-46.080,0q-21.12,0-36.48,15.36t-15.36,36.48 15.36,36.48 36.48,14.72l 46.080,0q 53.76,0 92.16-37.76t 37.76-91.52l0-340.48q0-53.76-38.4-92.16t-91.52-37.76l-46.080,0q-21.12,0-36.48,15.36t-15.36,36.48z" horiz-adv-x="599.68"  />
<glyph unicode="&#xf4fa;" d="M-0.16,118.4q0-53.76 37.76-91.52t 91.52-38.4l 46.080,0q 21.12,0 36.48,15.36t 15.36,36.48-15.36,36.48-36.48,15.36l-46.080,0q-10.88,0-19.2,7.68t-7.68,19.2l0,340.48q0,10.88 7.68,18.56t 19.2,7.68l 46.080,0q 21.12,0 36.48,15.36t 15.36,36.48-15.36,36.48-36.48,14.72l-46.080,0q-53.76,0-91.52-37.76t-37.76-91.52l0-340.48z m 152.32,161.28q0,21.12 15.36,36.48t 36.48,14.72l 220.16,0-70.4,71.040q-15.36,14.72-15.36,36.48t 15.36,36.48q 14.72,14.72 36.48,14.72t 36.48-14.72l 158.080-158.72q 14.72-14.72 14.72-36.48t-14.72-36.48l-155.52-155.52q-14.72-14.72-36.48-14.72t-36.48,14.72q-14.72,14.72-14.72,36.48t 15.36,36.48l 67.2,67.2-220.16,0q-21.12,0-36.48,15.36t-15.36,36.48z" horiz-adv-x="599.68"  />
<glyph unicode="&#xf4fb;" d="M-0.246,252.8l0,67.84q0,11.52 8.32,19.84t 19.84,8.32 19.84-8.32 8.32-19.84l0-67.84q0-56.96 40.96-97.28t 99.2-40.32q 57.6,0 98.56,40.32t 40.96,97.28l0,67.84q0,11.52 8.32,19.84t 19.84,8.32 19.84-8.32 8.32-19.84l0-67.84q0-72.32-48-126.080t-119.040-64.64l0-26.88 87.68,0q 11.52,0 19.84-8.32t 8.32-19.2q0-11.52-8.32-19.84t-19.84-8.32l-231.040,0q-11.52,0-19.84,8.32t-8.32,19.84q0,11.52 8.32,19.2t 19.84,8.32l 87.68,0 0,26.88q-47.36,6.4-85.76,33.28t-61.44,68.48-22.4,89.6z m 92.16,3.2l0,239.36q0,42.24 30.72,72.32t 73.6,30.080q 42.88,0 72.96-30.080t 30.080-72.32l0-239.36q0-42.24-30.080-72.32t-72.96-30.080q-42.88,0-73.6,30.080t-30.72,72.32z" horiz-adv-x="392.32"  />
<glyph unicode="&#xf4fc;" d="M-0.268,532.48q0-11.52 8.32-19.84l 508.16-500.48q 8.32-8.32 19.84-8.32t 19.84,8.32q 8.32,7.68 8.32,19.2t-8.32,19.2l-508.16,501.12q-8.32,7.68-19.84,7.68t-19.84-7.68q-8.32-8.32-8.32-19.84z m 76.16-279.68l0,67.84q0,11.52 8.32,19.84t 19.84,8.32q 11.52,0 19.84-8.32t 8.32-19.84l0-67.84q0-56.96 40.96-97.28t 98.56-40.32q 37.76,0 69.12,17.92l 40.32-40.32q-36.48-23.68-80-30.72l0-26.88 87.68,0q 11.52,0 19.84-8.32t 8.32-19.2q0-11.52-8.32-19.84t-19.84-8.32l-231.68,0q-11.52,0-19.84,8.32t-8.32,19.84q0,11.52 8.32,19.2t 19.84,8.32l 87.68,0 0,26.88q-47.36,6.4-85.76,33.28t-61.44,68.48-22.4,89.6z m 92.16,3.2l0,46.72 143.36-141.44q-19.84-8.32-39.68-8.32-42.88,0-73.6,30.080t-30.72,72.32z m0,229.76l0,9.6q0,42.24 30.72,72.32t 73.6,30.080 73.6-30.080 30.72-72.32l0-214.4z m 243.84-240q0,1.28 0,3.84t0,3.84l0,67.84q0,11.52 8.32,19.84t 19.84,8.32q 12.16,0 19.84-8.32t 8.32-19.84l0-67.84q0-26.88-8.32-55.040z" horiz-adv-x="563.84"  />
<glyph unicode="&#xf4fd;" d="M-0.16,288.64q0,60.8 23.68,116.48t 64,96 96,64 116.48,23.68 116.48-23.68 96-64 64-96 23.68-116.48-23.68-116.48-64-96-96-64-116.48-23.68-116.48,23.68-96,64-64,96-23.68,116.48z m 74.88,0q0-61.44 30.080-112.64t 81.92-81.92 112.64-30.080q 61.44,0 112.64,30.080t 81.92,81.92 30.080,112.64q0,60.8-30.080,112.64t-81.92,81.92-112.64,30.080q-45.44,0-87.040-17.92t-71.68-48-48-71.68-17.92-87.040z m 187.52,0l0,143.36q0,15.36 10.88,26.24t 26.24,10.88 26.24-10.88 10.88-26.24l0-128 90.88-90.88q 10.88-10.88 10.88-26.24t-10.88-26.24-26.24-10.88q-15.36,0-26.24,10.88l-101.76,101.76q-0.64,0.64-2.56,3.2t-1.92,2.56q-0.64,0.64-1.28,2.56l-0.64,1.92t-0.64,1.92q0,0-1.28,3.2-0.64,2.56-0.64,3.2-0.64,3.84-0.64,7.68z" horiz-adv-x="599.68"  />
<glyph unicode="&#xf4fe;" d="M0,459.397l 156.688,156.688 52.442-52.442-26.221-26.221 27.5-27.5q 37.094,22.384 78.664,33.256l0,65.233 147.734,0 0-65.233q 63.315-16.628 113.839-57.559t 79.303-101.048 28.78-127.908q0-60.117-23.663-115.117t-63.315-94.652-94.652-63.315-115.117-23.663-115.117,23.663-94.652,63.315-63.315,94.652-23.663,115.117q0,78.664 39.652,147.734l-28.78,28.14-26.221-26.221z m 141.978-202.095q0-60.117 30.058-111.281t 80.582-81.222 111.281-30.058 111.281,30.058 81.222,81.222 30.058,111.281-30.058,111.281-81.222,80.582-111.281,30.058-111.281-30.058-80.582-80.582-30.058-111.281z m 75.466,83.14q0,15.349 10.872,26.221t 26.221,10.872 26.221-10.872l 89.536-89.536 126.629,0q 15.349,0 26.221-10.872t 10.233-26.221q0-15.988-10.872-26.221-11.512-11.512-26.221-11.512l-141.978,0q-2.558,0-7.674,0.639l-3.197,1.279q-0.639,0-1.919,0.639t-1.919,0q-0.639,0-1.919,1.279t-1.279,0.639l-2.558,1.919q-1.919,0.639-5.756,4.477l-100.408,100.408q-10.872,10.872-10.872,26.221z" horiz-adv-x="659.84"  />
<glyph unicode="&#xf4ff;" d="M-0.3,40.96l0,44.8q0,14.080 7.68,31.36t 15.36,29.44 24.32,35.2l 15.36,20.48t 17.28,23.040 14.080,21.12 11.52,22.4 3.84,19.2-3.84,19.2-11.52,22.4-14.080,21.12-17.28,23.040l-15.36,20.48q-16.64,23.68-24.32,35.2t-15.36,29.44-7.68,31.36l0,44.8q0,21.76 15.36,37.12t 37.76,15.36l 268.16,0q 22.4,0 37.76-15.36t 15.36-37.12l0-44.8q0-14.080-7.68-31.36t-15.36-29.44-24.32-35.2l-15.36-20.48t-17.28-23.040-14.080-21.12-11.52-22.4-3.84-19.2 3.84-19.2 11.52-22.4 14.080-21.12 17.28-23.040l 15.36-20.48q 16-23.040 24.32-35.2t 15.36-29.44 7.68-31.36l0-44.8q0-21.76-15.36-37.12t-37.76-15.36l-268.16,0q-22.4,0-37.76,15.36t-15.36,37.12z m 64,22.4l 25.6,0q0,5.12 1.28,10.88t 5.76,11.52 7.68,10.88 10.88,10.88 12.16,10.24 14.080,10.88 14.72,10.24 16,10.88 15.36,10.88q 5.12-3.2 17.28-12.16t 17.92-12.8 16-11.52 15.36-12.8 12.16-12.16 10.24-12.8 6.4-12.16 2.56-12.8l 25.6,0 0,22.4q0,4.48-8.32,19.84-5.12,8.96-26.88,40.32-33.92,48-45.44,69.12-21.76,40.32-21.76,73.6 0,16.64 5.12,34.56t 16,37.12 19.2,31.36 23.040,32.64l 4.48,6.4q 21.12,29.44 26.88,40.32 3.84,6.4 5.76,10.88t 2.56,6.4l0,1.28 0,22.4-247.040,0 0-22.4q0-5.12 8.32-19.2 6.4-10.88 26.88-40.32 33.92-48 45.44-69.12 21.76-40.32 21.76-73.6 0-16.64-5.12-34.56t-16-37.12-19.2-31.36-23.040-32.64q-0.64-0.64-1.28-1.28t-1.28-1.28-1.28-1.92-1.28-1.92q-21.76-31.36-26.88-40.32-8.32-15.36-8.32-19.84l0-22.4z" horiz-adv-x="374.4"  />
<glyph unicode="&#xf500;" d="M 7.034,305.265q-15.347,58.19 0,115.741t 58.829,101.033q 32.612,32.612 73.537,49.238t 85.047,16.626q 44.122,0 85.686-16.626t 73.537-49.238q 34.531-34.531 51.795-79.292t 14.068-91.441-23.66-88.884q 19.823-6.394 33.251-19.823l 116.38-116.38q 23.66-23.66 23.66-56.911t-23.66-56.911-56.271-23.66q-33.251,0-56.911,23.66l-116.38,116.38q-12.789,12.789-19.823,33.251-47.959-23.66-100.394-23.66-44.122,0-85.047,16.626t-73.537,49.238q-43.483,43.483-58.829,101.033z m 68.421,58.19q0-62.666 43.483-106.148 21.102-21.102 48.598-32.612t 57.551-11.51q 62.666,0 106.148,44.122 21.102,21.102 32.612,48.598t 11.51,57.551q0,62.666-44.122,106.148-43.483,43.483-106.148,43.483-62.027,0-105.509-43.483t-43.483-106.148z m 399.017,127.89q0,7.674 5.755,13.428t 12.789,5.755l 60.108,0 0,59.469q0,7.674 5.116,12.789t 12.789,5.116 12.789-5.116 5.116-12.789l0-59.469 60.108,0q 7.674,0 12.789-5.755t 5.755-13.428-5.755-13.428-12.789-5.755l-60.108,0 0-59.469q0-7.674-5.116-13.428t-12.789-5.755q-7.674,0-12.789,5.755-5.116,5.116-5.116,12.789l0,59.469-60.108,0q-7.674,0-13.428,5.116-5.116,5.755-5.116,13.428z" horiz-adv-x="668.8"  />
<glyph unicode="&#xf501;" d="M 7.034,305.265q-15.347,58.19 0,115.741t 58.829,101.033q 32.612,32.612 73.537,49.238t 85.047,16.626q 44.122,0 85.686-16.626t 73.537-49.238q 34.531-34.531 51.795-79.292t 14.068-91.441-23.66-88.884q 19.823-6.394 33.251-19.823l 116.38-116.38q 23.66-23.66 23.66-56.911t-23.66-56.911-56.271-23.66q-33.251,0-56.911,23.66l-116.38,116.38q-14.068,14.068-19.823,33.251-48.598-23.66-100.394-23.66-44.122,0-85.047,16.626t-73.537,49.238q-43.483,43.483-58.829,101.033z m 68.421,58.19q0-62.666 43.483-106.148 21.102-21.102 48.598-32.612t 57.551-11.51 57.551,11.51 48.598,32.612q 21.102,21.102 32.612,48.598t 11.51,57.551q0,62.666-44.122,106.148-21.102,21.102-48.598,32.612t-57.551,11.51q-62.027,0-105.509-43.483t-43.483-106.148z m 399.017,127.89q0,7.674 5.755,13.428t 13.428,5.755l 156.026,0q 7.674,0 13.428-5.755t 5.755-13.428-5.755-13.428-13.428-5.755l-156.026,0q-7.674,0-13.428,5.116-5.116,5.755-5.116,13.428z" horiz-adv-x="668.8"  />
<glyph unicode="&#xf502;" d="M-0.123,405.76q0,16 11.52,27.52t 27.52,11.52 27.52-11.52l 195.2-194.56 194.56,194.56q 11.52,11.52 27.52,11.52t 27.52-11.52q 11.52-11.52 11.52-27.52t-11.52-27.52l-249.6-249.6-250.24,249.6q-11.52,12.16-11.52,27.52z" horiz-adv-x="522.88"  />
<glyph unicode="&#xf503;" d="M-0.038,290.56l 250.24,250.24q 11.52,11.52 27.52,11.52 15.36,0 27.52-11.52 11.52-11.52 11.52-27.52t-11.52-27.52l-195.2-194.56 195.2-195.2q 11.52-11.52 11.52-27.52t-11.52-27.52q-11.52-11.52-27.52-11.52t-27.52,11.52z" horiz-adv-x="316.8"  />
<glyph unicode="&#xf504;" d="M-0.038,64.64q0,16 11.52,27.52l 195.2,194.56-195.2,195.2q-11.52,11.52-11.52,27.52t 11.52,27.52 27.52,11.52 27.52-11.52l 249.6-250.24-249.6-249.6q-12.16-11.52-27.52-11.52t-27.52,11.52q-11.52,11.52-11.52,27.52z" horiz-adv-x="316.8"  />
<glyph unicode="&#xf505;" d="M-0.286,171.52q0,16.64 11.52,27.52l 249.6,249.6 249.6-249.6q 11.52-11.52 11.52-27.52 0-16.64-11.52-28.16t-27.52-11.52-27.52,11.52l-194.56,195.2-194.56-195.2q-11.52-11.52-27.52-11.52t-27.52,11.52q-11.52,11.52-11.52,28.16z" horiz-adv-x="522.24"  />
<glyph unicode="&#xf506;" d="M-0.123,245.76q0,16 11.52,27.52t 27.52,11.52 27.52-11.52l 155.52-155.52 0,410.24q0,16.64 11.52,28.16t 27.52,11.52 27.52-11.52 11.52-28.16l0-410.24 156.16,155.52q 11.52,11.52 27.52,11.52t 27.52-11.52q 11.52-11.52 11.52-27.52t-11.52-27.52l-249.6-249.6-250.24,249.6q-11.52,12.16-11.52,27.52z" horiz-adv-x="522.88"  />
<glyph unicode="&#xf507;" d="M-0.316,290.56l 249.6,250.24q 12.16,11.52 27.52,11.52 16,0 27.52-11.52t 11.52-27.52-11.52-28.16l-155.52-155.52 410.88,0q 16.64,0 28.16-11.52t 11.52-27.52-11.52-27.52-28.16-11.52l-410.88,0 155.52-156.16q 11.52-11.52 11.52-27.52t-11.52-27.52-27.52-11.52-27.52,11.52z" horiz-adv-x="599.68"  />
<glyph unicode="&#xf508;" d="M-0.316,286.72q0,16.64 11.52,27.52t 27.52,10.88l 410.88,0-155.52,156.16q-12.16,11.52-12.16,27.52t 12.16,26.88q 11.52,12.16 26.88,12.16t 28.16-12.16l 249.6-249.6-249.6-249.6q-12.8-12.16-28.16-12.16t-26.88,12.16-12.16,28.16 12.16,27.52l 155.52,155.52-410.88,0q-16,0-27.52,11.52t-11.52,27.52z" horiz-adv-x="599.68"  />
<glyph unicode="&#xf509;" d="M-0.123,291.2q0,16.64 11.52,28.16l 249.6,249.6 250.24-249.6q 11.52-11.52 11.52-28.16 0-16-11.52-27.52t-27.52-11.52-27.52,11.52l-156.16,155.52 0-410.88q0-16-11.52-27.52t-27.52-11.52q-16,0-27.52,11.52t-11.52,27.52l0,410.88-155.52-155.52q-11.52-11.52-27.52-11.52t-27.52,11.52q-11.52,11.52-11.52,27.52z" horiz-adv-x="522.88"  />
<glyph unicode="&#xf50a;" d="M-0.169,332.16l 137.6,0 0,256.64 230.4,0 0-256.64 137.6,0-253.44-343.040z" horiz-adv-x="505.6"  />
<glyph unicode="&#xf50b;" d="M-0.16,298.24l 337.28,243.84 0-131.2 262.4,0 0-224.64-262.4,0 0-150.4z" horiz-adv-x="599.68"  />
<glyph unicode="&#xf50c;" d="M-0.16,173.44l0,229.76 256.64,0 0,138.24 343.040-254.080-343.040-252.16 0,138.24-256.64,0z" horiz-adv-x="599.68"  />
<glyph unicode="&#xf50d;" d="M-0.005,245.12l 254.080,343.040 252.16-343.040-138.24,0 0-256.64-229.76,0 0,256.64-138.24,0z" horiz-adv-x="506.24"  />
<glyph unicode="&#xf50e;" d="M 3.1,408.96q 8.32,14.080 33.92,14.080l 94.080,0 0,131.2q0,13.44 9.6,23.68t 23.68,10.24l 195.2,0q 13.44,0 23.68-10.24t 10.24-23.68l0-131.2 93.44,0q 25.6,0 33.92-14.080t-5.12-34.56l-232.32-372.48q-0.64-1.28-3.2-3.84t-7.68-5.76-11.52-3.84-11.52,3.2-8.32,6.4l-2.56,3.2-232.32,372.48q-13.44,20.48-5.12,34.56z" horiz-adv-x="524.8"  />
<glyph unicode="&#xf50f;" d="M-0.16,288.64q0,5.76 3.2,11.52t 6.4,8.32l 3.2,2.56 372.48,231.68q 20.48,13.44 34.56,5.12t 14.72-34.56l0-93.44 130.56,0q 13.44,0 23.68-10.24t 10.24-23.68l0-195.2q0-13.44-10.24-23.68t-23.68-10.24l-130.56,0 0-94.080q0-25.6-14.72-33.92t-34.56,5.12l-372.48,231.68q-12.8,9.6-12.8,22.4z" horiz-adv-x="599.68"  />
<glyph unicode="&#xf510;" d="M-0.16,191.36l0,195.2q0,13.44 10.24,23.68t 23.68,9.6l 130.56,0 0,94.080q0,25.6 14.72,33.92t 34.56-5.12l 372.48-231.68q 12.8-9.6 12.8-22.4 0-5.76-3.2-11.52t-6.4-8.32l-3.2-2.56-372.48-232.32q-20.48-13.44-34.56-5.12t-14.72,33.92l0,94.080-130.56,0q-13.44,0-23.68,10.24t-10.24,23.68z" horiz-adv-x="599.68"  />
<glyph unicode="&#xf511;" d="M 3.092,168.32q-8.32,14.72 5.12,34.56l 232.32,372.48q 9.6,12.8 22.4,12.8 5.76,0 11.52-3.2t 8.32-6.4l 2.56-3.2 232.32-372.48q 13.44-20.48 5.12-34.56t-33.92-14.72l-94.080,0 0-130.56q0-13.44-9.6-23.68t-23.68-10.24l-195.2,0q-13.44,0-23.68,10.24t-10.24,23.68l0,130.56-93.44,0q-25.6,0-33.92,14.72z" horiz-adv-x="524.16"  />
<glyph unicode="&#xf512;" d="M 1.28,345.597q 3.2,5.119 12.799,5.119l 44.157,0q 10.879,50.557 38.397,94.074t 65.276,75.515 87.674,49.917 102.394,17.919q 60.796,0 116.472-23.679t 95.994-63.996 63.996-95.354 23.679-116.472-23.679-116.472-63.996-95.994-95.994-63.996-116.472-23.679q-103.034,0-184.308,63.996-15.359,12.159-17.919,31.358t 9.599,33.918q 12.159,15.359 31.358,17.919t 33.918-9.599q 56.956-43.517 127.352-43.517 56.316,0 103.673,27.518t 74.875,75.515 27.518,103.673q0,41.597-16.639,79.995t-44.157,65.916-65.916,44.157-79.995,16.639q-68.476,0-122.872-40.317t-74.235-104.313l 27.518,0q 9.599,0 12.799-5.119t-1.92-12.799l-86.394-142.071q-3.84-5.119-8.959-5.119-1.92,0-4.48,1.28t-3.2,2.56l-0.64,1.28-87.034,142.071q-5.119,7.679-1.92,12.799z" horiz-adv-x="651.52"  />
<glyph unicode="&#xf513;" d="M0,85.892l0,111.287 146.465,0q 17.268,0 32.619,6.396 20.467-53.725 63.318-92.739-45.411-24.304-95.937-24.304l-146.465,0z m0,293.569l0,110.648 146.465,0q 40.933,0 78.669-15.99t 64.598-42.852 42.852-64.598 15.99-78.669q0-37.736 26.863-63.958t 64.598-26.863l 53.725,0q 0.639,0 2.558,0t 2.558,0l0,33.898q0,10.234 5.756,13.431t 14.071-1.919l 149.662-92.1q 5.117-3.198 5.117-8.954 0-1.919-1.279-4.477t-2.558-3.198l-1.279-1.279-149.662-91.46q-8.315-5.117-14.071-1.919t-5.756,13.431l0,34.538q-0.639,0-2.558,0t-2.558,0l-53.725,0q-40.933,0-78.669,15.99t-64.598,42.852-42.852,64.598-15.99,78.669q0,37.736-26.863,64.598t-64.598,26.863l-146.465,0z m 344.095,86.983q 43.492,24.304 95.937,24.304l 53.725,0q 0.639,0 2.558,0t 2.558,0l0,34.538q0,10.234 5.756,13.431t 14.071-1.919l 149.662-92.1q 5.117-3.837 5.117-8.954 0-2.558-1.279-4.477t-2.558-3.198l-1.279-0.639-149.662-92.1q-8.315-5.117-14.071-1.919t-5.756,13.431l0,33.898q-0.639,0-2.558,0t-2.558,0l-53.725,0q-16.629,0-32.619-6.396-20.467,54.365-63.318,93.379z" horiz-adv-x="674.56"  />
<glyph unicode="&#xf514;" d="M-0.221,71.68l0,433.28q0,24.96 14.080,32.64t 33.28-5.12l 360.96-223.36q 12.8-8.96 12.8-21.76 0-5.76-3.2-10.88t-6.4-7.68l-3.2-2.56-360.96-223.36q-19.2-12.8-33.28-4.48t-14.080,32.64z" horiz-adv-x="421.12"  />
<glyph unicode="&#xf515;" d="M-0.113,67.84q0-17.28 12.16-29.44t 28.8-12.16l 81.28,0q 17.28,0 28.8,12.16t 12.16,29.44l0,442.24q0,17.28-12.16,28.8t-28.8,12.16l-81.28,0q-17.28,0-28.8-12.16t-12.16-28.8l0-442.24z m 307.2,0q0-17.28 12.16-29.44t 28.8-12.16l 81.28,0q 16.64,0 28.8,12.16t 12.16,29.44l0,442.24q0,17.28-12.16,28.8t-28.8,12.16l-81.28,0q-16.64,0-28.8-12.16t-12.16-28.8l0-442.24z" horiz-adv-x="470.4"  />
<glyph unicode="&#xf516;" d="M-0.092,67.2l0,442.24q0,16.64 12.16,29.44t 28.8,12.8l 443.52,0q 16.64,0 28.8-12.16t 12.16-29.44l0-442.24q0-17.28-12.16-29.44t-28.8-12.8l-443.52,0q-16.64,0-28.8,12.16t-12.16,29.44z" horiz-adv-x="525.44"  />
<glyph unicode="&#xf517;" d="M-0.149,80.64l0,433.92q0,26.24 13.44,29.44t 40.96-11.52l 343.68-216.96 0,199.040q0,13.44 11.52,24.96t 24.96,11.52l 72.32,0q 25.6,0 39.68-10.88t 14.080-25.6l0-433.92q0-14.72-14.080-25.6t-39.68-10.88l-72.32,0q-13.44,0-24.96,11.52t-11.52,24.96l0,181.12-343.68-217.6q-27.52-12.8-40.96-2.56t-13.44,39.040z" horiz-adv-x="560.64"  />
<glyph unicode="&#xf518;" d="M-0.092,85.76l0,405.76q0,15.36 10.88,26.88t 26.88,10.88l 74.88,0q 15.36,0 26.24-10.88t 10.88-26.88l0-174.080 330.24,204.8q 18.56,12.16 32,4.48t 13.44-31.36l0-413.44q0-23.68-13.44-31.36t-32,4.48l-330.24,204.16 0-174.080q0-15.36-10.88-26.88t-26.24-10.88l-74.88,0q-15.36,0-26.24,11.52t-11.52,26.24z" horiz-adv-x="525.44"  />
<glyph unicode="&#xf519;" d="M0,71.14l0,434.359q0,24.948 14.074,33.265t 33.905-4.478l 340.963-211.103 0,182.956q0,24.948 14.074,33.265t 33.905-4.478l 346.72-214.941 0,182.316q0,16.632 11.515,28.147t 28.147,11.515l 78.044,0q 16.632,0 28.147-11.515t 11.515-28.147l0-426.683q0-16.632-11.515-28.147t-28.147-11.515l-78.044,0q-16.632,0-28.147,11.515t-11.515,28.147l0,182.316-346.72-214.941q-19.831-12.794-33.905-4.478t-14.074,32.625l0,182.956-340.963-211.103q-19.831-12.794-33.905-4.478t-14.074,32.625z" horiz-adv-x="941.44"  />
<glyph unicode="&#xf51a;" d="M0,74.979l0,426.683q0,16.632 11.515,28.147t 28.147,11.515l 78.044,0q 16.632,0 28.147-11.515t 11.515-28.147l0-182.316 346.72,214.941q 19.191,12.794 33.265,4.478t 14.074-33.265l0-182.956 340.963,211.103q 19.191,12.794 33.265,4.478t 14.074-33.265l0-434.359q0-24.948-14.074-32.625t-33.265,4.478l-340.963,211.103 0-182.956q0-24.948-14.074-32.625t-33.265,4.478l-346.72,214.941 0-182.316q0-16.632-11.515-28.147t-28.147-11.515l-78.044,0q-16.632,0-28.147,11.515t-11.515,28.147z" horiz-adv-x="941.44"  />
<glyph unicode="&#xf51b;" d="M-0.211,413.44q0,22.4 11.52,40.32 12.8,21.12 36.48,30.72t 52.48,5.12q-0.64,20.48-0.64,32 0,28.16 44.16,47.36t 120.32,19.2q 76.16,0 120.32-19.2t 44.16-47.36q0-0.64-0.64-32 28.16,4.48 52.48-5.12t 37.12-30.72q 11.52-18.56 11.52-40.32t-10.88-44.16q-8.32-16.64-29.44-32.64t-60.16-39.040q-23.040-13.44-33.92-20.48t-30.080-19.84-30.72-24.32-19.84-23.040q-7.68-15.36-7.68-36.48 0-31.36 20.48-58.88t 47.36-35.84q 26.24-8.32 35.2-17.28t 8.96-27.52-42.88-32-111.36-12.8-111.36,12.8-42.88,32 8.96,27.52 35.2,17.28q 26.88,8.32 47.36,35.84t 20.48,58.88q0,20.48-7.68,36.48-6.4,9.6-16.64,19.84t-19.84,17.92-26.24,18.56-24.96,16-26.88,16q-26.24,15.36-40.96,24.96t-28.8,21.76-20.48,24.32q-10.88,21.76-10.24,44.16z m 57.6,12.16q-7.68-12.16 1.28-31.36 5.76-11.52 63.36-46.080-12.16,37.12-17.92,85.12-1.28,0-3.84,1.28t-3.84,1.28q-11.52,1.28-12.8,1.28-18.56,0-26.24-12.16z m 103.040,94.080q0-12.8 30.080-21.12t 73.6-8.96q 42.88,0 72.96,8.96t 30.080,21.12-30.080,21.12-72.96,8.96-72.96-8.96-30.72-21.12z m 245.76-171.52q 57.6,34.56 63.36,46.080 8.96,19.2 1.28,31.36-10.24,16-39.040,10.24-2.56-0.64-8.32-2.56-5.76-50.56-17.92-85.12z" horiz-adv-x="528.64"  />
<glyph unicode="&#xf51c;" d="M0,167.759l0,336.42q0,23.025 16.629,39.654t 39.654,16.629l 561.553,0q 23.025,0 39.654-16.629t 16.629-39.654l0-336.42q0-23.025-16.629-39.654t-39.654-16.629l-162.454,0q 5.117-50.527 18.548-58.202 8.954-5.117 17.268-8.315t 11.512-3.837l 3.198-0.639 0-22.385-337.060,0 0,22.385q 11.512,0.639 31.34,12.792 13.431,8.315 18.548,58.202l-163.094,0q-23.025,0-39.654,16.629t-16.629,39.654z" horiz-adv-x="674.56"  />
<glyph unicode="&#xf51d;" d="M-0.219,44.8l0,487.040q0,23.040 16.64,39.68t 39.68,16.64l 336.64,0q 23.040,0 39.68-16.64t 16.64-39.68l0-487.040q0-23.040-16.64-39.68t-39.68-16.64l-336.64,0q-23.040,0-39.68,16.64t-16.64,39.68z m 197.12,43.52q0-12.16 8.32-19.84t 19.84-8.32 19.84,8.32 8.32,19.84-8.32,19.84-19.84,8.32-19.84-8.32-8.32-19.84z" horiz-adv-x="448"  />
<glyph unicode="&#xf51e;" d="M-0.205,53.12l0,471.040q0,26.24 18.56,45.44t 44.8,18.56l 229.76,0q 26.24,0 44.8-18.56t 18.56-45.44l0-471.040q0-26.24-18.56-45.44t-44.8-19.2l-229.76,0q-26.24,0-44.8,18.56t-18.56,45.44z m 149.76,39.040q0-12.16 8.32-19.84t 19.84-8.32 19.84,8.32 8.32,19.84-8.32,19.84-19.84,8.32-19.84-8.32-8.32-19.84z" horiz-adv-x="355.84"  />
<glyph unicode="&#xf51f;" d="M-0.16,288.64q0,61.44 23.68,116.48t 64,95.36 95.36,64 116.48,23.68q 60.8,0 116.48-23.68t 96-64 64-95.36 23.68-116.48q0-60.8-23.68-116.48t-64-96-96-64-116.48-23.68q-61.44,0-116.48,23.68t-95.36,64-64,96-23.68,116.48z m 56.32,0q0-31.36 8.32-63.36 22.4,60.8 65.92,104.96-0.64,1.28-1.28,3.84t-0.64,3.2l-3.2,0q-31.36,0-65.28-8.96-3.2-20.48-3.2-39.68z m 12.8,78.080q 29.44,5.76 56.32,5.76 1.28,0 3.2,0t 3.2,0q 6.4,12.8 18.56,21.12t 26.88,7.68q 17.92,0 32.64-11.52 57.6,29.44 124.16,30.72 3.2,7.040 7.040,12.16-46.72,61.44-120.32,87.040-53.76-18.56-94.080-58.24t-58.24-93.44z m 17.28-195.2q 26.88-49.28 72.96-82.56t 103.040-41.6q 54.4,31.36 87.68,81.92-12.8,14.080-12.8,33.28 0,21.76 16,37.12-22.4,40.32-56.96,71.68t-78.080,47.36q-15.36-21.12-41.6-21.12-12.16,0-23.68,6.4-53.76-56.32-67.84-132.48z m 142.72,186.24q0-0.64 0.64-2.56t0-2.56q 51.2-19.2 91.52-55.040t 65.92-83.2q 7.68,30.72 7.68,59.52 0,35.2-12.16,74.88l-0.64,0q-17.28,0-30.72,10.24t-18.56,25.6q-55.040-1.92-104.32-26.24z m 50.56,172.8q 53.12-30.72 90.88-81.28 5.76,1.28 11.52,1.28 19.84,0 33.92-13.44t 16.64-32.64q 58.24-19.2 103.68-58.24-20.48,80-85.76,132.48t-150.4,52.48q-3.2,0-6.4,0t-7.68-0.64-6.4,0z m 42.24-485.12q 30.72,2.56 64,14.72 0,1.92 0.64,7.040t 0.64,8.32q0,14.080-2.56,35.84-0.64,0-1.92,0-24.32-37.12-60.16-66.56z m 94.72,315.52q 13.44-45.44 13.44-87.68 0-35.84-8.96-70.4 19.84-15.36 19.84-40.32 0-26.24-23.040-42.88 3.2-22.4 3.2-42.24 55.68,32 88.96,88.32t 33.28,122.24l0,0.64q-48.64,58.88-119.040,81.92-4.48-5.76-8.32-9.6z" horiz-adv-x="599.68"  />
<glyph unicode="&#xf520;" d="M-0.16,288.64q0,61.44 23.68,116.48t 64,95.36 95.36,64 116.48,23.68q 53.76,0 103.68-18.56t 88.96-51.84q 26.24-19.84 45.44-48 61.44-80.64 61.44-181.76 0-60.8-23.68-116.48t-64-96-96-64-116.48-23.68q-61.44,0-116.48,23.68t-95.36,64-64,96-23.68,116.48z m 60.16,39.68q 32.64,8.96 65.28,8.96l 3.2,0q0,0 0.64-3.2t 1.28-3.84q-44.16-45.44-65.92-104.96 7.040-27.52 21.76-53.76 14.080,76.16 67.84,132.48 10.88-6.4 23.68-6.4 26.24,0 41.6,21.12 42.88-16.64 78.080-47.36t 56.96-71.68q-16-15.36-16-37.12 0-18.56 12.8-33.28-34.56-51.2-87.68-81.92 18.56-2.56 36.48-2.56 10.88,0 22.4,0.64 35.84,29.44 59.52,66.56l 0.64,0 0.64,0q 3.2-19.84 3.2-35.84l-0.64-16q 19.84,7.68 36.48,17.28 0,20.48-3.2,42.24 23.040,16 23.040,42.88 0,24.96-19.84,40.32 8.96,35.2 8.96,70.4 0,42.24-13.44,87.68 4.48,3.84 8.32,9.6 71.040-23.68 118.4-81.28 0,28.16-7.040,57.6-46.080,39.68-103.68,58.24-1.92,19.2-16.64,32.64t-33.92,13.44q-5.76,0-11.52-1.28-38.4,51.2-91.52,81.28-28.16-2.56-56.96-12.16 72.96-26.24 119.68-87.68-3.84-4.48-7.040-12.16-66.56-1.28-124.16-30.72-14.72,11.52-32.64,11.52-14.72,0-26.88-7.68t-18.56-21.12q-1.28,0-3.2,0t-3.2,0q-26.24,0-56.32-5.76-5.76-17.92-9.6-38.4z m 168.96,30.080q 51.2,24.96 104.32,26.24 5.12-15.36 18.56-25.6t 30.72-10.24l 0.64,0q 11.52-39.040 11.52-74.88 0-30.72-7.68-59.52-24.96,47.36-65.92,83.2t-91.52,55.040q0,0.64 0,2.56t-0.64,2.56z" horiz-adv-x="599.68"  />
<glyph unicode="&#xf521;" d="M0,182.473l0,122.156q0,17.268 12.152,32.618l 65.875,86.34q 15.349,21.745 40.932,21.745l 474.552,0q 25.582,0 40.292-21.745l 65.875-86.34q 12.152-15.349 12.152-32.618l0-122.156q0-20.466-14.71-35.176t-35.176-14.71l-612.056,0q-20.466,0-35.176,14.71t-14.71,35.176z m 80.584,125.993q 4.477-7.675 17.908-7.675l 134.947,0q0-20.466 14.71-35.176t 35.176-14.71l 146.459,0q 20.466,0 35.176,14.71t 14.71,35.176l 134.947,0q 12.791,0 17.268,7.675t-2.558,19.187l-35.176,57.56q-7.035,11.512-21.105,19.187t-27.501,7.675l-377.339,0q-12.791,0-26.861-7.675t-21.105-19.187l-35.815-57.56q-7.035-10.872-2.558-19.187z" horiz-adv-x="712.32"  />
<glyph unicode="&#xf522;" d="M-0.16,288.64q0,61.44 23.68,116.48t 64,95.36 96,64 116.48,23.68 116.48-23.68 96-64 64-95.36 23.68-116.48q0-60.8-23.68-116.48t-64-96-96-64-116.48-23.68-116.48,23.68-96,64-64,96-23.68,116.48z m 56.32,0q0-48.64 18.56-92.8t 50.56-76.8 75.52-51.84 92.16-21.12q-4.48,5.12-7.040,21.76-0.64,3.84-1.28,16t-1.92,17.92q-0.64,3.84-11.52,34.56-3.2,9.6-7.040,12.16t-14.080,3.2q-5.76,0-16,0.64t-17.28,0.64-16.64,1.28-16,3.84-12.8,7.040-10.88,11.52-5.76,16.64q-7.040,39.68 24.32,65.92 16,12.8 33.28,17.92t 40.96,3.84q 15.36,0 26.88-8.96 14.080-11.52 28.16-12.16 3.2,0 14.080-1.28t 17.92-1.28 16,0.64 15.36,4.48l0,3.84q0,1.28 0.64,5.12t 0.64,5.76-0.64,5.12-3.2,3.84q-2.56,1.28-12.8,0.64t-12.8,2.56q-5.76,5.12 1.28,10.88t 19.2,10.24 13.44,6.4q 8.96,9.6-3.84,12.16t-24.96-2.56q-2.56-1.28-3.84-2.56-5.76-5.12-11.52-18.56-1.28-3.84-5.76-10.24t-5.76-9.6q-0.64,1.28-3.2,3.84t-3.2,3.84q-1.92,1.92-7.040,12.8-0.64,1.28-1.28,3.84t-1.28,4.48-1.92,3.84-2.56,3.2-3.2,1.92-4.48,0q-0.64-6.4 4.48-14.72t 5.12-12.8q0-8.32-3.84-7.68t-8.96,8.32q-1.28,1.92-3.2,5.76t-3.2,5.76-3.84,3.84-5.76,2.56-7.68,0q-8.32-1.28-12.8-4.48-1.28-0.64-4.48-5.12t-6.4-5.12q-1.92-10.88-16.64-10.24-0.64,0-3.84,0t-5.12,0-5.12,0.64-4.48,1.28-2.56,2.56q-1.28,3.2 1.28,13.44t 5.76,13.44 6.4,4.48 12.16,0.64 8.32,0q 1.28,5.76-3.2,10.24t-5.12,6.4q-0.64,3.2-0.64,5.12t 1.92,2.56 3.84,0.64l 4.48,0t 3.84,0q 11.52,1.92 19.2,9.6 0,0 2.56,1.92t 3.2,2.56l 3.2,1.92t 3.2,1.28 3.84,0.64 3.84-0.64q 1.28,0 3.84-3.2t 3.84-3.2q 1.92-0.64 10.24,1.92t 12.16,6.4 8.32,11.52q 8.32,12.8 2.56,22.4-3.84,5.12-9.6,3.84t-8.96-7.68q-0.64-1.92-1.92-7.040t-2.56-7.68-3.84-5.12q-3.2-1.92-10.24-2.56t-10.88,1.28q-2.56,1.28-3.84,3.84t-1.28,4.48 0.64,6.4 0.64,5.76q0,2.56 0.64,4.48t 1.28,3.84 2.56,3.2 2.56,3.2 3.2,3.2 3.2,3.2q 5.12,5.12 10.24,7.68t 12.16,2.56 10.88,0 12.8-2.56 11.52-2.56q 10.88-1.92 23.040,11.52 1.92,2.56 5.76,5.76t 5.12,5.76 1.28,7.040q0,4.48-0.64,15.36t-1.28,17.92 1.28,16.64 5.12,15.36q-39.68,14.72-82.56,14.72-30.080,0-60.16-7.68l0-1.28q0-12.16 1.28-13.44 2.56-3.2 10.24-4.48t 14.080-1.28 11.52-4.48 2.56-11.52q-1.92-8.96-12.16-19.84t-20.48-18.56q-12.8-9.6-31.36-12.16 0,0-3.84-0.64t-4.48-0.64-5.12,0-5.76,0-5.12,0.64-5.12,1.28-3.2,1.92-2.56,3.2-0.64,4.48q0,5.76 5.76,10.24t 10.88,6.4 13.44,4.48 10.88,3.2q 0.64,7.68-1.92,10.24t-7.68,1.28-10.88-3.84-10.88-3.84-9.6,0.64q-1.28,5.12 3.84,8.32t 5.76,4.48q 2.56,6.4-5.76,12.16-18.56-10.24-33.28-22.4 6.4-0.64 10.88-3.84t 3.84-8.96q0-3.2-1.28-5.76t-2.56-3.84-3.84-3.84-3.84-3.2q-9.6-8.96-13.44-16-1.92-2.56-4.48-13.44t-7.040-13.44q-7.040-3.84-9.6,0t-3.2,12.16l0,5.12t-0.64,1.92-2.56,1.92q-3.84,1.28-11.52-0.64-43.52-62.080-43.52-138.88z m 315.52-46.080q-0.64-19.2 12.8-33.92 17.28-17.92 33.28-20.48 6.4-1.28 18.56,0.64t 16,1.92q0-10.88-12.16-33.92-13.44-23.68-21.12-31.36-1.28-1.28-4.48-4.48t-4.48-3.84-3.2-3.84-2.56-4.48-0.64-4.48 1.28-5.76q 0.64-1.28 2.56-5.76t 1.92-5.12-0.64-5.76q-0.64-2.56-2.56-3.84t-4.48-2.56-3.84-1.92q-2.56-1.92-7.040-5.12t-8.32-6.4-7.68-5.12q 74.24,24.32 121.6,87.68t 47.36,143.36q0,8.32-1.28,23.040-2.56-3.2-2.56-7.68-1.28-10.88-1.28-13.44 0-1.92 0.64-8.96t0-11.52-2.56-7.68q-1.92-1.92-3.84-2.56t-4.48,1.28-4.48,3.2-4.48,4.48-4.48,3.2q-5.76,3.84-8.96,5.76t-8.32,3.84-9.6,1.28-10.24-2.56q-11.52-5.76-24.96-5.76-1.92,0-7.040,0t-7.68,0-7.040-0.64-6.4-2.56q 0.64-7.040 5.12-12.8t 10.88-6.4q 3.2,0 4.48,1.28t 3.2,3.2 3.2,2.56q 4.48,3.2 14.72,2.56 0.64-16 0-19.84t-3.84-7.68-3.84-7.68q0-1.28-1.28-6.4t-1.28-6.4-2.56-5.12-4.48-5.12q-5.12-3.84-10.88-5.76t-10.88,1.28q-1.92,1.28-5.12,6.4t-5.76,6.4q-1.92,1.28-3.2,2.56t-3.2,3.2-2.56,3.2-2.56,3.84-2.56,3.84q-3.84,5.12-13.44,11.52t-12.16,9.6q-2.56-1.28-3.2-2.56t-0.64-5.76z" horiz-adv-x="599.68"  />
<glyph unicode="&#xf523;" d="M-0.16,288.64q0,61.44 23.68,116.48t 64,95.36 96,64 116.48,23.68 116.48-23.68 96-64 64-95.36 23.68-116.48q0-60.8-23.68-116.48t-64-96-96-64-116.48-23.68-116.48,23.68-96,64-64,96-23.68,116.48z m 99.84,138.88q 8.96,1.28 11.52,0 1.28-0.64 2.56-1.28t 0.64-1.28 0-1.92l0-3.2q 0.64-18.56 12.8-11.52 4.48,2.56 7.040,13.44t 3.84,13.44q 3.2,5.76 14.080,16 1.28,0.64 3.84,3.2t 3.84,3.84 2.56,3.84 1.28,5.76q0,5.76-4.48,8.96t-10.88,3.84q-28.16-22.4-49.92-52.48z m 53.12-236.16q 1.92-11.52 7.68-19.2t 12.8-12.16 17.92-6.4 18.56-2.56 20.48-0.64 18.56-0.64q 10.88-0.64 14.080-3.2t 7.040-12.16q 1.28-3.2 3.84-10.88t 4.48-12.8 2.56-10.88q 1.28-6.4 1.92-17.92t 1.28-16q 2.56-15.36 7.040-21.12 1.28,0 3.84,0t 3.84,0q 37.76,0 76.8,12.8 4.48,2.56 12.16,8.96t 9.6,7.040q 1.28,0.64 3.84,1.92t 4.48,2.56 2.56,4.48q 1.28,1.92 0.64,4.48t-0.64,3.84-1.92,3.84-1.92,4.48q-1.28,3.2-1.28,5.76t 0.64,5.12 2.56,4.48 3.2,3.84 4.48,3.84 4.48,4.48q 8.32,8.32 21.12,31.36t 12.8,33.92q-4.48,0-16-1.92t-18.56-1.28q-16,2.56-33.28,20.48-14.080,14.72-12.8,34.56 0,3.84 0.64,5.12t 3.2,2.56q 3.2-3.2 12.8-9.6t 12.8-11.52q 1.28-1.28 3.2-4.48t 3.2-4.48 3.2-3.84 4.48-3.84 5.76-6.4 5.76-6.4q 5.12-3.2 10.88-1.28t 10.88,5.76q 2.56,1.92 4.48,5.12t 2.56,5.12 1.28,6.4 1.28,5.76q 0.64,3.2 3.84,8.32t 3.84,7.68 0,19.84q-10.24,0-14.72-2.56-1.28-0.64-3.84-3.84t-6.4-3.2q-7.040,0-10.88,6.4t-4.48,12.8q 2.56,1.92 6.4,2.56t 6.4,0.64 8.32,0 7.040,0q 11.52,0 24.96,5.76 5.12,2.56 10.24,3.2t 9.6-1.28 8.32-3.84 8.96-5.76q 1.28-1.28 4.48-3.84t 4.48-4.48 4.48-3.2 4.48-1.28 3.84,2.56q 1.92,2.56 2.56,7.68t0,12.16-0.64,8.32l 1.28,12.8q0,1.92 2.56,7.68-7.040,71.040-50.56,126.72t-109.44,79.36q-4.48-7.68-5.76-18.56t0-26.88 1.28-19.84q0-4.48-1.28-7.040t-5.12-5.76-5.76-5.12q-12.16-13.44-23.040-11.52-3.2,0.64-12.16,2.56t-12.8,2.56-10.88,0-12.16-2.56-10.88-7.68q-0.64-0.64-3.84-3.84t-3.84-3.84-2.56-3.84-2.56-4.48-0.64-5.12q0-1.28-0.64-5.76t-0.64-6.4 1.28-4.48 3.84-4.48q 3.84-1.92 10.24-1.28t 10.24,2.56q 3.2,2.56 5.76,10.88t 2.56,8.96q 3.2,6.4 8.96,7.68t 9.6-3.84q 5.76-8.96-2.56-22.4-4.48-7.68-8.96-11.52t-12.16-6.4q-0.64,0-2.56-1.28t-3.84-1.28-3.84,0q-1.28,0.64-3.84,3.2t-3.84,3.2q-7.68,1.92-19.2-8.96-8.96-8.32-19.2-9.6-1.28,0-3.84,0l-4.48,0t-3.84-0.64-1.92-2.56 0.64-5.12q 0.64-1.92 5.12-6.4t 3.2-10.24q-1.92,0-7.040,0t-8.32,0-7.040-1.28-5.76-3.84q-2.56-3.84-5.76-14.080t-1.28-12.8q 2.56-5.12 21.76-5.12 14.72-1.28 16.64,10.24 2.56,1.28 6.4,5.12t 5.12,5.12q 4.48,3.84 12.8,4.48 4.48,0.64 7.68,0t 5.76-2.56 3.84-3.84 3.2-5.76 3.2-5.76q 6.4-9.6 10.88-8.32 2.56,0.64 1.92,7.68 0,4.48-5.12,12.16t-4.48,14.080q 3.2,0 5.12,0t 3.84-2.56 2.56-4.48 1.92-5.12 1.92-4.48q 3.2-8.96 6.4-12.8 0,0 3.2-3.2t 3.84-4.48q 0.64,1.28 5.12,8.32t 6.4,11.52q 5.12,12.8 11.52,18.56t 22.4,5.76q 13.44,0 13.44-6.4 0-2.56-3.84-5.76-1.92-1.92-13.44-6.4t-19.2-10.24-1.28-10.88q 3.2-3.2 12.8-2.56t 12.8-0.64q 2.56-1.28 3.2-3.84t 0.64-4.48-0.64-5.76-0.64-5.12l0-3.84q-7.68-4.48-17.92-5.12t-27.52,0.64-17.92,1.28q-13.44,0.64-28.16,12.16-7.040,5.12-12.16,7.040t-14.72,1.92q-45.44,1.28-74.24-21.76-32-26.24-24.96-65.92z m 26.24,286.080q 3.84-1.92 9.6-0.64t 11.52,3.84 10.88,3.84 7.68-1.28 1.92-10.24q-2.56-0.64-10.88-3.2t-13.44-4.48-10.88-6.4-5.76-10.24q0-2.56 0.64-4.48t 2.56-3.2 3.84-1.92 5.12-1.28 5.12-0.64 5.76,0 5.12,0 4.48,0.64 3.84,0.64q 18.56,2.56 31.36,11.52 28.8,21.76 32.64,38.4 1.92,7.68-2.56,11.52t-11.52,4.48-14.080,1.28-10.24,4.48q-1.28,1.28-1.28,13.44 0,1.28 0,1.28-41.6-13.44-56.32-21.76 8.32-5.76 5.76-12.16-0.64-1.28-5.76-4.48t-3.84-8.32z" horiz-adv-x="599.68"  />
<glyph unicode="&#xf524;" d="M-0.309,285.44l 247.040,298.88q 2.56,2.56 5.76,2.56t 5.76-1.92q 3.84-3.2 2.56-8.32l-66.56-220.16 165.76-65.92-246.4-298.24q-1.92-2.56-5.76-2.56t-6.4,1.92q-3.84,3.84-2.56,8.32l 66.56,220.16z" horiz-adv-x="360.32"  />
<glyph unicode="&#xf525;" d="M0,229.124q-1.28,28.798 6.399,55.036t 22.399,49.917 36.477,41.597 49.277,28.798q 49.277,18.559 99.834,8.319 23.679,51.837 71.036,83.195t 106.233,31.358q 39.677,0 75.515-15.359t 62.076-41.597 41.597-62.076 15.359-75.515q0-5.759-1.28-17.279 0.64,0 2.56,0.64t 1.92,0.64q 51.837,19.839 101.754-2.56t 70.396-73.596q 12.799-35.837 7.679-69.116t-27.518-62.076-56.316-41.597q-23.679-8.959-46.077-8.959l-460.13,0q-54.396,0-100.474,31.358t-65.916,83.835q-10.879,26.878-12.159,55.676z" horiz-adv-x="771.2"  />
<glyph unicode="&#xf526;" d="M0,188.205q0-5.117 5.117-8.316t 12.794-3.838 13.434,3.838 5.757,8.316l0,200.868q0,5.117-5.757,8.316t-13.434,3.199-12.794-3.199-5.117-8.316l0-200.868z m 79.324-37.743q0-5.117 5.757-8.316t 13.434-3.838 13.434,3.838 5.757,8.316l0,275.714q0,5.117-5.757,8.316t-13.434,3.199-13.434-3.199-5.757-8.316l0-275.714z m 90.198-24.948q0-10.236 7.037-17.272t 17.272-7.037l 305.14,0q 10.236,0 17.272,7.037t 7.037,17.272l0,324.971q0,10.875-7.037,17.912t-17.272,7.037l-305.14,0q-10.236,0-17.272-7.037t-7.037-17.912l0-324.971z m 406.854,24.948l0,275.714q0,5.117 5.757,8.316t 12.794,3.199q 7.677,0 13.434-3.199t 5.757-8.316l0-275.714q0-5.117-5.757-8.316t-13.434-3.838q-7.677,0-12.794,3.838t-5.757,8.316z m 79.324,37.743l0,200.868q0,5.117 5.757,8.316t 13.434,3.199 13.434-3.199 5.757-8.316l0-200.868q0-5.117-5.757-8.316t-13.434-3.838-13.434,3.838-5.757,8.316z" horiz-adv-x="693.12"  />
<glyph unicode="&#xf527;" d="M0,189.485l0,199.588q0,5.117 5.757,8.316t 13.434,3.199 12.794-3.199 5.117-8.316l0-199.588q0-5.117-5.117-8.316t-12.794-3.838-13.434,3.838-5.757,8.316z m 79.324-37.743l0,273.795q0,5.117 5.757,8.316t 13.434,3.838q 7.677,0 12.794-3.838t 5.757-8.316l0-273.795q0-5.117-5.757-8.316t-12.794-3.199q-7.677,0-13.434,3.199t-5.757,8.316z m 90.198-24.948l0,323.692q0,10.236 7.037,17.272t 17.272,7.037l 305.14,0q 10.236,0 17.272-7.037t 7.037-17.272l0-323.692q0-10.236-7.037-17.272t-17.272-7.037l-305.14,0q-10.236,0-17.272,7.037t-7.037,17.272z m 55.654,31.346l 242.449,0 0,261-242.449,0 0-261z m 351.199-6.397l0,273.795q0,5.117 5.117,8.316t 12.794,3.838 13.434-3.838 5.757-8.316l0-273.795q0-5.117-5.757-8.316t-13.434-3.199-12.794,3.199-5.117,8.316z m 79.324,37.743l0,199.588q0,5.117 5.117,8.316t 12.794,3.199 12.794-3.199 5.117-8.316l0-199.588q0-5.117-5.117-8.316t-12.794-3.838-12.794,3.838-5.117,8.316z" horiz-adv-x="693.12"  />
<glyph unicode="&#xf528;" d="M-0.16,366.72q0,19.84 15.36,33.92t 36.48,14.080l 137.6,0 104.96-159.36 56.96,332.16 195.84,0q 21.76,0 37.12-14.080t 15.36-34.56-15.36-34.56-37.12-14.080l-108.8,0-87.040-501.76-219.52,329.6-80,0q-21.12,0-36.48,14.080t-15.36,33.92z" horiz-adv-x="599.68"  />
<glyph unicode="&#xf529;" d="M-0.16,288.64q0,61.44 23.68,116.48t 64,95.36 96,64 116.48,23.68 116.48-23.68 96-64 64-95.36 23.68-116.48q0-60.8-23.68-116.48t-64-96-96-64-116.48-23.68-116.48,23.68-96,64-64,96-23.68,116.48z m 131.2,19.84q0-10.24 7.68-17.28t 17.92-7.040l 40.32,0 109.44-164.48 43.52,250.24 54.4,0q 10.88,0 18.56,7.040t 7.68,17.28-7.68,17.28-18.56,7.040l-97.92,0-28.8-166.4-52.48,79.36-68.48,0q-10.88,0-17.92-7.040t-7.68-17.28z" horiz-adv-x="599.68"  />
<glyph unicode="&#xf52a;" d="M-0.16,288.64q0,61.44 23.68,116.48t 64,95.36 95.36,64 116.48,23.68q 60.8,0 116.48-23.68t 96-64 64-95.36 23.68-116.48q0-60.8-23.68-116.48t-64-96-96-64-116.48-23.68q-61.44,0-116.48,23.68t-95.36,64-64,96-23.68,116.48z m 56.32,0q0-49.28 19.2-94.72t 51.84-78.080 78.080-51.84 94.72-19.2 94.72,19.2 78.080,51.84 51.84,78.080 19.2,94.72-19.2,94.72-51.84,78.080-78.080,51.84-94.72,19.2-94.72-19.2-78.080-51.84-51.84-78.080-19.2-94.72z m 74.88,19.84q0,10.24 7.68,17.28t 17.92,7.040l 68.48,0 51.84-79.36 28.8,166.4 97.92,0q 10.88,0 18.56-7.040t 7.68-17.28-7.68-17.28-18.56-7.040l-54.4,0-43.52-250.24-109.44,164.48-40.32,0q-10.88,0-17.92,7.040t-7.68,17.28z" horiz-adv-x="599.68"  />
<glyph unicode="&#xf52b;" d="M 3.838,558.606q 7.677,8.317 29.428,0l 678.753-273.165q 13.434-5.118 18.552-12.795t 0.64-15.993-16.633-14.714l-120.909-58.216-84.444-149.057q-11.515-17.912-30.067-19.832t-33.906,13.434l-16.633,16.633q-1.279,1.279-1.919,1.919l-37.105,37.744-90.842-42.862q-20.471-8.956-41.583-1.279t-30.707,28.148l-220.707,460.605q-9.596,20.471-1.919,29.428z m 129.226-84.444q-1.919-2.559 15.354-17.273l 242.458-216.228q 16.633-15.354 42.862-19.832t 44.781,3.199q 19.192,8.317 18.552,22.39t-19.832,26.229l-321.784,192.559q-19.832,11.515-21.751,8.956z" horiz-adv-x="733.44"  />
<glyph unicode="&#xf52c;" d="M-0.16,288.64q0,60.8 23.68,116.48t 64,96 96,64 116.48,23.68 116.48-23.68 96-64 64-96 23.68-116.48-23.68-116.48-64-96-96-64-116.48-23.68-116.48,23.68-96,64-64,96-23.68,116.48z m 128,128q-3.84-4.48 0.64-14.080l 110.080-229.12q 5.12-10.24 15.36-14.080t 20.48,0.64l 45.44,21.12 18.56-18.56 0.64-0.64 8.32-8.32q 7.68-7.68 16.64-7.040t 14.72,10.24l 42.24,74.24 60.16,28.8q 9.6,5.12 8.96,10.88t-10.24,10.24l-338.56,136.32q-10.88,3.84-14.72,0z m 64.64-41.6q 0.64,1.28 10.88-4.48l 160.64-95.36q 9.6-5.76 9.6-12.8t-8.96-11.52q-9.6-3.84-22.4-1.92t-21.12,9.6l-120.32,107.52q-8.96,7.68-7.68,8.96z" horiz-adv-x="599.68"  />
<glyph unicode="&#xf52d;" d="M-0.16,288.64q0,60.8 23.68,116.48t 64,96 96,64 116.48,23.68 116.48-23.68 96-64 64-96 23.68-116.48-23.68-116.48-64-96-96-64-116.48-23.68-116.48,23.68-96,64-64,96-23.68,116.48z m 56.32,0q0-65.92 32.64-122.24t 88.32-88.96 122.24-32.64 122.24,32.64 88.96,88.96 32.64,122.24q0,49.28-19.2,94.72t-51.84,78.080-78.080,51.84-94.72,19.2-94.72-19.2-78.080-51.84-51.84-78.080-19.2-94.72z m 75.52,128q 3.84,4.48 14.72,0l 338.56-136.32q 7.040-2.56 9.6-6.4t 0.64-7.68-8.32-7.040l-60.16-28.8-42.24-74.24q-5.76-8.96-15.36-10.24t-17.28,7.040l-8.32,8.32q-0.64,0.64-1.28,0.64l-18.56,18.56-45.44-21.12q-10.24-4.48-20.48-0.64t-15.36,14.080l-110.080,229.12q-5.12,10.24-0.64,14.080z m 64.64-41.6q0-0.64 1.28-3.2t 5.76-6.4l 120.32-107.52q 8.96-7.68 21.12-9.6t 21.76,1.92q 9.6,3.84 9.6,11.52t-10.24,12.8l-160,95.36q-5.12,2.56-7.68,3.84t-3.2,0.64z" horiz-adv-x="599.68"  />
<glyph unicode="&#xf52e;" d="M-0.16,96l 145.28,385.92 93.44,0 133.12-353.28 78.080,208.64 58.88,0 90.88-241.28-61.44,0-16.64,48.64-86.4,0-17.28-48.64-132.48,0-26.88,78.080-136.96,0-27.52-78.080-94.080,0z m 142.080,148.48l 96,0-48,138.24z m 306.56-55.68l 60.16,0-30.080,87.040z" horiz-adv-x="599.68"  />
<glyph unicode="&#xf52f;" d="M-0.16,288.64q0,60.8 23.68,116.48t 64,96 96,64 116.48,23.68 116.48-23.68 96-64 64-96 23.68-116.48-23.68-116.48-64-96-96-64-116.48-23.68-116.48,23.68-96,64-64,96-23.68,116.48z m 254.080-144q0-29.44 20.48-50.56t 50.56-20.48q 1.92,0 7.040-0.64 51.84,7.68 94.72,38.4t 67.2,77.44 24.96,101.12q0,57.6-27.52,106.88t-75.52,79.36-104.96,32.64q 39.040-61.44 39.040-133.76 0-51.84-19.84-97.92t-55.040-81.92q-20.48-21.12-20.48-49.28z" horiz-adv-x="599.68"  />
<glyph unicode="&#xf530;" d="M-0.129,176.64q0,8.96 0.64,17.28l-0.64,0q0,36.48 7.68,74.88t 17.28,65.92 18.56,59.52 11.52,55.040-3.84,52.48q 1.92,0 5.12-1.92t 13.44-8.32 19.84-18.56 22.4-33.28 23.040-51.2q 17.28,16 30.080,33.28t 23.68,40.96 17.28,55.68 5.76,70.4q 3.2-1.92 9.6-6.4t 23.040-20.48 32.64-36.48 34.56-55.040 32.64-74.88 23.040-97.28 9.6-122.24q0-51.2-24.96-94.080t-68.48-68.48-94.080-25.6q-51.2,0-94.72,25.6t-68.48,68.48-24.96,94.080z m 121.6-46.72q0-27.52 19.84-47.36t 46.72-19.84 46.72,19.84 19.84,47.36q0,31.36-5.76,57.6t-14.72,42.24-17.28,26.24-14.72,14.72l-5.76,4.48q0-26.24-7.040-42.24t-20.48-28.16q-5.76,16-13.44,26.24t-12.16,12.16l-4.48,1.92q 3.2-12.8-0.64-30.080t-10.88-38.4-6.4-40.96q0-1.92 0-5.76z" horiz-adv-x="375.68"  />
<glyph unicode="&#xf531;" d="M-0.16,32.64l0,356.48q0,13.44 9.6,23.040t 23.040,9.6l 78.080,0q 13.44,0 23.040-9.6t 9.6-23.040l0-356.48q0-13.44-9.6-23.040t-23.040-9.6l-78.080,0q-13.44,0-23.040,9.6t-9.6,23.040z m 231.68,0l0,242.56q0,13.44 9.6,23.040t 23.040,9.6l 78.080,0q 13.44,0 23.040-9.6t 9.6-23.040l0-242.56q0-13.44-9.6-23.040t-23.040-9.6l-78.080,0q-13.44,0-23.040,9.6t-9.6,23.040z m 224.64,0l0,512.64q0,13.44 9.6,23.040t 23.040,9.6l 78.080,0q 13.44,0 23.040-9.6t 9.6-23.040l0-512.64q0-13.44-9.6-23.040t-23.040-9.6l-78.080,0q-13.44,0-23.040,9.6t-9.6,23.040z" horiz-adv-x="599.68"  />
<glyph unicode="&#xf532;" d="M0,174.125l0,127.949q0,16.634 10.876,28.788l 59.496,78.049q 13.435,19.192 37.105,19.192l 42.223,0q 71.652,19.192 172.092,19.192t 171.453-19.192l 42.223,0q 23.67,0 37.105-19.192l 59.496-78.049q 10.876-12.795 10.876-28.788l0-127.949q0-18.553-12.795-31.348t-31.348-12.795l-552.742,0q-18.553,0-31.987,12.795t-12.795,31.348z m 63.335,38.385q0-10.236 7.037-17.273t 17.273-7.037l 56.298,0q 9.596,0 16.634,7.037t 7.037,17.273-7.037,17.273-16.634,7.037l-56.298,0q-10.236,0-17.273-7.037t-7.037-17.273z m 46.701,150.98q0-14.074 28.149-26.23t 76.77-19.192 106.198-7.037 106.198,7.037 76.77,19.192 28.149,26.23-28.149,26.23-76.77,19.192-106.198,7.037-106.198-7.037-76.77-19.192-28.149-26.23z m 93.404-150.98q0-10.236 7.037-17.273t 17.273-7.037l 7.037,0q 9.596,0 16.634,7.037t 7.037,17.273-7.037,17.273-16.634,7.037l-7.037,0q-10.236,0-17.273-7.037t-7.037-17.273z m 54.379,150.98q0,6.397 18.553,10.876t 44.782,5.118q 25.59,0 44.143-5.118t 18.553-10.876-18.553-10.876-44.143-4.478q-26.23,0-44.782,4.478t-18.553,10.876z" horiz-adv-x="642.56"  />
<glyph unicode="&#xf533;" d="M-0.169,44.8l0,487.040q0,23.040 16.64,39.68t 39.68,16.64l 393.6,0q 23.040,0 39.68-16.64t 16.64-39.68l0-487.040q0-23.040-16.64-39.68t-39.68-16.64l-393.6,0q-23.040,0-39.68,16.64t-16.64,39.68z m 114.56,188.16q0-37.76 18.56-69.76t 50.56-50.56 69.76-18.56q 57.6,0 97.92,40.32t 40.96,97.92-40.96,97.92-97.92,40.96q-28.16,0-53.76-10.88t-44.16-29.44-29.44-44.16-10.88-53.76z m 37.76,4.48q 1.92,40.32 31.36,68.48t 69.76,28.16q 38.4,0 66.56-24.96t 33.92-62.080q0,0 0-1.28t0-1.28q0-13.44-9.6-23.040t-23.040-9.6q-13.44,0-23.040,8.96-34.56,34.56-83.2,34.56-34.56,0-62.080-17.92z m 222.72,247.040q0-11.52 8.32-19.84t 19.84-8.32 19.84,8.32 8.32,19.84-8.32,19.84-19.84,8.32q-12.16,0-19.84-8.32t-8.32-19.84z" horiz-adv-x="505.6"  />
<glyph unicode="&#xf534;" d="M-0.273,156.8q0-19.84 14.080-34.56l 115.2-115.2q 12.8-12.8 29.44-14.080t 31.36,7.68l-61.44,61.44 26.24,26.24 62.080-62.72 26.24,26.24-62.72,62.080 26.24,26.24 62.080-62.080 26.24,26.24-62.080,62.72 26.24,26.24 62.72-62.080 24.96,24.96-62.72,62.080 26.24,26.24 62.72-62.080 26.24,26.24-62.080,62.72 26.24,26.24 62.080-62.72 26.24,26.24-62.72,62.080 26.24,26.24 62.080-62.72 26.24,26.24-62.080,62.72 26.24,26.24 62.72-62.080 26.24,26.24-62.72,62.080 26.24,26.24 61.44-60.8q 8.32,14.080 6.4,30.72t-13.44,28.8l-115.2,115.2q-14.72,14.080-34.56,14.080t-34.56-14.72l-377.6-377.6q-14.72-14.72-14.72-34.56z" horiz-adv-x="590.080"  />
<glyph unicode="&#xf535;" d="M0,90.33l 87,87 30.066-30.066 140.735,140.735q-19.191,28.147-15.993,63.331t 28.147,60.132q 24.948,24.948 60.132,28.147t 63.331-16.632l 140.735,141.375-30.066,30.066 86.36,86.36 87-86.36-87-87-30.066,30.066-90.838-90.838q 42.221,10.236 78.044,10.236 64.611,0 124.103-24.948t 104.912-70.368q 8.316-8.316 8.316-19.831t-8.316-19.831-19.831-8.316-19.831,8.316q-38.382,38.382-87,58.213t-102.353,19.831q-62.051,0-117.066-26.868 9.596-25.588 3.199-53.096t-26.228-47.978q-20.47-19.831-47.978-26.228t-52.456,3.199q-24.309-49.897-26.868-104.912t 17.272-108.11 60.772-93.397q 8.316-8.316 8.316-19.831t-8.316-19.831q-8.316-8.316-19.831-8.316-10.875,0-19.191,8.316-61.412,61.412-83.162,143.294t-1.279,163.764l-91.478-90.838 30.066-30.066-86.36-87z m 51.816,0l 34.544-34.544 33.905,34.544-33.905,34.544z m 504.088,503.449l 33.905-34.544 34.544,34.544-34.544,33.905z" horiz-adv-x="784.64"  />
<glyph unicode="&#xf536;" d="M 4.429,146.56q-10.88-10.88 3.2-37.12t 37.12-49.92 49.28-37.76 37.12-2.56l 142.72,142.72q-35.2,24.32-68.48,57.6-14.72,14.72-29.44,32t-21.12,26.88l-7.040,9.6z m 173.44,151.040q-5.12,15.36 1.92,21.76 7.040,7.040 14.72,26.24t 10.88,39.040l 2.56,12.8q 3.2,19.84 19.2,39.68t 33.92,27.52l 254.080,113.28q 18.56,7.68 21.76,3.2t-11.52-19.2l-129.92-129.28q-26.88-27.52-33.92-33.92-13.44,6.4-29.44,3.84t-26.88-13.44q-14.080-14.080-14.080-34.56t 14.080-35.2q 14.72-14.72 35.2-14.72t 34.56,14.72q 10.88,10.88 13.44,26.24t-3.84,28.8q 8.96,9.6 33.92,33.92l 129.92,129.92q 14.080,14.080 18.56,11.52t-3.2-21.76l-113.28-254.080q-8.32-17.92-28.16-33.28t-39.68-19.2l-12.8-2.56q-19.84-3.2-39.040-10.88t-26.24-14.72-21.76-1.92-29.44,19.2l-56.32,55.68q-14.080,14.080-19.2,29.44z" horiz-adv-x="568.96"  />
<glyph unicode="&#xf537;" d="M-0.215,282.24q0,126.080 83.2,213.12 87.68,92.16 224,92.16 112,0 184.32-63.36 77.44-66.56 77.44-177.28 0-86.4-49.28-149.12-48.64-62.72-111.36-62.72-32,0-49.92,19.84-17.28,19.84-17.28,41.6 0,0.64 0,2.56t0,3.2 0,3.2 0,3.84q-14.080-28.16-30.080-43.52-29.44-29.44-71.68-29.44t-71.040,33.28q-28.8,33.28-28.8,92.8 0,69.12 43.52,129.92 44.16,60.8 106.24,60.8 36.48,0 57.6-22.4 16-17.92 21.12-39.68l 12.8,48 66.56,0-45.44-166.4q-1.92-7.68-4.48-17.92t-3.2-12.16q-1.92-8.96-1.92-17.28 0-11.52 7.040-21.76t 22.4-10.24q 30.080,0 61.44,42.88 30.72,43.52 30.72,114.56 0,104.96-83.84,151.68-51.2,28.8-117.12,28.8-120.32,0-192.64-80-65.28-71.68-65.28-172.8 0-112.64 77.44-177.92 68.48-58.24 165.76-58.24 67.2,0 125.44,26.88 32,14.080 65.92,40.32l 8.32,6.4q 2.56,1.92 6.4,3.84t 8.32,1.92 9.6-2.56 8.32-10.24q 3.84-10.24 1.92-17.92t-5.12-12.16l-3.84-4.48q-49.92-42.24-108.16-64.64-58.88-22.4-120.96-22.4-146.56,0-227.2,99.2-66.56,81.92-66.56,194.56z m 217.6-26.88q0-27.52 12.16-45.44 11.52-17.28 33.28-17.28 37.76,0 62.080,62.080 23.68,62.72 23.68,97.92 0,20.48-10.88,34.56-11.52,13.44-30.080,13.44-37.12,0-63.36-49.92-26.24-49.28-26.24-96z" horiz-adv-x="568.32"  />
<glyph unicode="&#xf538;" d="M 0.605,197.12q 3.2,16 16.64,26.88t 29.44,10.88l 95.36,0 23.040,108.16-87.040,0q-17.92,0-29.44,13.44-10.88,14.080-7.040,32.64 3.2,16 16,26.88t 29.44,10.88l 95.36,0 20.48,96q 3.2,16 16.64,26.88t 29.44,10.88q 18.56,0 29.44-13.44t 7.040-32.64l-18.56-87.68 106.88,0 20.48,96q 3.2,16 16.64,26.88t 29.44,10.88q 18.56,0 29.44-13.44 11.52-12.8 7.040-32.64l-18.56-87.68 86.4,0q 17.92,0 29.44-13.44 10.88-14.080 7.040-32.64-3.2-16-16-26.88t-29.44-10.88l-95.36,0-23.68-108.16 87.040,0q 17.92,0 29.44-13.44 10.88-14.080 7.040-32.64-3.2-16-16.64-26.88t-29.44-10.88l-96,0-19.84-96q-3.2-16-16.64-26.88t-29.44-10.88q-17.92,0-29.44,13.44-10.88,14.080-7.040,32.64l 18.56,87.68-107.52,0-20.48-96q-3.2-16-16.64-26.88t-29.44-10.88q-17.92,0-29.44,13.44-10.88,14.080-7.040,32.64l 18.56,87.68-87.040,0q-18.56,0-29.44,14.080-11.52,12.8-7.040,32.64z m 225.92,37.76l 106.88,0 23.040,108.16-107.52,0z" horiz-adv-x="583.68"  />
<glyph unicode="&#xf539;" d="M-0.271,406.4q0,37.12 14.72,70.4t 39.040,58.24 58.24,39.040 70.4,14.080q 49.28,0 90.88-24.32t 66.56-65.92 24.32-90.88q0-63.36-39.040-112.64t-99.84-64l0-50.56 61.44,0q 17.92,0 30.72-12.8t 12.8-30.72-12.8-30.72-30.72-12.8l-61.44,0 0-60.8q0-17.92-12.8-30.72t-30.72-12.8-30.72,12.8-12.8,30.72l0,60.8-60.8,0q-17.92,0-30.72,12.8t-12.8,30.72 12.8,30.72 30.72,12.8l 60.8,0 0,50.56q-60.16,14.72-99.2,64t-39.040,112.64z m 87.040,0q0-39.040 27.52-67.2t 67.2-27.52 67.2,27.52 27.52,67.2-27.52,67.2-67.2,27.52-67.2-27.52-27.52-67.2z" horiz-adv-x="363.52"  />
<glyph unicode="&#xf53a;" d="M-0.29,234.24q0,37.76 14.72,72.32t 39.68,59.52 59.52,39.68 72.32,14.72q 51.84,0 96.64-26.88l 65.92,65.92-30.080,0q-14.72,0-24.96,10.24t-10.24,24.96 10.24,24.96 24.96,10.24l 129.28,0q 14.72,0 24.96-10.24t 10.24-24.96l0-128.64q0-14.72-10.24-24.96t-24.96-10.24-24.96,10.24-10.24,24.96l0,30.72-65.92-65.92q 26.88-44.16 26.88-96 0-50.56-24.96-93.44t-67.84-67.84-93.44-24.96q-50.56,0-93.44,24.96t-67.84,67.84-24.96,93.44z m 88.96,0q0-39.68 28.16-68.48t 68.48-28.8q 40.32,0 69.12,28.8t 28.8,69.12-28.8,69.12-69.12,28.8q-39.68,0-68.48-28.8t-28.16-68.48z" horiz-adv-x="481.92"  />
<glyph unicode="&#xf53b;" d="M0,380.111q0,37.1 26.226,62.686t 62.686,26.226q 37.1,0 63.326-26.226t 26.226-62.686q0-25.587-13.433-46.695l 180.383-179.743q 12.793,7.676 25.587,10.874l0,248.826q-29.424,7.036-48.614,31.343t-19.19,55.011q0,37.1 26.226,62.686t 63.326,26.226q 37.1,0 62.686-26.226t 26.226-62.686q0-31.343-19.19-55.011t-48.614-31.343l0-248.826q 12.793-3.198 25.587-10.874l 180.383,179.743q-12.793,21.748-12.793,46.695 0,37.1 26.226,63.326t 62.686,26.226 62.686-26.226 26.226-62.686-26.226-63.326-62.686-26.226q-23.667,0-46.055,13.433l-180.383-180.383q 13.433-21.108 13.433-46.055 0-37.1-26.226-63.326t-62.686-26.226q-37.1,0-63.326,26.226t-26.226,63.326q0,24.947 13.433,46.055l-180.383,180.383q-23.028-13.433-46.055-13.433-37.1,0-62.686,26.226t-26.226,63.326z" horiz-adv-x="782.080"  />
<glyph unicode="&#xf53c;" d="M 1.215,446.72q 5.76,26.88 28.8,41.6 23.040,15.36 49.92,9.6t 42.24-28.8q 11.52-18.56 10.88-39.040t-12.8-37.12q 14.080-20.48 28.8-34.56t 26.24-20.48 20.48-8.96 16.64-2.56q 1.28,0 12.8,1.92 13.44,0 23.040,10.24t 14.080,27.52 6.4,33.92 2.56,36.48q-20.48,6.4-33.28,23.68t-12.8,39.040q0,27.52 19.2,46.72t 47.36,19.2 47.36-19.2 19.2-46.72q0-21.76-12.8-39.040t-33.28-23.68q0-19.84 2.56-36.48t 6.4-33.92 14.080-27.52 23.040-10.24q 1.28,0 3.84-0.64t 4.48-0.64 3.84-0.64q 7.68,0 16.64,2.56t 20.48,8.96 26.24,20.48 28.8,34.56q-12.8,16.64-13.44,37.12t 10.88,39.040q 14.72,23.040 41.6,28.8t 49.92-9.6q 23.040-14.72 28.8-41.6t-8.96-49.92q-12.16-17.92-31.36-25.6t-39.68-2.56q-18.56-28.16-34.56-63.36t-21.76-56.32l-6.4-21.12q-4.48-20.48-10.24-51.84t-10.24-62.72-6.4-40.96q-3.2-17.92-23.68-32t-46.080-21.12-49.92-7.040q-24.32,0-50.56,7.040t-46.080,21.12-23.68,32q-1.28,8.96-5.76,40.96t-9.6,63.36-10.88,51.84q-1.92,8.96-6.4,23.68t-20.48,51.84-35.2,65.28q-20.48-5.12-39.68,2.56t-31.36,25.6q-14.72,23.040-9.6,49.92z" horiz-adv-x="581.12"  />
<glyph unicode="&#xf53d;" d="M-0.301,193.92q0,5.12 3.2,8.32l 65.28,78.080 14.080-17.28 49.92-61.44q 3.2-3.84 2.56-8.96t-4.48-7.68q-7.040-5.12-14.080,0l-14.72,12.16q 10.24-39.040 40.32-64.64t 72.96-35.2q 3.84,0 6.4,0t 6.4,4.48 3.84,12.8l0,248.96q0,6.4-3.84,10.24t-7.68,4.48l-3.2,0.64-25.6,0q-12.8,0-21.12,8.96t-8.96,21.12 8.96,21.12 21.76,8.96l 26.24,0q 1.28,0 2.56,0.64t 2.56,1.28 3.2,1.92 2.56,2.56 1.92,3.84 0.64,5.12l0,6.4q-19.84,8.96-32,26.88t-12.16,40.96q0,30.080 21.76,51.84t 51.84,21.76 52.48-21.76 21.76-51.84q0-22.4-12.16-40.96t-32-26.88l0-6.4q0-2.56 0.64-5.12t 1.92-3.84 2.56-2.56 3.2-1.92 2.56-1.28 1.92-0.64l 27.52,0q 12.16,0 21.12-8.96t 8.96-21.12q0-12.16-8.96-21.12t-21.12-8.96l-26.24,0q-1.28,0-3.84-0.64t-6.4-4.48-4.48-10.24l0-248.96q0-8.96 3.84-12.8t 7.040-4.48 6.4,0q 42.88,9.6 72.96,35.2t 40.32,64.64l-14.72-12.16q-3.84-3.2-8.32-2.56t-7.68,3.84q-5.12,7.68 0,14.72l 49.92,61.44 13.44,17.28 65.28-78.080q 3.2-3.84 2.56-9.6t-4.48-8.96q-3.84-3.2-8.96-3.2t-8.32,3.2l-19.2,16q-10.88-65.28-55.68-114.56t-109.44-65.28q-0.64-0.64-1.28-0.64-8.96-1.92-16-8.32t-8.96-13.44q-2.56-10.24-10.88-16.64t-18.56-6.4q-10.24,0-18.56,6.4t-10.24,16.64q-1.92,7.68-8.96,13.44t-16,8.32q-0.64,0-1.28,0.64-64,16.64-109.44,65.28t-55.68,114.56l-18.56-16q-3.84-3.2-9.6-3.2t-9.6,5.12q-3.2,3.84-3.2,8.32z m 224,334.72q0-12.16 6.4-21.76l0,3.2q0,12.8 8.96,21.12t 21.12,8.96 21.12-8.32 8.96-21.12l0-3.2q 7.040,10.24 7.040,21.76 0,14.72-10.88,25.6t-26.24,10.88-26.24-10.88-10.88-25.6z" horiz-adv-x="520.96"  />
<glyph unicode="&#xf53e;" d="M 0.525,45.44q-2.56,19.84 3.2,49.28l 28.16,132.48q 15.36,57.6 51.2,57.6l 78.080,0 0,252.16q0,21.12 29.44,36.48t 71.040,15.36 71.040-15.36 29.44-36.48l0-252.16 78.080,0q 35.84,0 51.2-57.6l 28.16-132.48q 5.76-28.8 3.2-49.28t-12.8-32.64-21.76-18.56-24.96-5.76l-403.84,0q-12.8,0-24.96,5.76t-21.76,18.56-12.8,32.64z m 110.72,142.080q0-32 44.16-55.040t 106.24-23.040q 62.72,0 106.24,23.040t 44.16,55.040q0,16.64-13.44,32t-37.12,26.24l0-56.96q0-21.12-29.44-36.48t-71.040-15.36-71.040,15.36-29.44,36.48l0,56.96q-23.68-10.88-36.48-26.24t-13.44-32z m 97.92,349.44q0-11.52 15.36-19.2t 37.12-8.32 37.12,8.32 15.36,19.2-15.36,19.2-37.12,7.68-37.12-7.68-15.36-19.2z" horiz-adv-x="523.52"  />
<glyph unicode="&#xf53f;" d="M 299.36,457.6l0,130.56q 83.2,0 151.68-39.68t 108.16-108.16 39.68-151.68l-130.56,0q0,46.080-22.4,85.12t-61.44,61.44-85.12,22.4z" horiz-adv-x="599.68"  />
<glyph unicode="&#xf540;" d="M-0.16,288.64q0,19.2 14.080,32.64t 32.64,13.44l 81.92,0q 19.2,0 32.64-13.44t 13.44-32.64-13.44-32.64-32.64-13.44l-81.92,0q-19.2,0-32.64,13.44t-13.44,32.64z m 74.24-179.2q0,19.2 13.44,32.64l 58.24,58.24q 13.44,13.44 32.64,13.44t 32.64-13.44q 13.44-13.44 13.44-32.64t-13.44-32.64l-58.24-58.24q-13.44-13.44-32.64-13.44t-32.64,13.44q-13.44,13.44-13.44,32.64z m0,358.4q0,19.2 13.44,32.64t 32.64,13.44 32.64-13.44l 58.24-58.24q 13.44-13.44 13.44-32.64t-13.44-32.64-32.64-13.44-32.64,13.44l-58.88,58.24q-13.44,13.44-13.44,32.64z m 179.84-432.64l0,82.56q0,19.2 13.44,32.64t 32.64,13.44 32.64-13.44 13.44-32.64l0-82.56q0-19.2-13.44-32.64t-32.64-13.44-32.64,13.44-13.44,32.64z m0,424.96l0,81.92q0,19.2 13.44,32.64t 32.64,13.44q 19.2,0 32.64-13.44t 13.44-32.64l0-81.92q0-19.2-13.44-32.64t-32.64-14.080q-19.2,0-32.64,13.44t-13.44,32.64z m 121.6-292.48q0,19.2 13.44,32.64t 32.64,13.44 32.64-13.44l 58.24-58.24q 13.44-13.44 13.44-32.64t-13.44-32.64q-13.44-13.44-32.64-13.44t-32.64,13.44l-58.24,58.24q-13.44,13.44-13.44,32.64z m0,242.56q0,19.2 13.44,32.64l 58.24,58.24q 13.44,13.44 32.64,13.44t 32.64-13.44q 13.44-13.44 13.44-32.64t-13.44-32.64l-58.24-58.24q-13.44-13.44-32.64-13.44t-32.64,13.44-13.44,32.64z m 49.92-120.96q0,19.2 13.44,32.64t 32.64,13.44l 81.92,0q 19.2,0 32.64-13.44t 13.44-32.64-13.44-32.64-32.64-13.44l-81.92,0q-19.2,0-32.64,13.44t-13.44,32.64z" horiz-adv-x="599.68"  />
<glyph unicode="&#xf541;" d="M-0.16,259.84q0-74.88 22.4-119.68 24.32-47.36 74.88-70.4 51.2-24.32 104.32-29.44 48-5.76 103.68-5.76 24.32,0 60.16,1.92 30.080,1.92 64.64,8.32t 58.88,16.64q 28.16,12.16 51.84,32t 37.12,46.72q 21.76,44.8 21.76,119.68 0,85.76-49.28,143.36 9.6,28.8 9.6,60.8 0,42.24-17.92,78.080-37.12,0-66.56-12.8t-69.12-44.16q-49.28,11.52-101.12,11.52-56.96,0-111.36-12.8-40.96,32-70.4,45.44t-66.56,12.8q-18.56-35.84-18.56-78.080 0-32 9.6-61.44-49.28-57.6-49.28-142.72z m 80.64-63.36q0,44.16 25.6,74.24t 67.2,29.44q 16.64,0 70.4-7.68 27.52-3.84 56.32-3.84t 56.96,3.84q 54.4,7.68 70.4,7.68 41.6,0 66.56-29.44t 25.6-74.24q0-31.36-11.52-55.68-11.52-23.040-28.8-36.48t-44.16-21.76q-44.16-13.44-104.32-13.44l-60.8,0q-29.44,0-53.76,2.56-25.6,2.56-51.84,10.88t-42.88,21.12q-18.56,14.080-29.44,38.4t-11.52,54.4z m 57.6,0q0-14.72 4.48-29.44 4.48-16 16-28.16t 25.6-11.52q 14.72,0 26.24,12.16 19.84,23.040 19.84,56.96 0,14.080-3.84,29.44-4.48,16-16,28.16t-25.6,11.52q-14.72,0-26.24-12.8-19.84-21.76-19.84-56.32z m 231.040,0q0-14.72 4.48-29.44 4.48-16 16-28.16t 25.6-11.52q 15.36,0 26.24,12.16 19.84,23.040 19.84,56.96 0,13.44-4.48,29.44t-16,28.16-25.6,11.52q-14.72,0-25.6-12.8-20.48-21.76-20.48-56.32z" horiz-adv-x="599.68"  />
<glyph unicode="&#xf542;" d="M-0.16,288.64q0,60.8 23.68,116.48t 64,96 96,64 116.48,23.68 116.48-23.68 96-64 64-96 23.68-116.48-23.68-116.48-64-96-96-64-116.48-23.68-116.48,23.68-96,64-64,96-23.68,116.48z m 126.72-19.84q0-42.24 12.8-67.84 14.72-28.16 42.88-40.32 29.44-13.44 59.52-16.64 25.6-3.2 59.52-3.2 19.2,0 34.56,0.64 39.68,1.92 70.4,14.080 36.48,15.36 51.2,45.44 12.8,26.24 12.8,67.84 0,49.28-28.16,81.92 5.76,16 5.76,34.56 0,23.68-10.24,44.8-21.12,0-38.4-7.68t-39.040-25.6q-28.16,7.040-58.24,7.040-33.28,0-63.36-7.68-23.68,18.56-40.32,26.24t-37.76,7.68q-10.88-21.12-10.88-44.8 0-16 5.76-35.2-27.52-32.64-27.52-81.92z m 46.080-36.48q0,25.6 14.72,42.88t 38.4,17.28q 8.96,0 39.68-4.48 13.44-1.92 32.64-1.92 18.56,0 32,1.92 32,4.48 40.32,4.48 23.68,0 38.4-17.28t 14.72-42.88q0-17.92-6.4-31.36-12.16-24.96-41.6-33.28-25.6-7.68-59.52-7.68l-34.56,0q-17.92,0-30.72,1.28-34.56,3.84-53.76,18.56-23.040,17.28-23.040,52.48z m 32.64,0q0-9.6 2.56-16.64 2.56-9.6 8.96-16t 14.72-6.4q 8.32,0 14.72,7.040 11.52,12.8 11.52,32.64 0,9.6-2.56,17.28-2.56,9.6-8.96,16t-14.72,6.4q-8.32,0-14.72-7.040-11.52-13.44-11.52-32.64z m 131.84,0q0-9.6 2.56-16.64 2.56-9.6 8.96-16t 14.72-6.4q 8.96,0 15.36,7.040 10.88,12.8 10.88,32.64 0,9.6-2.56,17.28-2.56,9.6-8.96,16t-14.72,6.4-14.080-7.040q-11.52-12.8-11.52-32.64z" horiz-adv-x="599.68"  />
<glyph unicode="&#xf543;" d="M-0.16,288.64q0,60.8 23.68,116.48t 64,96 96,64 116.48,23.68 116.48-23.68 96-64 64-96 23.68-116.48-23.68-116.48-64-96-96-64-116.48-23.68-116.48,23.68-96,64-64,96-23.68,116.48z m 117.12-126.080q0-19.84 12.16-33.92t 30.080-18.56q 16.64-4.48 37.76-4.48 78.080,0 78.080,65.28 0,16-8.32,26.88t-22.4,15.36q-0.64,0-10.88,3.2t-15.36,3.84q-30.72,7.68-30.72,22.4 0,15.36 17.28,17.92 26.88,5.12 42.88,24.96t 16,46.72q0,7.68-3.84,17.92 14.72,3.84 17.28,4.48l0,44.16q-26.88-10.24-47.36-10.24-17.92,10.24-39.040,10.24-30.080,0-51.2-19.84t-20.48-49.92q0-17.92 10.24-35.84t 25.6-23.040l0-0.64q-12.8-6.4-12.8-30.080 0-17.92 14.080-26.88l0-1.28q-39.68-13.44-39.68-48.64z m 44.16,2.56q0,22.4 33.92,22.4 36.48,0 36.48-21.76 0-23.040-32.64-23.040-37.76,0-37.76,22.4z m 4.48,164.48q0,31.36 26.24,31.36 12.8,0 19.2-8.96t 7.040-22.4q0-29.44-26.24-29.44t-26.24,29.44z m 126.080,133.12q0-12.8 8.96-22.4t 21.12-9.6 21.12,9.6 8.96,21.76q0,12.8-8.32,22.4t-21.12,9.6-21.12-9.6-8.32-22.4z m 5.12-253.44l 48.64,0q-0.64,14.080-0.64,31.36l0,130.56q0,14.72 0.64,26.88l-48.64,0q 1.28-12.16 1.28-27.52l0-131.84q0-16-1.28-28.8z m 68.48,147.84l 12.8,0.64 4.48,0q 1.92,0 3.84,0l0-0.64-0.64,0 0-76.8q0-26.24 5.12-42.24 6.4-21.12 23.68-27.52 10.24-4.48 23.68-4.48 21.76,0 37.76,8.96l0,42.24q-10.88-7.68-24.32-7.68-18.56,0-18.56,28.8l0,78.72 17.92,0q 5.12,0 9.6,0t 9.6,0l0,40.96-37.12,0q0,28.8 0.64,35.84l-49.28,0q 1.28-7.68 1.28-19.2l0-16.64-21.12,0 0-40.96z" horiz-adv-x="599.68"  />
<glyph unicode="&#xf544;" d="M-0.16,288.64q0-82.56 40.32-150.4 40.32-69.76 109.44-109.44t 150.4-39.68q 81.28,0 151.040,39.68 69.12,40.32 109.44,109.44t 39.68,150.4q0,82.56-39.68,151.040-40.32,69.12-109.44,109.44t-150.4,39.68q-82.56,0-150.4-40.32-69.76-40.32-109.44-109.44t-39.68-150.4z m 49.92,0q0,49.92 19.84,96.64t 53.76,80q 33.92,33.92 80,53.76t 96,19.84 96.64-19.84 80.64-53.76q 33.92-33.92 53.12-80t 19.84-96.64q0-53.76-21.76-102.4t-62.080-84.48-90.88-51.2l0,88.32q0,32.64-26.88,51.2 65.92,5.76 96.64,33.28t 30.72,87.040q0,46.080-28.16,78.080 5.76,16.64 5.76,32.64 0,23.040-10.88,42.24-21.12,0-37.76-7.040t-40.32-23.68q-28.8,6.4-60.16,6.4-35.2,0-65.92-7.040-23.68,17.28-40.32,24.32t-38.4,7.040q-10.24-19.84-10.24-42.24 0-16 5.12-32.64-28.16-30.72-28.16-77.44 0-59.52 30.080-87.040t 97.28-33.28q-17.92-12.16-24.96-34.56-15.36-5.12-32-5.12-12.8,0-21.76,5.76-2.56,1.28-5.12,3.2t-5.12,4.48-3.84,3.84-3.84,5.12-3.2,4.48-3.84,5.12-3.2,4.48q-14.72,19.2-35.2,19.2-10.88,0-10.88-4.48 0-1.92 5.12-6.4 10.24-8.96 10.88-9.6 7.68-5.76 8.32-7.68 8.96-11.52 13.44-24.96 17.28-39.040 60.16-39.040 7.040,0 26.88,3.2l0-65.92q-51.2,16-90.88,51.2t-62.080,84.48-21.76,102.4z" horiz-adv-x="599.68"  />
<glyph unicode="&#xf545;" d="M-0.16,108.16q0-4.48 4.48-8.32 7.68-5.12 27.52-15.36 76.16-39.040 160-39.040 104.32,0 189.44,53.76 40.32,25.6 72.32,61.44t 49.92,75.52 27.52,78.72 8.32,76.8l0,10.88q 36.48,26.24 56.96,60.16 1.92,3.84 1.92,5.76 0,3.84-3.2,7.040t-7.040,3.2q-1.92,0-7.68-2.56-3.84-1.28-8.96-3.2t-9.6-3.2-5.12-1.92q 8.32,8.96 16.64,24.32t 8.96,22.4q0,3.84-3.2,7.040t-7.68,3.2q-2.56,0-5.12-1.28-35.84-19.2-66.56-26.24-37.76,35.84-90.24,35.84-53.76,0-91.52-37.76t-37.76-90.88q0-9.6 1.28-15.36-52.48,4.48-101.76,25.6t-88.32,56.32q-8.96,8.96-35.2,36.48-3.84,3.84-8.96,3.84-3.84,0-7.68-5.12-8.32-12.16-12.8-30.080t-4.48-34.56q0-46.72 28.8-81.28l-8.96,4.48q-7.68,3.2-11.52,3.2-5.12,0-8.96-3.2t-3.84-8.32q0-32.64 16.64-62.080t 45.44-46.72l-3.84,0.64q-0.64,0-1.92,0t-1.92,0.64-0.64,0q-3.84,0-7.040-3.2t-3.2-7.040q0,0 0.64-3.2 10.88-32.64 35.2-55.040t 57.6-30.72q-54.4-33.28-119.68-33.28-4.48,0-14.080,0.64-12.8,0.64-14.080,0.64-3.84,0-7.040-3.2t-3.2-7.040z" horiz-adv-x="599.68"  />
<glyph unicode="&#xf546;" d="M-0.16,288.64q0,60.8 23.68,116.48t 64,96 96,64 116.48,23.68 116.48-23.68 96-64 64-96 23.68-116.48-23.68-116.48-64-96-96-64-116.48-23.68-116.48,23.68-96,64-64,96-23.68,116.48z m 121.6-127.36q0-3.2 2.56-5.12 3.84-3.2 17.28-10.24 46.72-23.68 97.92-23.68 64.64,0 116.48,32.64 24.96,16 44.16,38.4t 30.72,46.72 17.28,48.64 5.12,47.36l0,7.040q 22.4,16 35.2,37.12 1.28,1.92 1.28,3.2 0,2.56-1.92,4.48t-4.48,1.92l-4.48-1.28q-12.16-5.12-14.080-5.12 5.12,6.4 10.24,15.36t 5.12,13.44q0,1.92-1.92,3.84t-4.48,1.92q-1.28,0-3.2-0.64-23.040-12.8-40.96-16.64-23.040,22.4-55.68,22.4t-55.68-23.040-23.040-55.68q0-3.84 0.64-9.6-66.56,6.4-115.84,50.56-8.96,8.32-21.76,22.4-1.92,2.56-5.12,2.56t-4.48-3.2q-11.52-15.36-11.52-39.68 0-28.16 18.56-49.92-0.64,0-6.4,2.56-4.48,1.92-6.4,1.92-3.2,0-5.12-1.92t-1.92-5.12q0-20.48 10.24-38.4t 27.52-28.8l-0.64,0q-0.64,0-1.28,0t-2.56,0q-2.56,0-4.48-1.92t-1.92-4.48q0,0 0.64-1.92 6.4-19.84 21.12-33.92t 35.2-19.2q-33.28-20.48-73.6-20.48-0.64,0-8.96,0.64-1.92,0-5.12,0t-3.2,0q-1.92,0-3.84-1.92t-1.92-4.48z" horiz-adv-x="599.68"  />
<glyph unicode="&#xf547;" d="M-0.16,288.64l 62.080,0 0-299.52 123.52,0 0,299.52 83.2,0 10.88,103.68-93.44,0 0,51.84q0,12.16 1.28,18.56t 5.12,12.8 12.16,8.32 22.4,2.56l 51.84,0 0,103.68-82.56,0q-71.68,0-103.040-33.92t-31.36-100.48l0-62.080-62.080,0 0-103.68z" horiz-adv-x="279.68"  />
<glyph unicode="&#xf548;" d="M-0.16,288.64q0,60.8 23.68,116.48t 64,96 96,64 116.48,23.68 116.48-23.68 96-64 64-96 23.68-116.48-23.68-116.48-64-96-96-64-116.48-23.68-116.48,23.68-96,64-64,96-23.68,116.48z m 224.64,0l 33.28,0 0-161.92 66.56,0 0,161.92 44.8,0 5.76,55.68-50.56,0 0,28.16q0,12.8 3.84,17.28t 18.56,5.12l 27.52,0 0,55.68-44.8,0q-39.040,0-55.68-18.56t-16.64-54.4l0-33.28-33.28,0 0-55.68z" horiz-adv-x="599.68"  />
</font>
</defs>
</svg>
